<svg width="953" height="557" viewBox="0 0 953 557" fill="none" xmlns="http://www.w3.org/2000/svg">
<path d="M313.179 107.25V81.9375L361.46 6.00001H384.429V39.75H371.304L345.288 81V81.9375H416.538V107.25H313.179ZM371.538 126V99.5156L372.241 88.5V6.00001H402.71V126H371.538ZM482.471 129.281C471.572 129.242 462.158 126.723 454.229 121.723C446.299 116.723 440.186 109.516 435.889 100.102C431.592 90.6875 429.463 79.3984 429.502 66.2344C429.541 53.0313 431.689 41.8203 435.947 32.6016C440.244 23.3828 446.338 16.3711 454.229 11.5664C462.158 6.76173 471.572 4.35938 482.471 4.35938C493.369 4.35938 502.783 6.78126 510.713 11.625C518.643 16.4297 524.756 23.4414 529.053 32.6602C533.35 41.8789 535.479 53.0703 535.439 66.2344C535.439 79.4766 533.291 90.8047 528.994 100.219C524.697 109.633 518.584 116.84 510.654 121.84C502.764 126.801 493.369 129.281 482.471 129.281ZM482.471 102.797C488.096 102.797 492.705 99.8672 496.299 94.0078C499.932 88.1094 501.729 78.8516 501.689 66.2344C501.689 57.9922 500.869 51.2539 499.229 46.0195C497.588 40.7852 495.322 36.918 492.432 34.418C489.541 31.8789 486.221 30.6094 482.471 30.6094C476.846 30.6094 472.256 33.4609 468.701 39.1641C465.146 44.8672 463.33 53.8906 463.252 66.2344C463.213 74.6328 464.014 81.5469 465.654 86.9766C467.295 92.3672 469.561 96.3516 472.451 98.9297C475.381 101.508 478.721 102.797 482.471 102.797ZM549.561 107.25V81.9375L597.842 6.00001H620.811V39.75H607.686L581.67 81V81.9375H652.92V107.25H549.561ZM607.92 126V99.5156L608.623 88.5V6.00001H639.092V126H607.92Z" fill="#6F49FE"/>
<mask id="path-2-outside-1_2391_2781" maskUnits="userSpaceOnUse" x="315" y="-2" width="344" height="129" fill="black">
<rect fill="white" x="315" y="-2" width="344" height="129"/>
<path d="M317.179 103.25V77.9375L365.46 2.00001H388.429V35.75H375.304L349.288 77V77.9375H420.538V103.25H317.179ZM375.538 122V95.5156L376.241 84.5V2.00001H406.71V122H375.538ZM486.471 125.281C475.572 125.242 466.158 122.723 458.229 117.723C450.299 112.723 444.186 105.516 439.889 96.1016C435.592 86.6875 433.463 75.3984 433.502 62.2344C433.541 49.0313 435.689 37.8203 439.947 28.6016C444.244 19.3828 450.338 12.3711 458.229 7.56642C466.158 2.76173 475.572 0.359382 486.471 0.359382C497.369 0.359382 506.783 2.78126 514.713 7.62501C522.643 12.4297 528.756 19.4414 533.053 28.6602C537.35 37.8789 539.479 49.0703 539.439 62.2344C539.439 75.4766 537.291 86.8047 532.994 96.2188C528.697 105.633 522.584 112.84 514.654 117.84C506.764 122.801 497.369 125.281 486.471 125.281ZM486.471 98.7969C492.096 98.7969 496.705 95.8672 500.299 90.0078C503.932 84.1094 505.729 74.8516 505.689 62.2344C505.689 53.9922 504.869 47.2539 503.229 42.0195C501.588 36.7852 499.322 32.918 496.432 30.418C493.541 27.8789 490.221 26.6094 486.471 26.6094C480.846 26.6094 476.256 29.4609 472.701 35.1641C469.146 40.8672 467.33 49.8906 467.252 62.2344C467.213 70.6328 468.014 77.5469 469.654 82.9766C471.295 88.3672 473.561 92.3516 476.451 94.9297C479.381 97.5078 482.721 98.7969 486.471 98.7969ZM553.561 103.25V77.9375L601.842 2.00001H624.811V35.75H611.686L585.67 77V77.9375H656.92V103.25H553.561ZM611.92 122V95.5156L612.623 84.5V2.00001H643.092V122H611.92Z"/>
</mask>
<path d="M317.179 103.25H315.679V104.75H317.179V103.25ZM317.179 77.9375L315.913 77.1327L315.679 77.501V77.9375H317.179ZM365.46 2.00001V0.500008H364.636L364.194 1.1952L365.46 2.00001ZM388.429 2.00001H389.929V0.500008H388.429V2.00001ZM388.429 35.75V37.25H389.929V35.75H388.429ZM375.304 35.75V34.25H374.476L374.035 34.9498L375.304 35.75ZM349.288 77L348.019 76.1998L347.788 76.5665V77H349.288ZM349.288 77.9375H347.788V79.4375H349.288V77.9375ZM420.538 77.9375H422.038V76.4375H420.538V77.9375ZM420.538 103.25V104.75H422.038V103.25H420.538ZM375.538 122H374.038V123.5H375.538V122ZM375.538 95.5156L374.041 95.4201L374.038 95.4678V95.5156H375.538ZM376.241 84.5L377.738 84.5956L377.741 84.5478V84.5H376.241ZM376.241 2.00001V0.500008H374.741V2.00001H376.241ZM406.71 2.00001H408.21V0.500008H406.71V2.00001ZM406.71 122V123.5H408.21V122H406.71ZM318.679 103.25V77.9375H315.679V103.25H318.679ZM318.445 78.7423L366.726 2.80482L364.194 1.1952L315.913 77.1327L318.445 78.7423ZM365.46 3.50001H388.429V0.500008H365.46V3.50001ZM386.929 2.00001V35.75H389.929V2.00001H386.929ZM388.429 34.25H375.304V37.25H388.429V34.25ZM374.035 34.9498L348.019 76.1998L350.557 77.8002L376.572 36.5502L374.035 34.9498ZM347.788 77V77.9375H350.788V77H347.788ZM349.288 79.4375H420.538V76.4375H349.288V79.4375ZM419.038 77.9375V103.25H422.038V77.9375H419.038ZM420.538 101.75H317.179V104.75H420.538V101.75ZM377.038 122V95.5156H374.038V122H377.038ZM377.035 95.6112L377.738 84.5956L374.744 84.4045L374.041 95.4201L377.035 95.6112ZM377.741 84.5V2.00001H374.741V84.5H377.741ZM376.241 3.50001H406.71V0.500008H376.241V3.50001ZM405.21 2.00001V122H408.21V2.00001H405.21ZM406.71 120.5H375.538V123.5H406.71V120.5ZM486.471 125.281L486.465 126.781H486.471V125.281ZM458.229 117.723L457.428 118.991L457.428 118.991L458.229 117.723ZM439.889 96.1016L438.524 96.7244L438.524 96.7244L439.889 96.1016ZM433.502 62.2344L435.002 62.2388L435.002 62.2388L433.502 62.2344ZM439.947 28.6016L438.588 27.9679L438.586 27.9726L439.947 28.6016ZM458.229 7.56642L457.451 6.28353L457.448 6.28524L458.229 7.56642ZM514.713 7.62501L513.931 8.9051L513.936 8.90789L514.713 7.62501ZM533.053 28.6602L534.412 28.0265L534.412 28.0265L533.053 28.6602ZM539.439 62.2344L537.939 62.2299V62.2344H539.439ZM532.994 96.2188L534.359 96.8416L534.359 96.8416L532.994 96.2188ZM514.654 117.84L515.453 119.11L515.454 119.109L514.654 117.84ZM500.299 90.0078L499.022 89.2212L499.02 89.2236L500.299 90.0078ZM505.689 62.2344L504.189 62.2344L504.189 62.239L505.689 62.2344ZM503.229 42.0195L504.66 41.5709L504.66 41.5709L503.229 42.0195ZM496.432 30.418L495.442 31.545L495.45 31.5525L496.432 30.418ZM472.701 35.1641L471.428 34.3706L471.428 34.3706L472.701 35.1641ZM467.252 62.2344L465.752 62.2249L465.752 62.2274L467.252 62.2344ZM469.654 82.9766L468.218 83.4104L468.219 83.4133L469.654 82.9766ZM476.451 94.9297L475.453 96.0492L475.46 96.0558L476.451 94.9297ZM486.476 123.781C475.812 123.743 466.684 121.281 459.029 116.454L457.428 118.991C465.633 124.165 475.332 126.741 486.465 126.781L486.476 123.781ZM459.029 116.454C451.371 111.626 445.442 104.656 441.253 95.4787L438.524 96.7244C442.929 106.375 449.226 113.82 457.428 118.991L459.029 116.454ZM441.253 95.4787C437.067 86.3074 434.963 75.2434 435.002 62.2388L432.002 62.2299C431.962 75.5535 434.116 87.0676 438.524 96.7244L441.253 95.4787ZM435.002 62.2388C435.041 49.1893 437.165 38.204 441.309 29.2305L438.586 27.9726C434.214 37.4366 432.041 48.8732 432.002 62.2299L435.002 62.2388ZM441.307 29.2353C445.492 20.2566 451.396 13.4829 459.009 8.84759L457.448 6.28524C449.28 11.2593 442.996 18.5091 438.588 27.9679L441.307 29.2353ZM459.006 8.8493C466.663 4.20989 475.798 1.85938 486.471 1.85938V-1.14062C475.347 -1.14062 465.654 1.31356 457.451 6.28353L459.006 8.8493ZM486.471 1.85938C497.142 1.85938 506.275 4.22843 513.931 8.90509L515.495 6.34493C507.292 1.33409 497.597 -1.14062 486.471 -1.14062V1.85938ZM513.936 8.90789C521.587 13.5438 527.509 20.3172 531.693 29.2939L534.412 28.0265C530.003 18.5657 523.699 11.3156 515.49 6.34213L513.936 8.90789ZM531.693 29.2939C535.874 38.2631 537.978 49.2239 537.939 62.2299L540.939 62.2388C540.979 48.9167 538.825 37.4948 534.412 28.0265L531.693 29.2939ZM537.939 62.2344C537.939 75.3196 535.816 86.424 531.63 95.5959L534.359 96.8416C538.766 87.1854 540.939 75.6336 540.939 62.2344H537.939ZM531.63 95.5959C527.441 104.773 521.512 111.743 513.854 116.571L515.454 119.109C523.656 113.937 529.954 106.493 534.359 96.8416L531.63 95.5959ZM513.856 116.57C506.243 121.357 497.135 123.781 486.471 123.781V126.781C497.603 126.781 507.285 124.245 515.453 119.11L513.856 116.57ZM486.471 100.297C492.739 100.297 497.781 96.9816 501.577 90.7921L499.02 89.2236C495.629 94.7528 491.452 97.2969 486.471 97.2969V100.297ZM501.576 90.7944C505.432 84.533 507.229 74.9294 507.189 62.2297L504.189 62.239C504.228 74.7737 502.431 83.6857 499.022 89.2212L501.576 90.7944ZM507.189 62.2344C507.189 53.9084 506.363 47.0038 504.66 41.5709L501.797 42.4682C503.376 47.504 504.189 54.076 504.189 62.2344H507.189ZM504.66 41.5709C502.97 36.1802 500.587 32.0287 497.413 29.2834L495.45 31.5525C498.057 33.8073 500.206 37.3901 501.797 42.4682L504.66 41.5709ZM497.422 29.291C494.265 26.5184 490.595 25.1094 486.471 25.1094V28.1094C489.846 28.1094 492.817 29.2395 495.442 31.545L497.422 29.291ZM486.471 25.1094C480.22 25.1094 475.195 28.3278 471.428 34.3706L473.974 35.9575C477.317 30.5941 481.471 28.1094 486.471 28.1094V25.1094ZM471.428 34.3706C467.649 40.4341 465.831 49.802 465.752 62.2249L468.752 62.2439C468.83 49.9792 470.644 41.3003 473.974 35.9575L471.428 34.3706ZM465.752 62.2274C465.713 70.7106 466.519 77.787 468.218 83.4104L471.09 82.5427C469.508 77.3068 468.713 70.555 468.752 62.2414L465.752 62.2274ZM468.219 83.4133C469.906 88.9546 472.284 93.2227 475.453 96.0491L477.45 93.8102C474.837 91.4804 472.684 87.7798 471.089 82.5398L468.219 83.4133ZM475.46 96.0558C478.652 98.8642 482.34 100.297 486.471 100.297V97.2969C483.101 97.2969 480.11 96.1515 477.442 93.8036L475.46 96.0558ZM553.561 103.25H552.061V104.75H553.561V103.25ZM553.561 77.9375L552.295 77.1327L552.061 77.501V77.9375H553.561ZM601.842 2.00001V0.500008H601.018L600.576 1.1952L601.842 2.00001ZM624.811 2.00001H626.311V0.500008H624.811V2.00001ZM624.811 35.75V37.25H626.311V35.75H624.811ZM611.686 35.75V34.25H610.858L610.417 34.9498L611.686 35.75ZM585.67 77L584.401 76.1998L584.17 76.5665V77H585.67ZM585.67 77.9375H584.17V79.4375H585.67V77.9375ZM656.92 77.9375H658.42V76.4375H656.92V77.9375ZM656.92 103.25V104.75H658.42V103.25H656.92ZM611.92 122H610.42V123.5H611.92V122ZM611.92 95.5156L610.423 95.4201L610.42 95.4678V95.5156H611.92ZM612.623 84.5L614.12 84.5956L614.123 84.5478V84.5H612.623ZM612.623 2.00001V0.500008H611.123V2.00001H612.623ZM643.092 2.00001H644.592V0.500008H643.092V2.00001ZM643.092 122V123.5H644.592V122H643.092ZM555.061 103.25V77.9375H552.061V103.25H555.061ZM554.826 78.7423L603.108 2.80482L600.576 1.1952L552.295 77.1327L554.826 78.7423ZM601.842 3.50001H624.811V0.500008H601.842V3.50001ZM623.311 2.00001V35.75H626.311V2.00001H623.311ZM624.811 34.25H611.686V37.25H624.811V34.25ZM610.417 34.9498L584.401 76.1998L586.939 77.8002L612.954 36.5502L610.417 34.9498ZM584.17 77V77.9375H587.17V77H584.17ZM585.67 79.4375H656.92V76.4375H585.67V79.4375ZM655.42 77.9375V103.25H658.42V77.9375H655.42ZM656.92 101.75H553.561V104.75H656.92V101.75ZM613.42 122V95.5156H610.42V122H613.42ZM613.417 95.6112L614.12 84.5956L611.126 84.4045L610.423 95.4201L613.417 95.6112ZM614.123 84.5V2.00001H611.123V84.5H614.123ZM612.623 3.50001H643.092V0.500008H612.623V3.50001ZM641.592 2.00001V122H644.592V2.00001H641.592ZM643.092 120.5H611.92V123.5H643.092V120.5Z" fill="#181818" mask="url(#path-2-outside-1_2391_2781)"/>
<path d="M364.648 119.705C368.643 125.352 365.349 132.708 361.369 136.845C356.477 141.927 351.509 141.145 349.25 145.643C346.515 151.079 352.34 155.073 349.298 160.755C347.434 164.245 344.875 163.415 341.167 167.845C336.649 173.241 341.078 174.778 337.874 178.732C327.579 191.422 323.455 182.617 317.189 185.958C309.064 190.285 303.628 193.973 299.654 193.109C284.025 189.707 288.835 179.433 281.248 175.472C270.994 170.117 265.986 148.215 273.022 140.492C276.71 136.45 280.35 135.96 280.69 132.592C281.187 127.734 273.845 126.318 273.104 120.473C272.26 113.846 281.058 110.635 279.745 105.035C278.465 99.5776 269.443 99.7749 268.865 95.876C267.987 89.9631 287.25 79.3757 307.207 80.0289C316.746 80.3419 332.287 83.4242 334.873 91.3716C336.363 95.9645 332.485 98.9243 334.669 104.858C336.261 109.172 339.786 111.58 344.447 114.69C348.876 117.643 357.579 109.716 364.648 119.711V119.705Z" fill="#BBFC4A"/>
<path d="M316.964 116.146C320.101 115.99 321.707 136.92 319.883 139.662C318.06 142.404 314.637 144.431 314.413 147.425C314.188 150.419 315.522 203.513 316.631 202.744C317.74 201.975 326.932 188.061 325.095 184.822C323.258 181.583 321.183 176.575 321.611 172.343C322.04 168.11 322.047 162.075 323.231 162.225C324.415 162.374 323.421 172.765 324.245 174.779C325.068 176.793 325.211 178.371 326.395 178.405C327.579 178.439 327.606 167.45 329.416 167.641C331.226 167.831 329.994 184.032 329.375 187.033C328.756 190.034 326.633 200.383 324.667 204.2C322.707 208.011 316.746 212.012 316.603 213.311C316.461 214.611 317.413 245.529 317.413 245.529L301.804 245.815C301.804 245.815 307.567 184.856 306.281 182.828C304.995 180.8 296.851 164.327 295.109 162.647C293.367 160.966 292.319 150.698 293.244 150.549C294.163 150.399 294.673 160.408 296.592 160.571C298.504 160.735 299.538 141.206 300.926 141.376C302.315 141.546 299.579 161.639 300.328 162.878C301.076 164.116 305.431 171.553 306.873 171.397C308.316 171.24 306.077 116.568 307.316 115.956C308.554 115.336 309.486 115.854 310.255 121.569C311.017 127.292 312.494 139.784 313.351 139.771C314.208 139.757 316.352 137.872 316.393 136.62C316.433 135.368 315.569 116.235 316.964 116.16V116.146Z" fill="url(#paint0_linear_2391_2781)"/>
<path d="M655.259 178.229C653 181.427 654.864 185.591 657.116 187.931C659.886 190.81 662.696 190.367 663.982 192.912C665.533 195.988 662.233 198.254 663.955 201.465C665.009 203.438 666.459 202.969 668.561 205.48C671.12 208.535 668.609 209.406 670.425 211.644C676.257 218.83 678.591 213.842 682.136 215.734C686.735 218.183 689.811 220.272 692.063 219.782C700.915 217.857 698.187 212.039 702.48 209.794C708.285 206.766 711.122 194.362 707.135 189.986C705.046 187.7 702.984 187.421 702.793 185.516C702.514 182.767 706.665 181.964 707.087 178.657C707.563 174.901 702.583 173.085 703.324 169.914C704.045 166.825 709.155 166.933 709.489 164.729C709.986 161.381 699.078 155.387 687.783 155.761C682.381 155.938 673.583 157.68 672.12 162.184C671.276 164.783 673.474 166.457 672.235 169.819C671.337 172.261 669.337 173.622 666.697 175.384C664.186 177.051 659.26 172.567 655.259 178.229Z" fill="#BBFC4A"/>
<path d="M682.252 176.215C680.476 176.126 679.571 187.973 680.598 189.531C681.626 191.082 683.565 192.232 683.694 193.926C683.824 195.621 683.068 225.682 682.435 225.246C681.809 224.811 676.604 216.932 677.645 215.101C678.686 213.264 679.864 210.434 679.619 208.032C679.374 205.636 679.374 202.221 678.7 202.302C678.026 202.384 678.591 208.27 678.122 209.406C677.652 210.549 677.577 211.441 676.904 211.461C676.23 211.481 676.216 205.255 675.196 205.364C674.175 205.473 674.869 214.645 675.223 216.346C675.577 218.047 676.774 223.906 677.89 226.063C678.999 228.22 682.374 230.486 682.456 231.221C682.538 231.955 682 249.463 682 249.463L690.839 249.626C690.839 249.626 687.573 215.115 688.301 213.965C689.029 212.815 693.642 203.493 694.629 202.541C695.615 201.588 696.207 195.777 695.683 195.695C695.16 195.614 694.874 201.282 693.792 201.37C692.71 201.465 692.125 190.409 691.342 190.504C690.56 190.599 692.104 201.976 691.683 202.677C691.261 203.377 688.797 207.589 687.974 207.501C687.158 207.412 688.423 176.46 687.722 176.113C687.022 175.766 686.491 176.052 686.062 179.29C685.634 182.529 684.79 189.606 684.307 189.599C683.824 189.592 682.612 188.524 682.585 187.816C682.558 187.108 683.048 176.276 682.259 176.235L682.252 176.215Z" fill="url(#paint1_linear_2391_2781)"/>
<path d="M476.5 557C739.664 557 953 481.56 953 388.5C953 295.44 739.664 220 476.5 220C213.336 220 0 295.44 0 388.5C0 481.56 213.336 557 476.5 557Z" fill="url(#paint2_linear_2391_2781)"/>
<g clip-path="url(#clip0_2391_2781)">
<path d="M491.526 246.525C491.076 247.377 490.627 248.451 490.627 249.128C490.627 249.805 490.526 252.381 490.627 252.682C490.727 252.984 493.705 253.508 494.932 253.407C496.159 253.307 497.286 252.132 497.36 251.857C497.434 251.582 497.609 247.726 497.36 247.276C497.111 246.827 491.526 246.525 491.526 246.525Z" fill="#FFC5B7"/>
<path d="M476.436 247.866C476.248 248.621 476.2 250.429 476.318 250.874C476.436 251.32 476.977 252.167 476.977 252.988C476.977 253.809 482.925 253.787 483.161 253.272C483.396 252.756 483.405 251.381 483.379 250.839C483.357 250.298 483.885 249.298 483.724 248.756C483.558 248.215 482.877 247.18 482.244 247.04C481.61 246.901 476.44 247.861 476.44 247.861L476.436 247.866Z" fill="#FFC5B7"/>
<path d="M466.501 161.013C465.291 165.441 464.164 179.371 464.972 185.004C465.776 190.641 467.95 206.095 467.95 212.942C467.95 219.789 470.313 230.937 471.431 235.011C472.548 239.081 474.164 248.058 475.046 248.259C475.928 248.46 477.295 249.224 479.863 248.74C482.43 248.259 483.155 247.617 483.194 246.574C483.234 245.53 481.387 233.849 481.107 231.041C480.828 228.234 478.941 216.474 478.858 214.907C478.78 213.343 480.382 207.802 480.544 204.553C480.705 201.304 481.548 189.663 482.029 188.1C482.509 186.536 483.675 179.03 484.194 178.991C484.714 178.951 487.688 188.06 488.129 190.99C488.57 193.92 490.819 212.985 491.378 214.108C491.941 215.23 491.177 221.933 490.814 224.422C490.452 226.911 490.356 246.408 490.775 246.888C491.194 247.368 493.378 248.364 494.823 248.364C496.268 248.364 498.613 247.753 498.967 247.015C499.321 246.277 498.84 243.578 499.224 242.259C499.609 240.941 503.207 227.164 503.399 223.832C503.591 220.5 502.639 207.741 502.495 204.601C502.351 201.457 503.827 191.938 504.163 189.414C504.495 186.89 505.639 176.371 505.639 173.895C505.639 171.419 505.163 163.851 503.687 162.135C502.211 160.424 466.501 161.013 466.501 161.013Z" fill="#212121"/>
<path d="M525.01 119.909C525.613 119.498 526.596 118.734 526.762 118.202C526.927 117.669 527.556 116.245 528.233 115.905C528.91 115.564 530.333 115.123 530.988 114.905C531.643 114.686 533.285 113.73 533.587 113.59C533.888 113.455 534.857 113.276 535.119 113.796C535.381 114.315 535.036 115.355 534.355 115.617C533.67 115.879 532.058 116.398 532.207 116.752C532.355 117.106 533.901 117.49 535.119 116.887C536.338 116.285 538.442 115.752 538.936 115.477C539.429 115.202 543.054 113.717 543.42 113.726C543.787 113.734 544.171 113.892 544.337 114.237C544.503 114.582 545.591 113.734 545.922 114.311C546.254 114.883 545.473 115.206 545.433 115.385C545.39 115.564 545.87 115.752 545.883 116.18C545.892 116.608 545.259 116.848 544.246 117.306C543.233 117.765 538.643 120.66 537.914 121.044C537.185 121.429 535.691 122.228 533.836 122.394C531.975 122.56 529.718 122.647 529.189 123.324C528.661 123.996 527.421 125.778 527.093 125.887C526.766 125.996 524.67 126.324 524.159 125.066C523.648 123.808 525.019 119.909 525.019 119.909H525.01Z" fill="#FFC5B7"/>
<path d="M446.021 116.691C445.419 116.281 444.436 115.517 444.27 114.984C444.104 114.451 443.476 113.028 442.799 112.687C442.122 112.346 440.698 111.905 440.043 111.687C439.388 111.469 437.747 110.512 437.445 110.373C437.144 110.237 436.175 110.058 435.913 110.578C435.651 111.097 435.996 112.137 436.677 112.399C437.362 112.656 438.974 113.18 438.825 113.534C438.677 113.888 437.131 114.272 435.913 113.669C434.694 113.067 432.59 112.534 432.096 112.259C431.603 111.984 427.978 110.499 427.612 110.508C427.245 110.517 426.86 110.674 426.695 111.019C426.529 111.364 425.441 110.517 425.109 111.093C424.778 111.665 425.559 111.988 425.598 112.167C425.642 112.346 425.162 112.534 425.149 112.962C425.14 113.39 425.773 113.63 426.786 114.089C427.799 114.547 432.389 117.442 433.118 117.827C433.847 118.211 435.341 119.01 437.196 119.176C439.057 119.342 441.314 119.429 441.843 120.106C442.371 120.783 442.755 121.617 443.083 121.726C443.41 121.835 445.506 122.163 446.017 120.905C446.528 119.647 446.017 116.691 446.017 116.691H446.021Z" fill="#FFC5B7"/>
<path d="M479.772 97.2026C477.248 97.5039 467.314 98.7222 465.563 102.364C463.816 106.006 462.266 114.704 461.449 117.154C460.633 119.604 459.043 125.359 458.349 125.359C457.654 125.359 446.227 116.503 445.982 116.503C445.738 116.503 446.266 118.625 444.921 120.014C443.576 121.403 442.594 121.036 442.838 121.73C443.083 122.424 449.288 129.892 450.921 132.057C452.554 134.219 459.532 139.935 461.288 139.852C463.043 139.769 468.964 131.036 469.41 131.036C469.855 131.036 468.855 144.952 468.082 147.9C467.309 150.847 463.938 163.707 464.851 164.829C465.763 165.952 475.514 169.288 483.095 169.497C490.675 169.707 506.037 166.917 506.317 164.952C506.596 162.987 503.16 152.162 503.16 147.812C503.16 143.463 502.19 127.988 502.823 127.892C503.457 127.796 507.697 139.686 511.841 139.441C515.985 139.197 524.513 130.573 525.438 128.913C526.364 127.258 528.168 125.503 527.678 125.258C527.189 125.014 525.438 123.407 525.438 122.189C525.438 120.97 525.587 119.411 525.05 119.656C524.513 119.901 521.006 123.018 519.543 123.848C518.081 124.678 515.74 125.992 515.447 125.503C515.155 125.014 510.67 116.586 510.33 114.879C509.989 113.172 507.745 101.718 505.845 100.696C503.946 99.6741 495.094 96.5039 493.562 96.5039C492.029 96.5039 479.767 97.2026 479.767 97.2026H479.772Z" fill="#CFCFCF"/>
<path d="M479.615 94.0539C479.615 95.2329 480.244 96.8573 479.772 97.2023C479.301 97.5429 481.999 104.857 484.624 105.014C487.244 105.171 491.912 97.8835 492.017 97.0713C492.121 96.2591 491.781 93.3465 491.702 93.2417C491.624 93.1369 479.615 94.0539 479.615 94.0539Z" fill="url(#paint3_linear_2391_2781)"/>
<path d="M476.051 84.2777C475.593 81.1206 474.597 78.1556 475.274 75.0684C475.951 71.9811 478.165 68.2214 482.732 67.7498C487.3 67.2739 489.479 69.0162 491.732 71.9244C493.985 74.8326 493.688 84.0288 493.099 84.6227C492.505 85.2165 488.64 87.0549 484.282 87.116C479.924 87.1772 476.047 84.2777 476.047 84.2777H476.051Z" fill="#212121"/>
<path d="M477.85 88.9758C477.85 88.9758 478.758 93.9494 479.4 94.4865C480.042 95.0192 483.452 97.7484 485.627 97.6436C487.802 97.5388 492.238 94.4341 492.509 92.67C492.775 90.9058 492.518 87.4692 492.684 87.5347C492.845 87.6002 494.059 87.7312 494.286 85.8667C494.513 84.0021 494.448 81.0852 493.732 81.0546C493.011 81.024 492.653 83.7401 492.26 83.7401C491.867 83.7401 491.819 79.7839 491.116 78.9149C490.413 78.046 485.741 77.1377 485.077 77.1377C484.413 77.1377 481.396 81.0677 477.509 81.6878C477.509 81.6878 478.295 84.7881 477.715 84.8318C477.134 84.8711 476.348 82.3515 475.811 82.3515C475.274 82.3515 475.147 84.9147 475.396 86.609C475.645 88.3033 476.597 89.2552 476.924 89.2552C477.252 89.2552 477.488 88.7531 477.846 88.9845L477.85 88.9758Z" fill="#FFC5B7"/>
<path d="M497.727 253.028C498.269 253.827 498.186 255.866 499.247 257.827C500.308 259.787 501.125 261.486 501.164 262.883C501.203 264.281 499.745 266.56 497.727 266.879C495.71 267.198 493.409 267.32 492.391 266.778C491.374 266.237 490.151 265.32 490.151 263.822C490.151 262.324 490.391 259.425 490.151 258.927C489.911 258.429 489.671 256.949 489.671 256.207C489.671 255.464 489.492 253.29 489.911 252.748C490.33 252.207 491.99 251.111 493.649 251.128C495.308 251.15 497.264 252.346 497.727 253.028Z" fill="#6F49FE"/>
<path d="M476.301 253.028C475.759 253.827 475.842 255.866 474.781 257.827C473.72 259.787 472.903 261.486 472.864 262.883C472.825 264.281 474.283 266.56 476.301 266.879C478.318 267.198 480.619 267.32 481.637 266.778C482.654 266.237 483.877 265.32 483.877 263.822C483.877 262.324 483.637 259.425 483.877 258.927C484.117 258.429 484.357 256.949 484.357 256.207C484.357 255.464 484.536 253.29 484.117 252.748C483.698 252.207 482.038 251.111 480.379 251.128C478.72 251.15 476.763 252.346 476.301 253.028Z" fill="#6F49FE"/>
</g>
<defs>
<linearGradient id="paint0_linear_2391_2781" x1="295.826" y1="118.928" x2="380.968" y2="195.345" gradientUnits="userSpaceOnUse">
<stop offset="0.0108786" stop-color="#212121"/>
<stop offset="1" stop-color="#2D2D2D"/>
</linearGradient>
<linearGradient id="paint1_linear_2391_2781" x1="676.319" y1="177.797" x2="724.519" y2="221.076" gradientUnits="userSpaceOnUse">
<stop offset="0.0108786" stop-color="#212121"/>
<stop offset="1" stop-color="#2D2D2D"/>
</linearGradient>
<linearGradient id="paint2_linear_2391_2781" x1="476.5" y1="143.633" x2="476.5" y2="408.235" gradientUnits="userSpaceOnUse">
<stop stop-color="#C3C3C3"/>
<stop offset="0.48" stop-color="#EDEDED"/>
<stop offset="1" stop-color="#F6F6F6"/>
</linearGradient>
<linearGradient id="paint3_linear_2391_2781" x1="483.89" y1="89.1851" x2="487.349" y2="101.115" gradientUnits="userSpaceOnUse">
<stop stop-color="#F0794F"/>
<stop offset="1" stop-color="#FFC5B7"/>
</linearGradient>
<clipPath id="clip0_2391_2781">
<rect width="120.97" height="199.478" fill="white" transform="translate(425.031 67.6709)"/>
</clipPath>
</defs>
</svg>
