<svg width="981" height="412" viewBox="0 0 981 412" fill="none" xmlns="http://www.w3.org/2000/svg">
<g opacity="0.3" clip-path="url(#clip0_2382_456)">
<path d="M1115.44 347.723L1114.77 384.384C1068.32 382.51 1024.29 431.988 903.432 451.903C860.265 459.027 823.327 493.642 786.507 527.578C685.909 619.8 568.875 705.079 445.629 594.509C371.917 528.384 276.408 492.61 160.968 501.092C-31.2809 515.195 -140.771 442.217 -140.771 442.217L-139.712 384.483C-139.712 384.483 -28.4556 443.186 156.45 438.596C265.161 435.908 357.782 473.094 429.945 542.459C556.949 664.553 669.31 563.152 774.346 472.379C812.678 439.067 852.386 406.851 897.927 404.923C1036.97 399.057 1075.62 346.121 1115.44 347.705V347.723Z" fill="url(#paint0_linear_2382_456)"/>
<path d="M1116.8 274.239L1116.12 311.008C1082.95 309.668 1049.31 367.448 892.449 357.907C844.391 354.974 802.065 384.447 762.212 417.134C652.73 506.478 544.852 624.199 414.307 490.365C343.583 417.858 253.924 379.007 151.968 376.056C-25.6747 370.914 -138.643 326.704 -138.643 326.704L-137.574 268.853C-137.574 268.853 -22.9036 298.344 147.476 313.461C242.677 321.916 329.275 362.659 398.65 438.207C532.545 583.972 636.177 449.749 750.078 361.835C791.434 329.773 836.223 303.26 886.961 310.827C1061.14 336.815 1090.27 273.171 1116.8 274.248V274.239Z" fill="url(#paint1_linear_2382_456)"/>
<path d="M1117.92 212.848L1117.44 239.126C1097.54 238.32 1072.38 308.501 881.428 265.395C827.81 253.283 780.757 276.737 737.898 308.175C619.551 394.649 519.967 545.573 382.947 387.697C314.832 309.189 231.394 266.291 142.957 252.523C-20.142 227.114 -136.542 212.667 -136.542 212.667L-135.673 165.316C-135.673 165.316 -17.4616 164.374 138.276 200.401C220.011 219.32 300.153 264.589 367.109 346.03C507.026 516.172 602.78 348.411 725.564 263.367C769.936 232.545 819.09 212.214 875.759 228.807C1082.98 289.482 1104.66 212.323 1117.93 212.857L1117.92 212.848Z" fill="url(#paint2_linear_2382_456)"/>
<path d="M1118.79 165.542L1118.37 188.48C1111.74 188.208 1093.08 272.618 870.027 194.119C810.179 173.046 759.06 190.254 713.176 220.452C585.973 304.065 493.814 488.79 351.208 306.265C285.329 221.945 208.682 174.078 133.54 150.208C-14.6091 103.119 -134.849 119.874 -134.849 119.874L-134.043 75.8725C-134.043 75.8725 137.986 2.7049 335.297 267.957C532.599 533.199 625.754 64.4035 864.286 160.871C1102.82 257.357 1118.78 165.551 1118.78 165.551L1118.79 165.542Z" fill="url(#paint3_linear_2382_456)"/>
<path d="M1120.18 90.6634L1119.53 125.84C1119.53 125.84 1091.33 202.746 859.975 122.165C835.833 113.755 812.887 111.166 791.271 113.103C681.119 122.934 609.581 203.868 529.367 261.43C463.361 308.754 410.675 335.358 329.203 238.782C314.478 221.33 298.595 205.298 282.241 189.485C88.2347 1.8087 -116.158 29.0915 -133.092 24.9366L-132.241 -21.4731C-98.3819 -13.1724 77.5039 -5.48724 273.285 168.33C290.997 184.062 307.931 198.6 323 214.16C405.967 299.829 448.555 259.656 518.21 212.124C602.698 154.39 670.479 100.765 786.408 83.1321C808.187 79.8191 831.396 80.9687 855.565 88.0021C1079.36 153.077 1120.17 90.6725 1120.17 90.6725L1120.18 90.6634Z" fill="url(#paint4_linear_2382_456)"/>
<path d="M1121.53 17.1699L1120.84 54.4552C1120.84 54.4552 1067.09 102.811 851.182 52.7897C826.959 47.1774 803.514 47.4852 781.572 52.1198C659.83 77.8367 595.834 103.87 507.081 161.767C433.767 209.526 401.194 263.268 316.824 188.489C301.393 174.82 283.481 161.749 264.365 146.134C67.5246 -14.4307 -80.5698 -56.4684 -131.362 -68.915L-130.466 -117.425C-62.7394 -100.832 58.1883 -25.085 255.463 122.88C276.038 138.313 294.873 149.972 310.675 161.758C396.386 225.674 418.997 158.309 495.979 110.333C588.997 52.2556 649.207 54.0932 776.764 20.0304C798.877 14.1194 822.503 12.3361 846.817 16.491C1054.58 52.0112 1121.54 17.1699 1121.54 17.1699H1121.53Z" fill="url(#paint5_linear_2382_456)"/>
<path d="M1122.96 -60.5146L1122.23 -21.1744C1122.23 -21.1744 1041.85 0.740543 842.471 -20.8486C818.048 -23.4918 794.25 -20.2421 771.964 -13.1181C638.658 29.535 582.178 -0.390977 484.903 57.8589C404.255 106.043 391.514 187.05 304.544 133.968C288.353 124.075 268.675 113.773 246.589 98.5568C49.3408 -37.3776 -44.9003 -146.265 -129.561 -166.994L-128.628 -217.567C-27.0427 -192.674 40.8739 -51.2453 237.714 73.2473C261.34 88.1922 281.833 97.2081 298.423 105.183C386.587 147.537 389.521 52.7897 473.838 4.38852C575.396 -54.0424 628.207 4.21652 767.192 -47.2443C789.659 -55.5631 813.592 -60.243 838.151 -59.1839C1029.01 -50.9013 1122.97 -60.5146 1122.97 -60.5146H1122.96Z" fill="url(#paint6_linear_2382_456)"/>
<path d="M1124.45 -141.838L1123.7 -100.769C1123.7 -100.769 1016.13 -102.842 833.823 -98.4335C809.138 -97.8451 785.086 -91.7802 762.42 -82.3028C617.83 -21.8442 568.595 -108.608 462.772 -50.0141C374.807 -1.38661 381.625 107.183 292.311 75.4652C275.322 69.4275 254.069 61.6156 228.858 47.0237C32.7063 -66.5613 -9.16658 -240.016 -127.686 -269.046L-126.726 -321.349C8.72717 -288.155 24.7193 -83.1989 220.02 19.9671C246.843 34.1336 268.821 40.8683 286.234 44.9417C376.654 66.1325 360.109 -56.3868 451.724 -105.232C561.822 -163.997 607.588 -48.5387 757.675 -118.176C780.549 -128.794 804.71 -136.153 829.513 -138.498C1003.33 -154.954 1124.43 -141.838 1124.43 -141.838H1124.45Z" fill="url(#paint7_linear_2382_456)"/>
<path d="M1126 -226.031L1125.22 -183.622C1125.22 -183.622 990.8 -207.212 825.247 -179.277C800.344 -175.086 776.066 -166.487 752.957 -154.755C597.509 -75.7944 555.075 -220.084 440.712 -161.146C345.421 -112.084 371.736 24.5022 280.176 13.7121C262.354 11.6121 239.661 5.85498 211.209 -7.80454C16.8405 -101.022 26.6386 -337.027 -125.748 -374.367L-124.761 -428C44.5505 -386.524 8.97127 -119.914 202.389 -36.1736C232.498 -23.1297 255.889 -18.2325 274.099 -18.142C366.874 -17.6351 330.742 -168.415 429.692 -217.685C548.319 -276.813 587.512 -103.548 748.23 -191.95C771.584 -204.804 796.025 -214.526 820.982 -220.681C978.612 -259.596 1126.01 -226.031 1126.01 -226.031H1126Z" fill="url(#paint8_linear_2382_456)"/>
</g>
<defs>
<linearGradient id="paint0_linear_2382_456" x1="-140.771" y1="497.236" x2="1115.44" y2="497.236" gradientUnits="userSpaceOnUse">
<stop stop-color="white"/>
<stop offset="0.51" stop-color="#E6E6E6"/>
<stop offset="1" stop-color="white"/>
</linearGradient>
<linearGradient id="paint1_linear_2382_456" x1="-138.643" y1="409.802" x2="1116.8" y2="409.802" gradientUnits="userSpaceOnUse">
<stop stop-color="white"/>
<stop offset="0.51" stop-color="#E6E6E6"/>
<stop offset="1" stop-color="white"/>
</linearGradient>
<linearGradient id="paint2_linear_2382_456" x1="-136.542" y1="310.972" x2="1117.92" y2="310.972" gradientUnits="userSpaceOnUse">
<stop stop-color="white"/>
<stop offset="0.51" stop-color="#E6E6E6"/>
<stop offset="1" stop-color="white"/>
</linearGradient>
<linearGradient id="paint3_linear_2382_456" x1="-134.84" y1="225.349" x2="1118.79" y2="225.349" gradientUnits="userSpaceOnUse">
<stop stop-color="white"/>
<stop offset="0.51" stop-color="#E6E6E6"/>
<stop offset="1" stop-color="white"/>
</linearGradient>
<linearGradient id="paint4_linear_2382_456" x1="-133.092" y1="141.301" x2="1120.18" y2="141.301" gradientUnits="userSpaceOnUse">
<stop stop-color="white"/>
<stop offset="0.51" stop-color="#E6E6E6"/>
<stop offset="1" stop-color="white"/>
</linearGradient>
<linearGradient id="paint5_linear_2382_456" x1="-131.362" y1="54.066" x2="1121.53" y2="54.066" gradientUnits="userSpaceOnUse">
<stop stop-color="white"/>
<stop offset="0.51" stop-color="#E6E6E6"/>
<stop offset="1" stop-color="white"/>
</linearGradient>
<linearGradient id="paint6_linear_2382_456" x1="-129.561" y1="-33.105" x2="1122.96" y2="-33.105" gradientUnits="userSpaceOnUse">
<stop stop-color="white"/>
<stop offset="0.51" stop-color="#E6E6E6"/>
<stop offset="1" stop-color="white"/>
</linearGradient>
<linearGradient id="paint7_linear_2382_456" x1="-127.686" y1="-120.086" x2="1124.45" y2="-120.086" gradientUnits="userSpaceOnUse">
<stop stop-color="white"/>
<stop offset="0.51" stop-color="#E6E6E6"/>
<stop offset="1" stop-color="white"/>
</linearGradient>
<linearGradient id="paint8_linear_2382_456" x1="-125.748" y1="-206.841" x2="1126" y2="-206.841" gradientUnits="userSpaceOnUse">
<stop stop-color="white"/>
<stop offset="0.51" stop-color="#E6E6E6"/>
<stop offset="1" stop-color="white"/>
</linearGradient>
<clipPath id="clip0_2382_456">
<rect width="1271" height="1268" fill="white" transform="translate(-145 -428)"/>
</clipPath>
</defs>
</svg>
