<svg width="250" height="200" viewBox="0 0 250 200" fill="none" xmlns="http://www.w3.org/2000/svg">
<path fill-rule="evenodd" clip-rule="evenodd" d="M207 65C210.866 65 214 68.134 214 72C214 75.866 210.866 79 207 79H167C170.866 79 174 82.134 174 86C174 89.866 170.866 93 167 93H189C192.866 93 196 96.134 196 100C196 103.866 192.866 107 189 107H178.826C173.952 107 170 110.134 170 114C170 116.577 172 118.911 176 121C179.866 121 183 124.134 183 128C183 131.866 179.866 135 176 135H93C89.134 135 86 131.866 86 128C86 124.134 89.134 121 93 121H54C50.134 121 47 117.866 47 114C47 110.134 50.134 107 54 107H94C97.866 107 101 103.866 101 100C101 96.134 97.866 93 94 93H69C65.134 93 62 89.866 62 86C62 82.134 65.134 79 69 79H109C105.134 79 102 75.866 102 72C102 68.134 105.134 65 109 65H207ZM207 93C210.866 93 214 96.134 214 100C214 103.866 210.866 107 207 107C203.134 107 200 103.866 200 100C200 96.134 203.134 93 207 93Z" fill="#F6F6F6"/>
<path d="M159.959 67.6541C159.949 66.9638 159.382 66.4121 158.691 66.4218C158.001 66.4316 157.449 66.999 157.459 67.6893L159.959 67.6541ZM159.674 136.142L160.924 136.142C160.924 136.136 160.924 136.131 160.923 136.125L159.674 136.142ZM159.674 143L160.924 143L159.674 143ZM155.674 147L155.674 148.25L155.674 147ZM96.6736 147L96.6736 148.25L96.6736 147ZM92.6736 143L93.9236 143L92.6736 143ZM92.6736 69.0208L91.4236 69.0208L92.6736 69.0208ZM94.6736 67.0208L94.6736 65.7708L94.6736 67.0208ZM94.6945 67.0209L94.6814 68.2709L94.6945 67.0209ZM99.57 68.322C100.26 68.3293 100.826 67.7755 100.833 67.0852C100.84 66.3949 100.286 65.8294 99.5962 65.8222L99.57 68.322ZM157.459 67.6893L158.424 136.16L160.923 136.125L159.959 67.6541L157.459 67.6893ZM158.424 136.142L158.424 143L160.924 143L160.924 136.142L158.424 136.142ZM158.424 143C158.424 144.519 157.192 145.75 155.674 145.75L155.674 148.25C158.573 148.25 160.924 145.899 160.924 143L158.424 143ZM155.674 145.75L96.6736 145.75L96.6736 148.25L155.674 148.25L155.674 145.75ZM96.6736 145.75C95.1548 145.75 93.9236 144.519 93.9236 143L91.4236 143C91.4236 145.899 93.7741 148.25 96.6736 148.25L96.6736 145.75ZM93.9236 143L93.9236 69.0208L91.4236 69.0208L91.4236 143L93.9236 143ZM93.9236 69.0208C93.9236 68.6066 94.2594 68.2708 94.6736 68.2708L94.6736 65.7708C92.8787 65.7708 91.4236 67.2259 91.4236 69.0208L93.9236 69.0208ZM94.6736 68.2708C94.6762 68.2708 94.6788 68.2708 94.6814 68.2709L94.7076 65.771C94.6963 65.7709 94.6849 65.7708 94.6736 65.7708L94.6736 68.2708ZM94.6814 68.2709L99.57 68.322L99.5962 65.8222L94.7076 65.771L94.6814 68.2709Z" fill="#6F49FE"/>
<path fill-rule="evenodd" clip-rule="evenodd" d="M155.701 71.5542L156.564 133.606V139.82C156.564 141.822 154.961 143.445 152.982 143.445H100.147C98.1682 143.445 96.5645 141.822 96.5645 139.82V72.9453C96.5645 71.8407 97.4599 70.9453 98.5645 70.9453H105.101" fill="#F6EFFF"/>
<path d="M107.922 54C107.922 52.4812 109.153 51.25 110.672 51.25H156.229C156.958 51.25 157.657 51.5395 158.173 52.0549L171.616 65.4898C172.132 66.0056 172.422 66.7053 172.422 67.4349V130C172.422 131.519 171.191 132.75 169.672 132.75H110.672C109.153 132.75 107.922 131.519 107.922 130V54Z" fill="white" stroke="#6F49FE" stroke-width="2.5"/>
<path d="M156.672 52.4028V64C156.672 65.6569 158.015 67 159.672 67H167.605" stroke="#6F49FE" stroke-width="2.5" stroke-linecap="round" stroke-linejoin="round"/>
<path d="M118 118H144M118 67H144H118ZM118 79H161H118ZM118 92H161H118ZM118 105H161H118Z" stroke="#6F49FE" stroke-width="2.5" stroke-linecap="round" stroke-linejoin="round"/>
</svg>
