<svg width="492" height="370" viewBox="0 0 492 370" fill="none" xmlns="http://www.w3.org/2000/svg">
<rect width="492" height="370" rx="12" fill="#E4E4E4"/>
<path d="M167.835 193.22L170.642 172.172L159.718 178.478L155.447 171.077L172.541 161.211L165.248 157L141 170.998V198.998L165.248 213L189.496 199.002V190.581L172.111 200.621L167.835 193.22Z" fill="#A5A5A5"/>
<path d="M189.496 170.997L181.454 166.356L178.764 186.909L189.496 180.714V170.997Z" fill="#A5A5A5"/>
<path d="M238.822 170.759H226.467V177H237.302C238.27 177 239.061 177.313 239.669 177.912C240.268 178.515 240.567 179.32 240.567 180.302V181.776H233.573C230.686 181.776 228.338 182.656 226.527 184.382C224.726 186.127 223.823 188.396 223.823 191.203C223.823 193.739 224.572 195.797 226.078 197.369C227.585 198.932 229.554 199.727 232.006 199.727C234.069 199.727 235.861 199.105 237.367 197.874C238.874 196.649 239.94 194.969 240.572 192.85V199.718H248.31V180.298C248.31 177.416 247.43 175.105 245.685 173.36C243.935 171.619 241.648 170.754 238.827 170.754L238.822 170.759ZM240.567 189.046C240.46 190.38 239.95 191.437 239.047 192.26C238.148 193.07 236.997 193.477 235.608 193.477C234.401 193.477 233.428 193.163 232.707 192.518C231.968 191.872 231.599 191.044 231.599 190.019C231.599 188.995 231.926 188.246 232.586 187.662C233.245 187.072 234.125 186.782 235.21 186.782H240.572V189.051L240.567 189.046Z" fill="#A5A5A5"/>
<path d="M274.18 185.246C272.739 184.02 270.363 183.108 267.041 182.514L264.94 182.177C263.242 181.882 262.054 181.526 261.371 181.119C260.688 180.712 260.346 180.174 260.346 179.505C260.346 178.762 260.688 178.186 261.371 177.779C262.054 177.372 262.985 177.166 264.164 177.166C267.041 177.166 268.59 178.28 268.809 180.511H275.56C275.266 177.428 274.096 175.033 272.047 173.321C269.998 171.613 267.242 170.757 263.776 170.757C260.309 170.757 257.783 171.566 255.864 173.18C253.946 174.794 252.987 177.035 252.987 179.894C252.987 182.233 253.717 184.034 255.172 185.297C256.632 186.56 259.055 187.473 262.447 188.029L264.604 188.422C266.227 188.684 267.369 189.007 268.033 189.395C268.697 189.784 269.029 190.298 269.029 190.93C269.029 192.525 267.588 193.325 264.711 193.325C261.39 193.325 259.621 192.212 259.401 189.98H252.65C252.945 193.063 254.161 195.459 256.304 197.171C258.442 198.878 261.319 199.735 264.936 199.735C268.552 199.735 271.308 198.907 273.319 197.255C275.331 195.604 276.337 193.344 276.337 190.485C276.337 188.221 275.616 186.471 274.18 185.246Z" fill="#A5A5A5"/>
<path d="M315.319 170.757C311.712 170.757 308.807 171.89 306.603 174.154C304.419 176.423 303.314 179.412 303.314 183.127V187.356C303.314 191.076 304.414 194.06 306.603 196.325C308.807 198.594 311.726 199.735 315.385 199.735C318.585 199.735 321.247 198.832 323.352 197.054C325.448 195.267 326.762 192.858 327.272 189.817H320.414C320.119 190.884 319.548 191.721 318.72 192.315C317.892 192.909 316.872 193.209 315.656 193.209C314.145 193.209 312.928 192.769 312.007 191.899C311.076 191.019 310.617 189.864 310.617 188.414V187.459H327.333V183.178C327.333 179.459 326.224 176.456 324.012 174.177C321.799 171.894 318.907 170.748 315.324 170.748L315.319 170.757ZM320.465 182.57H310.617V182.065C310.617 180.615 311.071 179.459 311.983 178.58C312.882 177.709 314.098 177.279 315.6 177.279C317.102 177.279 318.257 177.709 319.141 178.58C320.021 179.459 320.465 180.615 320.465 182.065V182.57Z" fill="#A5A5A5"/>
<path d="M348.589 170.757C346.535 170.757 344.762 171.407 343.26 172.708C341.759 174.008 340.687 175.805 340.042 178.102V170.757H332.238V199.735H340.042V182.691C340.042 181.316 340.449 180.207 341.268 179.365C342.086 178.523 343.158 178.102 344.486 178.102H350.414V170.757H348.589Z" fill="#A5A5A5"/>
<path d="M207.574 170.351C208.192 169.513 208.996 169.092 209.998 169.092H214.456V161.747H213.085C211.546 161.747 210.208 162.393 209.081 163.693C208.66 164.184 208.281 164.741 207.949 165.373C207.12 166.94 206.718 168.835 206.667 170.758H202.994V177.13H206.62V191.445C206.62 193.953 207.373 195.96 208.894 197.466C210.405 198.977 212.388 199.731 214.849 199.731L219.972 199.721V193.354H216.398C215.822 193.354 215.364 193.172 215.018 192.83C214.676 192.484 214.498 192.021 214.498 191.441V177.125H219.972V170.753H207.317C207.396 170.613 207.481 170.477 207.574 170.346V170.351Z" fill="#A5A5A5"/>
<path d="M303.119 170.897H294.244L290.857 176.493L287.737 181.657V170.757H280.148V199.725H287.737V191.496L289.907 188.202L295.587 199.735H304.373L292.743 183.978L303.119 170.897Z" fill="#A5A5A5"/>
</svg>
