<svg xmlns="http://www.w3.org/2000/svg" width="190" height="190" viewBox="0 0 190 190" fill="none">
    <path d="M84.875 13.3132C84.875 10.6724 82.732 8.51616 80.0963 8.67992C67.6136 9.45548 55.4812 13.2603 44.7619 19.796C34.0425 26.3317 25.1036 35.3743 18.6972 46.1157C17.3445 48.3838 18.2798 51.2764 20.6274 52.4858L39.5254 62.2221C41.873 63.4316 44.7364 62.4922 46.1817 60.2821C49.9322 54.5472 54.9225 49.7001 60.8071 46.1122C66.6917 42.5242 73.2861 40.308 80.1019 39.6005C82.7286 39.3279 84.875 37.2127 84.875 34.5719V13.3132Z" fill="#FFA36B"/>
    <path d="M177.878 104.656C180.519 104.656 182.673 102.514 182.525 99.8773C181.988 90.3449 179.849 80.959 176.187 72.1173C171.914 61.8011 165.651 52.4276 157.755 44.5319C149.859 36.6363 140.486 30.3731 130.17 26.1C121.328 22.4376 111.942 20.2986 102.41 19.762C99.773 19.6135 97.6304 21.7684 97.6304 24.4092V48.8575C97.6304 51.4983 99.7759 53.6159 102.405 53.863C107.468 54.3389 112.44 55.5699 117.154 57.5226C123.344 60.0864 128.968 63.8443 133.705 68.5817C138.443 73.3191 142.2 78.9432 144.764 85.1329C146.717 89.8472 147.948 94.8193 148.424 99.8818C148.671 102.511 150.789 104.656 153.429 104.656H177.878Z" fill="#FFE0BB"/>
    <path d="M104.624 184.598C104.855 187.229 107.177 189.189 109.791 188.811C127.71 186.222 144.383 177.97 157.334 165.199C170.285 152.428 178.768 135.872 181.607 117.991C182.021 115.382 180.094 113.033 177.467 112.766L153.144 110.295C150.516 110.028 148.193 111.949 147.681 114.54C145.706 124.546 140.766 133.77 133.452 140.982C126.139 148.195 116.846 153.005 106.814 154.84C104.216 155.316 102.263 157.612 102.494 160.243L104.624 184.598Z" fill="#05A4A6"/>
    <path d="M26.2224 69.4783C23.8489 68.3207 20.9729 69.3019 19.9505 71.7367C15.0392 83.4327 12.7992 96.0996 13.4208 108.81C14.1205 123.115 18.4222 137.012 25.9268 149.21C33.4314 161.409 43.8958 171.514 56.3489 178.589C67.4137 184.874 79.7301 188.586 92.3841 189.476C95.0184 189.661 97.1909 187.536 97.2278 184.896L97.5691 160.45C97.606 157.809 95.4903 155.662 92.8648 155.378C85.9436 154.63 79.2309 152.471 73.1486 149.016C65.6768 144.771 59.3981 138.708 54.8954 131.389C50.3926 124.07 47.8116 115.732 47.3918 107.149C47.0501 100.162 48.1495 93.1967 50.6023 86.6815C51.5327 84.21 50.57 81.3534 48.1965 80.1958L26.2224 69.4783Z" fill="#87E9FF"/>
  </svg>