<svg width="40" height="40" viewBox="0 0 40 40" fill="none" xmlns="http://www.w3.org/2000/svg">
<path d="M28.873 18.1612C30.8828 17.8345 32.4301 15.8412 32.4344 13.4262C32.4344 11.0462 30.9347 9.07286 28.9681 8.69952" stroke="#C06EF3" stroke-width="2.89286" stroke-linecap="round" stroke-linejoin="round"/>
<path d="M31.5254 23.7506C33.4717 24.0873 34.8303 24.8756 34.8303 26.5006C34.8303 27.619 34.1906 28.3456 33.1562 28.8023" stroke="#C06EF3" stroke-width="2.89286" stroke-linecap="round" stroke-linejoin="round"/>
<path fill-rule="evenodd" clip-rule="evenodd" d="M20.2295 24.4398C15.5992 24.4398 11.6445 25.2514 11.6445 28.4931C11.6445 31.7331 15.5747 32.5681 20.2295 32.5681C24.8598 32.5681 28.813 31.7648 28.813 28.5214C28.813 25.2781 24.8843 24.4398 20.2295 24.4398Z" stroke="#C06EF3" stroke-width="2.89286" stroke-linecap="round" stroke-linejoin="round"/>
<path fill-rule="evenodd" clip-rule="evenodd" d="M20.2285 19.8132C23.2669 19.8132 25.7304 16.9649 25.7304 13.4482C25.7304 9.93319 23.2669 7.08319 20.2285 7.08319C17.1902 7.08319 14.7266 9.93319 14.7266 13.4482C14.7151 16.9515 17.1599 19.8015 20.1882 19.8132H20.2285Z" stroke="#C06EF3" stroke-width="2.89286" stroke-linecap="round" stroke-linejoin="round"/>
<path d="M11.5809 18.1612C9.56969 17.8345 8.02385 15.8412 8.01953 13.4262C8.01953 11.0462 9.51927 9.07286 11.4858 8.69952" stroke="#C06EF3" stroke-width="2.89286" stroke-linecap="round" stroke-linejoin="round"/>
<path d="M8.9299 23.7506C6.98355 24.0873 5.625 24.8756 5.625 26.5006C5.625 27.619 6.26466 28.3456 7.29906 28.8023" stroke="#C06EF3" stroke-width="2.89286" stroke-linecap="round" stroke-linejoin="round"/>
</svg>
