<svg width="48" height="48" viewBox="0 0 48 48" fill="none" xmlns="http://www.w3.org/2000/svg">
<path d="M11.9992 9.5998C11.9992 8.32677 12.5049 7.10587 13.4051 6.20569C14.3053 5.30552 15.5262 4.7998 16.7992 4.7998H31.1992C32.4723 4.7998 33.6932 5.30552 34.5933 6.20569C35.4935 7.10587 35.9992 8.32677 35.9992 9.5998V17.0038C35.2226 16.7304 34.3759 16.7304 33.5992 17.0038V9.5998C33.5992 8.96329 33.3464 8.35284 32.8963 7.90275C32.4462 7.45266 31.8357 7.1998 31.1992 7.1998H16.7992C16.1627 7.1998 15.5522 7.45266 15.1022 7.90275C14.6521 8.35284 14.3992 8.96329 14.3992 9.5998V17.0038C13.6226 16.7304 12.7759 16.7304 11.9992 17.0038V9.5998ZM11.9992 33.3958C12.7744 33.6694 13.624 33.6694 14.3992 33.3958V38.3998C14.3992 39.0363 14.6521 39.6468 15.1022 40.0969C15.5522 40.547 16.1627 40.7998 16.7992 40.7998H31.1992C31.8357 40.7998 32.4462 40.547 32.8963 40.0969C33.3464 39.6468 33.5992 39.0363 33.5992 38.3998V33.3958C34.3744 33.6694 35.224 33.6694 35.9992 33.3958V38.3998C35.9992 39.6728 35.4935 40.8937 34.5933 41.7939C33.6932 42.6941 32.4723 43.1998 31.1992 43.1998H16.7992C15.5262 43.1998 14.3053 42.6941 13.4051 41.7939C12.5049 40.8937 11.9992 39.6728 11.9992 38.3998V33.3958ZM7.55202 24.3502L12.352 19.5502C12.4636 19.4388 12.596 19.3504 12.7417 19.2902C12.8874 19.23 13.0436 19.199 13.2013 19.1991C13.3589 19.1992 13.515 19.2304 13.6607 19.2909C13.8063 19.3513 13.9386 19.4398 14.05 19.5514C14.1614 19.663 14.2498 19.7954 14.31 19.9411C14.3703 20.0868 14.4012 20.243 14.4011 20.4007C14.401 20.5583 14.3698 20.7144 14.3094 20.8601C14.2489 21.0057 14.1604 21.138 14.0488 21.2494L11.296 23.9998H17.9992C18.3175 23.9998 18.6227 24.1262 18.8477 24.3513C19.0728 24.5763 19.1992 24.8815 19.1992 25.1998C19.1992 25.5181 19.0728 25.8233 18.8477 26.0483C18.6227 26.2734 18.3175 26.3998 17.9992 26.3998H11.296L14.0488 29.1502C14.2741 29.3755 14.4007 29.6811 14.4007 29.9998C14.4007 30.3185 14.2741 30.6241 14.0488 30.8494C13.8235 31.0747 13.5179 31.2013 13.1992 31.2013C12.8806 31.2013 12.5749 31.0747 12.3496 30.8494L7.54962 26.0494C7.32624 25.8258 7.20029 25.523 7.19922 25.207V25.1926C7.20065 24.8797 7.32473 24.5798 7.54482 24.3574L7.55202 24.3502ZM35.6488 30.8494L40.4488 26.0494L40.4536 26.0422C40.6735 25.8196 40.7975 25.5199 40.7992 25.207V25.1926C40.7973 24.8775 40.6714 24.5757 40.4488 24.3526L35.6488 19.5526C35.4238 19.3273 35.1185 19.2006 34.8001 19.2003C34.4816 19.2001 34.1761 19.3264 33.9508 19.5514C33.7255 19.7764 33.5988 20.0817 33.5985 20.4002C33.5983 20.7186 33.7246 21.0241 33.9496 21.2494L36.7024 23.9998H29.9992C29.681 23.9998 29.3757 24.1262 29.1507 24.3513C28.9256 24.5763 28.7992 24.8815 28.7992 25.1998C28.7992 25.5181 28.9256 25.8233 29.1507 26.0483C29.3757 26.2734 29.681 26.3998 29.9992 26.3998H36.7024L33.9496 29.1502C33.7243 29.3755 33.5977 29.6811 33.5977 29.9998C33.5977 30.3185 33.7243 30.6241 33.9496 30.8494C34.1749 31.0747 34.4806 31.2013 34.7992 31.2013C35.1179 31.2013 35.4235 31.0747 35.6488 30.8494Z" fill="#212121"/>
</svg>
