<svg width="59" height="77" viewBox="0 0 59 77" fill="none" xmlns="http://www.w3.org/2000/svg">
<path d="M15.6836 56.3388C14.5416 57.0837 13.4586 57.9169 12.4448 58.8301C12.1822 59.0795 11.9159 59.3282 11.6557 59.5832C11.4037 59.8476 11.155 60.1152 10.9148 60.3889C9.89596 61.5926 8.96205 62.8855 8.0424 64.2028L6.67004 66.1939C6.21233 66.8598 5.75897 67.5335 5.28302 68.1897L5.276 68.1994C5.11229 68.4252 4.86566 68.5766 4.59049 68.6202C4.3154 68.6639 4.03426 68.5957 3.80888 68.4317C3.6672 68.3275 3.55367 68.1896 3.47827 68.0311C3.40305 67.8718 3.36834 67.6967 3.37758 67.5203L3.50822 65.2405C3.63518 62.7824 3.7638 60.3213 3.90871 57.8566C4.05453 55.3921 4.21591 52.9239 4.44338 50.4493C4.52222 49.7014 4.6417 48.9583 4.80131 48.2233C4.94133 47.5238 5.21794 47.0921 5.52569 46.8467C5.97639 46.4906 6.34681 46.9601 6.34415 47.9498C6.33729 48.6026 6.29175 49.2544 6.20773 49.9018C5.87536 52.8764 5.73434 55.87 5.78585 58.8624C5.7965 59.691 5.83849 60.5543 5.74281 61.3563C5.49566 63.4333 5.45761 65.5338 5.36577 67.6278L3.66297 67.0303C3.94082 66.6323 4.22466 66.238 4.52098 65.854C5.68402 64.334 6.77385 62.7383 7.99209 61.2201C9.0771 59.8472 10.2666 58.5606 11.5498 57.372C12.8456 56.1953 14.2413 55.1349 15.7213 54.2014C16.0152 54.0183 16.3095 53.844 16.6037 53.6824C16.9028 53.5305 17.2022 53.3923 17.5018 53.2679C18.0801 53.0234 18.6862 52.8514 19.3064 52.7551C19.5833 52.7136 19.7615 52.7866 19.816 52.9271C19.8684 53.0646 19.8049 53.2824 19.5779 53.4918C19.2447 53.7689 18.8908 54.0289 18.5405 54.2956C18.1916 54.5661 17.8336 54.8261 17.4738 55.079C17.1858 55.2966 16.8826 55.4975 16.5744 55.6947L16.3431 55.8416L16.118 55.9966C15.9685 56.1008 15.8193 56.2052 15.6704 56.3087L15.6836 56.3388Z" fill="#FFC32C"/>
<path d="M10.6429 50.7187C11.6981 48.7962 12.8265 46.9082 14.059 45.084C15.2915 43.2552 16.6324 41.5021 18.0745 39.8341C19.6108 38.0579 21.2743 36.3961 23.0516 34.8618C25.4252 32.7909 28.0733 31.0585 30.9205 29.7137C32.3574 29.0414 33.8508 28.4976 35.3833 28.0888C36.1732 27.8709 36.9803 27.7209 37.7957 27.6404C38.665 27.5518 39.543 27.6076 40.3941 27.8057C40.8615 27.9172 41.3095 28.0983 41.7232 28.343C42.1875 28.615 42.5804 28.9939 42.8696 29.4481C43.1657 29.9229 43.329 30.4687 43.3424 31.0283C43.3539 31.5446 43.2611 32.0579 43.0696 32.5373C42.895 32.9814 42.6584 33.3982 42.3669 33.7757C42.0934 34.1251 41.7878 34.4483 41.4544 34.7409C40.8423 35.2884 40.186 35.7842 39.4921 36.2232C38.1214 37.092 36.6401 37.7719 35.0882 38.2446C33.5303 38.7196 31.912 38.967 30.2835 38.9791C28.2557 39 26.2451 38.6052 24.3755 37.8187C24.1226 37.7076 23.8769 37.5808 23.6399 37.4389C23.3948 37.2925 23.1622 37.1259 22.9447 36.9409C22.4943 36.5726 22.1112 36.1286 21.8129 35.6288C21.5122 35.1201 21.3102 34.5591 21.2173 33.9754C21.1299 33.4186 21.1252 32.852 21.2032 32.2938C21.3598 31.2578 21.6876 30.2551 22.1731 29.3268C22.3975 28.8773 22.6455 28.4398 22.9158 28.0164C23.0501 27.8062 23.187 27.5982 23.3302 27.3951C23.4724 27.1903 23.615 27.004 23.7576 26.8076C24.8956 25.2554 26.1342 23.7798 27.4653 22.3901C32.8186 16.8459 39.4693 12.7277 46.8142 10.4091C47.0874 10.317 47.3657 10.2397 47.6433 10.1592C47.9214 10.081 48.1977 9.99612 48.4781 9.92489C49.039 9.78402 49.598 9.63601 50.1639 9.52026C51.2903 9.26628 52.4269 9.08083 53.5517 8.9225C54.4498 8.7991 55.3545 8.73131 56.2608 8.71949C56.6279 8.71963 56.9541 8.7251 57.2432 8.74052C57.5328 8.76239 57.7849 8.78928 58.0034 8.8203C58.6395 8.91067 58.6387 9.03901 58.1075 9.18025C57.9747 9.21555 57.8086 9.25166 57.6109 9.28804C57.4132 9.32245 57.1847 9.36224 56.925 9.40749C56.666 9.45184 56.3774 9.4966 56.059 9.54193C55.7418 9.59359 55.3964 9.65145 55.0232 9.70651C53.0583 10.0133 51.1116 10.4276 49.192 10.9477C44.8056 12.1353 40.633 14.0065 36.8275 16.493C33.0286 18.9557 29.6525 22.0173 26.8299 25.5595C26.639 25.8046 26.4473 26.0509 26.2547 26.2982C26.0696 26.5509 25.884 26.8041 25.698 27.0582C25.5082 27.3091 25.337 27.5742 25.156 27.8318C24.9766 28.0918 24.7946 28.3496 24.6354 28.6033C23.9934 29.5768 23.4965 30.6387 23.1602 31.7557C22.9245 32.5914 22.8819 33.4368 23.1239 34.1534C23.249 34.5132 23.4431 34.8451 23.6955 35.1302C23.8274 35.2787 23.9718 35.4158 24.127 35.5399C24.2803 35.6688 24.4454 35.783 24.6202 35.8808C24.8031 35.9845 24.9925 36.0764 25.1871 36.156L25.8298 36.3981C26.0491 36.4681 26.2678 36.5406 26.4883 36.6074C26.7121 36.6639 26.9335 36.7289 27.1589 36.7793C28.064 36.983 28.9878 37.0923 29.9154 37.1055C31.7838 37.1283 33.6405 36.8054 35.3918 36.1531C36.2691 35.8261 37.1179 35.4275 37.9299 34.9614C38.7342 34.5048 39.4908 33.9688 40.1883 33.3613L40.3758 33.1905L40.4692 33.1047L40.5509 33.0236C40.6584 32.917 40.7598 32.8046 40.8548 32.6868C41.0377 32.4613 41.1905 32.2129 41.3092 31.9477C41.4173 31.7092 41.4806 31.4527 41.4958 31.1912C41.5028 31.0754 41.4947 30.959 41.4718 30.8452C41.4529 30.7376 41.4183 30.6333 41.3692 30.5357C41.3223 30.4358 41.2612 30.3431 41.1877 30.2606C41.1101 30.1699 41.0221 30.0885 40.9255 30.0182C40.7011 29.8595 40.453 29.7371 40.1905 29.6557C39.8953 29.563 39.5914 29.5009 39.2836 29.4701C38.9611 29.4364 38.6365 29.4265 38.3125 29.4406C37.6326 29.4767 36.9573 29.5752 36.2954 29.7349C35.9549 29.813 35.6134 29.9021 35.2697 29.9991C34.9292 30.0964 34.5906 30.2001 34.2538 30.3103C32.9039 30.7618 31.5907 31.3169 30.326 31.9705C28.0572 33.1472 25.9323 34.5831 23.9937 36.2497C22.0433 37.9267 20.2464 39.7749 18.6244 41.7721C17.8085 42.7705 17.0279 43.7982 16.2827 44.8551C15.9122 45.3843 15.5464 45.9167 15.1977 46.4619L14.6711 47.2772L14.1609 48.104C13.8163 48.6522 13.4992 49.2181 13.1681 49.7751C12.8534 50.3423 12.5267 50.9028 12.2239 51.4775C11.6015 52.6167 11.0182 53.7793 10.443 54.9461C8.62473 58.6798 6.98266 62.2521 5.25755 65.3282C4.46576 66.7426 4.08736 66.4729 4.68034 64.6941C5.54942 62.1885 6.53064 59.5814 7.61987 57.0219C8.5115 54.917 9.56818 52.8104 10.6612 50.7524C10.6546 50.7417 10.6489 50.7311 10.6429 50.7187Z" fill="#FFC32C"/>
</svg>
