<svg width="981" height="240" viewBox="0 0 981 240" fill="none" xmlns="http://www.w3.org/2000/svg">
<g clip-path="url(#clip0_2362_190)">
<rect width="981" height="240" rx="20" fill="url(#paint0_linear_2362_190)"/>
<path d="M41.136 78.176C39.296 78.176 37.776 77.536 36.608 76.416L37.584 75.216C38.56 76.144 39.712 76.752 41.2 76.752C42.72 76.752 43.504 75.952 43.504 75.072C43.504 74.032 42.592 73.632 40.752 73.216C38.512 72.688 37.024 72.016 37.024 70.032C37.024 68.192 38.624 66.8 40.832 66.8C42.528 66.8 43.792 67.424 44.848 68.352L43.92 69.568C42.992 68.72 41.888 68.224 40.768 68.224C39.536 68.224 38.672 69.008 38.672 69.888C38.672 70.912 39.616 71.264 41.424 71.696C43.616 72.208 45.136 72.944 45.136 74.912C45.136 76.768 43.728 78.176 41.136 78.176ZM50.9459 76.512L51.5219 77.6C51.0739 77.968 50.4659 78.192 49.8739 78.192C48.5939 78.192 47.6979 77.264 47.6979 75.936V71.072H46.4499V69.728H47.6979V67.456H49.2499V69.728H51.2019V71.072H49.2499V75.824C49.2499 76.4 49.6339 76.816 50.0979 76.816C50.4499 76.816 50.7699 76.688 50.9459 76.512ZM56.6084 69.536C58.8324 69.536 60.0644 70.944 60.0644 72.992V78H58.5124V76.864C57.9044 77.728 56.7684 78.192 55.7604 78.192C54.0004 78.192 52.7044 77.168 52.7044 75.552C52.7044 73.904 54.1924 72.8 56.0164 72.8C56.8324 72.8 57.7124 72.976 58.5124 73.248V72.992C58.5124 71.952 58.0324 70.848 56.3844 70.848C55.5684 70.848 54.7684 71.168 54.0484 71.536L53.4724 70.368C54.6564 69.776 55.6964 69.536 56.6084 69.536ZM56.0644 76.944C57.0884 76.944 58.2404 76.432 58.5124 75.408V74.304C57.8404 74.096 57.0724 73.984 56.2564 73.984C55.1524 73.984 54.2244 74.608 54.2244 75.504C54.2244 76.4 55.0244 76.944 56.0644 76.944ZM64.0191 71.312C64.5471 70.224 65.6671 69.536 67.0911 69.536V70.912C65.3791 70.912 64.1631 71.856 64.0191 73.296V78H62.4351V69.728H64.0191V71.312ZM72.5084 76.512L73.0844 77.6C72.6364 77.968 72.0284 78.192 71.4364 78.192C70.1564 78.192 69.2604 77.264 69.2604 75.936V71.072H68.0124V69.728H69.2604V67.456H70.8124V69.728H72.7644V71.072H70.8124V75.824C70.8124 76.4 71.1964 76.816 71.6604 76.816C72.0124 76.816 72.3324 76.688 72.5084 76.512ZM79.325 78V67.008H83.949C86.269 67.008 88.029 68.496 88.029 70.592C88.029 72.688 86.269 74.176 83.949 74.176H80.941V78H79.325ZM80.941 72.672H83.725C85.309 72.672 86.381 71.888 86.381 70.592C86.381 69.296 85.309 68.512 83.725 68.512H80.941V72.672ZM93.4596 76.784C94.3236 76.784 95.3316 76.4 95.8276 75.888L96.8196 76.912C96.0836 77.696 94.6436 78.192 93.4756 78.192C91.1716 78.192 89.2196 76.384 89.2196 73.84C89.2196 71.36 91.0596 69.536 93.3476 69.536C95.8756 69.536 97.3316 71.456 97.3316 74.416H90.8196C91.0276 75.792 92.0356 76.784 93.4596 76.784ZM93.4116 70.944C92.1316 70.944 91.0916 71.808 90.8356 73.152H95.7956C95.6196 71.872 94.8356 70.944 93.4116 70.944ZM100.832 71.312C101.36 70.224 102.48 69.536 103.904 69.536V70.912C102.192 70.912 100.976 71.856 100.832 73.296V78H99.2476V69.728H100.832V71.312ZM107.625 68.816V69.728H109.577V71.072H107.625V78H106.073V71.072H104.825V69.728H106.073V68.736C106.073 67.408 106.969 66.48 108.249 66.48C108.841 66.48 109.449 66.704 109.897 67.072L109.321 68.128C109.145 67.952 108.825 67.824 108.473 67.824C108.009 67.824 107.625 68.24 107.625 68.816ZM115.135 78.192C112.767 78.192 110.767 76.208 110.767 73.856C110.767 71.504 112.767 69.536 115.135 69.536C117.487 69.536 119.47 71.504 119.47 73.856C119.47 76.208 117.487 78.192 115.135 78.192ZM115.135 76.816C116.623 76.816 117.887 75.472 117.887 73.856C117.887 72.256 116.623 70.912 115.135 70.912C113.615 70.912 112.351 72.256 112.351 73.856C112.351 75.472 113.615 76.816 115.135 76.816ZM122.988 71.312C123.516 70.224 124.636 69.536 126.06 69.536V70.912C124.348 70.912 123.132 71.856 122.988 73.296V78H121.404V69.728H122.988V71.312ZM136.853 69.536C138.581 69.536 139.829 70.864 139.829 72.736V78H138.277V72.976C138.277 71.76 137.557 70.912 136.517 70.912C135.333 70.912 134.501 71.696 134.501 72.832V78H132.949V72.976C132.949 71.76 132.229 70.912 131.189 70.912C130.005 70.912 129.173 71.696 129.173 72.832V78H127.589V69.728H129.173V70.88C129.589 70.064 130.453 69.536 131.509 69.536C132.709 69.536 133.685 70.176 134.165 71.2C134.549 70.176 135.605 69.536 136.853 69.536ZM142.889 68.352C142.345 68.352 141.929 67.904 141.929 67.392C141.929 66.896 142.345 66.448 142.889 66.448C143.401 66.448 143.833 66.896 143.833 67.392C143.833 67.904 143.401 68.352 142.889 68.352ZM142.089 78V69.728H143.673V78H142.089ZM150.173 69.536C151.997 69.536 153.277 70.864 153.277 72.736V78H151.725V73.008C151.725 71.776 150.941 70.912 149.821 70.912C148.669 70.912 147.677 71.664 147.549 72.64V78H145.965V69.728H147.549V70.928C148.045 70.112 149.053 69.536 150.173 69.536ZM161.831 69.728H163.415V77.12C163.415 79.248 161.671 80.752 159.223 80.752C157.831 80.752 156.551 80.288 155.767 79.648L156.391 78.464C156.999 79.04 157.991 79.376 158.983 79.376C160.759 79.376 161.831 78.528 161.831 77.088V75.888C161.175 76.832 160.151 77.392 158.903 77.392C156.727 77.392 155.143 75.76 155.143 73.456C155.143 71.152 156.727 69.536 158.903 69.536C160.151 69.536 161.207 70.128 161.831 71.056V69.728ZM159.303 76.016C160.775 76.016 161.831 74.96 161.831 73.456C161.831 71.968 160.775 70.912 159.303 70.912C157.831 70.912 156.791 71.968 156.791 73.456C156.791 74.96 157.831 76.016 159.303 76.016ZM173.459 78V68.512H169.859V67.008H178.691V68.512H175.075V78H173.459ZM183.952 69.536C186.176 69.536 187.408 70.944 187.408 72.992V78H185.856V76.864C185.248 77.728 184.112 78.192 183.104 78.192C181.344 78.192 180.048 77.168 180.048 75.552C180.048 73.904 181.536 72.8 183.36 72.8C184.176 72.8 185.056 72.976 185.856 73.248V72.992C185.856 71.952 185.376 70.848 183.728 70.848C182.912 70.848 182.112 71.168 181.392 71.536L180.816 70.368C182 69.776 183.04 69.536 183.952 69.536ZM183.408 76.944C184.432 76.944 185.584 76.432 185.856 75.408V74.304C185.184 74.096 184.416 73.984 183.6 73.984C182.496 73.984 181.568 74.608 181.568 75.504C181.568 76.4 182.368 76.944 183.408 76.944ZM192.691 78.192C191.475 78.192 190.147 77.76 189.155 76.96L189.907 75.824C190.787 76.464 191.731 76.832 192.707 76.832C193.635 76.832 194.275 76.4 194.275 75.76C194.275 74.992 193.427 74.752 192.403 74.464C190.499 73.936 189.555 73.392 189.555 72.048C189.539 70.528 190.803 69.536 192.563 69.536C193.635 69.536 194.723 69.904 195.619 70.496L194.915 71.664C194.115 71.168 193.283 70.896 192.563 70.896C191.747 70.896 191.107 71.248 191.107 71.872C191.107 72.512 191.619 72.704 193.011 73.136C194.371 73.536 195.827 73.984 195.827 75.632C195.827 77.2 194.499 78.192 192.691 78.192ZM205.188 69.728L201.62 73.472L205.028 78H203.14L200.548 74.528L199.22 75.872V78H197.652V66.816H199.22V73.952L203.268 69.728H205.188ZM209.488 78.192C208.272 78.192 206.944 77.76 205.952 76.96L206.704 75.824C207.584 76.464 208.528 76.832 209.504 76.832C210.432 76.832 211.072 76.4 211.072 75.76C211.072 74.992 210.224 74.752 209.2 74.464C207.296 73.936 206.352 73.392 206.352 72.048C206.336 70.528 207.6 69.536 209.36 69.536C210.432 69.536 211.52 69.904 212.416 70.496L211.712 71.664C210.912 71.168 210.08 70.896 209.36 70.896C208.544 70.896 207.904 71.248 207.904 71.872C207.904 72.512 208.416 72.704 209.808 73.136C211.168 73.536 212.624 73.984 212.624 75.632C212.624 77.2 211.296 78.192 209.488 78.192ZM222.515 69.536C224.739 69.536 225.971 70.944 225.971 72.992V78H224.419V76.864C223.811 77.728 222.675 78.192 221.667 78.192C219.907 78.192 218.611 77.168 218.611 75.552C218.611 73.904 220.099 72.8 221.923 72.8C222.739 72.8 223.619 72.976 224.419 73.248V72.992C224.419 71.952 223.939 70.848 222.291 70.848C221.475 70.848 220.675 71.168 219.955 71.536L219.379 70.368C220.563 69.776 221.603 69.536 222.515 69.536ZM221.971 76.944C222.995 76.944 224.147 76.432 224.419 75.408V74.304C223.747 74.096 222.979 73.984 222.163 73.984C221.059 73.984 220.131 74.608 220.131 75.504C220.131 76.4 220.931 76.944 221.971 76.944ZM232.469 69.536C234.293 69.536 235.573 70.864 235.573 72.736V78H234.021V73.008C234.021 71.776 233.237 70.912 232.117 70.912C230.965 70.912 229.973 71.664 229.845 72.64V78H228.261V69.728H229.845V70.928C230.341 70.112 231.349 69.536 232.469 69.536ZM244.208 66.816H245.776V78H244.208V76.56C243.568 77.584 242.544 78.192 241.264 78.192C239.088 78.192 237.456 76.4 237.456 73.856C237.456 71.328 239.088 69.536 241.264 69.536C242.544 69.536 243.568 70.144 244.208 71.152V66.816ZM241.648 76.816C243.136 76.816 244.208 75.584 244.208 73.856C244.208 72.128 243.136 70.912 241.648 70.912C240.128 70.912 239.056 72.128 239.056 73.856C239.056 75.584 240.128 76.816 241.648 76.816ZM260.858 68.512H254.41V71.648H260.234V73.152H254.41V76.496H260.858V78H252.778V67.008H260.858V68.512ZM266.312 69.536C268.536 69.536 269.767 70.944 269.767 72.992V78H268.216V76.864C267.608 77.728 266.472 78.192 265.464 78.192C263.704 78.192 262.408 77.168 262.408 75.552C262.408 73.904 263.896 72.8 265.72 72.8C266.536 72.8 267.416 72.976 268.216 73.248V72.992C268.216 71.952 267.736 70.848 266.088 70.848C265.272 70.848 264.472 71.168 263.752 71.536L263.176 70.368C264.36 69.776 265.4 69.536 266.312 69.536ZM265.768 76.944C266.792 76.944 267.944 76.432 268.216 75.408V74.304C267.544 74.096 266.776 73.984 265.96 73.984C264.856 73.984 263.928 74.608 263.928 75.504C263.928 76.4 264.728 76.944 265.768 76.944ZM273.722 71.312C274.25 70.224 275.37 69.536 276.794 69.536V70.912C275.082 70.912 273.866 71.856 273.722 73.296V78H272.138V69.728H273.722V71.312ZM282.548 69.536C284.372 69.536 285.652 70.864 285.652 72.736V78H284.1V73.008C284.1 71.776 283.316 70.912 282.196 70.912C281.044 70.912 280.052 71.664 279.924 72.64V78H278.34V69.728H279.924V70.928C280.42 70.112 281.428 69.536 282.548 69.536Z" fill="white"/>
<path d="M43.232 124.776H47.712C48.4373 124.776 49.1413 124.659 49.824 124.424C50.5067 124.189 51.1147 123.805 51.648 123.272C52.1813 122.717 52.608 122.003 52.928 121.128C53.248 120.253 53.408 119.187 53.408 117.928C53.408 116.776 53.2907 115.741 53.056 114.824C52.8427 113.885 52.48 113.085 51.968 112.424C51.456 111.763 50.7733 111.261 49.92 110.92C49.088 110.557 48.0533 110.376 46.816 110.376H43.232V124.776ZM38.208 106.152H48.064C49.536 106.152 50.9013 106.387 52.16 106.856C53.44 107.325 54.5387 108.029 55.456 108.968C56.3947 109.907 57.12 111.08 57.632 112.488C58.1653 113.896 58.432 115.549 58.432 117.448C58.432 119.112 58.2187 120.648 57.792 122.056C57.3653 123.464 56.7147 124.68 55.84 125.704C54.9867 126.728 53.9093 127.539 52.608 128.136C51.328 128.712 49.8133 129 48.064 129H38.208V106.152ZM66.1188 109.896H61.5748V106.152H66.1188V109.896ZM61.5748 112.456H66.1188V129H61.5748V112.456ZM78.8488 129H73.7928L68.1288 112.456H72.8968L76.3848 123.752H76.4488L79.9368 112.456H84.4488L78.8488 129ZM97.4578 118.952C97.2444 117.8 96.8604 116.925 96.3058 116.328C95.7724 115.731 94.9511 115.432 93.8418 115.432C93.1164 115.432 92.5084 115.56 92.0178 115.816C91.5484 116.051 91.1644 116.349 90.8658 116.712C90.5884 117.075 90.3858 117.459 90.2578 117.864C90.1511 118.269 90.0871 118.632 90.0658 118.952H97.4578ZM90.0658 121.832C90.1298 123.304 90.5031 124.371 91.1858 125.032C91.8684 125.693 92.8498 126.024 94.1298 126.024C95.0471 126.024 95.8364 125.8 96.4978 125.352C97.1591 124.883 97.5644 124.392 97.7138 123.88H101.714C101.074 125.864 100.092 127.283 98.7698 128.136C97.4471 128.989 95.8471 129.416 93.9698 129.416C92.6684 129.416 91.4951 129.213 90.4498 128.808C89.4044 128.381 88.5191 127.784 87.7938 127.016C87.0684 126.248 86.5031 125.331 86.0978 124.264C85.7138 123.197 85.5218 122.024 85.5218 120.744C85.5218 119.507 85.7244 118.355 86.1298 117.288C86.5351 116.221 87.1111 115.304 87.8578 114.536C88.6044 113.747 89.4898 113.128 90.5138 112.68C91.5591 112.232 92.7111 112.008 93.9698 112.008C95.3778 112.008 96.6044 112.285 97.6498 112.84C98.6951 113.373 99.5484 114.099 100.21 115.016C100.892 115.933 101.383 116.979 101.682 118.152C101.98 119.325 102.087 120.552 102.002 121.832H90.0658ZM118.275 109.896H113.731V106.152H118.275V109.896ZM113.731 112.456H118.275V129H113.731V112.456ZM121.853 112.456H126.173V114.76H126.269C126.845 113.8 127.592 113.107 128.509 112.68C129.426 112.232 130.365 112.008 131.325 112.008C132.541 112.008 133.533 112.179 134.301 112.52C135.09 112.84 135.709 113.299 136.157 113.896C136.605 114.472 136.914 115.187 137.085 116.04C137.277 116.872 137.373 117.8 137.373 118.824V129H132.829V119.656C132.829 118.291 132.616 117.277 132.189 116.616C131.762 115.933 131.005 115.592 129.917 115.592C128.68 115.592 127.784 115.965 127.229 116.712C126.674 117.437 126.397 118.643 126.397 120.328V129H121.853V112.456ZM146.582 112.456H149.91V115.496H146.582V123.688C146.582 124.456 146.71 124.968 146.966 125.224C147.222 125.48 147.734 125.608 148.502 125.608C148.758 125.608 149.003 125.597 149.238 125.576C149.472 125.555 149.696 125.523 149.91 125.48V129C149.526 129.064 149.099 129.107 148.63 129.128C148.16 129.149 147.702 129.16 147.254 129.16C146.55 129.16 145.878 129.107 145.238 129C144.619 128.915 144.064 128.733 143.574 128.456C143.104 128.179 142.731 127.784 142.454 127.272C142.176 126.76 142.038 126.088 142.038 125.256V115.496H139.286V112.456H142.038V107.496H146.582V112.456ZM156.104 120.744C156.104 121.405 156.168 122.056 156.296 122.696C156.424 123.315 156.637 123.88 156.936 124.392C157.256 124.883 157.672 125.277 158.184 125.576C158.696 125.875 159.336 126.024 160.104 126.024C160.872 126.024 161.512 125.875 162.024 125.576C162.557 125.277 162.973 124.883 163.272 124.392C163.592 123.88 163.816 123.315 163.944 122.696C164.072 122.056 164.136 121.405 164.136 120.744C164.136 120.083 164.072 119.432 163.944 118.792C163.816 118.152 163.592 117.587 163.272 117.096C162.973 116.605 162.557 116.211 162.024 115.912C161.512 115.592 160.872 115.432 160.104 115.432C159.336 115.432 158.696 115.592 158.184 115.912C157.672 116.211 157.256 116.605 156.936 117.096C156.637 117.587 156.424 118.152 156.296 118.792C156.168 119.432 156.104 120.083 156.104 120.744ZM151.56 120.744C151.56 119.421 151.762 118.227 152.168 117.16C152.573 116.072 153.149 115.155 153.896 114.408C154.642 113.64 155.538 113.053 156.584 112.648C157.629 112.221 158.802 112.008 160.104 112.008C161.405 112.008 162.578 112.221 163.624 112.648C164.69 113.053 165.597 113.64 166.344 114.408C167.09 115.155 167.666 116.072 168.072 117.16C168.477 118.227 168.68 119.421 168.68 120.744C168.68 122.067 168.477 123.261 168.072 124.328C167.666 125.395 167.09 126.312 166.344 127.08C165.597 127.827 164.69 128.403 163.624 128.808C162.578 129.213 161.405 129.416 160.104 129.416C158.802 129.416 157.629 129.213 156.584 128.808C155.538 128.403 154.642 127.827 153.896 127.08C153.149 126.312 152.573 125.395 152.168 124.328C151.762 123.261 151.56 122.067 151.56 120.744ZM184.573 120.744C184.573 121.405 184.637 122.056 184.765 122.696C184.893 123.315 185.106 123.88 185.405 124.392C185.725 124.883 186.141 125.277 186.653 125.576C187.165 125.875 187.805 126.024 188.573 126.024C189.341 126.024 189.981 125.875 190.493 125.576C191.026 125.277 191.442 124.883 191.741 124.392C192.061 123.88 192.285 123.315 192.413 122.696C192.541 122.056 192.605 121.405 192.605 120.744C192.605 120.083 192.541 119.432 192.413 118.792C192.285 118.152 192.061 117.587 191.741 117.096C191.442 116.605 191.026 116.211 190.493 115.912C189.981 115.592 189.341 115.432 188.573 115.432C187.805 115.432 187.165 115.592 186.653 115.912C186.141 116.211 185.725 116.605 185.405 117.096C185.106 117.587 184.893 118.152 184.765 118.792C184.637 119.432 184.573 120.083 184.573 120.744ZM180.029 120.744C180.029 119.421 180.231 118.227 180.637 117.16C181.042 116.072 181.618 115.155 182.365 114.408C183.111 113.64 184.007 113.053 185.053 112.648C186.098 112.221 187.271 112.008 188.573 112.008C189.874 112.008 191.047 112.221 192.093 112.648C193.159 113.053 194.066 113.64 194.812 114.408C195.559 115.155 196.135 116.072 196.541 117.16C196.946 118.227 197.149 119.421 197.149 120.744C197.149 122.067 196.946 123.261 196.541 124.328C196.135 125.395 195.559 126.312 194.812 127.08C194.066 127.827 193.159 128.403 192.093 128.808C191.047 129.213 189.874 129.416 188.573 129.416C187.271 129.416 186.098 129.213 185.053 128.808C184.007 128.403 183.111 127.827 182.365 127.08C181.618 126.312 181.042 125.395 180.637 124.328C180.231 123.261 180.029 122.067 180.029 120.744ZM208.455 126.024C209.202 126.024 209.82 125.875 210.311 125.576C210.823 125.277 211.228 124.893 211.527 124.424C211.847 123.933 212.071 123.368 212.199 122.728C212.327 122.088 212.391 121.437 212.391 120.776C212.391 120.115 212.316 119.464 212.167 118.824C212.039 118.184 211.815 117.619 211.495 117.128C211.175 116.616 210.759 116.211 210.247 115.912C209.756 115.592 209.148 115.432 208.423 115.432C207.676 115.432 207.047 115.592 206.535 115.912C206.044 116.211 205.639 116.605 205.319 117.096C205.02 117.587 204.807 118.152 204.679 118.792C204.551 119.432 204.487 120.093 204.487 120.776C204.487 121.437 204.551 122.088 204.679 122.728C204.828 123.368 205.052 123.933 205.351 124.424C205.671 124.893 206.087 125.277 206.599 125.576C207.111 125.875 207.73 126.024 208.455 126.024ZM200.103 112.456H204.423V114.568H204.487C205.042 113.672 205.746 113.021 206.599 112.616C207.452 112.211 208.391 112.008 209.415 112.008C210.716 112.008 211.836 112.253 212.775 112.744C213.714 113.235 214.492 113.885 215.111 114.696C215.73 115.507 216.188 116.456 216.487 117.544C216.786 118.611 216.935 119.731 216.935 120.904C216.935 122.013 216.786 123.08 216.487 124.104C216.188 125.128 215.73 126.035 215.111 126.824C214.514 127.613 213.756 128.243 212.839 128.712C211.943 129.181 210.887 129.416 209.671 129.416C208.647 129.416 207.698 129.213 206.823 128.808C205.97 128.381 205.266 127.763 204.711 126.952H204.647V134.792H200.103V112.456ZM228.018 126.024C228.764 126.024 229.383 125.875 229.874 125.576C230.386 125.277 230.791 124.893 231.09 124.424C231.41 123.933 231.634 123.368 231.762 122.728C231.89 122.088 231.954 121.437 231.954 120.776C231.954 120.115 231.879 119.464 231.73 118.824C231.602 118.184 231.378 117.619 231.058 117.128C230.738 116.616 230.322 116.211 229.81 115.912C229.319 115.592 228.711 115.432 227.986 115.432C227.239 115.432 226.61 115.592 226.098 115.912C225.607 116.211 225.202 116.605 224.882 117.096C224.583 117.587 224.37 118.152 224.242 118.792C224.114 119.432 224.05 120.093 224.05 120.776C224.05 121.437 224.114 122.088 224.242 122.728C224.391 123.368 224.615 123.933 224.914 124.424C225.234 124.893 225.65 125.277 226.161 125.576C226.674 125.875 227.292 126.024 228.018 126.024ZM219.666 112.456H223.986V114.568H224.05C224.604 113.672 225.308 113.021 226.161 112.616C227.015 112.211 227.954 112.008 228.978 112.008C230.279 112.008 231.399 112.253 232.338 112.744C233.276 113.235 234.055 113.885 234.674 114.696C235.292 115.507 235.751 116.456 236.05 117.544C236.348 118.611 236.498 119.731 236.498 120.904C236.498 122.013 236.348 123.08 236.05 124.104C235.751 125.128 235.292 126.035 234.674 126.824C234.076 127.613 233.319 128.243 232.402 128.712C231.506 129.181 230.45 129.416 229.234 129.416C228.21 129.416 227.26 129.213 226.385 128.808C225.532 128.381 224.828 127.763 224.274 126.952H224.21V134.792H219.666V112.456ZM243.26 120.744C243.26 121.405 243.324 122.056 243.452 122.696C243.58 123.315 243.793 123.88 244.092 124.392C244.412 124.883 244.828 125.277 245.34 125.576C245.852 125.875 246.492 126.024 247.26 126.024C248.028 126.024 248.668 125.875 249.18 125.576C249.713 125.277 250.129 124.883 250.428 124.392C250.748 123.88 250.972 123.315 251.1 122.696C251.228 122.056 251.292 121.405 251.292 120.744C251.292 120.083 251.228 119.432 251.1 118.792C250.972 118.152 250.748 117.587 250.428 117.096C250.129 116.605 249.713 116.211 249.18 115.912C248.668 115.592 248.028 115.432 247.26 115.432C246.492 115.432 245.852 115.592 245.34 115.912C244.828 116.211 244.412 116.605 244.092 117.096C243.793 117.587 243.58 118.152 243.452 118.792C243.324 119.432 243.26 120.083 243.26 120.744ZM238.716 120.744C238.716 119.421 238.919 118.227 239.324 117.16C239.729 116.072 240.305 115.155 241.052 114.408C241.799 113.64 242.695 113.053 243.74 112.648C244.785 112.221 245.959 112.008 247.26 112.008C248.561 112.008 249.735 112.221 250.78 112.648C251.847 113.053 252.753 113.64 253.5 114.408C254.247 115.155 254.823 116.072 255.228 117.16C255.633 118.227 255.836 119.421 255.836 120.744C255.836 122.067 255.633 123.261 255.228 124.328C254.823 125.395 254.247 126.312 253.5 127.08C252.753 127.827 251.847 128.403 250.78 128.808C249.735 129.213 248.561 129.416 247.26 129.416C245.959 129.416 244.785 129.213 243.74 128.808C242.695 128.403 241.799 127.827 241.052 127.08C240.305 126.312 239.729 125.395 239.324 124.328C238.919 123.261 238.716 122.067 238.716 120.744ZM258.791 112.456H263.111V115.528H263.175C263.388 115.016 263.676 114.547 264.039 114.12C264.401 113.672 264.817 113.299 265.286 113C265.756 112.68 266.257 112.435 266.791 112.264C267.324 112.093 267.879 112.008 268.455 112.008C268.753 112.008 269.084 112.061 269.447 112.168V116.392C269.233 116.349 268.977 116.317 268.679 116.296C268.38 116.253 268.092 116.232 267.815 116.232C266.983 116.232 266.279 116.371 265.703 116.648C265.127 116.925 264.657 117.309 264.295 117.8C263.953 118.269 263.708 118.824 263.559 119.464C263.409 120.104 263.335 120.797 263.335 121.544V129H258.791V112.456ZM276.988 112.456H280.316V115.496H276.988V123.688C276.988 124.456 277.116 124.968 277.372 125.224C277.628 125.48 278.14 125.608 278.908 125.608C279.164 125.608 279.409 125.597 279.644 125.576C279.879 125.555 280.103 125.523 280.316 125.48V129C279.932 129.064 279.505 129.107 279.036 129.128C278.567 129.149 278.108 129.16 277.66 129.16C276.956 129.16 276.284 129.107 275.644 129C275.025 128.915 274.471 128.733 273.98 128.456C273.511 128.179 273.137 127.784 272.86 127.272C272.583 126.76 272.444 126.088 272.444 125.256V115.496H269.692V112.456H272.444V107.496H276.988V112.456ZM297.998 129H293.678V126.696H293.582C293.006 127.656 292.259 128.349 291.342 128.776C290.425 129.203 289.486 129.416 288.526 129.416C287.31 129.416 286.307 129.256 285.518 128.936C284.75 128.616 284.142 128.168 283.694 127.592C283.246 126.995 282.926 126.28 282.734 125.448C282.563 124.595 282.478 123.656 282.478 122.632V112.456H287.022V121.8C287.022 123.165 287.235 124.189 287.662 124.872C288.089 125.533 288.846 125.864 289.934 125.864C291.171 125.864 292.067 125.501 292.622 124.776C293.177 124.029 293.454 122.813 293.454 121.128V112.456H297.998V129ZM301.447 112.456H305.767V114.76H305.863C306.439 113.8 307.185 113.107 308.103 112.68C309.02 112.232 309.959 112.008 310.919 112.008C312.135 112.008 313.127 112.179 313.895 112.52C314.684 112.84 315.303 113.299 315.751 113.896C316.199 114.472 316.508 115.187 316.679 116.04C316.871 116.872 316.967 117.8 316.967 118.824V129H312.423V119.656C312.423 118.291 312.209 117.277 311.783 116.616C311.356 115.933 310.599 115.592 309.511 115.592C308.273 115.592 307.377 115.965 306.823 116.712C306.268 117.437 305.991 118.643 305.991 120.328V129H301.447V112.456ZM325.088 109.896H320.544V106.152H325.088V109.896ZM320.544 112.456H325.088V129H320.544V112.456ZM334.426 112.456H337.754V115.496H334.426V123.688C334.426 124.456 334.554 124.968 334.81 125.224C335.066 125.48 335.578 125.608 336.345 125.608C336.602 125.608 336.847 125.597 337.082 125.576C337.316 125.555 337.54 125.523 337.754 125.48V129C337.37 129.064 336.943 129.107 336.474 129.128C336.004 129.149 335.546 129.16 335.098 129.16C334.394 129.16 333.722 129.107 333.082 129C332.463 128.915 331.908 128.733 331.418 128.456C330.948 128.179 330.575 127.784 330.298 127.272C330.02 126.76 329.882 126.088 329.882 125.256V115.496H327.13V112.456H329.882V107.496H334.426V112.456ZM344.588 109.896H340.044V106.152H344.588V109.896ZM340.044 112.456H344.588V129H340.044V112.456ZM359.302 118.952C359.088 117.8 358.704 116.925 358.15 116.328C357.616 115.731 356.795 115.432 355.686 115.432C354.96 115.432 354.352 115.56 353.862 115.816C353.392 116.051 353.008 116.349 352.71 116.712C352.432 117.075 352.23 117.459 352.102 117.864C351.995 118.269 351.931 118.632 351.91 118.952H359.302ZM351.91 121.832C351.974 123.304 352.347 124.371 353.03 125.032C353.712 125.693 354.694 126.024 355.974 126.024C356.891 126.024 357.68 125.8 358.342 125.352C359.003 124.883 359.408 124.392 359.558 123.88H363.558C362.918 125.864 361.936 127.283 360.614 128.136C359.291 128.989 357.691 129.416 355.814 129.416C354.512 129.416 353.339 129.213 352.294 128.808C351.248 128.381 350.363 127.784 349.638 127.016C348.912 126.248 348.347 125.331 347.942 124.264C347.558 123.197 347.366 122.024 347.366 120.744C347.366 119.507 347.568 118.355 347.974 117.288C348.379 116.221 348.955 115.304 349.702 114.536C350.448 113.747 351.334 113.128 352.358 112.68C353.403 112.232 354.555 112.008 355.814 112.008C357.222 112.008 358.448 112.285 359.494 112.84C360.539 113.373 361.392 114.099 362.054 115.016C362.736 115.933 363.227 116.979 363.526 118.152C363.824 119.325 363.931 120.552 363.846 121.832H351.91ZM370.061 123.624C370.061 124.115 370.157 124.541 370.349 124.904C370.562 125.245 370.829 125.533 371.149 125.768C371.469 125.981 371.831 126.141 372.237 126.248C372.663 126.355 373.101 126.408 373.549 126.408C373.869 126.408 374.199 126.376 374.541 126.312C374.903 126.227 375.223 126.109 375.501 125.96C375.799 125.789 376.045 125.576 376.237 125.32C376.429 125.043 376.525 124.701 376.525 124.296C376.525 123.613 376.066 123.101 375.149 122.76C374.253 122.419 372.994 122.077 371.373 121.736C370.711 121.587 370.061 121.416 369.421 121.224C368.802 121.011 368.247 120.744 367.757 120.424C367.266 120.083 366.871 119.667 366.573 119.176C366.274 118.664 366.125 118.045 366.125 117.32C366.125 116.253 366.327 115.379 366.733 114.696C367.159 114.013 367.714 113.48 368.397 113.096C369.079 112.691 369.847 112.413 370.701 112.264C371.554 112.093 372.429 112.008 373.325 112.008C374.221 112.008 375.085 112.093 375.917 112.264C376.77 112.435 377.527 112.723 378.189 113.128C378.85 113.533 379.394 114.077 379.821 114.76C380.269 115.421 380.535 116.264 380.621 117.288H376.301C376.237 116.413 375.906 115.827 375.309 115.528C374.711 115.208 374.007 115.048 373.197 115.048C372.941 115.048 372.663 115.069 372.365 115.112C372.066 115.133 371.789 115.197 371.533 115.304C371.298 115.411 371.095 115.571 370.925 115.784C370.754 115.976 370.669 116.243 370.669 116.584C370.669 116.989 370.818 117.32 371.117 117.576C371.415 117.832 371.799 118.045 372.269 118.216C372.759 118.365 373.314 118.504 373.933 118.632C374.551 118.76 375.181 118.899 375.821 119.048C376.482 119.197 377.122 119.379 377.741 119.592C378.381 119.805 378.946 120.093 379.437 120.456C379.927 120.797 380.322 121.235 380.621 121.768C380.919 122.28 381.069 122.92 381.069 123.688C381.069 124.776 380.845 125.693 380.397 126.44C379.97 127.165 379.405 127.752 378.701 128.2C377.997 128.648 377.186 128.957 376.269 129.128C375.373 129.32 374.455 129.416 373.517 129.416C372.557 129.416 371.618 129.32 370.701 129.128C369.783 128.936 368.962 128.616 368.237 128.168C367.533 127.72 366.946 127.133 366.477 126.408C366.029 125.661 365.783 124.733 365.741 123.624H370.061ZM386.16 118.312H409.84V122.216H386.16V118.312ZM426.992 118.28C426.693 116.381 425.573 115.432 423.632 115.432C422.907 115.432 422.299 115.603 421.808 115.944C421.317 116.264 420.912 116.691 420.592 117.224C420.293 117.736 420.08 118.312 419.952 118.952C419.824 119.571 419.76 120.189 419.76 120.808C419.76 121.405 419.824 122.013 419.952 122.632C420.08 123.251 420.283 123.816 420.56 124.328C420.859 124.819 421.253 125.224 421.744 125.544C422.235 125.864 422.832 126.024 423.536 126.024C424.624 126.024 425.456 125.725 426.032 125.128C426.629 124.509 427.003 123.688 427.152 122.664H431.536C431.237 124.861 430.384 126.536 428.976 127.688C427.568 128.84 425.765 129.416 423.568 129.416C422.331 129.416 421.189 129.213 420.144 128.808C419.12 128.381 418.245 127.795 417.52 127.048C416.795 126.301 416.229 125.416 415.824 124.392C415.419 123.347 415.216 122.205 415.216 120.968C415.216 119.688 415.397 118.504 415.76 117.416C416.144 116.307 416.699 115.357 417.424 114.568C418.149 113.757 419.035 113.128 420.08 112.68C421.125 112.232 422.32 112.008 423.664 112.008C424.645 112.008 425.584 112.136 426.48 112.392C427.397 112.648 428.208 113.043 428.912 113.576C429.637 114.088 430.224 114.739 430.672 115.528C431.12 116.296 431.376 117.213 431.44 118.28H426.992ZM438.135 120.744C438.135 121.405 438.199 122.056 438.327 122.696C438.455 123.315 438.668 123.88 438.967 124.392C439.287 124.883 439.703 125.277 440.215 125.576C440.727 125.875 441.367 126.024 442.135 126.024C442.903 126.024 443.543 125.875 444.055 125.576C444.588 125.277 445.004 124.883 445.303 124.392C445.623 123.88 445.847 123.315 445.975 122.696C446.103 122.056 446.167 121.405 446.167 120.744C446.167 120.083 446.103 119.432 445.975 118.792C445.847 118.152 445.623 117.587 445.303 117.096C445.004 116.605 444.588 116.211 444.055 115.912C443.543 115.592 442.903 115.432 442.135 115.432C441.367 115.432 440.727 115.592 440.215 115.912C439.703 116.211 439.287 116.605 438.967 117.096C438.668 117.587 438.455 118.152 438.327 118.792C438.199 119.432 438.135 120.083 438.135 120.744ZM433.591 120.744C433.591 119.421 433.794 118.227 434.199 117.16C434.604 116.072 435.18 115.155 435.927 114.408C436.674 113.64 437.57 113.053 438.615 112.648C439.66 112.221 440.834 112.008 442.135 112.008C443.436 112.008 444.61 112.221 445.655 112.648C446.722 113.053 447.628 113.64 448.375 114.408C449.122 115.155 449.698 116.072 450.103 117.16C450.508 118.227 450.711 119.421 450.711 120.744C450.711 122.067 450.508 123.261 450.103 124.328C449.698 125.395 449.122 126.312 448.375 127.08C447.628 127.827 446.722 128.403 445.655 128.808C444.61 129.213 443.436 129.416 442.135 129.416C440.834 129.416 439.66 129.213 438.615 128.808C437.57 128.403 436.674 127.827 435.927 127.08C435.18 126.312 434.604 125.395 434.199 124.328C433.794 123.261 433.591 122.067 433.591 120.744ZM453.794 112.456H458.082V114.696H458.146C458.743 113.843 459.458 113.181 460.29 112.712C461.143 112.243 462.114 112.008 463.202 112.008C464.247 112.008 465.196 112.211 466.05 112.616C466.924 113.021 467.586 113.736 468.034 114.76C468.524 114.035 469.186 113.395 470.017 112.84C470.871 112.285 471.874 112.008 473.026 112.008C473.9 112.008 474.711 112.115 475.458 112.328C476.204 112.541 476.844 112.883 477.378 113.352C477.911 113.821 478.327 114.44 478.626 115.208C478.924 115.955 479.074 116.861 479.074 117.928V129H474.53V119.624C474.53 119.069 474.508 118.547 474.466 118.056C474.423 117.565 474.306 117.139 474.114 116.776C473.922 116.413 473.634 116.125 473.25 115.912C472.887 115.699 472.386 115.592 471.746 115.592C471.106 115.592 470.583 115.72 470.178 115.976C469.794 116.211 469.484 116.531 469.25 116.936C469.036 117.32 468.887 117.768 468.802 118.28C468.738 118.771 468.706 119.272 468.706 119.784V129H464.162V119.72C464.162 119.229 464.151 118.749 464.13 118.28C464.108 117.789 464.012 117.341 463.842 116.936C463.692 116.531 463.426 116.211 463.042 115.976C462.679 115.72 462.135 115.592 461.41 115.592C461.196 115.592 460.908 115.645 460.546 115.752C460.204 115.837 459.863 116.019 459.522 116.296C459.202 116.552 458.924 116.936 458.69 117.448C458.455 117.939 458.338 118.589 458.338 119.4V129H453.794V112.456ZM491.018 126.024C491.764 126.024 492.383 125.875 492.874 125.576C493.386 125.277 493.791 124.893 494.09 124.424C494.41 123.933 494.634 123.368 494.762 122.728C494.89 122.088 494.954 121.437 494.954 120.776C494.954 120.115 494.879 119.464 494.73 118.824C494.602 118.184 494.378 117.619 494.058 117.128C493.738 116.616 493.322 116.211 492.81 115.912C492.319 115.592 491.711 115.432 490.986 115.432C490.239 115.432 489.61 115.592 489.098 115.912C488.607 116.211 488.202 116.605 487.882 117.096C487.583 117.587 487.37 118.152 487.242 118.792C487.114 119.432 487.05 120.093 487.05 120.776C487.05 121.437 487.114 122.088 487.242 122.728C487.391 123.368 487.615 123.933 487.914 124.424C488.234 124.893 488.65 125.277 489.161 125.576C489.674 125.875 490.292 126.024 491.018 126.024ZM482.666 112.456H486.986V114.568H487.05C487.604 113.672 488.308 113.021 489.161 112.616C490.015 112.211 490.954 112.008 491.978 112.008C493.279 112.008 494.399 112.253 495.338 112.744C496.276 113.235 497.055 113.885 497.674 114.696C498.292 115.507 498.751 116.456 499.05 117.544C499.348 118.611 499.498 119.731 499.498 120.904C499.498 122.013 499.348 123.08 499.05 124.104C498.751 125.128 498.292 126.035 497.674 126.824C497.076 127.613 496.319 128.243 495.402 128.712C494.506 129.181 493.45 129.416 492.234 129.416C491.21 129.416 490.26 129.213 489.385 128.808C488.532 128.381 487.828 127.763 487.274 126.952H487.21V134.792H482.666V112.456ZM502.356 106.152H506.9V129H502.356V106.152ZM521.614 118.952C521.401 117.8 521.017 116.925 520.462 116.328C519.929 115.731 519.107 115.432 517.998 115.432C517.273 115.432 516.665 115.56 516.174 115.816C515.705 116.051 515.321 116.349 515.022 116.712C514.745 117.075 514.542 117.459 514.414 117.864C514.307 118.269 514.243 118.632 514.222 118.952H521.614ZM514.222 121.832C514.286 123.304 514.659 124.371 515.342 125.032C516.025 125.693 517.006 126.024 518.286 126.024C519.203 126.024 519.993 125.8 520.654 125.352C521.315 124.883 521.721 124.392 521.87 123.88H525.87C525.23 125.864 524.249 127.283 522.926 128.136C521.603 128.989 520.003 129.416 518.126 129.416C516.825 129.416 515.651 129.213 514.606 128.808C513.561 128.381 512.675 127.784 511.95 127.016C511.225 126.248 510.659 125.331 510.254 124.264C509.87 123.197 509.678 122.024 509.678 120.744C509.678 119.507 509.881 118.355 510.286 117.288C510.691 116.221 511.267 115.304 512.014 114.536C512.761 113.747 513.646 113.128 514.67 112.68C515.715 112.232 516.867 112.008 518.126 112.008C519.534 112.008 520.761 112.285 521.806 112.84C522.851 113.373 523.705 114.099 524.366 115.016C525.049 115.933 525.539 116.979 525.838 118.152C526.137 119.325 526.243 120.552 526.158 121.832H514.222ZM534.613 112.456H537.941V115.496H534.613V123.688C534.613 124.456 534.741 124.968 534.997 125.224C535.253 125.48 535.765 125.608 536.533 125.608C536.789 125.608 537.034 125.597 537.269 125.576C537.504 125.555 537.728 125.523 537.941 125.48V129C537.557 129.064 537.13 129.107 536.661 129.128C536.192 129.149 535.733 129.16 535.285 129.16C534.581 129.16 533.909 129.107 533.269 129C532.65 128.915 532.096 128.733 531.605 128.456C531.136 128.179 530.762 127.784 530.485 127.272C530.208 126.76 530.069 126.088 530.069 125.256V115.496H527.317V112.456H530.069V107.496H534.613V112.456ZM551.239 118.952C551.026 117.8 550.642 116.925 550.087 116.328C549.554 115.731 548.732 115.432 547.623 115.432C546.898 115.432 546.29 115.56 545.799 115.816C545.33 116.051 544.946 116.349 544.647 116.712C544.37 117.075 544.167 117.459 544.039 117.864C543.932 118.269 543.868 118.632 543.847 118.952H551.239ZM543.847 121.832C543.911 123.304 544.284 124.371 544.967 125.032C545.65 125.693 546.631 126.024 547.911 126.024C548.828 126.024 549.618 125.8 550.279 125.352C550.94 124.883 551.346 124.392 551.495 123.88H555.495C554.855 125.864 553.874 127.283 552.551 128.136C551.228 128.989 549.628 129.416 547.751 129.416C546.45 129.416 545.276 129.213 544.231 128.808C543.186 128.381 542.3 127.784 541.575 127.016C540.85 126.248 540.284 125.331 539.879 124.264C539.495 123.197 539.303 122.024 539.303 120.744C539.303 119.507 539.506 118.355 539.911 117.288C540.316 116.221 540.892 115.304 541.639 114.536C542.386 113.747 543.271 113.128 544.295 112.68C545.34 112.232 546.492 112.008 547.751 112.008C549.159 112.008 550.386 112.285 551.431 112.84C552.476 113.373 553.33 114.099 553.991 115.016C554.674 115.933 555.164 116.979 555.463 118.152C555.762 119.325 555.868 120.552 555.783 121.832H543.847ZM573.144 112.456H576.472V115.496H573.144V123.688C573.144 124.456 573.272 124.968 573.528 125.224C573.784 125.48 574.296 125.608 575.064 125.608C575.32 125.608 575.566 125.597 575.8 125.576C576.035 125.555 576.259 125.523 576.472 125.48V129C576.088 129.064 575.662 129.107 575.192 129.128C574.723 129.149 574.264 129.16 573.816 129.16C573.112 129.16 572.44 129.107 571.8 129C571.182 128.915 570.627 128.733 570.136 128.456C569.667 128.179 569.294 127.784 569.016 127.272C568.739 126.76 568.6 126.088 568.6 125.256V115.496H565.848V112.456H568.6V107.496H573.144V112.456ZM578.442 117.544C578.506 116.477 578.773 115.592 579.242 114.888C579.712 114.184 580.309 113.619 581.034 113.192C581.76 112.765 582.57 112.467 583.466 112.296C584.384 112.104 585.301 112.008 586.218 112.008C587.05 112.008 587.893 112.072 588.746 112.2C589.6 112.307 590.378 112.531 591.082 112.872C591.786 113.213 592.362 113.693 592.81 114.312C593.258 114.909 593.482 115.709 593.482 116.712V125.32C593.482 126.067 593.525 126.781 593.61 127.464C593.696 128.147 593.845 128.659 594.058 129H589.45C589.365 128.744 589.29 128.488 589.226 128.232C589.184 127.955 589.152 127.677 589.13 127.4C588.405 128.147 587.552 128.669 586.57 128.968C585.589 129.267 584.586 129.416 583.562 129.416C582.773 129.416 582.037 129.32 581.354 129.128C580.672 128.936 580.074 128.637 579.562 128.232C579.05 127.827 578.645 127.315 578.346 126.696C578.069 126.077 577.93 125.341 577.93 124.488C577.93 123.549 578.09 122.781 578.41 122.184C578.752 121.565 579.178 121.075 579.69 120.712C580.224 120.349 580.821 120.083 581.482 119.912C582.165 119.72 582.848 119.571 583.53 119.464C584.213 119.357 584.885 119.272 585.546 119.208C586.208 119.144 586.794 119.048 587.306 118.92C587.818 118.792 588.224 118.611 588.522 118.376C588.821 118.12 588.96 117.757 588.938 117.288C588.938 116.797 588.853 116.413 588.682 116.136C588.533 115.837 588.32 115.613 588.042 115.464C587.786 115.293 587.477 115.187 587.114 115.144C586.773 115.08 586.4 115.048 585.994 115.048C585.098 115.048 584.394 115.24 583.882 115.624C583.37 116.008 583.072 116.648 582.986 117.544H578.442ZM588.938 120.904C588.746 121.075 588.501 121.213 588.202 121.32C587.925 121.405 587.616 121.48 587.274 121.544C586.954 121.608 586.613 121.661 586.25 121.704C585.888 121.747 585.525 121.8 585.162 121.864C584.821 121.928 584.48 122.013 584.138 122.12C583.818 122.227 583.53 122.376 583.274 122.568C583.04 122.739 582.848 122.963 582.698 123.24C582.549 123.517 582.474 123.869 582.474 124.296C582.474 124.701 582.549 125.043 582.698 125.32C582.848 125.597 583.05 125.821 583.306 125.992C583.562 126.141 583.861 126.248 584.202 126.312C584.544 126.376 584.896 126.408 585.258 126.408C586.154 126.408 586.848 126.259 587.338 125.96C587.829 125.661 588.192 125.309 588.426 124.904C588.661 124.477 588.8 124.051 588.842 123.624C588.906 123.197 588.938 122.856 588.938 122.6V120.904ZM600.529 123.624C600.529 124.115 600.625 124.541 600.817 124.904C601.031 125.245 601.297 125.533 601.617 125.768C601.937 125.981 602.3 126.141 602.705 126.248C603.132 126.355 603.569 126.408 604.017 126.408C604.337 126.408 604.668 126.376 605.009 126.312C605.372 126.227 605.692 126.109 605.969 125.96C606.268 125.789 606.513 125.576 606.705 125.32C606.897 125.043 606.993 124.701 606.993 124.296C606.993 123.613 606.535 123.101 605.617 122.76C604.721 122.419 603.463 122.077 601.841 121.736C601.18 121.587 600.529 121.416 599.889 121.224C599.271 121.011 598.716 120.744 598.225 120.424C597.735 120.083 597.34 119.667 597.041 119.176C596.743 118.664 596.593 118.045 596.593 117.32C596.593 116.253 596.796 115.379 597.201 114.696C597.628 114.013 598.183 113.48 598.865 113.096C599.548 112.691 600.316 112.413 601.169 112.264C602.023 112.093 602.897 112.008 603.793 112.008C604.689 112.008 605.553 112.093 606.385 112.264C607.239 112.435 607.996 112.723 608.657 113.128C609.319 113.533 609.863 114.077 610.289 114.76C610.737 115.421 611.004 116.264 611.089 117.288H606.769C606.705 116.413 606.375 115.827 605.777 115.528C605.18 115.208 604.476 115.048 603.665 115.048C603.409 115.048 603.132 115.069 602.833 115.112C602.535 115.133 602.257 115.197 602.001 115.304C601.767 115.411 601.564 115.571 601.393 115.784C601.223 115.976 601.137 116.243 601.137 116.584C601.137 116.989 601.287 117.32 601.585 117.576C601.884 117.832 602.268 118.045 602.737 118.216C603.228 118.365 603.783 118.504 604.401 118.632C605.02 118.76 605.649 118.899 606.289 119.048C606.951 119.197 607.591 119.379 608.209 119.592C608.849 119.805 609.415 120.093 609.905 120.456C610.396 120.797 610.791 121.235 611.089 121.768C611.388 122.28 611.537 122.92 611.537 123.688C611.537 124.776 611.313 125.693 610.865 126.44C610.439 127.165 609.873 127.752 609.169 128.2C608.465 128.648 607.655 128.957 606.737 129.128C605.841 129.32 604.924 129.416 603.985 129.416C603.025 129.416 602.087 129.32 601.169 129.128C600.252 128.936 599.431 128.616 598.705 128.168C598.001 127.72 597.415 127.133 596.945 126.408C596.497 125.661 596.252 124.733 596.209 123.624H600.529ZM614.613 106.152H619.157V118.408L624.885 112.456H630.261L624.021 118.536L630.965 129H625.461L620.917 121.608L619.157 123.304V129H614.613V106.152ZM636.092 123.624C636.092 124.115 636.188 124.541 636.38 124.904C636.593 125.245 636.86 125.533 637.18 125.768C637.5 125.981 637.862 126.141 638.268 126.248C638.694 126.355 639.132 126.408 639.58 126.408C639.9 126.408 640.23 126.376 640.572 126.312C640.934 126.227 641.254 126.109 641.532 125.96C641.83 125.789 642.076 125.576 642.268 125.32C642.46 125.043 642.556 124.701 642.556 124.296C642.556 123.613 642.097 123.101 641.18 122.76C640.284 122.419 639.025 122.077 637.404 121.736C636.742 121.587 636.092 121.416 635.452 121.224C634.833 121.011 634.278 120.744 633.788 120.424C633.297 120.083 632.902 119.667 632.604 119.176C632.305 118.664 632.156 118.045 632.156 117.32C632.156 116.253 632.358 115.379 632.764 114.696C633.19 114.013 633.745 113.48 634.428 113.096C635.11 112.691 635.878 112.413 636.732 112.264C637.585 112.093 638.46 112.008 639.356 112.008C640.252 112.008 641.116 112.093 641.948 112.264C642.801 112.435 643.558 112.723 644.22 113.128C644.881 113.533 645.425 114.077 645.852 114.76C646.3 115.421 646.566 116.264 646.652 117.288H642.332C642.268 116.413 641.937 115.827 641.34 115.528C640.742 115.208 640.038 115.048 639.228 115.048C638.972 115.048 638.694 115.069 638.396 115.112C638.097 115.133 637.82 115.197 637.564 115.304C637.329 115.411 637.126 115.571 636.956 115.784C636.785 115.976 636.7 116.243 636.7 116.584C636.7 116.989 636.849 117.32 637.148 117.576C637.446 117.832 637.83 118.045 638.3 118.216C638.79 118.365 639.345 118.504 639.964 118.632C640.582 118.76 641.212 118.899 641.852 119.048C642.513 119.197 643.153 119.379 643.772 119.592C644.412 119.805 644.977 120.093 645.468 120.456C645.958 120.797 646.353 121.235 646.652 121.768C646.95 122.28 647.1 122.92 647.1 123.688C647.1 124.776 646.876 125.693 646.428 126.44C646.001 127.165 645.436 127.752 644.732 128.2C644.028 128.648 643.217 128.957 642.3 129.128C641.404 129.32 640.486 129.416 639.548 129.416C638.588 129.416 637.649 129.32 636.732 129.128C635.814 128.936 634.993 128.616 634.268 128.168C633.564 127.72 632.977 127.133 632.508 126.408C632.06 125.661 631.814 124.733 631.772 123.624H636.092ZM649.983 124.072H655.007V129C655.007 129.725 654.869 130.387 654.591 130.984C654.335 131.603 653.983 132.136 653.535 132.584C653.087 133.032 652.554 133.395 651.935 133.672C651.338 133.971 650.698 134.173 650.015 134.28V131.976C650.335 131.912 650.634 131.784 650.911 131.592C651.21 131.4 651.466 131.165 651.679 130.888C651.893 130.632 652.053 130.333 652.159 129.992C652.266 129.672 652.309 129.341 652.287 129H649.983V124.072ZM41.248 162.624C41.248 163.115 41.344 163.541 41.536 163.904C41.7493 164.245 42.016 164.533 42.336 164.768C42.656 164.981 43.0187 165.141 43.424 165.248C43.8507 165.355 44.288 165.408 44.736 165.408C45.056 165.408 45.3867 165.376 45.728 165.312C46.0907 165.227 46.4107 165.109 46.688 164.96C46.9867 164.789 47.232 164.576 47.424 164.32C47.616 164.043 47.712 163.701 47.712 163.296C47.712 162.613 47.2533 162.101 46.336 161.76C45.44 161.419 44.1813 161.077 42.56 160.736C41.8987 160.587 41.248 160.416 40.608 160.224C39.9893 160.011 39.4347 159.744 38.944 159.424C38.4533 159.083 38.0587 158.667 37.76 158.176C37.4613 157.664 37.312 157.045 37.312 156.32C37.312 155.253 37.5147 154.379 37.92 153.696C38.3467 153.013 38.9013 152.48 39.584 152.096C40.2667 151.691 41.0347 151.413 41.888 151.264C42.7413 151.093 43.616 151.008 44.512 151.008C45.408 151.008 46.272 151.093 47.104 151.264C47.9573 151.435 48.7147 151.723 49.376 152.128C50.0373 152.533 50.5813 153.077 51.008 153.76C51.456 154.421 51.7227 155.264 51.808 156.288H47.488C47.424 155.413 47.0933 154.827 46.496 154.528C45.8987 154.208 45.1947 154.048 44.384 154.048C44.128 154.048 43.8507 154.069 43.552 154.112C43.2533 154.133 42.976 154.197 42.72 154.304C42.4853 154.411 42.2827 154.571 42.112 154.784C41.9413 154.976 41.856 155.243 41.856 155.584C41.856 155.989 42.0053 156.32 42.304 156.576C42.6027 156.832 42.9867 157.045 43.456 157.216C43.9467 157.365 44.5013 157.504 45.12 157.632C45.7387 157.76 46.368 157.899 47.008 158.048C47.6693 158.197 48.3093 158.379 48.928 158.592C49.568 158.805 50.1333 159.093 50.624 159.456C51.1147 159.797 51.5093 160.235 51.808 160.768C52.1067 161.28 52.256 161.92 52.256 162.688C52.256 163.776 52.032 164.693 51.584 165.44C51.1573 166.165 50.592 166.752 49.888 167.2C49.184 167.648 48.3733 167.957 47.456 168.128C46.56 168.32 45.6427 168.416 44.704 168.416C43.744 168.416 42.8053 168.32 41.888 168.128C40.9707 167.936 40.1493 167.616 39.424 167.168C38.72 166.72 38.1333 166.133 37.664 165.408C37.216 164.661 36.9707 163.733 36.928 162.624H41.248ZM54.9155 145.152H59.4595V153.76H59.5555C60.1315 152.8 60.8675 152.107 61.7635 151.68C62.6595 151.232 63.5342 151.008 64.3875 151.008C65.6035 151.008 66.5955 151.179 67.3635 151.52C68.1528 151.84 68.7715 152.299 69.2195 152.896C69.6675 153.472 69.9768 154.187 70.1475 155.04C70.3395 155.872 70.4355 156.8 70.4355 157.824V168H65.8915V158.656C65.8915 157.291 65.6782 156.277 65.2515 155.616C64.8248 154.933 64.0675 154.592 62.9795 154.592C61.7422 154.592 60.8462 154.965 60.2915 155.712C59.7368 156.437 59.4595 157.643 59.4595 159.328V168H54.9155V145.152ZM77.9163 159.744C77.9163 160.405 77.9803 161.056 78.1083 161.696C78.2363 162.315 78.4496 162.88 78.7483 163.392C79.0683 163.883 79.4843 164.277 79.9963 164.576C80.5083 164.875 81.1483 165.024 81.9163 165.024C82.6843 165.024 83.3243 164.875 83.8363 164.576C84.3696 164.277 84.7856 163.883 85.0843 163.392C85.4043 162.88 85.6283 162.315 85.7563 161.696C85.8843 161.056 85.9483 160.405 85.9483 159.744C85.9483 159.083 85.8843 158.432 85.7563 157.792C85.6283 157.152 85.4043 156.587 85.0843 156.096C84.7856 155.605 84.3696 155.211 83.8363 154.912C83.3243 154.592 82.6843 154.432 81.9163 154.432C81.1483 154.432 80.5083 154.592 79.9963 154.912C79.4843 155.211 79.0683 155.605 78.7483 156.096C78.4496 156.587 78.2363 157.152 78.1083 157.792C77.9803 158.432 77.9163 159.083 77.9163 159.744ZM73.3723 159.744C73.3723 158.421 73.5749 157.227 73.9803 156.16C74.3856 155.072 74.9616 154.155 75.7083 153.408C76.4549 152.64 77.3509 152.053 78.3963 151.648C79.4416 151.221 80.6149 151.008 81.9163 151.008C83.2176 151.008 84.3909 151.221 85.4363 151.648C86.5029 152.053 87.4096 152.64 88.1562 153.408C88.9029 154.155 89.4789 155.072 89.8843 156.16C90.2896 157.227 90.4923 158.421 90.4923 159.744C90.4923 161.067 90.2896 162.261 89.8843 163.328C89.4789 164.395 88.9029 165.312 88.1562 166.08C87.4096 166.827 86.5029 167.403 85.4363 167.808C84.3909 168.213 83.2176 168.416 81.9163 168.416C80.6149 168.416 79.4416 168.213 78.3963 167.808C77.3509 167.403 76.4549 166.827 75.7083 166.08C74.9616 165.312 74.3856 164.395 73.9803 163.328C73.5749 162.261 73.3723 161.067 73.3723 159.744ZM112.359 168H107.687L104.743 156.896H104.679L101.863 168H97.1588L91.9108 151.456H96.7108L99.7508 162.688H99.8148L102.567 151.456H106.983L109.799 162.656H109.863L112.903 151.456H117.575L112.359 168ZM130.773 157.28C130.475 155.381 129.355 154.432 127.413 154.432C126.688 154.432 126.08 154.603 125.589 154.944C125.099 155.264 124.693 155.691 124.373 156.224C124.075 156.736 123.861 157.312 123.733 157.952C123.605 158.571 123.541 159.189 123.541 159.808C123.541 160.405 123.605 161.013 123.733 161.632C123.861 162.251 124.064 162.816 124.341 163.328C124.64 163.819 125.035 164.224 125.525 164.544C126.016 164.864 126.613 165.024 127.317 165.024C128.405 165.024 129.237 164.725 129.813 164.128C130.411 163.509 130.784 162.688 130.933 161.664H135.317C135.019 163.861 134.165 165.536 132.757 166.688C131.349 167.84 129.547 168.416 127.349 168.416C126.112 168.416 124.971 168.213 123.925 167.808C122.901 167.381 122.027 166.795 121.301 166.048C120.576 165.301 120.011 164.416 119.605 163.392C119.2 162.347 118.997 161.205 118.997 159.968C118.997 158.688 119.179 157.504 119.541 156.416C119.925 155.307 120.48 154.357 121.205 153.568C121.931 152.757 122.816 152.128 123.861 151.68C124.907 151.232 126.101 151.008 127.445 151.008C128.427 151.008 129.365 151.136 130.261 151.392C131.179 151.648 131.989 152.043 132.693 152.576C133.419 153.088 134.005 153.739 134.453 154.528C134.901 155.296 135.157 156.213 135.221 157.28H130.773ZM137.692 156.544C137.756 155.477 138.023 154.592 138.492 153.888C138.962 153.184 139.559 152.619 140.284 152.192C141.01 151.765 141.82 151.467 142.716 151.296C143.634 151.104 144.551 151.008 145.468 151.008C146.3 151.008 147.143 151.072 147.996 151.2C148.85 151.307 149.628 151.531 150.332 151.872C151.036 152.213 151.612 152.693 152.06 153.312C152.508 153.909 152.732 154.709 152.732 155.712V164.32C152.732 165.067 152.775 165.781 152.86 166.464C152.946 167.147 153.095 167.659 153.308 168H148.7C148.615 167.744 148.54 167.488 148.476 167.232C148.434 166.955 148.402 166.677 148.38 166.4C147.655 167.147 146.802 167.669 145.82 167.968C144.839 168.267 143.836 168.416 142.812 168.416C142.023 168.416 141.287 168.32 140.604 168.128C139.922 167.936 139.324 167.637 138.812 167.232C138.3 166.827 137.895 166.315 137.596 165.696C137.319 165.077 137.18 164.341 137.18 163.488C137.18 162.549 137.34 161.781 137.66 161.184C138.002 160.565 138.428 160.075 138.94 159.712C139.474 159.349 140.071 159.083 140.732 158.912C141.415 158.72 142.098 158.571 142.78 158.464C143.463 158.357 144.135 158.272 144.796 158.208C145.458 158.144 146.044 158.048 146.556 157.92C147.068 157.792 147.474 157.611 147.772 157.376C148.071 157.12 148.21 156.757 148.188 156.288C148.188 155.797 148.103 155.413 147.932 155.136C147.783 154.837 147.57 154.613 147.292 154.464C147.036 154.293 146.727 154.187 146.364 154.144C146.023 154.08 145.65 154.048 145.244 154.048C144.348 154.048 143.644 154.24 143.132 154.624C142.62 155.008 142.322 155.648 142.236 156.544H137.692ZM148.188 159.904C147.996 160.075 147.751 160.213 147.452 160.32C147.175 160.405 146.866 160.48 146.524 160.544C146.204 160.608 145.863 160.661 145.5 160.704C145.138 160.747 144.775 160.8 144.412 160.864C144.071 160.928 143.73 161.013 143.388 161.12C143.068 161.227 142.78 161.376 142.524 161.568C142.29 161.739 142.098 161.963 141.948 162.24C141.799 162.517 141.724 162.869 141.724 163.296C141.724 163.701 141.799 164.043 141.948 164.32C142.098 164.597 142.3 164.821 142.556 164.992C142.812 165.141 143.111 165.248 143.452 165.312C143.794 165.376 144.146 165.408 144.508 165.408C145.404 165.408 146.098 165.259 146.588 164.96C147.079 164.661 147.442 164.309 147.676 163.904C147.911 163.477 148.05 163.051 148.092 162.624C148.156 162.197 148.188 161.856 148.188 161.6V159.904ZM159.779 162.624C159.779 163.115 159.875 163.541 160.067 163.904C160.281 164.245 160.547 164.533 160.867 164.768C161.187 164.981 161.55 165.141 161.955 165.248C162.382 165.355 162.819 165.408 163.267 165.408C163.587 165.408 163.918 165.376 164.259 165.312C164.622 165.227 164.942 165.109 165.219 164.96C165.518 164.789 165.763 164.576 165.955 164.32C166.147 164.043 166.243 163.701 166.243 163.296C166.243 162.613 165.785 162.101 164.867 161.76C163.971 161.419 162.713 161.077 161.091 160.736C160.43 160.587 159.779 160.416 159.139 160.224C158.521 160.011 157.966 159.744 157.475 159.424C156.985 159.083 156.59 158.667 156.291 158.176C155.993 157.664 155.843 157.045 155.843 156.32C155.843 155.253 156.046 154.379 156.451 153.696C156.878 153.013 157.433 152.48 158.115 152.096C158.798 151.691 159.566 151.413 160.419 151.264C161.273 151.093 162.147 151.008 163.043 151.008C163.939 151.008 164.803 151.093 165.635 151.264C166.489 151.435 167.246 151.723 167.907 152.128C168.569 152.533 169.113 153.077 169.539 153.76C169.987 154.421 170.254 155.264 170.339 156.288H166.019C165.955 155.413 165.625 154.827 165.027 154.528C164.43 154.208 163.726 154.048 162.915 154.048C162.659 154.048 162.382 154.069 162.083 154.112C161.785 154.133 161.507 154.197 161.251 154.304C161.017 154.411 160.814 154.571 160.643 154.784C160.473 154.976 160.387 155.243 160.387 155.584C160.387 155.989 160.537 156.32 160.835 156.576C161.134 156.832 161.518 157.045 161.987 157.216C162.478 157.365 163.033 157.504 163.651 157.632C164.27 157.76 164.899 157.899 165.539 158.048C166.201 158.197 166.841 158.379 167.459 158.592C168.099 158.805 168.665 159.093 169.155 159.456C169.646 159.797 170.041 160.235 170.339 160.768C170.638 161.28 170.787 161.92 170.787 162.688C170.787 163.776 170.563 164.693 170.115 165.44C169.689 166.165 169.123 166.752 168.419 167.2C167.715 167.648 166.905 167.957 165.987 168.128C165.091 168.32 164.174 168.416 163.235 168.416C162.275 168.416 161.337 168.32 160.419 168.128C159.502 167.936 158.681 167.616 157.955 167.168C157.251 166.72 156.665 166.133 156.195 165.408C155.747 164.661 155.502 163.733 155.459 162.624H159.779ZM184.583 157.952C184.369 156.8 183.985 155.925 183.431 155.328C182.897 154.731 182.076 154.432 180.967 154.432C180.241 154.432 179.633 154.56 179.143 154.816C178.673 155.051 178.289 155.349 177.991 155.712C177.713 156.075 177.511 156.459 177.383 156.864C177.276 157.269 177.212 157.632 177.191 157.952H184.583ZM177.191 160.832C177.255 162.304 177.628 163.371 178.311 164.032C178.993 164.693 179.975 165.024 181.255 165.024C182.172 165.024 182.961 164.8 183.623 164.352C184.284 163.883 184.689 163.392 184.839 162.88H188.839C188.199 164.864 187.217 166.283 185.895 167.136C184.572 167.989 182.972 168.416 181.095 168.416C179.793 168.416 178.62 168.213 177.575 167.808C176.529 167.381 175.644 166.784 174.919 166.016C174.193 165.248 173.628 164.331 173.223 163.264C172.839 162.197 172.647 161.024 172.647 159.744C172.647 158.507 172.849 157.355 173.255 156.288C173.66 155.221 174.236 154.304 174.983 153.536C175.729 152.747 176.615 152.128 177.639 151.68C178.684 151.232 179.836 151.008 181.095 151.008C182.503 151.008 183.729 151.285 184.775 151.84C185.82 152.373 186.673 153.099 187.335 154.016C188.017 154.933 188.508 155.979 188.807 157.152C189.105 158.325 189.212 159.552 189.127 160.832H177.191ZM204.248 162.624C204.248 163.115 204.344 163.541 204.536 163.904C204.749 164.245 205.016 164.533 205.336 164.768C205.656 164.981 206.019 165.141 206.424 165.248C206.851 165.355 207.288 165.408 207.736 165.408C208.056 165.408 208.387 165.376 208.728 165.312C209.091 165.227 209.411 165.109 209.688 164.96C209.987 164.789 210.232 164.576 210.424 164.32C210.616 164.043 210.712 163.701 210.712 163.296C210.712 162.613 210.253 162.101 209.336 161.76C208.44 161.419 207.181 161.077 205.56 160.736C204.899 160.587 204.248 160.416 203.608 160.224C202.989 160.011 202.435 159.744 201.944 159.424C201.453 159.083 201.059 158.667 200.76 158.176C200.461 157.664 200.312 157.045 200.312 156.32C200.312 155.253 200.515 154.379 200.92 153.696C201.347 153.013 201.901 152.48 202.584 152.096C203.267 151.691 204.035 151.413 204.888 151.264C205.741 151.093 206.616 151.008 207.512 151.008C208.408 151.008 209.272 151.093 210.104 151.264C210.957 151.435 211.715 151.723 212.376 152.128C213.037 152.533 213.581 153.077 214.008 153.76C214.456 154.421 214.723 155.264 214.808 156.288H210.488C210.424 155.413 210.093 154.827 209.496 154.528C208.899 154.208 208.195 154.048 207.384 154.048C207.128 154.048 206.851 154.069 206.552 154.112C206.253 154.133 205.976 154.197 205.72 154.304C205.485 154.411 205.283 154.571 205.112 154.784C204.941 154.976 204.856 155.243 204.856 155.584C204.856 155.989 205.005 156.32 205.304 156.576C205.603 156.832 205.987 157.045 206.456 157.216C206.947 157.365 207.501 157.504 208.12 157.632C208.739 157.76 209.368 157.899 210.008 158.048C210.669 158.197 211.309 158.379 211.928 158.592C212.568 158.805 213.133 159.093 213.624 159.456C214.115 159.797 214.509 160.235 214.808 160.768C215.107 161.28 215.256 161.92 215.256 162.688C215.256 163.776 215.032 164.693 214.584 165.44C214.157 166.165 213.592 166.752 212.888 167.2C212.184 167.648 211.373 167.957 210.456 168.128C209.56 168.32 208.643 168.416 207.704 168.416C206.744 168.416 205.805 168.32 204.888 168.128C203.971 167.936 203.149 167.616 202.424 167.168C201.72 166.72 201.133 166.133 200.664 165.408C200.216 164.661 199.971 163.733 199.928 162.624H204.248ZM218.332 145.152H222.876V157.408L228.604 151.456H233.98L227.74 157.536L234.684 168H229.18L224.635 160.608L222.876 162.304V168H218.332V145.152ZM240.963 148.896H236.419V145.152H240.963V148.896ZM236.419 151.456H240.963V168H236.419V151.456ZM244.669 145.152H249.213V168H244.669V145.152ZM252.919 145.152H257.463V168H252.919V145.152ZM264.561 162.624C264.561 163.115 264.657 163.541 264.849 163.904C265.062 164.245 265.329 164.533 265.649 164.768C265.969 164.981 266.331 165.141 266.737 165.248C267.163 165.355 267.601 165.408 268.049 165.408C268.369 165.408 268.699 165.376 269.041 165.312C269.403 165.227 269.723 165.109 270.001 164.96C270.299 164.789 270.545 164.576 270.737 164.32C270.929 164.043 271.025 163.701 271.025 163.296C271.025 162.613 270.566 162.101 269.649 161.76C268.753 161.419 267.494 161.077 265.873 160.736C265.211 160.587 264.561 160.416 263.921 160.224C263.302 160.011 262.747 159.744 262.257 159.424C261.766 159.083 261.371 158.667 261.073 158.176C260.774 157.664 260.625 157.045 260.625 156.32C260.625 155.253 260.827 154.379 261.233 153.696C261.659 153.013 262.214 152.48 262.897 152.096C263.579 151.691 264.347 151.413 265.201 151.264C266.054 151.093 266.929 151.008 267.825 151.008C268.721 151.008 269.585 151.093 270.417 151.264C271.27 151.435 272.027 151.723 272.689 152.128C273.35 152.533 273.894 153.077 274.321 153.76C274.769 154.421 275.035 155.264 275.121 156.288H270.801C270.737 155.413 270.406 154.827 269.809 154.528C269.211 154.208 268.507 154.048 267.697 154.048C267.441 154.048 267.163 154.069 266.865 154.112C266.566 154.133 266.289 154.197 266.033 154.304C265.798 154.411 265.595 154.571 265.425 154.784C265.254 154.976 265.169 155.243 265.169 155.584C265.169 155.989 265.318 156.32 265.617 156.576C265.915 156.832 266.299 157.045 266.769 157.216C267.259 157.365 267.814 157.504 268.433 157.632C269.051 157.76 269.681 157.899 270.321 158.048C270.982 158.197 271.622 158.379 272.241 158.592C272.881 158.805 273.446 159.093 273.937 159.456C274.427 159.797 274.822 160.235 275.121 160.768C275.419 161.28 275.569 161.92 275.569 162.688C275.569 163.776 275.345 164.693 274.897 165.44C274.47 166.165 273.905 166.752 273.201 167.2C272.497 167.648 271.686 167.957 270.769 168.128C269.873 168.32 268.955 168.416 268.017 168.416C267.057 168.416 266.118 168.32 265.201 168.128C264.283 167.936 263.462 167.616 262.737 167.168C262.033 166.72 261.446 166.133 260.977 165.408C260.529 164.661 260.283 163.733 260.241 162.624H264.561ZM278.452 163.072H283.476V168C283.476 168.725 283.337 169.387 283.06 169.984C282.804 170.603 282.452 171.136 282.004 171.584C281.556 172.032 281.023 172.395 280.404 172.672C279.807 172.971 279.167 173.173 278.484 173.28V170.976C278.804 170.912 279.103 170.784 279.38 170.592C279.679 170.4 279.935 170.165 280.148 169.888C280.361 169.632 280.521 169.333 280.628 168.992C280.735 168.672 280.777 168.341 280.756 168H278.452V163.072ZM295.849 156.544C295.913 155.477 296.179 154.592 296.649 153.888C297.118 153.184 297.715 152.619 298.441 152.192C299.166 151.765 299.977 151.467 300.873 151.296C301.79 151.104 302.707 151.008 303.625 151.008C304.457 151.008 305.299 151.072 306.153 151.2C307.006 151.307 307.785 151.531 308.489 151.872C309.193 152.213 309.769 152.693 310.217 153.312C310.665 153.909 310.889 154.709 310.889 155.712V164.32C310.889 165.067 310.931 165.781 311.017 166.464C311.102 167.147 311.251 167.659 311.465 168H306.857C306.771 167.744 306.697 167.488 306.633 167.232C306.59 166.955 306.558 166.677 306.537 166.4C305.811 167.147 304.958 167.669 303.977 167.968C302.995 168.267 301.993 168.416 300.969 168.416C300.179 168.416 299.443 168.32 298.761 168.128C298.078 167.936 297.481 167.637 296.969 167.232C296.457 166.827 296.051 166.315 295.753 165.696C295.475 165.077 295.337 164.341 295.337 163.488C295.337 162.549 295.497 161.781 295.817 161.184C296.158 160.565 296.585 160.075 297.097 159.712C297.63 159.349 298.227 159.083 298.889 158.912C299.571 158.72 300.254 158.571 300.937 158.464C301.619 158.357 302.291 158.272 302.953 158.208C303.614 158.144 304.201 158.048 304.713 157.92C305.225 157.792 305.63 157.611 305.929 157.376C306.227 157.12 306.366 156.757 306.345 156.288C306.345 155.797 306.259 155.413 306.089 155.136C305.939 154.837 305.726 154.613 305.449 154.464C305.193 154.293 304.883 154.187 304.521 154.144C304.179 154.08 303.806 154.048 303.401 154.048C302.505 154.048 301.801 154.24 301.289 154.624C300.777 155.008 300.478 155.648 300.393 156.544H295.849ZM306.345 159.904C306.153 160.075 305.907 160.213 305.609 160.32C305.331 160.405 305.022 160.48 304.681 160.544C304.361 160.608 304.019 160.661 303.657 160.704C303.294 160.747 302.931 160.8 302.569 160.864C302.227 160.928 301.886 161.013 301.545 161.12C301.225 161.227 300.937 161.376 300.681 161.568C300.446 161.739 300.254 161.963 300.105 162.24C299.955 162.517 299.881 162.869 299.881 163.296C299.881 163.701 299.955 164.043 300.105 164.32C300.254 164.597 300.457 164.821 300.713 164.992C300.969 165.141 301.267 165.248 301.609 165.312C301.95 165.376 302.302 165.408 302.665 165.408C303.561 165.408 304.254 165.259 304.745 164.96C305.235 164.661 305.598 164.309 305.833 163.904C306.067 163.477 306.206 163.051 306.249 162.624C306.313 162.197 306.345 161.856 306.345 161.6V159.904ZM314.416 151.456H318.736V153.76H318.832C319.408 152.8 320.154 152.107 321.072 151.68C321.989 151.232 322.928 151.008 323.888 151.008C325.104 151.008 326.096 151.179 326.864 151.52C327.653 151.84 328.272 152.299 328.72 152.896C329.168 153.472 329.477 154.187 329.648 155.04C329.84 155.872 329.936 156.8 329.936 157.824V168H325.392V158.656C325.392 157.291 325.178 156.277 324.752 155.616C324.325 154.933 323.568 154.592 322.48 154.592C321.242 154.592 320.346 154.965 319.792 155.712C319.237 156.437 318.96 157.643 318.96 159.328V168H314.416V151.456ZM345.128 159.68C345.128 158.997 345.064 158.347 344.936 157.728C344.808 157.088 344.584 156.533 344.264 156.064C343.966 155.573 343.571 155.179 343.08 154.88C342.59 154.581 341.971 154.432 341.224 154.432C340.478 154.432 339.848 154.581 339.336 154.88C338.824 155.179 338.408 155.573 338.088 156.064C337.79 156.555 337.566 157.12 337.416 157.76C337.288 158.379 337.224 159.029 337.224 159.712C337.224 160.352 337.299 160.992 337.448 161.632C337.598 162.272 337.832 162.848 338.152 163.36C338.494 163.851 338.91 164.256 339.4 164.576C339.912 164.875 340.52 165.024 341.224 165.024C341.971 165.024 342.59 164.875 343.08 164.576C343.592 164.277 343.998 163.883 344.296 163.392C344.595 162.88 344.808 162.304 344.936 161.664C345.064 161.024 345.128 160.363 345.128 159.68ZM345.192 165.888H345.128C344.595 166.784 343.891 167.435 343.016 167.84C342.163 168.224 341.192 168.416 340.104 168.416C338.867 168.416 337.779 168.181 336.84 167.712C335.902 167.221 335.123 166.571 334.504 165.76C333.907 164.928 333.448 163.979 333.128 162.912C332.83 161.845 332.68 160.736 332.68 159.584C332.68 158.475 332.83 157.408 333.128 156.384C333.448 155.339 333.907 154.421 334.504 153.632C335.123 152.843 335.891 152.213 336.808 151.744C337.726 151.253 338.792 151.008 340.008 151.008C340.99 151.008 341.918 151.221 342.792 151.648C343.688 152.053 344.392 152.661 344.904 153.472H344.968V145.152H349.512V168H345.192V165.888ZM365.373 162.624C365.373 163.115 365.469 163.541 365.661 163.904C365.874 164.245 366.141 164.533 366.461 164.768C366.781 164.981 367.144 165.141 367.549 165.248C367.976 165.355 368.413 165.408 368.861 165.408C369.181 165.408 369.512 165.376 369.853 165.312C370.216 165.227 370.536 165.109 370.813 164.96C371.112 164.789 371.357 164.576 371.549 164.32C371.741 164.043 371.837 163.701 371.837 163.296C371.837 162.613 371.378 162.101 370.461 161.76C369.565 161.419 368.306 161.077 366.685 160.736C366.024 160.587 365.373 160.416 364.733 160.224C364.114 160.011 363.56 159.744 363.069 159.424C362.578 159.083 362.184 158.667 361.885 158.176C361.586 157.664 361.437 157.045 361.437 156.32C361.437 155.253 361.64 154.379 362.045 153.696C362.472 153.013 363.026 152.48 363.709 152.096C364.392 151.691 365.16 151.413 366.013 151.264C366.866 151.093 367.741 151.008 368.637 151.008C369.533 151.008 370.397 151.093 371.229 151.264C372.082 151.435 372.84 151.723 373.501 152.128C374.162 152.533 374.706 153.077 375.133 153.76C375.581 154.421 375.848 155.264 375.933 156.288H371.613C371.549 155.413 371.218 154.827 370.621 154.528C370.024 154.208 369.32 154.048 368.509 154.048C368.253 154.048 367.976 154.069 367.677 154.112C367.378 154.133 367.101 154.197 366.845 154.304C366.61 154.411 366.408 154.571 366.237 154.784C366.066 154.976 365.981 155.243 365.981 155.584C365.981 155.989 366.13 156.32 366.429 156.576C366.728 156.832 367.112 157.045 367.581 157.216C368.072 157.365 368.626 157.504 369.245 157.632C369.864 157.76 370.493 157.899 371.133 158.048C371.794 158.197 372.434 158.379 373.053 158.592C373.693 158.805 374.258 159.093 374.749 159.456C375.24 159.797 375.634 160.235 375.933 160.768C376.232 161.28 376.381 161.92 376.381 162.688C376.381 163.776 376.157 164.693 375.709 165.44C375.282 166.165 374.717 166.752 374.013 167.2C373.309 167.648 372.498 167.957 371.581 168.128C370.685 168.32 369.768 168.416 368.829 168.416C367.869 168.416 366.93 168.32 366.013 168.128C365.096 167.936 364.274 167.616 363.549 167.168C362.845 166.72 362.258 166.133 361.789 165.408C361.341 164.661 361.096 163.733 361.053 162.624H365.373ZM384.801 151.456H388.129V154.496H384.801V162.688C384.801 163.456 384.929 163.968 385.185 164.224C385.441 164.48 385.953 164.608 386.72 164.608C386.977 164.608 387.222 164.597 387.457 164.576C387.691 164.555 387.915 164.523 388.129 164.48V168C387.745 168.064 387.318 168.107 386.849 168.128C386.379 168.149 385.921 168.16 385.473 168.16C384.769 168.16 384.097 168.107 383.457 168C382.838 167.915 382.283 167.733 381.793 167.456C381.323 167.179 380.95 166.784 380.673 166.272C380.395 165.76 380.257 165.088 380.257 164.256V154.496H377.505V151.456H380.257V146.496H384.801V151.456ZM390.099 156.544C390.163 155.477 390.429 154.592 390.899 153.888C391.368 153.184 391.965 152.619 392.691 152.192C393.416 151.765 394.227 151.467 395.123 151.296C396.04 151.104 396.957 151.008 397.875 151.008C398.707 151.008 399.549 151.072 400.403 151.2C401.256 151.307 402.035 151.531 402.739 151.872C403.443 152.213 404.019 152.693 404.467 153.312C404.915 153.909 405.139 154.709 405.139 155.712V164.32C405.139 165.067 405.181 165.781 405.267 166.464C405.352 167.147 405.501 167.659 405.715 168H401.107C401.021 167.744 400.947 167.488 400.883 167.232C400.84 166.955 400.808 166.677 400.787 166.4C400.061 167.147 399.208 167.669 398.227 167.968C397.245 168.267 396.243 168.416 395.219 168.416C394.429 168.416 393.693 168.32 393.011 168.128C392.328 167.936 391.731 167.637 391.219 167.232C390.707 166.827 390.301 166.315 390.003 165.696C389.725 165.077 389.587 164.341 389.587 163.488C389.587 162.549 389.747 161.781 390.067 161.184C390.408 160.565 390.835 160.075 391.347 159.712C391.88 159.349 392.477 159.083 393.139 158.912C393.821 158.72 394.504 158.571 395.187 158.464C395.869 158.357 396.541 158.272 397.203 158.208C397.864 158.144 398.451 158.048 398.963 157.92C399.475 157.792 399.88 157.611 400.179 157.376C400.477 157.12 400.616 156.757 400.595 156.288C400.595 155.797 400.509 155.413 400.339 155.136C400.189 154.837 399.976 154.613 399.699 154.464C399.443 154.293 399.133 154.187 398.771 154.144C398.429 154.08 398.056 154.048 397.651 154.048C396.755 154.048 396.051 154.24 395.539 154.624C395.027 155.008 394.728 155.648 394.643 156.544H390.099ZM400.595 159.904C400.403 160.075 400.157 160.213 399.859 160.32C399.581 160.405 399.272 160.48 398.931 160.544C398.611 160.608 398.269 160.661 397.907 160.704C397.544 160.747 397.181 160.8 396.819 160.864C396.477 160.928 396.136 161.013 395.795 161.12C395.475 161.227 395.187 161.376 394.931 161.568C394.696 161.739 394.504 161.963 394.355 162.24C394.205 162.517 394.131 162.869 394.131 163.296C394.131 163.701 394.205 164.043 394.355 164.32C394.504 164.597 394.707 164.821 394.963 164.992C395.219 165.141 395.517 165.248 395.859 165.312C396.2 165.376 396.552 165.408 396.915 165.408C397.811 165.408 398.504 165.259 398.995 164.96C399.485 164.661 399.848 164.309 400.083 163.904C400.317 163.477 400.456 163.051 400.499 162.624C400.563 162.197 400.595 161.856 400.595 161.6V159.904ZM408.666 151.456H412.986V154.528H413.05C413.263 154.016 413.551 153.547 413.914 153.12C414.276 152.672 414.692 152.299 415.161 152C415.631 151.68 416.132 151.435 416.666 151.264C417.199 151.093 417.754 151.008 418.33 151.008C418.628 151.008 418.959 151.061 419.322 151.168V155.392C419.108 155.349 418.852 155.317 418.554 155.296C418.255 155.253 417.967 155.232 417.69 155.232C416.858 155.232 416.154 155.371 415.578 155.648C415.002 155.925 414.532 156.309 414.17 156.8C413.828 157.269 413.583 157.824 413.434 158.464C413.284 159.104 413.21 159.797 413.21 160.544V168H408.666V151.456ZM426.863 151.456H430.191V154.496H426.863V162.688C426.863 163.456 426.991 163.968 427.247 164.224C427.503 164.48 428.015 164.608 428.783 164.608C429.039 164.608 429.284 164.597 429.519 164.576C429.754 164.555 429.978 164.523 430.191 164.48V168C429.807 168.064 429.38 168.107 428.911 168.128C428.442 168.149 427.983 168.16 427.535 168.16C426.831 168.16 426.159 168.107 425.519 168C424.9 167.915 424.346 167.733 423.855 167.456C423.386 167.179 423.012 166.784 422.735 166.272C422.458 165.76 422.319 165.088 422.319 164.256V154.496H419.567V151.456H422.319V146.496H426.863V151.456ZM452.395 157.952C452.182 156.8 451.798 155.925 451.243 155.328C450.71 154.731 449.889 154.432 448.779 154.432C448.054 154.432 447.446 154.56 446.955 154.816C446.486 155.051 446.102 155.349 445.803 155.712C445.526 156.075 445.323 156.459 445.195 156.864C445.089 157.269 445.025 157.632 445.003 157.952H452.395ZM445.003 160.832C445.067 162.304 445.441 163.371 446.123 164.032C446.806 164.693 447.787 165.024 449.067 165.024C449.985 165.024 450.774 164.8 451.435 164.352C452.097 163.883 452.502 163.392 452.651 162.88H456.651C456.011 164.864 455.03 166.283 453.707 167.136C452.385 167.989 450.785 168.416 448.907 168.416C447.606 168.416 446.433 168.213 445.387 167.808C444.342 167.381 443.457 166.784 442.731 166.016C442.006 165.248 441.441 164.331 441.035 163.264C440.651 162.197 440.459 161.024 440.459 159.744C440.459 158.507 440.662 157.355 441.067 156.288C441.473 155.221 442.049 154.304 442.795 153.536C443.542 152.747 444.427 152.128 445.451 151.68C446.497 151.232 447.649 151.008 448.907 151.008C450.315 151.008 451.542 151.285 452.587 151.84C453.633 152.373 454.486 153.099 455.147 154.016C455.83 154.933 456.321 155.979 456.619 157.152C456.918 158.325 457.025 159.552 456.939 160.832H445.003ZM459.442 156.544C459.506 155.477 459.773 154.592 460.242 153.888C460.712 153.184 461.309 152.619 462.034 152.192C462.76 151.765 463.57 151.467 464.466 151.296C465.384 151.104 466.301 151.008 467.218 151.008C468.05 151.008 468.893 151.072 469.746 151.2C470.6 151.307 471.378 151.531 472.082 151.872C472.786 152.213 473.362 152.693 473.81 153.312C474.258 153.909 474.482 154.709 474.482 155.712V164.32C474.482 165.067 474.525 165.781 474.61 166.464C474.696 167.147 474.845 167.659 475.058 168H470.45C470.365 167.744 470.29 167.488 470.226 167.232C470.184 166.955 470.152 166.677 470.13 166.4C469.405 167.147 468.552 167.669 467.57 167.968C466.589 168.267 465.586 168.416 464.562 168.416C463.773 168.416 463.037 168.32 462.354 168.128C461.672 167.936 461.074 167.637 460.562 167.232C460.05 166.827 459.645 166.315 459.346 165.696C459.069 165.077 458.93 164.341 458.93 163.488C458.93 162.549 459.09 161.781 459.41 161.184C459.752 160.565 460.178 160.075 460.69 159.712C461.224 159.349 461.821 159.083 462.482 158.912C463.165 158.72 463.848 158.571 464.53 158.464C465.213 158.357 465.885 158.272 466.546 158.208C467.208 158.144 467.794 158.048 468.306 157.92C468.818 157.792 469.224 157.611 469.522 157.376C469.821 157.12 469.96 156.757 469.938 156.288C469.938 155.797 469.853 155.413 469.682 155.136C469.533 154.837 469.32 154.613 469.042 154.464C468.786 154.293 468.477 154.187 468.114 154.144C467.773 154.08 467.4 154.048 466.994 154.048C466.098 154.048 465.394 154.24 464.882 154.624C464.37 155.008 464.072 155.648 463.986 156.544H459.442ZM469.938 159.904C469.746 160.075 469.501 160.213 469.202 160.32C468.925 160.405 468.616 160.48 468.274 160.544C467.954 160.608 467.613 160.661 467.25 160.704C466.888 160.747 466.525 160.8 466.162 160.864C465.821 160.928 465.48 161.013 465.138 161.12C464.818 161.227 464.53 161.376 464.274 161.568C464.04 161.739 463.848 161.963 463.698 162.24C463.549 162.517 463.474 162.869 463.474 163.296C463.474 163.701 463.549 164.043 463.698 164.32C463.848 164.597 464.05 164.821 464.306 164.992C464.562 165.141 464.861 165.248 465.202 165.312C465.544 165.376 465.896 165.408 466.258 165.408C467.154 165.408 467.848 165.259 468.338 164.96C468.829 164.661 469.192 164.309 469.426 163.904C469.661 163.477 469.8 163.051 469.842 162.624C469.906 162.197 469.938 161.856 469.938 161.6V159.904ZM478.009 151.456H482.329V154.528H482.393C482.607 154.016 482.895 153.547 483.257 153.12C483.62 152.672 484.036 152.299 484.505 152C484.975 151.68 485.476 151.435 486.009 151.264C486.543 151.093 487.097 151.008 487.673 151.008C487.972 151.008 488.303 151.061 488.665 151.168V155.392C488.452 155.349 488.196 155.317 487.897 155.296C487.599 155.253 487.311 155.232 487.033 155.232C486.201 155.232 485.497 155.371 484.921 155.648C484.345 155.925 483.876 156.309 483.513 156.8C483.172 157.269 482.927 157.824 482.777 158.464C482.628 159.104 482.553 159.797 482.553 160.544V168H478.009V151.456ZM491.009 151.456H495.329V153.76H495.425C496.001 152.8 496.748 152.107 497.665 151.68C498.583 151.232 499.521 151.008 500.481 151.008C501.697 151.008 502.689 151.179 503.457 151.52C504.247 151.84 504.865 152.299 505.313 152.896C505.761 153.472 506.071 154.187 506.241 155.04C506.433 155.872 506.529 156.8 506.529 157.824V168H501.985V158.656C501.985 157.291 501.772 156.277 501.345 155.616C500.919 154.933 500.161 154.592 499.073 154.592C497.836 154.592 496.94 154.965 496.385 155.712C495.831 156.437 495.553 157.643 495.553 159.328V168H491.009V151.456ZM514.65 148.896H510.106V145.152H514.65V148.896ZM510.106 151.456H514.65V168H510.106V151.456ZM518.228 151.456H522.548V153.76H522.644C523.22 152.8 523.967 152.107 524.884 151.68C525.801 151.232 526.74 151.008 527.7 151.008C528.916 151.008 529.908 151.179 530.676 151.52C531.465 151.84 532.084 152.299 532.532 152.896C532.98 153.472 533.289 154.187 533.46 155.04C533.652 155.872 533.748 156.8 533.748 157.824V168H529.204V158.656C529.204 157.291 528.991 156.277 528.564 155.616C528.137 154.933 527.38 154.592 526.292 154.592C525.055 154.592 524.159 154.965 523.604 155.712C523.049 156.437 522.772 157.643 522.772 159.328V168H518.228V151.456ZM544.909 164.096C545.549 164.096 546.114 163.968 546.605 163.712C547.095 163.456 547.501 163.115 547.821 162.688C548.141 162.261 548.375 161.781 548.525 161.248C548.695 160.693 548.781 160.117 548.781 159.52C548.781 158.837 548.717 158.197 548.589 157.6C548.461 156.981 548.247 156.437 547.949 155.968C547.65 155.499 547.255 155.125 546.765 154.848C546.274 154.571 545.655 154.432 544.909 154.432C544.269 154.432 543.714 154.56 543.245 154.816C542.797 155.072 542.413 155.424 542.093 155.872C541.794 156.299 541.57 156.8 541.421 157.376C541.293 157.931 541.229 158.517 541.229 159.136C541.229 159.733 541.282 160.331 541.389 160.928C541.517 161.504 541.719 162.027 541.997 162.496C542.295 162.965 542.679 163.349 543.149 163.648C543.618 163.947 544.205 164.096 544.909 164.096ZM553.101 166.944C553.101 167.605 553.005 168.363 552.813 169.216C552.642 170.069 552.258 170.859 551.661 171.584C551.063 172.331 550.199 172.96 549.069 173.472C547.938 173.984 546.423 174.24 544.525 174.24C543.714 174.24 542.882 174.133 542.029 173.92C541.197 173.728 540.429 173.419 539.725 172.992C539.042 172.565 538.466 172.011 537.997 171.328C537.549 170.667 537.293 169.867 537.229 168.928H541.741C541.954 169.781 542.37 170.368 542.989 170.688C543.607 171.029 544.322 171.2 545.133 171.2C546.413 171.2 547.341 170.816 547.917 170.048C548.514 169.28 548.802 168.309 548.781 167.136V164.96H548.717C548.226 165.835 547.522 166.485 546.605 166.912C545.709 167.317 544.759 167.52 543.757 167.52C542.519 167.52 541.453 167.307 540.557 166.88C539.661 166.432 538.925 165.835 538.349 165.088C537.773 164.32 537.346 163.435 537.069 162.432C536.813 161.408 536.685 160.331 536.685 159.2C536.685 158.133 536.834 157.109 537.133 156.128C537.453 155.125 537.911 154.251 538.509 153.504C539.106 152.736 539.842 152.128 540.717 151.68C541.613 151.232 542.637 151.008 543.789 151.008C544.877 151.008 545.826 151.211 546.637 151.616C547.469 152.021 548.162 152.704 548.717 153.664H548.781V151.456H553.101V166.944ZM571.426 151.456H574.754V154.496H571.426V162.688C571.426 163.456 571.554 163.968 571.81 164.224C572.066 164.48 572.578 164.608 573.345 164.608C573.602 164.608 573.847 164.597 574.082 164.576C574.316 164.555 574.54 164.523 574.754 164.48V168C574.37 168.064 573.943 168.107 573.474 168.128C573.004 168.149 572.546 168.16 572.098 168.16C571.394 168.16 570.722 168.107 570.082 168C569.463 167.915 568.908 167.733 568.418 167.456C567.948 167.179 567.575 166.784 567.298 166.272C567.02 165.76 566.882 165.088 566.882 164.256V154.496H564.13V151.456H566.882V146.496H571.426V151.456ZM580.948 159.744C580.948 160.405 581.012 161.056 581.14 161.696C581.268 162.315 581.481 162.88 581.78 163.392C582.1 163.883 582.516 164.277 583.028 164.576C583.54 164.875 584.18 165.024 584.948 165.024C585.716 165.024 586.356 164.875 586.868 164.576C587.401 164.277 587.817 163.883 588.116 163.392C588.436 162.88 588.66 162.315 588.788 161.696C588.916 161.056 588.98 160.405 588.98 159.744C588.98 159.083 588.916 158.432 588.788 157.792C588.66 157.152 588.436 156.587 588.116 156.096C587.817 155.605 587.401 155.211 586.868 154.912C586.356 154.592 585.716 154.432 584.948 154.432C584.18 154.432 583.54 154.592 583.028 154.912C582.516 155.211 582.1 155.605 581.78 156.096C581.481 156.587 581.268 157.152 581.14 157.792C581.012 158.432 580.948 159.083 580.948 159.744ZM576.404 159.744C576.404 158.421 576.606 157.227 577.012 156.16C577.417 155.072 577.993 154.155 578.74 153.408C579.486 152.64 580.382 152.053 581.428 151.648C582.473 151.221 583.646 151.008 584.948 151.008C586.249 151.008 587.422 151.221 588.468 151.648C589.534 152.053 590.441 152.64 591.188 153.408C591.934 154.155 592.51 155.072 592.916 156.16C593.321 157.227 593.524 158.421 593.524 159.744C593.524 161.067 593.321 162.261 592.916 163.328C592.51 164.395 591.934 165.312 591.188 166.08C590.441 166.827 589.534 167.403 588.468 167.808C587.422 168.213 586.249 168.416 584.948 168.416C583.646 168.416 582.473 168.213 581.428 167.808C580.382 167.403 579.486 166.827 578.74 166.08C577.993 165.312 577.417 164.395 577.012 163.328C576.606 162.261 576.404 161.067 576.404 159.744ZM608.222 159.68C608.222 158.997 608.158 158.347 608.03 157.728C607.902 157.088 607.678 156.533 607.358 156.064C607.059 155.573 606.665 155.179 606.174 154.88C605.683 154.581 605.065 154.432 604.318 154.432C603.571 154.432 602.942 154.581 602.43 154.88C601.918 155.179 601.502 155.573 601.182 156.064C600.883 156.555 600.659 157.12 600.51 157.76C600.382 158.379 600.318 159.029 600.318 159.712C600.318 160.352 600.393 160.992 600.542 161.632C600.691 162.272 600.926 162.848 601.246 163.36C601.587 163.851 602.003 164.256 602.494 164.576C603.006 164.875 603.614 165.024 604.318 165.024C605.065 165.024 605.683 164.875 606.174 164.576C606.686 164.277 607.091 163.883 607.39 163.392C607.689 162.88 607.902 162.304 608.03 161.664C608.158 161.024 608.222 160.363 608.222 159.68ZM608.286 165.888H608.222C607.689 166.784 606.985 167.435 606.11 167.84C605.257 168.224 604.286 168.416 603.198 168.416C601.961 168.416 600.873 168.181 599.934 167.712C598.995 167.221 598.217 166.571 597.598 165.76C597.001 164.928 596.542 163.979 596.222 162.912C595.923 161.845 595.774 160.736 595.774 159.584C595.774 158.475 595.923 157.408 596.222 156.384C596.542 155.339 597.001 154.421 597.598 153.632C598.217 152.843 598.985 152.213 599.902 151.744C600.819 151.253 601.886 151.008 603.102 151.008C604.083 151.008 605.011 151.221 605.886 151.648C606.782 152.053 607.486 152.661 607.998 153.472H608.062V145.152H612.606V168H608.286V165.888ZM615.849 156.544C615.913 155.477 616.179 154.592 616.649 153.888C617.118 153.184 617.715 152.619 618.441 152.192C619.166 151.765 619.977 151.467 620.873 151.296C621.79 151.104 622.707 151.008 623.625 151.008C624.457 151.008 625.299 151.072 626.153 151.2C627.006 151.307 627.785 151.531 628.489 151.872C629.193 152.213 629.769 152.693 630.217 153.312C630.665 153.909 630.889 154.709 630.889 155.712V164.32C630.889 165.067 630.931 165.781 631.017 166.464C631.102 167.147 631.251 167.659 631.465 168H626.857C626.771 167.744 626.697 167.488 626.633 167.232C626.59 166.955 626.558 166.677 626.537 166.4C625.811 167.147 624.958 167.669 623.977 167.968C622.995 168.267 621.993 168.416 620.969 168.416C620.179 168.416 619.443 168.32 618.761 168.128C618.078 167.936 617.481 167.637 616.969 167.232C616.457 166.827 616.051 166.315 615.753 165.696C615.475 165.077 615.337 164.341 615.337 163.488C615.337 162.549 615.497 161.781 615.817 161.184C616.158 160.565 616.585 160.075 617.097 159.712C617.63 159.349 618.227 159.083 618.889 158.912C619.571 158.72 620.254 158.571 620.937 158.464C621.619 158.357 622.291 158.272 622.953 158.208C623.614 158.144 624.201 158.048 624.713 157.92C625.225 157.792 625.63 157.611 625.929 157.376C626.227 157.12 626.366 156.757 626.345 156.288C626.345 155.797 626.259 155.413 626.089 155.136C625.939 154.837 625.726 154.613 625.449 154.464C625.193 154.293 624.883 154.187 624.521 154.144C624.179 154.08 623.806 154.048 623.401 154.048C622.505 154.048 621.801 154.24 621.289 154.624C620.777 155.008 620.478 155.648 620.393 156.544H615.849ZM626.345 159.904C626.153 160.075 625.907 160.213 625.609 160.32C625.331 160.405 625.022 160.48 624.681 160.544C624.361 160.608 624.019 160.661 623.657 160.704C623.294 160.747 622.931 160.8 622.569 160.864C622.227 160.928 621.886 161.013 621.545 161.12C621.225 161.227 620.937 161.376 620.681 161.568C620.446 161.739 620.254 161.963 620.105 162.24C619.955 162.517 619.881 162.869 619.881 163.296C619.881 163.701 619.955 164.043 620.105 164.32C620.254 164.597 620.457 164.821 620.713 164.992C620.969 165.141 621.267 165.248 621.609 165.312C621.95 165.376 622.302 165.408 622.665 165.408C623.561 165.408 624.254 165.259 624.745 164.96C625.235 164.661 625.598 164.309 625.833 163.904C626.067 163.477 626.206 163.051 626.249 162.624C626.313 162.197 626.345 161.856 626.345 161.6V159.904ZM642.576 170.048C642.085 171.392 641.402 172.352 640.528 172.928C639.653 173.504 638.437 173.792 636.88 173.792C636.41 173.792 635.941 173.771 635.472 173.728C635.024 173.707 634.565 173.675 634.096 173.632V169.888C634.522 169.931 634.96 169.973 635.408 170.016C635.856 170.059 636.304 170.069 636.752 170.048C637.349 169.984 637.786 169.749 638.064 169.344C638.362 168.939 638.512 168.491 638.512 168C638.512 167.637 638.448 167.296 638.32 166.976L632.527 151.456H637.36L641.104 162.784H641.168L644.784 151.456H649.488L642.576 170.048ZM651.233 163.072H656.257V168H651.233V163.072ZM656.097 151.296L654.849 161.152H652.577L651.361 151.296V145.152H656.097V151.296Z" fill="white"/>
<path d="M890.095 -16.0566C861.786 42.1583 826.849 175.146 913.573 241.379C1021.98 324.17 1103.98 259.131 1107.92 203.339C1113.55 123.625 1017.3 -18.6773 794.001 163.728C615.365 309.653 716.256 368.347 789.031 379.453" stroke="white" stroke-width="11"/>
</g>
<defs>
<linearGradient id="paint0_linear_2362_190" x1="0" y1="0" x2="981" y2="240" gradientUnits="userSpaceOnUse">
<stop stop-color="#474747"/>
<stop offset="1"/>
</linearGradient>
<clipPath id="clip0_2362_190">
<rect width="981" height="240" rx="20" fill="white"/>
</clipPath>
</defs>
</svg>
