<svg width="358" height="130" viewBox="0 0 358 130" fill="none" xmlns="http://www.w3.org/2000/svg">
<g clip-path="url(#clip0_2097_9773)">
<rect width="358" height="130" rx="20" fill="url(#paint0_linear_2097_9773)"/>
<path d="M387.35 130.054C349.453 159.454 282.636 236.366 318.546 308.809C363.433 399.363 439.246 383.033 460.155 347.252C490.029 296.13 472.731 170.018 264.554 218.009C98.0127 256.403 145.808 328.481 190.523 359.722" stroke="white" stroke-width="11"/>
<path d="M88.352 35.132C86.972 35.132 85.832 34.652 84.956 33.812L85.688 32.912C86.42 33.608 87.284 34.064 88.4 34.064C89.54 34.064 90.128 33.464 90.128 32.804C90.128 32.024 89.444 31.724 88.064 31.412C86.384 31.016 85.268 30.512 85.268 29.024C85.268 27.644 86.468 26.6 88.124 26.6C89.396 26.6 90.344 27.068 91.136 27.764L90.44 28.676C89.744 28.04 88.916 27.668 88.076 27.668C87.152 27.668 86.504 28.256 86.504 28.916C86.504 29.684 87.212 29.948 88.568 30.272C90.212 30.656 91.352 31.208 91.352 32.684C91.352 34.076 90.296 35.132 88.352 35.132ZM95.7094 33.884L96.1414 34.7C95.8054 34.976 95.3494 35.144 94.9054 35.144C93.9454 35.144 93.2734 34.448 93.2734 33.452V29.804H92.3374V28.796H93.2734V27.092H94.4374V28.796H95.9014V29.804H94.4374V33.368C94.4374 33.8 94.7254 34.112 95.0734 34.112C95.3374 34.112 95.5774 34.016 95.7094 33.884ZM99.9563 28.652C101.624 28.652 102.548 29.708 102.548 31.244V35H101.384V34.148C100.928 34.796 100.076 35.144 99.3203 35.144C98.0003 35.144 97.0283 34.376 97.0283 33.164C97.0283 31.928 98.1443 31.1 99.5123 31.1C100.124 31.1 100.784 31.232 101.384 31.436V31.244C101.384 30.464 101.024 29.636 99.7883 29.636C99.1763 29.636 98.5763 29.876 98.0363 30.152L97.6043 29.276C98.4923 28.832 99.2723 28.652 99.9563 28.652ZM99.5483 34.208C100.316 34.208 101.18 33.824 101.384 33.056V32.228C100.88 32.072 100.304 31.988 99.6923 31.988C98.8643 31.988 98.1683 32.456 98.1683 33.128C98.1683 33.8 98.7683 34.208 99.5483 34.208ZM105.514 29.984C105.91 29.168 106.75 28.652 107.818 28.652V29.684C106.534 29.684 105.622 30.392 105.514 31.472V35H104.326V28.796H105.514V29.984ZM111.881 33.884L112.313 34.7C111.977 34.976 111.521 35.144 111.077 35.144C110.117 35.144 109.445 34.448 109.445 33.452V29.804H108.509V28.796H109.445V27.092H110.609V28.796H112.073V29.804H110.609V33.368C110.609 33.8 110.897 34.112 111.245 34.112C111.509 34.112 111.749 34.016 111.881 33.884ZM116.994 35V26.756H120.462C122.202 26.756 123.522 27.872 123.522 29.444C123.522 31.016 122.202 32.132 120.462 32.132H118.206V35H116.994ZM118.206 31.004H120.294C121.482 31.004 122.286 30.416 122.286 29.444C122.286 28.472 121.482 27.884 120.294 27.884H118.206V31.004ZM127.595 34.088C128.243 34.088 128.999 33.8 129.371 33.416L130.115 34.184C129.563 34.772 128.483 35.144 127.607 35.144C125.879 35.144 124.415 33.788 124.415 31.88C124.415 30.02 125.795 28.652 127.511 28.652C129.407 28.652 130.499 30.092 130.499 32.312H125.615C125.771 33.344 126.527 34.088 127.595 34.088ZM127.559 29.708C126.599 29.708 125.819 30.356 125.627 31.364H129.347C129.215 30.404 128.627 29.708 127.559 29.708ZM133.124 29.984C133.52 29.168 134.36 28.652 135.428 28.652V29.684C134.144 29.684 133.232 30.392 133.124 31.472V35H131.936V28.796H133.124V29.984ZM138.219 28.112V28.796H139.683V29.804H138.219V35H137.055V29.804H136.119V28.796H137.055V28.052C137.055 27.056 137.727 26.36 138.687 26.36C139.131 26.36 139.587 26.528 139.923 26.804L139.491 27.596C139.359 27.464 139.119 27.368 138.855 27.368C138.507 27.368 138.219 27.68 138.219 28.112ZM143.851 35.144C142.075 35.144 140.575 33.656 140.575 31.892C140.575 30.128 142.075 28.652 143.851 28.652C145.615 28.652 147.103 30.128 147.103 31.892C147.103 33.656 145.615 35.144 143.851 35.144ZM143.851 34.112C144.967 34.112 145.915 33.104 145.915 31.892C145.915 30.692 144.967 29.684 143.851 29.684C142.711 29.684 141.763 30.692 141.763 31.892C141.763 33.104 142.711 34.112 143.851 34.112ZM149.741 29.984C150.137 29.168 150.977 28.652 152.045 28.652V29.684C150.761 29.684 149.849 30.392 149.741 31.472V35H148.553V28.796H149.741V29.984ZM160.14 28.652C161.436 28.652 162.372 29.648 162.372 31.052V35H161.208V31.232C161.208 30.32 160.668 29.684 159.888 29.684C159 29.684 158.376 30.272 158.376 31.124V35H157.212V31.232C157.212 30.32 156.672 29.684 155.892 29.684C155.004 29.684 154.38 30.272 154.38 31.124V35H153.192V28.796H154.38V29.66C154.692 29.048 155.34 28.652 156.132 28.652C157.032 28.652 157.764 29.132 158.124 29.9C158.412 29.132 159.204 28.652 160.14 28.652ZM164.667 27.764C164.259 27.764 163.947 27.428 163.947 27.044C163.947 26.672 164.259 26.336 164.667 26.336C165.051 26.336 165.375 26.672 165.375 27.044C165.375 27.428 165.051 27.764 164.667 27.764ZM164.067 35V28.796H165.255V35H164.067ZM170.129 28.652C171.497 28.652 172.457 29.648 172.457 31.052V35H171.293V31.256C171.293 30.332 170.705 29.684 169.865 29.684C169.001 29.684 168.257 30.248 168.161 30.98V35H166.973V28.796H168.161V29.696C168.533 29.084 169.289 28.652 170.129 28.652ZM178.873 28.796H180.061V34.34C180.061 35.936 178.753 37.064 176.917 37.064C175.873 37.064 174.913 36.716 174.325 36.236L174.793 35.348C175.249 35.78 175.993 36.032 176.737 36.032C178.069 36.032 178.873 35.396 178.873 34.316V33.416C178.381 34.124 177.613 34.544 176.677 34.544C175.045 34.544 173.857 33.32 173.857 31.592C173.857 29.864 175.045 28.652 176.677 28.652C177.613 28.652 178.405 29.096 178.873 29.792V28.796ZM176.977 33.512C178.081 33.512 178.873 32.72 178.873 31.592C178.873 30.476 178.081 29.684 176.977 29.684C175.873 29.684 175.093 30.476 175.093 31.592C175.093 32.72 175.873 33.512 176.977 33.512ZM187.594 35V27.884H184.894V26.756H191.518V27.884H188.806V35H187.594ZM195.464 28.652C197.132 28.652 198.056 29.708 198.056 31.244V35H196.892V34.148C196.436 34.796 195.584 35.144 194.828 35.144C193.508 35.144 192.536 34.376 192.536 33.164C192.536 31.928 193.652 31.1 195.02 31.1C195.632 31.1 196.292 31.232 196.892 31.436V31.244C196.892 30.464 196.532 29.636 195.296 29.636C194.684 29.636 194.084 29.876 193.544 30.152L193.112 29.276C194 28.832 194.78 28.652 195.464 28.652ZM195.056 34.208C195.824 34.208 196.688 33.824 196.892 33.056V32.228C196.388 32.072 195.812 31.988 195.2 31.988C194.372 31.988 193.676 32.456 193.676 33.128C193.676 33.8 194.276 34.208 195.056 34.208ZM202.018 35.144C201.106 35.144 200.11 34.82 199.366 34.22L199.93 33.368C200.59 33.848 201.298 34.124 202.03 34.124C202.726 34.124 203.206 33.8 203.206 33.32C203.206 32.744 202.57 32.564 201.802 32.348C200.374 31.952 199.666 31.544 199.666 30.536C199.654 29.396 200.602 28.652 201.922 28.652C202.726 28.652 203.542 28.928 204.214 29.372L203.686 30.248C203.086 29.876 202.462 29.672 201.922 29.672C201.31 29.672 200.83 29.936 200.83 30.404C200.83 30.884 201.214 31.028 202.258 31.352C203.278 31.652 204.37 31.988 204.37 33.224C204.37 34.4 203.374 35.144 202.018 35.144ZM211.391 28.796L208.715 31.604L211.271 35H209.855L207.911 32.396L206.915 33.404V35H205.739V26.612H206.915V31.964L209.951 28.796H211.391ZM214.616 35.144C213.704 35.144 212.708 34.82 211.964 34.22L212.528 33.368C213.188 33.848 213.896 34.124 214.628 34.124C215.324 34.124 215.804 33.8 215.804 33.32C215.804 32.744 215.168 32.564 214.4 32.348C212.972 31.952 212.264 31.544 212.264 30.536C212.252 29.396 213.2 28.652 214.52 28.652C215.324 28.652 216.14 28.928 216.812 29.372L216.284 30.248C215.684 29.876 215.06 29.672 214.52 29.672C213.908 29.672 213.428 29.936 213.428 30.404C213.428 30.884 213.812 31.028 214.856 31.352C215.876 31.652 216.968 31.988 216.968 33.224C216.968 34.4 215.972 35.144 214.616 35.144ZM224.386 28.652C226.054 28.652 226.978 29.708 226.978 31.244V35H225.814V34.148C225.358 34.796 224.506 35.144 223.75 35.144C222.43 35.144 221.458 34.376 221.458 33.164C221.458 31.928 222.574 31.1 223.942 31.1C224.554 31.1 225.214 31.232 225.814 31.436V31.244C225.814 30.464 225.454 29.636 224.218 29.636C223.606 29.636 223.006 29.876 222.466 30.152L222.034 29.276C222.922 28.832 223.702 28.652 224.386 28.652ZM223.978 34.208C224.746 34.208 225.61 33.824 225.814 33.056V32.228C225.31 32.072 224.734 31.988 224.122 31.988C223.294 31.988 222.598 32.456 222.598 33.128C222.598 33.8 223.198 34.208 223.978 34.208ZM231.852 28.652C233.22 28.652 234.18 29.648 234.18 31.052V35H233.016V31.256C233.016 30.332 232.428 29.684 231.588 29.684C230.724 29.684 229.98 30.248 229.884 30.98V35H228.696V28.796H229.884V29.696C230.256 29.084 231.012 28.652 231.852 28.652ZM240.656 26.612H241.832V35H240.656V33.92C240.176 34.688 239.408 35.144 238.448 35.144C236.816 35.144 235.592 33.8 235.592 31.892C235.592 29.996 236.816 28.652 238.448 28.652C239.408 28.652 240.176 29.108 240.656 29.864V26.612ZM238.736 34.112C239.852 34.112 240.656 33.188 240.656 31.892C240.656 30.596 239.852 29.684 238.736 29.684C237.596 29.684 236.792 30.596 236.792 31.892C236.792 33.188 237.596 34.112 238.736 34.112ZM253.144 27.884H248.308V30.236H252.676V31.364H248.308V33.872H253.144V35H247.084V26.756H253.144V27.884ZM257.234 28.652C258.902 28.652 259.826 29.708 259.826 31.244V35H258.662V34.148C258.206 34.796 257.354 35.144 256.598 35.144C255.278 35.144 254.306 34.376 254.306 33.164C254.306 31.928 255.422 31.1 256.79 31.1C257.402 31.1 258.062 31.232 258.662 31.436V31.244C258.662 30.464 258.302 29.636 257.066 29.636C256.454 29.636 255.854 29.876 255.314 30.152L254.882 29.276C255.77 28.832 256.55 28.652 257.234 28.652ZM256.826 34.208C257.594 34.208 258.458 33.824 258.662 33.056V32.228C258.158 32.072 257.582 31.988 256.97 31.988C256.142 31.988 255.446 32.456 255.446 33.128C255.446 33.8 256.046 34.208 256.826 34.208ZM262.792 29.984C263.188 29.168 264.028 28.652 265.096 28.652V29.684C263.812 29.684 262.9 30.392 262.792 31.472V35H261.604V28.796H262.792V29.984ZM269.411 28.652C270.779 28.652 271.739 29.648 271.739 31.052V35H270.575V31.256C270.575 30.332 269.987 29.684 269.147 29.684C268.283 29.684 267.539 30.248 267.443 30.98V35H266.255V28.796H267.443V29.696C267.815 29.084 268.571 28.652 269.411 28.652Z" fill="white"/>
<path d="M38.9645 60V48.321H43.0785C46.9375 48.321 49.6575 50.735 49.6575 54.152C49.6575 57.569 46.9375 60 43.0785 60H38.9645ZM41.0895 58.079H43.2995C45.7645 58.079 47.4985 56.447 47.4985 54.152C47.4985 51.857 45.7645 50.242 43.2995 50.242H41.0895V58.079ZM52.7301 49.885C52.0671 49.885 51.5401 49.324 51.5401 48.695C51.5401 48.066 52.0671 47.522 52.7301 47.522C53.3761 47.522 53.9031 48.066 53.9031 48.695C53.9031 49.324 53.3761 49.885 52.7301 49.885ZM51.6761 60V51.211H53.7501V60H51.6761ZM58.9833 60L55.2093 51.211H57.4023L59.9523 57.603L62.4513 51.211H64.6613L60.9383 60H58.9833ZM69.6354 58.368C70.4514 58.368 71.4204 57.994 71.9134 57.484L73.2224 58.844C72.4574 59.66 70.9274 60.204 69.6524 60.204C67.1364 60.204 65.0624 58.283 65.0624 55.58C65.0624 52.945 67.0344 51.007 69.5334 51.007C72.2534 51.007 73.8344 53.064 73.8344 56.311H67.2044C67.4594 57.518 68.3774 58.368 69.6354 58.368ZM69.6184 52.843C68.4624 52.843 67.5274 53.574 67.2214 54.73H71.8454C71.6074 53.625 70.8594 52.843 69.6184 52.843ZM81.5006 49.885C80.8376 49.885 80.3106 49.324 80.3106 48.695C80.3106 48.066 80.8376 47.522 81.5006 47.522C82.1466 47.522 82.6736 48.066 82.6736 48.695C82.6736 49.324 82.1466 49.885 81.5006 49.885ZM80.4466 60V51.211H82.5206V60H80.4466ZM89.6068 51.007C91.5278 51.007 92.8708 52.418 92.8708 54.407V60H90.8648V54.815C90.8648 53.625 90.0998 52.775 89.0118 52.775C87.9238 52.775 87.0228 53.506 86.8868 54.441V60H84.8128V51.211H86.8868V52.384C87.4308 51.568 88.4508 51.007 89.6068 51.007ZM99.5084 58.113L100.103 59.507C99.6104 59.932 98.8964 60.204 98.2334 60.204C96.7714 60.204 95.7514 59.15 95.7514 57.671V52.928H94.4764V51.211H95.7514V48.797H97.7744V51.211H99.7634V52.928H97.7744V57.416C97.7744 58.011 98.1484 58.436 98.6414 58.436C98.9984 58.436 99.3214 58.3 99.5084 58.113ZM105.963 60.204C103.413 60.204 101.254 58.096 101.254 55.597C101.254 53.098 103.413 51.007 105.963 51.007C108.513 51.007 110.672 53.098 110.672 55.597C110.672 58.096 108.513 60.204 105.963 60.204ZM105.963 58.436C107.408 58.436 108.632 57.144 108.632 55.597C108.632 54.067 107.408 52.775 105.963 52.775C104.501 52.775 103.277 54.067 103.277 55.597C103.277 57.144 104.501 58.436 105.963 58.436ZM121.535 60.204C118.985 60.204 116.826 58.096 116.826 55.597C116.826 53.098 118.985 51.007 121.535 51.007C124.085 51.007 126.244 53.098 126.244 55.597C126.244 58.096 124.085 60.204 121.535 60.204ZM121.535 58.436C122.98 58.436 124.204 57.144 124.204 55.597C124.204 54.067 122.98 52.775 121.535 52.775C120.073 52.775 118.849 54.067 118.849 55.597C118.849 57.144 120.073 58.436 121.535 58.436ZM133.228 51.007C135.557 51.007 137.257 52.911 137.257 55.597C137.257 58.3 135.557 60.204 133.228 60.204C131.919 60.204 130.865 59.609 130.168 58.606V62.924H128.094V51.211H130.168V52.605C130.865 51.602 131.919 51.007 133.228 51.007ZM132.667 58.436C134.146 58.436 135.2 57.246 135.2 55.597C135.2 53.948 134.146 52.775 132.667 52.775C131.205 52.775 130.185 53.948 130.185 55.597C130.185 57.246 131.205 58.436 132.667 58.436ZM144.318 51.007C146.647 51.007 148.347 52.911 148.347 55.597C148.347 58.3 146.647 60.204 144.318 60.204C143.009 60.204 141.955 59.609 141.258 58.606V62.924H139.184V51.211H141.258V52.605C141.955 51.602 143.009 51.007 144.318 51.007ZM143.757 58.436C145.236 58.436 146.29 57.246 146.29 55.597C146.29 53.948 145.236 52.775 143.757 52.775C142.295 52.775 141.275 53.948 141.275 55.597C141.275 57.246 142.295 58.436 143.757 58.436ZM154.473 60.204C151.923 60.204 149.764 58.096 149.764 55.597C149.764 53.098 151.923 51.007 154.473 51.007C157.023 51.007 159.182 53.098 159.182 55.597C159.182 58.096 157.023 60.204 154.473 60.204ZM154.473 58.436C155.918 58.436 157.142 57.144 157.142 55.597C157.142 54.067 155.918 52.775 154.473 52.775C153.011 52.775 151.787 54.067 151.787 55.597C151.787 57.144 153.011 58.436 154.473 58.436ZM163.106 52.911C163.667 51.738 164.806 51.007 166.251 51.007V52.775C164.364 52.775 163.106 53.897 163.106 55.563V60H161.032V51.211H163.106V52.911ZM172.173 58.113L172.768 59.507C172.275 59.932 171.561 60.204 170.898 60.204C169.436 60.204 168.416 59.15 168.416 57.671V52.928H167.141V51.211H168.416V48.797H170.439V51.211H172.428V52.928H170.439V57.416C170.439 58.011 170.813 58.436 171.306 58.436C171.663 58.436 171.986 58.3 172.173 58.113ZM180.328 51.211H182.402V60H180.328V58.827C179.784 59.643 178.764 60.204 177.608 60.204C175.687 60.204 174.344 58.793 174.344 56.804V51.211H176.35V56.396C176.35 57.586 177.115 58.436 178.203 58.436C179.291 58.436 180.192 57.705 180.328 56.77V51.211ZM189.482 51.007C191.403 51.007 192.746 52.418 192.746 54.407V60H190.74V54.815C190.74 53.625 189.975 52.775 188.887 52.775C187.799 52.775 186.898 53.506 186.762 54.441V60H184.688V51.211H186.762V52.384C187.306 51.568 188.326 51.007 189.482 51.007ZM196.051 49.885C195.388 49.885 194.861 49.324 194.861 48.695C194.861 48.066 195.388 47.522 196.051 47.522C196.697 47.522 197.224 48.066 197.224 48.695C197.224 49.324 196.697 49.885 196.051 49.885ZM194.997 60V51.211H197.071V60H194.997ZM203.75 58.113L204.345 59.507C203.852 59.932 203.138 60.204 202.475 60.204C201.013 60.204 199.993 59.15 199.993 57.671V52.928H198.718V51.211H199.993V48.797H202.016V51.211H204.005V52.928H202.016V57.416C202.016 58.011 202.39 58.436 202.883 58.436C203.24 58.436 203.563 58.3 203.75 58.113ZM207.008 49.885C206.345 49.885 205.818 49.324 205.818 48.695C205.818 48.066 206.345 47.522 207.008 47.522C207.654 47.522 208.181 48.066 208.181 48.695C208.181 49.324 207.654 49.885 207.008 49.885ZM205.954 60V51.211H208.028V60H205.954ZM214.418 58.368C215.234 58.368 216.203 57.994 216.696 57.484L218.005 58.844C217.24 59.66 215.71 60.204 214.435 60.204C211.919 60.204 209.845 58.283 209.845 55.58C209.845 52.945 211.817 51.007 214.316 51.007C217.036 51.007 218.617 53.064 218.617 56.311H211.987C212.242 57.518 213.16 58.368 214.418 58.368ZM214.401 52.843C213.245 52.843 212.31 53.574 212.004 54.73H216.628C216.39 53.625 215.642 52.843 214.401 52.843ZM223.661 60.204C222.318 60.204 220.873 59.728 219.819 58.878L220.754 57.433C221.604 58.045 222.59 58.453 223.695 58.453C224.528 58.453 225.106 58.096 225.106 57.552C225.106 56.872 224.341 56.651 223.338 56.379C221.434 55.886 220.227 55.342 220.21 53.778C220.21 52.129 221.57 51.007 223.525 51.007C224.732 51.007 225.939 51.432 226.891 52.061L226.024 53.574C225.191 53.047 224.29 52.775 223.525 52.775C222.794 52.775 222.233 53.064 222.233 53.557C222.233 54.118 222.692 54.288 224.035 54.679C225.514 55.087 227.112 55.597 227.112 57.433C227.112 59.116 225.718 60.204 223.661 60.204ZM228.608 56.226V54.441H241.868V56.226H228.608ZM248.072 60.204C245.539 60.204 243.38 58.096 243.38 55.597C243.38 53.098 245.539 51.007 248.106 51.007C249.432 51.007 250.605 51.568 251.438 52.435L250.044 53.659C249.568 53.132 248.837 52.775 248.089 52.775C246.644 52.775 245.437 54.067 245.437 55.597C245.437 57.144 246.644 58.436 248.089 58.436C248.854 58.436 249.602 58.079 250.095 57.518L251.489 58.725C250.639 59.626 249.466 60.204 248.072 60.204ZM257.187 60.204C254.637 60.204 252.478 58.096 252.478 55.597C252.478 53.098 254.637 51.007 257.187 51.007C259.737 51.007 261.896 53.098 261.896 55.597C261.896 58.096 259.737 60.204 257.187 60.204ZM257.187 58.436C258.632 58.436 259.856 57.144 259.856 55.597C259.856 54.067 258.632 52.775 257.187 52.775C255.725 52.775 254.501 54.067 254.501 55.597C254.501 57.144 255.725 58.436 257.187 58.436ZM273.844 51.007C275.68 51.007 277.057 52.418 277.057 54.407V60H275.034V54.747C275.034 53.591 274.337 52.775 273.334 52.775C272.195 52.775 271.413 53.54 271.413 54.611V60H269.39V54.747C269.39 53.591 268.693 52.775 267.673 52.775C266.551 52.775 265.752 53.54 265.752 54.611V60H263.678V51.211H265.752V52.401C266.194 51.551 267.095 51.007 268.2 51.007C269.441 51.007 270.461 51.636 271.005 52.673C271.43 51.653 272.535 51.007 273.844 51.007ZM284.485 51.007C286.814 51.007 288.514 52.911 288.514 55.597C288.514 58.3 286.814 60.204 284.485 60.204C283.176 60.204 282.122 59.609 281.425 58.606V62.924H279.351V51.211H281.425V52.605C282.122 51.602 283.176 51.007 284.485 51.007ZM283.924 58.436C285.403 58.436 286.457 57.246 286.457 55.597C286.457 53.948 285.403 52.775 283.924 52.775C282.462 52.775 281.442 53.948 281.442 55.597C281.442 57.246 282.462 58.436 283.924 58.436ZM290.39 60V48.117H292.464V60H290.39ZM298.853 58.368C299.669 58.368 300.638 57.994 301.131 57.484L302.44 58.844C301.675 59.66 300.145 60.204 298.87 60.204C296.354 60.204 294.28 58.283 294.28 55.58C294.28 52.945 296.252 51.007 298.751 51.007C301.471 51.007 303.052 53.064 303.052 56.311H296.422C296.677 57.518 297.595 58.368 298.853 58.368ZM298.836 52.843C297.68 52.843 296.745 53.574 296.439 54.73H301.063C300.825 53.625 300.077 52.843 298.836 52.843ZM309.236 58.113L309.831 59.507C309.338 59.932 308.624 60.204 307.961 60.204C306.499 60.204 305.479 59.15 305.479 57.671V52.928H304.204V51.211H305.479V48.797H307.502V51.211H309.491V52.928H307.502V57.416C307.502 58.011 307.876 58.436 308.369 58.436C308.726 58.436 309.049 58.3 309.236 58.113ZM315.538 58.368C316.354 58.368 317.323 57.994 317.816 57.484L319.125 58.844C318.36 59.66 316.83 60.204 315.555 60.204C313.039 60.204 310.965 58.283 310.965 55.58C310.965 52.945 312.937 51.007 315.436 51.007C318.156 51.007 319.737 53.064 319.737 56.311H313.107C313.362 57.518 314.28 58.368 315.538 58.368ZM315.521 52.843C314.365 52.843 313.43 53.574 313.124 54.73H317.748C317.51 53.625 316.762 52.843 315.521 52.843ZM53.4059 78.113L54.0009 79.507C53.5079 79.932 52.7939 80.204 52.1309 80.204C50.6689 80.204 49.6489 79.15 49.6489 77.671V72.928H48.3739V71.211H49.6489V68.797H51.6719V71.211H53.6609V72.928H51.6719V77.416C51.6719 78.011 52.0459 78.436 52.5389 78.436C52.8959 78.436 53.2189 78.3 53.4059 78.113ZM59.4357 71.007C61.7647 71.007 63.2097 72.486 63.2097 74.713V80H61.1867V78.946C60.5407 79.762 59.4357 80.204 58.4157 80.204C56.5457 80.204 55.1347 79.099 55.1347 77.399C55.1347 75.665 56.7497 74.475 58.7217 74.475C59.5207 74.475 60.3877 74.645 61.1867 74.951V74.713C61.1867 73.693 60.6257 72.707 59.0277 72.707C58.1947 72.707 57.3957 72.996 56.6477 73.37L55.9337 71.925C57.1747 71.313 58.3307 71.007 59.4357 71.007ZM58.8747 78.691C59.8777 78.691 60.9487 78.181 61.1867 77.246V76.26C60.5407 76.039 59.8097 75.92 59.0277 75.92C57.9907 75.92 57.1577 76.498 57.1577 77.331C57.1577 78.164 57.8887 78.691 58.8747 78.691ZM68.7024 80.204C67.3594 80.204 65.9144 79.728 64.8604 78.878L65.7954 77.433C66.6454 78.045 67.6314 78.453 68.7364 78.453C69.5694 78.453 70.1474 78.096 70.1474 77.552C70.1474 76.872 69.3824 76.651 68.3794 76.379C66.4754 75.886 65.2684 75.342 65.2514 73.778C65.2514 72.129 66.6114 71.007 68.5664 71.007C69.7734 71.007 70.9804 71.432 71.9324 72.061L71.0654 73.574C70.2324 73.047 69.3314 72.775 68.5664 72.775C67.8354 72.775 67.2744 73.064 67.2744 73.557C67.2744 74.118 67.7334 74.288 69.0764 74.679C70.5554 75.087 72.1534 75.597 72.1534 77.433C72.1534 79.116 70.7594 80.204 68.7024 80.204ZM82.2514 71.211L78.6304 75.138L82.1324 80H79.7184L77.2364 76.498L75.9954 77.807V80H73.9214V68.117H75.9954V75.376L79.8034 71.211H82.2514ZM86.7483 80.204C85.4053 80.204 83.9603 79.728 82.9063 78.878L83.8413 77.433C84.6913 78.045 85.6773 78.453 86.7823 78.453C87.6153 78.453 88.1933 78.096 88.1933 77.552C88.1933 76.872 87.4283 76.651 86.4253 76.379C84.5213 75.886 83.3143 75.342 83.2973 73.778C83.2973 72.129 84.6573 71.007 86.6123 71.007C87.8193 71.007 89.0263 71.432 89.9783 72.061L89.1113 73.574C88.2783 73.047 87.3773 72.775 86.6123 72.775C85.8813 72.775 85.3203 73.064 85.3203 73.557C85.3203 74.118 85.7793 74.288 87.1223 74.679C88.6013 75.087 90.1993 75.597 90.1993 77.433C90.1993 79.116 88.8053 80.204 86.7483 80.204ZM93.0553 82.414L92.2393 81.802C92.7493 81.292 93.0893 80.748 93.2253 80.204C92.5113 80.204 91.9333 79.592 91.9333 78.861C91.9333 78.147 92.5283 77.535 93.2593 77.535C94.1263 77.535 94.6873 78.317 94.6873 79.388C94.6873 80.306 94.1943 81.19 93.0553 82.414ZM104.877 80.204C103.534 80.204 102.089 79.728 101.035 78.878L101.97 77.433C102.82 78.045 103.806 78.453 104.911 78.453C105.744 78.453 106.322 78.096 106.322 77.552C106.322 76.872 105.557 76.651 104.554 76.379C102.65 75.886 101.443 75.342 101.426 73.778C101.426 72.129 102.786 71.007 104.741 71.007C105.948 71.007 107.155 71.432 108.107 72.061L107.24 73.574C106.407 73.047 105.506 72.775 104.741 72.775C104.01 72.775 103.449 73.064 103.449 73.557C103.449 74.118 103.908 74.288 105.251 74.679C106.73 75.087 108.328 75.597 108.328 77.433C108.328 79.116 106.934 80.204 104.877 80.204ZM114.924 71.007C116.845 71.007 118.188 72.418 118.188 74.407V80H116.182V74.815C116.182 73.625 115.417 72.775 114.329 72.775C113.156 72.775 112.187 73.625 112.187 74.679V80H110.113V68.117H112.187V72.418C112.714 71.568 113.751 71.007 114.924 71.007ZM124.69 80.204C122.14 80.204 119.981 78.096 119.981 75.597C119.981 73.098 122.14 71.007 124.69 71.007C127.24 71.007 129.399 73.098 129.399 75.597C129.399 78.096 127.24 80.204 124.69 80.204ZM124.69 78.436C126.135 78.436 127.359 77.144 127.359 75.597C127.359 74.067 126.135 72.775 124.69 72.775C123.228 72.775 122.004 74.067 122.004 75.597C122.004 77.144 123.228 78.436 124.69 78.436ZM133.043 80L130.068 71.211H132.142L133.978 77.212L135.933 71.211H137.667L139.639 77.212L141.458 71.211H143.532L140.574 80H138.687L136.8 73.982L134.93 80H133.043ZM149.293 80.204C146.76 80.204 144.601 78.096 144.601 75.597C144.601 73.098 146.76 71.007 149.327 71.007C150.653 71.007 151.826 71.568 152.659 72.435L151.265 73.659C150.789 73.132 150.058 72.775 149.31 72.775C147.865 72.775 146.658 74.067 146.658 75.597C146.658 77.144 147.865 78.436 149.31 78.436C150.075 78.436 150.823 78.079 151.316 77.518L152.71 78.725C151.86 79.626 150.687 80.204 149.293 80.204ZM158.165 71.007C160.494 71.007 161.939 72.486 161.939 74.713V80H159.916V78.946C159.27 79.762 158.165 80.204 157.145 80.204C155.275 80.204 153.864 79.099 153.864 77.399C153.864 75.665 155.479 74.475 157.451 74.475C158.25 74.475 159.117 74.645 159.916 74.951V74.713C159.916 73.693 159.355 72.707 157.757 72.707C156.924 72.707 156.125 72.996 155.377 73.37L154.663 71.925C155.904 71.313 157.06 71.007 158.165 71.007ZM157.604 78.691C158.607 78.691 159.678 78.181 159.916 77.246V76.26C159.27 76.039 158.539 75.92 157.757 75.92C156.72 75.92 155.887 76.498 155.887 77.331C155.887 78.164 156.618 78.691 157.604 78.691ZM167.432 80.204C166.089 80.204 164.644 79.728 163.59 78.878L164.525 77.433C165.375 78.045 166.361 78.453 167.466 78.453C168.299 78.453 168.877 78.096 168.877 77.552C168.877 76.872 168.112 76.651 167.109 76.379C165.205 75.886 163.998 75.342 163.981 73.778C163.981 72.129 165.341 71.007 167.296 71.007C168.503 71.007 169.71 71.432 170.662 72.061L169.795 73.574C168.962 73.047 168.061 72.775 167.296 72.775C166.565 72.775 166.004 73.064 166.004 73.557C166.004 74.118 166.463 74.288 167.806 74.679C169.285 75.087 170.883 75.597 170.883 77.433C170.883 79.116 169.489 80.204 167.432 80.204ZM176.782 78.368C177.598 78.368 178.567 77.994 179.06 77.484L180.369 78.844C179.604 79.66 178.074 80.204 176.799 80.204C174.283 80.204 172.209 78.283 172.209 75.58C172.209 72.945 174.181 71.007 176.68 71.007C179.4 71.007 180.981 73.064 180.981 76.311H174.351C174.606 77.518 175.524 78.368 176.782 78.368ZM176.765 72.843C175.609 72.843 174.674 73.574 174.368 74.73H178.992C178.754 73.625 178.006 72.843 176.765 72.843ZM190.84 80.204C189.497 80.204 188.052 79.728 186.998 78.878L187.933 77.433C188.783 78.045 189.769 78.453 190.874 78.453C191.707 78.453 192.285 78.096 192.285 77.552C192.285 76.872 191.52 76.651 190.517 76.379C188.613 75.886 187.406 75.342 187.389 73.778C187.389 72.129 188.749 71.007 190.704 71.007C191.911 71.007 193.118 71.432 194.07 72.061L193.203 73.574C192.37 73.047 191.469 72.775 190.704 72.775C189.973 72.775 189.412 73.064 189.412 73.557C189.412 74.118 189.871 74.288 191.214 74.679C192.693 75.087 194.291 75.597 194.291 77.433C194.291 79.116 192.897 80.204 190.84 80.204ZM204.389 71.211L200.768 75.138L204.27 80H201.856L199.374 76.498L198.133 77.807V80H196.059V68.117H198.133V75.376L201.941 71.211H204.389ZM206.693 69.885C206.03 69.885 205.503 69.324 205.503 68.695C205.503 68.066 206.03 67.522 206.693 67.522C207.339 67.522 207.866 68.066 207.866 68.695C207.866 69.324 207.339 69.885 206.693 69.885ZM205.639 80V71.211H207.713V80H205.639ZM210.005 80V68.117H212.079V80H210.005ZM214.371 80V68.117H216.445V80H214.371ZM221.985 80.204C220.642 80.204 219.197 79.728 218.143 78.878L219.078 77.433C219.928 78.045 220.914 78.453 222.019 78.453C222.852 78.453 223.43 78.096 223.43 77.552C223.43 76.872 222.665 76.651 221.662 76.379C219.758 75.886 218.551 75.342 218.534 73.778C218.534 72.129 219.894 71.007 221.849 71.007C223.056 71.007 224.263 71.432 225.215 72.061L224.348 73.574C223.515 73.047 222.614 72.775 221.849 72.775C221.118 72.775 220.557 73.064 220.557 73.557C220.557 74.118 221.016 74.288 222.359 74.679C223.838 75.087 225.436 75.597 225.436 77.433C225.436 79.116 224.042 80.204 221.985 80.204ZM228.292 82.414L227.476 81.802C227.986 81.292 228.326 80.748 228.462 80.204C227.748 80.204 227.17 79.592 227.17 78.861C227.17 78.147 227.765 77.535 228.496 77.535C229.363 77.535 229.924 78.317 229.924 79.388C229.924 80.306 229.431 81.19 228.292 82.414ZM240.692 71.007C243.021 71.007 244.466 72.486 244.466 74.713V80H242.443V78.946C241.797 79.762 240.692 80.204 239.672 80.204C237.802 80.204 236.391 79.099 236.391 77.399C236.391 75.665 238.006 74.475 239.978 74.475C240.777 74.475 241.644 74.645 242.443 74.951V74.713C242.443 73.693 241.882 72.707 240.284 72.707C239.451 72.707 238.652 72.996 237.904 73.37L237.19 71.925C238.431 71.313 239.587 71.007 240.692 71.007ZM240.131 78.691C241.134 78.691 242.205 78.181 242.443 77.246V76.26C241.797 76.039 241.066 75.92 240.284 75.92C239.247 75.92 238.414 76.498 238.414 77.331C238.414 78.164 239.145 78.691 240.131 78.691ZM251.505 71.007C253.426 71.007 254.769 72.418 254.769 74.407V80H252.763V74.815C252.763 73.625 251.998 72.775 250.91 72.775C249.822 72.775 248.921 73.506 248.785 74.441V80H246.711V71.211H248.785V72.384C249.329 71.568 250.349 71.007 251.505 71.007ZM263.702 68.117H265.776V80H263.702V78.64C263.005 79.626 261.951 80.204 260.659 80.204C258.33 80.204 256.63 78.3 256.63 75.597C256.63 72.911 258.33 71.007 260.659 71.007C261.951 71.007 263.005 71.585 263.702 72.571V68.117ZM261.22 78.436C262.682 78.436 263.702 77.246 263.702 75.597C263.702 73.948 262.682 72.775 261.22 72.775C259.741 72.775 258.687 73.948 258.687 75.597C258.687 77.246 259.741 78.436 261.22 78.436ZM276.172 80.204C274.829 80.204 273.384 79.728 272.33 78.878L273.265 77.433C274.115 78.045 275.101 78.453 276.206 78.453C277.039 78.453 277.617 78.096 277.617 77.552C277.617 76.872 276.852 76.651 275.849 76.379C273.945 75.886 272.738 75.342 272.721 73.778C272.721 72.129 274.081 71.007 276.036 71.007C277.243 71.007 278.45 71.432 279.402 72.061L278.535 73.574C277.702 73.047 276.801 72.775 276.036 72.775C275.305 72.775 274.744 73.064 274.744 73.557C274.744 74.118 275.203 74.288 276.546 74.679C278.025 75.087 279.623 75.597 279.623 77.433C279.623 79.116 278.229 80.204 276.172 80.204ZM285.811 78.113L286.406 79.507C285.913 79.932 285.199 80.204 284.536 80.204C283.074 80.204 282.054 79.15 282.054 77.671V72.928H280.779V71.211H282.054V68.797H284.077V71.211H286.066V72.928H284.077V77.416C284.077 78.011 284.451 78.436 284.944 78.436C285.301 78.436 285.624 78.3 285.811 78.113ZM291.841 71.007C294.17 71.007 295.615 72.486 295.615 74.713V80H293.592V78.946C292.946 79.762 291.841 80.204 290.821 80.204C288.951 80.204 287.54 79.099 287.54 77.399C287.54 75.665 289.155 74.475 291.127 74.475C291.926 74.475 292.793 74.645 293.592 74.951V74.713C293.592 73.693 293.031 72.707 291.433 72.707C290.6 72.707 289.801 72.996 289.053 73.37L288.339 71.925C289.58 71.313 290.736 71.007 291.841 71.007ZM291.28 78.691C292.283 78.691 293.354 78.181 293.592 77.246V76.26C292.946 76.039 292.215 75.92 291.433 75.92C290.396 75.92 289.563 76.498 289.563 77.331C289.563 78.164 290.294 78.691 291.28 78.691ZM299.986 72.911C300.547 71.738 301.686 71.007 303.131 71.007V72.775C301.244 72.775 299.986 73.897 299.986 75.563V80H297.912V71.211H299.986V72.911ZM309.053 78.113L309.648 79.507C309.155 79.932 308.441 80.204 307.778 80.204C306.316 80.204 305.296 79.15 305.296 77.671V72.928H304.021V71.211H305.296V68.797H307.319V71.211H309.308V72.928H307.319V77.416C307.319 78.011 307.693 78.436 308.186 78.436C308.543 78.436 308.866 78.3 309.053 78.113ZM123.757 98.368C124.573 98.368 125.542 97.994 126.035 97.484L127.344 98.844C126.579 99.66 125.049 100.204 123.774 100.204C121.258 100.204 119.184 98.283 119.184 95.58C119.184 92.945 121.156 91.007 123.655 91.007C126.375 91.007 127.956 93.064 127.956 96.311H121.326C121.581 97.518 122.499 98.368 123.757 98.368ZM123.74 92.843C122.584 92.843 121.649 93.574 121.343 94.73H125.967C125.729 93.625 124.981 92.843 123.74 92.843ZM133.578 91.007C135.907 91.007 137.352 92.486 137.352 94.713V100H135.329V98.946C134.683 99.762 133.578 100.204 132.558 100.204C130.688 100.204 129.277 99.099 129.277 97.399C129.277 95.665 130.892 94.475 132.864 94.475C133.663 94.475 134.53 94.645 135.329 94.951V94.713C135.329 93.693 134.768 92.707 133.17 92.707C132.337 92.707 131.538 92.996 130.79 93.37L130.076 91.925C131.317 91.313 132.473 91.007 133.578 91.007ZM133.017 98.691C134.02 98.691 135.091 98.181 135.329 97.246V96.26C134.683 96.039 133.952 95.92 133.17 95.92C132.133 95.92 131.3 96.498 131.3 97.331C131.3 98.164 132.031 98.691 133.017 98.691ZM141.723 92.911C142.284 91.738 143.423 91.007 144.868 91.007V92.775C142.981 92.775 141.723 93.897 141.723 95.563V100H139.649V91.211H141.723V92.911ZM151.199 91.007C153.12 91.007 154.463 92.418 154.463 94.407V100H152.457V94.815C152.457 93.625 151.692 92.775 150.604 92.775C149.516 92.775 148.615 93.506 148.479 94.441V100H146.405V91.211H148.479V92.384C149.023 91.568 150.043 91.007 151.199 91.007ZM157.768 89.885C157.105 89.885 156.578 89.324 156.578 88.695C156.578 88.066 157.105 87.522 157.768 87.522C158.414 87.522 158.941 88.066 158.941 88.695C158.941 89.324 158.414 89.885 157.768 89.885ZM156.714 100V91.211H158.788V100H156.714ZM165.874 91.007C167.795 91.007 169.138 92.418 169.138 94.407V100H167.132V94.815C167.132 93.625 166.367 92.775 165.279 92.775C164.191 92.775 163.29 93.506 163.154 94.441V100H161.08V91.211H163.154V92.384C163.698 91.568 164.718 91.007 165.874 91.007ZM177.935 91.211H180.009V99.065C180.009 101.326 178.105 102.924 175.419 102.924C173.906 102.924 172.512 102.431 171.645 101.751L172.41 100.238C173.022 100.799 174.076 101.156 175.113 101.156C176.847 101.156 177.935 100.323 177.935 98.997V97.858C177.238 98.793 176.184 99.354 174.926 99.354C172.648 99.354 170.965 97.62 170.965 95.172C170.965 92.724 172.648 91.007 174.926 91.007C176.167 91.007 177.306 91.585 177.935 92.52V91.211ZM175.521 97.586C176.932 97.586 177.935 96.583 177.935 95.172C177.935 93.778 176.932 92.775 175.521 92.775C174.127 92.775 173.124 93.778 173.124 95.172C173.124 96.583 174.127 97.586 175.521 97.586ZM191.531 98.113L192.126 99.507C191.633 99.932 190.919 100.204 190.256 100.204C188.794 100.204 187.774 99.15 187.774 97.671V92.928H186.499V91.211H187.774V88.797H189.797V91.211H191.786V92.928H189.797V97.416C189.797 98.011 190.171 98.436 190.664 98.436C191.021 98.436 191.344 98.3 191.531 98.113ZM197.986 100.204C195.436 100.204 193.277 98.096 193.277 95.597C193.277 93.098 195.436 91.007 197.986 91.007C200.536 91.007 202.695 93.098 202.695 95.597C202.695 98.096 200.536 100.204 197.986 100.204ZM197.986 98.436C199.431 98.436 200.655 97.144 200.655 95.597C200.655 94.067 199.431 92.775 197.986 92.775C196.524 92.775 195.3 94.067 195.3 95.597C195.3 97.144 196.524 98.436 197.986 98.436ZM211.174 88.117H213.248V100H211.174V98.64C210.477 99.626 209.423 100.204 208.131 100.204C205.802 100.204 204.102 98.3 204.102 95.597C204.102 92.911 205.802 91.007 208.131 91.007C209.423 91.007 210.477 91.585 211.174 92.571V88.117ZM208.692 98.436C210.154 98.436 211.174 97.246 211.174 95.597C211.174 93.948 210.154 92.775 208.692 92.775C207.213 92.775 206.159 93.948 206.159 95.597C206.159 97.246 207.213 98.436 208.692 98.436ZM219.408 91.007C221.737 91.007 223.182 92.486 223.182 94.713V100H221.159V98.946C220.513 99.762 219.408 100.204 218.388 100.204C216.518 100.204 215.107 99.099 215.107 97.399C215.107 95.665 216.722 94.475 218.694 94.475C219.493 94.475 220.36 94.645 221.159 94.951V94.713C221.159 93.693 220.598 92.707 219 92.707C218.167 92.707 217.368 92.996 216.62 93.37L215.906 91.925C217.147 91.313 218.303 91.007 219.408 91.007ZM218.847 98.691C219.85 98.691 220.921 98.181 221.159 97.246V96.26C220.513 96.039 219.782 95.92 219 95.92C217.963 95.92 217.13 96.498 217.13 97.331C217.13 98.164 217.861 98.691 218.847 98.691ZM227.213 103.06C226.55 103.06 225.819 102.89 225.292 102.601L225.734 101.105C226.108 101.309 226.533 101.428 226.856 101.428C227.349 101.428 227.723 101.275 227.978 100.85L228.352 100.068L224.629 91.211H226.822L229.389 97.773L231.803 91.211H233.945L230.222 100.612C229.559 102.278 228.539 103.043 227.213 103.06ZM236.302 96.175L235.809 88.321H238.223L237.73 96.175H236.302ZM237.016 100.204C236.234 100.204 235.656 99.592 235.656 98.844C235.656 98.147 236.234 97.535 237.016 97.535C237.73 97.535 238.325 98.147 238.325 98.844C238.325 99.592 237.73 100.204 237.016 100.204Z" fill="white"/>
</g>
<defs>
<linearGradient id="paint0_linear_2097_9773" x1="-6" y1="-4.33333" x2="192.786" y2="251.682" gradientUnits="userSpaceOnUse">
<stop stop-color="#474747"/>
<stop offset="1"/>
</linearGradient>
<clipPath id="clip0_2097_9773">
<rect width="358" height="130" rx="20" fill="white"/>
</clipPath>
</defs>
</svg>
