<svg width="358" height="130" viewBox="0 0 358 130" fill="none" xmlns="http://www.w3.org/2000/svg">
<g clip-path="url(#clip0_2097_9763)">
<rect width="358" height="130" rx="20" fill="#BBFC4A"/>
<path d="M258.597 -19.4814C278.503 13.8092 331.103 65.1403 395.388 53.1881C486.559 36.2368 466.746 -36.4684 440.061 -56.7438C401.935 -85.7123 242.893 -68.2788 317.229 87.6758C395.387 251.648 599.728 173.646 629.168 140.797" stroke="white" stroke-width="4"/>
<path d="M116.584 45L113.872 36.756H115.216L117.244 43.044L119.308 36.756H120.652L122.716 43.044L124.744 36.756H126.088L123.376 45H122.164L119.992 38.436L117.796 45H116.584ZM129.524 44.088C130.172 44.088 130.928 43.8 131.3 43.416L132.044 44.184C131.492 44.772 130.412 45.144 129.536 45.144C127.808 45.144 126.344 43.788 126.344 41.88C126.344 40.02 127.724 38.652 129.44 38.652C131.336 38.652 132.428 40.092 132.428 42.312H127.544C127.7 43.344 128.456 44.088 129.524 44.088ZM129.488 39.708C128.528 39.708 127.748 40.356 127.556 41.364H131.276C131.144 40.404 130.556 39.708 129.488 39.708ZM133.805 45V36.612H134.981V45H133.805ZM139.64 45.144C137.876 45.144 136.376 43.656 136.376 41.892C136.376 40.128 137.876 38.652 139.652 38.652C140.54 38.652 141.344 39.024 141.932 39.612L141.128 40.356C140.756 39.936 140.216 39.684 139.64 39.684C138.512 39.684 137.576 40.692 137.576 41.892C137.576 43.104 138.512 44.112 139.652 44.112C140.228 44.112 140.78 43.848 141.164 43.416L141.968 44.148C141.368 44.76 140.564 45.144 139.64 45.144ZM146.05 45.144C144.274 45.144 142.774 43.656 142.774 41.892C142.774 40.128 144.274 38.652 146.05 38.652C147.814 38.652 149.302 40.128 149.302 41.892C149.302 43.656 147.814 45.144 146.05 45.144ZM146.05 44.112C147.166 44.112 148.114 43.104 148.114 41.892C148.114 40.692 147.166 39.684 146.05 39.684C144.91 39.684 143.962 40.692 143.962 41.892C143.962 43.104 144.91 44.112 146.05 44.112ZM157.628 38.652C158.924 38.652 159.86 39.648 159.86 41.052V45H158.696V41.232C158.696 40.32 158.156 39.684 157.376 39.684C156.488 39.684 155.864 40.272 155.864 41.124V45H154.7V41.232C154.7 40.32 154.16 39.684 153.38 39.684C152.492 39.684 151.868 40.272 151.868 41.124V45H150.68V38.796H151.868V39.66C152.18 39.048 152.828 38.652 153.62 38.652C154.52 38.652 155.252 39.132 155.612 39.9C155.9 39.132 156.692 38.652 157.628 38.652ZM164.411 44.088C165.059 44.088 165.815 43.8 166.187 43.416L166.931 44.184C166.379 44.772 165.299 45.144 164.423 45.144C162.695 45.144 161.231 43.788 161.231 41.88C161.231 40.02 162.611 38.652 164.327 38.652C166.223 38.652 167.315 40.092 167.315 42.312H162.431C162.587 43.344 163.343 44.088 164.411 44.088ZM164.375 39.708C163.415 39.708 162.635 40.356 162.443 41.364H166.163C166.031 40.404 165.443 39.708 164.375 39.708ZM175.03 43.884L175.462 44.7C175.126 44.976 174.67 45.144 174.226 45.144C173.266 45.144 172.594 44.448 172.594 43.452V39.804H171.658V38.796H172.594V37.092H173.758V38.796H175.222V39.804H173.758V43.368C173.758 43.8 174.046 44.112 174.394 44.112C174.658 44.112 174.898 44.016 175.03 43.884ZM179.613 45.144C177.837 45.144 176.337 43.656 176.337 41.892C176.337 40.128 177.837 38.652 179.613 38.652C181.377 38.652 182.865 40.128 182.865 41.892C182.865 43.656 181.377 45.144 179.613 45.144ZM179.613 44.112C180.729 44.112 181.677 43.104 181.677 41.892C181.677 40.692 180.729 39.684 179.613 39.684C178.473 39.684 177.525 40.692 177.525 41.892C177.525 43.104 178.473 44.112 179.613 44.112ZM190.532 44.088C191.18 44.088 191.936 43.8 192.308 43.416L193.052 44.184C192.5 44.772 191.42 45.144 190.544 45.144C188.816 45.144 187.352 43.788 187.352 41.88C187.352 40.02 188.732 38.652 190.448 38.652C192.344 38.652 193.436 40.092 193.436 42.312H188.552C188.708 43.344 189.464 44.088 190.532 44.088ZM190.496 39.708C189.536 39.708 188.756 40.356 188.564 41.364H192.284C192.152 40.404 191.564 39.708 190.496 39.708ZM194.609 45L194.597 44.052L199.361 37.884H194.693V36.756H201.029V37.704L196.265 43.872H201.077V45H194.609ZM208.333 45V37.884H205.633V36.756H212.257V37.884H209.545V45H208.333ZM216.202 38.652C217.87 38.652 218.794 39.708 218.794 41.244V45H217.63V44.148C217.174 44.796 216.322 45.144 215.566 45.144C214.246 45.144 213.274 44.376 213.274 43.164C213.274 41.928 214.39 41.1 215.758 41.1C216.37 41.1 217.03 41.232 217.63 41.436V41.244C217.63 40.464 217.27 39.636 216.034 39.636C215.422 39.636 214.822 39.876 214.282 40.152L213.85 39.276C214.738 38.832 215.518 38.652 216.202 38.652ZM215.794 44.208C216.562 44.208 217.426 43.824 217.63 43.056V42.228C217.126 42.072 216.55 41.988 215.938 41.988C215.11 41.988 214.414 42.456 214.414 43.128C214.414 43.8 215.014 44.208 215.794 44.208ZM222.756 45.144C221.844 45.144 220.848 44.82 220.104 44.22L220.668 43.368C221.328 43.848 222.036 44.124 222.768 44.124C223.464 44.124 223.944 43.8 223.944 43.32C223.944 42.744 223.308 42.564 222.54 42.348C221.112 41.952 220.404 41.544 220.404 40.536C220.392 39.396 221.34 38.652 222.66 38.652C223.464 38.652 224.28 38.928 224.952 39.372L224.424 40.248C223.824 39.876 223.2 39.672 222.66 39.672C222.048 39.672 221.568 39.936 221.568 40.404C221.568 40.884 221.952 41.028 222.996 41.352C224.016 41.652 225.108 41.988 225.108 43.224C225.108 44.4 224.112 45.144 222.756 45.144ZM232.129 38.796L229.453 41.604L232.009 45H230.593L228.649 42.396L227.653 43.404V45H226.477V36.612H227.653V41.964L230.689 38.796H232.129ZM235.954 44.088C236.602 44.088 237.358 43.8 237.73 43.416L238.474 44.184C237.922 44.772 236.842 45.144 235.966 45.144C234.238 45.144 232.774 43.788 232.774 41.88C232.774 40.02 234.154 38.652 235.87 38.652C237.766 38.652 238.858 40.092 238.858 42.312H233.974C234.13 43.344 234.886 44.088 235.954 44.088ZM235.918 39.708C234.958 39.708 234.178 40.356 233.986 41.364H237.706C237.574 40.404 236.986 39.708 235.918 39.708ZM241.483 39.984C241.879 39.168 242.719 38.652 243.787 38.652V39.684C242.503 39.684 241.591 40.392 241.483 41.472V45H240.295V38.796H241.483V39.984Z" fill="#212121"/>
<path d="M19.3996 70V58.321H23.5136C27.3726 58.321 30.0926 60.735 30.0926 64.152C30.0926 67.569 27.3726 70 23.5136 70H19.3996ZM21.5246 68.079H23.7346C26.1996 68.079 27.9336 66.447 27.9336 64.152C27.9336 61.857 26.1996 60.242 23.7346 60.242H21.5246V68.079ZM33.1652 59.885C32.5022 59.885 31.9752 59.324 31.9752 58.695C31.9752 58.066 32.5022 57.522 33.1652 57.522C33.8112 57.522 34.3382 58.066 34.3382 58.695C34.3382 59.324 33.8112 59.885 33.1652 59.885ZM32.1112 70V61.211H34.1852V70H32.1112ZM39.7244 70.204C38.3814 70.204 36.9364 69.728 35.8824 68.878L36.8174 67.433C37.6674 68.045 38.6534 68.453 39.7584 68.453C40.5914 68.453 41.1694 68.096 41.1694 67.552C41.1694 66.872 40.4044 66.651 39.4014 66.379C37.4974 65.886 36.2904 65.342 36.2734 63.778C36.2734 62.129 37.6334 61.007 39.5884 61.007C40.7954 61.007 42.0024 61.432 42.9544 62.061L42.0874 63.574C41.2544 63.047 40.3534 62.775 39.5884 62.775C38.8574 62.775 38.2964 63.064 38.2964 63.557C38.2964 64.118 38.7554 64.288 40.0984 64.679C41.5774 65.087 43.1754 65.597 43.1754 67.433C43.1754 69.116 41.7814 70.204 39.7244 70.204ZM49.2104 70.204C46.6774 70.204 44.5184 68.096 44.5184 65.597C44.5184 63.098 46.6774 61.007 49.2444 61.007C50.5704 61.007 51.7434 61.568 52.5764 62.435L51.1824 63.659C50.7064 63.132 49.9754 62.775 49.2274 62.775C47.7824 62.775 46.5754 64.067 46.5754 65.597C46.5754 67.144 47.7824 68.436 49.2274 68.436C49.9924 68.436 50.7404 68.079 51.2334 67.518L52.6274 68.725C51.7774 69.626 50.6044 70.204 49.2104 70.204ZM58.325 70.204C55.775 70.204 53.616 68.096 53.616 65.597C53.616 63.098 55.775 61.007 58.325 61.007C60.875 61.007 63.034 63.098 63.034 65.597C63.034 68.096 60.875 70.204 58.325 70.204ZM58.325 68.436C59.77 68.436 60.994 67.144 60.994 65.597C60.994 64.067 59.77 62.775 58.325 62.775C56.863 62.775 55.639 64.067 55.639 65.597C55.639 67.144 56.863 68.436 58.325 68.436ZM67.3754 70L63.6014 61.211H65.7944L68.3444 67.603L70.8434 61.211H73.0534L69.3304 70H67.3754ZM78.0275 68.368C78.8435 68.368 79.8125 67.994 80.3055 67.484L81.6145 68.844C80.8495 69.66 79.3195 70.204 78.0445 70.204C75.5285 70.204 73.4545 68.283 73.4545 65.58C73.4545 62.945 75.4265 61.007 77.9255 61.007C80.6455 61.007 82.2265 63.064 82.2265 66.311H75.5965C75.8515 67.518 76.7695 68.368 78.0275 68.368ZM78.0105 62.843C76.8545 62.843 75.9195 63.574 75.6135 64.73H80.2375C79.9995 63.625 79.2515 62.843 78.0105 62.843ZM86.1493 62.911C86.7103 61.738 87.8493 61.007 89.2943 61.007V62.775C87.4073 62.775 86.1493 63.897 86.1493 65.563V70H84.0753V61.211H86.1493V62.911ZM99.4703 61.007C101.799 61.007 103.244 62.486 103.244 64.713V70H101.221V68.946C100.575 69.762 99.4703 70.204 98.4503 70.204C96.5803 70.204 95.1693 69.099 95.1693 67.399C95.1693 65.665 96.7843 64.475 98.7563 64.475C99.5553 64.475 100.422 64.645 101.221 64.951V64.713C101.221 63.693 100.66 62.707 99.0623 62.707C98.2293 62.707 97.4303 62.996 96.6823 63.37L95.9683 61.925C97.2093 61.313 98.3653 61.007 99.4703 61.007ZM98.9093 68.691C99.9123 68.691 100.983 68.181 101.221 67.246V66.26C100.575 66.039 99.8443 65.92 99.0623 65.92C98.0253 65.92 97.1923 66.498 97.1923 67.331C97.1923 68.164 97.9233 68.691 98.9093 68.691ZM114.538 70.204C112.005 70.204 109.846 68.096 109.846 65.597C109.846 63.098 112.005 61.007 114.572 61.007C115.898 61.007 117.071 61.568 117.904 62.435L116.51 63.659C116.034 63.132 115.303 62.775 114.555 62.775C113.11 62.775 111.903 64.067 111.903 65.597C111.903 67.144 113.11 68.436 114.555 68.436C115.32 68.436 116.068 68.079 116.561 67.518L117.955 68.725C117.105 69.626 115.932 70.204 114.538 70.204ZM123.652 70.204C121.102 70.204 118.943 68.096 118.943 65.597C118.943 63.098 121.102 61.007 123.652 61.007C126.202 61.007 128.361 63.098 128.361 65.597C128.361 68.096 126.202 70.204 123.652 70.204ZM123.652 68.436C125.097 68.436 126.321 67.144 126.321 65.597C126.321 64.067 125.097 62.775 123.652 62.775C122.19 62.775 120.966 64.067 120.966 65.597C120.966 67.144 122.19 68.436 123.652 68.436ZM140.309 61.007C142.145 61.007 143.522 62.418 143.522 64.407V70H141.499V64.747C141.499 63.591 140.802 62.775 139.799 62.775C138.66 62.775 137.878 63.54 137.878 64.611V70H135.855V64.747C135.855 63.591 135.158 62.775 134.138 62.775C133.016 62.775 132.217 63.54 132.217 64.611V70H130.143V61.211H132.217V62.401C132.659 61.551 133.56 61.007 134.665 61.007C135.906 61.007 136.926 61.636 137.47 62.673C137.895 61.653 139 61.007 140.309 61.007ZM155.914 61.007C157.75 61.007 159.127 62.418 159.127 64.407V70H157.104V64.747C157.104 63.591 156.407 62.775 155.404 62.775C154.265 62.775 153.483 63.54 153.483 64.611V70H151.46V64.747C151.46 63.591 150.763 62.775 149.743 62.775C148.621 62.775 147.822 63.54 147.822 64.611V70H145.748V61.211H147.822V62.401C148.264 61.551 149.165 61.007 150.27 61.007C151.511 61.007 152.531 61.636 153.075 62.673C153.5 61.653 154.605 61.007 155.914 61.007ZM167.321 61.211H169.395V70H167.321V68.827C166.777 69.643 165.757 70.204 164.601 70.204C162.68 70.204 161.337 68.793 161.337 66.804V61.211H163.343V66.396C163.343 67.586 164.108 68.436 165.196 68.436C166.284 68.436 167.185 67.705 167.321 66.77V61.211ZM176.475 61.007C178.396 61.007 179.739 62.418 179.739 64.407V70H177.733V64.815C177.733 63.625 176.968 62.775 175.88 62.775C174.792 62.775 173.891 63.506 173.755 64.441V70H171.681V61.211H173.755V62.384C174.299 61.568 175.319 61.007 176.475 61.007ZM183.044 59.885C182.381 59.885 181.854 59.324 181.854 58.695C181.854 58.066 182.381 57.522 183.044 57.522C183.69 57.522 184.217 58.066 184.217 58.695C184.217 59.324 183.69 59.885 183.044 59.885ZM181.99 70V61.211H184.064V70H181.99ZM190.742 68.113L191.337 69.507C190.844 69.932 190.13 70.204 189.467 70.204C188.005 70.204 186.985 69.15 186.985 67.671V62.928H185.71V61.211H186.985V58.797H189.008V61.211H190.997V62.928H189.008V67.416C189.008 68.011 189.382 68.436 189.875 68.436C190.232 68.436 190.555 68.3 190.742 68.113ZM194.732 73.06C194.069 73.06 193.338 72.89 192.811 72.601L193.253 71.105C193.627 71.309 194.052 71.428 194.375 71.428C194.868 71.428 195.242 71.275 195.497 70.85L195.871 70.068L192.148 61.211H194.341L196.908 67.773L199.322 61.211H201.464L197.741 70.612C197.078 72.278 196.058 73.043 194.732 73.06ZM212.324 68.113L212.919 69.507C212.426 69.932 211.712 70.204 211.049 70.204C209.587 70.204 208.567 69.15 208.567 67.671V62.928H207.292V61.211H208.567V58.797H210.59V61.211H212.579V62.928H210.59V67.416C210.59 68.011 210.964 68.436 211.457 68.436C211.814 68.436 212.137 68.3 212.324 68.113ZM219.323 61.007C221.244 61.007 222.587 62.418 222.587 64.407V70H220.581V64.815C220.581 63.625 219.816 62.775 218.728 62.775C217.555 62.775 216.586 63.625 216.586 64.679V70H214.512V58.117H216.586V62.418C217.113 61.568 218.15 61.007 219.323 61.007ZM228.664 61.007C230.993 61.007 232.438 62.486 232.438 64.713V70H230.415V68.946C229.769 69.762 228.664 70.204 227.644 70.204C225.774 70.204 224.363 69.099 224.363 67.399C224.363 65.665 225.978 64.475 227.95 64.475C228.749 64.475 229.616 64.645 230.415 64.951V64.713C230.415 63.693 229.854 62.707 228.256 62.707C227.423 62.707 226.624 62.996 225.876 63.37L225.162 61.925C226.403 61.313 227.559 61.007 228.664 61.007ZM228.103 68.691C229.106 68.691 230.177 68.181 230.415 67.246V66.26C229.769 66.039 229.038 65.92 228.256 65.92C227.219 65.92 226.386 66.498 226.386 67.331C226.386 68.164 227.117 68.691 228.103 68.691ZM239.069 68.113L239.664 69.507C239.171 69.932 238.457 70.204 237.794 70.204C236.332 70.204 235.312 69.15 235.312 67.671V62.928H234.037V61.211H235.312V58.797H237.335V61.211H239.324V62.928H237.335V67.416C237.335 68.011 237.709 68.436 238.202 68.436C238.559 68.436 238.882 68.3 239.069 68.113ZM249.03 70L245.256 61.211H247.449L249.999 67.603L252.498 61.211H254.708L250.985 70H249.03ZM259.36 61.007C261.689 61.007 263.134 62.486 263.134 64.713V70H261.111V68.946C260.465 69.762 259.36 70.204 258.34 70.204C256.47 70.204 255.059 69.099 255.059 67.399C255.059 65.665 256.674 64.475 258.646 64.475C259.445 64.475 260.312 64.645 261.111 64.951V64.713C261.111 63.693 260.55 62.707 258.952 62.707C258.119 62.707 257.32 62.996 256.572 63.37L255.858 61.925C257.099 61.313 258.255 61.007 259.36 61.007ZM258.799 68.691C259.802 68.691 260.873 68.181 261.111 67.246V66.26C260.465 66.039 259.734 65.92 258.952 65.92C257.915 65.92 257.082 66.498 257.082 67.331C257.082 68.164 257.813 68.691 258.799 68.691ZM265.38 70V58.117H267.454V70H265.38ZM275.696 61.211H277.77V70H275.696V68.827C275.152 69.643 274.132 70.204 272.976 70.204C271.055 70.204 269.712 68.793 269.712 66.804V61.211H271.718V66.396C271.718 67.586 272.483 68.436 273.571 68.436C274.659 68.436 275.56 67.705 275.696 66.77V61.211ZM284.153 68.368C284.969 68.368 285.938 67.994 286.431 67.484L287.74 68.844C286.975 69.66 285.445 70.204 284.17 70.204C281.654 70.204 279.58 68.283 279.58 65.58C279.58 62.945 281.552 61.007 284.051 61.007C286.771 61.007 288.352 63.064 288.352 66.311H281.722C281.977 67.518 282.895 68.368 284.153 68.368ZM284.136 62.843C282.98 62.843 282.045 63.574 281.739 64.73H286.363C286.125 63.625 285.377 62.843 284.136 62.843ZM293.396 70.204C292.053 70.204 290.608 69.728 289.554 68.878L290.489 67.433C291.339 68.045 292.325 68.453 293.43 68.453C294.263 68.453 294.841 68.096 294.841 67.552C294.841 66.872 294.076 66.651 293.073 66.379C291.169 65.886 289.962 65.342 289.945 63.778C289.945 62.129 291.305 61.007 293.26 61.007C294.467 61.007 295.674 61.432 296.626 62.061L295.759 63.574C294.926 63.047 294.025 62.775 293.26 62.775C292.529 62.775 291.968 63.064 291.968 63.557C291.968 64.118 292.427 64.288 293.77 64.679C295.249 65.087 296.847 65.597 296.847 67.433C296.847 69.116 295.453 70.204 293.396 70.204ZM305.249 73.06C304.586 73.06 303.855 72.89 303.328 72.601L303.77 71.105C304.144 71.309 304.569 71.428 304.892 71.428C305.385 71.428 305.759 71.275 306.014 70.85L306.388 70.068L302.665 61.211H304.858L307.425 67.773L309.839 61.211H311.981L308.258 70.612C307.595 72.278 306.575 73.043 305.249 73.06ZM317.475 70.204C314.925 70.204 312.766 68.096 312.766 65.597C312.766 63.098 314.925 61.007 317.475 61.007C320.025 61.007 322.184 63.098 322.184 65.597C322.184 68.096 320.025 70.204 317.475 70.204ZM317.475 68.436C318.92 68.436 320.144 67.144 320.144 65.597C320.144 64.067 318.92 62.775 317.475 62.775C316.013 62.775 314.789 64.067 314.789 65.597C314.789 67.144 316.013 68.436 317.475 68.436ZM329.933 61.211H332.007V70H329.933V68.827C329.389 69.643 328.369 70.204 327.213 70.204C325.292 70.204 323.949 68.793 323.949 66.804V61.211H325.955V66.396C325.955 67.586 326.72 68.436 327.808 68.436C328.896 68.436 329.797 67.705 329.933 66.77V61.211ZM336.418 62.911C336.979 61.738 338.118 61.007 339.563 61.007V62.775C337.676 62.775 336.418 63.897 336.418 65.563V70H334.344V61.211H336.418V62.911ZM55.9856 90.204C54.6426 90.204 53.1976 89.728 52.1436 88.878L53.0786 87.433C53.9286 88.045 54.9146 88.453 56.0196 88.453C56.8526 88.453 57.4306 88.096 57.4306 87.552C57.4306 86.872 56.6656 86.651 55.6626 86.379C53.7586 85.886 52.5516 85.342 52.5346 83.778C52.5346 82.129 53.8946 81.007 55.8496 81.007C57.0566 81.007 58.2636 81.432 59.2156 82.061L58.3486 83.574C57.5156 83.047 56.6146 82.775 55.8496 82.775C55.1186 82.775 54.5576 83.064 54.5576 83.557C54.5576 84.118 55.0166 84.288 56.3596 84.679C57.8386 85.087 59.4366 85.597 59.4366 87.433C59.4366 89.116 58.0426 90.204 55.9856 90.204ZM69.5346 81.211L65.9136 85.138L69.4156 90H67.0016L64.5196 86.498L63.2786 87.807V90H61.2046V78.117H63.2786V85.376L67.0866 81.211H69.5346ZM71.8385 79.885C71.1755 79.885 70.6485 79.324 70.6485 78.695C70.6485 78.066 71.1755 77.522 71.8385 77.522C72.4845 77.522 73.0115 78.066 73.0115 78.695C73.0115 79.324 72.4845 79.885 71.8385 79.885ZM70.7845 90V81.211H72.8585V90H70.7845ZM75.1507 90V78.117H77.2247V90H75.1507ZM79.5169 90V78.117H81.5909V90H79.5169ZM87.1301 90.204C85.7871 90.204 84.3421 89.728 83.2881 88.878L84.2231 87.433C85.0731 88.045 86.0591 88.453 87.1641 88.453C87.9971 88.453 88.5751 88.096 88.5751 87.552C88.5751 86.872 87.8101 86.651 86.8071 86.379C84.9031 85.886 83.6961 85.342 83.6791 83.778C83.6791 82.129 85.0391 81.007 86.9941 81.007C88.2011 81.007 89.4081 81.432 90.3601 82.061L89.4931 83.574C88.6601 83.047 87.7591 82.775 86.9941 82.775C86.2631 82.775 85.7021 83.064 85.7021 83.557C85.7021 84.118 86.1611 84.288 87.5041 84.679C88.9831 85.087 90.5811 85.597 90.5811 87.433C90.5811 89.116 89.1871 90.204 87.1301 90.204ZM101.023 81.007C103.352 81.007 104.797 82.486 104.797 84.713V90H102.774V88.946C102.128 89.762 101.023 90.204 100.003 90.204C98.1326 90.204 96.7216 89.099 96.7216 87.399C96.7216 85.665 98.3366 84.475 100.309 84.475C101.108 84.475 101.975 84.645 102.774 84.951V84.713C102.774 83.693 102.213 82.707 100.615 82.707C99.7816 82.707 98.9826 82.996 98.2346 83.37L97.5206 81.925C98.7616 81.313 99.9176 81.007 101.023 81.007ZM100.462 88.691C101.465 88.691 102.536 88.181 102.774 87.246V86.26C102.128 86.039 101.397 85.92 100.615 85.92C99.5776 85.92 98.7446 86.498 98.7446 87.331C98.7446 88.164 99.4756 88.691 100.462 88.691ZM111.836 81.007C113.757 81.007 115.1 82.418 115.1 84.407V90H113.094V84.815C113.094 83.625 112.329 82.775 111.241 82.775C110.153 82.775 109.252 83.506 109.116 84.441V90H107.042V81.211H109.116V82.384C109.66 81.568 110.68 81.007 111.836 81.007ZM124.033 78.117H126.107V90H124.033V88.64C123.336 89.626 122.282 90.204 120.99 90.204C118.661 90.204 116.961 88.3 116.961 85.597C116.961 82.911 118.661 81.007 120.99 81.007C122.282 81.007 123.336 81.585 124.033 82.571V78.117ZM121.551 88.436C123.013 88.436 124.033 87.246 124.033 85.597C124.033 83.948 123.013 82.775 121.551 82.775C120.072 82.775 119.018 83.948 119.018 85.597C119.018 87.246 120.072 88.436 121.551 88.436ZM135.381 82.911C135.942 81.738 137.081 81.007 138.526 81.007V82.775C136.639 82.775 135.381 83.897 135.381 85.563V90H133.307V81.211H135.381V82.911ZM144.16 88.368C144.976 88.368 145.945 87.994 146.438 87.484L147.747 88.844C146.982 89.66 145.452 90.204 144.177 90.204C141.661 90.204 139.587 88.283 139.587 85.58C139.587 82.945 141.559 81.007 144.058 81.007C146.778 81.007 148.359 83.064 148.359 86.311H141.729C141.984 87.518 142.902 88.368 144.16 88.368ZM144.143 82.843C142.987 82.843 142.052 83.574 141.746 84.73H146.37C146.132 83.625 145.384 82.843 144.143 82.843ZM151.969 90L148.994 81.211H151.068L152.904 87.212L154.859 81.211H156.593L158.565 87.212L160.384 81.211H162.458L159.5 90H157.613L155.726 83.982L153.856 90H151.969ZM167.811 81.007C170.14 81.007 171.585 82.486 171.585 84.713V90H169.562V88.946C168.916 89.762 167.811 90.204 166.791 90.204C164.921 90.204 163.51 89.099 163.51 87.399C163.51 85.665 165.125 84.475 167.097 84.475C167.896 84.475 168.763 84.645 169.562 84.951V84.713C169.562 83.693 169.001 82.707 167.403 82.707C166.57 82.707 165.771 82.996 165.023 83.37L164.309 81.925C165.55 81.313 166.706 81.007 167.811 81.007ZM167.25 88.691C168.253 88.691 169.324 88.181 169.562 87.246V86.26C168.916 86.039 168.185 85.92 167.403 85.92C166.366 85.92 165.533 86.498 165.533 87.331C165.533 88.164 166.264 88.691 167.25 88.691ZM175.955 82.911C176.516 81.738 177.655 81.007 179.1 81.007V82.775C177.213 82.775 175.955 83.897 175.955 85.563V90H173.881V81.211H175.955V82.911ZM187.318 78.117H189.392V90H187.318V88.64C186.621 89.626 185.567 90.204 184.275 90.204C181.946 90.204 180.246 88.3 180.246 85.597C180.246 82.911 181.946 81.007 184.275 81.007C185.567 81.007 186.621 81.585 187.318 82.571V78.117ZM184.836 88.436C186.298 88.436 187.318 87.246 187.318 85.597C187.318 83.948 186.298 82.775 184.836 82.775C183.357 82.775 182.303 83.948 182.303 85.597C182.303 87.246 183.357 88.436 184.836 88.436ZM194.974 90.204C193.631 90.204 192.186 89.728 191.132 88.878L192.067 87.433C192.917 88.045 193.903 88.453 195.008 88.453C195.841 88.453 196.419 88.096 196.419 87.552C196.419 86.872 195.654 86.651 194.651 86.379C192.747 85.886 191.54 85.342 191.523 83.778C191.523 82.129 192.883 81.007 194.838 81.007C196.045 81.007 197.252 81.432 198.204 82.061L197.337 83.574C196.504 83.047 195.603 82.775 194.838 82.775C194.107 82.775 193.546 83.064 193.546 83.557C193.546 84.118 194.005 84.288 195.348 84.679C196.827 85.087 198.425 85.597 198.425 87.433C198.425 89.116 197.031 90.204 194.974 90.204ZM206.826 93.06C206.163 93.06 205.432 92.89 204.905 92.601L205.347 91.105C205.721 91.309 206.146 91.428 206.469 91.428C206.962 91.428 207.336 91.275 207.591 90.85L207.965 90.068L204.242 81.211H206.435L209.002 87.773L211.416 81.211H213.558L209.835 90.612C209.172 92.278 208.152 93.043 206.826 93.06ZM219.053 90.204C216.503 90.204 214.344 88.096 214.344 85.597C214.344 83.098 216.503 81.007 219.053 81.007C221.603 81.007 223.762 83.098 223.762 85.597C223.762 88.096 221.603 90.204 219.053 90.204ZM219.053 88.436C220.498 88.436 221.722 87.144 221.722 85.597C221.722 84.067 220.498 82.775 219.053 82.775C217.591 82.775 216.367 84.067 216.367 85.597C216.367 87.144 217.591 88.436 219.053 88.436ZM231.511 81.211H233.585V90H231.511V88.827C230.967 89.643 229.947 90.204 228.791 90.204C226.87 90.204 225.527 88.793 225.527 86.804V81.211H227.533V86.396C227.533 87.586 228.298 88.436 229.386 88.436C230.474 88.436 231.375 87.705 231.511 86.77V81.211ZM237.995 82.911C238.556 81.738 239.695 81.007 241.14 81.007V82.775C239.253 82.775 237.995 83.897 237.995 85.563V90H235.921V81.211H237.995V82.911ZM251.589 88.368C252.405 88.368 253.374 87.994 253.867 87.484L255.176 88.844C254.411 89.66 252.881 90.204 251.606 90.204C249.09 90.204 247.016 88.283 247.016 85.58C247.016 82.945 248.988 81.007 251.487 81.007C254.207 81.007 255.788 83.064 255.788 86.311H249.158C249.413 87.518 250.331 88.368 251.589 88.368ZM251.572 82.843C250.416 82.843 249.481 83.574 249.175 84.73H253.799C253.561 83.625 252.813 82.843 251.572 82.843ZM260.237 80.48V81.211H262.226V82.928H260.237V90H258.214V82.928H256.939V81.211H258.214V80.293C258.214 78.814 259.234 77.76 260.696 77.76C261.359 77.76 262.073 78.032 262.566 78.457L261.971 79.783C261.784 79.596 261.461 79.46 261.104 79.46C260.611 79.46 260.237 79.885 260.237 80.48ZM266.529 80.48V81.211H268.518V82.928H266.529V90H264.506V82.928H263.231V81.211H264.506V80.293C264.506 78.814 265.526 77.76 266.988 77.76C267.651 77.76 268.365 78.032 268.858 78.457L268.263 79.783C268.076 79.596 267.753 79.46 267.396 79.46C266.903 79.46 266.529 79.885 266.529 80.48ZM274.419 90.204C271.869 90.204 269.71 88.096 269.71 85.597C269.71 83.098 271.869 81.007 274.419 81.007C276.969 81.007 279.128 83.098 279.128 85.597C279.128 88.096 276.969 90.204 274.419 90.204ZM274.419 88.436C275.864 88.436 277.088 87.144 277.088 85.597C277.088 84.067 275.864 82.775 274.419 82.775C272.957 82.775 271.733 84.067 271.733 85.597C271.733 87.144 272.957 88.436 274.419 88.436ZM283.052 82.911C283.613 81.738 284.752 81.007 286.197 81.007V82.775C284.31 82.775 283.052 83.897 283.052 85.563V90H280.978V81.211H283.052V82.911ZM292.12 88.113L292.715 89.507C292.222 89.932 291.508 90.204 290.845 90.204C289.383 90.204 288.363 89.15 288.363 87.671V82.928H287.088V81.211H288.363V78.797H290.386V81.211H292.375V82.928H290.386V87.416C290.386 88.011 290.76 88.436 291.253 88.436C291.61 88.436 291.933 88.3 292.12 88.113ZM297.572 90.204C296.229 90.204 294.784 89.728 293.73 88.878L294.665 87.433C295.515 88.045 296.501 88.453 297.606 88.453C298.439 88.453 299.017 88.096 299.017 87.552C299.017 86.872 298.252 86.651 297.249 86.379C295.345 85.886 294.138 85.342 294.121 83.778C294.121 82.129 295.481 81.007 297.436 81.007C298.643 81.007 299.85 81.432 300.802 82.061L299.935 83.574C299.102 83.047 298.201 82.775 297.436 82.775C296.705 82.775 296.144 83.064 296.144 83.557C296.144 84.118 296.603 84.288 297.946 84.679C299.425 85.087 301.023 85.597 301.023 87.433C301.023 89.116 299.629 90.204 297.572 90.204ZM304.083 90.204C303.301 90.204 302.723 89.592 302.723 88.844C302.723 88.147 303.301 87.535 304.083 87.535C304.797 87.535 305.392 88.147 305.392 88.844C305.392 89.592 304.797 90.204 304.083 90.204Z" fill="#212121"/>
</g>
<defs>
<clipPath id="clip0_2097_9763">
<rect width="358" height="130" rx="20" fill="white"/>
</clipPath>
</defs>
</svg>
