<svg width="981" height="240" viewBox="0 0 981 240" fill="none" xmlns="http://www.w3.org/2000/svg">
<g clip-path="url(#clip0_2362_249)">
<rect width="981" height="240" rx="20" fill="url(#paint0_linear_2362_249)"/>
<path d="M36 76C36 64.9543 44.9543 56 56 56H314V70C314 81.0457 305.046 90 294 90H36V76Z" fill="#212121"/>
<path d="M57.562 76.632C58.534 76.632 59.668 76.2 60.226 75.624L61.342 76.776C60.514 77.658 58.894 78.216 57.58 78.216C54.988 78.216 52.792 76.182 52.792 73.32C52.792 70.53 54.862 68.478 57.436 68.478C60.28 68.478 61.918 70.638 61.918 73.968H54.592C54.826 75.516 55.96 76.632 57.562 76.632ZM57.508 70.062C56.068 70.062 54.898 71.034 54.61 72.546H60.19C59.992 71.106 59.11 70.062 57.508 70.062ZM63.6775 78L63.6595 76.578L70.8055 67.326H63.8035V65.634H73.3075V67.056L66.1615 76.308H73.3795V78H63.6775ZM90.5626 78L89.4826 75.48H83.0386L81.9586 78H79.9426L85.2526 65.634H87.2686L92.5786 78H90.5626ZM83.7406 73.842H88.7806L86.2606 67.974L83.7406 73.842ZM98.7329 78.216C96.0869 78.216 93.8369 75.984 93.8369 73.338C93.8369 70.692 96.0869 68.478 98.7509 68.478C100.083 68.478 101.289 69.036 102.171 69.918L100.965 71.034C100.407 70.404 99.5969 70.026 98.7329 70.026C97.0409 70.026 95.6369 71.538 95.6369 73.338C95.6369 75.156 97.0409 76.668 98.7509 76.668C99.6149 76.668 100.443 76.272 101.019 75.624L102.225 76.722C101.325 77.64 100.119 78.216 98.7329 78.216ZM108.038 68.478C110.54 68.478 111.926 70.062 111.926 72.366V78H110.18V76.722C109.496 77.694 108.218 78.216 107.084 78.216C105.104 78.216 103.646 77.064 103.646 75.246C103.646 73.392 105.32 72.15 107.372 72.15C108.29 72.15 109.28 72.348 110.18 72.654V72.366C110.18 71.196 109.64 69.954 107.786 69.954C106.868 69.954 105.968 70.314 105.158 70.728L104.51 69.414C105.842 68.748 107.012 68.478 108.038 68.478ZM107.426 76.812C108.578 76.812 109.874 76.236 110.18 75.084V73.842C109.424 73.608 108.56 73.482 107.642 73.482C106.4 73.482 105.356 74.184 105.356 75.192C105.356 76.2 106.256 76.812 107.426 76.812ZM121.667 65.418H123.431V78H121.667V76.38C120.947 77.532 119.795 78.216 118.355 78.216C115.907 78.216 114.071 76.2 114.071 73.338C114.071 70.494 115.907 68.478 118.355 68.478C119.795 68.478 120.947 69.162 121.667 70.296V65.418ZM118.787 76.668C120.461 76.668 121.667 75.282 121.667 73.338C121.667 71.394 120.461 70.026 118.787 70.026C117.077 70.026 115.871 71.394 115.871 73.338C115.871 75.282 117.077 76.668 118.787 76.668ZM130.371 76.632C131.343 76.632 132.477 76.2 133.035 75.624L134.151 76.776C133.323 77.658 131.703 78.216 130.389 78.216C127.797 78.216 125.601 76.182 125.601 73.32C125.601 70.53 127.671 68.478 130.245 68.478C133.089 68.478 134.727 70.638 134.727 73.968H127.401C127.635 75.516 128.769 76.632 130.371 76.632ZM130.317 70.062C128.877 70.062 127.707 71.034 127.419 72.546H132.999C132.801 71.106 131.919 70.062 130.317 70.062ZM147.196 68.478C149.14 68.478 150.544 69.972 150.544 72.078V78H148.798V72.348C148.798 70.98 147.988 70.026 146.818 70.026C145.486 70.026 144.55 70.908 144.55 72.186V78H142.804V72.348C142.804 70.98 141.994 70.026 140.824 70.026C139.492 70.026 138.556 70.908 138.556 72.186V78H136.774V68.694H138.556V69.99C139.024 69.072 139.996 68.478 141.184 68.478C142.534 68.478 143.632 69.198 144.172 70.35C144.604 69.198 145.792 68.478 147.196 68.478ZM154.743 81.24C154.113 81.24 153.465 81.096 152.979 80.844L153.375 79.476C153.735 79.674 154.149 79.764 154.509 79.764C155.085 79.764 155.481 79.584 155.787 79.044L156.255 78.054L152.259 68.694H154.167L157.155 76.038L159.981 68.694H161.835L157.731 78.846C157.065 80.52 156.075 81.222 154.743 81.24ZM162.618 80.466L161.862 79.89C162.384 79.35 162.708 78.774 162.852 78.216C162.204 78.216 161.682 77.676 161.682 77.01C161.682 76.38 162.204 75.822 162.888 75.822C163.68 75.822 164.184 76.542 164.184 77.532C164.184 78.378 163.77 79.152 162.618 80.466Z" fill="white"/>
<path d="M177.856 78.216C174.202 78.216 171.124 75.282 171.124 71.808C171.124 68.334 174.202 65.418 177.856 65.418C179.836 65.418 181.636 66.264 182.878 67.596L180.304 69.846C179.728 69.09 178.828 68.586 177.856 68.586C176.164 68.586 174.724 70.062 174.724 71.808C174.724 73.572 176.164 75.048 177.856 75.048C178.846 75.048 179.728 74.544 180.322 73.788L182.878 76.02C181.636 77.37 179.836 78.216 177.856 78.216ZM188.963 78.216C186.101 78.216 183.707 75.984 183.707 73.338C183.707 70.692 186.101 68.478 188.963 68.478C191.807 68.478 194.201 70.692 194.201 73.338C194.201 75.984 191.807 78.216 188.963 78.216ZM188.963 75.336C190.043 75.336 190.961 74.418 190.961 73.338C190.961 72.258 190.043 71.358 188.963 71.358C187.865 71.358 186.947 72.258 186.947 73.338C186.947 74.418 187.865 75.336 188.963 75.336ZM207.408 68.478C209.352 68.478 210.936 69.972 210.936 72.078V78.018H207.624V72.708C207.624 71.916 207.084 71.358 206.31 71.358C205.536 71.358 204.996 71.88 204.996 72.6V78.018H201.684V72.708C201.684 71.916 201.144 71.358 200.37 71.358C199.596 71.358 199.056 71.88 199.056 72.6V78H195.582V68.694H199.056V69.828C199.506 69 200.37 68.478 201.468 68.478C202.674 68.478 203.754 69.054 204.384 70.008C204.924 69.072 206.04 68.478 207.408 68.478ZM214.557 67.704C213.549 67.704 212.757 66.876 212.757 65.904C212.757 64.968 213.549 64.14 214.557 64.14C215.529 64.14 216.321 64.968 216.321 65.904C216.321 66.876 215.529 67.704 214.557 67.704ZM212.793 78V68.694H216.267V78H212.793ZM224.29 68.478C226.288 68.478 227.71 69.972 227.71 72.078V78H224.398V72.888C224.398 71.988 223.822 71.358 222.994 71.358C222.22 71.358 221.662 71.952 221.662 72.78V78H218.188V68.694H221.662V69.63C222.238 68.91 223.174 68.478 224.29 68.478ZM235.988 68.694H239.48V77.01C239.48 79.404 237.284 81.096 234.188 81.096C232.46 81.096 230.84 80.574 229.85 79.854L230.984 77.46C231.524 77.91 232.604 78.216 233.63 78.216C235.016 78.216 235.988 77.622 235.988 76.83V76.092C235.25 76.866 234.188 77.316 233.108 77.316C230.858 77.316 229.076 75.48 229.076 72.888C229.076 70.296 230.858 68.478 233.108 68.478C234.224 68.478 235.412 69 235.988 69.72V68.694ZM234.314 74.436C235.286 74.436 235.988 73.788 235.988 72.888C235.988 71.988 235.286 71.358 234.314 71.358C233.342 71.358 232.64 71.988 232.64 72.888C232.64 73.788 233.342 74.436 234.314 74.436ZM251.355 78.216C249.123 78.216 247.017 77.514 245.451 76.128L247.395 73.806C248.655 74.796 250.023 75.318 251.481 75.318C252.435 75.318 252.939 74.994 252.939 74.454C252.939 73.86 252.507 73.77 250.797 73.374C248.115 72.762 246.045 72.06 246.045 69.486C246.045 67.02 247.989 65.418 250.923 65.418C253.065 65.418 254.739 65.994 256.107 67.092L254.361 69.558C253.209 68.73 251.949 68.316 250.833 68.316C249.987 68.316 249.573 68.658 249.573 69.126C249.573 69.756 250.005 69.954 251.769 70.332C254.649 70.944 256.449 71.718 256.449 74.076C256.449 76.686 254.451 78.216 251.355 78.216ZM262.685 78.216C259.823 78.216 257.429 75.984 257.429 73.338C257.429 70.692 259.823 68.478 262.685 68.478C265.529 68.478 267.923 70.692 267.923 73.338C267.923 75.984 265.529 78.216 262.685 78.216ZM262.685 75.336C263.765 75.336 264.683 74.418 264.683 73.338C264.683 72.258 263.765 71.358 262.685 71.358C261.587 71.358 260.669 72.258 260.669 73.338C260.669 74.418 261.587 75.336 262.685 75.336ZM274.129 78.216C271.267 78.216 268.873 75.984 268.873 73.338C268.873 70.692 271.267 68.478 274.129 68.478C276.973 68.478 279.367 70.692 279.367 73.338C279.367 75.984 276.973 78.216 274.129 78.216ZM274.129 75.336C275.209 75.336 276.127 74.418 276.127 73.338C276.127 72.258 275.209 71.358 274.129 71.358C273.031 71.358 272.113 72.258 272.113 73.338C272.113 74.418 273.031 75.336 274.129 75.336ZM286.85 68.478C288.848 68.478 290.27 69.972 290.27 72.078V78H286.958V72.888C286.958 71.988 286.382 71.358 285.554 71.358C284.78 71.358 284.222 71.952 284.222 72.78V78H280.748V68.694H284.222V69.63C284.798 68.91 285.734 68.478 286.85 68.478ZM292.969 73.068L292.195 65.634H296.065L295.309 73.068H292.969ZM294.139 78.216C292.933 78.216 292.015 77.262 292.015 76.092C292.015 75.012 292.933 74.058 294.139 74.058C295.255 74.058 296.173 75.012 296.173 76.092C296.173 77.262 295.255 78.216 294.139 78.216Z" fill="#FFC553"/>
<path d="M43.232 124.4H48.32C49.216 124.4 49.952 124.187 50.528 123.76C51.104 123.333 51.392 122.64 51.392 121.68C51.392 121.147 51.296 120.709 51.104 120.368C50.912 120.027 50.656 119.76 50.336 119.568C50.016 119.376 49.6427 119.248 49.216 119.184C48.8107 119.099 48.384 119.056 47.936 119.056H43.232V124.4ZM38.208 115.152H48.96C50.048 115.152 51.04 115.248 51.936 115.44C52.832 115.632 53.6 115.952 54.24 116.4C54.88 116.827 55.3707 117.403 55.712 118.128C56.0747 118.853 56.256 119.749 56.256 120.816C56.256 121.968 55.9893 122.928 55.456 123.696C54.944 124.464 54.176 125.093 53.152 125.584C54.56 125.989 55.6053 126.704 56.288 127.728C56.992 128.731 57.344 129.947 57.344 131.376C57.344 132.528 57.12 133.531 56.672 134.384C56.224 135.216 55.616 135.899 54.848 136.432C54.1013 136.965 53.2373 137.36 52.256 137.616C51.296 137.872 50.304 138 49.28 138H38.208V115.152ZM43.232 134.096H48.608C49.0987 134.096 49.568 134.053 50.016 133.968C50.464 133.861 50.8587 133.701 51.2 133.488C51.5413 133.253 51.808 132.944 52 132.56C52.2133 132.176 52.32 131.685 52.32 131.088C52.32 129.915 51.9893 129.083 51.328 128.592C50.6667 128.08 49.792 127.824 48.704 127.824H43.232V134.096ZM64.2913 129.744C64.2913 130.405 64.3553 131.056 64.4833 131.696C64.6113 132.315 64.8246 132.88 65.1233 133.392C65.4433 133.883 65.8593 134.277 66.3713 134.576C66.8833 134.875 67.5233 135.024 68.2913 135.024C69.0593 135.024 69.6993 134.875 70.2113 134.576C70.7446 134.277 71.1606 133.883 71.4593 133.392C71.7793 132.88 72.0033 132.315 72.1313 131.696C72.2593 131.056 72.3233 130.405 72.3233 129.744C72.3233 129.083 72.2593 128.432 72.1313 127.792C72.0033 127.152 71.7793 126.587 71.4593 126.096C71.1606 125.605 70.7446 125.211 70.2113 124.912C69.6993 124.592 69.0593 124.432 68.2913 124.432C67.5233 124.432 66.8833 124.592 66.3713 124.912C65.8593 125.211 65.4433 125.605 65.1233 126.096C64.8246 126.587 64.6113 127.152 64.4833 127.792C64.3553 128.432 64.2913 129.083 64.2913 129.744ZM59.7473 129.744C59.7473 128.421 59.9499 127.227 60.3553 126.16C60.7606 125.072 61.3366 124.155 62.0833 123.408C62.8299 122.64 63.7259 122.053 64.7713 121.648C65.8166 121.221 66.9899 121.008 68.2913 121.008C69.5926 121.008 70.7659 121.221 71.8113 121.648C72.8779 122.053 73.7846 122.64 74.5312 123.408C75.2779 124.155 75.8539 125.072 76.2593 126.16C76.6646 127.227 76.8673 128.421 76.8673 129.744C76.8673 131.067 76.6646 132.261 76.2593 133.328C75.8539 134.395 75.2779 135.312 74.5312 136.08C73.7846 136.827 72.8779 137.403 71.8113 137.808C70.7659 138.213 69.5926 138.416 68.2913 138.416C66.9899 138.416 65.8166 138.213 64.7713 137.808C63.7259 137.403 62.8299 136.827 62.0833 136.08C61.3366 135.312 60.7606 134.395 60.3553 133.328C59.9499 132.261 59.7473 131.067 59.7473 129.744ZM83.8538 129.744C83.8538 130.405 83.9178 131.056 84.0458 131.696C84.1738 132.315 84.3871 132.88 84.6858 133.392C85.0058 133.883 85.4218 134.277 85.9338 134.576C86.4458 134.875 87.0858 135.024 87.8538 135.024C88.6218 135.024 89.2618 134.875 89.7738 134.576C90.3071 134.277 90.7231 133.883 91.0218 133.392C91.3418 132.88 91.5658 132.315 91.6938 131.696C91.8218 131.056 91.8858 130.405 91.8858 129.744C91.8858 129.083 91.8218 128.432 91.6938 127.792C91.5658 127.152 91.3418 126.587 91.0218 126.096C90.7231 125.605 90.3071 125.211 89.7738 124.912C89.2618 124.592 88.6218 124.432 87.8538 124.432C87.0858 124.432 86.4458 124.592 85.9338 124.912C85.4218 125.211 85.0058 125.605 84.6858 126.096C84.3871 126.587 84.1738 127.152 84.0458 127.792C83.9178 128.432 83.8538 129.083 83.8538 129.744ZM79.3098 129.744C79.3098 128.421 79.5124 127.227 79.9178 126.16C80.3231 125.072 80.8991 124.155 81.6458 123.408C82.3924 122.64 83.2884 122.053 84.3338 121.648C85.3791 121.221 86.5524 121.008 87.8538 121.008C89.1551 121.008 90.3284 121.221 91.3738 121.648C92.4404 122.053 93.3471 122.64 94.0938 123.408C94.8404 124.155 95.4164 125.072 95.8218 126.16C96.2271 127.227 96.4298 128.421 96.4298 129.744C96.4298 131.067 96.2271 132.261 95.8218 133.328C95.4164 134.395 94.8404 135.312 94.0938 136.08C93.3471 136.827 92.4404 137.403 91.3738 137.808C90.3284 138.213 89.1551 138.416 87.8538 138.416C86.5524 138.416 85.3791 138.213 84.3338 137.808C83.2884 137.403 82.3924 136.827 81.6458 136.08C80.8991 135.312 80.3231 134.395 79.9178 133.328C79.5124 132.261 79.3098 131.067 79.3098 129.744ZM102.904 132.624C102.904 133.115 103 133.541 103.192 133.904C103.406 134.245 103.672 134.533 103.992 134.768C104.312 134.981 104.675 135.141 105.08 135.248C105.507 135.355 105.944 135.408 106.392 135.408C106.712 135.408 107.043 135.376 107.384 135.312C107.747 135.227 108.067 135.109 108.344 134.96C108.643 134.789 108.888 134.576 109.08 134.32C109.272 134.043 109.368 133.701 109.368 133.296C109.368 132.613 108.91 132.101 107.992 131.76C107.096 131.419 105.838 131.077 104.216 130.736C103.555 130.587 102.904 130.416 102.264 130.224C101.646 130.011 101.091 129.744 100.6 129.424C100.11 129.083 99.7149 128.667 99.4163 128.176C99.1176 127.664 98.9683 127.045 98.9683 126.32C98.9683 125.253 99.1709 124.379 99.5763 123.696C100.003 123.013 100.558 122.48 101.24 122.096C101.923 121.691 102.691 121.413 103.544 121.264C104.398 121.093 105.272 121.008 106.168 121.008C107.064 121.008 107.928 121.093 108.76 121.264C109.614 121.435 110.371 121.723 111.032 122.128C111.694 122.533 112.238 123.077 112.664 123.76C113.112 124.421 113.379 125.264 113.464 126.288H109.144C109.08 125.413 108.75 124.827 108.152 124.528C107.555 124.208 106.851 124.048 106.04 124.048C105.784 124.048 105.507 124.069 105.208 124.112C104.91 124.133 104.632 124.197 104.376 124.304C104.142 124.411 103.939 124.571 103.768 124.784C103.598 124.976 103.512 125.243 103.512 125.584C103.512 125.989 103.662 126.32 103.96 126.576C104.259 126.832 104.643 127.045 105.112 127.216C105.603 127.365 106.158 127.504 106.776 127.632C107.395 127.76 108.024 127.899 108.664 128.048C109.326 128.197 109.966 128.379 110.584 128.592C111.224 128.805 111.79 129.093 112.28 129.456C112.771 129.797 113.166 130.235 113.464 130.768C113.763 131.28 113.912 131.92 113.912 132.688C113.912 133.776 113.688 134.693 113.24 135.44C112.814 136.165 112.248 136.752 111.544 137.2C110.84 137.648 110.03 137.957 109.112 138.128C108.216 138.32 107.299 138.416 106.36 138.416C105.4 138.416 104.462 138.32 103.544 138.128C102.627 137.936 101.806 137.616 101.08 137.168C100.376 136.72 99.7896 136.133 99.3203 135.408C98.8723 134.661 98.6269 133.733 98.5843 132.624H102.904ZM122.332 121.456H125.66V124.496H122.332V132.688C122.332 133.456 122.46 133.968 122.716 134.224C122.972 134.48 123.484 134.608 124.252 134.608C124.508 134.608 124.753 134.597 124.988 134.576C125.222 134.555 125.446 134.523 125.66 134.48V138C125.276 138.064 124.849 138.107 124.38 138.128C123.91 138.149 123.452 138.16 123.004 138.16C122.3 138.16 121.628 138.107 120.988 138C120.369 137.915 119.814 137.733 119.324 137.456C118.854 137.179 118.481 136.784 118.204 136.272C117.926 135.76 117.788 135.088 117.788 134.256V124.496H115.036V121.456H117.788V116.496H122.332V121.456ZM144.888 140.048C144.397 141.392 143.715 142.352 142.84 142.928C141.965 143.504 140.749 143.792 139.192 143.792C138.723 143.792 138.253 143.771 137.784 143.728C137.336 143.707 136.877 143.675 136.408 143.632V139.888C136.835 139.931 137.272 139.973 137.72 140.016C138.168 140.059 138.616 140.069 139.064 140.048C139.661 139.984 140.099 139.749 140.376 139.344C140.675 138.939 140.824 138.491 140.824 138C140.824 137.637 140.76 137.296 140.632 136.976L134.84 121.456H139.672L143.416 132.784H143.48L147.096 121.456H151.8L144.888 140.048ZM157.354 129.744C157.354 130.405 157.418 131.056 157.546 131.696C157.674 132.315 157.887 132.88 158.186 133.392C158.506 133.883 158.922 134.277 159.434 134.576C159.946 134.875 160.586 135.024 161.354 135.024C162.122 135.024 162.762 134.875 163.274 134.576C163.807 134.277 164.223 133.883 164.522 133.392C164.842 132.88 165.066 132.315 165.194 131.696C165.322 131.056 165.386 130.405 165.386 129.744C165.386 129.083 165.322 128.432 165.194 127.792C165.066 127.152 164.842 126.587 164.522 126.096C164.223 125.605 163.807 125.211 163.274 124.912C162.762 124.592 162.122 124.432 161.354 124.432C160.586 124.432 159.946 124.592 159.434 124.912C158.922 125.211 158.506 125.605 158.186 126.096C157.887 126.587 157.674 127.152 157.546 127.792C157.418 128.432 157.354 129.083 157.354 129.744ZM152.81 129.744C152.81 128.421 153.012 127.227 153.418 126.16C153.823 125.072 154.399 124.155 155.146 123.408C155.892 122.64 156.788 122.053 157.834 121.648C158.879 121.221 160.052 121.008 161.354 121.008C162.655 121.008 163.828 121.221 164.874 121.648C165.94 122.053 166.847 122.64 167.594 123.408C168.34 124.155 168.916 125.072 169.322 126.16C169.727 127.227 169.93 128.421 169.93 129.744C169.93 131.067 169.727 132.261 169.322 133.328C168.916 134.395 168.34 135.312 167.594 136.08C166.847 136.827 165.94 137.403 164.874 137.808C163.828 138.213 162.655 138.416 161.354 138.416C160.052 138.416 158.879 138.213 157.834 137.808C156.788 137.403 155.892 136.827 155.146 136.08C154.399 135.312 153.823 134.395 153.418 133.328C153.012 132.261 152.81 131.067 152.81 129.744ZM188.404 138H184.084V135.696H183.988C183.412 136.656 182.666 137.349 181.748 137.776C180.831 138.203 179.892 138.416 178.932 138.416C177.716 138.416 176.714 138.256 175.924 137.936C175.156 137.616 174.548 137.168 174.1 136.592C173.652 135.995 173.332 135.28 173.14 134.448C172.97 133.595 172.884 132.656 172.884 131.632V121.456H177.428V130.8C177.428 132.165 177.642 133.189 178.068 133.872C178.495 134.533 179.252 134.864 180.34 134.864C181.578 134.864 182.474 134.501 183.028 133.776C183.583 133.029 183.86 131.813 183.86 130.128V121.456H188.404V138ZM191.853 121.456H196.173V124.528H196.237C196.45 124.016 196.738 123.547 197.101 123.12C197.464 122.672 197.88 122.299 198.349 122C198.818 121.68 199.32 121.435 199.853 121.264C200.386 121.093 200.941 121.008 201.517 121.008C201.816 121.008 202.146 121.061 202.509 121.168V125.392C202.296 125.349 202.04 125.317 201.741 125.296C201.442 125.253 201.154 125.232 200.877 125.232C200.045 125.232 199.341 125.371 198.765 125.648C198.189 125.925 197.72 126.309 197.357 126.8C197.016 127.269 196.77 127.824 196.621 128.464C196.472 129.104 196.397 129.797 196.397 130.544V138H191.853V121.456ZM216.717 132.624C216.717 133.115 216.813 133.541 217.005 133.904C217.218 134.245 217.485 134.533 217.805 134.768C218.125 134.981 218.487 135.141 218.893 135.248C219.319 135.355 219.757 135.408 220.205 135.408C220.525 135.408 220.855 135.376 221.197 135.312C221.559 135.227 221.879 135.109 222.157 134.96C222.455 134.789 222.701 134.576 222.893 134.32C223.085 134.043 223.181 133.701 223.181 133.296C223.181 132.613 222.722 132.101 221.805 131.76C220.909 131.419 219.65 131.077 218.029 130.736C217.367 130.587 216.717 130.416 216.077 130.224C215.458 130.011 214.903 129.744 214.413 129.424C213.922 129.083 213.527 128.667 213.229 128.176C212.93 127.664 212.781 127.045 212.781 126.32C212.781 125.253 212.983 124.379 213.389 123.696C213.815 123.013 214.37 122.48 215.053 122.096C215.735 121.691 216.503 121.413 217.357 121.264C218.21 121.093 219.085 121.008 219.981 121.008C220.877 121.008 221.741 121.093 222.573 121.264C223.426 121.435 224.183 121.723 224.845 122.128C225.506 122.533 226.05 123.077 226.477 123.76C226.925 124.421 227.191 125.264 227.277 126.288H222.957C222.893 125.413 222.562 124.827 221.965 124.528C221.367 124.208 220.663 124.048 219.853 124.048C219.597 124.048 219.319 124.069 219.021 124.112C218.722 124.133 218.445 124.197 218.189 124.304C217.954 124.411 217.751 124.571 217.581 124.784C217.41 124.976 217.325 125.243 217.325 125.584C217.325 125.989 217.474 126.32 217.773 126.576C218.071 126.832 218.455 127.045 218.925 127.216C219.415 127.365 219.97 127.504 220.589 127.632C221.207 127.76 221.837 127.899 222.477 128.048C223.138 128.197 223.778 128.379 224.397 128.592C225.037 128.805 225.602 129.093 226.093 129.456C226.583 129.797 226.978 130.235 227.277 130.768C227.575 131.28 227.725 131.92 227.725 132.688C227.725 133.776 227.501 134.693 227.053 135.44C226.626 136.165 226.061 136.752 225.357 137.2C224.653 137.648 223.842 137.957 222.925 138.128C222.029 138.32 221.111 138.416 220.173 138.416C219.213 138.416 218.274 138.32 217.357 138.128C216.439 137.936 215.618 137.616 214.893 137.168C214.189 136.72 213.602 136.133 213.133 135.408C212.685 134.661 212.439 133.733 212.397 132.624H216.717ZM230.8 115.152H235.344V127.408L241.072 121.456H246.448L240.208 127.536L247.152 138H241.648L237.104 130.608L235.344 132.304V138H230.8V115.152ZM253.431 118.896H248.887V115.152H253.431V118.896ZM248.887 121.456H253.431V138H248.887V121.456ZM257.137 115.152H261.681V138H257.137V115.152ZM265.387 115.152H269.931V138H265.387V115.152ZM277.029 132.624C277.029 133.115 277.125 133.541 277.317 133.904C277.531 134.245 277.797 134.533 278.117 134.768C278.437 134.981 278.8 135.141 279.205 135.248C279.632 135.355 280.069 135.408 280.517 135.408C280.837 135.408 281.168 135.376 281.509 135.312C281.872 135.227 282.192 135.109 282.469 134.96C282.768 134.789 283.013 134.576 283.205 134.32C283.397 134.043 283.493 133.701 283.493 133.296C283.493 132.613 283.035 132.101 282.117 131.76C281.221 131.419 279.963 131.077 278.341 130.736C277.68 130.587 277.029 130.416 276.389 130.224C275.771 130.011 275.216 129.744 274.725 129.424C274.235 129.083 273.84 128.667 273.541 128.176C273.243 127.664 273.093 127.045 273.093 126.32C273.093 125.253 273.296 124.379 273.701 123.696C274.128 123.013 274.683 122.48 275.365 122.096C276.048 121.691 276.816 121.413 277.669 121.264C278.523 121.093 279.397 121.008 280.293 121.008C281.189 121.008 282.053 121.093 282.885 121.264C283.739 121.435 284.496 121.723 285.157 122.128C285.819 122.533 286.363 123.077 286.789 123.76C287.237 124.421 287.504 125.264 287.589 126.288H283.269C283.205 125.413 282.875 124.827 282.277 124.528C281.68 124.208 280.976 124.048 280.165 124.048C279.909 124.048 279.632 124.069 279.333 124.112C279.035 124.133 278.757 124.197 278.501 124.304C278.267 124.411 278.064 124.571 277.893 124.784C277.723 124.976 277.637 125.243 277.637 125.584C277.637 125.989 277.787 126.32 278.085 126.576C278.384 126.832 278.768 127.045 279.237 127.216C279.728 127.365 280.283 127.504 280.901 127.632C281.52 127.76 282.149 127.899 282.789 128.048C283.451 128.197 284.091 128.379 284.709 128.592C285.349 128.805 285.915 129.093 286.405 129.456C286.896 129.797 287.291 130.235 287.589 130.768C287.888 131.28 288.037 131.92 288.037 132.688C288.037 133.776 287.813 134.693 287.365 135.44C286.939 136.165 286.373 136.752 285.669 137.2C284.965 137.648 284.155 137.957 283.237 138.128C282.341 138.32 281.424 138.416 280.485 138.416C279.525 138.416 278.587 138.32 277.669 138.128C276.752 137.936 275.931 137.616 275.205 137.168C274.501 136.72 273.915 136.133 273.445 135.408C272.997 134.661 272.752 133.733 272.709 132.624H277.029ZM299.411 126.544C299.475 125.477 299.742 124.592 300.211 123.888C300.68 123.184 301.278 122.619 302.003 122.192C302.728 121.765 303.539 121.467 304.435 121.296C305.352 121.104 306.27 121.008 307.187 121.008C308.019 121.008 308.862 121.072 309.715 121.2C310.568 121.307 311.347 121.531 312.051 121.872C312.755 122.213 313.331 122.693 313.779 123.312C314.227 123.909 314.451 124.709 314.451 125.712V134.32C314.451 135.067 314.494 135.781 314.579 136.464C314.664 137.147 314.814 137.659 315.027 138H310.419C310.334 137.744 310.259 137.488 310.195 137.232C310.152 136.955 310.12 136.677 310.099 136.4C309.374 137.147 308.52 137.669 307.539 137.968C306.558 138.267 305.555 138.416 304.531 138.416C303.742 138.416 303.006 138.32 302.323 138.128C301.64 137.936 301.043 137.637 300.531 137.232C300.019 136.827 299.614 136.315 299.315 135.696C299.038 135.077 298.899 134.341 298.899 133.488C298.899 132.549 299.059 131.781 299.379 131.184C299.72 130.565 300.147 130.075 300.659 129.712C301.192 129.349 301.79 129.083 302.451 128.912C303.134 128.72 303.816 128.571 304.499 128.464C305.182 128.357 305.854 128.272 306.515 128.208C307.176 128.144 307.763 128.048 308.275 127.92C308.787 127.792 309.192 127.611 309.491 127.376C309.79 127.12 309.928 126.757 309.907 126.288C309.907 125.797 309.822 125.413 309.651 125.136C309.502 124.837 309.288 124.613 309.011 124.464C308.755 124.293 308.446 124.187 308.083 124.144C307.742 124.08 307.368 124.048 306.963 124.048C306.067 124.048 305.363 124.24 304.851 124.624C304.339 125.008 304.04 125.648 303.955 126.544H299.411ZM309.907 129.904C309.715 130.075 309.47 130.213 309.171 130.32C308.894 130.405 308.584 130.48 308.243 130.544C307.923 130.608 307.582 130.661 307.219 130.704C306.856 130.747 306.494 130.8 306.131 130.864C305.79 130.928 305.448 131.013 305.107 131.12C304.787 131.227 304.499 131.376 304.243 131.568C304.008 131.739 303.816 131.963 303.667 132.24C303.518 132.517 303.443 132.869 303.443 133.296C303.443 133.701 303.518 134.043 303.667 134.32C303.816 134.597 304.019 134.821 304.275 134.992C304.531 135.141 304.83 135.248 305.171 135.312C305.512 135.376 305.864 135.408 306.227 135.408C307.123 135.408 307.816 135.259 308.307 134.96C308.798 134.661 309.16 134.309 309.395 133.904C309.63 133.477 309.768 133.051 309.811 132.624C309.875 132.197 309.907 131.856 309.907 131.6V129.904ZM317.978 121.456H322.298V123.76H322.394C322.97 122.8 323.717 122.107 324.634 121.68C325.551 121.232 326.49 121.008 327.45 121.008C328.666 121.008 329.658 121.179 330.426 121.52C331.215 121.84 331.834 122.299 332.282 122.896C332.73 123.472 333.039 124.187 333.21 125.04C333.402 125.872 333.498 126.8 333.498 127.824V138H328.954V128.656C328.954 127.291 328.741 126.277 328.314 125.616C327.887 124.933 327.13 124.592 326.042 124.592C324.805 124.592 323.909 124.965 323.354 125.712C322.799 126.437 322.522 127.643 322.522 129.328V138H317.978V121.456ZM348.691 129.68C348.691 128.997 348.627 128.347 348.499 127.728C348.371 127.088 348.147 126.533 347.827 126.064C347.528 125.573 347.133 125.179 346.643 124.88C346.152 124.581 345.533 124.432 344.787 124.432C344.04 124.432 343.411 124.581 342.899 124.88C342.387 125.179 341.971 125.573 341.651 126.064C341.352 126.555 341.128 127.12 340.979 127.76C340.851 128.379 340.787 129.029 340.787 129.712C340.787 130.352 340.861 130.992 341.011 131.632C341.16 132.272 341.395 132.848 341.715 133.36C342.056 133.851 342.472 134.256 342.963 134.576C343.475 134.875 344.083 135.024 344.787 135.024C345.533 135.024 346.152 134.875 346.643 134.576C347.155 134.277 347.56 133.883 347.859 133.392C348.157 132.88 348.371 132.304 348.499 131.664C348.627 131.024 348.691 130.363 348.691 129.68ZM348.755 135.888H348.691C348.157 136.784 347.453 137.435 346.579 137.84C345.725 138.224 344.755 138.416 343.667 138.416C342.429 138.416 341.341 138.181 340.403 137.712C339.464 137.221 338.685 136.571 338.067 135.76C337.469 134.928 337.011 133.979 336.691 132.912C336.392 131.845 336.243 130.736 336.243 129.584C336.243 128.475 336.392 127.408 336.691 126.384C337.011 125.339 337.469 124.421 338.067 123.632C338.685 122.843 339.453 122.213 340.371 121.744C341.288 121.253 342.355 121.008 343.571 121.008C344.552 121.008 345.48 121.221 346.355 121.648C347.251 122.053 347.955 122.661 348.467 123.472H348.531V115.152H353.075V138H348.755V135.888ZM368.936 132.624C368.936 133.115 369.032 133.541 369.224 133.904C369.437 134.245 369.704 134.533 370.024 134.768C370.344 134.981 370.706 135.141 371.112 135.248C371.538 135.355 371.976 135.408 372.424 135.408C372.744 135.408 373.074 135.376 373.416 135.312C373.778 135.227 374.098 135.109 374.376 134.96C374.674 134.789 374.92 134.576 375.112 134.32C375.304 134.043 375.4 133.701 375.4 133.296C375.4 132.613 374.941 132.101 374.024 131.76C373.128 131.419 371.869 131.077 370.248 130.736C369.586 130.587 368.936 130.416 368.296 130.224C367.677 130.011 367.122 129.744 366.632 129.424C366.141 129.083 365.746 128.667 365.448 128.176C365.149 127.664 365 127.045 365 126.32C365 125.253 365.202 124.379 365.608 123.696C366.034 123.013 366.589 122.48 367.272 122.096C367.954 121.691 368.722 121.413 369.576 121.264C370.429 121.093 371.304 121.008 372.2 121.008C373.096 121.008 373.96 121.093 374.792 121.264C375.645 121.435 376.402 121.723 377.064 122.128C377.725 122.533 378.269 123.077 378.696 123.76C379.144 124.421 379.41 125.264 379.496 126.288H375.176C375.112 125.413 374.781 124.827 374.184 124.528C373.586 124.208 372.882 124.048 372.072 124.048C371.816 124.048 371.538 124.069 371.24 124.112C370.941 124.133 370.664 124.197 370.408 124.304C370.173 124.411 369.97 124.571 369.8 124.784C369.629 124.976 369.544 125.243 369.544 125.584C369.544 125.989 369.693 126.32 369.992 126.576C370.29 126.832 370.674 127.045 371.144 127.216C371.634 127.365 372.189 127.504 372.808 127.632C373.426 127.76 374.056 127.899 374.696 128.048C375.357 128.197 375.997 128.379 376.616 128.592C377.256 128.805 377.821 129.093 378.312 129.456C378.802 129.797 379.197 130.235 379.496 130.768C379.794 131.28 379.944 131.92 379.944 132.688C379.944 133.776 379.72 134.693 379.272 135.44C378.845 136.165 378.28 136.752 377.576 137.2C376.872 137.648 376.061 137.957 375.144 138.128C374.248 138.32 373.33 138.416 372.392 138.416C371.432 138.416 370.493 138.32 369.576 138.128C368.658 137.936 367.837 137.616 367.112 137.168C366.408 136.72 365.821 136.133 365.352 135.408C364.904 134.661 364.658 133.733 364.616 132.624H368.936ZM393.739 127.952C393.526 126.8 393.142 125.925 392.587 125.328C392.054 124.731 391.232 124.432 390.123 124.432C389.398 124.432 388.79 124.56 388.299 124.816C387.83 125.051 387.446 125.349 387.147 125.712C386.87 126.075 386.667 126.459 386.539 126.864C386.432 127.269 386.368 127.632 386.347 127.952H393.739ZM386.347 130.832C386.411 132.304 386.784 133.371 387.467 134.032C388.15 134.693 389.131 135.024 390.411 135.024C391.328 135.024 392.118 134.8 392.779 134.352C393.44 133.883 393.846 133.392 393.995 132.88H397.995C397.355 134.864 396.374 136.283 395.051 137.136C393.728 137.989 392.128 138.416 390.251 138.416C388.95 138.416 387.776 138.213 386.731 137.808C385.686 137.381 384.8 136.784 384.075 136.016C383.35 135.248 382.784 134.331 382.379 133.264C381.995 132.197 381.803 131.024 381.803 129.744C381.803 128.507 382.006 127.355 382.411 126.288C382.816 125.221 383.392 124.304 384.139 123.536C384.886 122.747 385.771 122.128 386.795 121.68C387.84 121.232 388.992 121.008 390.251 121.008C391.659 121.008 392.886 121.285 393.931 121.84C394.976 122.373 395.83 123.099 396.491 124.016C397.174 124.933 397.664 125.979 397.963 127.152C398.262 128.325 398.368 129.552 398.283 130.832H386.347ZM405.65 118.896H401.106V115.152H405.65V118.896ZM401.106 121.456H405.65V138H401.106V121.456ZM408.204 134.576L416.812 124.88H408.844V121.456H422.796V124.88L414.188 134.576H423.404V138H408.204V134.576ZM436.958 127.952C436.744 126.8 436.36 125.925 435.806 125.328C435.272 124.731 434.451 124.432 433.342 124.432C432.616 124.432 432.008 124.56 431.518 124.816C431.048 125.051 430.664 125.349 430.366 125.712C430.088 126.075 429.886 126.459 429.758 126.864C429.651 127.269 429.587 127.632 429.566 127.952H436.958ZM429.566 130.832C429.63 132.304 430.003 133.371 430.686 134.032C431.368 134.693 432.35 135.024 433.63 135.024C434.547 135.024 435.336 134.8 435.998 134.352C436.659 133.883 437.064 133.392 437.214 132.88H441.214C440.574 134.864 439.592 136.283 438.27 137.136C436.947 137.989 435.347 138.416 433.47 138.416C432.168 138.416 430.995 138.213 429.95 137.808C428.904 137.381 428.019 136.784 427.294 136.016C426.568 135.248 426.003 134.331 425.598 133.264C425.214 132.197 425.022 131.024 425.022 129.744C425.022 128.507 425.224 127.355 425.63 126.288C426.035 125.221 426.611 124.304 427.358 123.536C428.104 122.747 428.99 122.128 430.014 121.68C431.059 121.232 432.211 121.008 433.47 121.008C434.878 121.008 436.104 121.285 437.15 121.84C438.195 122.373 439.048 123.099 439.71 124.016C440.392 124.933 440.883 125.979 441.182 127.152C441.48 128.325 441.587 129.552 441.502 130.832H429.566ZM453.103 121.456H457.423V123.76H457.519C458.095 122.8 458.842 122.107 459.759 121.68C460.676 121.232 461.615 121.008 462.575 121.008C463.791 121.008 464.783 121.179 465.551 121.52C466.34 121.84 466.959 122.299 467.407 122.896C467.855 123.472 468.164 124.187 468.335 125.04C468.527 125.872 468.623 126.8 468.623 127.824V138H464.079V128.656C464.079 127.291 463.866 126.277 463.439 125.616C463.012 124.933 462.255 124.592 461.167 124.592C459.93 124.592 459.034 124.965 458.479 125.712C457.924 126.437 457.647 127.643 457.647 129.328V138H453.103V121.456ZM483.208 127.952C482.994 126.8 482.61 125.925 482.056 125.328C481.522 124.731 480.701 124.432 479.592 124.432C478.866 124.432 478.258 124.56 477.768 124.816C477.298 125.051 476.914 125.349 476.616 125.712C476.338 126.075 476.136 126.459 476.008 126.864C475.901 127.269 475.837 127.632 475.816 127.952H483.208ZM475.816 130.832C475.88 132.304 476.253 133.371 476.936 134.032C477.618 134.693 478.6 135.024 479.88 135.024C480.797 135.024 481.586 134.8 482.248 134.352C482.909 133.883 483.314 133.392 483.464 132.88H487.464C486.824 134.864 485.842 136.283 484.52 137.136C483.197 137.989 481.597 138.416 479.72 138.416C478.418 138.416 477.245 138.213 476.2 137.808C475.154 137.381 474.269 136.784 473.544 136.016C472.818 135.248 472.253 134.331 471.848 133.264C471.464 132.197 471.272 131.024 471.272 129.744C471.272 128.507 471.474 127.355 471.88 126.288C472.285 125.221 472.861 124.304 473.608 123.536C474.354 122.747 475.24 122.128 476.264 121.68C477.309 121.232 478.461 121.008 479.72 121.008C481.128 121.008 482.354 121.285 483.4 121.84C484.445 122.373 485.298 123.099 485.96 124.016C486.642 124.933 487.133 125.979 487.432 127.152C487.73 128.325 487.837 129.552 487.752 130.832H475.816ZM509.359 138H504.687L501.743 126.896H501.679L498.863 138H494.159L488.911 121.456H493.711L496.751 132.688H496.815L499.567 121.456H503.983L506.799 132.656H506.863L509.903 121.456H514.575L509.359 138ZM41.76 168.744C41.76 169.405 41.824 170.056 41.952 170.696C42.08 171.315 42.2933 171.88 42.592 172.392C42.912 172.883 43.328 173.277 43.84 173.576C44.352 173.875 44.992 174.024 45.76 174.024C46.528 174.024 47.168 173.875 47.68 173.576C48.2133 173.277 48.6293 172.883 48.928 172.392C49.248 171.88 49.472 171.315 49.6 170.696C49.728 170.056 49.792 169.405 49.792 168.744C49.792 168.083 49.728 167.432 49.6 166.792C49.472 166.152 49.248 165.587 48.928 165.096C48.6293 164.605 48.2133 164.211 47.68 163.912C47.168 163.592 46.528 163.432 45.76 163.432C44.992 163.432 44.352 163.592 43.84 163.912C43.328 164.211 42.912 164.605 42.592 165.096C42.2933 165.587 42.08 166.152 41.952 166.792C41.824 167.432 41.76 168.083 41.76 168.744ZM37.216 168.744C37.216 167.421 37.4187 166.227 37.824 165.16C38.2293 164.072 38.8053 163.155 39.552 162.408C40.2987 161.64 41.1947 161.053 42.24 160.648C43.2853 160.221 44.4587 160.008 45.76 160.008C47.0613 160.008 48.2347 160.221 49.28 160.648C50.3467 161.053 51.2533 161.64 52 162.408C52.7467 163.155 53.3227 164.072 53.728 165.16C54.1333 166.227 54.336 167.421 54.336 168.744C54.336 170.067 54.1333 171.261 53.728 172.328C53.3227 173.395 52.7467 174.312 52 175.08C51.2533 175.827 50.3467 176.403 49.28 176.808C48.2347 177.213 47.0613 177.416 45.76 177.416C44.4587 177.416 43.2853 177.213 42.24 176.808C41.1947 176.403 40.2987 175.827 39.552 175.08C38.8053 174.312 38.2293 173.395 37.824 172.328C37.4187 171.261 37.216 170.067 37.216 168.744ZM65.6425 174.024C66.3892 174.024 67.0078 173.875 67.4985 173.576C68.0105 173.277 68.4158 172.893 68.7145 172.424C69.0345 171.933 69.2585 171.368 69.3865 170.728C69.5145 170.088 69.5785 169.437 69.5785 168.776C69.5785 168.115 69.5038 167.464 69.3545 166.824C69.2265 166.184 69.0025 165.619 68.6825 165.128C68.3625 164.616 67.9465 164.211 67.4345 163.912C66.9438 163.592 66.3358 163.432 65.6105 163.432C64.8638 163.432 64.2345 163.592 63.7225 163.912C63.2318 164.211 62.8265 164.605 62.5065 165.096C62.2078 165.587 61.9945 166.152 61.8665 166.792C61.7385 167.432 61.6745 168.093 61.6745 168.776C61.6745 169.437 61.7385 170.088 61.8665 170.728C62.0158 171.368 62.2398 171.933 62.5385 172.424C62.8585 172.893 63.2745 173.277 63.7865 173.576C64.2985 173.875 64.9172 174.024 65.6425 174.024ZM57.2905 160.456H61.6105V162.568H61.6745C62.2292 161.672 62.9332 161.021 63.7865 160.616C64.6398 160.211 65.5785 160.008 66.6025 160.008C67.9038 160.008 69.0238 160.253 69.9625 160.744C70.9012 161.235 71.6798 161.885 72.2985 162.696C72.9172 163.507 73.3758 164.456 73.6745 165.544C73.9732 166.611 74.1225 167.731 74.1225 168.904C74.1225 170.013 73.9732 171.08 73.6745 172.104C73.3758 173.128 72.9172 174.035 72.2985 174.824C71.7012 175.613 70.9438 176.243 70.0265 176.712C69.1305 177.181 68.0745 177.416 66.8585 177.416C65.8345 177.416 64.8852 177.213 64.0105 176.808C63.1572 176.381 62.4532 175.763 61.8985 174.952H61.8345V182.792H57.2905V160.456ZM85.205 174.024C85.9517 174.024 86.5703 173.875 87.061 173.576C87.573 173.277 87.9783 172.893 88.277 172.424C88.597 171.933 88.821 171.368 88.949 170.728C89.077 170.088 89.141 169.437 89.141 168.776C89.141 168.115 89.0663 167.464 88.917 166.824C88.789 166.184 88.565 165.619 88.245 165.128C87.925 164.616 87.509 164.211 86.997 163.912C86.5063 163.592 85.8983 163.432 85.173 163.432C84.4263 163.432 83.797 163.592 83.285 163.912C82.7943 164.211 82.389 164.605 82.069 165.096C81.7703 165.587 81.557 166.152 81.429 166.792C81.301 167.432 81.237 168.093 81.237 168.776C81.237 169.437 81.301 170.088 81.429 170.728C81.5783 171.368 81.8023 171.933 82.101 172.424C82.421 172.893 82.837 173.277 83.349 173.576C83.861 173.875 84.4797 174.024 85.205 174.024ZM76.853 160.456H81.173V162.568H81.237C81.7917 161.672 82.4957 161.021 83.349 160.616C84.2023 160.211 85.141 160.008 86.165 160.008C87.4663 160.008 88.5863 160.253 89.525 160.744C90.4637 161.235 91.2423 161.885 91.861 162.696C92.4797 163.507 92.9383 164.456 93.237 165.544C93.5357 166.611 93.685 167.731 93.685 168.904C93.685 170.013 93.5357 171.08 93.237 172.104C92.9383 173.128 92.4797 174.035 91.861 174.824C91.2637 175.613 90.5063 176.243 89.589 176.712C88.693 177.181 87.637 177.416 86.421 177.416C85.397 177.416 84.4477 177.213 83.573 176.808C82.7197 176.381 82.0157 175.763 81.461 174.952H81.397V182.792H76.853V160.456ZM100.448 168.744C100.448 169.405 100.512 170.056 100.64 170.696C100.768 171.315 100.981 171.88 101.28 172.392C101.6 172.883 102.016 173.277 102.528 173.576C103.04 173.875 103.68 174.024 104.448 174.024C105.216 174.024 105.856 173.875 106.368 173.576C106.901 173.277 107.317 172.883 107.616 172.392C107.936 171.88 108.16 171.315 108.288 170.696C108.416 170.056 108.48 169.405 108.48 168.744C108.48 168.083 108.416 167.432 108.288 166.792C108.16 166.152 107.936 165.587 107.616 165.096C107.317 164.605 106.901 164.211 106.368 163.912C105.856 163.592 105.216 163.432 104.448 163.432C103.68 163.432 103.04 163.592 102.528 163.912C102.016 164.211 101.6 164.605 101.28 165.096C100.981 165.587 100.768 166.152 100.64 166.792C100.512 167.432 100.448 168.083 100.448 168.744ZM95.9035 168.744C95.9035 167.421 96.1062 166.227 96.5115 165.16C96.9168 164.072 97.4928 163.155 98.2395 162.408C98.9862 161.64 99.8822 161.053 100.928 160.648C101.973 160.221 103.146 160.008 104.448 160.008C105.749 160.008 106.922 160.221 107.968 160.648C109.034 161.053 109.941 161.64 110.688 162.408C111.434 163.155 112.01 164.072 112.416 165.16C112.821 166.227 113.024 167.421 113.024 168.744C113.024 170.067 112.821 171.261 112.416 172.328C112.01 173.395 111.434 174.312 110.688 175.08C109.941 175.827 109.034 176.403 107.968 176.808C106.922 177.213 105.749 177.416 104.448 177.416C103.146 177.416 101.973 177.213 100.928 176.808C99.8822 176.403 98.9862 175.827 98.2395 175.08C97.4928 174.312 96.9168 173.395 96.5115 172.328C96.1062 171.261 95.9035 170.067 95.9035 168.744ZM115.978 160.456H120.298V163.528H120.362C120.575 163.016 120.863 162.547 121.226 162.12C121.589 161.672 122.005 161.299 122.474 161C122.943 160.68 123.445 160.435 123.978 160.264C124.511 160.093 125.066 160.008 125.642 160.008C125.941 160.008 126.271 160.061 126.634 160.168V164.392C126.421 164.349 126.165 164.317 125.866 164.296C125.567 164.253 125.279 164.232 125.002 164.232C124.17 164.232 123.466 164.371 122.89 164.648C122.314 164.925 121.845 165.309 121.482 165.8C121.141 166.269 120.895 166.824 120.746 167.464C120.597 168.104 120.522 168.797 120.522 169.544V177H115.978V160.456ZM134.176 160.456H137.504V163.496H134.176V171.688C134.176 172.456 134.304 172.968 134.56 173.224C134.816 173.48 135.328 173.608 136.095 173.608C136.352 173.608 136.597 173.597 136.832 173.576C137.066 173.555 137.29 173.523 137.504 173.48V177C137.12 177.064 136.693 177.107 136.224 177.128C135.754 177.149 135.296 177.16 134.848 177.16C134.144 177.16 133.472 177.107 132.832 177C132.213 176.915 131.658 176.733 131.168 176.456C130.698 176.179 130.325 175.784 130.048 175.272C129.77 174.76 129.632 174.088 129.632 173.256V163.496H126.88V160.456H129.632V155.496H134.176V160.456ZM155.186 177H150.866V174.696H150.77C150.194 175.656 149.447 176.349 148.53 176.776C147.612 177.203 146.674 177.416 145.714 177.416C144.498 177.416 143.495 177.256 142.706 176.936C141.938 176.616 141.33 176.168 140.882 175.592C140.434 174.995 140.114 174.28 139.922 173.448C139.751 172.595 139.666 171.656 139.666 170.632V160.456H144.21V169.8C144.21 171.165 144.423 172.189 144.85 172.872C145.276 173.533 146.034 173.864 147.122 173.864C148.359 173.864 149.255 173.501 149.81 172.776C150.364 172.029 150.642 170.813 150.642 169.128V160.456H155.186V177ZM158.634 160.456H162.954V162.76H163.05C163.626 161.8 164.373 161.107 165.29 160.68C166.208 160.232 167.146 160.008 168.106 160.008C169.322 160.008 170.314 160.179 171.082 160.52C171.872 160.84 172.49 161.299 172.938 161.896C173.386 162.472 173.696 163.187 173.866 164.04C174.058 164.872 174.154 165.8 174.154 166.824V177H169.61V167.656C169.61 166.291 169.397 165.277 168.97 164.616C168.544 163.933 167.786 163.592 166.698 163.592C165.461 163.592 164.565 163.965 164.01 164.712C163.456 165.437 163.178 166.643 163.178 168.328V177H158.634V160.456ZM182.275 157.896H177.731V154.152H182.275V157.896ZM177.731 160.456H182.275V177H177.731V160.456ZM191.613 160.456H194.941V163.496H191.613V171.688C191.613 172.456 191.741 172.968 191.997 173.224C192.253 173.48 192.765 173.608 193.533 173.608C193.789 173.608 194.034 173.597 194.269 173.576C194.504 173.555 194.728 173.523 194.941 173.48V177C194.557 177.064 194.13 177.107 193.661 177.128C193.192 177.149 192.733 177.16 192.285 177.16C191.581 177.16 190.909 177.107 190.269 177C189.65 176.915 189.096 176.733 188.605 176.456C188.136 176.179 187.762 175.784 187.485 175.272C187.208 174.76 187.069 174.088 187.069 173.256V163.496H184.317V160.456H187.069V155.496H191.613V160.456ZM201.775 157.896H197.231V154.152H201.775V157.896ZM197.231 160.456H201.775V177H197.231V160.456ZM216.489 166.952C216.276 165.8 215.892 164.925 215.337 164.328C214.804 163.731 213.982 163.432 212.873 163.432C212.148 163.432 211.54 163.56 211.049 163.816C210.58 164.051 210.196 164.349 209.897 164.712C209.62 165.075 209.417 165.459 209.289 165.864C209.182 166.269 209.118 166.632 209.097 166.952H216.489ZM209.097 169.832C209.161 171.304 209.534 172.371 210.217 173.032C210.9 173.693 211.881 174.024 213.161 174.024C214.078 174.024 214.868 173.8 215.529 173.352C216.19 172.883 216.596 172.392 216.745 171.88H220.745C220.105 173.864 219.124 175.283 217.801 176.136C216.478 176.989 214.878 177.416 213.001 177.416C211.7 177.416 210.526 177.213 209.481 176.808C208.436 176.381 207.55 175.784 206.825 175.016C206.1 174.248 205.534 173.331 205.129 172.264C204.745 171.197 204.553 170.024 204.553 168.744C204.553 167.507 204.756 166.355 205.161 165.288C205.566 164.221 206.142 163.304 206.889 162.536C207.636 161.747 208.521 161.128 209.545 160.68C210.59 160.232 211.742 160.008 213.001 160.008C214.409 160.008 215.636 160.285 216.681 160.84C217.726 161.373 218.58 162.099 219.241 163.016C219.924 163.933 220.414 164.979 220.713 166.152C221.012 167.325 221.118 168.552 221.033 169.832H209.097ZM227.248 171.624C227.248 172.115 227.344 172.541 227.536 172.904C227.749 173.245 228.016 173.533 228.336 173.768C228.656 173.981 229.019 174.141 229.424 174.248C229.851 174.355 230.288 174.408 230.736 174.408C231.056 174.408 231.387 174.376 231.728 174.312C232.091 174.227 232.411 174.109 232.688 173.96C232.987 173.789 233.232 173.576 233.424 173.32C233.616 173.043 233.712 172.701 233.712 172.296C233.712 171.613 233.253 171.101 232.336 170.76C231.44 170.419 230.181 170.077 228.56 169.736C227.899 169.587 227.248 169.416 226.608 169.224C225.989 169.011 225.435 168.744 224.944 168.424C224.453 168.083 224.059 167.667 223.76 167.176C223.461 166.664 223.312 166.045 223.312 165.32C223.312 164.253 223.515 163.379 223.92 162.696C224.347 162.013 224.901 161.48 225.584 161.096C226.267 160.691 227.035 160.413 227.888 160.264C228.741 160.093 229.616 160.008 230.512 160.008C231.408 160.008 232.272 160.093 233.104 160.264C233.957 160.435 234.715 160.723 235.376 161.128C236.037 161.533 236.581 162.077 237.008 162.76C237.456 163.421 237.723 164.264 237.808 165.288H233.488C233.424 164.413 233.093 163.827 232.496 163.528C231.899 163.208 231.195 163.048 230.384 163.048C230.128 163.048 229.851 163.069 229.552 163.112C229.253 163.133 228.976 163.197 228.72 163.304C228.485 163.411 228.283 163.571 228.112 163.784C227.941 163.976 227.856 164.243 227.856 164.584C227.856 164.989 228.005 165.32 228.304 165.576C228.603 165.832 228.987 166.045 229.456 166.216C229.947 166.365 230.501 166.504 231.12 166.632C231.739 166.76 232.368 166.899 233.008 167.048C233.669 167.197 234.309 167.379 234.928 167.592C235.568 167.805 236.133 168.093 236.624 168.456C237.115 168.797 237.509 169.235 237.808 169.768C238.107 170.28 238.256 170.92 238.256 171.688C238.256 172.776 238.032 173.693 237.584 174.44C237.157 175.165 236.592 175.752 235.888 176.2C235.184 176.648 234.373 176.957 233.456 177.128C232.56 177.32 231.643 177.416 230.704 177.416C229.744 177.416 228.805 177.32 227.888 177.128C226.971 176.936 226.149 176.616 225.424 176.168C224.72 175.72 224.133 175.133 223.664 174.408C223.216 173.661 222.971 172.733 222.928 171.624H227.248ZM241.108 172.072H246.132V177H241.108V172.072ZM262.632 169.416C262.632 170.184 262.771 170.835 263.048 171.368C263.325 171.901 263.688 172.339 264.136 172.68C264.605 173 265.149 173.245 265.768 173.416C266.387 173.565 267.027 173.64 267.688 173.64C268.136 173.64 268.616 173.608 269.128 173.544C269.64 173.459 270.12 173.309 270.568 173.096C271.016 172.883 271.389 172.595 271.688 172.232C271.987 171.848 272.136 171.368 272.136 170.792C272.136 170.173 271.933 169.672 271.528 169.288C271.144 168.904 270.632 168.584 269.992 168.328C269.352 168.072 268.627 167.848 267.816 167.656C267.005 167.464 266.184 167.251 265.352 167.016C264.499 166.803 263.667 166.547 262.856 166.248C262.045 165.928 261.32 165.523 260.68 165.032C260.04 164.541 259.517 163.933 259.112 163.208C258.728 162.461 258.536 161.565 258.536 160.52C258.536 159.347 258.781 158.333 259.272 157.48C259.784 156.605 260.445 155.88 261.256 155.304C262.067 154.728 262.984 154.301 264.008 154.024C265.032 153.747 266.056 153.608 267.08 153.608C268.275 153.608 269.416 153.747 270.504 154.024C271.613 154.28 272.595 154.707 273.448 155.304C274.301 155.901 274.973 156.669 275.464 157.608C275.976 158.525 276.232 159.645 276.232 160.968H271.368C271.325 160.285 271.176 159.72 270.92 159.272C270.685 158.824 270.365 158.472 269.96 158.216C269.555 157.96 269.085 157.779 268.552 157.672C268.04 157.565 267.475 157.512 266.856 157.512C266.451 157.512 266.045 157.555 265.64 157.64C265.235 157.725 264.861 157.875 264.52 158.088C264.2 158.301 263.933 158.568 263.72 158.888C263.507 159.208 263.4 159.613 263.4 160.104C263.4 160.552 263.485 160.915 263.656 161.192C263.827 161.469 264.157 161.725 264.648 161.96C265.16 162.195 265.853 162.429 266.728 162.664C267.624 162.899 268.787 163.197 270.216 163.56C270.643 163.645 271.229 163.805 271.976 164.04C272.744 164.253 273.501 164.605 274.248 165.096C274.995 165.587 275.635 166.248 276.168 167.08C276.723 167.891 277 168.936 277 170.216C277 171.261 276.797 172.232 276.392 173.128C275.987 174.024 275.379 174.803 274.568 175.464C273.779 176.104 272.787 176.605 271.592 176.968C270.419 177.331 269.053 177.512 267.496 177.512C266.237 177.512 265.011 177.352 263.816 177.032C262.643 176.733 261.597 176.253 260.68 175.592C259.784 174.931 259.069 174.088 258.536 173.064C258.003 172.04 257.747 170.824 257.768 169.416H262.632ZM285.269 160.456H288.597V163.496H285.269V171.688C285.269 172.456 285.397 172.968 285.653 173.224C285.909 173.48 286.421 173.608 287.189 173.608C287.445 173.608 287.691 173.597 287.925 173.576C288.16 173.555 288.384 173.523 288.597 173.48V177C288.213 177.064 287.787 177.107 287.317 177.128C286.848 177.149 286.389 177.16 285.941 177.16C285.237 177.16 284.565 177.107 283.925 177C283.307 176.915 282.752 176.733 282.261 176.456C281.792 176.179 281.419 175.784 281.141 175.272C280.864 174.76 280.725 174.088 280.725 173.256V163.496H277.973V160.456H280.725V155.496H285.269V160.456ZM290.567 165.544C290.631 164.477 290.898 163.592 291.367 162.888C291.837 162.184 292.434 161.619 293.159 161.192C293.885 160.765 294.695 160.467 295.591 160.296C296.509 160.104 297.426 160.008 298.343 160.008C299.175 160.008 300.018 160.072 300.871 160.2C301.725 160.307 302.503 160.531 303.207 160.872C303.911 161.213 304.487 161.693 304.935 162.312C305.383 162.909 305.607 163.709 305.607 164.712V173.32C305.607 174.067 305.65 174.781 305.735 175.464C305.821 176.147 305.97 176.659 306.183 177H301.575C301.49 176.744 301.415 176.488 301.351 176.232C301.309 175.955 301.277 175.677 301.255 175.4C300.53 176.147 299.677 176.669 298.695 176.968C297.714 177.267 296.711 177.416 295.687 177.416C294.898 177.416 294.162 177.32 293.479 177.128C292.797 176.936 292.199 176.637 291.687 176.232C291.175 175.827 290.77 175.315 290.471 174.696C290.194 174.077 290.055 173.341 290.055 172.488C290.055 171.549 290.215 170.781 290.535 170.184C290.877 169.565 291.303 169.075 291.815 168.712C292.349 168.349 292.946 168.083 293.607 167.912C294.29 167.72 294.973 167.571 295.655 167.464C296.338 167.357 297.01 167.272 297.671 167.208C298.333 167.144 298.919 167.048 299.431 166.92C299.943 166.792 300.349 166.611 300.647 166.376C300.946 166.12 301.085 165.757 301.063 165.288C301.063 164.797 300.978 164.413 300.807 164.136C300.658 163.837 300.445 163.613 300.167 163.464C299.911 163.293 299.602 163.187 299.239 163.144C298.898 163.08 298.525 163.048 298.119 163.048C297.223 163.048 296.519 163.24 296.007 163.624C295.495 164.008 295.197 164.648 295.111 165.544H290.567ZM301.063 168.904C300.871 169.075 300.626 169.213 300.327 169.32C300.05 169.405 299.741 169.48 299.399 169.544C299.079 169.608 298.738 169.661 298.375 169.704C298.013 169.747 297.65 169.8 297.287 169.864C296.946 169.928 296.605 170.013 296.263 170.12C295.943 170.227 295.655 170.376 295.399 170.568C295.165 170.739 294.973 170.963 294.823 171.24C294.674 171.517 294.599 171.869 294.599 172.296C294.599 172.701 294.674 173.043 294.823 173.32C294.973 173.597 295.175 173.821 295.431 173.992C295.687 174.141 295.986 174.248 296.327 174.312C296.669 174.376 297.021 174.408 297.383 174.408C298.279 174.408 298.973 174.259 299.463 173.96C299.954 173.661 300.317 173.309 300.551 172.904C300.786 172.477 300.925 172.051 300.967 171.624C301.031 171.197 301.063 170.856 301.063 170.6V168.904ZM317.294 179.048C316.804 180.392 316.121 181.352 315.246 181.928C314.372 182.504 313.156 182.792 311.598 182.792C311.129 182.792 310.66 182.771 310.19 182.728C309.742 182.707 309.284 182.675 308.814 182.632V178.888C309.241 178.931 309.678 178.973 310.126 179.016C310.574 179.059 311.022 179.069 311.47 179.048C312.068 178.984 312.505 178.749 312.782 178.344C313.081 177.939 313.23 177.491 313.23 177C313.23 176.637 313.166 176.296 313.038 175.976L307.246 160.456H312.078L315.822 171.784H315.886L319.502 160.456H324.206L317.294 179.048ZM340.394 160.456H343.722V163.496H340.394V171.688C340.394 172.456 340.522 172.968 340.778 173.224C341.034 173.48 341.546 173.608 342.314 173.608C342.57 173.608 342.816 173.597 343.05 173.576C343.285 173.555 343.509 173.523 343.722 173.48V177C343.338 177.064 342.912 177.107 342.442 177.128C341.973 177.149 341.514 177.16 341.066 177.16C340.362 177.16 339.69 177.107 339.05 177C338.432 176.915 337.877 176.733 337.386 176.456C336.917 176.179 336.544 175.784 336.266 175.272C335.989 174.76 335.85 174.088 335.85 173.256V163.496H333.098V160.456H335.85V155.496H340.394V160.456ZM361.404 177H357.084V174.696H356.988C356.412 175.656 355.666 176.349 354.748 176.776C353.831 177.203 352.892 177.416 351.932 177.416C350.716 177.416 349.714 177.256 348.924 176.936C348.156 176.616 347.548 176.168 347.1 175.592C346.652 174.995 346.332 174.28 346.14 173.448C345.97 172.595 345.884 171.656 345.884 170.632V160.456H350.428V169.8C350.428 171.165 350.642 172.189 351.068 172.872C351.495 173.533 352.252 173.864 353.34 173.864C354.578 173.864 355.474 173.501 356.028 172.776C356.583 172.029 356.86 170.813 356.86 169.128V160.456H361.404V177ZM364.853 160.456H369.173V162.76H369.269C369.845 161.8 370.592 161.107 371.509 160.68C372.426 160.232 373.365 160.008 374.325 160.008C375.541 160.008 376.533 160.179 377.301 160.52C378.09 160.84 378.709 161.299 379.157 161.896C379.605 162.472 379.914 163.187 380.085 164.04C380.277 164.872 380.373 165.8 380.373 166.824V177H375.829V167.656C375.829 166.291 375.616 165.277 375.189 164.616C374.762 163.933 374.005 163.592 372.917 163.592C371.68 163.592 370.784 163.965 370.229 164.712C369.674 165.437 369.397 166.643 369.397 168.328V177H364.853V160.456ZM394.958 166.952C394.744 165.8 394.36 164.925 393.806 164.328C393.272 163.731 392.451 163.432 391.342 163.432C390.616 163.432 390.008 163.56 389.518 163.816C389.048 164.051 388.664 164.349 388.366 164.712C388.088 165.075 387.886 165.459 387.758 165.864C387.651 166.269 387.587 166.632 387.566 166.952H394.958ZM387.566 169.832C387.63 171.304 388.003 172.371 388.686 173.032C389.368 173.693 390.35 174.024 391.63 174.024C392.547 174.024 393.336 173.8 393.998 173.352C394.659 172.883 395.064 172.392 395.214 171.88H399.214C398.574 173.864 397.592 175.283 396.27 176.136C394.947 176.989 393.347 177.416 391.47 177.416C390.168 177.416 388.995 177.213 387.95 176.808C386.904 176.381 386.019 175.784 385.294 175.016C384.568 174.248 384.003 173.331 383.598 172.264C383.214 171.197 383.022 170.024 383.022 168.744C383.022 167.507 383.224 166.355 383.63 165.288C384.035 164.221 384.611 163.304 385.358 162.536C386.104 161.747 386.99 161.128 388.014 160.68C389.059 160.232 390.211 160.008 391.47 160.008C392.878 160.008 394.104 160.285 395.15 160.84C396.195 161.373 397.048 162.099 397.71 163.016C398.392 163.933 398.883 164.979 399.182 166.152C399.48 167.325 399.587 168.552 399.502 169.832H387.566ZM413.941 168.68C413.941 167.997 413.877 167.347 413.749 166.728C413.621 166.088 413.397 165.533 413.077 165.064C412.778 164.573 412.383 164.179 411.893 163.88C411.402 163.581 410.783 163.432 410.037 163.432C409.29 163.432 408.661 163.581 408.149 163.88C407.637 164.179 407.221 164.573 406.901 165.064C406.602 165.555 406.378 166.12 406.229 166.76C406.101 167.379 406.037 168.029 406.037 168.712C406.037 169.352 406.111 169.992 406.261 170.632C406.41 171.272 406.645 171.848 406.965 172.36C407.306 172.851 407.722 173.256 408.213 173.576C408.725 173.875 409.333 174.024 410.037 174.024C410.783 174.024 411.402 173.875 411.893 173.576C412.405 173.277 412.81 172.883 413.109 172.392C413.407 171.88 413.621 171.304 413.749 170.664C413.877 170.024 413.941 169.363 413.941 168.68ZM414.005 174.888H413.941C413.407 175.784 412.703 176.435 411.829 176.84C410.975 177.224 410.005 177.416 408.917 177.416C407.679 177.416 406.591 177.181 405.653 176.712C404.714 176.221 403.935 175.571 403.317 174.76C402.719 173.928 402.261 172.979 401.941 171.912C401.642 170.845 401.493 169.736 401.493 168.584C401.493 167.475 401.642 166.408 401.941 165.384C402.261 164.339 402.719 163.421 403.317 162.632C403.935 161.843 404.703 161.213 405.621 160.744C406.538 160.253 407.605 160.008 408.821 160.008C409.802 160.008 410.73 160.221 411.605 160.648C412.501 161.053 413.205 161.661 413.717 162.472H413.781V154.152H418.325V177H414.005V174.888ZM436.426 160.456H439.754V163.496H436.426V171.688C436.426 172.456 436.554 172.968 436.81 173.224C437.066 173.48 437.578 173.608 438.345 173.608C438.602 173.608 438.847 173.597 439.082 173.576C439.316 173.555 439.54 173.523 439.754 173.48V177C439.37 177.064 438.943 177.107 438.474 177.128C438.004 177.149 437.546 177.16 437.098 177.16C436.394 177.16 435.722 177.107 435.082 177C434.463 176.915 433.908 176.733 433.418 176.456C432.948 176.179 432.575 175.784 432.298 175.272C432.02 174.76 431.882 174.088 431.882 173.256V163.496H429.13V160.456H431.882V155.496H436.426V160.456ZM445.948 168.744C445.948 169.405 446.012 170.056 446.14 170.696C446.268 171.315 446.481 171.88 446.78 172.392C447.1 172.883 447.516 173.277 448.028 173.576C448.54 173.875 449.18 174.024 449.948 174.024C450.716 174.024 451.356 173.875 451.868 173.576C452.401 173.277 452.817 172.883 453.116 172.392C453.436 171.88 453.66 171.315 453.788 170.696C453.916 170.056 453.98 169.405 453.98 168.744C453.98 168.083 453.916 167.432 453.788 166.792C453.66 166.152 453.436 165.587 453.116 165.096C452.817 164.605 452.401 164.211 451.868 163.912C451.356 163.592 450.716 163.432 449.948 163.432C449.18 163.432 448.54 163.592 448.028 163.912C447.516 164.211 447.1 164.605 446.78 165.096C446.481 165.587 446.268 166.152 446.14 166.792C446.012 167.432 445.948 168.083 445.948 168.744ZM441.404 168.744C441.404 167.421 441.606 166.227 442.012 165.16C442.417 164.072 442.993 163.155 443.74 162.408C444.486 161.64 445.382 161.053 446.428 160.648C447.473 160.221 448.646 160.008 449.948 160.008C451.249 160.008 452.422 160.221 453.468 160.648C454.534 161.053 455.441 161.64 456.188 162.408C456.934 163.155 457.51 164.072 457.916 165.16C458.321 166.227 458.524 167.421 458.524 168.744C458.524 170.067 458.321 171.261 457.916 172.328C457.51 173.395 456.934 174.312 456.188 175.08C455.441 175.827 454.534 176.403 453.468 176.808C452.422 177.213 451.249 177.416 449.948 177.416C448.646 177.416 447.473 177.213 446.428 176.808C445.382 176.403 444.486 175.827 443.74 175.08C442.993 174.312 442.417 173.395 442.012 172.328C441.606 171.261 441.404 170.067 441.404 168.744ZM481.52 166.952C481.307 165.8 480.923 164.925 480.368 164.328C479.835 163.731 479.014 163.432 477.904 163.432C477.179 163.432 476.571 163.56 476.08 163.816C475.611 164.051 475.227 164.349 474.928 164.712C474.651 165.075 474.448 165.459 474.32 165.864C474.214 166.269 474.15 166.632 474.128 166.952H481.52ZM474.128 169.832C474.192 171.304 474.566 172.371 475.248 173.032C475.931 173.693 476.912 174.024 478.192 174.024C479.11 174.024 479.899 173.8 480.56 173.352C481.222 172.883 481.627 172.392 481.776 171.88H485.776C485.136 173.864 484.155 175.283 482.832 176.136C481.51 176.989 479.91 177.416 478.032 177.416C476.731 177.416 475.558 177.213 474.512 176.808C473.467 176.381 472.582 175.784 471.856 175.016C471.131 174.248 470.566 173.331 470.16 172.264C469.776 171.197 469.584 170.024 469.584 168.744C469.584 167.507 469.787 166.355 470.192 165.288C470.598 164.221 471.174 163.304 471.92 162.536C472.667 161.747 473.552 161.128 474.576 160.68C475.622 160.232 476.774 160.008 478.032 160.008C479.44 160.008 480.667 160.285 481.712 160.84C482.758 161.373 483.611 162.099 484.272 163.016C484.955 163.933 485.446 164.979 485.744 166.152C486.043 167.325 486.15 168.552 486.064 169.832H474.128ZM488.759 160.456H493.079V162.76H493.175C493.751 161.8 494.498 161.107 495.415 160.68C496.333 160.232 497.271 160.008 498.231 160.008C499.447 160.008 500.439 160.179 501.207 160.52C501.997 160.84 502.615 161.299 503.063 161.896C503.511 162.472 503.821 163.187 503.991 164.04C504.183 164.872 504.279 165.8 504.279 166.824V177H499.735V167.656C499.735 166.291 499.522 165.277 499.095 164.616C498.669 163.933 497.911 163.592 496.823 163.592C495.586 163.592 494.69 163.965 494.135 164.712C493.581 165.437 493.303 166.643 493.303 168.328V177H488.759V160.456ZM507.728 160.456H512.048V163.528H512.112C512.325 163.016 512.613 162.547 512.976 162.12C513.339 161.672 513.755 161.299 514.224 161C514.693 160.68 515.195 160.435 515.728 160.264C516.261 160.093 516.816 160.008 517.392 160.008C517.691 160.008 518.021 160.061 518.384 160.168V164.392C518.171 164.349 517.915 164.317 517.616 164.296C517.317 164.253 517.029 164.232 516.752 164.232C515.92 164.232 515.216 164.371 514.64 164.648C514.064 164.925 513.595 165.309 513.232 165.8C512.891 166.269 512.645 166.824 512.496 167.464C512.347 168.104 512.272 168.797 512.272 169.544V177H507.728V160.456ZM523.635 168.744C523.635 169.405 523.699 170.056 523.827 170.696C523.955 171.315 524.168 171.88 524.467 172.392C524.787 172.883 525.203 173.277 525.715 173.576C526.227 173.875 526.867 174.024 527.635 174.024C528.403 174.024 529.043 173.875 529.555 173.576C530.088 173.277 530.504 172.883 530.803 172.392C531.123 171.88 531.347 171.315 531.475 170.696C531.603 170.056 531.667 169.405 531.667 168.744C531.667 168.083 531.603 167.432 531.475 166.792C531.347 166.152 531.123 165.587 530.803 165.096C530.504 164.605 530.088 164.211 529.555 163.912C529.043 163.592 528.403 163.432 527.635 163.432C526.867 163.432 526.227 163.592 525.715 163.912C525.203 164.211 524.787 164.605 524.467 165.096C524.168 165.587 523.955 166.152 523.827 166.792C523.699 167.432 523.635 168.083 523.635 168.744ZM519.091 168.744C519.091 167.421 519.294 166.227 519.699 165.16C520.104 164.072 520.68 163.155 521.427 162.408C522.174 161.64 523.07 161.053 524.115 160.648C525.16 160.221 526.334 160.008 527.635 160.008C528.936 160.008 530.11 160.221 531.155 160.648C532.222 161.053 533.128 161.64 533.875 162.408C534.622 163.155 535.198 164.072 535.603 165.16C536.008 166.227 536.211 167.421 536.211 168.744C536.211 170.067 536.008 171.261 535.603 172.328C535.198 173.395 534.622 174.312 533.875 175.08C533.128 175.827 532.222 176.403 531.155 176.808C530.11 177.213 528.936 177.416 527.635 177.416C526.334 177.416 525.16 177.213 524.115 176.808C523.07 176.403 522.174 175.827 521.427 175.08C520.68 174.312 520.104 173.395 519.699 172.328C519.294 171.261 519.091 170.067 519.091 168.744ZM539.294 154.152H543.838V177H539.294V154.152ZM547.544 154.152H552.088V177H547.544V154.152ZM565.564 163.496H562.844V160.456H565.564V159.176C565.564 157.704 566.022 156.499 566.94 155.56C567.857 154.621 569.244 154.152 571.1 154.152C571.505 154.152 571.91 154.173 572.316 154.216C572.721 154.237 573.116 154.259 573.5 154.28V157.672C572.966 157.608 572.412 157.576 571.836 157.576C571.217 157.576 570.769 157.725 570.492 158.024C570.236 158.301 570.108 158.781 570.108 159.464V160.456H573.244V163.496H570.108V177H565.564V163.496ZM575.996 160.456H580.54V177H575.996V160.456ZM580.54 157.896H575.996V154.152H580.54V157.896ZM584.134 160.456H588.454V163.528H588.518C588.732 163.016 589.02 162.547 589.382 162.12C589.745 161.672 590.161 161.299 590.63 161C591.1 160.68 591.601 160.435 592.134 160.264C592.668 160.093 593.222 160.008 593.798 160.008C594.097 160.008 594.428 160.061 594.79 160.168V164.392C594.577 164.349 594.321 164.317 594.022 164.296C593.724 164.253 593.436 164.232 593.158 164.232C592.326 164.232 591.622 164.371 591.046 164.648C590.47 164.925 590.001 165.309 589.638 165.8C589.297 166.269 589.052 166.824 588.902 167.464C588.753 168.104 588.678 168.797 588.678 169.544V177H584.134V160.456ZM600.092 171.624C600.092 172.115 600.188 172.541 600.38 172.904C600.593 173.245 600.86 173.533 601.18 173.768C601.5 173.981 601.862 174.141 602.268 174.248C602.694 174.355 603.132 174.408 603.58 174.408C603.9 174.408 604.23 174.376 604.572 174.312C604.934 174.227 605.254 174.109 605.532 173.96C605.83 173.789 606.076 173.576 606.268 173.32C606.46 173.043 606.556 172.701 606.556 172.296C606.556 171.613 606.097 171.101 605.18 170.76C604.284 170.419 603.025 170.077 601.404 169.736C600.742 169.587 600.092 169.416 599.452 169.224C598.833 169.011 598.278 168.744 597.788 168.424C597.297 168.083 596.902 167.667 596.604 167.176C596.305 166.664 596.156 166.045 596.156 165.32C596.156 164.253 596.358 163.379 596.764 162.696C597.19 162.013 597.745 161.48 598.428 161.096C599.11 160.691 599.878 160.413 600.732 160.264C601.585 160.093 602.46 160.008 603.356 160.008C604.252 160.008 605.116 160.093 605.948 160.264C606.801 160.435 607.558 160.723 608.22 161.128C608.881 161.533 609.425 162.077 609.852 162.76C610.3 163.421 610.566 164.264 610.652 165.288H606.332C606.268 164.413 605.937 163.827 605.34 163.528C604.742 163.208 604.038 163.048 603.228 163.048C602.972 163.048 602.694 163.069 602.396 163.112C602.097 163.133 601.82 163.197 601.564 163.304C601.329 163.411 601.126 163.571 600.956 163.784C600.785 163.976 600.7 164.243 600.7 164.584C600.7 164.989 600.849 165.32 601.148 165.576C601.446 165.832 601.83 166.045 602.3 166.216C602.79 166.365 603.345 166.504 603.964 166.632C604.582 166.76 605.212 166.899 605.852 167.048C606.513 167.197 607.153 167.379 607.772 167.592C608.412 167.805 608.977 168.093 609.468 168.456C609.958 168.797 610.353 169.235 610.652 169.768C610.95 170.28 611.1 170.92 611.1 171.688C611.1 172.776 610.876 173.693 610.428 174.44C610.001 175.165 609.436 175.752 608.732 176.2C608.028 176.648 607.217 176.957 606.3 177.128C605.404 177.32 604.486 177.416 603.548 177.416C602.588 177.416 601.649 177.32 600.732 177.128C599.814 176.936 598.993 176.616 598.268 176.168C597.564 175.72 596.977 175.133 596.508 174.408C596.06 173.661 595.814 172.733 595.772 171.624H600.092ZM619.519 160.456H622.847V163.496H619.519V171.688C619.519 172.456 619.647 172.968 619.903 173.224C620.159 173.48 620.671 173.608 621.439 173.608C621.695 173.608 621.941 173.597 622.175 173.576C622.41 173.555 622.634 173.523 622.847 173.48V177C622.463 177.064 622.037 177.107 621.567 177.128C621.098 177.149 620.639 177.16 620.191 177.16C619.487 177.16 618.815 177.107 618.175 177C617.557 176.915 617.002 176.733 616.511 176.456C616.042 176.179 615.669 175.784 615.391 175.272C615.114 174.76 614.975 174.088 614.975 173.256V163.496H612.223V160.456H614.975V155.496H619.519V160.456ZM625.233 172.072H630.257V177H625.233V172.072ZM630.097 160.296L628.849 170.152H626.577L625.361 160.296V154.152H630.097V160.296Z" fill="white"/>
<g opacity="0.6">
<g clip-path="url(#clip1_2362_249)">
<path d="M1132.35 -204.115C1142.83 -210.163 1152.94 -212.617 1162.32 -211.224C1179.91 -208.599 1193.98 -192.723 1202.97 -165.331L1203.17 -164.75L1115.46 24.2201C1109.22 37.671 1104.48 54.5653 1102.47 70.5599L1082.84 226.94C1078.95 257.94 1065.53 289.253 1052.3 298.226C1048.88 300.547 1045.57 301.331 1042.49 300.527C1016.43 293.765 999.155 256.289 995.092 197.715C987.247 84.6789 1029.23 -75.9621 1088.67 -160.376C1103.29 -181.133 1118.15 -195.93 1132.35 -204.124L1132.35 -204.115ZM1199.85 -164.938C1191.24 -190.791 1178.11 -205.734 1161.86 -208.163C1141 -211.278 1115.91 -193.671 1091.21 -158.589C1032.12 -74.6669 990.385 85.0796 998.185 197.513C1002.15 254.679 1018.59 291.132 1043.28 297.543C1045.46 298.106 1047.91 297.484 1050.58 295.675C1063.16 287.14 1075.98 256.781 1079.79 226.555L1099.42 70.1751C1101.47 53.8751 1106.3 36.6554 1112.67 22.9232L1199.87 -164.939L1199.85 -164.938Z" fill="url(#paint1_linear_2362_249)"/>
<path d="M1138.69 -209.911C1151.17 -217.118 1163.05 -219.75 1173.77 -217.456C1192.71 -213.406 1207.01 -194.65 1215.12 -163.191L1215.27 -162.615L1115.98 25.838C1108.91 39.2588 1103.2 56.5185 1100.33 73.1751L1072.22 236.05C1066.66 268.313 1051.51 299.645 1037.35 307.496C1033.69 309.533 1030.27 309.936 1027.16 308.684C1000.98 298.163 985.321 256.349 984.193 193.956C982.008 73.3688 1033.16 -91.0788 1098.2 -172.636C1111.91 -189.808 1125.62 -202.365 1138.68 -209.906L1138.69 -209.911ZM1211.98 -162.994C1204.16 -192.884 1190.73 -210.67 1173.13 -214.431C1152.4 -218.858 1126.65 -203.332 1100.63 -170.708C1035.96 -89.6271 985.113 73.9397 987.286 193.905C988.391 255 1003.34 295.792 1028.32 305.825C1030.52 306.711 1033.05 306.365 1035.85 304.805C1049.01 297.393 1063.75 266.977 1069.18 235.53L1097.29 72.6551C1100.21 55.6885 1106.03 38.1022 1113.25 24.4035L1211.98 -162.994Z" fill="url(#paint2_linear_2362_249)"/>
<path d="M1144.72 -215.031C1159.5 -223.563 1173.33 -226.223 1185.71 -222.759C1206.06 -217.068 1220.48 -195.151 1227.42 -159.385L1227.54 -158.812L1116.44 27.5902C1108.52 40.868 1101.81 58.3733 1098.02 75.6361L1060.92 244.276C1053.62 277.476 1036.43 308.657 1021.77 315.268C1017.84 317.035 1014.26 317.044 1011.1 315.298C984.993 300.802 971.201 254.601 973.261 188.545C977.246 60.7089 1037.95 -106.588 1108.59 -184.4C1121.04 -198.119 1133.17 -208.372 1144.72 -215.039L1144.72 -215.031ZM1224.28 -159.369C1217.53 -193.569 1203.92 -214.457 1184.89 -219.777C1164.33 -225.527 1138.06 -212.224 1110.89 -182.313C1040.68 -104.972 980.332 61.4325 976.364 188.641C974.341 253.504 987.554 298.683 1012.62 312.603C1014.87 313.852 1017.52 313.806 1020.5 312.453C1034.31 306.227 1050.79 275.968 1057.91 243.612L1095 74.9717C1098.86 57.4103 1105.71 39.5643 1113.78 26.0121L1224.27 -159.377L1224.28 -159.369Z" fill="url(#paint3_linear_2362_249)"/>
<path d="M1150.03 -218.888C1167.73 -229.105 1184.02 -231.917 1198.12 -226.991C1219.91 -219.384 1234.31 -194.063 1239.78 -153.745L1239.85 -153.16L1116.82 29.5406C1108.05 42.5496 1100.3 60.2017 1095.53 77.9604L1048.96 251.52C1039.73 285.874 1021.09 315.939 1005.61 321.442C1001.42 322.926 997.546 322.506 994.393 320.239C968.554 301.553 956.888 250.958 962.391 181.419C973.044 46.7069 1043.66 -122.355 1119.81 -195.466C1130.22 -205.456 1140.34 -213.283 1150.03 -218.88L1150.03 -218.888ZM1236.63 -153.922C1231.28 -192.669 1217.62 -216.92 1197.1 -224.082C1176.44 -231.286 1150.46 -220.622 1121.95 -193.251C1046.26 -120.593 976.067 47.5857 965.472 181.646C960.058 250.082 971.256 299.678 996.198 317.711C998.52 319.385 1001.33 319.658 1004.56 318.509C1018.94 313.397 1037.13 283.616 1045.96 250.702L1092.53 77.1433C1097.39 59.0638 1105.3 41.0826 1114.24 27.7979L1236.62 -153.93L1236.63 -153.922Z" fill="url(#paint4_linear_2362_249)"/>
<path d="M1154.3 -221.58C1175.61 -233.887 1194.93 -236.838 1210.99 -230.053C1234.26 -220.221 1248.48 -191.223 1252.1 -146.2L1252.15 -145.61L1117.09 31.6279C1107.47 44.2505 1098.65 61.9039 1092.86 80.069L1036.36 257.602C1025.35 292.195 1004.98 321.535 988.928 325.834C984.365 327.059 980.272 326.169 977.077 323.264C951.719 300.19 942.445 245.211 951.633 172.438C969.454 31.322 1050.29 -138.336 1131.82 -205.75C1139.51 -212.11 1147.01 -217.394 1154.28 -221.592L1154.3 -221.58ZM1248.97 -146.538C1245.41 -189.386 1231.5 -218.031 1209.78 -227.208C1189.37 -235.832 1163.11 -227.587 1133.8 -203.361C1052.79 -136.374 972.454 32.3872 954.711 172.83C945.643 244.59 954.56 298.594 979.161 320.976C981.565 323.167 984.586 323.798 988.126 322.849C1002.96 318.87 1022.87 289.79 1033.41 256.669L1089.91 79.127C1095.79 60.6365 1104.8 42.6399 1114.62 29.7485L1248.96 -146.542L1248.97 -146.538Z" fill="url(#paint5_linear_2362_249)"/>
<path d="M1157.15 -223.03C1182.98 -237.943 1206 -240.999 1224.3 -231.799C1248.68 -219.546 1262.89 -185.74 1264.3 -136.608L1264.32 -136.012L1117.28 33.8845C1106.81 45.9774 1096.89 63.4947 1090.05 81.9627L1023.2 262.41C1010.43 296.881 988.353 325.233 971.866 328.343C966.87 329.287 962.519 327.874 959.289 324.252C934.632 296.588 928.027 237.292 941.152 161.573C966.629 14.6163 1057.92 -154.336 1144.66 -215.04C1148.89 -218.004 1153.06 -220.668 1157.16 -223.035L1157.15 -223.03ZM1261.19 -137.124C1259.72 -184.733 1246.13 -217.37 1222.92 -229.035C1202.78 -239.153 1176.33 -233.433 1146.43 -212.504C1060.27 -152.209 969.546 15.838 944.188 162.098C931.221 236.89 937.564 295.242 961.593 322.195C964.093 325.002 967.353 326.048 971.284 325.307C986.802 322.377 1007.88 294.876 1020.31 261.338L1087.15 80.8911C1094.11 62.0918 1104.24 44.23 1114.94 31.8623L1261.19 -137.124Z" fill="url(#paint6_linear_2362_249)"/>
<path d="M1158.17 -223.189L1158.22 -223.217C1189.63 -241.338 1217.25 -244.401 1238.07 -232.082C1263.82 -216.845 1277.38 -178.784 1276.26 -124.893L1276.24 -124.278L1117.33 36.2965C1106.02 47.7164 1094.99 64.9591 1087.05 83.5939L1009.5 265.77C994.796 300.314 971.636 326.817 954.434 328.801C948.922 329.434 944.3 327.419 941.055 322.982C917.349 290.561 913.671 227.038 930.967 148.683C964.544 -3.43811 1066.47 -170.252 1158.18 -223.202L1158.17 -223.189ZM1273.16 -125.57C1274.16 -177.964 1261.14 -214.833 1236.49 -229.413C1216.68 -241.135 1190.15 -238.07 1159.76 -220.536L1159.71 -220.508C1068.65 -167.934 967.392 -2.03557 933.974 149.365C916.869 226.85 920.358 289.464 943.542 321.166C946.127 324.705 949.669 326.238 954.073 325.734C969.989 323.908 992.581 297.603 1006.64 264.565L1084.2 82.3894C1092.28 63.4091 1103.55 45.8195 1115.12 34.1316L1273.17 -125.562L1273.16 -125.57Z" fill="url(#paint7_linear_2362_249)"/>
<path d="M1156.79 -221.944C1162.08 -224.996 1167.31 -227.717 1172.52 -230.096C1204.31 -244.621 1231.9 -244.826 1252.31 -230.694C1279.29 -212.014 1291.92 -169.479 1287.87 -110.932L1287.83 -110.299L1117.27 38.8582C1105.14 49.4606 1092.99 66.2528 1083.94 84.9252L995.35 267.54C978.999 301.237 954.383 326.271 936.799 327.066C930.702 327.343 925.778 324.656 922.536 319.284C900.029 281.954 899.567 214.329 921.257 133.742C961.119 -14.3859 1064.17 -168.468 1156.79 -221.957L1156.79 -221.944ZM1284.83 -111.776C1288.66 -168.859 1276.5 -210.176 1250.54 -228.144C1231.08 -241.621 1204.55 -241.32 1173.8 -227.278C1078.15 -183.592 966.163 -21.2562 924.226 134.565C902.753 214.344 903.099 281.092 925.172 317.708C927.821 322.11 931.684 324.217 936.644 324C952.894 323.26 976.929 298.421 992.552 266.206L1081.14 83.5911C1090.38 64.5545 1102.8 47.4175 1115.22 36.5494L1284.82 -111.771L1284.83 -111.776Z" fill="url(#paint8_linear_2362_249)"/>
<path d="M1152.67 -219.459C1164.48 -226.277 1176.12 -231.683 1187.48 -235.52C1219.57 -246.362 1247.06 -243.561 1266.99 -227.435C1294.96 -204.796 1306.33 -157.643 1298.99 -94.6573L1298.92 -93.9966L1117.04 41.5813C1104.12 51.2088 1090.86 67.3781 1080.66 85.9426L980.786 267.577C962.621 300.609 937.235 323.409 919.016 323.03C912.255 322.889 906.998 319.418 903.81 312.995C882.785 270.624 885.789 199.068 912.079 116.681C957.423 -25.4268 1059.79 -165.833 1152.66 -219.454L1152.67 -219.459ZM1296 -95.6854C1303.05 -157.248 1292.06 -203.167 1265.05 -225.034C1245.99 -240.459 1219.51 -243.072 1188.47 -232.588C1088.53 -198.835 965.868 -41.732 915.03 117.623C888.985 199.25 885.905 269.961 906.577 311.626C909.261 317.027 913.463 319.816 919.075 319.938C935.904 320.295 960.718 297.652 978.072 266.087L1077.95 84.4475C1088.37 65.5081 1101.94 48.9751 1115.19 39.1004L1296 -95.6854Z" fill="url(#paint9_linear_2362_249)"/>
<path d="M1145.24 -215.744C1165.07 -227.191 1184.52 -235.254 1203.05 -239.308C1235.42 -246.379 1262.76 -240.405 1282.14 -222.034C1310.76 -194.903 1320.49 -143.035 1309.53 -76.0081L1309.42 -75.3157L1116.68 44.4215C1103.01 52.912 1088.65 68.2802 1077.27 86.5751L965.928 265.713C946.349 297.218 919.751 318.105 901.249 316.523C893.73 315.876 888.121 311.513 885.035 303.915C865.766 256.398 872.541 181.136 903.619 97.4273C953.36 -36.5384 1053.15 -162.573 1145.25 -215.749L1145.24 -215.744ZM1306.59 -77.1948C1317.2 -142.85 1307.77 -193.465 1280.01 -219.786C1261.41 -237.426 1235.03 -243.129 1203.71 -236.285C1099.96 -213.606 966.64 -63.4204 906.519 98.5069C875.702 181.502 868.92 255.944 887.902 302.759C890.555 309.306 895.138 312.906 901.515 313.453C918.625 314.916 944.617 294.163 963.31 264.091L1074.65 84.9525C1086.27 66.2652 1100.99 50.5425 1115.05 41.8056L1306.6 -77.1913L1306.59 -77.1948Z" fill="url(#paint10_linear_2362_249)"/>
<path d="M1133.92 -210.962C1163.45 -228.016 1192.42 -238.678 1219.15 -241.292C1251.8 -244.484 1278.97 -235.093 1297.73 -214.152C1326.52 -181.999 1334.19 -125.45 1319.33 -54.9118L1319.17 -54.1832L1116.14 47.3779C1101.76 54.5646 1086.33 68.9417 1073.77 86.8062L950.849 261.797C930 291.477 902.349 310.239 883.597 307.435C875.216 306.179 869.247 300.799 866.329 291.857C849.112 239.122 859.908 160.421 895.951 75.9384C948.746 -47.7977 1043.96 -159.039 1133.93 -210.98L1133.92 -210.962ZM1316.45 -56.2665C1330.91 -125.477 1323.44 -180.796 1295.42 -212.082C1277.35 -232.269 1251.08 -241.302 1219.44 -238.209C1112.37 -227.748 968.521 -86.2692 898.789 77.1732C863.034 160.969 852.278 238.877 869.256 290.915C871.823 298.78 876.795 303.316 884.041 304.391C901.676 307.027 928.101 288.789 948.303 260.035L1071.23 85.04C1084.07 66.7759 1099.94 52.0405 1114.75 44.6258L1316.44 -56.2699L1316.45 -56.2665Z" fill="url(#paint11_linear_2362_249)"/>
<path d="M1118.34 -205.416C1159.42 -229.132 1199.87 -242.222 1235.7 -241.276C1268.72 -240.405 1295.7 -227.304 1313.73 -203.369C1342.07 -165.741 1347.22 -104.633 1328.25 -31.2934L1328.04 -30.5156L1115.44 50.4828C1100.41 56.2106 1083.92 69.3892 1070.19 86.6299L935.642 255.721C913.347 283.742 885.441 299.81 866.202 295.693C856.873 293.695 850.526 287.134 847.851 276.717C833.002 218.712 848.084 136.897 889.237 52.2506C943.462 -59.2987 1032.23 -155.693 1118.34 -205.416ZM1325.44 -32.8418C1343.95 -104.912 1338.92 -164.782 1311.26 -201.509C1293.81 -224.662 1267.66 -237.346 1235.63 -238.183C1125.77 -241.068 971.642 -110.181 892.023 53.6022C851.194 137.606 836.187 218.651 850.856 275.948C853.209 285.151 858.747 290.932 866.849 292.663C884.963 296.54 911.642 280.92 933.224 253.788L1067.77 84.6966C1081.83 67.0282 1098.81 53.505 1114.34 47.5827L1325.45 -32.8465L1325.44 -32.8418Z" fill="url(#paint12_linear_2362_249)"/>
<path d="M1098.43 -199.681C1152.77 -231.051 1206.93 -246.201 1252.6 -239.114C1286.09 -233.921 1312.86 -216.684 1330 -189.267C1357.16 -145.83 1359.35 -80.4453 1336.13 -5.16837L1335.88 -4.34953L1114.56 53.641C1098.93 57.7303 1081.43 69.5133 1066.54 85.9484L920.432 247.294C896.833 273.357 868.869 286.639 849.198 281.134C838.808 278.22 832.09 270.322 829.769 258.281C817.599 195.019 837.22 110.454 883.593 26.2857C937.459 -71.4801 1018.11 -153.305 1098.42 -199.677L1098.43 -199.681ZM1333.43 -6.9035C1356.1 -80.9701 1353.97 -145.125 1327.38 -187.633C1310.72 -214.266 1284.7 -231.006 1252.13 -236.064C1140.14 -253.437 976.038 -135.079 886.308 27.7762C840.272 111.327 820.778 195.136 832.813 257.695C834.893 268.509 840.85 275.577 850.037 278.156C868.301 283.269 895.669 270.027 918.136 245.215L1064.25 83.869C1079.52 66.9942 1097.58 54.8872 1113.77 50.6463L1333.43 -6.9035Z" fill="url(#paint13_linear_2362_249)"/>
<path d="M1074.68 -194.6C1143.65 -234.421 1213.87 -250.866 1269.74 -234.631C1303.84 -224.725 1330.34 -202.843 1346.38 -171.356C1371.55 -121.955 1370.29 -52.7498 1342.84 23.5012L1342.52 24.3785L1113.47 56.8828C1097.32 59.1771 1078.86 69.3348 1062.84 84.7698L905.331 236.408C880.949 259.875 852.457 270.589 832.741 263.711C821.362 259.741 814.091 250.059 812.273 236.448C803.11 167.97 827.497 81.0863 879.187 -1.91186C930.819 -84.8224 1002.06 -152.662 1074.69 -194.592L1074.68 -194.6ZM1340.24 21.5745C1367.1 -53.5171 1368.3 -121.507 1343.63 -169.949C1327.99 -200.649 1302.14 -221.997 1268.88 -231.659C1155.44 -264.626 981.805 -160.832 881.809 -0.281227C830.492 82.1224 806.265 168.252 815.332 236.037C817.021 248.617 823.383 257.175 833.757 260.793C852.385 267.29 879.635 256.849 903.182 234.189L1060.69 82.5512C1077.18 66.6761 1096.26 56.2035 1113.03 53.8249L1340.24 21.5745Z" fill="url(#paint14_linear_2362_249)"/>
<path d="M1048.06 -191.243C1132.54 -240.019 1221.02 -256.361 1287 -227.648C1377.34 -188.339 1401.94 -74.8692 1348.2 54.6996L1347.82 55.6273L1112.19 60.1569C1095.6 60.4754 1076.25 68.8141 1059.11 83.0369L890.464 222.924C865.12 243.954 836.938 251.767 816.942 243.316C804.351 237.996 796.75 226.542 795.523 211.061C789.695 137.448 819.075 48.7332 876.136 -32.3239C923.742 -99.9519 984.781 -154.7 1048.07 -191.24L1048.06 -191.243ZM1345.73 52.5802C1398.26 -74.9262 1374.23 -186.326 1285.76 -224.818C1230.96 -248.665 1158.26 -241.542 1081.06 -204.777C1003.67 -167.925 931.795 -106.044 878.658 -30.5483C822.004 49.9374 792.823 137.908 798.592 210.818C799.743 225.302 806.497 235.554 818.139 240.467C836.783 248.343 864.396 240.522 888.483 220.544L1057.13 80.6567C1074.81 65.9936 1094.85 57.3944 1112.12 57.0647L1345.72 52.5767L1345.73 52.5802Z" fill="url(#paint15_linear_2362_249)"/>
<path d="M1019.89 -190.76C1120.1 -248.617 1228.79 -262.659 1304.26 -218.027C1394.37 -164.732 1413.59 -41.587 1352.08 88.4066L1351.62 89.4023L1110.72 63.468C1093.78 61.6448 1073.62 67.9371 1055.4 80.7355L875.975 206.729C850.19 224.836 821.812 229.889 801.939 219.903C788.096 212.942 780.209 199.506 779.725 182.046C777.568 103.428 812.147 13.4253 874.586 -64.8917C916.584 -117.571 967.068 -160.251 1019.9 -190.752L1019.89 -190.76ZM1349.76 86.0851C1409.98 -42.0135 1391.12 -163.06 1302.68 -215.37C1247.93 -247.748 1173.33 -249.699 1092.61 -220.869C1011.7 -191.972 935.141 -135.897 877.002 -62.9794C815.009 14.7765 780.673 104.054 782.803 181.949C783.249 198.217 790.532 210.7 803.309 217.128C822.17 226.602 849.321 221.641 874.181 204.186L1053.61 78.1926C1072.43 64.971 1093.36 58.4807 1111.03 60.3822L1349.76 86.0851Z" fill="url(#paint16_linear_2362_249)"/>
<path d="M990.815 -193.588C1027.08 -214.525 1065.46 -230.09 1104.5 -239.379C1189.32 -259.575 1266.34 -247.579 1321.34 -205.598C1410.52 -137.547 1423.76 -4.85388 1354.29 124.574L1353.73 125.626L1109.03 66.7882C1091.83 62.6494 1071.04 66.7838 1051.69 77.8237L861.977 187.724L861.839 187.803C835.79 202.843 807.443 204.982 787.814 193.37C772.717 184.444 764.633 168.79 765.071 149.301C766.92 65.8655 806.872 -24.8427 874.676 -99.5564C908.914 -137.28 948.412 -169.106 990.807 -193.583L990.815 -193.588ZM1352.14 122.053C1420.23 -5.65583 1407.16 -136.234 1319.47 -203.15C1265.22 -244.554 1189.12 -256.357 1105.21 -236.376C1021.14 -216.356 940.088 -167.033 876.968 -97.4851C809.66 -23.3187 770.001 66.6566 768.162 149.359C767.756 167.681 775.302 182.366 789.395 190.7C808.065 201.739 835.216 199.596 860.297 185.115L860.436 185.035L1050.15 75.1352L1050.29 75.0554C1070.17 63.5752 1091.84 59.4601 1109.75 63.7658L1352.14 122.053Z" fill="url(#paint17_linear_2362_249)"/>
<path d="M963.669 -201.803C1012.29 -229.877 1065.11 -247.933 1118.52 -254.21C1206.17 -264.52 1284.17 -241.804 1338.15 -190.253C1425.64 -106.714 1432.28 35.2936 1354.7 163.113L1354.04 164.213L1107.16 70.0556C1089.82 63.4434 1068.29 64.9674 1048.08 74.2499L848.69 165.781C822.023 178.022 794.383 177.215 774.735 163.619C758.683 152.512 750.334 133.975 751.828 112.748C758.018 24.7354 803.487 -66.0136 876.581 -136.223C903.277 -161.862 932.618 -183.876 963.669 -201.803ZM1352.73 160.404C1428.82 34.1466 1422.17 -105.745 1336.02 -188.026C1282.72 -238.927 1205.61 -261.343 1118.89 -251.148C1032.03 -240.936 946.74 -199.327 878.726 -133.992C806.186 -64.3075 761.051 25.7061 754.912 112.963C753.474 133.366 761.138 150.454 776.497 161.073C795.24 174.042 821.746 174.744 847.402 162.968L1046.79 71.4368C1067.75 61.819 1090.15 60.2597 1108.27 67.1702L1352.73 160.404Z" fill="url(#paint18_linear_2362_249)"/>
<path d="M938.268 -215.017C998.726 -249.922 1066.17 -268.465 1133.61 -268.074C1223.63 -267.562 1302.07 -233.378 1354.5 -171.847C1439.46 -72.136 1438.9 78.8787 1353.13 203.946L1352.35 205.083L1105.09 73.289C1087.71 64.0201 1065.64 62.8289 1044.54 70.0025L836.225 140.848C809.45 149.953 781.972 146.103 762.733 130.547C745.669 116.749 737.445 95.5371 740.169 72.3641C751.029 -19.9383 802.147 -110.012 880.411 -174.76C898.748 -189.934 918.115 -203.382 938.259 -215.012L938.268 -215.017ZM1351.36 201.057C1435.57 77.3794 1435.93 -71.5076 1352.14 -169.846C1300.31 -230.681 1222.69 -264.472 1133.6 -264.985C1044.4 -265.505 955.193 -232.618 882.38 -172.383C804.716 -108.135 754.009 -18.7961 743.236 72.7186C740.642 94.8193 748.451 115.012 764.671 128.137C783.079 143.024 809.459 146.683 835.216 137.917L1043.53 67.0717C1065.44 59.6185 1088.4 60.8907 1106.53 70.5476L1351.36 201.057Z" fill="url(#paint19_linear_2362_249)"/>
<path d="M915.091 -233.375C986.829 -274.793 1068.96 -291.566 1149.74 -280.768C1241.59 -268.489 1319.9 -222.146 1370.23 -150.262C1451.79 -33.7783 1443.43 125.842 1349.42 246.94L1348.51 248.101L1347.31 247.256L1102.84 76.4451C1085.55 64.3686 1063.07 60.2149 1041.15 65.052L824.776 112.846C797.894 118.78 770.662 111.731 751.922 93.9781C734.101 77.1039 726.236 53.094 730.357 28.1165C746.199 -68.1033 803.049 -156.738 886.319 -215.05C895.695 -221.612 905.294 -227.729 915.086 -233.383L915.091 -233.375ZM1347.86 243.878C1440.2 124.008 1448.22 -33.4921 1367.7 -148.486C1317.87 -219.652 1240.32 -265.538 1149.32 -277.697C1058.28 -289.869 965.496 -266.705 888.092 -212.506C805.5 -154.672 749.11 -66.7803 733.404 28.6235C729.461 52.5764 736.984 75.5803 754.047 91.7427C772.042 108.787 798.23 115.55 824.111 109.836L1040.49 62.0417C1063.24 57.0156 1086.61 61.3471 1104.61 73.9155L1347.86 243.878Z" fill="url(#paint20_linear_2362_249)"/>
<path d="M894.43 -256.894C976.977 -304.552 1073.73 -317.057 1166.84 -292.106C1259.98 -267.152 1337.51 -207.948 1385.17 -125.401C1462.42 8.3971 1445.63 176.113 1343.4 291.944L1342.37 293.1L1100.38 79.5125C1083.33 64.46 1060.56 57.1219 1037.92 59.3939L814.506 81.744C787.084 84.4881 760.803 74.2768 742.383 53.7361C724.188 33.4344 716.981 6.58304 722.6 -19.9527C743.741 -119.688 806.37 -206.052 894.43 -256.894ZM1342.1 288.736C1442.54 173.946 1458.82 8.33975 1382.49 -123.857C1335.25 -205.687 1258.38 -264.376 1166.05 -289.122C1073.73 -313.86 977.814 -301.468 895.983 -254.223C808.679 -203.818 746.587 -118.197 725.633 -19.3186C720.216 6.23317 727.163 32.1073 744.699 51.6618C762.451 71.46 787.785 81.3074 814.212 78.6609L1037.62 56.3108C1061.11 53.9628 1084.74 61.5732 1102.43 77.1971L1342.1 288.736Z" fill="url(#paint21_linear_2362_249)"/>
</g>
</g>
</g>
<defs>
<linearGradient id="paint0_linear_2362_249" x1="0" y1="0" x2="981" y2="240" gradientUnits="userSpaceOnUse">
<stop stop-color="#5185E8"/>
<stop offset="1" stop-color="#2857AF"/>
</linearGradient>
<linearGradient id="paint1_linear_2362_249" x1="1343.82" y1="80.6437" x2="971.782" y2="256.652" gradientUnits="userSpaceOnUse">
<stop stop-color="white"/>
<stop offset="1" stop-color="white" stop-opacity="0.44"/>
</linearGradient>
<linearGradient id="paint2_linear_2362_249" x1="1353.89" y1="75.1187" x2="955.818" y2="261.009" gradientUnits="userSpaceOnUse">
<stop stop-color="white"/>
<stop offset="1" stop-color="white" stop-opacity="0.44"/>
</linearGradient>
<linearGradient id="paint3_linear_2362_249" x1="1363.37" y1="68.4715" x2="938.912" y2="263.887" gradientUnits="userSpaceOnUse">
<stop stop-color="white"/>
<stop offset="1" stop-color="white" stop-opacity="0.44"/>
</linearGradient>
<linearGradient id="paint4_linear_2362_249" x1="1372.13" y1="60.7644" x2="921.154" y2="265.144" gradientUnits="userSpaceOnUse">
<stop stop-color="white"/>
<stop offset="1" stop-color="white" stop-opacity="0.44"/>
</linearGradient>
<linearGradient id="paint5_linear_2362_249" x1="1380.04" y1="51.8953" x2="902.588" y2="264.532" gradientUnits="userSpaceOnUse">
<stop stop-color="white"/>
<stop offset="1" stop-color="white" stop-opacity="0.44"/>
</linearGradient>
<linearGradient id="paint6_linear_2362_249" x1="1386.8" y1="42.002" x2="883.373" y2="261.941" gradientUnits="userSpaceOnUse">
<stop stop-color="white"/>
<stop offset="1" stop-color="white" stop-opacity="0.44"/>
</linearGradient>
<linearGradient id="paint7_linear_2362_249" x1="1392.62" y1="30.8972" x2="863.525" y2="257.158" gradientUnits="userSpaceOnUse">
<stop stop-color="white"/>
<stop offset="1" stop-color="white" stop-opacity="0.44"/>
</linearGradient>
<linearGradient id="paint8_linear_2362_249" x1="1397.19" y1="18.6045" x2="843.18" y2="249.944" gradientUnits="userSpaceOnUse">
<stop stop-color="white"/>
<stop offset="1" stop-color="white" stop-opacity="0.44"/>
</linearGradient>
<linearGradient id="paint9_linear_2362_249" x1="1400.45" y1="5.26993" x2="822.66" y2="240.302" gradientUnits="userSpaceOnUse">
<stop stop-color="white"/>
<stop offset="1" stop-color="white" stop-opacity="0.44"/>
</linearGradient>
<linearGradient id="paint10_linear_2362_249" x1="1402.23" y1="-9.27339" x2="802.391" y2="227.822" gradientUnits="userSpaceOnUse">
<stop stop-color="white"/>
<stop offset="1" stop-color="white" stop-opacity="0.44"/>
</linearGradient>
<linearGradient id="paint11_linear_2362_249" x1="1402.46" y1="-24.8988" x2="782.673" y2="212.621" gradientUnits="userSpaceOnUse">
<stop stop-color="white"/>
<stop offset="1" stop-color="white" stop-opacity="0.44"/>
</linearGradient>
<linearGradient id="paint12_linear_2362_249" x1="1401.18" y1="-41.4145" x2="763.861" y2="195.019" gradientUnits="userSpaceOnUse">
<stop stop-color="white"/>
<stop offset="1" stop-color="white" stop-opacity="0.44"/>
</linearGradient>
<linearGradient id="paint13_linear_2362_249" x1="1398.23" y1="-58.9458" x2="746.157" y2="175.053" gradientUnits="userSpaceOnUse">
<stop stop-color="white"/>
<stop offset="1" stop-color="white" stop-opacity="0.44"/>
</linearGradient>
<linearGradient id="paint14_linear_2362_249" x1="1407.43" y1="-53.5023" x2="745.795" y2="189.581" gradientUnits="userSpaceOnUse">
<stop stop-color="white"/>
<stop offset="1" stop-color="white" stop-opacity="0.44"/>
</linearGradient>
<linearGradient id="paint15_linear_2362_249" x1="1423.94" y1="-33.7348" x2="757.129" y2="224.11" gradientUnits="userSpaceOnUse">
<stop stop-color="white"/>
<stop offset="1" stop-color="white" stop-opacity="0.44"/>
</linearGradient>
<linearGradient id="paint16_linear_2362_249" x1="1439.84" y1="-12.541" x2="771.651" y2="258.137" gradientUnits="userSpaceOnUse">
<stop stop-color="white"/>
<stop offset="1" stop-color="white" stop-opacity="0.44"/>
</linearGradient>
<linearGradient id="paint17_linear_2362_249" x1="1455.23" y1="9.84255" x2="789.264" y2="291.093" gradientUnits="userSpaceOnUse">
<stop stop-color="white"/>
<stop offset="1" stop-color="white" stop-opacity="0.44"/>
</linearGradient>
<linearGradient id="paint18_linear_2362_249" x1="1470.15" y1="33.2188" x2="810.093" y2="322.563" gradientUnits="userSpaceOnUse">
<stop stop-color="white"/>
<stop offset="1" stop-color="white" stop-opacity="0.44"/>
</linearGradient>
<linearGradient id="paint19_linear_2362_249" x1="1484.61" y1="57.4357" x2="833.813" y2="352.28" gradientUnits="userSpaceOnUse">
<stop stop-color="white"/>
<stop offset="1" stop-color="white" stop-opacity="0.44"/>
</linearGradient>
<linearGradient id="paint20_linear_2362_249" x1="1498.7" y1="82.2579" x2="860.483" y2="379.936" gradientUnits="userSpaceOnUse">
<stop stop-color="white"/>
<stop offset="1" stop-color="white" stop-opacity="0.44"/>
</linearGradient>
<linearGradient id="paint21_linear_2362_249" x1="1512.59" y1="107.38" x2="889.989" y2="405.297" gradientUnits="userSpaceOnUse">
<stop stop-color="white"/>
<stop offset="1" stop-color="white" stop-opacity="0.44"/>
</linearGradient>
<clipPath id="clip0_2362_249">
<rect width="981" height="240" rx="20" fill="white"/>
</clipPath>
<clipPath id="clip1_2362_249">
<rect width="685.18" height="700.281" fill="white" transform="translate(1556.52 169.461) rotate(150)"/>
</clipPath>
</defs>
</svg>
