<svg width="358" height="130" viewBox="0 0 358 130" fill="none" xmlns="http://www.w3.org/2000/svg">
<g clip-path="url(#clip0_2097_9783)">
<rect width="358" height="130" rx="20" fill="url(#paint0_linear_2097_9783)"/>
<g opacity="0.6">
<g clip-path="url(#clip1_2097_9783)">
<path d="M488.298 -124.969C493.427 -127.93 498.377 -129.132 502.971 -128.449C511.587 -127.164 518.475 -119.391 522.879 -105.978L522.974 -105.694L480.028 -13.1655C476.971 -6.57928 474.653 1.69294 473.669 9.52463L464.055 86.0952C462.152 101.275 455.58 116.607 449.101 121C447.426 122.137 445.805 122.521 444.298 122.127C431.54 118.816 423.08 100.466 421.09 71.7857C417.249 16.4379 437.807 -62.2192 466.911 -103.552C474.067 -113.716 481.347 -120.961 488.296 -124.973L488.298 -124.969ZM521.35 -105.786C517.131 -118.445 510.703 -125.762 502.748 -126.951C492.533 -128.476 480.249 -119.855 468.154 -102.677C439.219 -61.585 418.785 16.6341 422.605 71.6866C424.546 99.6775 432.595 117.527 444.687 120.666C445.754 120.942 446.953 120.637 448.257 119.751C454.42 115.572 460.698 100.707 462.56 85.9068L472.174 9.33621C473.179 1.35501 475.542 -7.07653 478.663 -13.8004L521.36 -105.786L521.35 -105.786Z" fill="url(#paint1_linear_2097_9783)"/>
<path d="M491.4 -127.807C497.513 -131.336 503.331 -132.625 508.578 -131.502C517.851 -129.518 524.853 -120.334 528.824 -104.931L528.897 -104.649L480.283 -12.3737C476.819 -5.80229 474.026 2.64886 472.618 10.8047L458.856 90.5557C456.131 106.353 448.715 121.695 441.781 125.539C439.989 126.536 438.313 126.734 436.791 126.12C423.973 120.969 416.305 100.495 415.752 69.9446C414.682 10.8995 439.728 -69.6215 471.578 -109.556C478.287 -117.964 485.001 -124.112 491.396 -127.805L491.4 -127.807ZM527.287 -104.834C523.456 -119.47 516.883 -128.179 508.265 -130.02C498.114 -132.188 485.508 -124.586 472.765 -108.611C441.1 -68.9107 416.203 11.1791 417.267 69.9196C417.808 99.8342 425.129 119.808 437.358 124.721C438.437 125.154 439.677 124.985 441.046 124.221C447.489 120.592 454.707 105.699 457.366 90.3011L471.128 10.5501C472.559 2.24246 475.408 -6.36862 478.943 -13.0761L527.287 -104.834Z" fill="url(#paint2_linear_2097_9783)"/>
<path d="M494.355 -130.313C501.59 -134.491 508.362 -135.793 514.428 -134.097C524.388 -131.31 531.45 -120.579 534.849 -103.066L534.905 -102.786L480.508 -11.5147C476.632 -5.01326 473.346 3.55814 471.488 12.0108L453.324 94.5847C449.749 110.841 441.33 126.109 434.151 129.345C432.229 130.211 430.474 130.215 428.929 129.36C416.145 122.262 409.392 99.6401 410.401 67.2964C412.352 4.70176 442.077 -77.2146 476.663 -115.315C482.761 -122.032 488.698 -127.052 494.353 -130.317L494.355 -130.313ZM533.309 -103.058C530.007 -119.804 523.342 -130.032 514.023 -132.637C503.955 -135.452 491.092 -128.939 477.79 -114.293C443.41 -76.4232 413.863 5.05607 411.92 67.3432C410.93 99.1029 417.399 121.225 429.67 128.04C430.772 128.652 432.07 128.63 433.53 127.967C440.292 124.918 448.362 110.102 451.846 94.2593L470.01 11.6855C471.9 3.08663 475.254 -5.6516 479.207 -12.2874L533.307 -103.062L533.309 -103.058Z" fill="url(#paint3_linear_2097_9783)"/>
<path d="M496.954 -132.202C505.619 -137.205 513.595 -138.582 520.499 -136.17C531.171 -132.445 538.223 -120.047 540.898 -100.305L540.935 -100.019L480.692 -10.5604C476.4 -4.19058 472.603 4.45267 470.27 13.1482L447.465 98.1307C442.948 114.952 433.819 129.673 426.237 132.368C424.188 133.094 422.291 132.889 420.747 131.779C408.095 122.629 402.383 97.8557 405.077 63.806C410.293 -2.15499 444.872 -84.9354 482.157 -120.734C487.254 -125.625 492.209 -129.458 496.956 -132.198L496.954 -132.202ZM539.356 -100.392C536.738 -119.364 530.047 -131.239 519.999 -134.745C509.887 -138.273 497.164 -133.051 483.202 -119.649C446.145 -84.0724 411.774 -1.7247 406.586 63.9174C403.935 97.4268 409.418 121.711 421.631 130.541C422.768 131.361 424.145 131.494 425.727 130.932C432.766 128.429 441.672 113.846 445.997 97.7305L468.802 12.748C471.177 3.89553 475.051 -4.9089 479.43 -11.4137L539.353 -100.396L539.356 -100.392Z" fill="url(#paint4_linear_2097_9783)"/>
<path d="M499.044 -133.521C509.481 -139.547 518.936 -140.992 526.801 -137.67C538.198 -132.856 545.159 -118.657 546.933 -96.612L546.956 -96.323L480.826 -9.53918C476.116 -3.35857 471.794 5.2853 468.96 14.1798L441.295 101.108C435.905 118.046 425.929 132.412 418.071 134.518C415.836 135.117 413.833 134.681 412.268 133.259C399.852 121.961 395.311 95.041 399.809 59.408C408.535 -9.68896 448.116 -92.7614 488.037 -125.77C491.803 -128.884 495.475 -131.472 499.035 -133.527L499.044 -133.521ZM545.399 -96.7774C543.655 -117.757 536.847 -131.784 526.209 -136.277C516.216 -140.5 503.356 -136.462 489.009 -124.601C449.34 -91.8007 410.005 -9.16737 401.317 59.5998C396.877 94.7369 401.243 121.179 413.289 132.139C414.465 133.212 415.945 133.52 417.678 133.056C424.942 131.108 434.689 116.869 439.852 100.651L467.515 13.7185C470.395 4.66474 474.806 -4.14722 479.615 -10.4594L545.392 -96.7791L545.399 -96.7774Z" fill="url(#paint5_linear_2097_9783)"/>
<path d="M500.439 -134.23C513.086 -141.532 524.36 -143.029 533.322 -138.524C545.259 -132.524 552.215 -115.971 552.905 -91.9138L552.914 -91.6218L480.916 -8.433C475.792 -2.51175 470.932 6.06551 467.584 15.1083L434.854 103.463C428.601 120.342 417.789 134.225 409.717 135.748C407.27 136.21 405.14 135.518 403.558 133.744C391.485 120.199 388.251 91.1646 394.678 54.0892C407.152 -17.8676 451.855 -100.594 494.325 -130.318C496.397 -131.769 498.436 -133.074 500.443 -134.232L500.439 -134.23ZM551.383 -92.1665C550.662 -115.478 544.011 -131.458 532.643 -137.17C522.784 -142.124 509.832 -139.324 495.19 -129.076C453.003 -99.5529 408.581 -17.2694 396.164 54.3461C389.815 90.9678 392.92 119.54 404.686 132.737C405.91 134.112 407.507 134.624 409.432 134.261C417.03 132.826 427.35 119.36 433.436 102.939L466.166 14.5836C469.575 5.3786 474.534 -3.36736 479.771 -9.42314L551.383 -92.1665Z" fill="url(#paint6_linear_2097_9783)"/>
<path d="M500.941 -134.307L500.965 -134.321C516.342 -143.193 529.865 -144.693 540.064 -138.662C552.67 -131.201 559.31 -112.564 558.759 -86.1769L558.753 -85.8757L480.94 -7.25108C475.402 -1.65936 470.003 6.78342 466.117 15.9079L428.142 105.109C420.944 122.024 409.604 135.001 401.181 135.972C398.482 136.283 396.218 135.296 394.63 133.123C383.022 117.249 381.221 86.1447 389.69 47.7787C406.131 -26.707 456.036 -108.386 500.943 -134.313L500.941 -134.307ZM557.246 -86.5084C557.731 -112.163 551.359 -130.216 539.289 -137.354C529.588 -143.094 516.597 -141.594 501.717 -133.008L501.693 -132.994C457.106 -107.252 407.526 -26.0202 391.163 48.1126C382.787 86.0528 384.496 116.711 395.847 132.234C397.113 133.967 398.847 134.718 401.004 134.471C408.797 133.577 419.859 120.697 426.745 104.52L464.72 15.3181C468.678 6.02449 474.197 -2.58822 479.861 -8.3111L557.248 -86.5044L557.246 -86.5084Z" fill="url(#paint7_linear_2097_9783)"/>
<path d="M500.265 -133.697C502.854 -135.192 505.419 -136.524 507.969 -137.688C523.535 -144.801 537.043 -144.901 547.037 -137.982C560.245 -128.835 566.429 -108.008 564.45 -79.3407L564.427 -79.0303L480.913 -5.99639C474.974 -0.804975 469.028 7.41726 464.595 16.5601L421.217 105.977C413.211 122.476 401.158 134.734 392.548 135.123C389.563 135.259 387.152 133.943 385.564 131.313C374.544 113.034 374.318 79.9222 384.938 40.4629C404.456 -32.0671 454.913 -107.513 500.267 -133.703L500.265 -133.697ZM562.959 -79.7538C564.837 -107.704 558.88 -127.935 546.171 -136.733C536.642 -143.332 523.65 -143.184 508.596 -136.309C461.761 -114.918 406.926 -35.4311 386.392 40.8659C375.878 79.9295 376.047 112.612 386.855 130.541C388.152 132.697 390.044 133.728 392.472 133.622C400.429 133.26 412.197 121.097 419.847 105.324L463.225 15.9069C467.746 6.58571 473.828 -1.80538 479.909 -7.12689L562.955 -79.7515L562.959 -79.7538Z" fill="url(#paint8_linear_2097_9783)"/>
<path d="M498.246 -132.481C504.028 -135.82 509.726 -138.467 515.289 -140.346C531.003 -145.654 544.464 -144.283 554.22 -136.387C567.916 -125.302 573.483 -102.213 569.892 -71.3728L569.856 -71.0493L480.798 -4.66416C474.472 0.0498924 467.978 7.96714 462.984 17.0572L414.083 105.994C405.188 122.168 392.758 133.331 383.837 133.146C380.527 133.077 377.953 131.377 376.392 128.232C366.097 107.485 367.568 72.4483 380.441 32.108C402.643 -37.4744 452.766 -106.224 498.242 -132.479L498.246 -132.481ZM568.428 -71.8762C571.88 -102.02 566.497 -124.504 553.269 -135.211C543.939 -142.764 530.972 -144.044 515.772 -138.91C466.841 -122.383 406.778 -45.4582 381.886 32.5693C369.133 72.5377 367.625 107.161 377.746 127.562C379.061 130.206 381.119 131.572 383.866 131.632C392.107 131.807 404.257 120.72 412.754 105.264L461.659 16.3251C466.759 7.05147 473.405 -1.04383 479.895 -5.87895L568.428 -71.8762Z" fill="url(#paint9_linear_2097_9783)"/>
<path d="M494.61 -130.663C504.319 -136.268 513.842 -140.217 522.917 -142.201C538.763 -145.664 552.154 -142.739 561.643 -133.743C575.658 -120.459 580.419 -95.0617 575.055 -62.2423L575.001 -61.9033L480.626 -3.2745C473.931 0.882842 466.903 8.40781 461.328 17.3658L406.81 105.08C397.223 120.506 384.2 130.733 375.14 129.959C371.459 129.642 368.712 127.506 367.201 123.786C357.766 100.519 361.084 63.6673 376.301 22.6795C400.656 -42.9161 449.517 -104.629 494.614 -130.666L494.61 -130.663ZM573.615 -62.8234C578.809 -94.9713 574.19 -119.755 560.601 -132.643C551.494 -141.28 538.573 -144.072 523.241 -140.721C472.437 -129.617 407.159 -56.0788 377.721 23.2082C362.631 63.8463 359.31 100.297 368.605 123.219C369.904 126.425 372.148 128.188 375.271 128.455C383.649 129.172 396.375 119.01 405.528 104.286L460.046 16.5713C465.733 7.42119 472.942 -0.277384 479.828 -4.55534L573.621 -62.8217L573.615 -62.8234Z" fill="url(#paint10_linear_2097_9783)"/>
<path d="M489.065 -128.322C503.528 -136.672 517.712 -141.893 530.799 -143.173C546.786 -144.736 560.092 -140.137 569.277 -129.883C583.373 -114.14 587.126 -86.4514 579.851 -51.9125L579.775 -51.5557L480.363 -1.82678C473.321 1.69218 465.763 8.73185 459.615 17.4791L399.427 103.162C389.219 117.695 375.679 126.882 366.498 125.509C362.394 124.894 359.471 122.26 358.043 117.881C349.612 92.0597 354.899 53.5241 372.547 12.1577C398.398 -48.4291 445.021 -102.898 489.071 -128.33L489.065 -128.322ZM578.443 -52.5758C585.521 -86.4642 581.866 -113.551 568.147 -128.87C559.297 -138.755 546.432 -143.178 530.943 -141.663C478.517 -136.541 408.08 -67.2665 373.936 12.7624C356.429 53.7928 351.162 91.9398 359.475 117.42C360.732 121.271 363.167 123.492 366.715 124.019C375.35 125.309 388.289 116.379 398.181 102.3L458.372 16.6143C464.656 7.67139 472.427 0.456252 479.68 -3.1743L578.437 -52.5775L578.443 -52.5758Z" fill="url(#paint11_linear_2097_9783)"/>
<path d="M481.437 -125.605C501.551 -137.218 521.361 -143.627 538.906 -143.164C555.07 -142.737 568.283 -136.322 577.109 -124.603C590.985 -106.178 593.51 -76.257 584.218 -40.3466L584.12 -39.9657L480.02 -0.305225C472.661 2.49938 464.583 8.95221 457.861 17.394L391.981 100.189C381.064 113.909 367.4 121.777 357.98 119.761C353.412 118.783 350.304 115.57 348.995 110.47C341.724 82.0672 349.109 42.007 369.259 0.560386C395.81 -54.0592 439.277 -101.258 481.437 -125.605ZM582.846 -41.1047C591.908 -76.3936 589.446 -105.709 575.899 -123.692C567.357 -135.028 554.554 -141.239 538.867 -141.649C485.078 -143.062 409.609 -78.9737 370.623 1.22219C350.631 42.3544 343.284 82.0375 350.466 110.093C351.618 114.599 354.33 117.43 358.297 118.277C367.166 120.176 380.229 112.527 390.797 99.2423L456.677 16.4474C463.56 7.79614 471.874 1.17458 479.481 -1.72524L582.85 -41.107L582.846 -41.1047Z" fill="url(#paint12_linear_2097_9783)"/>
<path d="M471.69 -122.797C498.294 -138.157 524.817 -145.575 547.178 -142.104C563.576 -139.562 576.684 -131.122 585.077 -117.697C598.376 -96.4283 599.445 -64.4132 588.077 -27.5542L587.953 -27.1532L479.584 1.24159C471.932 3.24389 463.364 9.01336 456.075 17.0608L384.532 96.063C372.977 108.824 359.285 115.328 349.653 112.633C344.566 111.205 341.276 107.338 340.14 101.443C334.181 70.4669 343.788 29.0599 366.495 -12.1528C392.87 -60.0234 432.358 -100.089 471.686 -122.794L471.69 -122.797ZM586.753 -28.4038C597.857 -64.6702 596.812 -96.0831 583.792 -116.897C575.636 -129.938 562.897 -138.135 546.946 -140.611C492.109 -149.118 411.76 -91.1641 367.824 -11.423C345.283 29.4872 335.738 70.5239 341.63 101.156C342.649 106.451 345.565 109.911 350.064 111.174C359.007 113.678 372.408 107.194 383.408 95.0448L454.95 16.0426C462.429 7.77989 471.271 1.85178 479.199 -0.224753L586.753 -28.4038Z" fill="url(#paint13_linear_2097_9783)"/>
<path d="M460.06 -120.309C493.832 -139.807 528.213 -147.86 555.57 -139.91C572.265 -135.06 585.242 -124.345 593.097 -108.928C605.422 -84.7386 604.805 -50.8527 591.361 -13.5168L591.205 -13.0872L479.051 2.8284C471.146 3.9518 462.108 8.92546 454.26 16.4832L377.138 90.7319C365.2 102.223 351.249 107.469 341.595 104.101C336.023 102.157 332.463 97.4162 331.573 90.7518C327.086 57.2217 339.027 14.6795 364.337 -25.9602C389.618 -66.557 424.501 -99.7742 460.062 -120.305L460.06 -120.309ZM590.089 -14.4602C603.239 -51.2285 603.829 -84.5194 591.748 -108.239C584.089 -123.271 571.433 -133.724 555.146 -138.455C499.602 -154.597 414.583 -103.775 365.621 -25.1617C340.493 15.1868 328.631 57.3597 333.071 90.5506C333.898 96.71 337.013 100.901 342.092 102.672C351.213 105.854 364.556 100.741 376.086 89.6456L453.208 15.3968C461.282 7.62363 470.624 2.49578 478.839 1.33107L590.089 -14.4602Z" fill="url(#paint14_linear_2097_9783)"/>
<path d="M447.023 -118.667C488.389 -142.549 531.714 -150.551 564.021 -136.492C608.254 -117.245 620.299 -61.6847 593.989 1.75811L593.8 2.21237L478.425 4.43027C470.302 4.58621 460.829 8.66923 452.437 15.6333L369.859 84.1284C357.449 94.4257 343.649 98.2514 333.859 94.1133C327.693 91.5086 323.972 85.9 323.371 78.32C320.517 42.2755 334.903 -1.16329 362.843 -40.8525C386.153 -73.9663 416.04 -100.773 447.029 -118.665L447.023 -118.667ZM592.779 0.720349C618.499 -61.7126 606.731 -116.259 563.414 -135.106C536.581 -146.783 500.983 -143.295 463.182 -125.293C425.288 -107.249 390.096 -76.949 364.078 -39.9832C336.337 -0.573679 322.049 42.5008 324.874 78.201C325.437 85.2929 328.744 90.3125 334.445 92.7185C343.573 96.5749 357.095 92.7454 368.888 82.9629L451.466 14.4679C460.122 7.28816 469.935 3.07759 478.39 2.91618L592.773 0.718667L592.779 0.720349Z" fill="url(#paint15_linear_2097_9783)"/>
<path d="M433.232 -118.429C482.3 -146.759 535.519 -153.634 572.469 -131.781C616.595 -105.685 626.007 -45.3876 595.888 18.2633L595.66 18.7508L477.705 6.05218C469.411 5.15946 459.541 8.24044 450.618 14.5071L362.763 76.1993C350.138 85.0655 336.243 87.5393 326.512 82.6498C319.734 79.2414 315.872 72.6627 315.635 64.1132C314.579 25.6185 331.511 -18.451 362.083 -56.7986C382.648 -82.593 407.367 -103.491 433.234 -118.425L433.232 -118.429ZM594.748 17.1265C624.235 -45.5964 615.002 -104.866 571.697 -130.48C544.889 -146.334 508.361 -147.289 468.837 -133.172C429.221 -119.023 391.734 -91.566 363.266 -55.8622C332.912 -17.7894 316.099 25.9248 317.142 64.066C317.361 72.0315 320.927 78.1439 327.183 81.2911C336.418 85.9302 349.712 83.5007 361.885 74.9541L449.739 13.262C458.957 6.78812 469.207 3.61019 477.857 4.54124L594.748 17.1265Z" fill="url(#paint16_linear_2097_9783)"/>
<path d="M418.995 -119.814C436.751 -130.066 455.543 -137.687 474.659 -142.236C516.194 -152.124 553.906 -146.251 580.837 -125.695C624.504 -92.374 630.987 -27.4016 596.97 35.9723L596.694 36.4874L476.876 7.67767C468.459 5.6511 458.276 7.67552 448.802 13.0812L355.91 66.8931L355.842 66.9322C343.088 74.2962 329.208 75.3435 319.596 69.6579C312.204 65.2872 308.246 57.6224 308.46 48.0797C309.366 7.22586 328.928 -37.189 362.128 -73.7722C378.893 -92.2436 398.232 -107.827 418.991 -119.812L418.995 -119.814ZM595.917 34.7377C629.258 -27.7942 622.857 -91.7313 579.92 -124.496C553.354 -144.769 516.095 -150.549 475.009 -140.765C433.844 -130.963 394.157 -106.812 363.25 -72.758C330.293 -36.4428 310.875 7.61323 309.974 48.1083C309.775 57.0794 313.47 64.2698 320.371 68.3506C329.512 73.7555 342.807 72.7062 355.088 65.6158L355.155 65.5767L448.048 11.7647L448.115 11.7257C457.852 6.10442 468.46 4.08952 477.232 6.19778L595.917 34.7377Z" fill="url(#paint17_linear_2097_9783)"/>
<path d="M405.703 -123.835C429.512 -137.582 455.372 -146.422 481.526 -149.496C524.443 -154.544 562.636 -143.421 589.066 -118.18C631.902 -77.2753 635.157 -7.74179 597.171 54.8445L596.845 55.3832L475.962 9.27927C467.472 6.04163 456.928 6.78782 447.032 11.333L349.404 56.1507C336.346 62.1444 322.813 61.7495 313.192 55.092C305.332 49.6535 301.244 40.5771 301.976 30.1834C305.007 -12.9116 327.27 -57.3464 363.061 -91.7243C376.132 -104.278 390.499 -115.057 405.703 -123.835ZM596.203 53.5182C633.463 -8.30344 630.207 -76.8007 588.023 -117.089C561.926 -142.013 524.167 -152.989 481.706 -147.997C439.176 -142.997 397.413 -122.623 364.111 -90.6316C328.592 -56.5111 306.492 -12.4363 303.486 30.2885C302.781 40.2788 306.534 48.6461 314.055 53.8454C323.232 60.1958 336.211 60.5395 348.773 54.7733L446.401 9.95557C456.664 5.24623 467.634 4.48276 476.505 7.86641L596.203 53.5182Z" fill="url(#paint18_linear_2097_9783)"/>
<path d="M393.268 -130.305C422.871 -147.397 455.895 -156.476 488.918 -156.285C532.994 -156.034 571.403 -139.296 597.075 -109.168C638.675 -60.3444 638.402 13.5993 596.404 74.838L596.02 75.3947L474.951 10.8623C466.443 6.32381 455.636 5.74055 445.303 9.25308L343.303 43.9423C330.193 48.4003 316.738 46.5153 307.318 38.8982C298.963 32.1421 294.936 21.756 296.27 10.4095C301.587 -34.7861 326.617 -78.8904 364.938 -110.594C373.917 -118.024 383.4 -124.608 393.264 -130.303L393.268 -130.305ZM595.535 73.4235C636.768 12.8651 636.947 -60.0367 595.921 -108.188C570.541 -137.975 532.535 -154.521 488.91 -154.772C445.236 -155.026 401.555 -138.924 365.902 -109.43C327.875 -77.971 303.046 -34.2268 297.772 10.583C296.501 21.4045 300.325 31.292 308.267 37.7185C317.28 45.0078 330.197 46.7993 342.809 42.5073L444.809 7.81802C455.535 4.16859 466.779 4.79152 475.658 9.52001L595.535 73.4235Z" fill="url(#paint19_linear_2097_9783)"/>
<path d="M381.916 -139.295C417.042 -159.575 457.256 -167.788 496.811 -162.501C541.787 -156.488 580.129 -133.797 604.773 -98.5987C644.711 -41.5632 640.616 36.594 594.581 95.8893L594.139 96.4577L593.55 96.0439L473.844 12.4072C465.381 6.49397 454.373 4.46012 443.641 6.82862L337.693 30.2307C324.531 33.1365 311.197 29.6849 302.021 20.9922C293.295 12.7298 289.444 0.973435 291.462 -11.2567C299.219 -58.3703 327.055 -101.77 367.828 -130.322C372.419 -133.535 377.119 -136.531 381.914 -139.299L381.916 -139.295ZM593.821 94.3899C639.035 35.6959 642.96 -41.4231 603.533 -97.7292C579.135 -132.575 541.161 -155.043 496.607 -160.997C452.028 -166.957 406.596 -155.615 368.696 -129.076C328.255 -100.758 300.644 -57.7225 292.954 -11.0085C291.023 0.72 294.707 11.9837 303.062 19.8976C311.873 28.2435 324.696 31.5548 337.368 28.7567L443.315 5.35461C454.457 2.89361 465.902 5.01448 474.711 11.1686L593.821 94.3899Z" fill="url(#paint20_linear_2097_9783)"/>
<path d="M371.801 -150.812C412.22 -174.148 459.592 -180.271 505.187 -168.054C550.789 -155.835 588.753 -126.846 612.089 -86.4272C649.913 -20.9134 641.693 61.2078 591.637 117.924L591.135 118.49L472.642 13.908C464.293 6.53761 453.145 2.94452 442.058 4.05698L332.667 15.0006C319.24 16.3442 306.371 11.3444 297.352 1.2867C288.443 -8.65394 284.914 -21.8016 287.665 -34.7947C298.017 -83.6297 328.683 -125.918 371.801 -150.812ZM591.001 116.354C640.183 60.1469 648.15 -20.9414 610.779 -85.6708C587.645 -125.739 550.007 -154.475 504.799 -166.592C459.593 -178.705 412.63 -172.638 372.562 -149.504C329.814 -124.824 299.41 -82.8996 289.151 -34.4842C286.498 -21.9729 289.9 -9.30377 298.486 0.271032C307.178 9.96512 319.583 14.7868 332.523 13.491L441.914 2.54738C453.414 1.3977 464.985 5.1241 473.649 12.7742L591.001 116.354Z" fill="url(#paint21_linear_2097_9783)"/>
</g>
</g>
<path d="M84.5684 44.3228C84.5684 35.7405 91.5257 28.7832 100.108 28.7832H273.432V37.6753C273.432 46.2576 266.474 53.2149 257.892 53.2149H84.5684V44.3228Z" fill="#212121"/>
<path d="M100.708 44.088C101.356 44.088 102.112 43.8 102.484 43.416L103.228 44.184C102.676 44.772 101.596 45.144 100.72 45.144C98.992 45.144 97.528 43.788 97.528 41.88C97.528 40.02 98.908 38.652 100.624 38.652C102.52 38.652 103.612 40.092 103.612 42.312H98.728C98.884 43.344 99.64 44.088 100.708 44.088ZM100.672 39.708C99.712 39.708 98.932 40.356 98.74 41.364H102.46C102.328 40.404 101.74 39.708 100.672 39.708ZM104.785 45L104.773 44.052L109.537 37.884H104.869V36.756H111.205V37.704L106.441 43.872H111.253V45H104.785ZM122.708 45L121.988 43.32H117.692L116.972 45H115.628L119.168 36.756H120.512L124.052 45H122.708ZM118.16 42.228H121.52L119.84 38.316L118.16 42.228ZM128.155 45.144C126.391 45.144 124.891 43.656 124.891 41.892C124.891 40.128 126.391 38.652 128.167 38.652C129.055 38.652 129.859 39.024 130.447 39.612L129.643 40.356C129.271 39.936 128.731 39.684 128.155 39.684C127.027 39.684 126.091 40.692 126.091 41.892C126.091 43.104 127.027 44.112 128.167 44.112C128.743 44.112 129.295 43.848 129.679 43.416L130.483 44.148C129.883 44.76 129.079 45.144 128.155 45.144ZM134.359 38.652C136.027 38.652 136.951 39.708 136.951 41.244V45H135.787V44.148C135.331 44.796 134.479 45.144 133.723 45.144C132.403 45.144 131.431 44.376 131.431 43.164C131.431 41.928 132.547 41.1 133.915 41.1C134.527 41.1 135.187 41.232 135.787 41.436V41.244C135.787 40.464 135.427 39.636 134.191 39.636C133.579 39.636 132.979 39.876 132.439 40.152L132.007 39.276C132.895 38.832 133.675 38.652 134.359 38.652ZM133.951 44.208C134.719 44.208 135.583 43.824 135.787 43.056V42.228C135.283 42.072 134.707 41.988 134.095 41.988C133.267 41.988 132.571 42.456 132.571 43.128C132.571 43.8 133.171 44.208 133.951 44.208ZM143.445 36.612H144.621V45H143.445V43.92C142.965 44.688 142.197 45.144 141.237 45.144C139.605 45.144 138.381 43.8 138.381 41.892C138.381 39.996 139.605 38.652 141.237 38.652C142.197 38.652 142.965 39.108 143.445 39.864V36.612ZM141.525 44.112C142.641 44.112 143.445 43.188 143.445 41.892C143.445 40.596 142.641 39.684 141.525 39.684C140.385 39.684 139.581 40.596 139.581 41.892C139.581 43.188 140.385 44.112 141.525 44.112ZM149.247 44.088C149.895 44.088 150.651 43.8 151.023 43.416L151.767 44.184C151.215 44.772 150.135 45.144 149.259 45.144C147.531 45.144 146.067 43.788 146.067 41.88C146.067 40.02 147.447 38.652 149.163 38.652C151.059 38.652 152.151 40.092 152.151 42.312H147.267C147.423 43.344 148.179 44.088 149.247 44.088ZM149.211 39.708C148.251 39.708 147.471 40.356 147.279 41.364H150.999C150.867 40.404 150.279 39.708 149.211 39.708ZM160.464 38.652C161.76 38.652 162.696 39.648 162.696 41.052V45H161.532V41.232C161.532 40.32 160.992 39.684 160.212 39.684C159.324 39.684 158.7 40.272 158.7 41.124V45H157.536V41.232C157.536 40.32 156.996 39.684 156.216 39.684C155.328 39.684 154.704 40.272 154.704 41.124V45H153.516V38.796H154.704V39.66C155.016 39.048 155.664 38.652 156.456 38.652C157.356 38.652 158.088 39.132 158.448 39.9C158.736 39.132 159.528 38.652 160.464 38.652ZM165.495 47.16C165.075 47.16 164.643 47.064 164.319 46.896L164.583 45.984C164.823 46.116 165.099 46.176 165.339 46.176C165.723 46.176 165.987 46.056 166.191 45.696L166.503 45.036L163.839 38.796H165.111L167.103 43.692L168.987 38.796H170.223L167.487 45.564C167.043 46.68 166.383 47.148 165.495 47.16ZM170.745 46.644L170.241 46.26C170.589 45.9 170.805 45.516 170.901 45.144C170.469 45.144 170.121 44.784 170.121 44.34C170.121 43.92 170.469 43.548 170.925 43.548C171.453 43.548 171.789 44.028 171.789 44.688C171.789 45.252 171.513 45.768 170.745 46.644Z" fill="white"/>
<path d="M180.904 45.144C178.468 45.144 176.416 43.188 176.416 40.872C176.416 38.556 178.468 36.612 180.904 36.612C182.224 36.612 183.424 37.176 184.252 38.064L182.536 39.564C182.152 39.06 181.552 38.724 180.904 38.724C179.776 38.724 178.816 39.708 178.816 40.872C178.816 42.048 179.776 43.032 180.904 43.032C181.564 43.032 182.152 42.696 182.548 42.192L184.252 43.68C183.424 44.58 182.224 45.144 180.904 45.144ZM188.308 45.144C186.4 45.144 184.804 43.656 184.804 41.892C184.804 40.128 186.4 38.652 188.308 38.652C190.204 38.652 191.8 40.128 191.8 41.892C191.8 43.656 190.204 45.144 188.308 45.144ZM188.308 43.224C189.028 43.224 189.64 42.612 189.64 41.892C189.64 41.172 189.028 40.572 188.308 40.572C187.576 40.572 186.964 41.172 186.964 41.892C186.964 42.612 187.576 43.224 188.308 43.224ZM200.605 38.652C201.901 38.652 202.957 39.648 202.957 41.052V45.012H200.749V41.472C200.749 40.944 200.389 40.572 199.873 40.572C199.357 40.572 198.997 40.92 198.997 41.4V45.012H196.789V41.472C196.789 40.944 196.429 40.572 195.913 40.572C195.397 40.572 195.037 40.92 195.037 41.4V45H192.721V38.796H195.037V39.552C195.337 39 195.913 38.652 196.645 38.652C197.449 38.652 198.169 39.036 198.589 39.672C198.949 39.048 199.693 38.652 200.605 38.652ZM205.371 38.136C204.699 38.136 204.171 37.584 204.171 36.936C204.171 36.312 204.699 35.76 205.371 35.76C206.019 35.76 206.547 36.312 206.547 36.936C206.547 37.584 206.019 38.136 205.371 38.136ZM204.195 45V38.796H206.511V45H204.195ZM211.86 38.652C213.192 38.652 214.14 39.648 214.14 41.052V45H211.932V41.592C211.932 40.992 211.548 40.572 210.996 40.572C210.48 40.572 210.108 40.968 210.108 41.52V45H207.792V38.796H210.108V39.42C210.492 38.94 211.116 38.652 211.86 38.652ZM219.659 38.796H221.987V44.34C221.987 45.936 220.523 47.064 218.459 47.064C217.307 47.064 216.227 46.716 215.567 46.236L216.323 44.64C216.683 44.94 217.403 45.144 218.087 45.144C219.011 45.144 219.659 44.748 219.659 44.22V43.728C219.167 44.244 218.459 44.544 217.739 44.544C216.239 44.544 215.051 43.32 215.051 41.592C215.051 39.864 216.239 38.652 217.739 38.652C218.483 38.652 219.275 39 219.659 39.48V38.796ZM218.543 42.624C219.191 42.624 219.659 42.192 219.659 41.592C219.659 40.992 219.191 40.572 218.543 40.572C217.895 40.572 217.427 40.992 217.427 41.592C217.427 42.192 217.895 42.624 218.543 42.624ZM229.903 45.144C228.415 45.144 227.011 44.676 225.967 43.752L227.263 42.204C228.103 42.864 229.015 43.212 229.987 43.212C230.623 43.212 230.959 42.996 230.959 42.636C230.959 42.24 230.671 42.18 229.531 41.916C227.743 41.508 226.363 41.04 226.363 39.324C226.363 37.68 227.659 36.612 229.615 36.612C231.043 36.612 232.159 36.996 233.071 37.728L231.907 39.372C231.139 38.82 230.299 38.544 229.555 38.544C228.991 38.544 228.715 38.772 228.715 39.084C228.715 39.504 229.003 39.636 230.179 39.888C232.099 40.296 233.299 40.812 233.299 42.384C233.299 44.124 231.967 45.144 229.903 45.144ZM237.457 45.144C235.549 45.144 233.953 43.656 233.953 41.892C233.953 40.128 235.549 38.652 237.457 38.652C239.353 38.652 240.949 40.128 240.949 41.892C240.949 43.656 239.353 45.144 237.457 45.144ZM237.457 43.224C238.177 43.224 238.789 42.612 238.789 41.892C238.789 41.172 238.177 40.572 237.457 40.572C236.725 40.572 236.113 41.172 236.113 41.892C236.113 42.612 236.725 43.224 237.457 43.224ZM245.086 45.144C243.178 45.144 241.582 43.656 241.582 41.892C241.582 40.128 243.178 38.652 245.086 38.652C246.982 38.652 248.578 40.128 248.578 41.892C248.578 43.656 246.982 45.144 245.086 45.144ZM245.086 43.224C245.806 43.224 246.418 42.612 246.418 41.892C246.418 41.172 245.806 40.572 245.086 40.572C244.354 40.572 243.742 41.172 243.742 41.892C243.742 42.612 244.354 43.224 245.086 43.224ZM253.567 38.652C254.899 38.652 255.847 39.648 255.847 41.052V45H253.639V41.592C253.639 40.992 253.255 40.572 252.703 40.572C252.187 40.572 251.815 40.968 251.815 41.52V45H249.499V38.796H251.815V39.42C252.199 38.94 252.823 38.652 253.567 38.652ZM257.646 41.712L257.13 36.756H259.71L259.206 41.712H257.646ZM258.426 45.144C257.622 45.144 257.01 44.508 257.01 43.728C257.01 43.008 257.622 42.372 258.426 42.372C259.17 42.372 259.782 43.008 259.782 43.728C259.782 44.508 259.17 45.144 258.426 45.144Z" fill="#FFC553"/>
<path d="M51.7394 76.2148V64.5358H57.4684C59.4914 64.5358 60.9194 65.7598 60.9194 67.4598C60.9194 68.6498 60.3074 69.4828 59.2704 70.0438C60.6134 70.6898 61.4124 71.7608 61.4124 73.0358C61.4124 74.9058 59.8654 76.2148 57.6894 76.2148H51.7394ZM53.8474 69.3128H56.9584C57.9954 69.3128 58.7434 68.7008 58.7434 67.8508C58.7434 66.9838 57.9954 66.3718 56.9584 66.3718H53.8474V69.3128ZM53.8474 74.3788H57.2644C58.4204 74.3788 59.2364 73.6818 59.2364 72.7128C59.2364 71.7438 58.4204 71.0468 57.2644 71.0468H53.8474V74.3788ZM67.5721 76.4188C65.0221 76.4188 62.8631 74.3108 62.8631 71.8118C62.8631 69.3128 65.0221 67.2218 67.5721 67.2218C70.1221 67.2218 72.2811 69.3128 72.2811 71.8118C72.2811 74.3108 70.1221 76.4188 67.5721 76.4188ZM67.5721 74.6508C69.0171 74.6508 70.2411 73.3588 70.2411 71.8118C70.2411 70.2818 69.0171 68.9898 67.5721 68.9898C66.1101 68.9898 64.8861 70.2818 64.8861 71.8118C64.8861 73.3588 66.1101 74.6508 67.5721 74.6508ZM78.3299 76.4188C75.7799 76.4188 73.6209 74.3108 73.6209 71.8118C73.6209 69.3128 75.7799 67.2218 78.3299 67.2218C80.8799 67.2218 83.0389 69.3128 83.0389 71.8118C83.0389 74.3108 80.8799 76.4188 78.3299 76.4188ZM78.3299 74.6508C79.7749 74.6508 80.9989 73.3588 80.9989 71.8118C80.9989 70.2818 79.7749 68.9898 78.3299 68.9898C76.8679 68.9898 75.6439 70.2818 75.6439 71.8118C75.6439 73.3588 76.8679 74.6508 78.3299 74.6508ZM88.0847 76.4188C86.7417 76.4188 85.2967 75.9428 84.2427 75.0928L85.1777 73.6478C86.0277 74.2598 87.0137 74.6678 88.1187 74.6678C88.9517 74.6678 89.5297 74.3108 89.5297 73.7668C89.5297 73.0868 88.7647 72.8658 87.7617 72.5938C85.8577 72.1008 84.6507 71.5568 84.6337 69.9928C84.6337 68.3438 85.9937 67.2218 87.9487 67.2218C89.1557 67.2218 90.3627 67.6468 91.3147 68.2758L90.4477 69.7888C89.6147 69.2618 88.7137 68.9898 87.9487 68.9898C87.2177 68.9898 86.6567 69.2788 86.6567 69.7718C86.6567 70.3328 87.1157 70.5028 88.4587 70.8938C89.9377 71.3018 91.5357 71.8118 91.5357 73.6478C91.5357 75.3308 90.1417 76.4188 88.0847 76.4188ZM97.7237 74.3278L98.3187 75.7218C97.8257 76.1468 97.1117 76.4188 96.4487 76.4188C94.9867 76.4188 93.9667 75.3648 93.9667 73.8858V69.1428H92.6917V67.4258H93.9667V65.0118H95.9897V67.4258H97.9787V69.1428H95.9897V73.6308C95.9897 74.2258 96.3637 74.6508 96.8567 74.6508C97.2137 74.6508 97.5367 74.5148 97.7237 74.3278ZM106.528 79.2748C105.865 79.2748 105.134 79.1048 104.607 78.8158L105.049 77.3198C105.423 77.5238 105.848 77.6428 106.171 77.6428C106.664 77.6428 107.038 77.4898 107.293 77.0648L107.667 76.2828L103.944 67.4258H106.137L108.704 73.9878L111.118 67.4258H113.26L109.537 76.8268C108.874 78.4928 107.854 79.2578 106.528 79.2748ZM118.755 76.4188C116.205 76.4188 114.046 74.3108 114.046 71.8118C114.046 69.3128 116.205 67.2218 118.755 67.2218C121.305 67.2218 123.464 69.3128 123.464 71.8118C123.464 74.3108 121.305 76.4188 118.755 76.4188ZM118.755 74.6508C120.2 74.6508 121.424 73.3588 121.424 71.8118C121.424 70.2818 120.2 68.9898 118.755 68.9898C117.293 68.9898 116.069 70.2818 116.069 71.8118C116.069 73.3588 117.293 74.6508 118.755 74.6508ZM131.213 67.4258H133.287V76.2148H131.213V75.0418C130.669 75.8578 129.649 76.4188 128.493 76.4188C126.572 76.4188 125.229 75.0078 125.229 73.0188V67.4258H127.235V72.6108C127.235 73.8008 128 74.6508 129.088 74.6508C130.176 74.6508 131.077 73.9198 131.213 72.9848V67.4258ZM137.697 69.1258C138.258 67.9528 139.397 67.2218 140.842 67.2218V68.9898C138.955 68.9898 137.697 70.1118 137.697 71.7778V76.2148H135.623V67.4258H137.697V69.1258ZM150.44 76.4188C149.097 76.4188 147.652 75.9428 146.598 75.0928L147.533 73.6478C148.383 74.2598 149.369 74.6678 150.474 74.6678C151.307 74.6678 151.885 74.3108 151.885 73.7668C151.885 73.0868 151.12 72.8658 150.117 72.5938C148.213 72.1008 147.006 71.5568 146.989 69.9928C146.989 68.3438 148.349 67.2218 150.304 67.2218C151.511 67.2218 152.718 67.6468 153.67 68.2758L152.803 69.7888C151.97 69.2618 151.069 68.9898 150.304 68.9898C149.573 68.9898 149.012 69.2788 149.012 69.7718C149.012 70.3328 149.471 70.5028 150.814 70.8938C152.293 71.3018 153.891 71.8118 153.891 73.6478C153.891 75.3308 152.497 76.4188 150.44 76.4188ZM163.989 67.4258L160.368 71.3528L163.87 76.2148H161.456L158.974 72.7128L157.733 74.0218V76.2148H155.659V64.3318H157.733V71.5908L161.541 67.4258H163.989ZM166.293 66.0998C165.63 66.0998 165.103 65.5388 165.103 64.9098C165.103 64.2808 165.63 63.7368 166.293 63.7368C166.939 63.7368 167.466 64.2808 167.466 64.9098C167.466 65.5388 166.939 66.0998 166.293 66.0998ZM165.239 76.2148V67.4258H167.313V76.2148H165.239ZM169.605 76.2148V64.3318H171.679V76.2148H169.605ZM173.972 76.2148V64.3318H176.046V76.2148H173.972ZM181.585 76.4188C180.242 76.4188 178.797 75.9428 177.743 75.0928L178.678 73.6478C179.528 74.2598 180.514 74.6678 181.619 74.6678C182.452 74.6678 183.03 74.3108 183.03 73.7668C183.03 73.0868 182.265 72.8658 181.262 72.5938C179.358 72.1008 178.151 71.5568 178.134 69.9928C178.134 68.3438 179.494 67.2218 181.449 67.2218C182.656 67.2218 183.863 67.6468 184.815 68.2758L183.948 69.7888C183.115 69.2618 182.214 68.9898 181.449 68.9898C180.718 68.9898 180.157 69.2788 180.157 69.7718C180.157 70.3328 180.616 70.5028 181.959 70.8938C183.438 71.3018 185.036 71.8118 185.036 73.6478C185.036 75.3308 183.642 76.4188 181.585 76.4188ZM195.477 67.2218C197.806 67.2218 199.251 68.7008 199.251 70.9278V76.2148H197.228V75.1608C196.582 75.9768 195.477 76.4188 194.457 76.4188C192.587 76.4188 191.176 75.3138 191.176 73.6138C191.176 71.8798 192.791 70.6898 194.763 70.6898C195.562 70.6898 196.429 70.8598 197.228 71.1658V70.9278C197.228 69.9078 196.667 68.9218 195.069 68.9218C194.236 68.9218 193.437 69.2108 192.689 69.5848L191.975 68.1398C193.216 67.5278 194.372 67.2218 195.477 67.2218ZM194.916 74.9058C195.919 74.9058 196.99 74.3958 197.228 73.4608V72.4748C196.582 72.2538 195.851 72.1348 195.069 72.1348C194.032 72.1348 193.199 72.7128 193.199 73.5458C193.199 74.3788 193.93 74.9058 194.916 74.9058ZM206.291 67.2218C208.212 67.2218 209.555 68.6328 209.555 70.6218V76.2148H207.549V71.0298C207.549 69.8398 206.784 68.9898 205.696 68.9898C204.608 68.9898 203.707 69.7208 203.571 70.6558V76.2148H201.497V67.4258H203.571V68.5988C204.115 67.7828 205.135 67.2218 206.291 67.2218ZM218.487 64.3318H220.561V76.2148H218.487V74.8548C217.79 75.8408 216.736 76.4188 215.444 76.4188C213.115 76.4188 211.415 74.5148 211.415 71.8118C211.415 69.1258 213.115 67.2218 215.444 67.2218C216.736 67.2218 217.79 67.7998 218.487 68.7858V64.3318ZM216.005 74.6508C217.467 74.6508 218.487 73.4608 218.487 71.8118C218.487 70.1628 217.467 68.9898 216.005 68.9898C214.526 68.9898 213.472 70.1628 213.472 71.8118C213.472 73.4608 214.526 74.6508 216.005 74.6508ZM230.958 76.4188C229.615 76.4188 228.17 75.9428 227.116 75.0928L228.051 73.6478C228.901 74.2598 229.887 74.6678 230.992 74.6678C231.825 74.6678 232.403 74.3108 232.403 73.7668C232.403 73.0868 231.638 72.8658 230.635 72.5938C228.731 72.1008 227.524 71.5568 227.507 69.9928C227.507 68.3438 228.867 67.2218 230.822 67.2218C232.029 67.2218 233.236 67.6468 234.188 68.2758L233.321 69.7888C232.488 69.2618 231.587 68.9898 230.822 68.9898C230.091 68.9898 229.53 69.2788 229.53 69.7718C229.53 70.3328 229.989 70.5028 231.332 70.8938C232.811 71.3018 234.409 71.8118 234.409 73.6478C234.409 75.3308 233.015 76.4188 230.958 76.4188ZM240.308 74.5828C241.124 74.5828 242.093 74.2088 242.586 73.6988L243.895 75.0588C243.13 75.8748 241.6 76.4188 240.325 76.4188C237.809 76.4188 235.735 74.4978 235.735 71.7948C235.735 69.1598 237.707 67.2218 240.206 67.2218C242.926 67.2218 244.507 69.2788 244.507 72.5258H237.877C238.132 73.7328 239.05 74.5828 240.308 74.5828ZM240.291 69.0578C239.135 69.0578 238.2 69.7888 237.894 70.9448H242.518C242.28 69.8398 241.532 69.0578 240.291 69.0578ZM247.359 66.0998C246.696 66.0998 246.169 65.5388 246.169 64.9098C246.169 64.2808 246.696 63.7368 247.359 63.7368C248.005 63.7368 248.532 64.2808 248.532 64.9098C248.532 65.5388 248.005 66.0998 247.359 66.0998ZM246.305 76.2148V67.4258H248.379V76.2148H246.305ZM250.314 76.2148V74.7018L254.972 69.2448H250.416V67.4258H257.709L257.692 68.9388L253.017 74.3958H257.743V76.2148H250.314ZM263.716 74.5828C264.532 74.5828 265.501 74.2088 265.994 73.6988L267.303 75.0588C266.538 75.8748 265.008 76.4188 263.733 76.4188C261.217 76.4188 259.143 74.4978 259.143 71.7948C259.143 69.1598 261.115 67.2218 263.614 67.2218C266.334 67.2218 267.915 69.2788 267.915 72.5258H261.285C261.54 73.7328 262.458 74.5828 263.716 74.5828ZM263.699 69.0578C262.543 69.0578 261.608 69.7888 261.302 70.9448H265.926C265.688 69.8398 264.94 69.0578 263.699 69.0578ZM279.321 67.2218C281.242 67.2218 282.585 68.6328 282.585 70.6218V76.2148H280.579V71.0298C280.579 69.8398 279.814 68.9898 278.726 68.9898C277.638 68.9898 276.737 69.7208 276.601 70.6558V76.2148H274.527V67.4258H276.601V68.5988C277.145 67.7828 278.165 67.2218 279.321 67.2218ZM288.934 74.5828C289.75 74.5828 290.719 74.2088 291.212 73.6988L292.521 75.0588C291.756 75.8748 290.226 76.4188 288.951 76.4188C286.435 76.4188 284.361 74.4978 284.361 71.7948C284.361 69.1598 286.333 67.2218 288.832 67.2218C291.552 67.2218 293.133 69.2788 293.133 72.5258H286.503C286.758 73.7328 287.676 74.5828 288.934 74.5828ZM288.917 69.0578C287.761 69.0578 286.826 69.7888 286.52 70.9448H291.144C290.906 69.8398 290.158 69.0578 288.917 69.0578ZM296.743 76.2148L293.768 67.4258H295.842L297.678 73.4268L299.633 67.4258H301.367L303.339 73.4268L305.158 67.4258H307.232L304.274 76.2148H302.387L300.5 70.1968L298.63 76.2148H296.743ZM20.6561 96.4188C18.1061 96.4188 15.9471 94.3108 15.9471 91.8118C15.9471 89.3128 18.1061 87.2218 20.6561 87.2218C23.2061 87.2218 25.3651 89.3128 25.3651 91.8118C25.3651 94.3108 23.2061 96.4188 20.6561 96.4188ZM20.6561 94.6508C22.1011 94.6508 23.3251 93.3588 23.3251 91.8118C23.3251 90.2818 22.1011 88.9898 20.6561 88.9898C19.1941 88.9898 17.9701 90.2818 17.9701 91.8118C17.9701 93.3588 19.1941 94.6508 20.6561 94.6508ZM32.3489 87.2218C34.6779 87.2218 36.3779 89.1258 36.3779 91.8118C36.3779 94.5148 34.6779 96.4188 32.3489 96.4188C31.0399 96.4188 29.9859 95.8238 29.2889 94.8208V99.1388H27.2149V87.4258H29.2889V88.8198C29.9859 87.8168 31.0399 87.2218 32.3489 87.2218ZM31.7879 94.6508C33.2669 94.6508 34.3209 93.4608 34.3209 91.8118C34.3209 90.1628 33.2669 88.9898 31.7879 88.9898C30.3259 88.9898 29.3059 90.1628 29.3059 91.8118C29.3059 93.4608 30.3259 94.6508 31.7879 94.6508ZM43.4387 87.2218C45.7677 87.2218 47.4677 89.1258 47.4677 91.8118C47.4677 94.5148 45.7677 96.4188 43.4387 96.4188C42.1297 96.4188 41.0757 95.8238 40.3787 94.8208V99.1388H38.3047V87.4258H40.3787V88.8198C41.0757 87.8168 42.1297 87.2218 43.4387 87.2218ZM42.8777 94.6508C44.3567 94.6508 45.4107 93.4608 45.4107 91.8118C45.4107 90.1628 44.3567 88.9898 42.8777 88.9898C41.4157 88.9898 40.3957 90.1628 40.3957 91.8118C40.3957 93.4608 41.4157 94.6508 42.8777 94.6508ZM53.5936 96.4188C51.0436 96.4188 48.8846 94.3108 48.8846 91.8118C48.8846 89.3128 51.0436 87.2218 53.5936 87.2218C56.1436 87.2218 58.3026 89.3128 58.3026 91.8118C58.3026 94.3108 56.1436 96.4188 53.5936 96.4188ZM53.5936 94.6508C55.0386 94.6508 56.2626 93.3588 56.2626 91.8118C56.2626 90.2818 55.0386 88.9898 53.5936 88.9898C52.1316 88.9898 50.9076 90.2818 50.9076 91.8118C50.9076 93.3588 52.1316 94.6508 53.5936 94.6508ZM62.2264 89.1258C62.7874 87.9528 63.9264 87.2218 65.3714 87.2218V88.9898C63.4844 88.9898 62.2264 90.1118 62.2264 91.7778V96.2148H60.1524V87.4258H62.2264V89.1258ZM71.294 94.3278L71.889 95.7218C71.396 96.1468 70.682 96.4188 70.019 96.4188C68.557 96.4188 67.537 95.3648 67.537 93.8858V89.1428H66.262V87.4258H67.537V85.0118H69.56V87.4258H71.549V89.1428H69.56V93.6308C69.56 94.2258 69.934 94.6508 70.427 94.6508C70.784 94.6508 71.107 94.5148 71.294 94.3278ZM79.4489 87.4258H81.5229V96.2148H79.4489V95.0418C78.9049 95.8578 77.8849 96.4188 76.7289 96.4188C74.8079 96.4188 73.4649 95.0078 73.4649 93.0188V87.4258H75.4709V92.6108C75.4709 93.8008 76.2359 94.6508 77.3239 94.6508C78.4119 94.6508 79.3129 93.9198 79.4489 92.9848V87.4258ZM88.6024 87.2218C90.5234 87.2218 91.8664 88.6328 91.8664 90.6218V96.2148H89.8604V91.0298C89.8604 89.8398 89.0954 88.9898 88.0074 88.9898C86.9194 88.9898 86.0184 89.7208 85.8824 90.6558V96.2148H83.8084V87.4258H85.8824V88.5988C86.4264 87.7828 87.4464 87.2218 88.6024 87.2218ZM95.172 86.0998C94.509 86.0998 93.982 85.5388 93.982 84.9098C93.982 84.2808 94.509 83.7368 95.172 83.7368C95.818 83.7368 96.345 84.2808 96.345 84.9098C96.345 85.5388 95.818 86.0998 95.172 86.0998ZM94.118 96.2148V87.4258H96.192V96.2148H94.118ZM102.87 94.3278L103.465 95.7218C102.972 96.1468 102.258 96.4188 101.595 96.4188C100.133 96.4188 99.1132 95.3648 99.1132 93.8858V89.1428H97.8382V87.4258H99.1132V85.0118H101.136V87.4258H103.125V89.1428H101.136V93.6308C101.136 94.2258 101.51 94.6508 102.003 94.6508C102.36 94.6508 102.683 94.5148 102.87 94.3278ZM106.129 86.0998C105.466 86.0998 104.939 85.5388 104.939 84.9098C104.939 84.2808 105.466 83.7368 106.129 83.7368C106.775 83.7368 107.302 84.2808 107.302 84.9098C107.302 85.5388 106.775 86.0998 106.129 86.0998ZM105.075 96.2148V87.4258H107.149V96.2148H105.075ZM113.538 94.5828C114.354 94.5828 115.323 94.2088 115.816 93.6988L117.125 95.0588C116.36 95.8748 114.83 96.4188 113.555 96.4188C111.039 96.4188 108.965 94.4978 108.965 91.7948C108.965 89.1598 110.937 87.2218 113.436 87.2218C116.156 87.2218 117.737 89.2788 117.737 92.5258H111.107C111.362 93.7328 112.28 94.5828 113.538 94.5828ZM113.521 89.0578C112.365 89.0578 111.43 89.7888 111.124 90.9448H115.748C115.51 89.8398 114.762 89.0578 113.521 89.0578ZM122.782 96.4188C121.439 96.4188 119.994 95.9428 118.94 95.0928L119.875 93.6478C120.725 94.2598 121.711 94.6678 122.816 94.6678C123.649 94.6678 124.227 94.3108 124.227 93.7668C124.227 93.0868 123.462 92.8658 122.459 92.5938C120.555 92.1008 119.348 91.5568 119.331 89.9928C119.331 88.3438 120.691 87.2218 122.646 87.2218C123.853 87.2218 125.06 87.6468 126.012 88.2758L125.145 89.7888C124.312 89.2618 123.411 88.9898 122.646 88.9898C121.915 88.9898 121.354 89.2788 121.354 89.7718C121.354 90.3328 121.813 90.5028 123.156 90.8938C124.635 91.3018 126.233 91.8118 126.233 93.6478C126.233 95.3308 124.839 96.4188 122.782 96.4188ZM129.293 96.4188C128.511 96.4188 127.933 95.8068 127.933 95.0588C127.933 94.3618 128.511 93.7498 129.293 93.7498C130.007 93.7498 130.602 94.3618 130.602 95.0588C130.602 95.8068 130.007 96.4188 129.293 96.4188ZM141.95 96.4018C139.944 96.4018 138.244 95.7218 136.952 94.5148L138.176 93.0018C139.247 93.9708 140.488 94.5828 142.018 94.5828C143.463 94.5828 144.211 93.8688 144.211 93.0358C144.211 92.0668 143.378 91.7438 141.508 91.3018C139.094 90.7408 137.411 90.0438 137.411 87.8508C137.411 85.8108 139.145 84.3148 141.61 84.3148C143.463 84.3148 144.857 84.9438 146.03 85.9468L144.874 87.5108C143.854 86.6268 142.681 86.1338 141.525 86.1338C140.352 86.1338 139.553 86.8478 139.553 87.6638C139.553 88.6158 140.42 88.9558 142.273 89.3808C144.704 89.9248 146.336 90.7068 146.336 92.8318C146.336 94.9228 144.738 96.4018 141.95 96.4018ZM152.592 94.3278L153.187 95.7218C152.694 96.1468 151.98 96.4188 151.317 96.4188C149.855 96.4188 148.835 95.3648 148.835 93.8858V89.1428H147.56V87.4258H148.835V85.0118H150.858V87.4258H152.847V89.1428H150.858V93.6308C150.858 94.2258 151.232 94.6508 151.725 94.6508C152.082 94.6508 152.405 94.5148 152.592 94.3278ZM158.622 87.2218C160.951 87.2218 162.396 88.7008 162.396 90.9278V96.2148H160.373V95.1608C159.727 95.9768 158.622 96.4188 157.602 96.4188C155.732 96.4188 154.321 95.3138 154.321 93.6138C154.321 91.8798 155.936 90.6898 157.908 90.6898C158.707 90.6898 159.574 90.8598 160.373 91.1658V90.9278C160.373 89.9078 159.812 88.9218 158.214 88.9218C157.381 88.9218 156.582 89.2108 155.834 89.5848L155.12 88.1398C156.361 87.5278 157.517 87.2218 158.622 87.2218ZM158.061 94.9058C159.064 94.9058 160.135 94.3958 160.373 93.4608V92.4748C159.727 92.2538 158.996 92.1348 158.214 92.1348C157.177 92.1348 156.344 92.7128 156.344 93.5458C156.344 94.3788 157.075 94.9058 158.061 94.9058ZM166.426 99.2748C165.763 99.2748 165.032 99.1048 164.505 98.8158L164.947 97.3198C165.321 97.5238 165.746 97.6428 166.069 97.6428C166.562 97.6428 166.936 97.4898 167.191 97.0648L167.565 96.2828L163.842 87.4258H166.035L168.602 93.9878L171.016 87.4258H173.158L169.435 96.8268C168.772 98.4928 167.752 99.2578 166.426 99.2748ZM184.019 94.3278L184.614 95.7218C184.121 96.1468 183.407 96.4188 182.744 96.4188C181.282 96.4188 180.262 95.3648 180.262 93.8858V89.1428H178.987V87.4258H180.262V85.0118H182.285V87.4258H184.274V89.1428H182.285V93.6308C182.285 94.2258 182.659 94.6508 183.152 94.6508C183.509 94.6508 183.832 94.5148 184.019 94.3278ZM192.173 87.4258H194.247V96.2148H192.173V95.0418C191.629 95.8578 190.609 96.4188 189.453 96.4188C187.532 96.4188 186.189 95.0078 186.189 93.0188V87.4258H188.195V92.6108C188.195 93.8008 188.96 94.6508 190.048 94.6508C191.136 94.6508 192.037 93.9198 192.173 92.9848V87.4258ZM201.327 87.2218C203.248 87.2218 204.591 88.6328 204.591 90.6218V96.2148H202.585V91.0298C202.585 89.8398 201.82 88.9898 200.732 88.9898C199.644 88.9898 198.743 89.7208 198.607 90.6558V96.2148H196.533V87.4258H198.607V88.5988C199.151 87.7828 200.171 87.2218 201.327 87.2218ZM210.94 94.5828C211.756 94.5828 212.725 94.2088 213.218 93.6988L214.527 95.0588C213.762 95.8748 212.232 96.4188 210.957 96.4188C208.441 96.4188 206.367 94.4978 206.367 91.7948C206.367 89.1598 208.339 87.2218 210.838 87.2218C213.558 87.2218 215.139 89.2788 215.139 92.5258H208.509C208.764 93.7328 209.682 94.5828 210.94 94.5828ZM210.923 89.0578C209.767 89.0578 208.832 89.7888 208.526 90.9448H213.15C212.912 89.8398 212.164 89.0578 210.923 89.0578ZM223.617 84.3318H225.691V96.2148H223.617V94.8548C222.92 95.8408 221.866 96.4188 220.574 96.4188C218.245 96.4188 216.545 94.5148 216.545 91.8118C216.545 89.1258 218.245 87.2218 220.574 87.2218C221.866 87.2218 222.92 87.7998 223.617 88.7858V84.3318ZM221.135 94.6508C222.597 94.6508 223.617 93.4608 223.617 91.8118C223.617 90.1628 222.597 88.9898 221.135 88.9898C219.656 88.9898 218.602 90.1628 218.602 91.8118C218.602 93.4608 219.656 94.6508 221.135 94.6508ZM237.227 94.3278L237.822 95.7218C237.329 96.1468 236.615 96.4188 235.952 96.4188C234.49 96.4188 233.47 95.3648 233.47 93.8858V89.1428H232.195V87.4258H233.47V85.0118H235.493V87.4258H237.482V89.1428H235.493V93.6308C235.493 94.2258 235.867 94.6508 236.36 94.6508C236.717 94.6508 237.04 94.5148 237.227 94.3278ZM243.681 96.4188C241.131 96.4188 238.972 94.3108 238.972 91.8118C238.972 89.3128 241.131 87.2218 243.681 87.2218C246.231 87.2218 248.39 89.3128 248.39 91.8118C248.39 94.3108 246.231 96.4188 243.681 96.4188ZM243.681 94.6508C245.126 94.6508 246.35 93.3588 246.35 91.8118C246.35 90.2818 245.126 88.9898 243.681 88.9898C242.219 88.9898 240.995 90.2818 240.995 91.8118C240.995 93.3588 242.219 94.6508 243.681 94.6508ZM259.101 94.5828C259.917 94.5828 260.886 94.2088 261.379 93.6988L262.688 95.0588C261.923 95.8748 260.393 96.4188 259.118 96.4188C256.602 96.4188 254.528 94.4978 254.528 91.7948C254.528 89.1598 256.5 87.2218 258.999 87.2218C261.719 87.2218 263.3 89.2788 263.3 92.5258H256.67C256.925 93.7328 257.843 94.5828 259.101 94.5828ZM259.084 89.0578C257.928 89.0578 256.993 89.7888 256.687 90.9448H261.311C261.073 89.8398 260.325 89.0578 259.084 89.0578ZM269.891 87.2218C271.812 87.2218 273.155 88.6328 273.155 90.6218V96.2148H271.149V91.0298C271.149 89.8398 270.384 88.9898 269.296 88.9898C268.208 88.9898 267.307 89.7208 267.171 90.6558V96.2148H265.097V87.4258H267.171V88.5988C267.715 87.7828 268.735 87.2218 269.891 87.2218ZM277.532 89.1258C278.093 87.9528 279.232 87.2218 280.677 87.2218V88.9898C278.79 88.9898 277.532 90.1118 277.532 91.7778V96.2148H275.458V87.4258H277.532V89.1258ZM286.248 96.4188C283.698 96.4188 281.539 94.3108 281.539 91.8118C281.539 89.3128 283.698 87.2218 286.248 87.2218C288.798 87.2218 290.957 89.3128 290.957 91.8118C290.957 94.3108 288.798 96.4188 286.248 96.4188ZM286.248 94.6508C287.693 94.6508 288.917 93.3588 288.917 91.8118C288.917 90.2818 287.693 88.9898 286.248 88.9898C284.786 88.9898 283.562 90.2818 283.562 91.8118C283.562 93.3588 284.786 94.6508 286.248 94.6508ZM292.756 96.2148V84.3318H294.83V96.2148H292.756ZM297.122 96.2148V84.3318H299.196V96.2148H297.122ZM308.955 86.6948V87.4258H310.944V89.1428H308.955V96.2148H306.932V89.1428H305.657V87.4258H306.932V86.5078C306.932 85.0288 307.952 83.9748 309.414 83.9748C310.077 83.9748 310.791 84.2468 311.284 84.6718L310.689 85.9978C310.502 85.8108 310.179 85.6748 309.822 85.6748C309.329 85.6748 308.955 86.0998 308.955 86.6948ZM313.649 86.0998C312.986 86.0998 312.459 85.5388 312.459 84.9098C312.459 84.2808 312.986 83.7368 313.649 83.7368C314.295 83.7368 314.822 84.2808 314.822 84.9098C314.822 85.5388 314.295 86.0998 313.649 86.0998ZM312.595 96.2148V87.4258H314.669V96.2148H312.595ZM319.086 89.1258C319.647 87.9528 320.786 87.2218 322.231 87.2218V88.9898C320.344 88.9898 319.086 90.1118 319.086 91.7778V96.2148H317.012V87.4258H319.086V89.1258ZM327.014 96.4188C325.671 96.4188 324.226 95.9428 323.172 95.0928L324.107 93.6478C324.957 94.2598 325.943 94.6678 327.048 94.6678C327.881 94.6678 328.459 94.3108 328.459 93.7668C328.459 93.0868 327.694 92.8658 326.691 92.5938C324.787 92.1008 323.58 91.5568 323.563 89.9928C323.563 88.3438 324.923 87.2218 326.878 87.2218C328.085 87.2218 329.292 87.6468 330.244 88.2758L329.377 89.7888C328.544 89.2618 327.643 88.9898 326.878 88.9898C326.147 88.9898 325.586 89.2788 325.586 89.7718C325.586 90.3328 326.045 90.5028 327.388 90.8938C328.867 91.3018 330.465 91.8118 330.465 93.6478C330.465 95.3308 329.071 96.4188 327.014 96.4188ZM336.653 94.3278L337.248 95.7218C336.755 96.1468 336.041 96.4188 335.378 96.4188C333.916 96.4188 332.896 95.3648 332.896 93.8858V89.1428H331.621V87.4258H332.896V85.0118H334.919V87.4258H336.908V89.1428H334.919V93.6308C334.919 94.2258 335.293 94.6508 335.786 94.6508C336.143 94.6508 336.466 94.5148 336.653 94.3278ZM339.555 92.3898L339.062 84.5358H341.476L340.983 92.3898H339.555ZM340.269 96.4188C339.487 96.4188 338.909 95.8068 338.909 95.0588C338.909 94.3618 339.487 93.7498 340.269 93.7498C340.983 93.7498 341.578 94.3618 341.578 95.0588C341.578 95.8068 340.983 96.4188 340.269 96.4188Z" fill="white"/>
</g>
<defs>
<linearGradient id="paint0_linear_2097_9783" x1="-6" y1="-4.33333" x2="192.786" y2="251.682" gradientUnits="userSpaceOnUse">
<stop stop-color="#5185E8"/>
<stop offset="1" stop-color="#2857AF"/>
</linearGradient>
<linearGradient id="paint1_linear_2097_9783" x1="591.841" y1="14.4621" x2="409.676" y2="100.644" gradientUnits="userSpaceOnUse">
<stop stop-color="white"/>
<stop offset="1" stop-color="white" stop-opacity="0.44"/>
</linearGradient>
<linearGradient id="paint2_linear_2097_9783" x1="596.771" y1="11.7564" x2="401.858" y2="102.777" gradientUnits="userSpaceOnUse">
<stop stop-color="white"/>
<stop offset="1" stop-color="white" stop-opacity="0.44"/>
</linearGradient>
<linearGradient id="paint3_linear_2097_9783" x1="601.414" y1="8.5027" x2="393.582" y2="104.187" gradientUnits="userSpaceOnUse">
<stop stop-color="white"/>
<stop offset="1" stop-color="white" stop-opacity="0.44"/>
</linearGradient>
<linearGradient id="paint4_linear_2097_9783" x1="605.705" y1="4.72819" x2="384.886" y2="104.802" gradientUnits="userSpaceOnUse">
<stop stop-color="white"/>
<stop offset="1" stop-color="white" stop-opacity="0.44"/>
</linearGradient>
<linearGradient id="paint5_linear_2097_9783" x1="609.576" y1="0.384642" x2="375.795" y2="104.502" gradientUnits="userSpaceOnUse">
<stop stop-color="white"/>
<stop offset="1" stop-color="white" stop-opacity="0.44"/>
</linearGradient>
<linearGradient id="paint6_linear_2097_9783" x1="612.885" y1="-4.4583" x2="366.386" y2="103.234" gradientUnits="userSpaceOnUse">
<stop stop-color="white"/>
<stop offset="1" stop-color="white" stop-opacity="0.44"/>
</linearGradient>
<linearGradient id="paint7_linear_2097_9783" x1="615.734" y1="-9.89482" x2="356.667" y2="100.893" gradientUnits="userSpaceOnUse">
<stop stop-color="white"/>
<stop offset="1" stop-color="white" stop-opacity="0.44"/>
</linearGradient>
<linearGradient id="paint8_linear_2097_9783" x1="617.975" y1="-15.9135" x2="346.708" y2="97.361" gradientUnits="userSpaceOnUse">
<stop stop-color="white"/>
<stop offset="1" stop-color="white" stop-opacity="0.44"/>
</linearGradient>
<linearGradient id="paint9_linear_2097_9783" x1="619.569" y1="-22.4439" x2="336.657" y2="92.6384" gradientUnits="userSpaceOnUse">
<stop stop-color="white"/>
<stop offset="1" stop-color="white" stop-opacity="0.44"/>
</linearGradient>
<linearGradient id="paint10_linear_2097_9783" x1="620.444" y1="-29.566" x2="326.735" y2="86.5268" gradientUnits="userSpaceOnUse">
<stop stop-color="white"/>
<stop offset="1" stop-color="white" stop-opacity="0.44"/>
</linearGradient>
<linearGradient id="paint11_linear_2097_9783" x1="620.558" y1="-37.2167" x2="317.08" y2="79.0838" gradientUnits="userSpaceOnUse">
<stop stop-color="white"/>
<stop offset="1" stop-color="white" stop-opacity="0.44"/>
</linearGradient>
<linearGradient id="paint12_linear_2097_9783" x1="619.929" y1="-45.3023" x2="307.869" y2="70.4665" gradientUnits="userSpaceOnUse">
<stop stop-color="white"/>
<stop offset="1" stop-color="white" stop-opacity="0.44"/>
</linearGradient>
<linearGradient id="paint13_linear_2097_9783" x1="618.485" y1="-53.8861" x2="299.2" y2="60.6902" gradientUnits="userSpaceOnUse">
<stop stop-color="white"/>
<stop offset="1" stop-color="white" stop-opacity="0.44"/>
</linearGradient>
<linearGradient id="paint14_linear_2097_9783" x1="622.988" y1="-51.2212" x2="299.022" y2="67.8035" gradientUnits="userSpaceOnUse">
<stop stop-color="white"/>
<stop offset="1" stop-color="white" stop-opacity="0.44"/>
</linearGradient>
<linearGradient id="paint15_linear_2097_9783" x1="631.071" y1="-41.5434" x2="304.571" y2="84.7092" gradientUnits="userSpaceOnUse">
<stop stop-color="white"/>
<stop offset="1" stop-color="white" stop-opacity="0.44"/>
</linearGradient>
<linearGradient id="paint16_linear_2097_9783" x1="638.855" y1="-31.1653" x2="311.682" y2="101.371" gradientUnits="userSpaceOnUse">
<stop stop-color="white"/>
<stop offset="1" stop-color="white" stop-opacity="0.44"/>
</linearGradient>
<linearGradient id="paint17_linear_2097_9783" x1="646.394" y1="-20.2055" x2="320.307" y2="117.507" gradientUnits="userSpaceOnUse">
<stop stop-color="white"/>
<stop offset="1" stop-color="white" stop-opacity="0.44"/>
</linearGradient>
<linearGradient id="paint18_linear_2097_9783" x1="653.699" y1="-8.75773" x2="330.505" y2="132.918" gradientUnits="userSpaceOnUse">
<stop stop-color="white"/>
<stop offset="1" stop-color="white" stop-opacity="0.44"/>
</linearGradient>
<linearGradient id="paint19_linear_2097_9783" x1="660.781" y1="3.09981" x2="342.122" y2="147.469" gradientUnits="userSpaceOnUse">
<stop stop-color="white"/>
<stop offset="1" stop-color="white" stop-opacity="0.44"/>
</linearGradient>
<linearGradient id="paint20_linear_2097_9783" x1="667.677" y1="15.2534" x2="355.178" y2="161.01" gradientUnits="userSpaceOnUse">
<stop stop-color="white"/>
<stop offset="1" stop-color="white" stop-opacity="0.44"/>
</linearGradient>
<linearGradient id="paint21_linear_2097_9783" x1="674.478" y1="27.5531" x2="369.627" y2="173.427" gradientUnits="userSpaceOnUse">
<stop stop-color="white"/>
<stop offset="1" stop-color="white" stop-opacity="0.44"/>
</linearGradient>
<clipPath id="clip0_2097_9783">
<rect width="358" height="130" rx="20" fill="white"/>
</clipPath>
<clipPath id="clip1_2097_9783">
<rect width="335.495" height="342.889" fill="white" transform="translate(695.992 57.9512) rotate(150)"/>
</clipPath>
</defs>
</svg>
