<svg width="358" height="130" viewBox="0 0 358 130" fill="none" xmlns="http://www.w3.org/2000/svg">
<g clip-path="url(#clip0_2097_9816)">
<rect width="358" height="130" rx="20" fill="#6F49FE"/>
<g opacity="0.4">
<g clip-path="url(#clip1_2097_9816)">
<path d="M455.274 82.9829C457.831 87.4394 458.862 91.7368 458.26 95.7205C457.125 103.193 450.366 109.15 438.719 112.94L438.472 113.022L358.297 75.5513C352.59 72.8838 345.419 70.8542 338.627 69.9822L272.22 61.4653C259.055 59.7795 245.769 54.0426 241.972 48.4117C240.99 46.9563 240.66 45.5492 241.005 44.2428C243.907 33.1813 259.846 25.884 284.733 24.2241C332.759 21.0187 400.951 39.0345 436.743 64.3788C445.544 70.6107 451.813 76.9432 455.278 82.9809L455.274 82.9829ZM438.556 111.613C449.548 107.982 455.91 102.422 456.96 95.5235C458.307 86.6652 450.856 75.9885 435.981 65.4554C400.398 40.2581 332.585 22.351 284.815 25.5381C260.527 27.1583 245.023 34.1001 242.272 44.5829C242.03 45.5081 242.292 46.5492 243.058 47.6829C246.669 53.0385 259.551 58.5199 272.387 60.1692L338.794 68.6861C345.716 69.5756 353.025 71.6455 358.851 74.3687L438.556 111.622L438.556 111.613Z" fill="url(#paint0_linear_2097_9816)"/>
<path d="M457.728 85.6833C460.775 90.9944 461.88 96.0453 460.894 100.594C459.152 108.635 451.168 114.688 437.795 118.098L437.551 118.161L357.608 75.773C351.915 72.7526 344.59 70.3101 337.517 69.0701L268.36 56.9476C254.662 54.5473 241.369 48.078 238.05 42.0534C237.189 40.4964 237.021 39.0425 237.557 37.7234C242.055 26.6149 259.835 20.009 286.341 19.6C337.568 18.8074 407.367 40.7213 441.939 68.4443C449.219 74.2846 454.537 80.1231 457.726 85.6798L457.728 85.6833ZM437.715 116.764C450.421 113.475 457.992 107.792 459.609 100.319C461.513 91.5185 454.947 80.5642 441.117 69.4725C406.748 41.9094 337.322 20.126 286.359 20.9141C260.405 21.3147 243.06 27.6205 238.77 38.2184C238.391 39.1533 238.535 40.2297 239.195 41.4195C242.328 47.0169 255.232 53.3137 268.585 55.6553L337.742 67.7777C344.946 69.0389 352.41 71.5306 358.221 74.6121L437.715 116.764Z" fill="url(#paint1_linear_2097_9816)"/>
<path d="M459.897 88.2504C463.504 94.5372 464.619 100.415 463.134 105.673C460.693 114.308 451.367 120.41 436.166 123.319L435.922 123.367L356.864 75.9644C351.233 72.5867 343.804 69.7159 336.475 68.0849L264.88 52.1371C250.785 48.9983 237.558 41.6586 234.767 35.4232C234.02 33.7541 234.021 32.2316 234.766 30.8933C240.953 19.8185 260.595 14.0117 288.652 14.9611C342.952 16.7978 413.951 42.7743 446.926 72.8673C452.739 78.1734 457.081 83.3352 459.9 88.2484L459.897 88.2504ZM436.162 121.983C450.698 119.156 459.587 113.398 461.868 105.319C464.334 96.5911 458.712 85.4164 446.036 73.8422C413.261 43.9289 342.641 18.1076 288.608 16.2788C261.057 15.3469 241.85 20.9089 235.909 31.539C235.376 32.4934 235.392 33.62 235.964 34.8881C238.593 40.7611 251.429 47.7962 265.165 50.8555L336.761 66.8034C344.217 68.4628 351.79 71.3932 357.538 74.8375L436.166 121.981L436.162 121.983Z" fill="url(#paint2_linear_2097_9816)"/>
<path d="M461.53 90.5097C465.85 98.0387 467.026 104.962 464.918 110.946C461.662 120.196 450.889 126.286 433.756 128.56L433.508 128.592L356.036 76.1223C350.519 72.3842 343.029 69.0702 335.491 67.0259L261.816 47.0463C247.233 43.0884 234.482 35.1353 232.162 28.5513C231.537 26.7716 231.719 25.1261 232.686 23.7894C240.653 12.834 262.158 7.93532 291.692 10.3511C348.905 15.0281 420.643 45.217 451.614 77.6461C455.846 82.0797 459.16 86.3874 461.526 90.5117L461.53 90.5097ZM433.835 127.223C450.301 124.995 460.618 119.218 463.683 110.509C466.767 101.744 462.266 90.6945 450.671 78.5508C419.891 46.3198 348.529 16.3113 291.592 11.6595C262.527 9.283 241.446 13.984 233.758 24.5588C233.044 25.5433 232.925 26.7384 233.409 28.1116C235.565 34.2244 248.195 41.9843 262.167 45.7735L335.842 65.7531C343.516 67.8343 351.146 71.2153 356.779 75.0289L433.838 127.221L433.835 127.223Z" fill="url(#paint3_linear_2097_9816)"/>
<path d="M462.67 92.3264C467.874 101.395 469.106 109.602 466.205 116.417C462.002 126.293 449.669 132.299 430.539 133.788L430.288 133.808L355.15 76.236C349.799 72.1364 342.31 68.3667 334.6 65.8873L259.248 41.6866C244.566 36.9714 232.125 28.2839 230.317 21.4615C229.802 19.5218 230.184 17.7844 231.422 16.4304C241.252 5.68441 264.617 1.8066 295.521 5.79138C355.446 13.5204 427.425 48.0501 455.971 82.7592C458.664 86.0338 460.9 89.2257 462.675 92.3189L462.67 92.3264ZM430.686 132.457C448.891 130.993 461.076 125.119 464.998 115.9C468.684 107.24 465.212 96.0743 454.954 83.6002C426.589 49.1095 354.99 14.7938 295.351 7.09845C264.878 3.16584 241.927 6.89299 232.391 17.3183C231.458 18.3368 231.187 19.6193 231.586 21.1242C233.259 27.4309 245.59 35.9191 259.648 40.436L335.003 64.6347C342.851 67.1544 350.486 71.0016 355.951 75.1876L430.687 132.452L430.686 132.457Z" fill="url(#paint4_linear_2097_9816)"/>
<path d="M463.282 93.5389C469.587 104.528 470.86 114.312 466.931 122.076C461.699 132.419 447.322 138.415 426.449 138.959L426.196 138.966L354.19 76.3129C349.065 71.8536 341.635 67.6177 333.797 64.6917L257.219 36.094C242.591 30.6306 230.571 21.2185 229.269 14.2115C228.874 12.0881 229.479 10.2414 231.021 8.87345C242.8 -1.56972 267.996 -4.30885 300.147 1.35203C362.545 12.3398 434.212 51.3119 459.901 88.2254C461.155 90.0262 462.283 91.7985 463.284 93.5424L463.282 93.5389ZM426.672 137.639C446.898 137.067 460.777 131.334 465.758 121.484C470.079 112.943 467.679 101.7 458.822 88.9735C433.306 52.3056 362.022 13.5777 299.92 2.64087C268.164 -2.95145 243.369 -0.322859 231.892 9.85456C230.697 10.9131 230.249 12.2969 230.559 13.9677C231.786 20.5627 243.445 29.5469 257.678 34.8651L334.256 63.4628C342.234 66.4415 349.81 70.7637 355.052 75.3217L426.672 137.639Z" fill="url(#paint5_linear_2097_9816)"/>
<path d="M463.348 93.9741L463.36 93.9949C471.022 107.356 472.292 119.091 467.036 127.925C460.534 138.845 444.351 144.562 421.459 144.024L421.198 144.018L353.165 76.33C348.327 71.513 341.015 66.8092 333.108 63.4173L255.808 30.2667C241.15 23.983 229.917 14.1148 229.094 6.80511C228.831 4.46321 229.693 2.50178 231.581 1.12827C245.38 -8.90539 272.368 -10.3964 305.634 -2.96074C370.216 11.4738 440.963 54.9572 463.353 93.9756L463.348 93.9741ZM421.75 142.712C444.006 143.192 459.682 137.706 465.903 127.251C470.906 118.847 469.633 107.573 462.219 94.6447L462.207 94.6239C439.976 55.8822 369.617 12.6822 305.341 -1.68411C272.445 -9.03734 245.843 -7.62569 232.35 2.18674C230.843 3.28098 230.188 4.78388 230.397 6.65533C231.155 13.4183 242.304 23.0448 256.323 29.056L333.623 62.2066C341.676 65.6616 349.136 70.4694 354.088 75.3961L421.747 142.714L421.75 142.712Z" fill="url(#paint6_linear_2097_9816)"/>
<path d="M462.82 93.3848C464.11 95.6338 465.26 97.8623 466.265 100.078C472.4 113.598 472.455 125.317 466.429 133.972C458.464 145.41 440.381 150.727 415.515 148.944L415.246 148.924L352.077 76.3018C347.586 71.1378 340.467 65.9602 332.545 62.0938L255.071 24.2553C240.775 17.2718 230.168 6.78685 229.85 -0.684026C229.739 -3.27409 230.886 -5.36272 233.172 -6.73397C249.055 -16.2528 277.782 -16.3729 311.991 -7.06862C374.87 10.0315 440.208 53.9788 462.825 93.3863L462.82 93.3848ZM415.877 147.651C440.121 149.344 457.686 144.223 465.348 133.217C471.095 124.966 470.997 113.694 465.067 100.618C446.616 59.937 377.783 12.182 311.638 -5.80824C277.772 -15.0197 249.418 -14.9477 233.838 -5.61247C231.966 -4.49184 231.066 -2.85343 231.153 -0.746244C231.449 6.15763 241.974 16.3953 255.641 23.0683L333.115 60.9067C341.191 64.85 348.457 70.1461 353.06 75.4341L415.875 147.647L415.877 147.651Z" fill="url(#paint7_linear_2097_9816)"/>
<path d="M461.77 91.6335C464.652 96.6574 466.936 101.607 468.553 106.437C473.123 120.083 471.902 131.757 465.029 140.203C455.381 152.059 435.337 156.837 408.59 153.65L408.309 153.618L350.921 76.2023C346.846 70.7035 339.992 65.0514 332.117 60.6981L255.072 18.0692C241.061 10.3153 231.404 -0.493983 231.586 -8.23295C231.653 -11.1049 233.134 -13.3341 235.865 -14.6809C253.888 -23.5649 284.282 -22.2081 319.25 -10.9477C379.565 8.47416 439.094 52.1168 461.768 91.63L461.77 91.6335ZM409.03 152.381C435.174 155.445 454.692 150.827 464.012 139.375C470.585 131.298 471.725 120.052 467.307 106.853C453.081 64.3645 386.482 12.0801 318.846 -9.69512C284.201 -20.8507 254.166 -22.2389 236.444 -13.5044C234.147 -12.3701 232.957 -10.5882 232.899 -8.20464C232.728 -1.05598 242.319 9.51043 255.708 16.9176L332.756 59.55C340.789 63.9961 347.797 69.7805 351.977 75.4216L409.03 152.381Z" fill="url(#paint8_linear_2097_9816)"/>
<path d="M460.199 88.4736C465.039 96.9091 468.443 105.18 470.144 113.058C473.111 126.813 470.543 138.424 462.717 146.635C451.159 158.764 429.115 162.835 400.655 158.107L400.361 158.059L349.714 76.0486C346.122 70.2308 339.61 64.116 331.851 59.2592L255.88 11.7601C242.518 3.40772 233.676 -7.9146 234.369 -15.7723C234.652 -18.9657 236.511 -21.3436 239.743 -22.6458C259.949 -30.7776 291.913 -27.815 327.437 -14.5191C384.289 6.76154 437.716 49.2925 460.201 88.4771L460.199 88.4736ZM401.162 156.859C429.04 161.439 450.552 157.489 461.764 145.729C469.278 137.848 471.731 126.644 468.859 113.335C459.342 69.2344 395.693 12.4332 326.975 -13.2882C291.754 -26.4728 260.139 -29.4376 240.231 -21.4265C237.447 -20.3072 235.912 -18.3643 235.673 -15.6558C235.032 -8.38907 243.818 2.67556 256.572 10.65L332.544 58.1491C340.469 63.1036 347.131 69.376 350.827 75.3593L401.161 156.864L401.162 156.859Z" fill="url(#paint9_linear_2097_9816)"/>
<path d="M458.18 83.656C465.391 96.2227 469.888 108.54 470.968 119.896C472.288 133.769 468.267 145.302 459.351 153.248C445.66 165.441 421.63 168.633 391.682 162.242L391.373 162.176L348.458 75.8154C345.422 69.6978 339.332 63.1245 331.757 57.7711L257.56 5.35786C244.976 -3.53222 237.037 -15.2995 238.249 -23.262C238.792 -26.8206 241.084 -29.3502 244.886 -30.5797C267.307 -37.8343 300.727 -33.1594 336.574 -17.7537C389.077 4.81287 436.225 45.3864 458.187 83.6609L458.18 83.656ZM392.261 161.022C421.645 167.24 445.152 164.132 458.474 152.265C467.07 144.61 470.937 133.459 469.658 120.018C465.335 74.5235 405.397 13.2564 336.046 -16.5494C300.49 -31.8324 267.407 -36.4891 245.282 -29.3355C241.939 -28.2538 240.006 -26.1469 239.541 -23.0699C238.402 -15.5816 246.12 -4.33587 258.311 4.27834L332.51 56.695C340.254 62.1673 346.496 68.9249 349.629 75.2265L392.262 161.017L392.261 161.022Z" fill="url(#paint10_linear_2097_9816)"/>
<path d="M455.843 77.0327C465.872 94.5092 471.387 111.71 470.945 126.93C470.537 140.952 464.942 152.401 454.754 160.031C438.738 172.027 412.774 174.149 381.641 166.005L381.31 165.919L347.142 75.5148C344.726 69.1239 339.146 62.1014 331.838 56.2502L260.16 -1.0947C248.282 -10.5971 241.488 -22.4695 243.258 -30.6373C244.117 -34.5982 246.912 -37.287 251.34 -38.4113C275.997 -44.6541 310.735 -38.1552 346.646 -20.5785C393.97 2.58176 434.818 40.4002 455.843 77.0327ZM382.302 164.816C412.896 172.759 438.334 170.69 453.966 158.979C463.821 151.595 469.239 140.502 469.631 126.893C470.98 80.2315 415.553 14.6099 346.068 -19.3964C310.43 -36.8351 276.019 -43.3009 251.663 -37.1343C247.751 -36.1451 245.289 -33.7987 244.545 -30.359C242.877 -22.6689 249.482 -11.3183 260.984 -2.11944L332.662 55.2255C340.151 61.2164 345.877 68.4449 348.375 75.0509L382.304 164.82L382.302 164.816Z" fill="url(#paint11_linear_2097_9816)"/>
<path d="M453.427 68.5705C466.692 91.6868 473.066 114.714 470.004 134.105C467.761 148.325 460.408 159.678 448.743 166.928C430.26 178.417 402.483 179.271 370.531 169.324L370.184 169.216L345.799 75.1342C344.079 68.4907 339.094 61.0446 332.129 54.7019L263.754 -7.54647C252.709 -17.6006 247.099 -29.4944 249.459 -37.8444C250.709 -42.2548 254.071 -45.0995 259.189 -46.0721C286.076 -51.1705 321.977 -42.7406 357.679 -22.9467C399.149 0.0454328 433.817 34.3961 453.425 68.5671L453.427 68.5705ZM371.271 168.178C402.709 177.895 429.964 177.06 448.051 165.812C459.384 158.766 466.524 147.733 468.71 133.9C476.215 86.3461 426.122 16.5052 357.043 -21.7952C321.603 -41.445 286.023 -49.8201 259.435 -44.7782C254.839 -43.9069 251.829 -41.3845 250.724 -37.4845C248.531 -29.732 254.125 -18.0911 264.64 -8.51936L333.015 53.729C340.166 60.2361 345.288 67.921 347.072 74.8038L371.271 168.178Z" fill="url(#paint12_linear_2097_9816)"/>
<path d="M451.298 58.475C468.137 87.8193 475.043 117.665 468.084 141.381C463.837 155.854 454.512 167.087 441.119 173.867C420.105 184.504 390.708 183.89 358.348 172.141L357.976 172.005L344.426 74.668C343.469 67.8074 339.175 59.9553 332.637 53.129L268.399 -13.9492C258.457 -24.3329 253.938 -36.4483 256.882 -44.8157C258.581 -49.645 262.702 -52.7227 268.486 -53.4797C297.586 -57.2952 334.466 -46.8378 369.665 -24.7868C404.827 -2.76051 433.565 27.5791 451.295 58.4769L451.298 58.475ZM359.17 171.039C391.038 182.533 419.918 183.121 440.524 172.695C453.583 166.084 462.681 155.129 466.822 141.01C480.954 92.8594 437.058 18.9836 368.97 -23.6748C334.023 -45.5669 297.463 -55.955 268.657 -52.1797C263.312 -51.4763 259.669 -48.7835 258.12 -44.381C255.339 -36.4751 259.744 -24.8874 269.344 -14.8593L333.581 52.2188C340.307 59.2417 344.734 67.3578 345.725 74.4881L359.17 171.039Z" fill="url(#paint13_linear_2097_9816)"/>
<path d="M449.901 47.1605C470.526 83.103 477.369 120.708 465.097 148.704C448.297 187.035 400.068 197.357 345.088 174.385L344.695 174.22L343.036 74.1213C342.919 67.0732 339.398 58.8461 333.376 51.5488L274.142 -20.2499C265.237 -31.0397 261.95 -43.0203 265.563 -51.5046C267.837 -56.8476 272.711 -60.0632 279.288 -60.5674C310.566 -62.9602 348.218 -50.3796 382.587 -26.0491C411.261 -5.75027 434.449 20.2402 449.9 47.166L449.901 47.1605ZM345.991 173.338C400.096 195.795 447.446 185.711 463.896 148.174C474.088 124.922 471.144 94.0305 455.613 61.1945C440.046 28.2785 413.84 -2.32251 381.83 -24.9799C347.703 -49.1367 310.367 -61.6318 279.388 -59.2633C273.234 -58.7905 268.872 -55.9331 266.771 -50.9932C263.405 -43.0823 266.696 -31.3432 275.156 -21.0889L334.389 50.7097C340.598 58.2358 344.229 66.7586 344.349 74.0942L345.993 173.333L345.991 173.338Z" fill="url(#paint14_linear_2097_9816)"/>
<path d="M449.728 35.1978C474.192 77.8319 480.035 124.018 460.99 156.025C438.25 194.246 385.916 202.273 330.765 175.997L330.343 175.798L341.63 73.4942C342.424 66.3009 339.774 57.7308 334.357 49.9752L281.038 -26.3853C273.375 -37.3589 271.261 -49.4193 275.525 -57.8499C278.498 -63.7226 284.214 -67.0579 291.632 -67.244C325.03 -68.0717 363.224 -53.2813 396.423 -26.6696C418.754 -8.76949 436.827 12.7236 449.724 35.1998L449.728 35.1978ZM331.754 175.011C386.102 200.736 437.543 192.862 459.863 155.352C473.679 132.131 474.592 100.442 462.436 66.121C450.252 31.7189 426.517 -0.866226 395.608 -25.6454C362.647 -52.067 324.761 -66.7535 291.669 -65.9363C284.758 -65.765 279.447 -62.6852 276.702 -57.2652C272.656 -49.2634 274.733 -37.7245 282.12 -27.1442L335.44 49.2162C341.035 57.2278 343.768 66.1272 342.941 73.6299L331.754 175.011Z" fill="url(#paint15_linear_2097_9816)"/>
<path d="M450.961 22.8489C459.814 38.2771 466.383 54.5975 470.285 71.1924C478.769 107.249 473.586 139.952 455.691 163.269C426.683 201.076 370.3 206.551 315.398 176.894L314.952 176.654L340.221 72.7709C341.999 65.4729 340.266 56.634 335.598 48.403L289.127 -32.3102L289.093 -32.369C282.733 -43.4514 281.857 -55.4952 286.811 -63.8207C290.62 -70.2238 297.279 -73.64 305.557 -73.4323C340.998 -72.5526 379.486 -55.4793 411.148 -26.5922C427.134 -12.0057 440.609 4.80843 450.959 22.8454L450.961 22.8489ZM316.472 175.984C370.645 205.052 426.129 199.646 454.653 162.471C472.302 139.47 477.402 107.159 469.008 71.4926C460.599 35.7571 439.738 1.27024 410.265 -25.6213C378.835 -54.2965 340.659 -71.2448 305.529 -72.119C297.746 -72.3123 291.5 -69.1235 287.944 -63.1458C283.234 -55.2275 284.113 -43.6914 290.237 -33.0208L290.27 -32.9619L336.742 47.7513L336.776 47.8101C341.63 56.2698 343.354 65.4774 341.504 73.0833L316.472 175.984Z" fill="url(#paint16_linear_2097_9816)"/>
<path d="M454.482 11.3266C466.352 32.014 473.963 54.47 476.569 77.1666C480.85 114.411 471.113 147.521 449.154 170.392C413.568 207.461 353.236 210.125 299.027 177.026L298.56 176.742L338.835 71.9747C341.664 64.6165 341.041 55.4673 337.12 46.8718L298.463 -37.9296C293.293 -49.2715 293.666 -61.0117 299.464 -69.3427C304.201 -76.1493 312.084 -79.6751 321.1 -79.0164C358.48 -76.2878 396.979 -56.8706 426.721 -25.7416C437.582 -14.3724 446.901 -1.88369 454.482 11.3266ZM300.179 176.19C353.728 208.657 413.16 205.989 448.21 169.485C469.893 146.901 479.501 114.169 475.268 77.3199C471.028 40.4106 453.449 4.13261 425.771 -24.8329C396.251 -55.7263 358.064 -75.0005 321.005 -77.7065C312.34 -78.3406 305.072 -75.1038 300.544 -68.5915C295.013 -60.644 294.685 -49.3853 299.659 -38.4736L338.317 46.3278C342.379 55.2422 343.016 64.7605 340.06 72.4495L300.179 176.19Z" fill="url(#paint17_linear_2097_9816)"/>
<path d="M460.122 0.549524C474.882 26.2712 482.683 54.942 482.441 83.5918C482.122 121.829 467.513 155.113 441.316 177.316C398.863 213.294 334.713 212.887 281.682 176.311L281.2 175.976L337.463 71.0905C341.42 63.7193 341.951 54.3448 338.928 45.3727L309.067 -43.1982C305.23 -54.5825 306.896 -66.2503 313.526 -74.4057C319.406 -81.6388 328.426 -85.1083 338.267 -83.9252C377.464 -79.2082 415.67 -57.3922 443.087 -24.073C449.512 -16.2663 455.202 -8.02435 460.12 0.546083L460.122 0.549524ZM282.911 175.56C335.354 211.471 398.6 211.794 440.468 176.312C466.369 154.362 480.811 121.427 481.129 83.5812C481.45 45.692 467.58 7.75914 442.075 -23.2394C414.869 -56.3027 376.976 -77.9436 338.113 -82.6226C328.728 -83.7496 320.141 -80.4551 314.547 -73.5797C308.203 -65.7767 306.619 -54.5746 310.313 -43.6235L340.174 44.9474C343.315 54.2612 342.749 64.0147 338.626 71.7064L282.911 175.56Z" fill="url(#paint18_linear_2097_9816)"/>
<path d="M467.949 -9.27531C485.462 21.2454 492.495 56.1521 487.817 90.4564C482.498 129.461 462.724 162.673 432.131 183.972C382.557 218.49 314.761 214.757 263.424 174.683L262.932 174.299L263.293 173.789L336.127 70.1291C341.277 62.8003 343.067 53.2554 341.037 43.9385L320.977 -48.0305C318.487 -59.4563 321.512 -71.0163 329.074 -78.957C336.263 -86.5083 346.471 -89.8225 357.076 -88.0436C397.932 -81.2059 435.52 -56.9564 460.197 -21.518C462.974 -17.528 465.562 -13.4432 467.952 -9.2773L467.949 -9.27531ZM264.727 174.028C315.544 213.388 382.44 216.97 431.379 182.895C461.666 161.808 481.246 128.915 486.513 90.2757C491.786 51.6145 482.051 12.174 459.114 -20.7679C434.639 -55.9177 397.367 -79.9709 356.858 -86.7498C346.687 -88.4518 336.906 -85.2818 330.022 -78.0518C322.761 -70.4267 319.859 -59.3098 322.257 -48.3094L342.316 43.6596C344.426 53.3311 342.559 63.2557 337.2 70.8842L264.727 174.028Z" fill="url(#paint19_linear_2097_9816)"/>
<path d="M477.962 -18.0236C498.114 17.0955 503.317 58.2077 492.613 97.7361C481.908 137.27 456.671 170.139 421.552 190.292C364.628 222.956 293.402 215.636 244.312 172.079L243.823 171.642L334.826 69.083C341.239 61.8568 344.382 52.1932 343.442 42.5725L334.2 -52.356C333.065 -64.008 337.432 -75.1607 346.178 -82.9621C354.823 -90.6683 366.237 -93.6997 377.503 -91.2832C419.847 -82.19 456.463 -55.4885 477.962 -18.0236ZM245.676 171.53C294.326 214.328 364.656 221.426 420.899 189.153C455.713 169.176 480.73 136.589 491.346 97.396C501.959 58.2052 496.803 17.4477 476.825 -17.3669C455.512 -54.51 419.21 -80.983 377.231 -89.9952C366.382 -92.325 355.383 -89.4032 347.057 -81.976C338.627 -74.4572 334.415 -63.7066 335.51 -52.4776L344.752 42.4509C345.723 52.4307 342.464 62.4602 335.807 69.9595L245.676 171.53Z" fill="url(#paint20_linear_2097_9816)"/>
</g>
</g>
<path d="M116.428 39.444C116.428 40.716 115.564 41.688 114.316 42.012L116.416 45H115.024L113.008 42.132H111.112V45H109.9V36.756H113.368C115.108 36.756 116.428 37.872 116.428 39.444ZM111.112 37.884V41.004H113.2C114.388 41.004 115.192 40.416 115.192 39.444C115.192 38.472 114.388 37.884 113.2 37.884H111.112ZM120.618 44.088C121.266 44.088 122.022 43.8 122.394 43.416L123.138 44.184C122.586 44.772 121.506 45.144 120.63 45.144C118.902 45.144 117.438 43.788 117.438 41.88C117.438 40.02 118.818 38.652 120.534 38.652C122.43 38.652 123.522 40.092 123.522 42.312H118.638C118.794 43.344 119.55 44.088 120.618 44.088ZM120.582 39.708C119.622 39.708 118.842 40.356 118.65 41.364H122.37C122.238 40.404 121.65 39.708 120.582 39.708ZM126.531 38.112V38.796H127.995V39.804H126.531V45H125.367V39.804H124.431V38.796H125.367V38.052C125.367 37.056 126.039 36.36 126.999 36.36C127.443 36.36 127.899 36.528 128.235 36.804L127.803 37.596C127.671 37.464 127.431 37.368 127.167 37.368C126.819 37.368 126.531 37.68 126.531 38.112ZM132.067 44.088C132.715 44.088 133.471 43.8 133.843 43.416L134.587 44.184C134.035 44.772 132.955 45.144 132.079 45.144C130.351 45.144 128.887 43.788 128.887 41.88C128.887 40.02 130.267 38.652 131.983 38.652C133.879 38.652 134.971 40.092 134.971 42.312H130.087C130.243 43.344 130.999 44.088 132.067 44.088ZM132.031 39.708C131.071 39.708 130.291 40.356 130.099 41.364H133.819C133.687 40.404 133.099 39.708 132.031 39.708ZM137.596 39.984C137.992 39.168 138.832 38.652 139.9 38.652V39.684C138.616 39.684 137.704 40.392 137.596 41.472V45H136.408V38.796H137.596V39.984ZM147.097 38.652C148.765 38.652 149.689 39.708 149.689 41.244V45H148.525V44.148C148.069 44.796 147.217 45.144 146.461 45.144C145.141 45.144 144.169 44.376 144.169 43.164C144.169 41.928 145.285 41.1 146.653 41.1C147.265 41.1 147.925 41.232 148.525 41.436V41.244C148.525 40.464 148.165 39.636 146.929 39.636C146.317 39.636 145.717 39.876 145.177 40.152L144.745 39.276C145.633 38.832 146.413 38.652 147.097 38.652ZM146.689 44.208C147.457 44.208 148.321 43.824 148.525 43.056V42.228C148.021 42.072 147.445 41.988 146.833 41.988C146.005 41.988 145.309 42.456 145.309 43.128C145.309 43.8 145.909 44.208 146.689 44.208ZM154.563 38.652C155.931 38.652 156.891 39.648 156.891 41.052V45H155.727V41.256C155.727 40.332 155.139 39.684 154.299 39.684C153.435 39.684 152.691 40.248 152.595 40.98V45H151.407V38.796H152.595V39.696C152.967 39.084 153.723 38.652 154.563 38.652ZM163.367 36.612H164.543V45H163.367V43.92C162.887 44.688 162.119 45.144 161.159 45.144C159.527 45.144 158.303 43.8 158.303 41.892C158.303 39.996 159.527 38.652 161.159 38.652C162.119 38.652 162.887 39.108 163.367 39.864V36.612ZM161.447 44.112C162.563 44.112 163.367 43.188 163.367 41.892C163.367 40.596 162.563 39.684 161.447 39.684C160.307 39.684 159.503 40.596 159.503 41.892C159.503 43.188 160.307 44.112 161.447 44.112ZM175.855 37.884H171.019V40.236H175.387V41.364H171.019V43.872H175.855V45H169.795V36.756H175.855V37.884ZM179.945 38.652C181.613 38.652 182.537 39.708 182.537 41.244V45H181.373V44.148C180.917 44.796 180.065 45.144 179.309 45.144C177.989 45.144 177.017 44.376 177.017 43.164C177.017 41.928 178.133 41.1 179.501 41.1C180.113 41.1 180.773 41.232 181.373 41.436V41.244C181.373 40.464 181.013 39.636 179.777 39.636C179.165 39.636 178.565 39.876 178.025 40.152L177.593 39.276C178.481 38.832 179.261 38.652 179.945 38.652ZM179.537 44.208C180.305 44.208 181.169 43.824 181.373 43.056V42.228C180.869 42.072 180.293 41.988 179.681 41.988C178.853 41.988 178.157 42.456 178.157 43.128C178.157 43.8 178.757 44.208 179.537 44.208ZM185.503 39.984C185.899 39.168 186.739 38.652 187.807 38.652V39.684C186.523 39.684 185.611 40.392 185.503 41.472V45H184.315V38.796H185.503V39.984ZM192.122 38.652C193.49 38.652 194.45 39.648 194.45 41.052V45H193.286V41.256C193.286 40.332 192.698 39.684 191.858 39.684C190.994 39.684 190.25 40.248 190.154 40.98V45H188.966V38.796H190.154V39.696C190.526 39.084 191.282 38.652 192.122 38.652ZM206.147 39.444C206.147 40.716 205.283 41.688 204.035 42.012L206.135 45H204.743L202.727 42.132H200.831V45H199.619V36.756H203.087C204.827 36.756 206.147 37.872 206.147 39.444ZM200.831 37.884V41.004H202.919C204.107 41.004 204.911 40.416 204.911 39.444C204.911 38.472 204.107 37.884 202.919 37.884H200.831ZM210.337 44.088C210.985 44.088 211.741 43.8 212.113 43.416L212.857 44.184C212.305 44.772 211.225 45.144 210.349 45.144C208.621 45.144 207.157 43.788 207.157 41.88C207.157 40.02 208.537 38.652 210.253 38.652C212.149 38.652 213.241 40.092 213.241 42.312H208.357C208.513 43.344 209.269 44.088 210.337 44.088ZM210.301 39.708C209.341 39.708 208.561 40.356 208.369 41.364H212.089C211.957 40.404 211.369 39.708 210.301 39.708ZM215.885 45L213.797 38.796H215.009L216.437 43.416L217.973 38.796H218.981L220.517 43.416L221.933 38.796H223.145L221.057 45H219.965L218.477 40.392L216.977 45H215.885ZM226.948 38.652C228.616 38.652 229.54 39.708 229.54 41.244V45H228.376V44.148C227.92 44.796 227.068 45.144 226.312 45.144C224.992 45.144 224.02 44.376 224.02 43.164C224.02 41.928 225.136 41.1 226.504 41.1C227.116 41.1 227.776 41.232 228.376 41.436V41.244C228.376 40.464 228.016 39.636 226.78 39.636C226.168 39.636 225.568 39.876 225.028 40.152L224.596 39.276C225.484 38.832 226.264 38.652 226.948 38.652ZM226.54 44.208C227.308 44.208 228.172 43.824 228.376 43.056V42.228C227.872 42.072 227.296 41.988 226.684 41.988C225.856 41.988 225.16 42.456 225.16 43.128C225.16 43.8 225.76 44.208 226.54 44.208ZM232.507 39.984C232.903 39.168 233.743 38.652 234.811 38.652V39.684C233.527 39.684 232.615 40.392 232.507 41.472V45H231.319V38.796H232.507V39.984ZM240.745 36.612H241.921V45H240.745V43.92C240.265 44.688 239.497 45.144 238.537 45.144C236.905 45.144 235.681 43.8 235.681 41.892C235.681 39.996 236.905 38.652 238.537 38.652C239.497 38.652 240.265 39.108 240.745 39.864V36.612ZM238.825 44.112C239.941 44.112 240.745 43.188 240.745 41.892C240.745 40.596 239.941 39.684 238.825 39.684C237.685 39.684 236.881 40.596 236.881 41.892C236.881 43.188 237.685 44.112 238.825 44.112ZM245.948 45.144C245.036 45.144 244.04 44.82 243.296 44.22L243.86 43.368C244.52 43.848 245.228 44.124 245.96 44.124C246.656 44.124 247.136 43.8 247.136 43.32C247.136 42.744 246.5 42.564 245.732 42.348C244.304 41.952 243.596 41.544 243.596 40.536C243.584 39.396 244.532 38.652 245.852 38.652C246.656 38.652 247.472 38.928 248.144 39.372L247.616 40.248C247.016 39.876 246.392 39.672 245.852 39.672C245.24 39.672 244.76 39.936 244.76 40.404C244.76 40.884 245.144 41.028 246.188 41.352C247.208 41.652 248.3 41.988 248.3 43.224C248.3 44.4 247.304 45.144 245.948 45.144Z" fill="white"/>
<path d="M27.0675 70.187C25.0615 70.187 23.3615 69.507 22.0695 68.3L23.2935 66.787C24.3645 67.756 25.6055 68.368 27.1355 68.368C28.5805 68.368 29.3285 67.654 29.3285 66.821C29.3285 65.852 28.4955 65.529 26.6255 65.087C24.2115 64.526 22.5285 63.829 22.5285 61.636C22.5285 59.596 24.2625 58.1 26.7275 58.1C28.5805 58.1 29.9745 58.729 31.1475 59.732L29.9915 61.296C28.9715 60.412 27.7985 59.919 26.6425 59.919C25.4695 59.919 24.6705 60.633 24.6705 61.449C24.6705 62.401 25.5375 62.741 27.3905 63.166C29.8215 63.71 31.4535 64.492 31.4535 66.617C31.4535 68.708 29.8555 70.187 27.0675 70.187ZM38.5081 61.007C40.8371 61.007 42.5371 62.911 42.5371 65.597C42.5371 68.3 40.8371 70.204 38.5081 70.204C37.1991 70.204 36.1451 69.609 35.4481 68.606V72.924H33.3741V61.211H35.4481V62.605C36.1451 61.602 37.1991 61.007 38.5081 61.007ZM37.9471 68.436C39.4261 68.436 40.4801 67.246 40.4801 65.597C40.4801 63.948 39.4261 62.775 37.9471 62.775C36.4851 62.775 35.4651 63.948 35.4651 65.597C35.4651 67.246 36.4851 68.436 37.9471 68.436ZM46.5379 62.911C47.0989 61.738 48.2379 61.007 49.6829 61.007V62.775C47.7959 62.775 46.5379 63.897 46.5379 65.563V70H44.4639V61.211H46.5379V62.911ZM55.3166 68.368C56.1326 68.368 57.1016 67.994 57.5946 67.484L58.9036 68.844C58.1386 69.66 56.6086 70.204 55.3336 70.204C52.8176 70.204 50.7436 68.283 50.7436 65.58C50.7436 62.945 52.7156 61.007 55.2146 61.007C57.9346 61.007 59.5156 63.064 59.5156 66.311H52.8856C53.1406 67.518 54.0586 68.368 55.3166 68.368ZM55.2996 62.843C54.1436 62.843 53.2086 63.574 52.9026 64.73H57.5266C57.2886 63.625 56.5406 62.843 55.2996 62.843ZM65.1383 61.007C67.4673 61.007 68.9123 62.486 68.9123 64.713V70H66.8893V68.946C66.2433 69.762 65.1383 70.204 64.1183 70.204C62.2483 70.204 60.8373 69.099 60.8373 67.399C60.8373 65.665 62.4523 64.475 64.4243 64.475C65.2233 64.475 66.0903 64.645 66.8893 64.951V64.713C66.8893 63.693 66.3283 62.707 64.7303 62.707C63.8973 62.707 63.0983 62.996 62.3503 63.37L61.6363 61.925C62.8773 61.313 64.0333 61.007 65.1383 61.007ZM64.5773 68.691C65.5803 68.691 66.6513 68.181 66.8893 67.246V66.26C66.2433 66.039 65.5123 65.92 64.7303 65.92C63.6933 65.92 62.8603 66.498 62.8603 67.331C62.8603 68.164 63.5913 68.691 64.5773 68.691ZM77.839 58.117H79.913V70H77.839V68.64C77.142 69.626 76.088 70.204 74.796 70.204C72.467 70.204 70.767 68.3 70.767 65.597C70.767 62.911 72.467 61.007 74.796 61.007C76.088 61.007 77.142 61.585 77.839 62.571V58.117ZM75.357 68.436C76.819 68.436 77.839 67.246 77.839 65.597C77.839 63.948 76.819 62.775 75.357 62.775C73.878 62.775 72.824 63.948 72.824 65.597C72.824 67.246 73.878 68.436 75.357 68.436ZM91.4483 68.113L92.0433 69.507C91.5503 69.932 90.8363 70.204 90.1733 70.204C88.7113 70.204 87.6913 69.15 87.6913 67.671V62.928H86.4163V61.211H87.6913V58.797H89.7143V61.211H91.7033V62.928H89.7143V67.416C89.7143 68.011 90.0883 68.436 90.5813 68.436C90.9383 68.436 91.2613 68.3 91.4483 68.113ZM98.4472 61.007C100.368 61.007 101.711 62.418 101.711 64.407V70H99.7052V64.815C99.7052 63.625 98.9402 62.775 97.8522 62.775C96.6792 62.775 95.7102 63.625 95.7102 64.679V70H93.6362V58.117H95.7102V62.418C96.2372 61.568 97.2742 61.007 98.4472 61.007ZM108.06 68.368C108.876 68.368 109.845 67.994 110.338 67.484L111.647 68.844C110.882 69.66 109.352 70.204 108.077 70.204C105.561 70.204 103.487 68.283 103.487 65.58C103.487 62.945 105.459 61.007 107.958 61.007C110.678 61.007 112.259 63.064 112.259 66.311H105.629C105.884 67.518 106.802 68.368 108.06 68.368ZM108.043 62.843C106.887 62.843 105.952 63.574 105.646 64.73H110.27C110.032 63.625 109.284 62.843 108.043 62.843ZM121.115 70L118.14 61.211H120.214L122.05 67.212L124.005 61.211H125.739L127.711 67.212L129.53 61.211H131.604L128.646 70H126.759L124.872 63.982L123.002 70H121.115ZM136.983 70.204C134.433 70.204 132.274 68.096 132.274 65.597C132.274 63.098 134.433 61.007 136.983 61.007C139.533 61.007 141.692 63.098 141.692 65.597C141.692 68.096 139.533 70.204 136.983 70.204ZM136.983 68.436C138.428 68.436 139.652 67.144 139.652 65.597C139.652 64.067 138.428 62.775 136.983 62.775C135.521 62.775 134.297 64.067 134.297 65.597C134.297 67.144 135.521 68.436 136.983 68.436ZM145.616 62.911C146.177 61.738 147.316 61.007 148.761 61.007V62.775C146.874 62.775 145.616 63.897 145.616 65.563V70H143.542V61.211H145.616V62.911ZM156.979 58.117H159.053V70H156.979V68.64C156.282 69.626 155.228 70.204 153.936 70.204C151.607 70.204 149.907 68.3 149.907 65.597C149.907 62.911 151.607 61.007 153.936 61.007C155.228 61.007 156.282 61.585 156.979 62.571V58.117ZM154.497 68.436C155.959 68.436 156.979 67.246 156.979 65.597C156.979 63.948 155.959 62.775 154.497 62.775C153.018 62.775 151.964 63.948 151.964 65.597C151.964 67.246 153.018 68.436 154.497 68.436ZM170.027 61.007C172.356 61.007 173.801 62.486 173.801 64.713V70H171.778V68.946C171.132 69.762 170.027 70.204 169.007 70.204C167.137 70.204 165.726 69.099 165.726 67.399C165.726 65.665 167.341 64.475 169.313 64.475C170.112 64.475 170.979 64.645 171.778 64.951V64.713C171.778 63.693 171.217 62.707 169.619 62.707C168.786 62.707 167.987 62.996 167.239 63.37L166.525 61.925C167.766 61.313 168.922 61.007 170.027 61.007ZM169.466 68.691C170.469 68.691 171.54 68.181 171.778 67.246V66.26C171.132 66.039 170.401 65.92 169.619 65.92C168.582 65.92 167.749 66.498 167.749 67.331C167.749 68.164 168.48 68.691 169.466 68.691ZM180.841 61.007C182.762 61.007 184.105 62.418 184.105 64.407V70H182.099V64.815C182.099 63.625 181.334 62.775 180.246 62.775C179.158 62.775 178.257 63.506 178.121 64.441V70H176.047V61.211H178.121V62.384C178.665 61.568 179.685 61.007 180.841 61.007ZM193.037 58.117H195.111V70H193.037V68.64C192.34 69.626 191.286 70.204 189.994 70.204C187.665 70.204 185.965 68.3 185.965 65.597C185.965 62.911 187.665 61.007 189.994 61.007C191.286 61.007 192.34 61.585 193.037 62.571V58.117ZM190.555 68.436C192.017 68.436 193.037 67.246 193.037 65.597C193.037 63.948 192.017 62.775 190.555 62.775C189.076 62.775 188.022 63.948 188.022 65.597C188.022 67.246 189.076 68.436 190.555 68.436ZM206.358 68.368C207.174 68.368 208.143 67.994 208.636 67.484L209.945 68.844C209.18 69.66 207.65 70.204 206.375 70.204C203.859 70.204 201.785 68.283 201.785 65.58C201.785 62.945 203.757 61.007 206.256 61.007C208.976 61.007 210.557 63.064 210.557 66.311H203.927C204.182 67.518 205.1 68.368 206.358 68.368ZM206.341 62.843C205.185 62.843 204.25 63.574 203.944 64.73H208.568C208.33 63.625 207.582 62.843 206.341 62.843ZM216.179 61.007C218.508 61.007 219.953 62.486 219.953 64.713V70H217.93V68.946C217.284 69.762 216.179 70.204 215.159 70.204C213.289 70.204 211.878 69.099 211.878 67.399C211.878 65.665 213.493 64.475 215.465 64.475C216.264 64.475 217.131 64.645 217.93 64.951V64.713C217.93 63.693 217.369 62.707 215.771 62.707C214.938 62.707 214.139 62.996 213.391 63.37L212.677 61.925C213.918 61.313 215.074 61.007 216.179 61.007ZM215.618 68.691C216.621 68.691 217.692 68.181 217.93 67.246V66.26C217.284 66.039 216.553 65.92 215.771 65.92C214.734 65.92 213.901 66.498 213.901 67.331C213.901 68.164 214.632 68.691 215.618 68.691ZM224.324 62.911C224.885 61.738 226.024 61.007 227.469 61.007V62.775C225.582 62.775 224.324 63.897 224.324 65.563V70H222.25V61.211H224.324V62.911ZM233.8 61.007C235.721 61.007 237.064 62.418 237.064 64.407V70H235.058V64.815C235.058 63.625 234.293 62.775 233.205 62.775C232.117 62.775 231.216 63.506 231.08 64.441V70H229.006V61.211H231.08V62.384C231.624 61.568 232.644 61.007 233.8 61.007ZM240.012 66.175L239.519 58.321H241.933L241.44 66.175H240.012ZM240.726 70.204C239.944 70.204 239.366 69.592 239.366 68.844C239.366 68.147 239.944 67.535 240.726 67.535C241.44 67.535 242.035 68.147 242.035 68.844C242.035 69.592 241.44 70.204 240.726 70.204ZM249.245 70V58.321H251.353V70H249.245ZM258.519 61.007C260.44 61.007 261.783 62.418 261.783 64.407V70H259.777V64.815C259.777 63.625 259.012 62.775 257.924 62.775C256.836 62.775 255.935 63.506 255.799 64.441V70H253.725V61.211H255.799V62.384C256.343 61.568 257.363 61.007 258.519 61.007ZM266.976 70L263.202 61.211H265.395L267.945 67.603L270.444 61.211H272.654L268.931 70H266.976ZM275.15 59.885C274.487 59.885 273.96 59.324 273.96 58.695C273.96 58.066 274.487 57.522 275.15 57.522C275.796 57.522 276.323 58.066 276.323 58.695C276.323 59.324 275.796 59.885 275.15 59.885ZM274.096 70V61.211H276.17V70H274.096ZM282.848 68.113L283.443 69.507C282.95 69.932 282.236 70.204 281.573 70.204C280.111 70.204 279.091 69.15 279.091 67.671V62.928H277.816V61.211H279.091V58.797H281.114V61.211H283.103V62.928H281.114V67.416C281.114 68.011 281.488 68.436 281.981 68.436C282.338 68.436 282.661 68.3 282.848 68.113ZM289.15 68.368C289.966 68.368 290.935 67.994 291.428 67.484L292.737 68.844C291.972 69.66 290.442 70.204 289.167 70.204C286.651 70.204 284.577 68.283 284.577 65.58C284.577 62.945 286.549 61.007 289.048 61.007C291.768 61.007 293.349 63.064 293.349 66.311H286.719C286.974 67.518 287.892 68.368 289.15 68.368ZM289.133 62.843C287.977 62.843 287.042 63.574 286.736 64.73H291.36C291.122 63.625 290.374 62.843 289.133 62.843ZM301.746 73.06C301.083 73.06 300.352 72.89 299.825 72.601L300.267 71.105C300.641 71.309 301.066 71.428 301.389 71.428C301.882 71.428 302.256 71.275 302.511 70.85L302.885 70.068L299.162 61.211H301.355L303.922 67.773L306.336 61.211H308.478L304.755 70.612C304.092 72.278 303.072 73.043 301.746 73.06ZM313.972 70.204C311.422 70.204 309.263 68.096 309.263 65.597C309.263 63.098 311.422 61.007 313.972 61.007C316.522 61.007 318.681 63.098 318.681 65.597C318.681 68.096 316.522 70.204 313.972 70.204ZM313.972 68.436C315.417 68.436 316.641 67.144 316.641 65.597C316.641 64.067 315.417 62.775 313.972 62.775C312.51 62.775 311.286 64.067 311.286 65.597C311.286 67.144 312.51 68.436 313.972 68.436ZM326.43 61.211H328.504V70H326.43V68.827C325.886 69.643 324.866 70.204 323.71 70.204C321.789 70.204 320.446 68.793 320.446 66.804V61.211H322.452V66.396C322.452 67.586 323.217 68.436 324.305 68.436C325.393 68.436 326.294 67.705 326.43 66.77V61.211ZM332.915 62.911C333.476 61.738 334.615 61.007 336.06 61.007V62.775C334.173 62.775 332.915 63.897 332.915 65.563V70H330.841V61.211H332.915V62.911ZM80.102 80.48V81.211H82.091V82.928H80.102V90H78.079V82.928H76.804V81.211H78.079V80.293C78.079 78.814 79.099 77.76 80.561 77.76C81.224 77.76 81.938 78.032 82.431 78.457L81.836 79.783C81.649 79.596 81.326 79.46 80.969 79.46C80.476 79.46 80.102 79.885 80.102 80.48ZM85.867 82.911C86.428 81.738 87.567 81.007 89.012 81.007V82.775C87.125 82.775 85.867 83.897 85.867 85.563V90H83.793V81.211H85.867V82.911ZM91.6027 79.885C90.9397 79.885 90.4127 79.324 90.4127 78.695C90.4127 78.066 90.9397 77.522 91.6027 77.522C92.2487 77.522 92.7757 78.066 92.7757 78.695C92.7757 79.324 92.2487 79.885 91.6027 79.885ZM90.5487 90V81.211H92.6227V90H90.5487ZM99.0119 88.368C99.8279 88.368 100.797 87.994 101.29 87.484L102.599 88.844C101.834 89.66 100.304 90.204 99.0289 90.204C96.5129 90.204 94.4389 88.283 94.4389 85.58C94.4389 82.945 96.4109 81.007 98.9099 81.007C101.63 81.007 103.211 83.064 103.211 86.311H96.5809C96.8359 87.518 97.7539 88.368 99.0119 88.368ZM98.9949 82.843C97.8389 82.843 96.9039 83.574 96.5979 84.73H101.222C100.984 83.625 100.236 82.843 98.9949 82.843ZM109.803 81.007C111.724 81.007 113.067 82.418 113.067 84.407V90H111.061V84.815C111.061 83.625 110.296 82.775 109.208 82.775C108.12 82.775 107.219 83.506 107.083 84.441V90H105.009V81.211H107.083V82.384C107.627 81.568 108.647 81.007 109.803 81.007ZM121.999 78.117H124.073V90H121.999V88.64C121.302 89.626 120.248 90.204 118.956 90.204C116.627 90.204 114.927 88.3 114.927 85.597C114.927 82.911 116.627 81.007 118.956 81.007C120.248 81.007 121.302 81.585 121.999 82.571V78.117ZM119.517 88.436C120.979 88.436 121.999 87.246 121.999 85.597C121.999 83.948 120.979 82.775 119.517 82.775C118.038 82.775 116.984 83.948 116.984 85.597C116.984 87.246 118.038 88.436 119.517 88.436ZM129.655 90.204C128.312 90.204 126.867 89.728 125.813 88.878L126.748 87.433C127.598 88.045 128.584 88.453 129.689 88.453C130.522 88.453 131.1 88.096 131.1 87.552C131.1 86.872 130.335 86.651 129.332 86.379C127.428 85.886 126.221 85.342 126.204 83.778C126.204 82.129 127.564 81.007 129.519 81.007C130.726 81.007 131.933 81.432 132.885 82.061L132.018 83.574C131.185 83.047 130.284 82.775 129.519 82.775C128.788 82.775 128.227 83.064 128.227 83.557C128.227 84.118 128.686 84.288 130.029 84.679C131.508 85.087 133.106 85.597 133.106 87.433C133.106 89.116 131.712 90.204 129.655 90.204ZM144.108 88.113L144.703 89.507C144.21 89.932 143.496 90.204 142.833 90.204C141.371 90.204 140.351 89.15 140.351 87.671V82.928H139.076V81.211H140.351V78.797H142.374V81.211H144.363V82.928H142.374V87.416C142.374 88.011 142.748 88.436 143.241 88.436C143.598 88.436 143.921 88.3 144.108 88.113ZM150.563 90.204C148.013 90.204 145.854 88.096 145.854 85.597C145.854 83.098 148.013 81.007 150.563 81.007C153.113 81.007 155.272 83.098 155.272 85.597C155.272 88.096 153.113 90.204 150.563 90.204ZM150.563 88.436C152.008 88.436 153.232 87.144 153.232 85.597C153.232 84.067 152.008 82.775 150.563 82.775C149.101 82.775 147.877 84.067 147.877 85.597C147.877 87.144 149.101 88.436 150.563 88.436ZM162.94 79.885C162.277 79.885 161.75 79.324 161.75 78.695C161.75 78.066 162.277 77.522 162.94 77.522C163.586 77.522 164.113 78.066 164.113 78.695C164.113 79.324 163.586 79.885 162.94 79.885ZM161.427 93.026C160.866 93.026 160.186 92.89 159.795 92.703L160.05 91.122C160.288 91.224 160.696 91.292 161.019 91.292C161.529 91.292 161.886 90.867 161.886 90.272V81.211H163.96V90.425C163.96 91.955 162.923 93.026 161.427 93.026ZM170.502 90.204C167.952 90.204 165.793 88.096 165.793 85.597C165.793 83.098 167.952 81.007 170.502 81.007C173.052 81.007 175.211 83.098 175.211 85.597C175.211 88.096 173.052 90.204 170.502 90.204ZM170.502 88.436C171.947 88.436 173.171 87.144 173.171 85.597C173.171 84.067 171.947 82.775 170.502 82.775C169.04 82.775 167.816 84.067 167.816 85.597C167.816 87.144 169.04 88.436 170.502 88.436ZM178.064 79.885C177.401 79.885 176.874 79.324 176.874 78.695C176.874 78.066 177.401 77.522 178.064 77.522C178.71 77.522 179.237 78.066 179.237 78.695C179.237 79.324 178.71 79.885 178.064 79.885ZM177.01 90V81.211H179.084V90H177.01ZM186.17 81.007C188.091 81.007 189.434 82.418 189.434 84.407V90H187.428V84.815C187.428 83.625 186.663 82.775 185.575 82.775C184.487 82.775 183.586 83.506 183.45 84.441V90H181.376V81.211H183.45V82.384C183.994 81.568 185.014 81.007 186.17 81.007ZM200.597 88.368C201.413 88.368 202.382 87.994 202.875 87.484L204.184 88.844C203.419 89.66 201.889 90.204 200.614 90.204C198.098 90.204 196.024 88.283 196.024 85.58C196.024 82.945 197.996 81.007 200.495 81.007C203.215 81.007 204.796 83.064 204.796 86.311H198.166C198.421 87.518 199.339 88.368 200.597 88.368ZM200.58 82.843C199.424 82.843 198.489 83.574 198.183 84.73H202.807C202.569 83.625 201.821 82.843 200.58 82.843ZM206.322 90V88.385L212.765 80.259H206.441V78.321H215.655V79.936L209.229 88.062H215.74V90H206.322ZM225.727 90V80.259H221.987V78.321H231.575V80.259H227.835V90H225.727ZM237.147 81.007C239.476 81.007 240.921 82.486 240.921 84.713V90H238.898V88.946C238.252 89.762 237.147 90.204 236.127 90.204C234.257 90.204 232.846 89.099 232.846 87.399C232.846 85.665 234.461 84.475 236.433 84.475C237.232 84.475 238.099 84.645 238.898 84.951V84.713C238.898 83.693 238.337 82.707 236.739 82.707C235.906 82.707 235.107 82.996 234.359 83.37L233.645 81.925C234.886 81.313 236.042 81.007 237.147 81.007ZM236.586 88.691C237.589 88.691 238.66 88.181 238.898 87.246V86.26C238.252 86.039 237.521 85.92 236.739 85.92C235.702 85.92 234.869 86.498 234.869 87.331C234.869 88.164 235.6 88.691 236.586 88.691ZM246.414 90.204C245.071 90.204 243.626 89.728 242.572 88.878L243.507 87.433C244.357 88.045 245.343 88.453 246.448 88.453C247.281 88.453 247.859 88.096 247.859 87.552C247.859 86.872 247.094 86.651 246.091 86.379C244.187 85.886 242.98 85.342 242.963 83.778C242.963 82.129 244.323 81.007 246.278 81.007C247.485 81.007 248.692 81.432 249.644 82.061L248.777 83.574C247.944 83.047 247.043 82.775 246.278 82.775C245.547 82.775 244.986 83.064 244.986 83.557C244.986 84.118 245.445 84.288 246.788 84.679C248.267 85.087 249.865 85.597 249.865 87.433C249.865 89.116 248.471 90.204 246.414 90.204ZM259.963 81.211L256.342 85.138L259.844 90H257.43L254.948 86.498L253.707 87.807V90H251.633V78.117H253.707V85.376L257.515 81.211H259.963ZM265.31 88.368C266.126 88.368 267.095 87.994 267.588 87.484L268.897 88.844C268.132 89.66 266.602 90.204 265.327 90.204C262.811 90.204 260.737 88.283 260.737 85.58C260.737 82.945 262.709 81.007 265.208 81.007C267.928 81.007 269.509 83.064 269.509 86.311H262.879C263.134 87.518 264.052 88.368 265.31 88.368ZM265.293 82.843C264.137 82.843 263.202 83.574 262.896 84.73H267.52C267.282 83.625 266.534 82.843 265.293 82.843ZM273.431 82.911C273.992 81.738 275.131 81.007 276.576 81.007V82.775C274.689 82.775 273.431 83.897 273.431 85.563V90H271.357V81.211H273.431V82.911ZM279.371 90.204C278.589 90.204 278.011 89.592 278.011 88.844C278.011 88.147 278.589 87.535 279.371 87.535C280.085 87.535 280.68 88.147 280.68 88.844C280.68 89.592 280.085 90.204 279.371 90.204Z" fill="white"/>
</g>
<defs>
<linearGradient id="paint0_linear_2097_9816" x1="334.072" y1="172.492" x2="259.723" y2="14.2556" gradientUnits="userSpaceOnUse">
<stop stop-color="white"/>
<stop offset="1" stop-color="white" stop-opacity="0.44"/>
</linearGradient>
<linearGradient id="paint1_linear_2097_9816" x1="336.406" y1="176.778" x2="257.889" y2="7.47084" gradientUnits="userSpaceOnUse">
<stop stop-color="white"/>
<stop offset="1" stop-color="white" stop-opacity="0.44"/>
</linearGradient>
<linearGradient id="paint2_linear_2097_9816" x1="339.22" y1="180.811" x2="256.686" y2="0.28509" gradientUnits="userSpaceOnUse">
<stop stop-color="white"/>
<stop offset="1" stop-color="white" stop-opacity="0.44"/>
</linearGradient>
<linearGradient id="paint3_linear_2097_9816" x1="342.485" y1="184.543" x2="256.173" y2="-7.26013" gradientUnits="userSpaceOnUse">
<stop stop-color="white"/>
<stop offset="1" stop-color="white" stop-opacity="0.44"/>
</linearGradient>
<linearGradient id="paint4_linear_2097_9816" x1="346.245" y1="187.912" x2="256.455" y2="-15.1464" gradientUnits="userSpaceOnUse">
<stop stop-color="white"/>
<stop offset="1" stop-color="white" stop-opacity="0.44"/>
</linearGradient>
<linearGradient id="paint5_linear_2097_9816" x1="350.439" y1="190.794" x2="257.576" y2="-23.3053" gradientUnits="userSpaceOnUse">
<stop stop-color="white"/>
<stop offset="1" stop-color="white" stop-opacity="0.44"/>
</linearGradient>
<linearGradient id="paint6_linear_2097_9816" x1="355.149" y1="193.278" x2="259.63" y2="-31.7321" gradientUnits="userSpaceOnUse">
<stop stop-color="white"/>
<stop offset="1" stop-color="white" stop-opacity="0.44"/>
</linearGradient>
<linearGradient id="paint7_linear_2097_9816" x1="360.365" y1="195.234" x2="262.717" y2="-40.3659" gradientUnits="userSpaceOnUse">
<stop stop-color="white"/>
<stop offset="1" stop-color="white" stop-opacity="0.44"/>
</linearGradient>
<linearGradient id="paint8_linear_2097_9816" x1="366.027" y1="196.635" x2="266.837" y2="-49.0717" gradientUnits="userSpaceOnUse">
<stop stop-color="white"/>
<stop offset="1" stop-color="white" stop-opacity="0.44"/>
</linearGradient>
<linearGradient id="paint9_linear_2097_9816" x1="372.202" y1="197.409" x2="272.16" y2="-57.667" gradientUnits="userSpaceOnUse">
<stop stop-color="white"/>
<stop offset="1" stop-color="white" stop-opacity="0.44"/>
</linearGradient>
<linearGradient id="paint10_linear_2097_9816" x1="378.839" y1="197.524" x2="278.639" y2="-66.0275" gradientUnits="userSpaceOnUse">
<stop stop-color="white"/>
<stop offset="1" stop-color="white" stop-opacity="0.44"/>
</linearGradient>
<linearGradient id="paint11_linear_2097_9816" x1="385.858" y1="196.998" x2="286.139" y2="-73.9983" gradientUnits="userSpaceOnUse">
<stop stop-color="white"/>
<stop offset="1" stop-color="white" stop-opacity="0.44"/>
</linearGradient>
<linearGradient id="paint12_linear_2097_9816" x1="393.306" y1="195.766" x2="294.638" y2="-81.4962" gradientUnits="userSpaceOnUse">
<stop stop-color="white"/>
<stop offset="1" stop-color="white" stop-opacity="0.44"/>
</linearGradient>
<linearGradient id="paint13_linear_2097_9816" x1="390.986" y1="199.666" x2="288.47" y2="-81.6667" gradientUnits="userSpaceOnUse">
<stop stop-color="white"/>
<stop offset="1" stop-color="white" stop-opacity="0.44"/>
</linearGradient>
<linearGradient id="paint14_linear_2097_9816" x1="382.57" y1="206.656" x2="273.788" y2="-76.8915" gradientUnits="userSpaceOnUse">
<stop stop-color="white"/>
<stop offset="1" stop-color="white" stop-opacity="0.44"/>
</linearGradient>
<linearGradient id="paint15_linear_2097_9816" x1="373.548" y1="213.387" x2="259.317" y2="-70.7595" gradientUnits="userSpaceOnUse">
<stop stop-color="white"/>
<stop offset="1" stop-color="white" stop-opacity="0.44"/>
</linearGradient>
<linearGradient id="paint16_linear_2097_9816" x1="364.022" y1="219.902" x2="245.298" y2="-63.3146" gradientUnits="userSpaceOnUse">
<stop stop-color="white"/>
<stop offset="1" stop-color="white" stop-opacity="0.44"/>
</linearGradient>
<linearGradient id="paint17_linear_2097_9816" x1="354.075" y1="226.213" x2="231.906" y2="-54.5017" gradientUnits="userSpaceOnUse">
<stop stop-color="white"/>
<stop offset="1" stop-color="white" stop-opacity="0.44"/>
</linearGradient>
<linearGradient id="paint18_linear_2097_9816" x1="343.771" y1="232.326" x2="219.255" y2="-44.4606" gradientUnits="userSpaceOnUse">
<stop stop-color="white"/>
<stop offset="1" stop-color="white" stop-opacity="0.44"/>
</linearGradient>
<linearGradient id="paint19_linear_2097_9816" x1="333.213" y1="238.284" x2="207.479" y2="-33.1624" gradientUnits="userSpaceOnUse">
<stop stop-color="white"/>
<stop offset="1" stop-color="white" stop-opacity="0.44"/>
</linearGradient>
<linearGradient id="paint20_linear_2097_9816" x1="322.524" y1="244.156" x2="196.671" y2="-20.6553" gradientUnits="userSpaceOnUse">
<stop stop-color="white"/>
<stop offset="1" stop-color="white" stop-opacity="0.44"/>
</linearGradient>
<clipPath id="clip0_2097_9816">
<rect width="358" height="130" rx="20" fill="white"/>
</clipPath>
<clipPath id="clip1_2097_9816">
<rect width="291.063" height="297.477" fill="white" transform="translate(296.104 262.75) rotate(-119.848)"/>
</clipPath>
</defs>
</svg>
