<svg width="981" height="240" viewBox="0 0 981 240" fill="none" xmlns="http://www.w3.org/2000/svg">
<g clip-path="url(#clip0_2362_215)">
<rect width="981" height="240" rx="20" fill="#6F49FE"/>
<path d="M45.904 38.592C45.904 40.288 44.752 41.584 43.088 42.016L45.888 46H44.032L41.344 42.176H38.816V46H37.2V35.008H41.824C44.144 35.008 45.904 36.496 45.904 38.592ZM38.816 36.512V40.672H41.6C43.184 40.672 44.256 39.888 44.256 38.592C44.256 37.296 43.184 36.512 41.6 36.512H38.816ZM51.4909 44.784C52.3549 44.784 53.3629 44.4 53.8589 43.888L54.8509 44.912C54.1149 45.696 52.6749 46.192 51.5069 46.192C49.2029 46.192 47.2509 44.384 47.2509 41.84C47.2509 39.36 49.0909 37.536 51.3789 37.536C53.9069 37.536 55.3629 39.456 55.3629 42.416H48.8509C49.0589 43.792 50.0669 44.784 51.4909 44.784ZM51.4429 38.944C50.1629 38.944 49.1229 39.808 48.8669 41.152H53.8269C53.6509 39.872 52.8669 38.944 51.4429 38.944ZM59.3749 36.816V37.728H61.3269V39.072H59.3749V46H57.8229V39.072H56.5749V37.728H57.8229V36.736C57.8229 35.408 58.7189 34.48 59.9989 34.48C60.5909 34.48 61.1989 34.704 61.6469 35.072L61.0709 36.128C60.8949 35.952 60.5749 35.824 60.2229 35.824C59.7589 35.824 59.3749 36.24 59.3749 36.816ZM66.7565 44.784C67.6205 44.784 68.6285 44.4 69.1245 43.888L70.1165 44.912C69.3805 45.696 67.9405 46.192 66.7725 46.192C64.4685 46.192 62.5165 44.384 62.5165 41.84C62.5165 39.36 64.3565 37.536 66.6445 37.536C69.1725 37.536 70.6285 39.456 70.6285 42.416H64.1165C64.3245 43.792 65.3325 44.784 66.7565 44.784ZM66.7085 38.944C65.4285 38.944 64.3885 39.808 64.1325 41.152H69.0925C68.9165 39.872 68.1325 38.944 66.7085 38.944ZM74.1285 39.312C74.6565 38.224 75.7765 37.536 77.2005 37.536V38.912C75.4885 38.912 74.2725 39.856 74.1285 41.296V46H72.5445V37.728H74.1285V39.312ZM86.7959 37.536C89.0199 37.536 90.2519 38.944 90.2519 40.992V46H88.6999V44.864C88.0919 45.728 86.9559 46.192 85.9479 46.192C84.1879 46.192 82.8919 45.168 82.8919 43.552C82.8919 41.904 84.3799 40.8 86.2039 40.8C87.0199 40.8 87.8999 40.976 88.6999 41.248V40.992C88.6999 39.952 88.2199 38.848 86.5719 38.848C85.7559 38.848 84.9559 39.168 84.2359 39.536L83.6599 38.368C84.8439 37.776 85.8839 37.536 86.7959 37.536ZM86.2519 44.944C87.2759 44.944 88.4279 44.432 88.6999 43.408V42.304C88.0279 42.096 87.2599 41.984 86.4439 41.984C85.3399 41.984 84.4119 42.608 84.4119 43.504C84.4119 44.4 85.2119 44.944 86.2519 44.944ZM96.7506 37.536C98.5746 37.536 99.8546 38.864 99.8546 40.736V46H98.3026V41.008C98.3026 39.776 97.5186 38.912 96.3986 38.912C95.2466 38.912 94.2546 39.664 94.1266 40.64V46H92.5426V37.728H94.1266V38.928C94.6226 38.112 95.6306 37.536 96.7506 37.536ZM108.489 34.816H110.057V46H108.489V44.56C107.849 45.584 106.825 46.192 105.545 46.192C103.369 46.192 101.737 44.4 101.737 41.856C101.737 39.328 103.369 37.536 105.545 37.536C106.825 37.536 107.849 38.144 108.489 39.152V34.816ZM105.929 44.816C107.417 44.816 108.489 43.584 108.489 41.856C108.489 40.128 107.417 38.912 105.929 38.912C104.409 38.912 103.337 40.128 103.337 41.856C103.337 43.584 104.409 44.816 105.929 44.816ZM125.139 36.512H118.691V39.648H124.515V41.152H118.691V44.496H125.139V46H117.059V35.008H125.139V36.512ZM130.593 37.536C132.817 37.536 134.049 38.944 134.049 40.992V46H132.497V44.864C131.889 45.728 130.753 46.192 129.745 46.192C127.985 46.192 126.689 45.168 126.689 43.552C126.689 41.904 128.177 40.8 130.001 40.8C130.817 40.8 131.697 40.976 132.497 41.248V40.992C132.497 39.952 132.017 38.848 130.369 38.848C129.553 38.848 128.753 39.168 128.033 39.536L127.457 38.368C128.641 37.776 129.681 37.536 130.593 37.536ZM130.049 44.944C131.073 44.944 132.225 44.432 132.497 43.408V42.304C131.825 42.096 131.057 41.984 130.241 41.984C129.137 41.984 128.209 42.608 128.209 43.504C128.209 44.4 129.009 44.944 130.049 44.944ZM138.004 39.312C138.532 38.224 139.652 37.536 141.076 37.536V38.912C139.364 38.912 138.148 39.856 138.004 41.296V46H136.42V37.728H138.004V39.312ZM146.829 37.536C148.653 37.536 149.933 38.864 149.933 40.736V46H148.381V41.008C148.381 39.776 147.597 38.912 146.477 38.912C145.325 38.912 144.333 39.664 144.205 40.64V46H142.621V37.728H144.205V38.928C144.701 38.112 145.709 37.536 146.829 37.536ZM165.529 38.592C165.529 40.288 164.377 41.584 162.713 42.016L165.513 46H163.657L160.969 42.176H158.441V46H156.825V35.008H161.449C163.769 35.008 165.529 36.496 165.529 38.592ZM158.441 36.512V40.672H161.225C162.809 40.672 163.881 39.888 163.881 38.592C163.881 37.296 162.809 36.512 161.225 36.512H158.441ZM171.116 44.784C171.98 44.784 172.988 44.4 173.484 43.888L174.476 44.912C173.74 45.696 172.3 46.192 171.132 46.192C168.828 46.192 166.876 44.384 166.876 41.84C166.876 39.36 168.716 37.536 171.004 37.536C173.532 37.536 174.988 39.456 174.988 42.416H168.476C168.684 43.792 169.692 44.784 171.116 44.784ZM171.068 38.944C169.788 38.944 168.748 39.808 168.492 41.152H173.452C173.276 39.872 172.492 38.944 171.068 38.944ZM178.514 46L175.73 37.728H177.346L179.25 43.888L181.298 37.728H182.642L184.69 43.888L186.578 37.728H188.194L185.41 46H183.954L181.97 39.856L179.97 46H178.514ZM193.265 37.536C195.489 37.536 196.721 38.944 196.721 40.992V46H195.169V44.864C194.561 45.728 193.425 46.192 192.417 46.192C190.657 46.192 189.361 45.168 189.361 43.552C189.361 41.904 190.849 40.8 192.673 40.8C193.489 40.8 194.369 40.976 195.169 41.248V40.992C195.169 39.952 194.689 38.848 193.041 38.848C192.225 38.848 191.425 39.168 190.705 39.536L190.129 38.368C191.313 37.776 192.353 37.536 193.265 37.536ZM192.721 44.944C193.745 44.944 194.897 44.432 195.169 43.408V42.304C194.497 42.096 193.729 41.984 192.913 41.984C191.809 41.984 190.881 42.608 190.881 43.504C190.881 44.4 191.681 44.944 192.721 44.944ZM200.675 39.312C201.203 38.224 202.323 37.536 203.747 37.536V38.912C202.035 38.912 200.819 39.856 200.675 41.296V46H199.091V37.728H200.675V39.312ZM211.661 34.816H213.229V46H211.661V44.56C211.021 45.584 209.997 46.192 208.717 46.192C206.541 46.192 204.909 44.4 204.909 41.856C204.909 39.328 206.541 37.536 208.717 37.536C209.997 37.536 211.021 38.144 211.661 39.152V34.816ZM209.101 44.816C210.589 44.816 211.661 43.584 211.661 41.856C211.661 40.128 210.589 38.912 209.101 38.912C207.581 38.912 206.509 40.128 206.509 41.856C206.509 43.584 207.581 44.816 209.101 44.816ZM218.597 46.192C217.381 46.192 216.053 45.76 215.061 44.96L215.813 43.824C216.693 44.464 217.637 44.832 218.613 44.832C219.541 44.832 220.181 44.4 220.181 43.76C220.181 42.992 219.333 42.752 218.309 42.464C216.405 41.936 215.461 41.392 215.461 40.048C215.445 38.528 216.709 37.536 218.469 37.536C219.541 37.536 220.629 37.904 221.525 38.496L220.821 39.664C220.021 39.168 219.189 38.896 218.469 38.896C217.653 38.896 217.013 39.248 217.013 39.872C217.013 40.512 217.525 40.704 218.917 41.136C220.277 41.536 221.733 41.984 221.733 43.632C221.733 45.2 220.405 46.192 218.597 46.192Z" fill="white"/>
<path d="M41.632 89.416C41.632 90.184 41.7707 90.8347 42.048 91.368C42.3253 91.9013 42.688 92.3387 43.136 92.68C43.6053 93 44.1493 93.2453 44.768 93.416C45.3867 93.5653 46.0267 93.64 46.688 93.64C47.136 93.64 47.616 93.608 48.128 93.544C48.64 93.4587 49.12 93.3093 49.568 93.096C50.016 92.8827 50.3893 92.5947 50.688 92.232C50.9867 91.848 51.136 91.368 51.136 90.792C51.136 90.1733 50.9333 89.672 50.528 89.288C50.144 88.904 49.632 88.584 48.992 88.328C48.352 88.072 47.6267 87.848 46.816 87.656C46.0053 87.464 45.184 87.2507 44.352 87.016C43.4987 86.8027 42.6667 86.5467 41.856 86.248C41.0453 85.928 40.32 85.5227 39.68 85.032C39.04 84.5413 38.5173 83.9333 38.112 83.208C37.728 82.4613 37.536 81.5653 37.536 80.52C37.536 79.3467 37.7813 78.3333 38.272 77.48C38.784 76.6053 39.4453 75.88 40.256 75.304C41.0667 74.728 41.984 74.3013 43.008 74.024C44.032 73.7467 45.056 73.608 46.08 73.608C47.2747 73.608 48.416 73.7467 49.504 74.024C50.6133 74.28 51.5947 74.7067 52.448 75.304C53.3013 75.9013 53.9733 76.6693 54.464 77.608C54.976 78.5253 55.232 79.6453 55.232 80.968H50.368C50.3253 80.2853 50.176 79.72 49.92 79.272C49.6853 78.824 49.3653 78.472 48.96 78.216C48.5547 77.96 48.0853 77.7787 47.552 77.672C47.04 77.5653 46.4747 77.512 45.856 77.512C45.4507 77.512 45.0453 77.5547 44.64 77.64C44.2347 77.7253 43.8613 77.8747 43.52 78.088C43.2 78.3013 42.9333 78.568 42.72 78.888C42.5067 79.208 42.4 79.6133 42.4 80.104C42.4 80.552 42.4853 80.9147 42.656 81.192C42.8267 81.4693 43.1573 81.7253 43.648 81.96C44.16 82.1947 44.8533 82.4293 45.728 82.664C46.624 82.8987 47.7867 83.1973 49.216 83.56C49.6427 83.6453 50.2293 83.8053 50.976 84.04C51.744 84.2533 52.5013 84.6053 53.248 85.096C53.9947 85.5867 54.6347 86.248 55.168 87.08C55.7227 87.8907 56 88.936 56 90.216C56 91.2613 55.7973 92.232 55.392 93.128C54.9867 94.024 54.3787 94.8027 53.568 95.464C52.7787 96.104 51.7867 96.6053 50.592 96.968C49.4187 97.3307 48.0533 97.512 46.496 97.512C45.2373 97.512 44.0107 97.352 42.816 97.032C41.6427 96.7333 40.5973 96.2533 39.68 95.592C38.784 94.9307 38.0693 94.088 37.536 93.064C37.0027 92.04 36.7467 90.824 36.768 89.416H41.632ZM66.8613 94.024C67.6079 94.024 68.2266 93.8747 68.7173 93.576C69.2293 93.2773 69.6346 92.8933 69.9333 92.424C70.2533 91.9333 70.4773 91.368 70.6053 90.728C70.7333 90.088 70.7973 89.4373 70.7973 88.776C70.7973 88.1147 70.7226 87.464 70.5733 86.824C70.4453 86.184 70.2213 85.6187 69.9013 85.128C69.5813 84.616 69.1653 84.2107 68.6533 83.912C68.1626 83.592 67.5546 83.432 66.8293 83.432C66.0826 83.432 65.4533 83.592 64.9413 83.912C64.4506 84.2107 64.0453 84.6053 63.7253 85.096C63.4266 85.5867 63.2133 86.152 63.0853 86.792C62.9573 87.432 62.8933 88.0933 62.8933 88.776C62.8933 89.4373 62.9573 90.088 63.0853 90.728C63.2346 91.368 63.4586 91.9333 63.7573 92.424C64.0773 92.8933 64.4933 93.2773 65.0052 93.576C65.5173 93.8747 66.1359 94.024 66.8613 94.024ZM58.5093 80.456H62.8293V82.568H62.8933C63.4479 81.672 64.1519 81.0213 65.0052 80.616C65.8586 80.2107 66.7973 80.008 67.8213 80.008C69.1226 80.008 70.2426 80.2533 71.1813 80.744C72.1199 81.2347 72.8986 81.8853 73.5173 82.696C74.1359 83.5067 74.5946 84.456 74.8933 85.544C75.1919 86.6107 75.3413 87.7307 75.3413 88.904C75.3413 90.0133 75.1919 91.08 74.8933 92.104C74.5946 93.128 74.1359 94.0347 73.5173 94.824C72.9199 95.6133 72.1626 96.2427 71.2453 96.712C70.3493 97.1813 69.2933 97.416 68.0773 97.416C67.0533 97.416 66.1039 97.2133 65.2292 96.808C64.3759 96.3813 63.6719 95.7627 63.1173 94.952H63.0533V102.792H58.5093V80.456ZM78.0718 80.456H82.3918V83.528H82.4558C82.6691 83.016 82.9571 82.5467 83.3198 82.12C83.6824 81.672 84.0984 81.2987 84.5677 81C85.0371 80.68 85.5384 80.4347 86.0718 80.264C86.6051 80.0933 87.1598 80.008 87.7358 80.008C88.0344 80.008 88.3651 80.0613 88.7278 80.168V84.392C88.5144 84.3493 88.2584 84.3173 87.9598 84.296C87.6611 84.2533 87.3731 84.232 87.0958 84.232C86.2638 84.232 85.5598 84.3707 84.9838 84.648C84.4078 84.9253 83.9384 85.3093 83.5758 85.8C83.2344 86.2693 82.9891 86.824 82.8398 87.464C82.6904 88.104 82.6158 88.7973 82.6158 89.544V97H78.0718V80.456ZM101.083 86.952C100.869 85.8 100.485 84.9253 99.9308 84.328C99.3974 83.7307 98.5761 83.432 97.4668 83.432C96.7414 83.432 96.1334 83.56 95.6428 83.816C95.1734 84.0507 94.7894 84.3493 94.4908 84.712C94.2134 85.0747 94.0108 85.4587 93.8828 85.864C93.7761 86.2693 93.7121 86.632 93.6908 86.952H101.083ZM93.6908 89.832C93.7548 91.304 94.1281 92.3707 94.8108 93.032C95.4934 93.6933 96.4748 94.024 97.7548 94.024C98.6721 94.024 99.4614 93.8 100.123 93.352C100.784 92.8827 101.189 92.392 101.339 91.88H105.339C104.699 93.864 103.717 95.2827 102.395 96.136C101.072 96.9893 99.4721 97.416 97.5948 97.416C96.2934 97.416 95.1201 97.2133 94.0748 96.808C93.0294 96.3813 92.1441 95.784 91.4188 95.016C90.6934 94.248 90.1281 93.3307 89.7228 92.264C89.3388 91.1973 89.1468 90.024 89.1468 88.744C89.1468 87.5067 89.3494 86.3547 89.7548 85.288C90.1601 84.2213 90.7361 83.304 91.4828 82.536C92.2294 81.7467 93.1148 81.128 94.1388 80.68C95.1841 80.232 96.3361 80.008 97.5948 80.008C99.0028 80.008 100.229 80.2853 101.275 80.84C102.32 81.3733 103.173 82.0987 103.835 83.016C104.517 83.9333 105.008 84.9787 105.307 86.152C105.605 87.3253 105.712 88.552 105.627 89.832H93.6908ZM108.13 85.544C108.194 84.4773 108.46 83.592 108.93 82.888C109.399 82.184 109.996 81.6187 110.722 81.192C111.447 80.7653 112.258 80.4667 113.154 80.296C114.071 80.104 114.988 80.008 115.906 80.008C116.738 80.008 117.58 80.072 118.434 80.2C119.287 80.3067 120.066 80.5307 120.77 80.872C121.474 81.2133 122.05 81.6933 122.498 82.312C122.946 82.9093 123.17 83.7093 123.17 84.712V93.32C123.17 94.0667 123.212 94.7813 123.298 95.464C123.383 96.1467 123.532 96.6587 123.746 97H119.138C119.052 96.744 118.978 96.488 118.914 96.232C118.871 95.9547 118.839 95.6773 118.818 95.4C118.092 96.1467 117.239 96.6693 116.258 96.968C115.276 97.2667 114.274 97.416 113.25 97.416C112.46 97.416 111.724 97.32 111.042 97.128C110.359 96.936 109.762 96.6373 109.25 96.232C108.738 95.8267 108.332 95.3147 108.034 94.696C107.756 94.0773 107.618 93.3413 107.618 92.488C107.618 91.5493 107.778 90.7813 108.098 90.184C108.439 89.5653 108.866 89.0747 109.378 88.712C109.911 88.3493 110.508 88.0827 111.17 87.912C111.852 87.72 112.535 87.5707 113.218 87.464C113.9 87.3573 114.572 87.272 115.234 87.208C115.895 87.144 116.482 87.048 116.994 86.92C117.506 86.792 117.911 86.6107 118.21 86.376C118.508 86.12 118.647 85.7573 118.626 85.288C118.626 84.7973 118.54 84.4133 118.37 84.136C118.22 83.8373 118.007 83.6133 117.73 83.464C117.474 83.2933 117.164 83.1867 116.802 83.144C116.46 83.08 116.087 83.048 115.682 83.048C114.786 83.048 114.082 83.24 113.57 83.624C113.058 84.008 112.759 84.648 112.674 85.544H108.13ZM118.626 88.904C118.434 89.0747 118.188 89.2133 117.89 89.32C117.612 89.4053 117.303 89.48 116.962 89.544C116.642 89.608 116.3 89.6613 115.938 89.704C115.575 89.7467 115.212 89.8 114.85 89.864C114.508 89.928 114.167 90.0133 113.826 90.12C113.506 90.2267 113.218 90.376 112.962 90.568C112.727 90.7387 112.535 90.9627 112.386 91.24C112.236 91.5173 112.162 91.8693 112.162 92.296C112.162 92.7013 112.236 93.0427 112.386 93.32C112.535 93.5973 112.738 93.8213 112.994 93.992C113.25 94.1413 113.548 94.248 113.89 94.312C114.231 94.376 114.583 94.408 114.946 94.408C115.842 94.408 116.535 94.2587 117.026 93.96C117.516 93.6613 117.879 93.3093 118.114 92.904C118.348 92.4773 118.487 92.0507 118.53 91.624C118.594 91.1973 118.626 90.856 118.626 90.6V88.904ZM138.441 88.68C138.441 87.9973 138.377 87.3467 138.249 86.728C138.121 86.088 137.897 85.5333 137.577 85.064C137.278 84.5733 136.883 84.1787 136.393 83.88C135.902 83.5813 135.283 83.432 134.537 83.432C133.79 83.432 133.161 83.5813 132.649 83.88C132.137 84.1787 131.721 84.5733 131.401 85.064C131.102 85.5547 130.878 86.12 130.729 86.76C130.601 87.3787 130.537 88.0293 130.537 88.712C130.537 89.352 130.611 89.992 130.761 90.632C130.91 91.272 131.145 91.848 131.465 92.36C131.806 92.8507 132.222 93.256 132.713 93.576C133.225 93.8747 133.833 94.024 134.537 94.024C135.283 94.024 135.902 93.8747 136.393 93.576C136.905 93.2773 137.31 92.8827 137.609 92.392C137.907 91.88 138.121 91.304 138.249 90.664C138.377 90.024 138.441 89.3627 138.441 88.68ZM138.505 94.888H138.441C137.907 95.784 137.203 96.4347 136.329 96.84C135.475 97.224 134.505 97.416 133.417 97.416C132.179 97.416 131.091 97.1813 130.153 96.712C129.214 96.2213 128.435 95.5707 127.817 94.76C127.219 93.928 126.761 92.9787 126.441 91.912C126.142 90.8453 125.993 89.736 125.993 88.584C125.993 87.4747 126.142 86.408 126.441 85.384C126.761 84.3387 127.219 83.4213 127.817 82.632C128.435 81.8427 129.203 81.2133 130.121 80.744C131.038 80.2533 132.105 80.008 133.321 80.008C134.302 80.008 135.23 80.2213 136.105 80.648C137.001 81.0533 137.705 81.6613 138.217 82.472H138.281V74.152H142.825V97H138.505V94.888ZM160.926 80.456H164.254V83.496H160.926V91.688C160.926 92.456 161.054 92.968 161.31 93.224C161.566 93.48 162.078 93.608 162.845 93.608C163.102 93.608 163.347 93.5973 163.582 93.576C163.816 93.5547 164.04 93.5227 164.254 93.48V97C163.87 97.064 163.443 97.1067 162.974 97.128C162.504 97.1493 162.046 97.16 161.598 97.16C160.894 97.16 160.222 97.1067 159.582 97C158.963 96.9147 158.408 96.7333 157.918 96.456C157.448 96.1787 157.075 95.784 156.798 95.272C156.52 94.76 156.382 94.088 156.382 93.256V83.496H153.63V80.456H156.382V75.496H160.926V80.456ZM166.416 74.152H170.96V82.76H171.056C171.632 81.8 172.368 81.1067 173.264 80.68C174.16 80.232 175.034 80.008 175.888 80.008C177.104 80.008 178.096 80.1787 178.864 80.52C179.653 80.84 180.272 81.2987 180.72 81.896C181.168 82.472 181.477 83.1867 181.648 84.04C181.84 84.872 181.936 85.8 181.936 86.824V97H177.392V87.656C177.392 86.2907 177.178 85.2773 176.752 84.616C176.325 83.9333 175.568 83.592 174.48 83.592C173.242 83.592 172.346 83.9653 171.792 84.712C171.237 85.4373 170.96 86.6427 170.96 88.328V97H166.416V74.152ZM196.52 86.952C196.307 85.8 195.923 84.9253 195.368 84.328C194.835 83.7307 194.014 83.432 192.904 83.432C192.179 83.432 191.571 83.56 191.08 83.816C190.611 84.0507 190.227 84.3493 189.928 84.712C189.651 85.0747 189.448 85.4587 189.32 85.864C189.214 86.2693 189.15 86.632 189.128 86.952H196.52ZM189.128 89.832C189.192 91.304 189.566 92.3707 190.248 93.032C190.931 93.6933 191.912 94.024 193.192 94.024C194.11 94.024 194.899 93.8 195.56 93.352C196.222 92.8827 196.627 92.392 196.776 91.88H200.776C200.136 93.864 199.155 95.2827 197.832 96.136C196.51 96.9893 194.91 97.416 193.032 97.416C191.731 97.416 190.558 97.2133 189.512 96.808C188.467 96.3813 187.582 95.784 186.856 95.016C186.131 94.248 185.566 93.3307 185.16 92.264C184.776 91.1973 184.584 90.024 184.584 88.744C184.584 87.5067 184.787 86.3547 185.192 85.288C185.598 84.2213 186.174 83.304 186.92 82.536C187.667 81.7467 188.552 81.128 189.576 80.68C190.622 80.232 191.774 80.008 193.032 80.008C194.44 80.008 195.667 80.2853 196.712 80.84C197.758 81.3733 198.611 82.0987 199.272 83.016C199.955 83.9333 200.446 84.9787 200.744 86.152C201.043 87.3253 201.15 88.552 201.064 89.832H189.128ZM231.578 97H226.906L223.962 85.896H223.898L221.082 97H216.378L211.13 80.456H215.93L218.97 91.688H219.034L221.786 80.456H226.202L229.017 91.656H229.082L232.122 80.456H236.794L231.578 97ZM242.76 88.744C242.76 89.4053 242.824 90.056 242.952 90.696C243.08 91.3147 243.293 91.88 243.592 92.392C243.912 92.8827 244.328 93.2773 244.84 93.576C245.352 93.8747 245.992 94.024 246.76 94.024C247.528 94.024 248.168 93.8747 248.68 93.576C249.213 93.2773 249.629 92.8827 249.928 92.392C250.248 91.88 250.472 91.3147 250.6 90.696C250.728 90.056 250.792 89.4053 250.792 88.744C250.792 88.0827 250.728 87.432 250.6 86.792C250.472 86.152 250.248 85.5867 249.928 85.096C249.629 84.6053 249.213 84.2107 248.68 83.912C248.168 83.592 247.528 83.432 246.76 83.432C245.992 83.432 245.352 83.592 244.84 83.912C244.328 84.2107 243.912 84.6053 243.592 85.096C243.293 85.5867 243.08 86.152 242.952 86.792C242.824 87.432 242.76 88.0827 242.76 88.744ZM238.216 88.744C238.216 87.4213 238.419 86.2267 238.824 85.16C239.229 84.072 239.805 83.1547 240.552 82.408C241.299 81.64 242.195 81.0533 243.24 80.648C244.285 80.2213 245.459 80.008 246.76 80.008C248.061 80.008 249.235 80.2213 250.28 80.648C251.347 81.0533 252.253 81.64 253 82.408C253.747 83.1547 254.323 84.072 254.728 85.16C255.133 86.2267 255.336 87.4213 255.336 88.744C255.336 90.0667 255.133 91.2613 254.728 92.328C254.323 93.3947 253.747 94.312 253 95.08C252.253 95.8267 251.347 96.4027 250.28 96.808C249.235 97.2133 248.061 97.416 246.76 97.416C245.459 97.416 244.285 97.2133 243.24 96.808C242.195 96.4027 241.299 95.8267 240.552 95.08C239.805 94.312 239.229 93.3947 238.824 92.328C238.419 91.2613 238.216 90.0667 238.216 88.744ZM258.291 80.456H262.611V83.528H262.675C262.888 83.016 263.176 82.5467 263.539 82.12C263.901 81.672 264.317 81.2987 264.786 81C265.256 80.68 265.757 80.4347 266.291 80.264C266.824 80.0933 267.379 80.008 267.955 80.008C268.253 80.008 268.584 80.0613 268.947 80.168V84.392C268.733 84.3493 268.477 84.3173 268.179 84.296C267.88 84.2533 267.592 84.232 267.315 84.232C266.483 84.232 265.779 84.3707 265.203 84.648C264.627 84.9253 264.157 85.3093 263.795 85.8C263.453 86.2693 263.208 86.824 263.059 87.464C262.909 88.104 262.835 88.7973 262.835 89.544V97H258.291V80.456ZM281.91 88.68C281.91 87.9973 281.846 87.3467 281.718 86.728C281.59 86.088 281.366 85.5333 281.046 85.064C280.747 84.5733 280.352 84.1787 279.862 83.88C279.371 83.5813 278.752 83.432 278.006 83.432C277.259 83.432 276.63 83.5813 276.118 83.88C275.606 84.1787 275.19 84.5733 274.87 85.064C274.571 85.5547 274.347 86.12 274.198 86.76C274.07 87.3787 274.006 88.0293 274.006 88.712C274.006 89.352 274.08 89.992 274.23 90.632C274.379 91.272 274.614 91.848 274.934 92.36C275.275 92.8507 275.691 93.256 276.182 93.576C276.694 93.8747 277.302 94.024 278.006 94.024C278.752 94.024 279.371 93.8747 279.862 93.576C280.374 93.2773 280.779 92.8827 281.078 92.392C281.376 91.88 281.59 91.304 281.718 90.664C281.846 90.024 281.91 89.3627 281.91 88.68ZM281.974 94.888H281.91C281.376 95.784 280.672 96.4347 279.798 96.84C278.944 97.224 277.974 97.416 276.885 97.416C275.648 97.416 274.56 97.1813 273.622 96.712C272.683 96.2213 271.904 95.5707 271.286 94.76C270.688 93.928 270.23 92.9787 269.91 91.912C269.611 90.8453 269.462 89.736 269.462 88.584C269.462 87.4747 269.611 86.408 269.91 85.384C270.23 84.3387 270.688 83.4213 271.286 82.632C271.904 81.8427 272.672 81.2133 273.59 80.744C274.507 80.2533 275.574 80.008 276.79 80.008C277.771 80.008 278.699 80.2213 279.574 80.648C280.47 81.0533 281.174 81.6613 281.686 82.472H281.75V74.152H286.294V97H281.974V94.888ZM298.442 85.544C298.506 84.4773 298.773 83.592 299.242 82.888C299.712 82.184 300.309 81.6187 301.034 81.192C301.76 80.7653 302.57 80.4667 303.466 80.296C304.384 80.104 305.301 80.008 306.218 80.008C307.05 80.008 307.893 80.072 308.746 80.2C309.6 80.3067 310.378 80.5307 311.082 80.872C311.786 81.2133 312.362 81.6933 312.81 82.312C313.258 82.9093 313.482 83.7093 313.482 84.712V93.32C313.482 94.0667 313.525 94.7813 313.61 95.464C313.696 96.1467 313.845 96.6587 314.058 97H309.45C309.365 96.744 309.29 96.488 309.226 96.232C309.184 95.9547 309.152 95.6773 309.13 95.4C308.405 96.1467 307.552 96.6693 306.57 96.968C305.589 97.2667 304.586 97.416 303.562 97.416C302.773 97.416 302.037 97.32 301.354 97.128C300.672 96.936 300.074 96.6373 299.562 96.232C299.05 95.8267 298.645 95.3147 298.346 94.696C298.069 94.0773 297.93 93.3413 297.93 92.488C297.93 91.5493 298.09 90.7813 298.41 90.184C298.752 89.5653 299.178 89.0747 299.69 88.712C300.224 88.3493 300.821 88.0827 301.482 87.912C302.165 87.72 302.848 87.5707 303.53 87.464C304.213 87.3573 304.885 87.272 305.546 87.208C306.208 87.144 306.794 87.048 307.306 86.92C307.818 86.792 308.224 86.6107 308.522 86.376C308.821 86.12 308.96 85.7573 308.938 85.288C308.938 84.7973 308.853 84.4133 308.682 84.136C308.533 83.8373 308.32 83.6133 308.042 83.464C307.786 83.2933 307.477 83.1867 307.114 83.144C306.773 83.08 306.4 83.048 305.994 83.048C305.098 83.048 304.394 83.24 303.882 83.624C303.37 84.008 303.072 84.648 302.986 85.544H298.442ZM308.938 88.904C308.746 89.0747 308.501 89.2133 308.202 89.32C307.925 89.4053 307.616 89.48 307.274 89.544C306.954 89.608 306.613 89.6613 306.25 89.704C305.888 89.7467 305.525 89.8 305.162 89.864C304.821 89.928 304.48 90.0133 304.138 90.12C303.818 90.2267 303.53 90.376 303.274 90.568C303.04 90.7387 302.848 90.9627 302.698 91.24C302.549 91.5173 302.474 91.8693 302.474 92.296C302.474 92.7013 302.549 93.0427 302.698 93.32C302.848 93.5973 303.05 93.8213 303.306 93.992C303.562 94.1413 303.861 94.248 304.202 94.312C304.544 94.376 304.896 94.408 305.258 94.408C306.154 94.408 306.848 94.2587 307.338 93.96C307.829 93.6613 308.192 93.3093 308.426 92.904C308.661 92.4773 308.8 92.0507 308.842 91.624C308.906 91.1973 308.938 90.856 308.938 90.6V88.904ZM317.009 80.456H321.329V82.76H321.425C322.001 81.8 322.748 81.1067 323.665 80.68C324.583 80.232 325.521 80.008 326.481 80.008C327.697 80.008 328.689 80.1787 329.457 80.52C330.247 80.84 330.865 81.2987 331.313 81.896C331.761 82.472 332.071 83.1867 332.241 84.04C332.433 84.872 332.529 85.8 332.529 86.824V97H327.985V87.656C327.985 86.2907 327.772 85.2773 327.345 84.616C326.919 83.9333 326.161 83.592 325.073 83.592C323.836 83.592 322.94 83.9653 322.385 84.712C321.831 85.4373 321.553 86.6427 321.553 88.328V97H317.009V80.456ZM347.722 88.68C347.722 87.9973 347.658 87.3467 347.53 86.728C347.402 86.088 347.178 85.5333 346.858 85.064C346.559 84.5733 346.165 84.1787 345.674 83.88C345.183 83.5813 344.565 83.432 343.818 83.432C343.071 83.432 342.442 83.5813 341.93 83.88C341.418 84.1787 341.002 84.5733 340.682 85.064C340.383 85.5547 340.159 86.12 340.01 86.76C339.882 87.3787 339.818 88.0293 339.818 88.712C339.818 89.352 339.893 89.992 340.042 90.632C340.191 91.272 340.426 91.848 340.746 92.36C341.087 92.8507 341.503 93.256 341.994 93.576C342.506 93.8747 343.114 94.024 343.818 94.024C344.565 94.024 345.183 93.8747 345.674 93.576C346.186 93.2773 346.591 92.8827 346.89 92.392C347.189 91.88 347.402 91.304 347.53 90.664C347.658 90.024 347.722 89.3627 347.722 88.68ZM347.786 94.888H347.722C347.189 95.784 346.485 96.4347 345.61 96.84C344.757 97.224 343.786 97.416 342.698 97.416C341.461 97.416 340.373 97.1813 339.434 96.712C338.495 96.2213 337.717 95.5707 337.098 94.76C336.501 93.928 336.042 92.9787 335.722 91.912C335.423 90.8453 335.274 89.736 335.274 88.584C335.274 87.4747 335.423 86.408 335.722 85.384C336.042 84.3387 336.501 83.4213 337.098 82.632C337.717 81.8427 338.485 81.2133 339.402 80.744C340.319 80.2533 341.386 80.008 342.602 80.008C343.583 80.008 344.511 80.2213 345.386 80.648C346.282 81.0533 346.986 81.6613 347.498 82.472H347.562V74.152H352.106V97H347.786V94.888ZM375.583 86.952C375.369 85.8 374.985 84.9253 374.431 84.328C373.897 83.7307 373.076 83.432 371.967 83.432C371.241 83.432 370.633 83.56 370.143 83.816C369.673 84.0507 369.289 84.3493 368.991 84.712C368.713 85.0747 368.511 85.4587 368.383 85.864C368.276 86.2693 368.212 86.632 368.191 86.952H375.583ZM368.191 89.832C368.255 91.304 368.628 92.3707 369.311 93.032C369.993 93.6933 370.975 94.024 372.255 94.024C373.172 94.024 373.961 93.8 374.623 93.352C375.284 92.8827 375.689 92.392 375.839 91.88H379.839C379.199 93.864 378.217 95.2827 376.895 96.136C375.572 96.9893 373.972 97.416 372.095 97.416C370.793 97.416 369.62 97.2133 368.575 96.808C367.529 96.3813 366.644 95.784 365.919 95.016C365.193 94.248 364.628 93.3307 364.223 92.264C363.839 91.1973 363.647 90.024 363.647 88.744C363.647 87.5067 363.849 86.3547 364.255 85.288C364.66 84.2213 365.236 83.304 365.983 82.536C366.729 81.7467 367.615 81.128 368.639 80.68C369.684 80.232 370.836 80.008 372.095 80.008C373.503 80.008 374.729 80.2853 375.775 80.84C376.82 81.3733 377.673 82.0987 378.335 83.016C379.017 83.9333 379.508 84.9787 379.807 86.152C380.105 87.3253 380.212 88.552 380.127 89.832H368.191ZM382.63 85.544C382.694 84.4773 382.96 83.592 383.43 82.888C383.899 82.184 384.496 81.6187 385.222 81.192C385.947 80.7653 386.758 80.4667 387.654 80.296C388.571 80.104 389.488 80.008 390.406 80.008C391.238 80.008 392.08 80.072 392.934 80.2C393.787 80.3067 394.566 80.5307 395.27 80.872C395.974 81.2133 396.55 81.6933 396.998 82.312C397.446 82.9093 397.67 83.7093 397.67 84.712V93.32C397.67 94.0667 397.712 94.7813 397.798 95.464C397.883 96.1467 398.032 96.6587 398.246 97H393.638C393.552 96.744 393.478 96.488 393.414 96.232C393.371 95.9547 393.339 95.6773 393.318 95.4C392.592 96.1467 391.739 96.6693 390.758 96.968C389.776 97.2667 388.774 97.416 387.75 97.416C386.96 97.416 386.224 97.32 385.542 97.128C384.859 96.936 384.262 96.6373 383.75 96.232C383.238 95.8267 382.832 95.3147 382.534 94.696C382.256 94.0773 382.118 93.3413 382.118 92.488C382.118 91.5493 382.278 90.7813 382.598 90.184C382.939 89.5653 383.366 89.0747 383.878 88.712C384.411 88.3493 385.008 88.0827 385.67 87.912C386.352 87.72 387.035 87.5707 387.718 87.464C388.4 87.3573 389.072 87.272 389.734 87.208C390.395 87.144 390.982 87.048 391.494 86.92C392.006 86.792 392.411 86.6107 392.71 86.376C393.008 86.12 393.147 85.7573 393.126 85.288C393.126 84.7973 393.04 84.4133 392.87 84.136C392.72 83.8373 392.507 83.6133 392.23 83.464C391.974 83.2933 391.664 83.1867 391.302 83.144C390.96 83.08 390.587 83.048 390.182 83.048C389.286 83.048 388.582 83.24 388.07 83.624C387.558 84.008 387.259 84.648 387.174 85.544H382.63ZM393.126 88.904C392.934 89.0747 392.688 89.2133 392.39 89.32C392.112 89.4053 391.803 89.48 391.462 89.544C391.142 89.608 390.8 89.6613 390.438 89.704C390.075 89.7467 389.712 89.8 389.35 89.864C389.008 89.928 388.667 90.0133 388.326 90.12C388.006 90.2267 387.718 90.376 387.462 90.568C387.227 90.7387 387.035 90.9627 386.886 91.24C386.736 91.5173 386.662 91.8693 386.662 92.296C386.662 92.7013 386.736 93.0427 386.886 93.32C387.035 93.5973 387.238 93.8213 387.494 93.992C387.75 94.1413 388.048 94.248 388.39 94.312C388.731 94.376 389.083 94.408 389.446 94.408C390.342 94.408 391.035 94.2587 391.526 93.96C392.016 93.6613 392.379 93.3093 392.614 92.904C392.848 92.4773 392.987 92.0507 393.03 91.624C393.094 91.1973 393.126 90.856 393.126 90.6V88.904ZM401.197 80.456H405.517V83.528H405.581C405.794 83.016 406.082 82.5467 406.445 82.12C406.807 81.672 407.223 81.2987 407.693 81C408.162 80.68 408.663 80.4347 409.197 80.264C409.73 80.0933 410.285 80.008 410.861 80.008C411.159 80.008 411.49 80.0613 411.853 80.168V84.392C411.639 84.3493 411.383 84.3173 411.085 84.296C410.786 84.2533 410.498 84.232 410.221 84.232C409.389 84.232 408.685 84.3707 408.109 84.648C407.533 84.9253 407.063 85.3093 406.701 85.8C406.359 86.2693 406.114 86.824 405.965 87.464C405.815 88.104 405.741 88.7973 405.741 89.544V97H401.197V80.456ZM414.197 80.456H418.517V82.76H418.613C419.189 81.8 419.935 81.1067 420.853 80.68C421.77 80.232 422.709 80.008 423.669 80.008C424.885 80.008 425.877 80.1787 426.645 80.52C427.434 80.84 428.053 81.2987 428.501 81.896C428.949 82.472 429.258 83.1867 429.429 84.04C429.621 84.872 429.717 85.8 429.717 86.824V97H425.173V87.656C425.173 86.2907 424.959 85.2773 424.533 84.616C424.106 83.9333 423.349 83.592 422.261 83.592C421.023 83.592 420.127 83.9653 419.573 84.712C419.018 85.4373 418.741 86.6427 418.741 88.328V97H414.197V80.456ZM433.39 92.072H438.414V97H433.39V92.072ZM438.254 80.296L437.006 90.152H434.734L433.518 80.296V74.152H438.254V80.296ZM451.458 74.152H456.482V97H451.458V74.152ZM460.416 80.456H464.736V82.76H464.832C465.408 81.8 466.154 81.1067 467.072 80.68C467.989 80.232 468.928 80.008 469.888 80.008C471.104 80.008 472.096 80.1787 472.864 80.52C473.653 80.84 474.272 81.2987 474.72 81.896C475.168 82.472 475.477 83.1867 475.648 84.04C475.84 84.872 475.936 85.8 475.936 86.824V97H471.392V87.656C471.392 86.2907 471.178 85.2773 470.752 84.616C470.325 83.9333 469.568 83.592 468.48 83.592C467.242 83.592 466.346 83.9653 465.792 84.712C465.237 85.4373 464.96 86.6427 464.96 88.328V97H460.416V80.456ZM488.536 97H483.48L477.816 80.456H482.584L486.072 91.752H486.136L489.624 80.456H494.136L488.536 97ZM500.681 77.896H496.137V74.152H500.681V77.896ZM496.137 80.456H500.681V97H496.137V80.456ZM510.019 80.456H513.347V83.496H510.019V91.688C510.019 92.456 510.147 92.968 510.403 93.224C510.659 93.48 511.171 93.608 511.939 93.608C512.195 93.608 512.441 93.5973 512.675 93.576C512.91 93.5547 513.134 93.5227 513.347 93.48V97C512.963 97.064 512.537 97.1067 512.067 97.128C511.598 97.1493 511.139 97.16 510.691 97.16C509.987 97.16 509.315 97.1067 508.675 97C508.057 96.9147 507.502 96.7333 507.011 96.456C506.542 96.1787 506.169 95.784 505.891 95.272C505.614 94.76 505.475 94.088 505.475 93.256V83.496H502.723V80.456H505.475V75.496H510.019V80.456ZM526.645 86.952C526.432 85.8 526.048 84.9253 525.493 84.328C524.96 83.7307 524.139 83.432 523.029 83.432C522.304 83.432 521.696 83.56 521.205 83.816C520.736 84.0507 520.352 84.3493 520.053 84.712C519.776 85.0747 519.573 85.4587 519.445 85.864C519.339 86.2693 519.275 86.632 519.253 86.952H526.645ZM519.253 89.832C519.317 91.304 519.691 92.3707 520.373 93.032C521.056 93.6933 522.037 94.024 523.317 94.024C524.235 94.024 525.024 93.8 525.685 93.352C526.347 92.8827 526.752 92.392 526.901 91.88H530.901C530.261 93.864 529.28 95.2827 527.957 96.136C526.635 96.9893 525.035 97.416 523.157 97.416C521.856 97.416 520.683 97.2133 519.637 96.808C518.592 96.3813 517.707 95.784 516.981 95.016C516.256 94.248 515.691 93.3307 515.285 92.264C514.901 91.1973 514.709 90.024 514.709 88.744C514.709 87.5067 514.912 86.3547 515.317 85.288C515.723 84.2213 516.299 83.304 517.045 82.536C517.792 81.7467 518.677 81.128 519.701 80.68C520.747 80.232 521.899 80.008 523.157 80.008C524.565 80.008 525.792 80.2853 526.837 80.84C527.883 81.3733 528.736 82.0987 529.397 83.016C530.08 83.9333 530.571 84.9787 530.869 86.152C531.168 87.3253 531.275 88.552 531.189 89.832H519.253ZM550.951 99.048C550.46 100.392 549.777 101.352 548.903 101.928C548.028 102.504 546.812 102.792 545.255 102.792C544.785 102.792 544.316 102.771 543.847 102.728C543.399 102.707 542.94 102.675 542.471 102.632V98.888C542.897 98.9307 543.335 98.9733 543.783 99.016C544.231 99.0587 544.679 99.0693 545.127 99.048C545.724 98.984 546.161 98.7493 546.439 98.344C546.737 97.9387 546.887 97.4907 546.887 97C546.887 96.6373 546.823 96.296 546.695 95.976L540.902 80.456H545.735L549.479 91.784H549.543L553.159 80.456H557.863L550.951 99.048ZM563.416 88.744C563.416 89.4053 563.48 90.056 563.608 90.696C563.736 91.3147 563.95 91.88 564.248 92.392C564.568 92.8827 564.984 93.2773 565.496 93.576C566.008 93.8747 566.648 94.024 567.416 94.024C568.184 94.024 568.824 93.8747 569.336 93.576C569.87 93.2773 570.286 92.8827 570.584 92.392C570.904 91.88 571.128 91.3147 571.256 90.696C571.384 90.056 571.448 89.4053 571.448 88.744C571.448 88.0827 571.384 87.432 571.256 86.792C571.128 86.152 570.904 85.5867 570.584 85.096C570.286 84.6053 569.87 84.2107 569.336 83.912C568.824 83.592 568.184 83.432 567.416 83.432C566.648 83.432 566.008 83.592 565.496 83.912C564.984 84.2107 564.568 84.6053 564.248 85.096C563.95 85.5867 563.736 86.152 563.608 86.792C563.48 87.432 563.416 88.0827 563.416 88.744ZM558.872 88.744C558.872 87.4213 559.075 86.2267 559.48 85.16C559.886 84.072 560.462 83.1547 561.208 82.408C561.955 81.64 562.851 81.0533 563.896 80.648C564.942 80.2213 566.115 80.008 567.416 80.008C568.718 80.008 569.891 80.2213 570.936 80.648C572.003 81.0533 572.91 81.64 573.656 82.408C574.403 83.1547 574.979 84.072 575.384 85.16C575.79 86.2267 575.992 87.4213 575.992 88.744C575.992 90.0667 575.79 91.2613 575.384 92.328C574.979 93.3947 574.403 94.312 573.656 95.08C572.91 95.8267 572.003 96.4027 570.936 96.808C569.891 97.2133 568.718 97.416 567.416 97.416C566.115 97.416 564.942 97.2133 563.896 96.808C562.851 96.4027 561.955 95.8267 561.208 95.08C560.462 94.312 559.886 93.3947 559.48 92.328C559.075 91.2613 558.872 90.0667 558.872 88.744ZM594.467 97H590.147V94.696H590.051C589.475 95.656 588.728 96.3493 587.811 96.776C586.893 97.2027 585.955 97.416 584.995 97.416C583.779 97.416 582.776 97.256 581.987 96.936C581.219 96.616 580.611 96.168 580.163 95.592C579.715 94.9947 579.395 94.28 579.203 93.448C579.032 92.5947 578.947 91.656 578.947 90.632V80.456H583.491V89.8C583.491 91.1653 583.704 92.1893 584.131 92.872C584.557 93.5333 585.315 93.864 586.403 93.864C587.64 93.864 588.536 93.5013 589.091 92.776C589.645 92.0293 589.923 90.8133 589.923 89.128V80.456H594.467V97ZM597.916 80.456H602.236V83.528H602.3C602.513 83.016 602.801 82.5467 603.164 82.12C603.526 81.672 603.942 81.2987 604.411 81C604.881 80.68 605.382 80.4347 605.916 80.264C606.449 80.0933 607.004 80.008 607.58 80.008C607.878 80.008 608.209 80.0613 608.572 80.168V84.392C608.358 84.3493 608.102 84.3173 607.804 84.296C607.505 84.2533 607.217 84.232 606.94 84.232C606.108 84.232 605.404 84.3707 604.828 84.648C604.252 84.9253 603.782 85.3093 603.42 85.8C603.078 86.2693 602.833 86.824 602.684 87.464C602.534 88.104 602.46 88.7973 602.46 89.544V97H597.916V80.456ZM620.251 83.496H617.531V80.456H620.251V79.176C620.251 77.704 620.71 76.4987 621.627 75.56C622.545 74.6213 623.931 74.152 625.787 74.152C626.193 74.152 626.598 74.1733 627.003 74.216C627.409 74.2373 627.803 74.2587 628.187 74.28V77.672C627.654 77.608 627.099 77.576 626.523 77.576C625.905 77.576 625.457 77.7253 625.179 78.024C624.923 78.3013 624.795 78.7813 624.795 79.464V80.456H627.931V83.496H624.795V97H620.251V83.496ZM629.916 80.456H634.236V83.528H634.3C634.513 83.016 634.801 82.5467 635.164 82.12C635.526 81.672 635.942 81.2987 636.411 81C636.881 80.68 637.382 80.4347 637.916 80.264C638.449 80.0933 639.004 80.008 639.58 80.008C639.878 80.008 640.209 80.0613 640.572 80.168V84.392C640.358 84.3493 640.102 84.3173 639.804 84.296C639.505 84.2533 639.217 84.232 638.94 84.232C638.108 84.232 637.404 84.3707 636.828 84.648C636.252 84.9253 635.782 85.3093 635.42 85.8C635.078 86.2693 634.833 86.824 634.684 87.464C634.534 88.104 634.46 88.7973 634.46 89.544V97H629.916V80.456ZM647.025 77.896H642.481V74.152H647.025V77.896ZM642.481 80.456H647.025V97H642.481V80.456ZM661.739 86.952C661.526 85.8 661.142 84.9253 660.587 84.328C660.054 83.7307 659.232 83.432 658.123 83.432C657.398 83.432 656.79 83.56 656.299 83.816C655.83 84.0507 655.446 84.3493 655.147 84.712C654.87 85.0747 654.667 85.4587 654.539 85.864C654.432 86.2693 654.368 86.632 654.347 86.952H661.739ZM654.347 89.832C654.411 91.304 654.784 92.3707 655.467 93.032C656.15 93.6933 657.131 94.024 658.411 94.024C659.328 94.024 660.118 93.8 660.779 93.352C661.44 92.8827 661.846 92.392 661.995 91.88H665.995C665.355 93.864 664.374 95.2827 663.051 96.136C661.728 96.9893 660.128 97.416 658.251 97.416C656.95 97.416 655.776 97.2133 654.731 96.808C653.686 96.3813 652.8 95.784 652.075 95.016C651.35 94.248 650.784 93.3307 650.379 92.264C649.995 91.1973 649.803 90.024 649.803 88.744C649.803 87.5067 650.006 86.3547 650.411 85.288C650.816 84.2213 651.392 83.304 652.139 82.536C652.886 81.7467 653.771 81.128 654.795 80.68C655.84 80.232 656.992 80.008 658.251 80.008C659.659 80.008 660.886 80.2853 661.931 80.84C662.976 81.3733 663.83 82.0987 664.491 83.016C665.174 83.9333 665.664 84.9787 665.963 86.152C666.262 87.3253 666.368 88.552 666.283 89.832H654.347ZM668.978 80.456H673.298V82.76H673.394C673.97 81.8 674.717 81.1067 675.634 80.68C676.551 80.232 677.49 80.008 678.45 80.008C679.666 80.008 680.658 80.1787 681.426 80.52C682.215 80.84 682.834 81.2987 683.282 81.896C683.73 82.472 684.039 83.1867 684.21 84.04C684.402 84.872 684.498 85.8 684.498 86.824V97H679.954V87.656C679.954 86.2907 679.741 85.2773 679.314 84.616C678.887 83.9333 678.13 83.592 677.042 83.592C675.805 83.592 674.909 83.9653 674.354 84.712C673.799 85.4373 673.522 86.6427 673.522 88.328V97H668.978V80.456ZM699.691 88.68C699.691 87.9973 699.627 87.3467 699.499 86.728C699.371 86.088 699.147 85.5333 698.827 85.064C698.528 84.5733 698.133 84.1787 697.643 83.88C697.152 83.5813 696.533 83.432 695.787 83.432C695.04 83.432 694.411 83.5813 693.899 83.88C693.387 84.1787 692.971 84.5733 692.651 85.064C692.352 85.5547 692.128 86.12 691.979 86.76C691.851 87.3787 691.787 88.0293 691.787 88.712C691.787 89.352 691.861 89.992 692.011 90.632C692.16 91.272 692.395 91.848 692.715 92.36C693.056 92.8507 693.472 93.256 693.963 93.576C694.475 93.8747 695.083 94.024 695.787 94.024C696.533 94.024 697.152 93.8747 697.643 93.576C698.155 93.2773 698.56 92.8827 698.859 92.392C699.157 91.88 699.371 91.304 699.499 90.664C699.627 90.024 699.691 89.3627 699.691 88.68ZM699.755 94.888H699.691C699.157 95.784 698.453 96.4347 697.579 96.84C696.725 97.224 695.755 97.416 694.667 97.416C693.429 97.416 692.341 97.1813 691.403 96.712C690.464 96.2213 689.685 95.5707 689.067 94.76C688.469 93.928 688.011 92.9787 687.691 91.912C687.392 90.8453 687.243 89.736 687.243 88.584C687.243 87.4747 687.392 86.408 687.691 85.384C688.011 84.3387 688.469 83.4213 689.067 82.632C689.685 81.8427 690.453 81.2133 691.371 80.744C692.288 80.2533 693.355 80.008 694.571 80.008C695.552 80.008 696.48 80.2213 697.355 80.648C698.251 81.0533 698.955 81.6613 699.467 82.472H699.531V74.152H704.075V97H699.755V94.888ZM711.029 91.624C711.029 92.1147 711.125 92.5413 711.317 92.904C711.531 93.2453 711.797 93.5333 712.117 93.768C712.437 93.9813 712.8 94.1413 713.205 94.248C713.632 94.3547 714.069 94.408 714.517 94.408C714.837 94.408 715.168 94.376 715.509 94.312C715.872 94.2267 716.192 94.1093 716.469 93.96C716.768 93.7893 717.013 93.576 717.205 93.32C717.397 93.0427 717.493 92.7013 717.493 92.296C717.493 91.6133 717.035 91.1013 716.117 90.76C715.221 90.4187 713.963 90.0773 712.341 89.736C711.68 89.5867 711.029 89.416 710.389 89.224C709.771 89.0107 709.216 88.744 708.725 88.424C708.235 88.0827 707.84 87.6667 707.541 87.176C707.243 86.664 707.093 86.0453 707.093 85.32C707.093 84.2533 707.296 83.3787 707.701 82.696C708.128 82.0133 708.683 81.48 709.365 81.096C710.048 80.6907 710.816 80.4133 711.669 80.264C712.523 80.0933 713.397 80.008 714.293 80.008C715.189 80.008 716.053 80.0933 716.885 80.264C717.739 80.4347 718.496 80.7227 719.157 81.128C719.819 81.5333 720.363 82.0773 720.789 82.76C721.237 83.4213 721.504 84.264 721.589 85.288H717.269C717.205 84.4133 716.875 83.8267 716.277 83.528C715.68 83.208 714.976 83.048 714.165 83.048C713.909 83.048 713.632 83.0693 713.333 83.112C713.035 83.1333 712.757 83.1973 712.501 83.304C712.267 83.4107 712.064 83.5707 711.893 83.784C711.723 83.976 711.637 84.2427 711.637 84.584C711.637 84.9893 711.787 85.32 712.085 85.576C712.384 85.832 712.768 86.0453 713.237 86.216C713.728 86.3653 714.283 86.504 714.901 86.632C715.52 86.76 716.149 86.8987 716.789 87.048C717.451 87.1973 718.091 87.3787 718.709 87.592C719.349 87.8053 719.915 88.0933 720.405 88.456C720.896 88.7973 721.291 89.2347 721.589 89.768C721.888 90.28 722.037 90.92 722.037 91.688C722.037 92.776 721.813 93.6933 721.365 94.44C720.939 95.1653 720.373 95.752 719.669 96.2C718.965 96.648 718.155 96.9573 717.237 97.128C716.341 97.32 715.424 97.416 714.485 97.416C713.525 97.416 712.587 97.32 711.669 97.128C710.752 96.936 709.931 96.616 709.205 96.168C708.501 95.72 707.915 95.1333 707.445 94.408C706.997 93.6613 706.752 92.7333 706.709 91.624H711.029ZM43.488 119.456H46.816V122.496H43.488V130.688C43.488 131.456 43.616 131.968 43.872 132.224C44.128 132.48 44.64 132.608 45.408 132.608C45.664 132.608 45.9093 132.597 46.144 132.576C46.3787 132.555 46.6027 132.523 46.816 132.48V136C46.432 136.064 46.0053 136.107 45.536 136.128C45.0667 136.149 44.608 136.16 44.16 136.16C43.456 136.16 42.784 136.107 42.144 136C41.5253 135.915 40.9707 135.733 40.48 135.456C40.0107 135.179 39.6373 134.784 39.36 134.272C39.0827 133.76 38.944 133.088 38.944 132.256V122.496H36.192V119.456H38.944V114.496H43.488V119.456ZM53.01 127.744C53.01 128.405 53.074 129.056 53.202 129.696C53.33 130.315 53.5433 130.88 53.842 131.392C54.162 131.883 54.578 132.277 55.09 132.576C55.602 132.875 56.242 133.024 57.01 133.024C57.778 133.024 58.418 132.875 58.93 132.576C59.4633 132.277 59.8793 131.883 60.178 131.392C60.498 130.88 60.722 130.315 60.85 129.696C60.978 129.056 61.042 128.405 61.042 127.744C61.042 127.083 60.978 126.432 60.85 125.792C60.722 125.152 60.498 124.587 60.178 124.096C59.8793 123.605 59.4633 123.211 58.93 122.912C58.418 122.592 57.778 122.432 57.01 122.432C56.242 122.432 55.602 122.592 55.09 122.912C54.578 123.211 54.162 123.605 53.842 124.096C53.5433 124.587 53.33 125.152 53.202 125.792C53.074 126.432 53.01 127.083 53.01 127.744ZM48.466 127.744C48.466 126.421 48.6687 125.227 49.074 124.16C49.4793 123.072 50.0553 122.155 50.802 121.408C51.5487 120.64 52.4447 120.053 53.49 119.648C54.5353 119.221 55.7087 119.008 57.01 119.008C58.3113 119.008 59.4847 119.221 60.53 119.648C61.5967 120.053 62.5033 120.64 63.25 121.408C63.9967 122.155 64.5727 123.072 64.978 124.16C65.3833 125.227 65.586 126.421 65.586 127.744C65.586 129.067 65.3833 130.261 64.978 131.328C64.5727 132.395 63.9967 133.312 63.25 134.08C62.5033 134.827 61.5967 135.403 60.53 135.808C59.4847 136.213 58.3113 136.416 57.01 136.416C55.7087 136.416 54.5353 136.213 53.49 135.808C52.4447 135.403 51.5487 134.827 50.802 134.08C50.0553 133.312 49.4793 132.395 49.074 131.328C48.6687 130.261 48.466 129.067 48.466 127.744ZM82.4068 116.896H77.8628V113.152H82.4068V116.896ZM75.1427 137.92C75.3774 138.005 75.6974 138.048 76.1028 138.048C76.5721 138.048 76.9774 137.952 77.3188 137.76C77.6814 137.589 77.8628 137.195 77.8628 136.576V119.456H82.4068V136.8C82.4068 137.653 82.3108 138.389 82.1188 139.008C81.9481 139.627 81.6388 140.139 81.1908 140.544C80.7641 140.971 80.1774 141.28 79.4308 141.472C78.6841 141.685 77.7348 141.792 76.5828 141.792C76.0494 141.792 75.5694 141.749 75.1427 141.664V137.92ZM90.385 127.744C90.385 128.405 90.449 129.056 90.577 129.696C90.705 130.315 90.9183 130.88 91.217 131.392C91.537 131.883 91.953 132.277 92.465 132.576C92.977 132.875 93.617 133.024 94.385 133.024C95.153 133.024 95.793 132.875 96.305 132.576C96.8383 132.277 97.2543 131.883 97.553 131.392C97.873 130.88 98.097 130.315 98.225 129.696C98.353 129.056 98.417 128.405 98.417 127.744C98.417 127.083 98.353 126.432 98.225 125.792C98.097 125.152 97.873 124.587 97.553 124.096C97.2543 123.605 96.8383 123.211 96.305 122.912C95.793 122.592 95.153 122.432 94.385 122.432C93.617 122.432 92.977 122.592 92.465 122.912C91.953 123.211 91.537 123.605 91.217 124.096C90.9183 124.587 90.705 125.152 90.577 125.792C90.449 126.432 90.385 127.083 90.385 127.744ZM85.841 127.744C85.841 126.421 86.0437 125.227 86.449 124.16C86.8543 123.072 87.4303 122.155 88.177 121.408C88.9237 120.64 89.8197 120.053 90.865 119.648C91.9103 119.221 93.0837 119.008 94.385 119.008C95.6863 119.008 96.8597 119.221 97.905 119.648C98.9717 120.053 99.8783 120.64 100.625 121.408C101.372 122.155 101.948 123.072 102.353 124.16C102.758 125.227 102.961 126.421 102.961 127.744C102.961 129.067 102.758 130.261 102.353 131.328C101.948 132.395 101.372 133.312 100.625 134.08C99.8783 134.827 98.9717 135.403 97.905 135.808C96.8597 136.213 95.6863 136.416 94.385 136.416C93.0837 136.416 91.9103 136.213 90.865 135.808C89.8197 135.403 88.9237 134.827 88.177 134.08C87.4303 133.312 86.8543 132.395 86.449 131.328C86.0437 130.261 85.841 129.067 85.841 127.744ZM110.588 116.896H106.044V113.152H110.588V116.896ZM106.044 119.456H110.588V136H106.044V119.456ZM114.166 119.456H118.486V121.76H118.582C119.158 120.8 119.904 120.107 120.822 119.68C121.739 119.232 122.678 119.008 123.638 119.008C124.854 119.008 125.846 119.179 126.614 119.52C127.403 119.84 128.022 120.299 128.47 120.896C128.918 121.472 129.227 122.187 129.398 123.04C129.59 123.872 129.686 124.8 129.686 125.824V136H125.142V126.656C125.142 125.291 124.928 124.277 124.502 123.616C124.075 122.933 123.318 122.592 122.23 122.592C120.992 122.592 120.096 122.965 119.542 123.712C118.987 124.437 118.71 125.643 118.71 127.328V136H114.166V119.456ZM153.177 125.952C152.963 124.8 152.579 123.925 152.025 123.328C151.491 122.731 150.67 122.432 149.561 122.432C148.835 122.432 148.227 122.56 147.737 122.816C147.267 123.051 146.883 123.349 146.585 123.712C146.307 124.075 146.105 124.459 145.977 124.864C145.87 125.269 145.806 125.632 145.785 125.952H153.177ZM145.785 128.832C145.849 130.304 146.222 131.371 146.905 132.032C147.587 132.693 148.569 133.024 149.849 133.024C150.766 133.024 151.555 132.8 152.217 132.352C152.878 131.883 153.283 131.392 153.433 130.88H157.433C156.793 132.864 155.811 134.283 154.489 135.136C153.166 135.989 151.566 136.416 149.689 136.416C148.387 136.416 147.214 136.213 146.169 135.808C145.123 135.381 144.238 134.784 143.513 134.016C142.787 133.248 142.222 132.331 141.817 131.264C141.433 130.197 141.241 129.024 141.241 127.744C141.241 126.507 141.443 125.355 141.849 124.288C142.254 123.221 142.83 122.304 143.577 121.536C144.323 120.747 145.209 120.128 146.233 119.68C147.278 119.232 148.43 119.008 149.689 119.008C151.097 119.008 152.323 119.285 153.369 119.84C154.414 120.373 155.267 121.099 155.929 122.016C156.611 122.933 157.102 123.979 157.401 125.152C157.699 126.325 157.806 127.552 157.721 128.832H145.785ZM159.424 132.032L171.68 117.376H160.384V113.152H178.368V117.12L166.112 131.776H178.688V136H159.424V132.032ZM195.608 117.376H188.76V113.152H207.48V117.376H200.632V136H195.608V117.376ZM205.88 124.544C205.944 123.477 206.21 122.592 206.68 121.888C207.149 121.184 207.746 120.619 208.472 120.192C209.197 119.765 210.008 119.467 210.904 119.296C211.821 119.104 212.738 119.008 213.656 119.008C214.488 119.008 215.33 119.072 216.184 119.2C217.037 119.307 217.816 119.531 218.52 119.872C219.224 120.213 219.8 120.693 220.248 121.312C220.696 121.909 220.92 122.709 220.92 123.712V132.32C220.92 133.067 220.962 133.781 221.048 134.464C221.133 135.147 221.282 135.659 221.496 136H216.888C216.802 135.744 216.728 135.488 216.664 135.232C216.621 134.955 216.589 134.677 216.568 134.4C215.842 135.147 214.989 135.669 214.008 135.968C213.026 136.267 212.024 136.416 211 136.416C210.21 136.416 209.474 136.32 208.792 136.128C208.109 135.936 207.512 135.637 207 135.232C206.488 134.827 206.082 134.315 205.784 133.696C205.506 133.077 205.368 132.341 205.368 131.488C205.368 130.549 205.528 129.781 205.848 129.184C206.189 128.565 206.616 128.075 207.128 127.712C207.661 127.349 208.258 127.083 208.92 126.912C209.602 126.72 210.285 126.571 210.968 126.464C211.65 126.357 212.322 126.272 212.984 126.208C213.645 126.144 214.232 126.048 214.744 125.92C215.256 125.792 215.661 125.611 215.96 125.376C216.258 125.12 216.397 124.757 216.376 124.288C216.376 123.797 216.29 123.413 216.12 123.136C215.97 122.837 215.757 122.613 215.48 122.464C215.224 122.293 214.914 122.187 214.552 122.144C214.21 122.08 213.837 122.048 213.432 122.048C212.536 122.048 211.832 122.24 211.32 122.624C210.808 123.008 210.509 123.648 210.424 124.544H205.88ZM216.376 127.904C216.184 128.075 215.938 128.213 215.64 128.32C215.362 128.405 215.053 128.48 214.712 128.544C214.392 128.608 214.05 128.661 213.688 128.704C213.325 128.747 212.962 128.8 212.6 128.864C212.258 128.928 211.917 129.013 211.576 129.12C211.256 129.227 210.968 129.376 210.712 129.568C210.477 129.739 210.285 129.963 210.136 130.24C209.986 130.517 209.912 130.869 209.912 131.296C209.912 131.701 209.986 132.043 210.136 132.32C210.285 132.597 210.488 132.821 210.744 132.992C211 133.141 211.298 133.248 211.64 133.312C211.981 133.376 212.333 133.408 212.696 133.408C213.592 133.408 214.285 133.259 214.776 132.96C215.266 132.661 215.629 132.309 215.864 131.904C216.098 131.477 216.237 131.051 216.28 130.624C216.344 130.197 216.376 129.856 216.376 129.6V127.904ZM227.967 130.624C227.967 131.115 228.063 131.541 228.255 131.904C228.468 132.245 228.735 132.533 229.055 132.768C229.375 132.981 229.737 133.141 230.143 133.248C230.569 133.355 231.007 133.408 231.455 133.408C231.775 133.408 232.105 133.376 232.447 133.312C232.809 133.227 233.129 133.109 233.407 132.96C233.705 132.789 233.951 132.576 234.143 132.32C234.335 132.043 234.431 131.701 234.431 131.296C234.431 130.613 233.972 130.101 233.055 129.76C232.159 129.419 230.9 129.077 229.279 128.736C228.617 128.587 227.967 128.416 227.327 128.224C226.708 128.011 226.153 127.744 225.663 127.424C225.172 127.083 224.777 126.667 224.479 126.176C224.18 125.664 224.031 125.045 224.031 124.32C224.031 123.253 224.233 122.379 224.639 121.696C225.065 121.013 225.62 120.48 226.303 120.096C226.985 119.691 227.753 119.413 228.607 119.264C229.46 119.093 230.335 119.008 231.231 119.008C232.127 119.008 232.991 119.093 233.823 119.264C234.676 119.435 235.433 119.723 236.095 120.128C236.756 120.533 237.3 121.077 237.727 121.76C238.175 122.421 238.441 123.264 238.527 124.288H234.207C234.143 123.413 233.812 122.827 233.215 122.528C232.617 122.208 231.913 122.048 231.103 122.048C230.847 122.048 230.569 122.069 230.271 122.112C229.972 122.133 229.695 122.197 229.439 122.304C229.204 122.411 229.001 122.571 228.831 122.784C228.66 122.976 228.575 123.243 228.575 123.584C228.575 123.989 228.724 124.32 229.023 124.576C229.321 124.832 229.705 125.045 230.175 125.216C230.665 125.365 231.22 125.504 231.839 125.632C232.457 125.76 233.087 125.899 233.727 126.048C234.388 126.197 235.028 126.379 235.647 126.592C236.287 126.805 236.852 127.093 237.343 127.456C237.833 127.797 238.228 128.235 238.527 128.768C238.825 129.28 238.975 129.92 238.975 130.688C238.975 131.776 238.751 132.693 238.303 133.44C237.876 134.165 237.311 134.752 236.607 135.2C235.903 135.648 235.092 135.957 234.175 136.128C233.279 136.32 232.361 136.416 231.423 136.416C230.463 136.416 229.524 136.32 228.607 136.128C227.689 135.936 226.868 135.616 226.143 135.168C225.439 134.72 224.852 134.133 224.383 133.408C223.935 132.661 223.689 131.733 223.647 130.624H227.967ZM242.05 113.152H246.594V125.408L252.322 119.456H257.698L251.458 125.536L258.402 136H252.898L248.354 128.608L246.594 130.304V136H242.05V113.152ZM271.145 125.952C270.932 124.8 270.548 123.925 269.993 123.328C269.46 122.731 268.639 122.432 267.529 122.432C266.804 122.432 266.196 122.56 265.705 122.816C265.236 123.051 264.852 123.349 264.553 123.712C264.276 124.075 264.073 124.459 263.945 124.864C263.839 125.269 263.775 125.632 263.753 125.952H271.145ZM263.753 128.832C263.817 130.304 264.191 131.371 264.873 132.032C265.556 132.693 266.537 133.024 267.817 133.024C268.735 133.024 269.524 132.8 270.185 132.352C270.847 131.883 271.252 131.392 271.401 130.88H275.401C274.761 132.864 273.78 134.283 272.457 135.136C271.135 135.989 269.535 136.416 267.657 136.416C266.356 136.416 265.183 136.213 264.137 135.808C263.092 135.381 262.207 134.784 261.481 134.016C260.756 133.248 260.191 132.331 259.785 131.264C259.401 130.197 259.209 129.024 259.209 127.744C259.209 126.507 259.412 125.355 259.817 124.288C260.223 123.221 260.799 122.304 261.545 121.536C262.292 120.747 263.177 120.128 264.201 119.68C265.247 119.232 266.399 119.008 267.657 119.008C269.065 119.008 270.292 119.285 271.337 119.84C272.383 120.373 273.236 121.099 273.897 122.016C274.58 122.933 275.071 123.979 275.369 125.152C275.668 126.325 275.775 127.552 275.689 128.832H263.753ZM278.384 119.456H282.704V122.528H282.768C282.982 122.016 283.27 121.547 283.632 121.12C283.995 120.672 284.411 120.299 284.88 120C285.35 119.68 285.851 119.435 286.384 119.264C286.918 119.093 287.472 119.008 288.048 119.008C288.347 119.008 288.678 119.061 289.04 119.168V123.392C288.827 123.349 288.571 123.317 288.272 123.296C287.974 123.253 287.686 123.232 287.408 123.232C286.576 123.232 285.872 123.371 285.296 123.648C284.72 123.925 284.251 124.309 283.888 124.8C283.547 125.269 283.302 125.824 283.152 126.464C283.003 127.104 282.928 127.797 282.928 128.544V136H278.384V119.456ZM288.076 131.072H293.1V136H288.076V131.072Z" fill="white"/>
<rect x="36" y="159" width="200" height="48" rx="24" fill="white"/>
<path d="M71.2376 188.176C69.3976 188.176 67.8776 187.536 66.7096 186.416L67.6856 185.216C68.6616 186.144 69.8136 186.752 71.3016 186.752C72.8216 186.752 73.6056 185.952 73.6056 185.072C73.6056 184.032 72.6936 183.632 70.8536 183.216C68.6136 182.688 67.1256 182.016 67.1256 180.032C67.1256 178.192 68.7256 176.8 70.9336 176.8C72.6296 176.8 73.8936 177.424 74.9496 178.352L74.0216 179.568C73.0936 178.72 71.9896 178.224 70.8696 178.224C69.6376 178.224 68.7736 179.008 68.7736 179.888C68.7736 180.912 69.7176 181.264 71.5256 181.696C73.7176 182.208 75.2376 182.944 75.2376 184.912C75.2376 186.768 73.8296 188.176 71.2376 188.176ZM81.3834 179.536C83.2074 179.536 84.4874 180.864 84.4874 182.736V188H82.9354V183.008C82.9354 181.776 82.1514 180.912 81.0314 180.912C79.7834 180.912 78.7434 181.792 78.7434 182.864V188H77.1754V176.816H78.7434V180.96C79.2394 180.128 80.2474 179.536 81.3834 179.536ZM90.2256 179.536C92.4496 179.536 93.6816 180.944 93.6816 182.992V188H92.1296V186.864C91.5216 187.728 90.3856 188.192 89.3776 188.192C87.6176 188.192 86.3216 187.168 86.3216 185.552C86.3216 183.904 87.8096 182.8 89.6336 182.8C90.4496 182.8 91.3296 182.976 92.1296 183.248V182.992C92.1296 181.952 91.6496 180.848 90.0016 180.848C89.1856 180.848 88.3856 181.168 87.6656 181.536L87.0896 180.368C88.2736 179.776 89.3136 179.536 90.2256 179.536ZM89.6816 186.944C90.7056 186.944 91.8576 186.432 92.1296 185.408V184.304C91.4576 184.096 90.6896 183.984 89.8736 183.984C88.7696 183.984 87.8416 184.608 87.8416 185.504C87.8416 186.4 88.6416 186.944 89.6816 186.944ZM97.6363 181.312C98.1643 180.224 99.2843 179.536 100.708 179.536V180.912C98.9963 180.912 97.7803 181.856 97.6363 183.296V188H96.0523V179.728H97.6363V181.312ZM106.046 186.784C106.91 186.784 107.918 186.4 108.414 185.888L109.406 186.912C108.67 187.696 107.23 188.192 106.062 188.192C103.758 188.192 101.806 186.384 101.806 183.84C101.806 181.36 103.646 179.536 105.934 179.536C108.462 179.536 109.918 181.456 109.918 184.416H103.406C103.614 185.792 104.622 186.784 106.046 186.784ZM105.998 180.944C104.718 180.944 103.678 181.808 103.422 183.152H108.382C108.206 181.872 107.422 180.944 105.998 180.944ZM118.428 188L115.644 179.728H117.26L119.164 185.888L121.212 179.728H122.556L124.604 185.888L126.492 179.728H128.108L125.324 188H123.868L121.884 181.856L119.884 188H118.428ZM130.491 178.352C129.947 178.352 129.531 177.904 129.531 177.392C129.531 176.896 129.947 176.448 130.491 176.448C131.003 176.448 131.435 176.896 131.435 177.392C131.435 177.904 131.003 178.352 130.491 178.352ZM129.691 188V179.728H131.275V188H129.691ZM137.438 186.512L138.014 187.6C137.566 187.968 136.958 188.192 136.366 188.192C135.086 188.192 134.19 187.264 134.19 185.936V181.072H132.942V179.728H134.19V177.456H135.742V179.728H137.694V181.072H135.742V185.824C135.742 186.4 136.126 186.816 136.59 186.816C136.942 186.816 137.262 186.688 137.438 186.512ZM143.837 179.536C145.661 179.536 146.941 180.864 146.941 182.736V188H145.389V183.008C145.389 181.776 144.605 180.912 143.485 180.912C142.237 180.912 141.197 181.792 141.197 182.864V188H139.629V176.816H141.197V180.96C141.693 180.128 142.701 179.536 143.837 179.536ZM155.961 178.816V179.728H157.913V181.072H155.961V188H154.409V181.072H153.161V179.728H154.409V178.736C154.409 177.408 155.305 176.48 156.585 176.48C157.177 176.48 157.785 176.704 158.233 177.072L157.657 178.128C157.481 177.952 157.161 177.824 156.809 177.824C156.345 177.824 155.961 178.24 155.961 178.816ZM161.214 181.312C161.742 180.224 162.862 179.536 164.286 179.536V180.912C162.574 180.912 161.358 181.856 161.214 183.296V188H159.63V179.728H161.214V181.312ZM166.616 178.352C166.072 178.352 165.656 177.904 165.656 177.392C165.656 176.896 166.072 176.448 166.616 176.448C167.128 176.448 167.56 176.896 167.56 177.392C167.56 177.904 167.128 178.352 166.616 178.352ZM165.816 188V179.728H167.4V188H165.816ZM173.483 186.784C174.347 186.784 175.355 186.4 175.851 185.888L176.843 186.912C176.107 187.696 174.667 188.192 173.499 188.192C171.195 188.192 169.243 186.384 169.243 183.84C169.243 181.36 171.083 179.536 173.371 179.536C175.899 179.536 177.355 181.456 177.355 184.416H170.843C171.051 185.792 172.059 186.784 173.483 186.784ZM173.435 180.944C172.155 180.944 171.115 181.808 170.859 183.152H175.819C175.643 181.872 174.859 180.944 173.435 180.944ZM183.399 179.536C185.223 179.536 186.503 180.864 186.503 182.736V188H184.951V183.008C184.951 181.776 184.167 180.912 183.047 180.912C181.895 180.912 180.903 181.664 180.775 182.64V188H179.191V179.728H180.775V180.928C181.271 180.112 182.279 179.536 183.399 179.536ZM195.137 176.816H196.705V188H195.137V186.56C194.497 187.584 193.473 188.192 192.193 188.192C190.017 188.192 188.385 186.4 188.385 183.856C188.385 181.328 190.017 179.536 192.193 179.536C193.473 179.536 194.497 180.144 195.137 181.152V176.816ZM192.577 186.816C194.065 186.816 195.137 185.584 195.137 183.856C195.137 182.128 194.065 180.912 192.577 180.912C191.057 180.912 189.985 182.128 189.985 183.856C189.985 185.584 191.057 186.816 192.577 186.816ZM202.074 188.192C200.858 188.192 199.53 187.76 198.538 186.96L199.29 185.824C200.17 186.464 201.114 186.832 202.09 186.832C203.018 186.832 203.658 186.4 203.658 185.76C203.658 184.992 202.81 184.752 201.786 184.464C199.882 183.936 198.938 183.392 198.938 182.048C198.922 180.528 200.186 179.536 201.946 179.536C203.018 179.536 204.106 179.904 205.002 180.496L204.298 181.664C203.498 181.168 202.666 180.896 201.946 180.896C201.13 180.896 200.49 181.248 200.49 181.872C200.49 182.512 201.002 182.704 202.394 183.136C203.754 183.536 205.21 183.984 205.21 185.632C205.21 187.2 203.882 188.192 202.074 188.192Z" fill="#212121"/>
<g opacity="0.4">
<g clip-path="url(#clip1_2362_215)">
<path d="M1106.27 85.7539C1112.29 96.2448 1114.72 106.361 1113.3 115.739C1110.63 133.329 1094.72 147.353 1067.3 156.275L1066.72 156.468L877.985 68.2594C864.55 61.9799 847.669 57.2021 831.679 55.1494L675.352 35.1001C644.362 31.1317 613.085 17.6265 604.147 4.37105C601.835 0.944926 601.06 -2.36751 601.872 -5.44284C608.703 -31.4823 646.225 -48.6607 704.809 -52.5682C817.866 -60.1138 978.395 -17.7035 1062.65 41.9586C1083.37 56.629 1098.13 71.5361 1106.28 85.7492L1106.27 85.7539ZM1066.92 153.151C1092.79 144.603 1107.77 131.516 1110.24 115.275C1113.41 94.4222 1095.87 69.2886 1060.86 44.4929C977.092 -14.823 817.457 -56.9775 705.003 -49.4749C647.827 -45.6608 611.33 -29.3194 604.854 -4.64218C604.285 -2.46417 604.901 -0.0133858 606.703 2.65538C615.204 15.2628 645.529 28.1664 675.745 32.0488L832.072 52.0982C848.367 54.1922 865.574 59.0649 879.289 65.4756L1066.92 153.172L1066.92 153.151Z" fill="url(#paint0_linear_2362_215)"/>
<path d="M1112.05 92.1067C1119.23 104.609 1121.83 116.499 1119.51 127.208C1115.4 146.137 1096.61 160.386 1065.13 168.414L1064.55 168.56L876.365 68.7772C862.963 61.6671 845.719 55.9173 829.07 52.9981L666.27 24.461C634.022 18.8106 602.731 3.58148 594.917 -10.6008C592.89 -14.2663 592.496 -17.6888 593.756 -20.7941C604.346 -46.944 646.201 -62.4948 708.597 -63.4577C829.19 -65.3234 993.501 -13.7367 1074.89 51.525C1092.02 65.2735 1104.54 79.0176 1112.05 92.0985L1112.05 92.1067ZM1064.94 165.274C1094.85 157.53 1112.67 144.153 1116.48 126.561C1120.96 105.843 1105.51 80.056 1072.95 53.9455C992.042 -10.9397 828.611 -62.2193 708.64 -60.3641C647.543 -59.421 606.711 -44.5767 596.612 -19.6286C595.72 -17.4279 596.059 -14.8939 597.612 -12.0931C604.989 1.08364 635.366 15.9067 666.798 21.4188L829.598 49.9559C846.557 52.9246 864.128 58.7903 877.807 66.0443L1064.94 165.274Z" fill="url(#paint1_linear_2362_215)"/>
<path d="M1117.16 98.1532C1125.65 112.953 1128.27 126.789 1124.78 139.168C1119.03 159.496 1097.08 173.859 1061.29 180.707L1060.72 180.82L874.612 69.2312C861.355 61.2798 843.867 54.5218 826.615 50.6823L658.073 13.1401C624.893 5.75117 593.757 -11.527 587.186 -26.2054C585.429 -30.1346 585.43 -33.7186 587.184 -36.8691C601.749 -62.9399 647.986 -76.6094 714.036 -74.3745C841.862 -70.0507 1009 -8.90046 1086.62 61.9404C1100.31 74.4313 1110.53 86.5826 1117.17 98.1486L1117.16 98.1532ZM1061.28 177.561C1095.5 170.908 1116.43 157.352 1121.8 138.333C1127.6 117.788 1114.37 91.4817 1084.53 64.2353C1007.37 -6.18241 841.13 -66.9674 713.932 -71.2725C649.075 -73.4664 603.861 -60.373 589.875 -35.3492C588.62 -33.1024 588.659 -30.4502 590.003 -27.465C596.194 -13.6397 626.409 2.92151 658.746 10.1233L827.287 47.6655C844.838 51.572 862.666 58.4703 876.197 66.5784L1061.29 177.556L1061.28 177.561Z" fill="url(#paint2_linear_2362_215)"/>
<path d="M1121 103.473C1131.17 121.196 1133.94 137.494 1128.98 151.58C1121.31 173.356 1095.95 187.691 1055.62 193.046L1055.03 193.122L872.66 69.6039C859.674 60.8041 842.043 53.0027 824.297 48.1903L650.862 1.15699C616.531 -8.15994 586.516 -26.8821 581.054 -42.3814C579.581 -46.5708 580.011 -50.4445 582.287 -53.5912C601.042 -79.3808 651.667 -90.9127 721.192 -85.2258C855.875 -74.2157 1024.75 -3.14926 1097.66 73.1909C1107.62 83.6281 1115.42 93.7686 1120.99 103.478L1121 103.473ZM1055.8 189.898C1094.57 184.654 1118.85 171.053 1126.07 150.552C1133.33 129.919 1122.73 103.908 1095.44 75.3206C1022.98 -0.553255 854.988 -71.195 720.956 -82.1456C652.535 -87.7401 602.909 -76.6737 584.81 -51.7798C583.13 -49.4624 582.85 -46.6489 583.99 -43.4164C589.064 -29.0265 618.797 -10.7592 651.687 -1.83915L825.122 45.1942C843.188 50.0933 861.149 58.0525 874.41 67.03L1055.81 189.893L1055.8 189.898Z" fill="url(#paint3_linear_2362_215)"/>
<path d="M1123.68 107.749C1135.93 129.097 1138.83 148.415 1132 164.46C1122.11 187.709 1093.08 201.847 1048.04 205.352L1047.45 205.398L870.573 69.8709C857.976 60.2201 840.346 51.346 822.196 45.5093L644.813 -11.4607C610.25 -22.5605 580.964 -43.0114 576.707 -59.0719C575.494 -63.638 576.396 -67.728 579.309 -70.9155C602.449 -96.2121 657.453 -105.341 730.201 -95.9603C871.27 -77.7658 1040.71 3.51947 1107.91 85.2268C1114.25 92.9356 1119.51 100.449 1123.69 107.731L1123.68 107.749ZM1048.39 202.219C1091.25 198.772 1119.93 184.945 1129.16 163.243C1137.84 142.857 1129.66 116.572 1105.52 87.2066C1038.74 6.01334 870.197 -74.768 729.801 -92.8834C658.065 -102.141 604.039 -93.3671 581.591 -68.8253C579.394 -66.4277 578.755 -63.4086 579.694 -59.8658C583.634 -45.0196 612.661 -25.0377 645.755 -14.4046L823.146 42.5607C841.621 48.4923 859.593 57.5486 872.459 67.4028L1048.39 202.206L1048.39 202.219Z" fill="url(#paint4_linear_2362_215)"/>
<path d="M1125.12 110.602C1139.97 136.471 1142.96 159.503 1133.71 177.781C1121.4 202.128 1087.55 216.244 1038.42 217.523L1037.82 217.54L868.316 70.0509C856.251 59.5534 838.76 49.5818 820.31 42.6939L640.04 -24.627C605.604 -37.4882 577.309 -59.6449 574.243 -76.1397C573.313 -81.1385 574.738 -85.4857 578.368 -88.7059C606.097 -113.29 665.41 -119.738 741.094 -106.412C887.983 -80.546 1056.69 11.1969 1117.17 98.0938C1120.12 102.333 1122.77 106.505 1125.13 110.61L1125.12 110.602ZM1038.94 214.418C1086.56 213.07 1119.23 199.573 1130.95 176.387C1141.13 156.281 1135.48 129.813 1114.63 99.8549C1054.56 13.5362 886.754 -77.6318 740.561 -103.378C665.804 -116.542 607.435 -110.355 580.419 -86.3963C577.605 -83.9044 576.551 -80.6469 577.281 -76.7136C580.17 -61.1887 607.615 -40.0392 641.12 -27.5199L821.389 39.801C840.17 46.8129 858.005 56.9878 870.344 67.7176L1038.94 214.418Z" fill="url(#paint5_linear_2362_215)"/>
<path d="M1125.28 111.628L1125.31 111.677C1143.35 143.13 1146.33 170.755 1133.96 191.552C1118.66 217.257 1080.56 230.716 1026.67 229.449L1026.06 229.434L865.903 70.0925C854.514 58.7529 837.3 47.68 818.686 39.6952L636.717 -38.3433C602.211 -53.1356 575.77 -76.3661 573.832 -93.5735C573.213 -99.0865 575.24 -103.704 579.686 -106.937C612.169 -130.557 675.702 -134.067 754.011 -116.563C906.043 -82.5832 1072.59 19.7795 1125.29 111.631L1125.28 111.628ZM1027.36 226.36C1079.75 227.49 1116.65 214.574 1131.3 189.963C1143.07 170.181 1140.08 143.641 1122.62 113.206L1122.6 113.158C1070.26 21.9572 904.633 -79.7385 753.321 -113.558C675.881 -130.868 613.259 -127.545 581.495 -104.445C577.949 -101.87 576.407 -98.3316 576.899 -93.9261C578.683 -78.0056 604.928 -55.3443 637.929 -41.1934L819.898 36.8451C838.857 44.9784 856.417 56.2964 868.074 67.8941L1027.35 226.365L1027.36 226.36Z" fill="url(#paint6_linear_2362_215)"/>
<path d="M1124.04 110.239C1127.08 115.534 1129.78 120.78 1132.15 125.995C1146.59 157.822 1146.72 185.41 1132.54 205.784C1113.78 232.71 1071.22 245.226 1012.68 241.029L1012.05 240.981L863.342 70.0249C852.772 57.8684 836.012 45.6801 817.364 36.5783L634.984 -52.4959C601.33 -68.9355 576.362 -93.6177 575.614 -111.205C575.352 -117.302 578.053 -122.219 583.433 -125.447C620.823 -147.855 688.449 -148.137 768.978 -126.234C917 -85.9797 1070.81 17.4752 1124.05 110.243L1124.04 110.239ZM1013.53 237.985C1070.6 241.972 1111.95 229.916 1129.99 204.008C1143.52 184.584 1143.29 158.049 1129.33 127.267C1085.89 31.5011 923.856 -80.9171 768.147 -123.267C688.425 -144.952 621.676 -144.782 585.002 -122.807C580.593 -120.168 578.476 -116.312 578.68 -111.351C579.377 -95.0989 604.152 -70.9988 636.325 -55.2903L818.705 33.7839C837.717 43.0667 854.821 55.534 865.656 67.9823L1013.53 237.977L1013.53 237.985Z" fill="url(#paint7_linear_2362_215)"/>
<path d="M1121.56 106.116C1128.35 117.943 1133.73 129.594 1137.53 140.964C1148.29 173.087 1145.42 200.57 1129.24 220.453C1106.52 248.362 1059.34 259.608 996.376 252.107L995.715 252.031L860.619 69.7898C851.026 56.8454 834.892 43.54 816.355 33.2919L634.985 -67.0592C602.002 -85.3124 579.269 -110.758 579.697 -128.976C579.856 -135.737 583.34 -140.985 589.771 -144.155C632.198 -165.069 703.746 -161.874 786.063 -135.367C928.05 -89.6465 1068.18 13.0911 1121.56 106.108L1121.56 106.116ZM997.412 249.119C1058.96 256.332 1104.9 245.46 1126.84 218.504C1142.32 199.49 1145 173.015 1134.6 141.944C1101.11 41.923 944.333 -81.1578 785.113 -132.418C703.555 -158.679 632.853 -161.947 591.133 -141.385C585.725 -138.715 582.925 -134.521 582.788 -128.909C582.386 -112.081 604.964 -87.2071 636.483 -69.77L817.857 30.5892C836.769 41.0557 853.266 54.6725 863.105 67.952L997.412 249.119Z" fill="url(#paint8_linear_2362_215)"/>
<path d="M1117.87 98.6761C1129.26 118.534 1137.28 138.005 1141.28 156.549C1148.27 188.931 1142.22 216.263 1123.8 235.593C1096.59 264.143 1044.7 273.729 977.699 262.596L977.007 262.485L857.78 69.4269C849.326 55.7315 833.996 41.3367 815.731 29.9035L636.889 -81.9125C605.435 -101.574 584.619 -128.228 586.25 -146.725C586.917 -154.243 591.295 -159.841 598.901 -162.906C646.469 -182.049 721.713 -175.075 805.339 -143.775C939.173 -93.6793 1064.94 6.44135 1117.87 98.6843L1117.87 98.6761ZM978.893 259.659C1044.52 270.441 1095.16 261.142 1121.55 233.458C1139.24 214.906 1145.02 188.532 1138.25 157.202C1115.85 53.3859 966.019 -80.328 804.252 -140.878C721.339 -171.915 646.915 -178.894 600.05 -160.036C593.496 -157.401 589.884 -152.827 589.32 -146.451C587.811 -129.345 608.496 -103.298 638.518 -84.5257L817.361 27.2903C836.017 38.9534 851.701 53.7191 860.4 67.8043L978.89 259.672L978.893 259.659Z" fill="url(#paint9_linear_2362_215)"/>
<path d="M1113.12 87.3385C1130.09 116.921 1140.68 145.916 1143.22 172.65C1146.33 205.309 1136.86 232.458 1115.87 251.162C1083.64 279.866 1027.07 287.38 956.576 272.335L955.847 272.179L854.825 68.8813C847.676 54.4799 833.34 39.006 815.509 26.4037L640.844 -96.9803C611.22 -117.908 592.531 -145.609 595.385 -164.353C596.662 -172.73 602.059 -178.685 611.008 -181.58C663.789 -198.657 742.461 -187.652 826.847 -151.386C950.443 -98.2633 1061.43 -2.75065 1113.13 87.3501L1113.12 87.3385ZM957.938 269.464C1027.11 284.101 1082.45 276.783 1113.81 248.849C1134.04 230.828 1143.15 204.578 1140.14 172.936C1129.96 65.8399 988.862 -78.3867 825.605 -148.551C741.904 -184.528 664.025 -195.491 611.942 -178.651C604.07 -176.104 599.521 -171.145 598.427 -163.901C595.745 -146.273 613.913 -119.8 642.613 -99.5216L817.282 23.8706C835.512 36.7529 850.205 52.6606 857.58 67.4949L957.941 269.451L957.938 269.464Z" fill="url(#paint10_linear_2362_215)"/>
<path d="M1107.61 71.7449C1131.22 112.886 1144.2 153.378 1143.16 189.207C1142.2 222.216 1129.03 249.166 1105.05 267.128C1067.35 295.368 1006.22 300.363 932.935 281.191L932.157 280.988L851.722 68.1717C846.034 53.1271 832.9 36.5957 815.695 22.8217L646.961 -112.172C618.999 -134.541 603.005 -162.489 607.173 -181.717C609.196 -191.041 615.774 -197.371 626.197 -200.018C684.242 -214.714 766.017 -199.415 850.554 -158.038C961.959 -103.517 1058.12 -14.4904 1107.61 71.7449ZM934.49 278.393C1006.51 297.091 1066.39 292.221 1103.19 264.652C1126.39 247.269 1139.15 221.155 1140.07 189.119C1143.25 79.2751 1012.77 -75.2023 849.195 -155.255C765.299 -196.307 684.295 -211.528 626.959 -197.011C617.75 -194.683 611.954 -189.159 610.202 -181.062C606.277 -162.959 621.826 -136.239 648.901 -114.584L817.635 20.4094C835.266 34.5123 848.744 51.5288 854.625 67.0797L934.495 278.401L934.49 278.393Z" fill="url(#paint11_linear_2362_215)"/>
<path d="M1101.93 51.8246C1133.16 106.242 1148.16 160.449 1140.95 206.096C1135.67 239.573 1118.36 266.297 1090.9 283.365C1047.39 310.411 982.004 312.421 906.788 289.005L905.97 288.75L848.566 67.2759C844.518 51.6366 832.782 34.108 816.386 19.1771L655.428 -127.36C629.428 -151.028 616.22 -179.026 621.777 -198.683C624.719 -209.065 632.634 -215.762 644.681 -218.051C707.975 -230.053 792.488 -210.209 876.533 -163.613C974.156 -109.488 1055.77 -28.6243 1101.93 51.8164L1101.93 51.8246ZM908.531 286.306C982.537 309.18 1046.7 307.216 1089.28 280.737C1115.95 264.151 1132.76 238.179 1137.91 205.615C1155.58 93.6694 1037.65 -70.7405 875.035 -160.902C791.607 -207.159 707.85 -226.875 645.26 -215.005C634.44 -212.955 627.356 -207.017 624.753 -197.836C619.591 -179.586 632.761 -152.182 657.513 -129.65L818.472 16.8868C835.306 32.2048 847.365 50.2955 851.563 66.4983L908.531 286.306Z" fill="url(#paint12_linear_2362_215)"/>
<path d="M1096.91 28.0592C1136.55 97.1375 1152.81 167.397 1136.43 223.225C1126.43 257.295 1104.48 283.739 1072.95 299.699C1023.48 324.739 954.279 323.295 878.101 295.636L877.224 295.316L845.327 66.1787C843.075 50.0283 832.967 31.5439 817.574 15.4743L666.354 -142.432C642.951 -166.876 632.313 -195.396 639.243 -215.094C643.243 -226.462 652.945 -233.707 666.56 -235.489C735.062 -244.471 821.881 -219.854 904.742 -167.944C987.516 -116.093 1055.17 -44.6717 1096.9 28.0638L1096.91 28.0592ZM880.034 293.043C955.055 320.1 1023.04 321.483 1071.55 296.94C1102.29 281.379 1123.71 255.588 1133.46 222.352C1166.72 109.002 1063.39 -64.906 903.104 -165.327C820.837 -216.862 734.772 -241.316 666.963 -232.429C654.379 -230.773 645.804 -224.434 642.158 -214.07C635.612 -195.459 645.981 -168.181 668.578 -144.575L819.799 13.3318C835.63 29.8642 846.052 48.97 848.386 65.755L880.034 293.043Z" fill="url(#paint13_linear_2362_215)"/>
<path d="M1093.63 1.42646C1142.18 86.0374 1158.29 174.562 1129.4 240.467C1089.85 330.7 976.315 354.998 846.889 300.922L845.962 300.534L842.057 64.894C841.782 48.3021 833.495 28.935 819.317 11.7567L679.878 -157.262C658.915 -182.662 651.176 -210.865 659.68 -230.838C665.033 -243.415 676.508 -250.985 691.992 -252.172C765.62 -257.805 854.257 -228.189 935.162 -170.914C1002.66 -123.129 1057.25 -61.9457 1093.62 1.43926L1093.63 1.42646ZM849.015 298.457C976.382 351.322 1087.84 327.584 1126.57 239.22C1150.56 184.483 1143.63 111.761 1107.07 34.4634C1070.43 -43.0231 1008.73 -115.06 933.38 -168.397C853.045 -225.264 765.152 -254.678 692.227 -249.102C677.74 -247.989 667.47 -241.263 662.526 -229.634C654.6 -211.011 662.348 -183.376 682.263 -159.237L821.703 9.78156C836.319 27.4984 844.865 47.5616 845.149 64.8302L849.018 298.444L849.015 298.457Z" fill="url(#paint14_linear_2362_215)"/>
<path d="M1093.22 -26.7385C1150.81 73.6251 1164.56 182.35 1119.73 257.696C1066.2 347.671 943.001 366.567 813.171 304.711L812.177 304.243L838.749 63.4137C840.617 46.4802 834.378 26.3057 821.628 8.04853L696.11 -171.709C678.071 -197.542 673.094 -225.932 683.133 -245.779C690.13 -259.603 703.587 -267.455 721.048 -267.893C799.671 -269.841 889.582 -235.024 967.734 -172.378C1020.3 -130.24 1062.85 -79.6442 1093.21 -26.7338L1093.22 -26.7385ZM815.499 302.39C943.437 362.95 1064.53 344.414 1117.08 256.111C1149.6 201.448 1151.75 126.852 1123.13 46.0567C1094.45 -34.928 1038.58 -111.635 965.815 -169.967C888.224 -232.165 799.038 -266.738 721.137 -264.815C704.868 -264.411 692.365 -257.161 685.904 -244.402C676.38 -225.566 681.269 -198.402 698.658 -173.496L824.176 6.2618C837.347 25.1215 843.782 46.0714 841.834 63.7331L815.499 302.39Z" fill="url(#paint15_linear_2362_215)"/>
<path d="M1096.12 -55.8086C1116.96 -19.4897 1132.43 18.9296 1141.61 57.9951C1161.58 142.874 1149.38 219.861 1107.26 274.75C1038.97 363.75 906.242 376.639 776.998 306.824L775.947 306.258L835.433 61.711C839.618 44.531 835.538 23.7236 824.55 4.34744L715.153 -185.657L715.073 -185.795C700.103 -211.884 698.039 -240.236 709.703 -259.834C718.669 -274.908 734.344 -282.95 753.832 -282.461C837.262 -280.39 927.864 -240.198 1002.4 -172.196C1040.03 -137.859 1071.75 -98.277 1096.12 -55.8167L1096.12 -55.8086ZM779.525 304.681C907.053 373.11 1037.67 360.384 1104.81 272.871C1146.36 218.726 1158.36 142.663 1138.61 58.7017C1118.81 -25.4218 1069.7 -106.606 1000.32 -169.911C926.333 -237.414 836.463 -277.311 753.765 -279.369C735.445 -279.824 720.74 -272.317 712.368 -258.246C701.281 -239.605 703.352 -212.449 717.766 -187.329L717.845 -187.191L827.242 2.81319L827.322 2.95167C838.749 22.8664 842.807 44.5415 838.454 62.4463L779.525 304.681Z" fill="url(#paint16_linear_2362_215)"/>
<path d="M1104.41 -82.9328C1132.35 -34.2335 1150.27 18.6295 1156.41 72.0588C1166.48 159.735 1143.56 237.677 1091.87 291.517C1008.1 378.78 866.072 385.051 738.459 307.134L737.36 306.465L832.171 59.8368C838.83 42.5149 837.363 20.9772 828.134 0.742851L737.131 -198.885C724.961 -225.585 725.841 -253.222 739.489 -272.834C750.639 -288.857 769.197 -297.157 790.42 -295.606C878.416 -289.183 969.045 -243.473 1039.06 -170.194C1064.63 -143.43 1086.56 -114.031 1104.41 -82.9328ZM741.172 305.165C867.228 381.595 1007.14 375.314 1089.65 289.381C1140.69 236.218 1163.31 159.164 1153.34 72.4195C1143.36 -14.4671 1101.98 -99.8679 1036.82 -168.055C967.331 -240.78 877.438 -286.152 790.198 -292.523C769.798 -294.015 752.69 -286.396 742.03 -271.065C729.012 -252.356 728.239 -225.853 739.948 -200.166L830.95 -0.537671C840.512 20.4473 842.012 42.8539 835.054 60.9544L741.172 305.165Z" fill="url(#paint17_linear_2362_215)"/>
<path d="M1117.69 -108.299C1152.44 -47.7486 1170.8 19.7445 1170.23 87.1877C1169.48 177.201 1135.09 255.553 1073.42 307.82C973.482 392.515 822.469 391.557 697.629 305.454L696.495 304.666L828.943 57.7589C838.258 40.4066 839.508 18.3386 832.39 -2.78244L762.097 -211.284C753.063 -238.083 756.985 -265.55 772.593 -284.748C786.436 -301.776 807.669 -309.943 830.835 -307.158C923.108 -296.054 1013.05 -244.698 1077.59 -166.262C1092.71 -147.885 1106.11 -128.482 1117.69 -108.307L1117.69 -108.299ZM700.523 303.686C823.977 388.223 972.863 388.983 1071.42 305.457C1132.4 253.785 1166.39 176.255 1167.14 87.163C1167.9 -2.03066 1135.25 -91.3271 1075.2 -164.3C1011.16 -242.133 921.958 -293.077 830.472 -304.092C808.378 -306.745 788.165 -298.989 774.997 -282.804C760.061 -264.435 756.333 -238.065 765.03 -212.285L835.324 -3.78361C842.719 18.1418 841.386 41.1021 831.681 59.2087L700.523 303.686Z" fill="url(#paint18_linear_2362_215)"/>
<path d="M1136.11 -131.428C1177.34 -59.58 1193.89 22.5926 1182.88 103.347C1170.36 195.168 1123.81 273.351 1051.79 323.489C935.092 404.746 775.495 395.96 654.646 301.623L653.488 300.718L654.336 299.516L825.793 55.4955C837.916 38.243 842.129 15.7737 837.35 -6.15878L790.129 -222.66C784.266 -249.557 791.387 -276.77 809.19 -295.463C826.111 -313.239 850.142 -321.041 875.109 -316.853C971.286 -300.757 1059.77 -243.672 1117.86 -160.248C1124.4 -150.855 1130.49 -141.239 1136.12 -131.432L1136.11 -131.428ZM657.712 300.08C777.337 392.737 934.815 401.169 1050.02 320.953C1121.32 271.314 1167.41 193.881 1179.81 102.922C1192.22 11.911 1169.31 -80.9347 1115.31 -158.482C1057.7 -241.227 969.955 -297.85 874.593 -313.807C850.651 -317.814 827.627 -310.352 811.42 -293.332C794.327 -275.382 787.495 -249.212 793.141 -223.316L840.362 -6.81534C845.328 15.9519 840.934 39.315 828.318 57.2731L657.712 300.08Z" fill="url(#paint19_linear_2362_215)"/>
<path d="M1159.68 -152.025C1207.12 -69.3526 1219.37 27.4283 1194.17 120.481C1168.97 213.546 1109.56 290.923 1026.89 338.362C892.888 415.256 725.218 398.024 609.657 295.488L608.505 294.46L822.732 53.0294C837.83 36.0184 845.228 13.2696 843.016 -9.37797L821.258 -232.846C818.587 -260.275 828.867 -286.529 849.457 -304.895C869.807 -323.036 896.677 -330.172 923.198 -324.483C1022.88 -303.077 1109.07 -240.22 1159.68 -152.025ZM612.869 294.197C727.393 394.946 892.955 411.656 1025.35 335.682C1107.31 288.654 1166.2 211.942 1191.19 119.68C1216.17 27.4224 1204.04 -68.5236 1157.01 -150.479C1106.83 -237.917 1021.38 -300.236 922.556 -321.451C897.018 -326.935 871.126 -320.057 851.525 -302.573C831.68 -284.874 821.765 -259.566 824.342 -233.132L846.1 -9.66425C848.386 13.8288 840.713 37.4389 825.042 55.0927L612.869 294.197Z" fill="url(#paint20_linear_2362_215)"/>
</g>
</g>
</g>
<defs>
<linearGradient id="paint0_linear_2362_215" x1="820.956" y1="296.464" x2="645.934" y2="-76.0346" gradientUnits="userSpaceOnUse">
<stop stop-color="white"/>
<stop offset="1" stop-color="white" stop-opacity="0.44"/>
</linearGradient>
<linearGradient id="paint1_linear_2362_215" x1="826.455" y1="306.549" x2="641.619" y2="-92.0104" gradientUnits="userSpaceOnUse">
<stop stop-color="white"/>
<stop offset="1" stop-color="white" stop-opacity="0.44"/>
</linearGradient>
<linearGradient id="paint2_linear_2362_215" x1="833.076" y1="316.047" x2="638.786" y2="-108.923" gradientUnits="userSpaceOnUse">
<stop stop-color="white"/>
<stop offset="1" stop-color="white" stop-opacity="0.44"/>
</linearGradient>
<linearGradient id="paint3_linear_2362_215" x1="840.76" y1="324.833" x2="637.576" y2="-126.684" gradientUnits="userSpaceOnUse">
<stop stop-color="white"/>
<stop offset="1" stop-color="white" stop-opacity="0.44"/>
</linearGradient>
<linearGradient id="paint4_linear_2362_215" x1="849.609" y1="332.763" x2="638.237" y2="-145.249" gradientUnits="userSpaceOnUse">
<stop stop-color="white"/>
<stop offset="1" stop-color="white" stop-opacity="0.44"/>
</linearGradient>
<linearGradient id="paint5_linear_2362_215" x1="859.484" y1="339.547" x2="640.879" y2="-164.457" gradientUnits="userSpaceOnUse">
<stop stop-color="white"/>
<stop offset="1" stop-color="white" stop-opacity="0.44"/>
</linearGradient>
<linearGradient id="paint6_linear_2362_215" x1="870.573" y1="345.396" x2="645.715" y2="-184.293" gradientUnits="userSpaceOnUse">
<stop stop-color="white"/>
<stop offset="1" stop-color="white" stop-opacity="0.44"/>
</linearGradient>
<linearGradient id="paint7_linear_2362_215" x1="882.854" y1="349.999" x2="652.983" y2="-204.618" gradientUnits="userSpaceOnUse">
<stop stop-color="white"/>
<stop offset="1" stop-color="white" stop-opacity="0.44"/>
</linearGradient>
<linearGradient id="paint8_linear_2362_215" x1="896.18" y1="353.296" x2="662.679" y2="-225.113" gradientUnits="userSpaceOnUse">
<stop stop-color="white"/>
<stop offset="1" stop-color="white" stop-opacity="0.44"/>
</linearGradient>
<linearGradient id="paint9_linear_2362_215" x1="910.719" y1="355.117" x2="675.213" y2="-245.348" gradientUnits="userSpaceOnUse">
<stop stop-color="white"/>
<stop offset="1" stop-color="white" stop-opacity="0.44"/>
</linearGradient>
<linearGradient id="paint10_linear_2362_215" x1="926.343" y1="355.392" x2="690.465" y2="-265.026" gradientUnits="userSpaceOnUse">
<stop stop-color="white"/>
<stop offset="1" stop-color="white" stop-opacity="0.44"/>
</linearGradient>
<linearGradient id="paint11_linear_2362_215" x1="942.863" y1="354.15" x2="708.118" y2="-283.792" gradientUnits="userSpaceOnUse">
<stop stop-color="white"/>
<stop offset="1" stop-color="white" stop-opacity="0.44"/>
</linearGradient>
<linearGradient id="paint12_linear_2362_215" x1="960.401" y1="351.25" x2="728.131" y2="-301.442" gradientUnits="userSpaceOnUse">
<stop stop-color="white"/>
<stop offset="1" stop-color="white" stop-opacity="0.44"/>
</linearGradient>
<linearGradient id="paint13_linear_2362_215" x1="954.933" y1="360.432" x2="713.603" y2="-301.843" gradientUnits="userSpaceOnUse">
<stop stop-color="white"/>
<stop offset="1" stop-color="white" stop-opacity="0.44"/>
</linearGradient>
<linearGradient id="paint14_linear_2362_215" x1="935.122" y1="376.889" x2="679.045" y2="-290.6" gradientUnits="userSpaceOnUse">
<stop stop-color="white"/>
<stop offset="1" stop-color="white" stop-opacity="0.44"/>
</linearGradient>
<linearGradient id="paint15_linear_2362_215" x1="913.886" y1="392.73" x2="644.979" y2="-276.169" gradientUnits="userSpaceOnUse">
<stop stop-color="white"/>
<stop offset="1" stop-color="white" stop-opacity="0.44"/>
</linearGradient>
<linearGradient id="paint16_linear_2362_215" x1="891.462" y1="408.066" x2="611.977" y2="-258.643" gradientUnits="userSpaceOnUse">
<stop stop-color="white"/>
<stop offset="1" stop-color="white" stop-opacity="0.44"/>
</linearGradient>
<linearGradient id="paint17_linear_2362_215" x1="868.047" y1="422.924" x2="580.452" y2="-237.897" gradientUnits="userSpaceOnUse">
<stop stop-color="white"/>
<stop offset="1" stop-color="white" stop-opacity="0.44"/>
</linearGradient>
<linearGradient id="paint18_linear_2362_215" x1="843.791" y1="437.317" x2="550.672" y2="-214.256" gradientUnits="userSpaceOnUse">
<stop stop-color="white"/>
<stop offset="1" stop-color="white" stop-opacity="0.44"/>
</linearGradient>
<linearGradient id="paint19_linear_2362_215" x1="818.932" y1="451.343" x2="522.946" y2="-187.659" gradientUnits="userSpaceOnUse">
<stop stop-color="white"/>
<stop offset="1" stop-color="white" stop-opacity="0.44"/>
</linearGradient>
<linearGradient id="paint20_linear_2362_215" x1="793.773" y1="465.163" x2="497.506" y2="-158.22" gradientUnits="userSpaceOnUse">
<stop stop-color="white"/>
<stop offset="1" stop-color="white" stop-opacity="0.44"/>
</linearGradient>
<clipPath id="clip0_2362_215">
<rect width="981" height="240" rx="20" fill="white"/>
</clipPath>
<clipPath id="clip1_2362_215">
<rect width="685.18" height="700.281" fill="white" transform="translate(731.576 508.936) rotate(-119.848)"/>
</clipPath>
</defs>
</svg>
