<svg width="981" height="240" viewBox="0 0 981 240" fill="none" xmlns="http://www.w3.org/2000/svg">
<g clip-path="url(#clip0_2362_202)">
<rect width="981" height="240" rx="20" fill="#BBFC4A"/>
<path d="M40.626 82L36.558 69.634H38.574L41.616 79.066L44.712 69.634H46.728L49.824 79.066L52.866 69.634H54.882L50.814 82H48.996L45.738 72.154L42.444 82H40.626ZM60.0366 80.632C61.0086 80.632 62.1426 80.2 62.7006 79.624L63.8166 80.776C62.9886 81.658 61.3686 82.216 60.0546 82.216C57.4626 82.216 55.2666 80.182 55.2666 77.32C55.2666 74.53 57.3366 72.478 59.9106 72.478C62.7546 72.478 64.3926 74.638 64.3926 77.968H57.0666C57.3006 79.516 58.4346 80.632 60.0366 80.632ZM59.9826 74.062C58.5426 74.062 57.3726 75.034 57.0846 76.546H62.6646C62.4666 75.106 61.5846 74.062 59.9826 74.062ZM66.4581 82V69.418H68.2221V82H66.4581ZM75.2095 82.216C72.5635 82.216 70.3135 79.984 70.3135 77.338C70.3135 74.692 72.5635 72.478 75.2275 72.478C76.5595 72.478 77.7655 73.036 78.6475 73.918L77.4415 75.034C76.8835 74.404 76.0735 74.026 75.2095 74.026C73.5175 74.026 72.1135 75.538 72.1135 77.338C72.1135 79.156 73.5175 80.668 75.2275 80.668C76.0915 80.668 76.9195 80.272 77.4955 79.624L78.7015 80.722C77.8015 81.64 76.5955 82.216 75.2095 82.216ZM84.8251 82.216C82.1611 82.216 79.9111 79.984 79.9111 77.338C79.9111 74.692 82.1611 72.478 84.8251 72.478C87.4711 72.478 89.7031 74.692 89.7031 77.338C89.7031 79.984 87.4711 82.216 84.8251 82.216ZM84.8251 80.668C86.4991 80.668 87.9211 79.156 87.9211 77.338C87.9211 75.538 86.4991 74.026 84.8251 74.026C83.1151 74.026 81.6931 75.538 81.6931 77.338C81.6931 79.156 83.1151 80.668 84.8251 80.668ZM102.192 72.478C104.136 72.478 105.54 73.972 105.54 76.078V82H103.794V76.348C103.794 74.98 102.984 74.026 101.814 74.026C100.482 74.026 99.5462 74.908 99.5462 76.186V82H97.8002V76.348C97.8002 74.98 96.9902 74.026 95.8202 74.026C94.4882 74.026 93.5522 74.908 93.5522 76.186V82H91.7702V72.694H93.5522V73.99C94.0202 73.072 94.9922 72.478 96.1802 72.478C97.5302 72.478 98.6282 73.198 99.1682 74.35C99.6002 73.198 100.788 72.478 102.192 72.478ZM112.367 80.632C113.339 80.632 114.473 80.2 115.031 79.624L116.147 80.776C115.319 81.658 113.699 82.216 112.385 82.216C109.793 82.216 107.597 80.182 107.597 77.32C107.597 74.53 109.667 72.478 112.241 72.478C115.085 72.478 116.723 74.638 116.723 77.968H109.397C109.631 79.516 110.765 80.632 112.367 80.632ZM112.313 74.062C110.873 74.062 109.703 75.034 109.415 76.546H114.995C114.797 75.106 113.915 74.062 112.313 74.062ZM128.295 80.326L128.943 81.55C128.439 81.964 127.755 82.216 127.089 82.216C125.649 82.216 124.641 81.172 124.641 79.678V74.206H123.237V72.694H124.641V70.138H126.387V72.694H128.583V74.206H126.387V79.552C126.387 80.2 126.819 80.668 127.341 80.668C127.737 80.668 128.097 80.524 128.295 80.326ZM135.169 82.216C132.505 82.216 130.255 79.984 130.255 77.338C130.255 74.692 132.505 72.478 135.169 72.478C137.815 72.478 140.047 74.692 140.047 77.338C140.047 79.984 137.815 82.216 135.169 82.216ZM135.169 80.668C136.843 80.668 138.265 79.156 138.265 77.338C138.265 75.538 136.843 74.026 135.169 74.026C133.459 74.026 132.037 75.538 132.037 77.338C132.037 79.156 133.459 80.668 135.169 80.668ZM151.548 80.632C152.52 80.632 153.654 80.2 154.212 79.624L155.328 80.776C154.5 81.658 152.88 82.216 151.566 82.216C148.974 82.216 146.778 80.182 146.778 77.32C146.778 74.53 148.848 72.478 151.422 72.478C154.266 72.478 155.904 74.638 155.904 77.968H148.578C148.812 79.516 149.946 80.632 151.548 80.632ZM151.494 74.062C150.054 74.062 148.884 75.034 148.596 76.546H154.176C153.978 75.106 153.096 74.062 151.494 74.062ZM157.664 82L157.646 80.578L164.792 71.326H157.79V69.634H167.294V71.056L160.148 80.308H167.366V82H157.664ZM178.249 82V71.326H174.199V69.634H184.135V71.326H180.067V82H178.249ZM190.054 72.478C192.556 72.478 193.942 74.062 193.942 76.366V82H192.196V80.722C191.512 81.694 190.234 82.216 189.1 82.216C187.12 82.216 185.662 81.064 185.662 79.246C185.662 77.392 187.336 76.15 189.388 76.15C190.306 76.15 191.296 76.348 192.196 76.654V76.366C192.196 75.196 191.656 73.954 189.802 73.954C188.884 73.954 187.984 74.314 187.174 74.728L186.526 73.414C187.858 72.748 189.028 72.478 190.054 72.478ZM189.442 80.812C190.594 80.812 191.89 80.236 192.196 79.084V77.842C191.44 77.608 190.576 77.482 189.658 77.482C188.416 77.482 187.372 78.184 187.372 79.192C187.372 80.2 188.272 80.812 189.442 80.812ZM199.885 82.216C198.517 82.216 197.023 81.73 195.907 80.83L196.753 79.552C197.743 80.272 198.805 80.686 199.903 80.686C200.947 80.686 201.667 80.2 201.667 79.48C201.667 78.616 200.713 78.346 199.561 78.022C197.419 77.428 196.357 76.816 196.357 75.304C196.339 73.594 197.761 72.478 199.741 72.478C200.947 72.478 202.171 72.892 203.179 73.558L202.387 74.872C201.487 74.314 200.551 74.008 199.741 74.008C198.823 74.008 198.103 74.404 198.103 75.106C198.103 75.826 198.679 76.042 200.245 76.528C201.775 76.978 203.413 77.482 203.413 79.336C203.413 81.1 201.919 82.216 199.885 82.216ZM213.944 72.694L209.93 76.906L213.764 82H211.64L208.724 78.094L207.23 79.606V82H205.466V69.418H207.23V77.446L211.784 72.694H213.944ZM219.681 80.632C220.653 80.632 221.787 80.2 222.345 79.624L223.461 80.776C222.633 81.658 221.013 82.216 219.699 82.216C217.107 82.216 214.911 80.182 214.911 77.32C214.911 74.53 216.981 72.478 219.555 72.478C222.399 72.478 224.037 74.638 224.037 77.968H216.711C216.945 79.516 218.079 80.632 219.681 80.632ZM219.627 74.062C218.187 74.062 217.017 75.034 216.729 76.546H222.309C222.111 75.106 221.229 74.062 219.627 74.062ZM227.975 74.476C228.569 73.252 229.829 72.478 231.431 72.478V74.026C229.505 74.026 228.137 75.088 227.975 76.708V82H226.193V72.694H227.975V74.476Z" fill="#212121"/>
<path d="M59.968 126H54.976L51.104 110.448H51.04L47.232 126H42.144L36.096 103.152H41.12L44.736 118.704H44.8L48.768 103.152H53.472L57.376 118.896H57.44L61.184 103.152H66.112L59.968 126ZM77.2703 115.952C77.0569 114.8 76.6729 113.925 76.1183 113.328C75.5849 112.731 74.7636 112.432 73.6543 112.432C72.9289 112.432 72.3209 112.56 71.8303 112.816C71.3609 113.051 70.9769 113.349 70.6783 113.712C70.4009 114.075 70.1983 114.459 70.0703 114.864C69.9636 115.269 69.8996 115.632 69.8783 115.952H77.2703ZM69.8783 118.832C69.9423 120.304 70.3156 121.371 70.9983 122.032C71.6809 122.693 72.6623 123.024 73.9423 123.024C74.8596 123.024 75.6489 122.8 76.3103 122.352C76.9716 121.883 77.3769 121.392 77.5263 120.88H81.5263C80.8863 122.864 79.9049 124.283 78.5823 125.136C77.2596 125.989 75.6596 126.416 73.7823 126.416C72.4809 126.416 71.3076 126.213 70.2623 125.808C69.2169 125.381 68.3316 124.784 67.6063 124.016C66.8809 123.248 66.3156 122.331 65.9103 121.264C65.5263 120.197 65.3343 119.024 65.3343 117.744C65.3343 116.507 65.5369 115.355 65.9423 114.288C66.3476 113.221 66.9236 112.304 67.6703 111.536C68.4169 110.747 69.3023 110.128 70.3263 109.68C71.3716 109.232 72.5236 109.008 73.7823 109.008C75.1903 109.008 76.4169 109.285 77.4623 109.84C78.5076 110.373 79.3609 111.099 80.0223 112.016C80.7049 112.933 81.1956 113.979 81.4943 115.152C81.7929 116.325 81.8996 117.552 81.8143 118.832H69.8783ZM84.6373 103.152H89.1813V126H84.6373V103.152ZM104.023 115.28C103.725 113.381 102.605 112.432 100.663 112.432C99.9379 112.432 99.3299 112.603 98.8393 112.944C98.3486 113.264 97.9433 113.691 97.6233 114.224C97.3246 114.736 97.1113 115.312 96.9833 115.952C96.8553 116.571 96.7913 117.189 96.7913 117.808C96.7913 118.405 96.8553 119.013 96.9833 119.632C97.1113 120.251 97.3139 120.816 97.5913 121.328C97.8899 121.819 98.2846 122.224 98.7753 122.544C99.2659 122.864 99.8633 123.024 100.567 123.024C101.655 123.024 102.487 122.725 103.063 122.128C103.661 121.509 104.034 120.688 104.183 119.664H108.567C108.269 121.861 107.415 123.536 106.007 124.688C104.599 125.84 102.797 126.416 100.599 126.416C99.3619 126.416 98.2206 126.213 97.1753 125.808C96.1513 125.381 95.2766 124.795 94.5513 124.048C93.8259 123.301 93.2606 122.416 92.8553 121.392C92.4499 120.347 92.2473 119.205 92.2473 117.968C92.2473 116.688 92.4286 115.504 92.7913 114.416C93.1753 113.307 93.7299 112.357 94.4553 111.568C95.1806 110.757 96.0659 110.128 97.1113 109.68C98.1566 109.232 99.3513 109.008 100.695 109.008C101.677 109.008 102.615 109.136 103.511 109.392C104.429 109.648 105.239 110.043 105.943 110.576C106.669 111.088 107.255 111.739 107.703 112.528C108.151 113.296 108.407 114.213 108.471 115.28H104.023ZM115.166 117.744C115.166 118.405 115.23 119.056 115.358 119.696C115.486 120.315 115.7 120.88 115.998 121.392C116.318 121.883 116.734 122.277 117.246 122.576C117.758 122.875 118.398 123.024 119.166 123.024C119.934 123.024 120.574 122.875 121.086 122.576C121.62 122.277 122.036 121.883 122.334 121.392C122.654 120.88 122.878 120.315 123.006 119.696C123.134 119.056 123.198 118.405 123.198 117.744C123.198 117.083 123.134 116.432 123.006 115.792C122.878 115.152 122.654 114.587 122.334 114.096C122.036 113.605 121.62 113.211 121.086 112.912C120.574 112.592 119.934 112.432 119.166 112.432C118.398 112.432 117.758 112.592 117.246 112.912C116.734 113.211 116.318 113.605 115.998 114.096C115.7 114.587 115.486 115.152 115.358 115.792C115.23 116.432 115.166 117.083 115.166 117.744ZM110.622 117.744C110.622 116.421 110.825 115.227 111.23 114.16C111.636 113.072 112.212 112.155 112.958 111.408C113.705 110.64 114.601 110.053 115.646 109.648C116.692 109.221 117.865 109.008 119.166 109.008C120.468 109.008 121.641 109.221 122.686 109.648C123.753 110.053 124.66 110.64 125.406 111.408C126.153 112.155 126.729 113.072 127.134 114.16C127.54 115.227 127.742 116.421 127.742 117.744C127.742 119.067 127.54 120.261 127.134 121.328C126.729 122.395 126.153 123.312 125.406 124.08C124.66 124.827 123.753 125.403 122.686 125.808C121.641 126.213 120.468 126.416 119.166 126.416C117.865 126.416 116.692 126.213 115.646 125.808C114.601 125.403 113.705 124.827 112.958 124.08C112.212 123.312 111.636 122.395 111.23 121.328C110.825 120.261 110.622 119.067 110.622 117.744ZM130.825 109.456H135.113V111.696H135.177C135.774 110.843 136.489 110.181 137.321 109.712C138.174 109.243 139.145 109.008 140.233 109.008C141.278 109.008 142.227 109.211 143.081 109.616C143.955 110.021 144.617 110.736 145.065 111.76C145.555 111.035 146.217 110.395 147.049 109.84C147.902 109.285 148.905 109.008 150.057 109.008C150.931 109.008 151.742 109.115 152.489 109.328C153.235 109.541 153.875 109.883 154.409 110.352C154.942 110.821 155.358 111.44 155.657 112.208C155.955 112.955 156.105 113.861 156.105 114.928V126H151.561V116.624C151.561 116.069 151.539 115.547 151.497 115.056C151.454 114.565 151.337 114.139 151.145 113.776C150.953 113.413 150.665 113.125 150.281 112.912C149.918 112.699 149.417 112.592 148.777 112.592C148.137 112.592 147.614 112.72 147.209 112.976C146.825 113.211 146.515 113.531 146.281 113.936C146.067 114.32 145.918 114.768 145.833 115.28C145.769 115.771 145.737 116.272 145.737 116.784V126H141.193V116.72C141.193 116.229 141.182 115.749 141.161 115.28C141.139 114.789 141.043 114.341 140.873 113.936C140.723 113.531 140.457 113.211 140.073 112.976C139.71 112.72 139.166 112.592 138.441 112.592C138.227 112.592 137.939 112.645 137.577 112.752C137.235 112.837 136.894 113.019 136.553 113.296C136.233 113.552 135.955 113.936 135.721 114.448C135.486 114.939 135.369 115.589 135.369 116.4V126H130.825V109.456ZM170.833 115.952C170.619 114.8 170.235 113.925 169.681 113.328C169.147 112.731 168.326 112.432 167.217 112.432C166.491 112.432 165.883 112.56 165.393 112.816C164.923 113.051 164.539 113.349 164.241 113.712C163.963 114.075 163.761 114.459 163.633 114.864C163.526 115.269 163.462 115.632 163.441 115.952H170.833ZM163.441 118.832C163.505 120.304 163.878 121.371 164.561 122.032C165.243 122.693 166.225 123.024 167.505 123.024C168.422 123.024 169.211 122.8 169.873 122.352C170.534 121.883 170.939 121.392 171.089 120.88H175.089C174.449 122.864 173.467 124.283 172.145 125.136C170.822 125.989 169.222 126.416 167.345 126.416C166.043 126.416 164.87 126.213 163.825 125.808C162.779 125.381 161.894 124.784 161.169 124.016C160.443 123.248 159.878 122.331 159.473 121.264C159.089 120.197 158.897 119.024 158.897 117.744C158.897 116.507 159.099 115.355 159.505 114.288C159.91 113.221 160.486 112.304 161.233 111.536C161.979 110.747 162.865 110.128 163.889 109.68C164.934 109.232 166.086 109.008 167.345 109.008C168.753 109.008 169.979 109.285 171.025 109.84C172.07 110.373 172.923 111.099 173.585 112.016C174.267 112.933 174.758 113.979 175.057 115.152C175.355 116.325 175.462 117.552 175.377 118.832H163.441ZM192.514 107.376H185.666V103.152H204.386V107.376H197.538V126H192.514V107.376ZM202.786 114.544C202.85 113.477 203.117 112.592 203.586 111.888C204.055 111.184 204.653 110.619 205.378 110.192C206.103 109.765 206.914 109.467 207.81 109.296C208.727 109.104 209.645 109.008 210.562 109.008C211.394 109.008 212.237 109.072 213.09 109.2C213.943 109.307 214.722 109.531 215.426 109.872C216.13 110.213 216.706 110.693 217.154 111.312C217.602 111.909 217.826 112.709 217.826 113.712V122.32C217.826 123.067 217.869 123.781 217.954 124.464C218.039 125.147 218.189 125.659 218.402 126H213.794C213.709 125.744 213.634 125.488 213.57 125.232C213.527 124.955 213.495 124.677 213.474 124.4C212.749 125.147 211.895 125.669 210.914 125.968C209.933 126.267 208.93 126.416 207.906 126.416C207.117 126.416 206.381 126.32 205.698 126.128C205.015 125.936 204.418 125.637 203.906 125.232C203.394 124.827 202.989 124.315 202.69 123.696C202.413 123.077 202.274 122.341 202.274 121.488C202.274 120.549 202.434 119.781 202.754 119.184C203.095 118.565 203.522 118.075 204.034 117.712C204.567 117.349 205.165 117.083 205.826 116.912C206.509 116.72 207.191 116.571 207.874 116.464C208.557 116.357 209.229 116.272 209.89 116.208C210.551 116.144 211.138 116.048 211.65 115.92C212.162 115.792 212.567 115.611 212.866 115.376C213.165 115.12 213.303 114.757 213.282 114.288C213.282 113.797 213.197 113.413 213.026 113.136C212.877 112.837 212.663 112.613 212.386 112.464C212.13 112.293 211.821 112.187 211.458 112.144C211.117 112.08 210.743 112.048 210.338 112.048C209.442 112.048 208.738 112.24 208.226 112.624C207.714 113.008 207.415 113.648 207.33 114.544H202.786ZM213.282 117.904C213.09 118.075 212.845 118.213 212.546 118.32C212.269 118.405 211.959 118.48 211.618 118.544C211.298 118.608 210.957 118.661 210.594 118.704C210.231 118.747 209.869 118.8 209.506 118.864C209.165 118.928 208.823 119.013 208.482 119.12C208.162 119.227 207.874 119.376 207.618 119.568C207.383 119.739 207.191 119.963 207.042 120.24C206.893 120.517 206.818 120.869 206.818 121.296C206.818 121.701 206.893 122.043 207.042 122.32C207.191 122.597 207.394 122.821 207.65 122.992C207.906 123.141 208.205 123.248 208.546 123.312C208.887 123.376 209.239 123.408 209.602 123.408C210.498 123.408 211.191 123.259 211.682 122.96C212.173 122.661 212.535 122.309 212.77 121.904C213.005 121.477 213.143 121.051 213.186 120.624C213.25 120.197 213.282 119.856 213.282 119.6V117.904ZM224.873 120.624C224.873 121.115 224.969 121.541 225.161 121.904C225.374 122.245 225.641 122.533 225.961 122.768C226.281 122.981 226.644 123.141 227.049 123.248C227.476 123.355 227.913 123.408 228.361 123.408C228.681 123.408 229.012 123.376 229.353 123.312C229.716 123.227 230.036 123.109 230.313 122.96C230.612 122.789 230.857 122.576 231.049 122.32C231.241 122.043 231.337 121.701 231.337 121.296C231.337 120.613 230.878 120.101 229.961 119.76C229.065 119.419 227.806 119.077 226.185 118.736C225.524 118.587 224.873 118.416 224.233 118.224C223.614 118.011 223.06 117.744 222.569 117.424C222.078 117.083 221.684 116.667 221.385 116.176C221.086 115.664 220.937 115.045 220.937 114.32C220.937 113.253 221.14 112.379 221.545 111.696C221.972 111.013 222.526 110.48 223.209 110.096C223.892 109.691 224.66 109.413 225.513 109.264C226.366 109.093 227.241 109.008 228.137 109.008C229.033 109.008 229.897 109.093 230.729 109.264C231.582 109.435 232.34 109.723 233.001 110.128C233.662 110.533 234.206 111.077 234.633 111.76C235.081 112.421 235.348 113.264 235.433 114.288H231.113C231.049 113.413 230.718 112.827 230.121 112.528C229.524 112.208 228.82 112.048 228.009 112.048C227.753 112.048 227.476 112.069 227.177 112.112C226.878 112.133 226.601 112.197 226.345 112.304C226.11 112.411 225.908 112.571 225.737 112.784C225.566 112.976 225.481 113.243 225.481 113.584C225.481 113.989 225.63 114.32 225.929 114.576C226.228 114.832 226.612 115.045 227.081 115.216C227.572 115.365 228.126 115.504 228.745 115.632C229.364 115.76 229.993 115.899 230.633 116.048C231.294 116.197 231.934 116.379 232.553 116.592C233.193 116.805 233.758 117.093 234.249 117.456C234.74 117.797 235.134 118.235 235.433 118.768C235.732 119.28 235.881 119.92 235.881 120.688C235.881 121.776 235.657 122.693 235.209 123.44C234.782 124.165 234.217 124.752 233.513 125.2C232.809 125.648 231.998 125.957 231.081 126.128C230.185 126.32 229.268 126.416 228.329 126.416C227.369 126.416 226.43 126.32 225.513 126.128C224.596 125.936 223.774 125.616 223.049 125.168C222.345 124.72 221.758 124.133 221.289 123.408C220.841 122.661 220.596 121.733 220.553 120.624H224.873ZM238.957 103.152H243.501V115.408L249.229 109.456H254.605L248.365 115.536L255.309 126H249.805L245.26 118.608L243.501 120.304V126H238.957V103.152ZM268.052 115.952C267.838 114.8 267.454 113.925 266.9 113.328C266.366 112.731 265.545 112.432 264.436 112.432C263.71 112.432 263.102 112.56 262.612 112.816C262.142 113.051 261.758 113.349 261.46 113.712C261.182 114.075 260.98 114.459 260.852 114.864C260.745 115.269 260.681 115.632 260.66 115.952H268.052ZM260.66 118.832C260.724 120.304 261.097 121.371 261.78 122.032C262.462 122.693 263.444 123.024 264.724 123.024C265.641 123.024 266.43 122.8 267.092 122.352C267.753 121.883 268.158 121.392 268.308 120.88H272.308C271.668 122.864 270.686 124.283 269.364 125.136C268.041 125.989 266.441 126.416 264.564 126.416C263.262 126.416 262.089 126.213 261.044 125.808C259.998 125.381 259.113 124.784 258.388 124.016C257.662 123.248 257.097 122.331 256.692 121.264C256.308 120.197 256.116 119.024 256.116 117.744C256.116 116.507 256.318 115.355 256.724 114.288C257.129 113.221 257.705 112.304 258.452 111.536C259.198 110.747 260.084 110.128 261.108 109.68C262.153 109.232 263.305 109.008 264.564 109.008C265.972 109.008 267.198 109.285 268.244 109.84C269.289 110.373 270.142 111.099 270.804 112.016C271.486 112.933 271.977 113.979 272.276 115.152C272.574 116.325 272.681 117.552 272.596 118.832H260.66ZM275.291 109.456H279.611V112.528H279.675C279.888 112.016 280.176 111.547 280.539 111.12C280.901 110.672 281.317 110.299 281.786 110C282.256 109.68 282.757 109.435 283.291 109.264C283.824 109.093 284.379 109.008 284.955 109.008C285.253 109.008 285.584 109.061 285.947 109.168V113.392C285.733 113.349 285.477 113.317 285.179 113.296C284.88 113.253 284.592 113.232 284.315 113.232C283.483 113.232 282.779 113.371 282.203 113.648C281.627 113.925 281.157 114.309 280.795 114.8C280.453 115.269 280.208 115.824 280.059 116.464C279.909 117.104 279.835 117.797 279.835 118.544V126H275.291V109.456ZM287.952 121.072H292.976V126H287.952V121.072ZM292.816 109.296L291.568 119.152H289.296L288.08 109.296V103.152H292.816V109.296ZM311.045 121.776H315.525C316.25 121.776 316.954 121.659 317.637 121.424C318.319 121.189 318.927 120.805 319.461 120.272C319.994 119.717 320.421 119.003 320.741 118.128C321.061 117.253 321.221 116.187 321.221 114.928C321.221 113.776 321.103 112.741 320.869 111.824C320.655 110.885 320.293 110.085 319.781 109.424C319.269 108.763 318.586 108.261 317.733 107.92C316.901 107.557 315.866 107.376 314.629 107.376H311.045V121.776ZM306.021 103.152H315.877C317.349 103.152 318.714 103.387 319.972 103.856C321.252 104.325 322.351 105.029 323.269 105.968C324.207 106.907 324.933 108.08 325.445 109.488C325.978 110.896 326.245 112.549 326.245 114.448C326.245 116.112 326.031 117.648 325.605 119.056C325.178 120.464 324.527 121.68 323.653 122.704C322.799 123.728 321.722 124.539 320.421 125.136C319.141 125.712 317.626 126 315.877 126H306.021V103.152ZM333.931 106.896H329.387V103.152H333.931V106.896ZM329.387 109.456H333.931V126H329.387V109.456ZM341.029 120.624C341.029 121.115 341.125 121.541 341.317 121.904C341.531 122.245 341.797 122.533 342.117 122.768C342.437 122.981 342.8 123.141 343.205 123.248C343.632 123.355 344.069 123.408 344.517 123.408C344.837 123.408 345.168 123.376 345.509 123.312C345.872 123.227 346.192 123.109 346.469 122.96C346.768 122.789 347.013 122.576 347.205 122.32C347.397 122.043 347.493 121.701 347.493 121.296C347.493 120.613 347.035 120.101 346.117 119.76C345.221 119.419 343.963 119.077 342.341 118.736C341.68 118.587 341.029 118.416 340.389 118.224C339.771 118.011 339.216 117.744 338.725 117.424C338.235 117.083 337.84 116.667 337.541 116.176C337.243 115.664 337.093 115.045 337.093 114.32C337.093 113.253 337.296 112.379 337.701 111.696C338.128 111.013 338.683 110.48 339.365 110.096C340.048 109.691 340.816 109.413 341.669 109.264C342.523 109.093 343.397 109.008 344.293 109.008C345.189 109.008 346.053 109.093 346.885 109.264C347.739 109.435 348.496 109.723 349.157 110.128C349.819 110.533 350.363 111.077 350.789 111.76C351.237 112.421 351.504 113.264 351.589 114.288H347.269C347.205 113.413 346.875 112.827 346.277 112.528C345.68 112.208 344.976 112.048 344.165 112.048C343.909 112.048 343.632 112.069 343.333 112.112C343.035 112.133 342.757 112.197 342.501 112.304C342.267 112.411 342.064 112.571 341.893 112.784C341.723 112.976 341.637 113.243 341.637 113.584C341.637 113.989 341.787 114.32 342.085 114.576C342.384 114.832 342.768 115.045 343.237 115.216C343.728 115.365 344.283 115.504 344.901 115.632C345.52 115.76 346.149 115.899 346.789 116.048C347.451 116.197 348.091 116.379 348.709 116.592C349.349 116.805 349.915 117.093 350.405 117.456C350.896 117.797 351.291 118.235 351.589 118.768C351.888 119.28 352.037 119.92 352.037 120.688C352.037 121.776 351.813 122.693 351.365 123.44C350.939 124.165 350.373 124.752 349.669 125.2C348.965 125.648 348.155 125.957 347.237 126.128C346.341 126.32 345.424 126.416 344.485 126.416C343.525 126.416 342.587 126.32 341.669 126.128C340.752 125.936 339.931 125.616 339.205 125.168C338.501 124.72 337.915 124.133 337.445 123.408C336.997 122.661 336.752 121.733 336.709 120.624H341.029ZM365.961 115.28C365.662 113.381 364.542 112.432 362.601 112.432C361.875 112.432 361.267 112.603 360.777 112.944C360.286 113.264 359.881 113.691 359.561 114.224C359.262 114.736 359.049 115.312 358.921 115.952C358.793 116.571 358.729 117.189 358.729 117.808C358.729 118.405 358.793 119.013 358.921 119.632C359.049 120.251 359.251 120.816 359.529 121.328C359.827 121.819 360.222 122.224 360.713 122.544C361.203 122.864 361.801 123.024 362.505 123.024C363.593 123.024 364.425 122.725 365.001 122.128C365.598 121.509 365.971 120.688 366.121 119.664H370.505C370.206 121.861 369.353 123.536 367.945 124.688C366.537 125.84 364.734 126.416 362.537 126.416C361.299 126.416 360.158 126.213 359.113 125.808C358.089 125.381 357.214 124.795 356.489 124.048C355.763 123.301 355.198 122.416 354.793 121.392C354.387 120.347 354.185 119.205 354.185 117.968C354.185 116.688 354.366 115.504 354.729 114.416C355.113 113.307 355.667 112.357 356.393 111.568C357.118 110.757 358.003 110.128 359.049 109.68C360.094 109.232 361.289 109.008 362.633 109.008C363.614 109.008 364.553 109.136 365.449 109.392C366.366 109.648 367.177 110.043 367.881 110.576C368.606 111.088 369.193 111.739 369.641 112.528C370.089 113.296 370.345 114.213 370.409 115.28H365.961ZM377.104 117.744C377.104 118.405 377.168 119.056 377.296 119.696C377.424 120.315 377.637 120.88 377.936 121.392C378.256 121.883 378.672 122.277 379.184 122.576C379.696 122.875 380.336 123.024 381.104 123.024C381.872 123.024 382.512 122.875 383.024 122.576C383.557 122.277 383.973 121.883 384.272 121.392C384.592 120.88 384.816 120.315 384.944 119.696C385.072 119.056 385.136 118.405 385.136 117.744C385.136 117.083 385.072 116.432 384.944 115.792C384.816 115.152 384.592 114.587 384.272 114.096C383.973 113.605 383.557 113.211 383.024 112.912C382.512 112.592 381.872 112.432 381.104 112.432C380.336 112.432 379.696 112.592 379.184 112.912C378.672 113.211 378.256 113.605 377.936 114.096C377.637 114.587 377.424 115.152 377.296 115.792C377.168 116.432 377.104 117.083 377.104 117.744ZM372.56 117.744C372.56 116.421 372.762 115.227 373.168 114.16C373.573 113.072 374.149 112.155 374.896 111.408C375.642 110.64 376.538 110.053 377.584 109.648C378.629 109.221 379.802 109.008 381.104 109.008C382.405 109.008 383.578 109.221 384.624 109.648C385.69 110.053 386.597 110.64 387.344 111.408C388.09 112.155 388.666 113.072 389.072 114.16C389.477 115.227 389.68 116.421 389.68 117.744C389.68 119.067 389.477 120.261 389.072 121.328C388.666 122.395 388.09 123.312 387.344 124.08C386.597 124.827 385.69 125.403 384.624 125.808C383.578 126.213 382.405 126.416 381.104 126.416C379.802 126.416 378.629 126.213 377.584 125.808C376.538 125.403 375.642 124.827 374.896 124.08C374.149 123.312 373.573 122.395 373.168 121.328C372.762 120.261 372.56 119.067 372.56 117.744ZM401.786 126H396.73L391.066 109.456H395.834L399.322 120.752H399.386L402.874 109.456H407.386L401.786 126ZM420.395 115.952C420.182 114.8 419.798 113.925 419.243 113.328C418.71 112.731 417.889 112.432 416.779 112.432C416.054 112.432 415.446 112.56 414.955 112.816C414.486 113.051 414.102 113.349 413.803 113.712C413.526 114.075 413.323 114.459 413.195 114.864C413.089 115.269 413.025 115.632 413.003 115.952H420.395ZM413.003 118.832C413.067 120.304 413.441 121.371 414.123 122.032C414.806 122.693 415.787 123.024 417.067 123.024C417.985 123.024 418.774 122.8 419.435 122.352C420.097 121.883 420.502 121.392 420.651 120.88H424.651C424.011 122.864 423.03 124.283 421.707 125.136C420.385 125.989 418.785 126.416 416.907 126.416C415.606 126.416 414.433 126.213 413.387 125.808C412.342 125.381 411.457 124.784 410.731 124.016C410.006 123.248 409.441 122.331 409.035 121.264C408.651 120.197 408.459 119.024 408.459 117.744C408.459 116.507 408.662 115.355 409.067 114.288C409.473 113.221 410.049 112.304 410.795 111.536C411.542 110.747 412.427 110.128 413.451 109.68C414.497 109.232 415.649 109.008 416.907 109.008C418.315 109.008 419.542 109.285 420.587 109.84C421.633 110.373 422.486 111.099 423.147 112.016C423.83 112.933 424.321 113.979 424.619 115.152C424.918 116.325 425.025 117.552 424.939 118.832H413.003ZM427.634 109.456H431.954V112.528H432.018C432.232 112.016 432.52 111.547 432.882 111.12C433.245 110.672 433.661 110.299 434.13 110C434.6 109.68 435.101 109.435 435.634 109.264C436.168 109.093 436.722 109.008 437.298 109.008C437.597 109.008 437.928 109.061 438.29 109.168V113.392C438.077 113.349 437.821 113.317 437.522 113.296C437.224 113.253 436.936 113.232 436.658 113.232C435.826 113.232 435.122 113.371 434.546 113.648C433.97 113.925 433.501 114.309 433.138 114.8C432.797 115.269 432.552 115.824 432.402 116.464C432.253 117.104 432.178 117.797 432.178 118.544V126H427.634V109.456ZM448.786 114.544C448.85 113.477 449.117 112.592 449.586 111.888C450.055 111.184 450.653 110.619 451.378 110.192C452.103 109.765 452.914 109.467 453.81 109.296C454.727 109.104 455.645 109.008 456.562 109.008C457.394 109.008 458.237 109.072 459.09 109.2C459.943 109.307 460.722 109.531 461.426 109.872C462.13 110.213 462.706 110.693 463.154 111.312C463.602 111.909 463.826 112.709 463.826 113.712V122.32C463.826 123.067 463.869 123.781 463.954 124.464C464.039 125.147 464.189 125.659 464.402 126H459.794C459.709 125.744 459.634 125.488 459.57 125.232C459.527 124.955 459.495 124.677 459.474 124.4C458.749 125.147 457.895 125.669 456.914 125.968C455.933 126.267 454.93 126.416 453.906 126.416C453.117 126.416 452.381 126.32 451.698 126.128C451.015 125.936 450.418 125.637 449.906 125.232C449.394 124.827 448.989 124.315 448.69 123.696C448.413 123.077 448.274 122.341 448.274 121.488C448.274 120.549 448.434 119.781 448.754 119.184C449.095 118.565 449.522 118.075 450.034 117.712C450.567 117.349 451.165 117.083 451.826 116.912C452.509 116.72 453.191 116.571 453.874 116.464C454.557 116.357 455.229 116.272 455.89 116.208C456.551 116.144 457.138 116.048 457.65 115.92C458.162 115.792 458.567 115.611 458.866 115.376C459.165 115.12 459.303 114.757 459.282 114.288C459.282 113.797 459.197 113.413 459.026 113.136C458.877 112.837 458.663 112.613 458.386 112.464C458.13 112.293 457.821 112.187 457.458 112.144C457.117 112.08 456.743 112.048 456.338 112.048C455.442 112.048 454.738 112.24 454.226 112.624C453.714 113.008 453.415 113.648 453.33 114.544H448.786ZM459.282 117.904C459.09 118.075 458.845 118.213 458.546 118.32C458.269 118.405 457.959 118.48 457.618 118.544C457.298 118.608 456.957 118.661 456.594 118.704C456.231 118.747 455.869 118.8 455.506 118.864C455.165 118.928 454.823 119.013 454.482 119.12C454.162 119.227 453.874 119.376 453.618 119.568C453.383 119.739 453.191 119.963 453.042 120.24C452.893 120.517 452.818 120.869 452.818 121.296C452.818 121.701 452.893 122.043 453.042 122.32C453.191 122.597 453.394 122.821 453.65 122.992C453.906 123.141 454.205 123.248 454.546 123.312C454.887 123.376 455.239 123.408 455.602 123.408C456.498 123.408 457.191 123.259 457.682 122.96C458.173 122.661 458.535 122.309 458.77 121.904C459.005 121.477 459.143 121.051 459.186 120.624C459.25 120.197 459.282 119.856 459.282 119.6V117.904ZM487.523 115.28C487.225 113.381 486.105 112.432 484.163 112.432C483.438 112.432 482.83 112.603 482.339 112.944C481.849 113.264 481.443 113.691 481.123 114.224C480.825 114.736 480.611 115.312 480.483 115.952C480.355 116.571 480.291 117.189 480.291 117.808C480.291 118.405 480.355 119.013 480.483 119.632C480.611 120.251 480.814 120.816 481.091 121.328C481.39 121.819 481.785 122.224 482.275 122.544C482.766 122.864 483.363 123.024 484.067 123.024C485.155 123.024 485.987 122.725 486.563 122.128C487.161 121.509 487.534 120.688 487.683 119.664H492.067C491.769 121.861 490.915 123.536 489.507 124.688C488.099 125.84 486.297 126.416 484.099 126.416C482.862 126.416 481.721 126.213 480.675 125.808C479.651 125.381 478.777 124.795 478.051 124.048C477.326 123.301 476.761 122.416 476.355 121.392C475.95 120.347 475.747 119.205 475.747 117.968C475.747 116.688 475.929 115.504 476.291 114.416C476.675 113.307 477.23 112.357 477.955 111.568C478.681 110.757 479.566 110.128 480.611 109.68C481.657 109.232 482.851 109.008 484.195 109.008C485.177 109.008 486.115 109.136 487.011 109.392C487.929 109.648 488.739 110.043 489.443 110.576C490.169 111.088 490.755 111.739 491.203 112.528C491.651 113.296 491.907 114.213 491.971 115.28H487.523ZM498.666 117.744C498.666 118.405 498.73 119.056 498.858 119.696C498.986 120.315 499.2 120.88 499.498 121.392C499.818 121.883 500.234 122.277 500.746 122.576C501.258 122.875 501.898 123.024 502.666 123.024C503.434 123.024 504.074 122.875 504.586 122.576C505.12 122.277 505.536 121.883 505.834 121.392C506.154 120.88 506.378 120.315 506.506 119.696C506.634 119.056 506.698 118.405 506.698 117.744C506.698 117.083 506.634 116.432 506.506 115.792C506.378 115.152 506.154 114.587 505.834 114.096C505.536 113.605 505.12 113.211 504.586 112.912C504.074 112.592 503.434 112.432 502.666 112.432C501.898 112.432 501.258 112.592 500.746 112.912C500.234 113.211 499.818 113.605 499.498 114.096C499.2 114.587 498.986 115.152 498.858 115.792C498.73 116.432 498.666 117.083 498.666 117.744ZM494.122 117.744C494.122 116.421 494.325 115.227 494.73 114.16C495.136 113.072 495.712 112.155 496.458 111.408C497.205 110.64 498.101 110.053 499.146 109.648C500.192 109.221 501.365 109.008 502.666 109.008C503.968 109.008 505.141 109.221 506.186 109.648C507.253 110.053 508.16 110.64 508.906 111.408C509.653 112.155 510.229 113.072 510.634 114.16C511.04 115.227 511.242 116.421 511.242 117.744C511.242 119.067 511.04 120.261 510.634 121.328C510.229 122.395 509.653 123.312 508.906 124.08C508.16 124.827 507.253 125.403 506.186 125.808C505.141 126.213 503.968 126.416 502.666 126.416C501.365 126.416 500.192 126.213 499.146 125.808C498.101 125.403 497.205 124.827 496.458 124.08C495.712 123.312 495.136 122.395 494.73 121.328C494.325 120.261 494.122 119.067 494.122 117.744ZM514.325 109.456H518.613V111.696H518.677C519.274 110.843 519.989 110.181 520.821 109.712C521.674 109.243 522.645 109.008 523.733 109.008C524.778 109.008 525.727 109.211 526.581 109.616C527.455 110.021 528.117 110.736 528.565 111.76C529.055 111.035 529.717 110.395 530.549 109.84C531.402 109.285 532.405 109.008 533.557 109.008C534.431 109.008 535.242 109.115 535.989 109.328C536.735 109.541 537.375 109.883 537.909 110.352C538.442 110.821 538.858 111.44 539.157 112.208C539.455 112.955 539.605 113.861 539.605 114.928V126H535.061V116.624C535.061 116.069 535.039 115.547 534.997 115.056C534.954 114.565 534.837 114.139 534.645 113.776C534.453 113.413 534.165 113.125 533.781 112.912C533.418 112.699 532.917 112.592 532.277 112.592C531.637 112.592 531.114 112.72 530.709 112.976C530.325 113.211 530.015 113.531 529.781 113.936C529.567 114.32 529.418 114.768 529.333 115.28C529.269 115.771 529.237 116.272 529.237 116.784V126H524.693V116.72C524.693 116.229 524.682 115.749 524.661 115.28C524.639 114.789 524.543 114.341 524.373 113.936C524.223 113.531 523.957 113.211 523.573 112.976C523.21 112.72 522.666 112.592 521.941 112.592C521.727 112.592 521.439 112.645 521.077 112.752C520.735 112.837 520.394 113.019 520.053 113.296C519.733 113.552 519.455 113.936 519.221 114.448C518.986 114.939 518.869 115.589 518.869 116.4V126H514.325V109.456ZM543.325 109.456H547.613V111.696H547.677C548.274 110.843 548.989 110.181 549.821 109.712C550.674 109.243 551.645 109.008 552.733 109.008C553.778 109.008 554.727 109.211 555.581 109.616C556.455 110.021 557.117 110.736 557.565 111.76C558.055 111.035 558.717 110.395 559.549 109.84C560.402 109.285 561.405 109.008 562.557 109.008C563.431 109.008 564.242 109.115 564.989 109.328C565.735 109.541 566.375 109.883 566.909 110.352C567.442 110.821 567.858 111.44 568.157 112.208C568.455 112.955 568.605 113.861 568.605 114.928V126H564.061V116.624C564.061 116.069 564.039 115.547 563.997 115.056C563.954 114.565 563.837 114.139 563.645 113.776C563.453 113.413 563.165 113.125 562.781 112.912C562.418 112.699 561.917 112.592 561.277 112.592C560.637 112.592 560.114 112.72 559.709 112.976C559.325 113.211 559.015 113.531 558.781 113.936C558.567 114.32 558.418 114.768 558.333 115.28C558.269 115.771 558.237 116.272 558.237 116.784V126H553.693V116.72C553.693 116.229 553.682 115.749 553.661 115.28C553.639 114.789 553.543 114.341 553.373 113.936C553.223 113.531 552.957 113.211 552.573 112.976C552.21 112.72 551.666 112.592 550.941 112.592C550.727 112.592 550.439 112.645 550.077 112.752C549.735 112.837 549.394 113.019 549.053 113.296C548.733 113.552 548.455 113.936 548.221 114.448C547.986 114.939 547.869 115.589 547.869 116.4V126H543.325V109.456ZM587.717 126H583.397V123.696H583.301C582.725 124.656 581.978 125.349 581.061 125.776C580.143 126.203 579.205 126.416 578.245 126.416C577.029 126.416 576.026 126.256 575.237 125.936C574.469 125.616 573.861 125.168 573.413 124.592C572.965 123.995 572.645 123.28 572.453 122.448C572.282 121.595 572.197 120.656 572.197 119.632V109.456H576.741V118.8C576.741 120.165 576.954 121.189 577.381 121.872C577.807 122.533 578.565 122.864 579.653 122.864C580.89 122.864 581.786 122.501 582.341 121.776C582.895 121.029 583.173 119.813 583.173 118.128V109.456H587.717V126ZM591.166 109.456H595.486V111.76H595.582C596.158 110.8 596.904 110.107 597.822 109.68C598.739 109.232 599.678 109.008 600.638 109.008C601.854 109.008 602.846 109.179 603.614 109.52C604.403 109.84 605.022 110.299 605.47 110.896C605.918 111.472 606.227 112.187 606.398 113.04C606.59 113.872 606.686 114.8 606.686 115.824V126H602.142V116.656C602.142 115.291 601.928 114.277 601.502 113.616C601.075 112.933 600.318 112.592 599.23 112.592C597.992 112.592 597.096 112.965 596.542 113.712C595.987 114.437 595.71 115.643 595.71 117.328V126H591.166V109.456ZM614.806 106.896H610.262V103.152H614.806V106.896ZM610.262 109.456H614.806V126H610.262V109.456ZM624.144 109.456H627.472V112.496H624.144V120.688C624.144 121.456 624.272 121.968 624.528 122.224C624.784 122.48 625.296 122.608 626.064 122.608C626.32 122.608 626.566 122.597 626.8 122.576C627.035 122.555 627.259 122.523 627.472 122.48V126C627.088 126.064 626.662 126.107 626.192 126.128C625.723 126.149 625.264 126.16 624.816 126.16C624.112 126.16 623.44 126.107 622.8 126C622.182 125.915 621.627 125.733 621.136 125.456C620.667 125.179 620.294 124.784 620.016 124.272C619.739 123.76 619.6 123.088 619.6 122.256V112.496H616.848V109.456H619.6V104.496H624.144V109.456ZM637.794 128.048C637.304 129.392 636.621 130.352 635.746 130.928C634.872 131.504 633.656 131.792 632.098 131.792C631.629 131.792 631.16 131.771 630.69 131.728C630.242 131.707 629.784 131.675 629.314 131.632V127.888C629.741 127.931 630.178 127.973 630.626 128.016C631.074 128.059 631.522 128.069 631.97 128.048C632.568 127.984 633.005 127.749 633.282 127.344C633.581 126.939 633.73 126.491 633.73 126C633.73 125.637 633.666 125.296 633.538 124.976L627.746 109.456H632.578L636.322 120.784H636.386L640.002 109.456H644.706L637.794 128.048ZM660.894 109.456H664.222V112.496H660.894V120.688C660.894 121.456 661.022 121.968 661.278 122.224C661.534 122.48 662.046 122.608 662.814 122.608C663.07 122.608 663.316 122.597 663.55 122.576C663.785 122.555 664.009 122.523 664.222 122.48V126C663.838 126.064 663.412 126.107 662.942 126.128C662.473 126.149 662.014 126.16 661.566 126.16C660.862 126.16 660.19 126.107 659.55 126C658.932 125.915 658.377 125.733 657.886 125.456C657.417 125.179 657.044 124.784 656.766 124.272C656.489 123.76 656.35 123.088 656.35 122.256V112.496H653.598V109.456H656.35V104.496H660.894V109.456ZM666.384 103.152H670.928V111.76H671.024C671.6 110.8 672.336 110.107 673.232 109.68C674.128 109.232 675.003 109.008 675.856 109.008C677.072 109.008 678.064 109.179 678.832 109.52C679.622 109.84 680.24 110.299 680.688 110.896C681.136 111.472 681.446 112.187 681.616 113.04C681.808 113.872 681.904 114.8 681.904 115.824V126H677.36V116.656C677.36 115.291 677.147 114.277 676.72 113.616C676.294 112.933 675.536 112.592 674.448 112.592C673.211 112.592 672.315 112.965 671.76 113.712C671.206 114.437 670.928 115.643 670.928 117.328V126H666.384V103.152ZM685.161 114.544C685.225 113.477 685.492 112.592 685.961 111.888C686.43 111.184 687.028 110.619 687.753 110.192C688.478 109.765 689.289 109.467 690.185 109.296C691.102 109.104 692.02 109.008 692.937 109.008C693.769 109.008 694.612 109.072 695.465 109.2C696.318 109.307 697.097 109.531 697.801 109.872C698.505 110.213 699.081 110.693 699.529 111.312C699.977 111.909 700.201 112.709 700.201 113.712V122.32C700.201 123.067 700.244 123.781 700.329 124.464C700.414 125.147 700.564 125.659 700.777 126H696.169C696.084 125.744 696.009 125.488 695.945 125.232C695.902 124.955 695.87 124.677 695.849 124.4C695.124 125.147 694.27 125.669 693.289 125.968C692.308 126.267 691.305 126.416 690.281 126.416C689.492 126.416 688.756 126.32 688.073 126.128C687.39 125.936 686.793 125.637 686.281 125.232C685.769 124.827 685.364 124.315 685.065 123.696C684.788 123.077 684.649 122.341 684.649 121.488C684.649 120.549 684.809 119.781 685.129 119.184C685.47 118.565 685.897 118.075 686.409 117.712C686.942 117.349 687.54 117.083 688.201 116.912C688.884 116.72 689.566 116.571 690.249 116.464C690.932 116.357 691.604 116.272 692.265 116.208C692.926 116.144 693.513 116.048 694.025 115.92C694.537 115.792 694.942 115.611 695.241 115.376C695.54 115.12 695.678 114.757 695.657 114.288C695.657 113.797 695.572 113.413 695.401 113.136C695.252 112.837 695.038 112.613 694.761 112.464C694.505 112.293 694.196 112.187 693.833 112.144C693.492 112.08 693.118 112.048 692.713 112.048C691.817 112.048 691.113 112.24 690.601 112.624C690.089 113.008 689.79 113.648 689.705 114.544H685.161ZM695.657 117.904C695.465 118.075 695.22 118.213 694.921 118.32C694.644 118.405 694.334 118.48 693.993 118.544C693.673 118.608 693.332 118.661 692.969 118.704C692.606 118.747 692.244 118.8 691.881 118.864C691.54 118.928 691.198 119.013 690.857 119.12C690.537 119.227 690.249 119.376 689.993 119.568C689.758 119.739 689.566 119.963 689.417 120.24C689.268 120.517 689.193 120.869 689.193 121.296C689.193 121.701 689.268 122.043 689.417 122.32C689.566 122.597 689.769 122.821 690.025 122.992C690.281 123.141 690.58 123.248 690.921 123.312C691.262 123.376 691.614 123.408 691.977 123.408C692.873 123.408 693.566 123.259 694.057 122.96C694.548 122.661 694.91 122.309 695.145 121.904C695.38 121.477 695.518 121.051 695.561 120.624C695.625 120.197 695.657 119.856 695.657 119.6V117.904ZM709.488 109.456H712.816V112.496H709.488V120.688C709.488 121.456 709.616 121.968 709.872 122.224C710.128 122.48 710.64 122.608 711.408 122.608C711.664 122.608 711.909 122.597 712.144 122.576C712.379 122.555 712.603 122.523 712.816 122.48V126C712.432 126.064 712.005 126.107 711.536 126.128C711.067 126.149 710.608 126.16 710.16 126.16C709.456 126.16 708.784 126.107 708.144 126C707.525 125.915 706.971 125.733 706.48 125.456C706.011 125.179 705.637 124.784 705.36 124.272C705.083 123.76 704.944 123.088 704.944 122.256V112.496H702.192V109.456H704.944V104.496H709.488V109.456ZM46.88 165H41.824L36.16 148.456H40.928L44.416 159.752H44.48L47.968 148.456H52.48L46.88 165ZM54.161 153.544C54.225 152.477 54.4917 151.592 54.961 150.888C55.4303 150.184 56.0277 149.619 56.753 149.192C57.4783 148.765 58.289 148.467 59.185 148.296C60.1023 148.104 61.0197 148.008 61.937 148.008C62.769 148.008 63.6117 148.072 64.465 148.2C65.3183 148.307 66.097 148.531 66.801 148.872C67.505 149.213 68.081 149.693 68.529 150.312C68.977 150.909 69.201 151.709 69.201 152.712V161.32C69.201 162.067 69.2437 162.781 69.329 163.464C69.4143 164.147 69.5637 164.659 69.777 165H65.169C65.0837 164.744 65.009 164.488 64.945 164.232C64.9023 163.955 64.8703 163.677 64.849 163.4C64.1237 164.147 63.2703 164.669 62.289 164.968C61.3077 165.267 60.305 165.416 59.281 165.416C58.4917 165.416 57.7557 165.32 57.073 165.128C56.3903 164.936 55.793 164.637 55.281 164.232C54.769 163.827 54.3637 163.315 54.065 162.696C53.7877 162.077 53.649 161.341 53.649 160.488C53.649 159.549 53.809 158.781 54.129 158.184C54.4703 157.565 54.897 157.075 55.409 156.712C55.9423 156.349 56.5397 156.083 57.201 155.912C57.8837 155.72 58.5663 155.571 59.249 155.464C59.9317 155.357 60.6037 155.272 61.265 155.208C61.9263 155.144 62.513 155.048 63.025 154.92C63.537 154.792 63.9423 154.611 64.241 154.376C64.5397 154.12 64.6783 153.757 64.657 153.288C64.657 152.797 64.5717 152.413 64.401 152.136C64.2517 151.837 64.0383 151.613 63.761 151.464C63.505 151.293 63.1957 151.187 62.833 151.144C62.4917 151.08 62.1183 151.048 61.713 151.048C60.817 151.048 60.113 151.24 59.601 151.624C59.089 152.008 58.7903 152.648 58.705 153.544H54.161ZM64.657 156.904C64.465 157.075 64.2197 157.213 63.921 157.32C63.6437 157.405 63.3343 157.48 62.993 157.544C62.673 157.608 62.3317 157.661 61.969 157.704C61.6063 157.747 61.2437 157.8 60.881 157.864C60.5397 157.928 60.1983 158.013 59.857 158.12C59.537 158.227 59.249 158.376 58.993 158.568C58.7583 158.739 58.5663 158.963 58.417 159.24C58.2677 159.517 58.193 159.869 58.193 160.296C58.193 160.701 58.2677 161.043 58.417 161.32C58.5663 161.597 58.769 161.821 59.025 161.992C59.281 162.141 59.5797 162.248 59.921 162.312C60.2623 162.376 60.6143 162.408 60.977 162.408C61.873 162.408 62.5663 162.259 63.057 161.96C63.5477 161.661 63.9103 161.309 64.145 160.904C64.3797 160.477 64.5183 160.051 64.561 159.624C64.625 159.197 64.657 158.856 64.657 158.6V156.904ZM72.856 142.152H77.4V165H72.856V142.152ZM96.498 165H92.178V162.696H92.082C91.506 163.656 90.7593 164.349 89.842 164.776C88.9247 165.203 87.986 165.416 87.026 165.416C85.81 165.416 84.8073 165.256 84.018 164.936C83.25 164.616 82.642 164.168 82.194 163.592C81.746 162.995 81.426 162.28 81.234 161.448C81.0633 160.595 80.978 159.656 80.978 158.632V148.456H85.522V157.8C85.522 159.165 85.7353 160.189 86.162 160.872C86.5887 161.533 87.346 161.864 88.434 161.864C89.6713 161.864 90.5673 161.501 91.122 160.776C91.6767 160.029 91.954 158.813 91.954 157.128V148.456H96.498V165ZM111.083 154.952C110.869 153.8 110.485 152.925 109.931 152.328C109.397 151.731 108.576 151.432 107.467 151.432C106.741 151.432 106.133 151.56 105.643 151.816C105.173 152.051 104.789 152.349 104.491 152.712C104.213 153.075 104.011 153.459 103.883 153.864C103.776 154.269 103.712 154.632 103.691 154.952H111.083ZM103.691 157.832C103.755 159.304 104.128 160.371 104.811 161.032C105.493 161.693 106.475 162.024 107.755 162.024C108.672 162.024 109.461 161.8 110.123 161.352C110.784 160.883 111.189 160.392 111.339 159.88H115.339C114.699 161.864 113.717 163.283 112.395 164.136C111.072 164.989 109.472 165.416 107.595 165.416C106.293 165.416 105.12 165.213 104.075 164.808C103.029 164.381 102.144 163.784 101.419 163.016C100.693 162.248 100.128 161.331 99.7228 160.264C99.3388 159.197 99.1468 158.024 99.1468 156.744C99.1468 155.507 99.3494 154.355 99.7548 153.288C100.16 152.221 100.736 151.304 101.483 150.536C102.229 149.747 103.115 149.128 104.139 148.68C105.184 148.232 106.336 148.008 107.595 148.008C109.003 148.008 110.229 148.285 111.275 148.84C112.32 149.373 113.173 150.099 113.835 151.016C114.517 151.933 115.008 152.979 115.307 154.152C115.605 155.325 115.712 156.552 115.627 157.832H103.691ZM121.842 159.624C121.842 160.115 121.938 160.541 122.13 160.904C122.343 161.245 122.61 161.533 122.93 161.768C123.25 161.981 123.612 162.141 124.018 162.248C124.444 162.355 124.882 162.408 125.33 162.408C125.65 162.408 125.98 162.376 126.322 162.312C126.684 162.227 127.004 162.109 127.282 161.96C127.58 161.789 127.826 161.576 128.018 161.32C128.21 161.043 128.306 160.701 128.306 160.296C128.306 159.613 127.847 159.101 126.93 158.76C126.034 158.419 124.775 158.077 123.154 157.736C122.492 157.587 121.842 157.416 121.202 157.224C120.583 157.011 120.028 156.744 119.538 156.424C119.047 156.083 118.652 155.667 118.354 155.176C118.055 154.664 117.906 154.045 117.906 153.32C117.906 152.253 118.108 151.379 118.514 150.696C118.94 150.013 119.495 149.48 120.178 149.096C120.86 148.691 121.628 148.413 122.482 148.264C123.335 148.093 124.21 148.008 125.106 148.008C126.002 148.008 126.866 148.093 127.698 148.264C128.551 148.435 129.308 148.723 129.97 149.128C130.631 149.533 131.175 150.077 131.602 150.76C132.05 151.421 132.316 152.264 132.402 153.288H128.082C128.018 152.413 127.687 151.827 127.09 151.528C126.492 151.208 125.788 151.048 124.978 151.048C124.722 151.048 124.444 151.069 124.146 151.112C123.847 151.133 123.57 151.197 123.314 151.304C123.079 151.411 122.876 151.571 122.706 151.784C122.535 151.976 122.45 152.243 122.45 152.584C122.45 152.989 122.599 153.32 122.898 153.576C123.196 153.832 123.58 154.045 124.05 154.216C124.54 154.365 125.095 154.504 125.714 154.632C126.332 154.76 126.962 154.899 127.602 155.048C128.263 155.197 128.903 155.379 129.522 155.592C130.162 155.805 130.727 156.093 131.218 156.456C131.708 156.797 132.103 157.235 132.402 157.768C132.7 158.28 132.85 158.92 132.85 159.688C132.85 160.776 132.626 161.693 132.178 162.44C131.751 163.165 131.186 163.752 130.482 164.2C129.778 164.648 128.967 164.957 128.05 165.128C127.154 165.32 126.236 165.416 125.298 165.416C124.338 165.416 123.399 165.32 122.482 165.128C121.564 164.936 120.743 164.616 120.018 164.168C119.314 163.72 118.727 163.133 118.258 162.408C117.81 161.661 117.564 160.733 117.522 159.624H121.842ZM152.576 167.048C152.085 168.392 151.402 169.352 150.528 169.928C149.653 170.504 148.437 170.792 146.88 170.792C146.41 170.792 145.941 170.771 145.472 170.728C145.024 170.707 144.565 170.675 144.096 170.632V166.888C144.522 166.931 144.96 166.973 145.408 167.016C145.856 167.059 146.304 167.069 146.752 167.048C147.349 166.984 147.786 166.749 148.064 166.344C148.362 165.939 148.512 165.491 148.512 165C148.512 164.637 148.448 164.296 148.32 163.976L142.527 148.456H147.36L151.104 159.784H151.168L154.784 148.456H159.488L152.576 167.048ZM165.041 156.744C165.041 157.405 165.105 158.056 165.233 158.696C165.361 159.315 165.575 159.88 165.873 160.392C166.193 160.883 166.609 161.277 167.121 161.576C167.633 161.875 168.273 162.024 169.041 162.024C169.809 162.024 170.449 161.875 170.961 161.576C171.495 161.277 171.911 160.883 172.209 160.392C172.529 159.88 172.753 159.315 172.881 158.696C173.009 158.056 173.073 157.405 173.073 156.744C173.073 156.083 173.009 155.432 172.881 154.792C172.753 154.152 172.529 153.587 172.209 153.096C171.911 152.605 171.495 152.211 170.961 151.912C170.449 151.592 169.809 151.432 169.041 151.432C168.273 151.432 167.633 151.592 167.121 151.912C166.609 152.211 166.193 152.605 165.873 153.096C165.575 153.587 165.361 154.152 165.233 154.792C165.105 155.432 165.041 156.083 165.041 156.744ZM160.497 156.744C160.497 155.421 160.7 154.227 161.105 153.16C161.511 152.072 162.087 151.155 162.833 150.408C163.58 149.64 164.476 149.053 165.521 148.648C166.567 148.221 167.74 148.008 169.041 148.008C170.343 148.008 171.516 148.221 172.561 148.648C173.628 149.053 174.535 149.64 175.281 150.408C176.028 151.155 176.604 152.072 177.009 153.16C177.415 154.227 177.617 155.421 177.617 156.744C177.617 158.067 177.415 159.261 177.009 160.328C176.604 161.395 176.028 162.312 175.281 163.08C174.535 163.827 173.628 164.403 172.561 164.808C171.516 165.213 170.343 165.416 169.041 165.416C167.74 165.416 166.567 165.213 165.521 164.808C164.476 164.403 163.58 163.827 162.833 163.08C162.087 162.312 161.511 161.395 161.105 160.328C160.7 159.261 160.497 158.067 160.497 156.744ZM196.092 165H191.772V162.696H191.676C191.1 163.656 190.353 164.349 189.436 164.776C188.518 165.203 187.58 165.416 186.62 165.416C185.404 165.416 184.401 165.256 183.612 164.936C182.844 164.616 182.236 164.168 181.788 163.592C181.34 162.995 181.02 162.28 180.828 161.448C180.657 160.595 180.572 159.656 180.572 158.632V148.456H185.116V157.8C185.116 159.165 185.329 160.189 185.756 160.872C186.182 161.533 186.94 161.864 188.028 161.864C189.265 161.864 190.161 161.501 190.716 160.776C191.27 160.029 191.548 158.813 191.548 157.128V148.456H196.092V165ZM199.541 148.456H203.861V151.528H203.925C204.138 151.016 204.426 150.547 204.789 150.12C205.151 149.672 205.567 149.299 206.036 149C206.506 148.68 207.007 148.435 207.541 148.264C208.074 148.093 208.629 148.008 209.205 148.008C209.503 148.008 209.834 148.061 210.197 148.168V152.392C209.983 152.349 209.727 152.317 209.429 152.296C209.13 152.253 208.842 152.232 208.565 152.232C207.733 152.232 207.029 152.371 206.453 152.648C205.877 152.925 205.407 153.309 205.045 153.8C204.703 154.269 204.458 154.824 204.309 155.464C204.159 156.104 204.085 156.797 204.085 157.544V165H199.541V148.456ZM224.404 159.624C224.404 160.115 224.5 160.541 224.692 160.904C224.906 161.245 225.172 161.533 225.492 161.768C225.812 161.981 226.175 162.141 226.58 162.248C227.007 162.355 227.444 162.408 227.892 162.408C228.212 162.408 228.543 162.376 228.884 162.312C229.247 162.227 229.567 162.109 229.844 161.96C230.143 161.789 230.388 161.576 230.58 161.32C230.772 161.043 230.868 160.701 230.868 160.296C230.868 159.613 230.41 159.101 229.492 158.76C228.596 158.419 227.338 158.077 225.716 157.736C225.055 157.587 224.404 157.416 223.764 157.224C223.146 157.011 222.591 156.744 222.1 156.424C221.61 156.083 221.215 155.667 220.916 155.176C220.618 154.664 220.468 154.045 220.468 153.32C220.468 152.253 220.671 151.379 221.076 150.696C221.503 150.013 222.058 149.48 222.74 149.096C223.423 148.691 224.191 148.413 225.044 148.264C225.898 148.093 226.772 148.008 227.668 148.008C228.564 148.008 229.428 148.093 230.26 148.264C231.114 148.435 231.871 148.723 232.532 149.128C233.194 149.533 233.738 150.077 234.164 150.76C234.612 151.421 234.879 152.264 234.964 153.288H230.644C230.58 152.413 230.25 151.827 229.652 151.528C229.055 151.208 228.351 151.048 227.54 151.048C227.284 151.048 227.007 151.069 226.708 151.112C226.41 151.133 226.132 151.197 225.876 151.304C225.642 151.411 225.439 151.571 225.268 151.784C225.098 151.976 225.012 152.243 225.012 152.584C225.012 152.989 225.162 153.32 225.46 153.576C225.759 153.832 226.143 154.045 226.612 154.216C227.103 154.365 227.658 154.504 228.276 154.632C228.895 154.76 229.524 154.899 230.164 155.048C230.826 155.197 231.466 155.379 232.084 155.592C232.724 155.805 233.29 156.093 233.78 156.456C234.271 156.797 234.666 157.235 234.964 157.768C235.263 158.28 235.412 158.92 235.412 159.688C235.412 160.776 235.188 161.693 234.74 162.44C234.314 163.165 233.748 163.752 233.044 164.2C232.34 164.648 231.53 164.957 230.612 165.128C229.716 165.32 228.799 165.416 227.86 165.416C226.9 165.416 225.962 165.32 225.044 165.128C224.127 164.936 223.306 164.616 222.58 164.168C221.876 163.72 221.29 163.133 220.82 162.408C220.372 161.661 220.127 160.733 220.084 159.624H224.404ZM238.488 142.152H243.032V154.408L248.76 148.456H254.136L247.896 154.536L254.84 165H249.336L244.792 157.608L243.032 159.304V165H238.488V142.152ZM261.119 145.896H256.575V142.152H261.119V145.896ZM256.575 148.456H261.119V165H256.575V148.456ZM264.825 142.152H269.369V165H264.825V142.152ZM273.075 142.152H277.619V165H273.075V142.152ZM284.717 159.624C284.717 160.115 284.813 160.541 285.005 160.904C285.218 161.245 285.485 161.533 285.805 161.768C286.125 161.981 286.487 162.141 286.893 162.248C287.319 162.355 287.757 162.408 288.205 162.408C288.525 162.408 288.855 162.376 289.197 162.312C289.559 162.227 289.879 162.109 290.157 161.96C290.455 161.789 290.701 161.576 290.893 161.32C291.085 161.043 291.181 160.701 291.181 160.296C291.181 159.613 290.722 159.101 289.805 158.76C288.909 158.419 287.65 158.077 286.029 157.736C285.367 157.587 284.717 157.416 284.077 157.224C283.458 157.011 282.903 156.744 282.413 156.424C281.922 156.083 281.527 155.667 281.229 155.176C280.93 154.664 280.781 154.045 280.781 153.32C280.781 152.253 280.983 151.379 281.389 150.696C281.815 150.013 282.37 149.48 283.053 149.096C283.735 148.691 284.503 148.413 285.357 148.264C286.21 148.093 287.085 148.008 287.981 148.008C288.877 148.008 289.741 148.093 290.573 148.264C291.426 148.435 292.183 148.723 292.845 149.128C293.506 149.533 294.05 150.077 294.477 150.76C294.925 151.421 295.191 152.264 295.277 153.288H290.957C290.893 152.413 290.562 151.827 289.965 151.528C289.367 151.208 288.663 151.048 287.853 151.048C287.597 151.048 287.319 151.069 287.021 151.112C286.722 151.133 286.445 151.197 286.189 151.304C285.954 151.411 285.751 151.571 285.581 151.784C285.41 151.976 285.325 152.243 285.325 152.584C285.325 152.989 285.474 153.32 285.773 153.576C286.071 153.832 286.455 154.045 286.925 154.216C287.415 154.365 287.97 154.504 288.589 154.632C289.207 154.76 289.837 154.899 290.477 155.048C291.138 155.197 291.778 155.379 292.397 155.592C293.037 155.805 293.602 156.093 294.093 156.456C294.583 156.797 294.978 157.235 295.277 157.768C295.575 158.28 295.725 158.92 295.725 159.688C295.725 160.776 295.501 161.693 295.053 162.44C294.626 163.165 294.061 163.752 293.357 164.2C292.653 164.648 291.842 164.957 290.925 165.128C290.029 165.32 289.111 165.416 288.173 165.416C287.213 165.416 286.274 165.32 285.357 165.128C284.439 164.936 283.618 164.616 282.893 164.168C282.189 163.72 281.602 163.133 281.133 162.408C280.685 161.661 280.439 160.733 280.397 159.624H284.717ZM307.099 153.544C307.163 152.477 307.429 151.592 307.899 150.888C308.368 150.184 308.965 149.619 309.691 149.192C310.416 148.765 311.227 148.467 312.123 148.296C313.04 148.104 313.957 148.008 314.875 148.008C315.707 148.008 316.549 148.072 317.403 148.2C318.256 148.307 319.035 148.531 319.739 148.872C320.443 149.213 321.019 149.693 321.467 150.312C321.915 150.909 322.139 151.709 322.139 152.712V161.32C322.139 162.067 322.181 162.781 322.267 163.464C322.352 164.147 322.501 164.659 322.715 165H318.107C318.021 164.744 317.947 164.488 317.883 164.232C317.84 163.955 317.808 163.677 317.787 163.4C317.061 164.147 316.208 164.669 315.227 164.968C314.245 165.267 313.243 165.416 312.219 165.416C311.429 165.416 310.693 165.32 310.011 165.128C309.328 164.936 308.731 164.637 308.219 164.232C307.707 163.827 307.301 163.315 307.003 162.696C306.725 162.077 306.587 161.341 306.587 160.488C306.587 159.549 306.747 158.781 307.067 158.184C307.408 157.565 307.835 157.075 308.347 156.712C308.88 156.349 309.477 156.083 310.139 155.912C310.821 155.72 311.504 155.571 312.187 155.464C312.869 155.357 313.541 155.272 314.203 155.208C314.864 155.144 315.451 155.048 315.963 154.92C316.475 154.792 316.88 154.611 317.179 154.376C317.477 154.12 317.616 153.757 317.595 153.288C317.595 152.797 317.509 152.413 317.339 152.136C317.189 151.837 316.976 151.613 316.699 151.464C316.443 151.293 316.133 151.187 315.771 151.144C315.429 151.08 315.056 151.048 314.651 151.048C313.755 151.048 313.051 151.24 312.539 151.624C312.027 152.008 311.728 152.648 311.643 153.544H307.099ZM317.595 156.904C317.403 157.075 317.157 157.213 316.859 157.32C316.581 157.405 316.272 157.48 315.931 157.544C315.611 157.608 315.269 157.661 314.907 157.704C314.544 157.747 314.181 157.8 313.819 157.864C313.477 157.928 313.136 158.013 312.795 158.12C312.475 158.227 312.187 158.376 311.931 158.568C311.696 158.739 311.504 158.963 311.355 159.24C311.205 159.517 311.131 159.869 311.131 160.296C311.131 160.701 311.205 161.043 311.355 161.32C311.504 161.597 311.707 161.821 311.963 161.992C312.219 162.141 312.517 162.248 312.859 162.312C313.2 162.376 313.552 162.408 313.915 162.408C314.811 162.408 315.504 162.259 315.995 161.96C316.485 161.661 316.848 161.309 317.083 160.904C317.317 160.477 317.456 160.051 317.499 159.624C317.563 159.197 317.595 158.856 317.595 158.6V156.904ZM325.666 148.456H329.986V150.76H330.082C330.658 149.8 331.404 149.107 332.322 148.68C333.239 148.232 334.178 148.008 335.138 148.008C336.354 148.008 337.346 148.179 338.114 148.52C338.903 148.84 339.522 149.299 339.97 149.896C340.418 150.472 340.727 151.187 340.898 152.04C341.09 152.872 341.186 153.8 341.186 154.824V165H336.642V155.656C336.642 154.291 336.428 153.277 336.002 152.616C335.575 151.933 334.818 151.592 333.73 151.592C332.492 151.592 331.596 151.965 331.042 152.712C330.487 153.437 330.21 154.643 330.21 156.328V165H325.666V148.456ZM356.378 156.68C356.378 155.997 356.314 155.347 356.186 154.728C356.058 154.088 355.834 153.533 355.514 153.064C355.216 152.573 354.821 152.179 354.33 151.88C353.84 151.581 353.221 151.432 352.474 151.432C351.728 151.432 351.098 151.581 350.586 151.88C350.074 152.179 349.658 152.573 349.338 153.064C349.04 153.555 348.816 154.12 348.666 154.76C348.538 155.379 348.474 156.029 348.474 156.712C348.474 157.352 348.549 157.992 348.698 158.632C348.848 159.272 349.082 159.848 349.402 160.36C349.744 160.851 350.16 161.256 350.65 161.576C351.162 161.875 351.77 162.024 352.474 162.024C353.221 162.024 353.84 161.875 354.33 161.576C354.842 161.277 355.248 160.883 355.546 160.392C355.845 159.88 356.058 159.304 356.186 158.664C356.314 158.024 356.378 157.363 356.378 156.68ZM356.442 162.888H356.378C355.845 163.784 355.141 164.435 354.266 164.84C353.413 165.224 352.442 165.416 351.354 165.416C350.117 165.416 349.029 165.181 348.09 164.712C347.152 164.221 346.373 163.571 345.754 162.76C345.157 161.928 344.698 160.979 344.378 159.912C344.08 158.845 343.93 157.736 343.93 156.584C343.93 155.475 344.08 154.408 344.378 153.384C344.698 152.339 345.157 151.421 345.754 150.632C346.373 149.843 347.141 149.213 348.058 148.744C348.976 148.253 350.042 148.008 351.258 148.008C352.24 148.008 353.168 148.221 354.042 148.648C354.938 149.053 355.642 149.661 356.154 150.472H356.218V142.152H360.762V165H356.442V162.888ZM373.103 148.456H377.423V151.528H377.487C377.7 151.016 377.988 150.547 378.351 150.12C378.714 149.672 379.13 149.299 379.599 149C380.068 148.68 380.57 148.435 381.103 148.264C381.636 148.093 382.191 148.008 382.767 148.008C383.066 148.008 383.396 148.061 383.759 148.168V152.392C383.546 152.349 383.29 152.317 382.991 152.296C382.692 152.253 382.404 152.232 382.127 152.232C381.295 152.232 380.591 152.371 380.015 152.648C379.439 152.925 378.97 153.309 378.607 153.8C378.266 154.269 378.02 154.824 377.871 155.464C377.722 156.104 377.647 156.797 377.647 157.544V165H373.103V148.456ZM396.114 154.952C395.901 153.8 395.517 152.925 394.962 152.328C394.429 151.731 393.607 151.432 392.498 151.432C391.773 151.432 391.165 151.56 390.674 151.816C390.205 152.051 389.821 152.349 389.522 152.712C389.245 153.075 389.042 153.459 388.914 153.864C388.807 154.269 388.743 154.632 388.722 154.952H396.114ZM388.722 157.832C388.786 159.304 389.159 160.371 389.842 161.032C390.525 161.693 391.506 162.024 392.786 162.024C393.703 162.024 394.493 161.8 395.154 161.352C395.815 160.883 396.221 160.392 396.37 159.88H400.37C399.73 161.864 398.749 163.283 397.426 164.136C396.103 164.989 394.503 165.416 392.626 165.416C391.325 165.416 390.151 165.213 389.106 164.808C388.061 164.381 387.175 163.784 386.45 163.016C385.725 162.248 385.159 161.331 384.754 160.264C384.37 159.197 384.178 158.024 384.178 156.744C384.178 155.507 384.381 154.355 384.786 153.288C385.191 152.221 385.767 151.304 386.514 150.536C387.261 149.747 388.146 149.128 389.17 148.68C390.215 148.232 391.367 148.008 392.626 148.008C394.034 148.008 395.261 148.285 396.306 148.84C397.351 149.373 398.205 150.099 398.866 151.016C399.549 151.933 400.039 152.979 400.338 154.152C400.637 155.325 400.743 156.552 400.658 157.832H388.722ZM422.265 165H417.593L414.649 153.896H414.585L411.769 165H407.065L401.817 148.456H406.617L409.657 159.688H409.721L412.473 148.456H416.889L419.705 159.656H419.769L422.809 148.456H427.481L422.265 165ZM429.224 153.544C429.288 152.477 429.554 151.592 430.024 150.888C430.493 150.184 431.09 149.619 431.816 149.192C432.541 148.765 433.352 148.467 434.248 148.296C435.165 148.104 436.082 148.008 437 148.008C437.832 148.008 438.674 148.072 439.528 148.2C440.381 148.307 441.16 148.531 441.864 148.872C442.568 149.213 443.144 149.693 443.592 150.312C444.04 150.909 444.264 151.709 444.264 152.712V161.32C444.264 162.067 444.306 162.781 444.392 163.464C444.477 164.147 444.626 164.659 444.84 165H440.232C440.146 164.744 440.072 164.488 440.008 164.232C439.965 163.955 439.933 163.677 439.912 163.4C439.186 164.147 438.333 164.669 437.352 164.968C436.37 165.267 435.368 165.416 434.344 165.416C433.554 165.416 432.818 165.32 432.136 165.128C431.453 164.936 430.856 164.637 430.344 164.232C429.832 163.827 429.426 163.315 429.128 162.696C428.85 162.077 428.712 161.341 428.712 160.488C428.712 159.549 428.872 158.781 429.192 158.184C429.533 157.565 429.96 157.075 430.472 156.712C431.005 156.349 431.602 156.083 432.264 155.912C432.946 155.72 433.629 155.571 434.312 155.464C434.994 155.357 435.666 155.272 436.328 155.208C436.989 155.144 437.576 155.048 438.088 154.92C438.6 154.792 439.005 154.611 439.304 154.376C439.602 154.12 439.741 153.757 439.72 153.288C439.72 152.797 439.634 152.413 439.464 152.136C439.314 151.837 439.101 151.613 438.824 151.464C438.568 151.293 438.258 151.187 437.896 151.144C437.554 151.08 437.181 151.048 436.776 151.048C435.88 151.048 435.176 151.24 434.664 151.624C434.152 152.008 433.853 152.648 433.768 153.544H429.224ZM439.72 156.904C439.528 157.075 439.282 157.213 438.984 157.32C438.706 157.405 438.397 157.48 438.056 157.544C437.736 157.608 437.394 157.661 437.032 157.704C436.669 157.747 436.306 157.8 435.944 157.864C435.602 157.928 435.261 158.013 434.92 158.12C434.6 158.227 434.312 158.376 434.056 158.568C433.821 158.739 433.629 158.963 433.48 159.24C433.33 159.517 433.256 159.869 433.256 160.296C433.256 160.701 433.33 161.043 433.48 161.32C433.629 161.597 433.832 161.821 434.088 161.992C434.344 162.141 434.642 162.248 434.984 162.312C435.325 162.376 435.677 162.408 436.04 162.408C436.936 162.408 437.629 162.259 438.12 161.96C438.61 161.661 438.973 161.309 439.208 160.904C439.442 160.477 439.581 160.051 439.624 159.624C439.688 159.197 439.72 158.856 439.72 158.6V156.904ZM447.791 148.456H452.111V151.528H452.175C452.388 151.016 452.676 150.547 453.039 150.12C453.401 149.672 453.817 149.299 454.286 149C454.756 148.68 455.257 148.435 455.791 148.264C456.324 148.093 456.879 148.008 457.455 148.008C457.753 148.008 458.084 148.061 458.447 148.168V152.392C458.233 152.349 457.977 152.317 457.679 152.296C457.38 152.253 457.092 152.232 456.815 152.232C455.983 152.232 455.279 152.371 454.703 152.648C454.127 152.925 453.657 153.309 453.295 153.8C452.953 154.269 452.708 154.824 452.559 155.464C452.409 156.104 452.335 156.797 452.335 157.544V165H447.791V148.456ZM471.41 156.68C471.41 155.997 471.346 155.347 471.218 154.728C471.09 154.088 470.866 153.533 470.546 153.064C470.247 152.573 469.852 152.179 469.362 151.88C468.871 151.581 468.252 151.432 467.506 151.432C466.759 151.432 466.13 151.581 465.618 151.88C465.106 152.179 464.69 152.573 464.37 153.064C464.071 153.555 463.847 154.12 463.698 154.76C463.57 155.379 463.506 156.029 463.506 156.712C463.506 157.352 463.58 157.992 463.73 158.632C463.879 159.272 464.114 159.848 464.434 160.36C464.775 160.851 465.191 161.256 465.682 161.576C466.194 161.875 466.802 162.024 467.506 162.024C468.252 162.024 468.871 161.875 469.362 161.576C469.874 161.277 470.279 160.883 470.578 160.392C470.876 159.88 471.09 159.304 471.218 158.664C471.346 158.024 471.41 157.363 471.41 156.68ZM471.474 162.888H471.41C470.876 163.784 470.172 164.435 469.298 164.84C468.444 165.224 467.474 165.416 466.385 165.416C465.148 165.416 464.06 165.181 463.122 164.712C462.183 164.221 461.404 163.571 460.786 162.76C460.188 161.928 459.73 160.979 459.41 159.912C459.111 158.845 458.962 157.736 458.962 156.584C458.962 155.475 459.111 154.408 459.41 153.384C459.73 152.339 460.188 151.421 460.786 150.632C461.404 149.843 462.172 149.213 463.09 148.744C464.007 148.253 465.074 148.008 466.29 148.008C467.271 148.008 468.199 148.221 469.074 148.648C469.97 149.053 470.674 149.661 471.186 150.472H471.25V142.152H475.794V165H471.474V162.888ZM482.748 159.624C482.748 160.115 482.844 160.541 483.036 160.904C483.249 161.245 483.516 161.533 483.836 161.768C484.156 161.981 484.519 162.141 484.924 162.248C485.351 162.355 485.788 162.408 486.236 162.408C486.556 162.408 486.887 162.376 487.228 162.312C487.591 162.227 487.911 162.109 488.188 161.96C488.487 161.789 488.732 161.576 488.924 161.32C489.116 161.043 489.212 160.701 489.212 160.296C489.212 159.613 488.753 159.101 487.836 158.76C486.94 158.419 485.681 158.077 484.06 157.736C483.399 157.587 482.748 157.416 482.108 157.224C481.489 157.011 480.935 156.744 480.444 156.424C479.953 156.083 479.559 155.667 479.26 155.176C478.961 154.664 478.812 154.045 478.812 153.32C478.812 152.253 479.015 151.379 479.42 150.696C479.847 150.013 480.401 149.48 481.084 149.096C481.767 148.691 482.535 148.413 483.388 148.264C484.241 148.093 485.116 148.008 486.012 148.008C486.908 148.008 487.772 148.093 488.604 148.264C489.457 148.435 490.215 148.723 490.876 149.128C491.537 149.533 492.081 150.077 492.508 150.76C492.956 151.421 493.223 152.264 493.308 153.288H488.988C488.924 152.413 488.593 151.827 487.996 151.528C487.399 151.208 486.695 151.048 485.884 151.048C485.628 151.048 485.351 151.069 485.052 151.112C484.753 151.133 484.476 151.197 484.22 151.304C483.985 151.411 483.783 151.571 483.612 151.784C483.441 151.976 483.356 152.243 483.356 152.584C483.356 152.989 483.505 153.32 483.804 153.576C484.103 153.832 484.487 154.045 484.956 154.216C485.447 154.365 486.001 154.504 486.62 154.632C487.239 154.76 487.868 154.899 488.508 155.048C489.169 155.197 489.809 155.379 490.428 155.592C491.068 155.805 491.633 156.093 492.124 156.456C492.615 156.797 493.009 157.235 493.308 157.768C493.607 158.28 493.756 158.92 493.756 159.688C493.756 160.776 493.532 161.693 493.084 162.44C492.657 163.165 492.092 163.752 491.388 164.2C490.684 164.648 489.873 164.957 488.956 165.128C488.06 165.32 487.143 165.416 486.204 165.416C485.244 165.416 484.305 165.32 483.388 165.128C482.471 164.936 481.649 164.616 480.924 164.168C480.22 163.72 479.633 163.133 479.164 162.408C478.716 161.661 478.471 160.733 478.428 159.624H482.748ZM513.482 167.048C512.991 168.392 512.308 169.352 511.434 169.928C510.559 170.504 509.343 170.792 507.786 170.792C507.316 170.792 506.847 170.771 506.378 170.728C505.93 170.707 505.471 170.675 505.002 170.632V166.888C505.428 166.931 505.866 166.973 506.314 167.016C506.762 167.059 507.21 167.069 507.658 167.048C508.255 166.984 508.692 166.749 508.97 166.344C509.268 165.939 509.418 165.491 509.418 165C509.418 164.637 509.354 164.296 509.226 163.976L503.434 148.456H508.266L512.01 159.784H512.074L515.69 148.456H520.394L513.482 167.048ZM525.948 156.744C525.948 157.405 526.012 158.056 526.14 158.696C526.268 159.315 526.481 159.88 526.78 160.392C527.1 160.883 527.516 161.277 528.028 161.576C528.54 161.875 529.18 162.024 529.948 162.024C530.716 162.024 531.356 161.875 531.868 161.576C532.401 161.277 532.817 160.883 533.116 160.392C533.436 159.88 533.66 159.315 533.788 158.696C533.916 158.056 533.98 157.405 533.98 156.744C533.98 156.083 533.916 155.432 533.788 154.792C533.66 154.152 533.436 153.587 533.116 153.096C532.817 152.605 532.401 152.211 531.868 151.912C531.356 151.592 530.716 151.432 529.948 151.432C529.18 151.432 528.54 151.592 528.028 151.912C527.516 152.211 527.1 152.605 526.78 153.096C526.481 153.587 526.268 154.152 526.14 154.792C526.012 155.432 525.948 156.083 525.948 156.744ZM521.404 156.744C521.404 155.421 521.606 154.227 522.012 153.16C522.417 152.072 522.993 151.155 523.74 150.408C524.486 149.64 525.382 149.053 526.428 148.648C527.473 148.221 528.646 148.008 529.948 148.008C531.249 148.008 532.422 148.221 533.468 148.648C534.534 149.053 535.441 149.64 536.188 150.408C536.934 151.155 537.51 152.072 537.916 153.16C538.321 154.227 538.524 155.421 538.524 156.744C538.524 158.067 538.321 159.261 537.916 160.328C537.51 161.395 536.934 162.312 536.188 163.08C535.441 163.827 534.534 164.403 533.468 164.808C532.422 165.213 531.249 165.416 529.948 165.416C528.646 165.416 527.473 165.213 526.428 164.808C525.382 164.403 524.486 163.827 523.74 163.08C522.993 162.312 522.417 161.395 522.012 160.328C521.606 159.261 521.404 158.067 521.404 156.744ZM556.998 165H552.678V162.696H552.582C552.006 163.656 551.259 164.349 550.342 164.776C549.425 165.203 548.486 165.416 547.526 165.416C546.31 165.416 545.307 165.256 544.518 164.936C543.75 164.616 543.142 164.168 542.694 163.592C542.246 162.995 541.926 162.28 541.734 161.448C541.563 160.595 541.478 159.656 541.478 158.632V148.456H546.022V157.8C546.022 159.165 546.235 160.189 546.662 160.872C547.089 161.533 547.846 161.864 548.934 161.864C550.171 161.864 551.067 161.501 551.622 160.776C552.177 160.029 552.454 158.813 552.454 157.128V148.456H556.998V165ZM560.447 148.456H564.767V151.528H564.831C565.044 151.016 565.332 150.547 565.695 150.12C566.057 149.672 566.473 149.299 566.943 149C567.412 148.68 567.913 148.435 568.447 148.264C568.98 148.093 569.535 148.008 570.111 148.008C570.409 148.008 570.74 148.061 571.103 148.168V152.392C570.889 152.349 570.633 152.317 570.335 152.296C570.036 152.253 569.748 152.232 569.471 152.232C568.639 152.232 567.935 152.371 567.359 152.648C566.783 152.925 566.313 153.309 565.951 153.8C565.609 154.269 565.364 154.824 565.215 155.464C565.065 156.104 564.991 156.797 564.991 157.544V165H560.447V148.456ZM592.927 154.952C592.713 153.8 592.329 152.925 591.775 152.328C591.241 151.731 590.42 151.432 589.311 151.432C588.585 151.432 587.977 151.56 587.487 151.816C587.017 152.051 586.633 152.349 586.335 152.712C586.057 153.075 585.855 153.459 585.727 153.864C585.62 154.269 585.556 154.632 585.535 154.952H592.927ZM585.535 157.832C585.599 159.304 585.972 160.371 586.655 161.032C587.337 161.693 588.319 162.024 589.599 162.024C590.516 162.024 591.305 161.8 591.967 161.352C592.628 160.883 593.033 160.392 593.183 159.88H597.183C596.543 161.864 595.561 163.283 594.239 164.136C592.916 164.989 591.316 165.416 589.439 165.416C588.137 165.416 586.964 165.213 585.919 164.808C584.873 164.381 583.988 163.784 583.263 163.016C582.537 162.248 581.972 161.331 581.567 160.264C581.183 159.197 580.991 158.024 580.991 156.744C580.991 155.507 581.193 154.355 581.599 153.288C582.004 152.221 582.58 151.304 583.327 150.536C584.073 149.747 584.959 149.128 585.983 148.68C587.028 148.232 588.18 148.008 589.439 148.008C590.847 148.008 592.073 148.285 593.119 148.84C594.164 149.373 595.017 150.099 595.679 151.016C596.361 151.933 596.852 152.979 597.151 154.152C597.449 155.325 597.556 156.552 597.471 157.832H585.535ZM610.854 151.496H605.702V165H601.158V151.496H598.438V148.456H601.158V147.176C601.158 145.704 601.616 144.499 602.534 143.56C603.451 142.621 604.838 142.152 606.694 142.152C607.099 142.152 607.504 142.173 607.91 142.216C608.315 142.237 608.71 142.259 609.094 142.28V145.672C608.539 145.608 607.984 145.576 607.43 145.576C606.811 145.576 606.363 145.725 606.086 146.024C605.83 146.301 605.702 146.781 605.702 147.464V148.456H610.854V147.176C610.854 145.704 611.312 144.499 612.23 143.56C613.147 142.621 614.534 142.152 616.39 142.152C616.795 142.152 617.2 142.173 617.606 142.216C618.011 142.237 618.406 142.259 618.79 142.28V145.672C618.235 145.608 617.68 145.576 617.126 145.576C616.507 145.576 616.059 145.725 615.782 146.024C615.526 146.301 615.398 146.781 615.398 147.464V148.456H618.534V151.496H615.398V165H610.854V151.496ZM624.541 156.744C624.541 157.405 624.605 158.056 624.733 158.696C624.861 159.315 625.075 159.88 625.373 160.392C625.693 160.883 626.109 161.277 626.621 161.576C627.133 161.875 627.773 162.024 628.541 162.024C629.309 162.024 629.949 161.875 630.461 161.576C630.995 161.277 631.411 160.883 631.709 160.392C632.029 159.88 632.253 159.315 632.381 158.696C632.509 158.056 632.573 157.405 632.573 156.744C632.573 156.083 632.509 155.432 632.381 154.792C632.253 154.152 632.029 153.587 631.709 153.096C631.411 152.605 630.995 152.211 630.461 151.912C629.949 151.592 629.309 151.432 628.541 151.432C627.773 151.432 627.133 151.592 626.621 151.912C626.109 152.211 625.693 152.605 625.373 153.096C625.075 153.587 624.861 154.152 624.733 154.792C624.605 155.432 624.541 156.083 624.541 156.744ZM619.997 156.744C619.997 155.421 620.2 154.227 620.605 153.16C621.011 152.072 621.587 151.155 622.333 150.408C623.08 149.64 623.976 149.053 625.021 148.648C626.067 148.221 627.24 148.008 628.541 148.008C629.843 148.008 631.016 148.221 632.061 148.648C633.128 149.053 634.035 149.64 634.781 150.408C635.528 151.155 636.104 152.072 636.509 153.16C636.915 154.227 637.117 155.421 637.117 156.744C637.117 158.067 636.915 159.261 636.509 160.328C636.104 161.395 635.528 162.312 634.781 163.08C634.035 163.827 633.128 164.403 632.061 164.808C631.016 165.213 629.843 165.416 628.541 165.416C627.24 165.416 626.067 165.213 625.021 164.808C623.976 164.403 623.08 163.827 622.333 163.08C621.587 162.312 621.011 161.395 620.605 160.328C620.2 159.261 619.997 158.067 619.997 156.744ZM640.072 148.456H644.392V151.528H644.456C644.669 151.016 644.957 150.547 645.32 150.12C645.682 149.672 646.098 149.299 646.568 149C647.037 148.68 647.538 148.435 648.072 148.264C648.605 148.093 649.16 148.008 649.736 148.008C650.034 148.008 650.365 148.061 650.728 148.168V152.392C650.514 152.349 650.258 152.317 649.96 152.296C649.661 152.253 649.373 152.232 649.096 152.232C648.264 152.232 647.56 152.371 646.984 152.648C646.408 152.925 645.938 153.309 645.576 153.8C645.234 154.269 644.989 154.824 644.84 155.464C644.69 156.104 644.616 156.797 644.616 157.544V165H640.072V148.456ZM658.269 148.456H661.597V151.496H658.269V159.688C658.269 160.456 658.397 160.968 658.653 161.224C658.909 161.48 659.421 161.608 660.189 161.608C660.445 161.608 660.691 161.597 660.925 161.576C661.16 161.555 661.384 161.523 661.597 161.48V165C661.213 165.064 660.787 165.107 660.317 165.128C659.848 165.149 659.389 165.16 658.941 165.16C658.237 165.16 657.565 165.107 656.925 165C656.307 164.915 655.752 164.733 655.261 164.456C654.792 164.179 654.419 163.784 654.141 163.272C653.864 162.76 653.725 162.088 653.725 161.256V151.496H650.973V148.456H653.725V143.496H658.269V148.456ZM667.279 159.624C667.279 160.115 667.375 160.541 667.567 160.904C667.781 161.245 668.047 161.533 668.367 161.768C668.687 161.981 669.05 162.141 669.455 162.248C669.882 162.355 670.319 162.408 670.767 162.408C671.087 162.408 671.418 162.376 671.759 162.312C672.122 162.227 672.442 162.109 672.719 161.96C673.018 161.789 673.263 161.576 673.455 161.32C673.647 161.043 673.743 160.701 673.743 160.296C673.743 159.613 673.285 159.101 672.367 158.76C671.471 158.419 670.213 158.077 668.591 157.736C667.93 157.587 667.279 157.416 666.639 157.224C666.021 157.011 665.466 156.744 664.975 156.424C664.485 156.083 664.09 155.667 663.791 155.176C663.493 154.664 663.343 154.045 663.343 153.32C663.343 152.253 663.546 151.379 663.951 150.696C664.378 150.013 664.933 149.48 665.615 149.096C666.298 148.691 667.066 148.413 667.919 148.264C668.773 148.093 669.647 148.008 670.543 148.008C671.439 148.008 672.303 148.093 673.135 148.264C673.989 148.435 674.746 148.723 675.407 149.128C676.069 149.533 676.613 150.077 677.039 150.76C677.487 151.421 677.754 152.264 677.839 153.288H673.519C673.455 152.413 673.125 151.827 672.527 151.528C671.93 151.208 671.226 151.048 670.415 151.048C670.159 151.048 669.882 151.069 669.583 151.112C669.285 151.133 669.007 151.197 668.751 151.304C668.517 151.411 668.314 151.571 668.143 151.784C667.973 151.976 667.887 152.243 667.887 152.584C667.887 152.989 668.037 153.32 668.335 153.576C668.634 153.832 669.018 154.045 669.487 154.216C669.978 154.365 670.533 154.504 671.151 154.632C671.77 154.76 672.399 154.899 673.039 155.048C673.701 155.197 674.341 155.379 674.959 155.592C675.599 155.805 676.165 156.093 676.655 156.456C677.146 156.797 677.541 157.235 677.839 157.768C678.138 158.28 678.287 158.92 678.287 159.688C678.287 160.776 678.063 161.693 677.615 162.44C677.189 163.165 676.623 163.752 675.919 164.2C675.215 164.648 674.405 164.957 673.487 165.128C672.591 165.32 671.674 165.416 670.735 165.416C669.775 165.416 668.837 165.32 667.919 165.128C667.002 164.936 666.181 164.616 665.455 164.168C664.751 163.72 664.165 163.133 663.695 162.408C663.247 161.661 663.002 160.733 662.959 159.624H667.279ZM681.139 160.072H686.163V165H681.139V160.072Z" fill="#212121"/>
<path d="M701.555 -47.4881C734.776 8.0706 822.56 93.737 929.845 73.7899C1082 45.5 1048.93 -75.8378 1004.4 -109.675C940.77 -158.021 675.346 -128.926 799.406 131.346C929.844 405 1270.87 274.822 1320 220" stroke="white" stroke-width="11"/>
</g>
<defs>
<clipPath id="clip0_2362_202">
<rect width="981" height="240" rx="20" fill="white"/>
</clipPath>
</defs>
</svg>
