<svg width="16" height="20" viewBox="0 0 16 20" fill="none" xmlns="http://www.w3.org/2000/svg">
<path d="M5 3H3C2.46957 3 1.96086 3.21071 1.58579 3.58579C1.21071 3.96086 1 4.46957 1 5V17C1 17.5304 1.21071 18.0391 1.58579 18.4142C1.96086 18.7893 2.46957 19 3 19H13C13.5304 19 14.0391 18.7893 14.4142 18.4142C14.7893 18.0391 15 17.5304 15 17V5C15 4.46957 14.7893 3.96086 14.4142 3.58579C14.0391 3.21071 13.5304 3 13 3H11M5 3C5 2.46957 5.21071 1.96086 5.58579 1.58579C5.96086 1.21071 6.46957 1 7 1H9C9.53043 1 10.0391 1.21071 10.4142 1.58579C10.7893 1.96086 11 2.46957 11 3M5 3C5 3.53043 5.21071 4.03914 5.58579 4.41421C5.96086 4.78929 6.46957 5 7 5H9C9.53043 5 10.0391 4.78929 10.4142 4.41421C10.7893 4.03914 11 3.53043 11 3M10 9H7.5C7.10218 9 6.72064 9.15804 6.43934 9.43934C6.15804 9.72064 6 10.1022 6 10.5C6 10.8978 6.15804 11.2794 6.43934 11.5607C6.72064 11.842 7.10218 12 7.5 12H8.5C8.89782 12 9.27936 12.158 9.56066 12.4393C9.84196 12.7206 10 13.1022 10 13.5C10 13.8978 9.84196 14.2794 9.56066 14.5607C9.27936 14.842 8.89782 15 8.5 15H6M8 15V16M8 8V9" stroke="#6F49FE" stroke-width="1.8" stroke-linecap="round" stroke-linejoin="round"/>
</svg>
