<svg width="24" height="24" viewBox="0 0 24 24" fill="none" xmlns="http://www.w3.org/2000/svg">
<path fill-rule="evenodd" clip-rule="evenodd" d="M22 6C22 5.44772 21.5523 5 21 5H3C2.44772 5 2 5.44772 2 6C2 6.55228 2.44772 7 3 7H21C21.5523 7 22 6.55228 22 6Z" fill="#212121"/>
<path fill-rule="evenodd" clip-rule="evenodd" d="M18 12C18 11.4477 17.6418 11 17.2 11H2.8C2.35817 11 2 11.4477 2 12C2 12.5523 2.35817 13 2.8 13H17.2C17.6418 13 18 12.5523 18 12Z" fill="#212121"/>
<path fill-rule="evenodd" clip-rule="evenodd" d="M22 18C22 17.4477 21.5523 17 21 17H3C2.44772 17 2 17.4477 2 18C2 18.5523 2.44772 19 3 19H21C21.5523 19 22 18.5523 22 18Z" fill="#212121"/>
</svg>
