<svg width="34" height="32" viewBox="0 0 34 32" fill="none" xmlns="http://www.w3.org/2000/svg">
<g filter="url(#filter0_b_85_50077)">
<rect width="34" height="32" rx="8" fill="#212121"/>
<path d="M20.93 24.0625H13.07C10.97 24.0625 9.63501 22.81 9.51501 20.7175L9.12501 14.53C9.06501 13.5925 9.38751 12.6925 10.0325 12.01C10.67 11.3275 11.57 10.9375 12.5 10.9375C12.74 10.9375 12.9725 10.795 13.085 10.57L13.625 9.4975C14.0675 8.62 15.1775 7.9375 16.145 7.9375H17.8625C18.83 7.9375 19.9325 8.62 20.375 9.49L20.915 10.585C21.0275 10.795 21.2525 10.9375 21.5 10.9375C22.43 10.9375 23.33 11.3275 23.9675 12.01C24.6125 12.7 24.935 13.5925 24.875 14.53L24.485 20.725C24.35 22.8475 23.0525 24.0625 20.93 24.0625ZM16.145 9.0625C15.59 9.0625 14.885 9.4975 14.63 10L14.09 11.08C13.775 11.6875 13.1675 12.0625 12.5 12.0625C11.87 12.0625 11.285 12.3175 10.85 12.775C10.4225 13.2325 10.205 13.8325 10.25 14.455L10.64 20.65C10.73 22.165 11.5475 22.9375 13.07 22.9375H20.93C22.445 22.9375 23.2625 22.165 23.36 20.65L23.75 14.455C23.7875 13.8325 23.5775 13.2325 23.15 12.775C22.715 12.3175 22.13 12.0625 21.5 12.0625C20.8325 12.0625 20.225 11.6875 19.91 11.095L19.3625 10C19.115 9.505 18.41 9.07 17.855 9.07H16.145V9.0625Z" fill="white"/>
<path d="M18.125 13.5625H15.875C15.5675 13.5625 15.3125 13.3075 15.3125 13C15.3125 12.6925 15.5675 12.4375 15.875 12.4375H18.125C18.4325 12.4375 18.6875 12.6925 18.6875 13C18.6875 13.3075 18.4325 13.5625 18.125 13.5625Z" fill="white"/>
<path d="M17 21.0625C15.3425 21.0625 14 19.72 14 18.0625C14 16.405 15.3425 15.0625 17 15.0625C18.6575 15.0625 20 16.405 20 18.0625C20 19.72 18.6575 21.0625 17 21.0625ZM17 16.1875C15.965 16.1875 15.125 17.0275 15.125 18.0625C15.125 19.0975 15.965 19.9375 17 19.9375C18.035 19.9375 18.875 19.0975 18.875 18.0625C18.875 17.0275 18.035 16.1875 17 16.1875Z" fill="white"/>
</g>
<defs>
<filter id="filter0_b_85_50077" x="-64" y="-64" width="162" height="160" filterUnits="userSpaceOnUse" color-interpolation-filters="sRGB">
<feFlood flood-opacity="0" result="BackgroundImageFix"/>
<feGaussianBlur in="BackgroundImageFix" stdDeviation="32"/>
<feComposite in2="SourceAlpha" operator="in" result="effect1_backgroundBlur_85_50077"/>
<feBlend mode="normal" in="SourceGraphic" in2="effect1_backgroundBlur_85_50077" result="shape"/>
</filter>
</defs>
</svg>
