<svg width="18" height="19" viewBox="0 0 18 19" fill="none" xmlns="http://www.w3.org/2000/svg">
<path d="M9 17.5625C4.5525 17.5625 0.9375 13.9475 0.9375 9.5C0.9375 5.0525 4.5525 1.4375 9 1.4375C13.4475 1.4375 17.0625 5.0525 17.0625 9.5C17.0625 13.9475 13.4475 17.5625 9 17.5625ZM9 2.5625C5.175 2.5625 2.0625 5.675 2.0625 9.5C2.0625 13.325 5.175 16.4375 9 16.4375C12.825 16.4375 15.9375 13.325 15.9375 9.5C15.9375 5.675 12.825 2.5625 9 2.5625Z" fill="#212121"/>
<path d="M6.87703 12.1845C6.73453 12.1845 6.59203 12.132 6.47953 12.0195C6.26203 11.802 6.26203 11.442 6.47953 11.2245L10.7245 6.97953C10.942 6.76203 11.302 6.76203 11.5195 6.97953C11.737 7.19703 11.737 7.55703 11.5195 7.77453L7.27453 12.0195C7.16953 12.132 7.01953 12.1845 6.87703 12.1845Z" fill="#212121"/>
<path d="M11.122 12.1845C10.9795 12.1845 10.837 12.132 10.7245 12.0195L6.47953 7.77453C6.26203 7.55703 6.26203 7.19703 6.47953 6.97953C6.69703 6.76203 7.05703 6.76203 7.27453 6.97953L11.5195 11.2245C11.737 11.442 11.737 11.802 11.5195 12.0195C11.407 12.132 11.2645 12.1845 11.122 12.1845Z" fill="#212121"/>
</svg>
