<svg width="32" height="33" viewBox="0 0 32 33" fill="none" xmlns="http://www.w3.org/2000/svg">
<g id="vuesax/outline/cloud-add">
<g id="vuesax/outline/cloud-add_2">
<g id="cloud-add">
<path id="Vector" d="M9.94714 26.4047H7.38708C3.46708 26.1247 1.70715 23.1113 1.70715 20.4313C1.70715 17.7513 3.4671 14.7247 7.32043 14.458C7.8671 14.4047 8.34708 14.8313 8.38708 15.3913C8.42708 15.938 8.01382 16.418 7.45382 16.458C4.86715 16.6447 3.70715 18.5913 3.70715 20.4447C3.70715 22.298 4.86715 24.2447 7.45382 24.4313H9.94714C10.4938 24.4313 10.9471 24.8847 10.9471 25.4313C10.9471 25.978 10.4938 26.4047 9.94714 26.4047Z" fill="#212121"/>
<path id="Vector_2" d="M22.2262 26.4045C22.1995 26.4045 22.1862 26.4045 22.1596 26.4045C21.6129 26.4045 21.1062 25.9512 21.1062 25.4045C21.1062 24.8312 21.5329 24.4045 22.0929 24.4045C23.7329 24.4045 25.1996 23.8312 26.3462 22.8045C28.4262 20.9912 28.5596 18.3779 27.9996 16.5379C27.4396 14.7112 25.8796 12.6179 23.1596 12.2845C22.7196 12.2312 22.3729 11.8979 22.2929 11.4579C21.7595 8.25789 20.0396 6.04455 17.4262 5.24455C14.7329 4.40455 11.5862 5.23122 9.62619 7.28455C7.71952 9.27121 7.27953 12.0579 8.3862 15.1246C8.57286 15.6446 8.30626 16.2179 7.78626 16.4045C7.26626 16.5912 6.6929 16.3245 6.50623 15.8045C5.15957 12.0445 5.77291 8.44455 8.18625 5.91122C10.6529 3.32455 14.6129 2.29787 18.0129 3.33787C21.1329 4.29787 23.3329 6.87121 24.1329 10.4445C26.8529 11.0579 29.0395 13.1246 29.9062 15.9779C30.8529 19.0846 29.9996 22.2846 27.6662 24.3112C26.1862 25.6446 24.2529 26.4045 22.2262 26.4045Z" fill="#212121"/>
<path id="Vector_3" d="M16.0003 30.3245C13.3203 30.3245 10.8136 28.8979 9.44031 26.5912C9.29364 26.3645 9.14698 26.0979 9.02698 25.8045C8.57364 24.8579 8.33362 23.7779 8.33362 22.6579C8.33362 18.4312 11.7736 14.9912 16.0003 14.9912C20.227 14.9912 23.667 18.4312 23.667 22.6579C23.667 23.7912 23.427 24.8579 22.947 25.8445C22.8403 26.0979 22.6937 26.3645 22.5337 26.6179C21.187 28.8979 18.6803 30.3245 16.0003 30.3245ZM16.0003 16.9912C12.8803 16.9912 10.3336 19.5379 10.3336 22.6579C10.3336 23.4845 10.507 24.2579 10.8403 24.9645C10.947 25.1912 11.0403 25.3779 11.1469 25.5512C12.1603 27.2712 14.0136 28.3245 15.9869 28.3245C17.9603 28.3245 19.8136 27.2712 20.8136 25.5779C20.9336 25.3779 21.0403 25.1912 21.1203 25.0045C21.4803 24.2712 21.6536 23.4979 21.6536 22.6712C21.6669 19.5379 19.1203 16.9912 16.0003 16.9912Z" fill="#212121"/>
<path id="Vector_4" d="M15.2399 24.9779C14.9866 24.9779 14.7333 24.8845 14.5333 24.6845L13.2132 23.3645C12.8266 22.9779 12.8266 22.3379 13.2132 21.9512C13.5999 21.5645 14.2399 21.5645 14.6265 21.9512L15.2666 22.5912L17.3999 20.6179C17.8132 20.2445 18.4399 20.2712 18.8132 20.6712C19.1866 21.0712 19.1599 21.7112 18.7599 22.0845L15.9199 24.7112C15.7199 24.8845 15.4799 24.9779 15.2399 24.9779Z" fill="#212121"/>
</g>
</g>
</g>
</svg>
