<svg xmlns="http://www.w3.org/2000/svg" width="16" height="16" viewBox="0 0 16 16" fill="none">
    <path d="M0 2.19234C0 0.981542 0.955126 0 2.13333 0H13.8667C15.0449 0 16 0.981543 16 2.19234V9.78838C16 10.5214 15.6435 11.2059 15.05 11.6125L9.18336 15.6318C8.46677 16.1227 7.53323 16.1227 6.81664 15.6318L0.949973 11.6125C0.356482 11.2059 0 10.5214 0 9.78838V2.19234Z" fill="#F4B000"/>
    <path fill-rule="evenodd" clip-rule="evenodd" d="M7.99844 3.19948C8.29299 3.19948 8.53177 2.9607 8.53177 2.66615C8.53177 2.37159 8.29299 2.13281 7.99844 2.13281C7.70389 2.13281 7.4651 2.37159 7.4651 2.66615C7.4651 2.9607 7.70389 3.19948 7.99844 3.19948ZM3.19844 5.33359L5.59844 6.40026L7.99844 4.26693L10.3984 6.40026L12.7984 5.33359L11.7318 8.53359H4.2651L3.19844 5.33359ZM4.26719 9.59974H11.7339V10.6664H4.26719V9.59974ZM3.19948 3.73229C3.19948 4.02684 2.9607 4.26562 2.66615 4.26562C2.37159 4.26562 2.13281 4.02684 2.13281 3.73229C2.13281 3.43774 2.37159 3.19896 2.66615 3.19896C2.9607 3.19896 3.19948 3.43774 3.19948 3.73229ZM13.3339 4.26562C13.6284 4.26562 13.8672 4.02684 13.8672 3.73229C13.8672 3.43774 13.6284 3.19896 13.3339 3.19896C13.0393 3.19896 12.8005 3.43774 12.8005 3.73229C12.8005 4.02684 13.0393 4.26562 13.3339 4.26562Z" fill="white"/>
  </svg>