<svg width="24" height="24" viewBox="0 0 24 24" fill="none" xmlns="http://www.w3.org/2000/svg">
<path d="M4.00098 5C4.00098 4.73478 4.10633 4.48043 4.29387 4.29289C4.48141 4.10536 4.73576 4 5.00098 4H9.00098C9.26619 4 9.52055 4.10536 9.70808 4.29289C9.89562 4.48043 10.001 4.73478 10.001 5V9C10.001 9.26522 9.89562 9.51957 9.70808 9.70711C9.52055 9.89464 9.26619 10 9.00098 10H5.00098C4.73576 10 4.48141 9.89464 4.29387 9.70711C4.10633 9.51957 4.00098 9.26522 4.00098 9V5Z" stroke="#6F49FE" stroke-width="1.8" stroke-linecap="round" stroke-linejoin="round"/>
<path d="M14.001 5C14.001 4.73478 14.1063 4.48043 14.2939 4.29289C14.4814 4.10536 14.7358 4 15.001 4H19.001C19.2662 4 19.5205 4.10536 19.7081 4.29289C19.8956 4.48043 20.001 4.73478 20.001 5V9C20.001 9.26522 19.8956 9.51957 19.7081 9.70711C19.5205 9.89464 19.2662 10 19.001 10H15.001C14.7358 10 14.4814 9.89464 14.2939 9.70711C14.1063 9.51957 14.001 9.26522 14.001 9V5Z" stroke="#6F49FE" stroke-width="1.8" stroke-linecap="round" stroke-linejoin="round"/>
<path d="M4.00098 15C4.00098 14.7348 4.10633 14.4804 4.29387 14.2929C4.48141 14.1054 4.73576 14 5.00098 14H9.00098C9.26619 14 9.52055 14.1054 9.70808 14.2929C9.89562 14.4804 10.001 14.7348 10.001 15V19C10.001 19.2652 9.89562 19.5196 9.70808 19.7071C9.52055 19.8946 9.26619 20 9.00098 20H5.00098C4.73576 20 4.48141 19.8946 4.29387 19.7071C4.10633 19.5196 4.00098 19.2652 4.00098 19V15Z" stroke="#6F49FE" stroke-width="1.8" stroke-linecap="round" stroke-linejoin="round"/>
<path d="M14.001 15C14.001 14.7348 14.1063 14.4804 14.2939 14.2929C14.4814 14.1054 14.7358 14 15.001 14H19.001C19.2662 14 19.5205 14.1054 19.7081 14.2929C19.8956 14.4804 20.001 14.7348 20.001 15V19C20.001 19.2652 19.8956 19.5196 19.7081 19.7071C19.5205 19.8946 19.2662 20 19.001 20H15.001C14.7358 20 14.4814 19.8946 14.2939 19.7071C14.1063 19.5196 14.001 19.2652 14.001 19V15Z" stroke="#6F49FE" stroke-width="1.8" stroke-linecap="round" stroke-linejoin="round"/>
</svg>
