<svg width="28" height="28" viewBox="0 0 28 28" fill="none" xmlns="http://www.w3.org/2000/svg">
<path d="M14 26C20.6274 26 26 20.6274 26 14C26 7.37258 20.6274 2 14 2C7.37258 2 2 7.37258 2 14C2 20.6274 7.37258 26 14 26Z" stroke="#212121" stroke-width="2"/>
<path d="M14.0008 5.6001V22.4001M18.2008 10.5001C18.2008 8.5681 16.3206 7.0001 14.0008 7.0001C11.681 7.0001 9.80078 8.5681 9.80078 10.5001C9.80078 12.4321 11.681 14.0001 14.0008 14.0001C16.3206 14.0001 18.2008 15.5681 18.2008 17.5001C18.2008 19.4321 16.3206 21.0001 14.0008 21.0001C11.681 21.0001 9.80078 19.4321 9.80078 17.5001" stroke="#212121" stroke-width="2" stroke-linecap="round"/>
</svg>
