<svg width="25" height="24" viewBox="0 0 25 24" fill="none" xmlns="http://www.w3.org/2000/svg">
<path d="M18.3321 7.16C18.2721 7.15 18.2021 7.15 18.1421 7.16C16.7621 7.11 15.6621 5.98 15.6621 4.58C15.6621 3.15 16.8121 2 18.2421 2C19.6721 2 20.8221 3.16 20.8221 4.58C20.8121 5.98 19.7121 7.11 18.3321 7.16Z" stroke="#212121" stroke-width="1.5" stroke-linecap="round" stroke-linejoin="round"/>
<path d="M17.3015 14.4402C18.6715 14.6702 20.1815 14.4302 21.2415 13.7202C22.6515 12.7802 22.6515 11.2402 21.2415 10.3002C20.1715 9.59016 18.6415 9.35016 17.2715 9.59016" stroke="#212121" stroke-width="1.5" stroke-linecap="round" stroke-linejoin="round"/>
<path d="M6.30445 7.16C6.36445 7.15 6.43445 7.15 6.49445 7.16C7.87445 7.11 8.97445 5.98 8.97445 4.58C8.97445 3.15 7.82445 2 6.39445 2C4.96446 2 3.81445 3.16 3.81445 4.58C3.82445 5.98 4.92445 7.11 6.30445 7.16Z" stroke="#212121" stroke-width="1.5" stroke-linecap="round" stroke-linejoin="round"/>
<path d="M7.33539 14.4402C5.96539 14.6702 4.45539 14.4302 3.39539 13.7202C1.98539 12.7802 1.98539 11.2402 3.39539 10.3002C4.46539 9.59016 5.99539 9.35016 7.36539 9.59016" stroke="#212121" stroke-width="1.5" stroke-linecap="round" stroke-linejoin="round"/>
<path d="M12.3321 14.6297C12.2721 14.6197 12.2021 14.6197 12.1421 14.6297C10.7621 14.5797 9.66211 13.4497 9.66211 12.0497C9.66211 10.6197 10.8121 9.46973 12.2421 9.46973C13.6721 9.46973 14.8221 10.6297 14.8221 12.0497C14.8121 13.4497 13.7121 14.5897 12.3321 14.6297Z" stroke="#212121" stroke-width="1.5" stroke-linecap="round" stroke-linejoin="round"/>
<path d="M9.42273 17.7794C8.01273 18.7194 8.01273 20.2594 9.42273 21.1994C11.0227 22.2694 13.6427 22.2694 15.2427 21.1994C16.6527 20.2594 16.6527 18.7194 15.2427 17.7794C13.6527 16.7194 11.0227 16.7194 9.42273 17.7794Z" stroke="#212121" stroke-width="1.5" stroke-linecap="round" stroke-linejoin="round"/>
</svg>
