<svg width="565" height="475" viewBox="0 0 565 475" fill="none" xmlns="http://www.w3.org/2000/svg">
<g clip-path="url(#clip0_2290_19140)">
<rect width="565.48" height="475.194" rx="23.7597" transform="matrix(-1 0 0 1 565.891 0)" fill="#FFEBE3"/>
<rect x="58.3633" y="28.9512" width="409.751" height="390.117" rx="17.073" fill="white"/>
<path d="M254.18 104.395C254.18 102.054 252.28 100.142 249.943 100.287C238.877 100.975 228.121 104.348 218.618 110.142C209.116 115.936 201.191 123.953 195.512 133.475C194.313 135.486 195.142 138.05 197.223 139.122L213.976 147.754C216.057 148.826 218.596 147.993 219.877 146.034C223.202 140.95 227.626 136.653 232.843 133.472C238.06 130.291 243.906 128.326 249.948 127.699C252.277 127.457 254.18 125.582 254.18 123.241V104.395Z" fill="#FFA36B"/>
<path d="M336.63 185.373C338.971 185.373 340.881 183.473 340.75 181.136C340.274 172.685 338.378 164.364 335.131 156.526C331.343 147.381 325.79 139.071 318.79 132.071C311.791 125.071 303.481 119.519 294.336 115.731C286.497 112.484 278.176 110.588 269.726 110.112C267.388 109.98 265.489 111.891 265.489 114.232V135.906C265.489 138.247 267.391 140.124 269.722 140.343C274.21 140.765 278.618 141.856 282.797 143.588C288.284 145.86 293.27 149.192 297.47 153.392C301.67 157.591 305.001 162.577 307.274 168.065C309.005 172.244 310.096 176.652 310.518 181.14C310.737 183.471 312.615 185.373 314.956 185.373H336.63Z" fill="#FFE0BB"/>
<path d="M271.689 256.243C271.893 258.575 273.952 260.312 276.269 259.977C292.155 257.682 306.936 250.367 318.417 239.045C329.898 227.723 337.419 213.046 339.936 197.194C340.303 194.881 338.595 192.798 336.266 192.562L314.703 190.371C312.373 190.135 310.314 191.838 309.86 194.134C308.109 203.005 303.73 211.182 297.246 217.576C290.762 223.97 282.524 228.234 273.63 229.862C271.328 230.283 269.596 232.319 269.8 234.651L271.689 256.243Z" fill="#05A4A6"/>
<path d="M202.183 154.187C200.079 153.16 197.529 154.03 196.623 156.189C192.269 166.557 190.283 177.787 190.834 189.055C191.454 201.737 195.268 214.056 201.921 224.87C208.574 235.685 217.851 244.643 228.891 250.915C238.7 256.487 249.618 259.778 260.836 260.567C263.172 260.731 265.098 258.847 265.13 256.506L265.433 234.835C265.466 232.494 263.59 230.59 261.263 230.338C255.127 229.675 249.176 227.761 243.784 224.698C237.16 220.935 231.594 215.56 227.602 209.071C223.61 202.583 221.322 195.191 220.95 187.582C220.647 181.388 221.622 175.213 223.796 169.437C224.621 167.246 223.768 164.714 221.663 163.688L202.183 154.187Z" fill="#87E9FF"/>
<rect x="101.479" y="293.896" width="17.7304" height="17.7304" rx="3.54607" fill="#87E9FF"/>
<path d="M137.766 292.762L136.91 290.826H132.156L131.3 292.762H130.245L134.005 284.235H135.06L138.821 292.762H137.766ZM132.553 289.907H136.513L134.539 285.427L132.553 289.907ZM142.282 292.762L139.552 286.345H140.594L142.729 291.67L144.827 286.345H145.869L143.176 292.762H142.282ZM149.263 286.196C151.013 286.196 151.869 287.301 151.869 288.852V292.762H150.938V291.756C150.479 292.513 149.523 292.911 148.68 292.911C147.327 292.911 146.334 292.129 146.334 290.863C146.334 289.584 147.476 288.728 148.853 288.728C149.548 288.728 150.281 288.877 150.938 289.088V288.852C150.938 287.983 150.591 286.99 149.201 286.99C148.555 286.99 147.91 287.276 147.327 287.574L146.954 286.817C147.873 286.358 148.642 286.196 149.263 286.196ZM148.841 292.092C149.685 292.092 150.69 291.657 150.938 290.751V289.771C150.355 289.609 149.697 289.51 149.002 289.51C148.047 289.51 147.24 290.056 147.24 290.826C147.24 291.62 147.935 292.092 148.841 292.092ZM154.23 285.178C153.883 285.178 153.61 284.893 153.61 284.558C153.61 284.235 153.883 283.95 154.23 283.95C154.565 283.95 154.838 284.235 154.838 284.558C154.838 284.893 154.565 285.178 154.23 285.178ZM153.759 292.762V286.345H154.69V292.762H153.759ZM156.559 292.762V284.086H157.49V292.762H156.559ZM161.977 286.196C163.727 286.196 164.583 287.301 164.583 288.852V292.762H163.653V291.756C163.193 292.513 162.238 292.911 161.394 292.911C160.041 292.911 159.048 292.129 159.048 290.863C159.048 289.584 160.19 288.728 161.568 288.728C162.263 288.728 162.995 288.877 163.653 289.088V288.852C163.653 287.983 163.305 286.99 161.915 286.99C161.27 286.99 160.624 287.276 160.041 287.574L159.669 286.817C160.587 286.358 161.357 286.196 161.977 286.196ZM161.555 292.092C162.399 292.092 163.404 291.657 163.653 290.751V289.771C163.069 289.609 162.411 289.51 161.716 289.51C160.761 289.51 159.954 290.056 159.954 290.826C159.954 291.62 160.649 292.092 161.555 292.092ZM169.836 286.196C171.524 286.196 172.79 287.586 172.79 289.547C172.79 291.521 171.524 292.911 169.836 292.911C168.806 292.911 167.987 292.402 167.503 291.558V292.762H166.572V284.086H167.503V287.549C167.987 286.705 168.806 286.196 169.836 286.196ZM169.663 292.079C170.916 292.079 171.81 291.024 171.81 289.547C171.81 288.07 170.916 287.028 169.663 287.028C168.397 287.028 167.503 288.07 167.503 289.547C167.503 291.024 168.397 292.079 169.663 292.079ZM174.4 292.762V284.086H175.331V292.762H174.4ZM180.104 292.079C180.861 292.079 181.73 291.744 182.127 291.31L182.698 291.918C182.139 292.526 181.01 292.911 180.116 292.911C178.403 292.911 176.864 291.508 176.864 289.535C176.864 287.623 178.304 286.196 180.029 286.196C181.965 286.196 183.07 287.661 183.07 289.907H177.82C177.957 291.161 178.838 292.079 180.104 292.079ZM180.067 287.028C178.925 287.028 178.006 287.834 177.832 289.076H182.152C182.027 287.921 181.345 287.028 180.067 287.028ZM188.416 292.762V284.235H192.326C193.704 284.235 194.672 285.116 194.672 286.358C194.672 287.264 194.225 287.785 193.455 288.232C194.436 288.728 195.007 289.498 195.007 290.428C195.007 291.794 193.952 292.762 192.475 292.762H188.416ZM189.384 287.847H192.078C193.021 287.847 193.691 287.276 193.691 286.482C193.691 285.687 193.021 285.116 192.078 285.116H189.384V287.847ZM189.384 291.881H192.227C193.282 291.881 194.026 291.223 194.026 290.304C194.026 289.386 193.282 288.728 192.227 288.728H189.384V291.881ZM199.259 286.196C201.009 286.196 201.866 287.301 201.866 288.852V292.762H200.935V291.756C200.476 292.513 199.52 292.911 198.676 292.911C197.323 292.911 196.33 292.129 196.33 290.863C196.33 289.584 197.472 288.728 198.85 288.728C199.545 288.728 200.277 288.877 200.935 289.088V288.852C200.935 287.983 200.587 286.99 199.197 286.99C198.552 286.99 197.907 287.276 197.323 287.574L196.951 286.817C197.869 286.358 198.639 286.196 199.259 286.196ZM198.837 292.092C199.681 292.092 200.687 291.657 200.935 290.751V289.771C200.352 289.609 199.694 289.51 198.999 289.51C198.043 289.51 197.236 290.056 197.236 290.826C197.236 291.62 197.931 292.092 198.837 292.092ZM203.768 292.762V284.086H204.698V292.762H203.768ZM209.186 286.196C210.936 286.196 211.792 287.301 211.792 288.852V292.762H210.861V291.756C210.402 292.513 209.447 292.911 208.603 292.911C207.25 292.911 206.257 292.129 206.257 290.863C206.257 289.584 207.399 288.728 208.776 288.728C209.471 288.728 210.204 288.877 210.861 289.088V288.852C210.861 287.983 210.514 286.99 209.124 286.99C208.478 286.99 207.833 287.276 207.25 287.574L206.877 286.817C207.796 286.358 208.565 286.196 209.186 286.196ZM208.764 292.092C209.608 292.092 210.613 291.657 210.861 290.751V289.771C210.278 289.609 209.62 289.51 208.925 289.51C207.97 289.51 207.163 290.056 207.163 290.826C207.163 291.62 207.858 292.092 208.764 292.092ZM216.747 286.196C218.162 286.196 219.155 287.226 219.155 288.678V292.762H218.224V288.803C218.224 287.76 217.567 287.028 216.623 287.028C215.544 287.028 214.637 287.785 214.637 288.678V292.762H213.707V286.345H214.637V287.375C215.01 286.693 215.841 286.196 216.747 286.196ZM224.018 292.911C222.218 292.911 220.692 291.372 220.692 289.547C220.692 287.723 222.218 286.196 224.018 286.196C224.887 286.196 225.693 286.556 226.302 287.139L225.656 287.772C225.234 287.313 224.651 287.028 224.018 287.028C222.74 287.028 221.672 288.182 221.672 289.547C221.672 290.925 222.74 292.079 224.018 292.079C224.663 292.079 225.259 291.781 225.693 291.297L226.339 291.93C225.731 292.538 224.911 292.911 224.018 292.911ZM230.658 292.079C231.415 292.079 232.284 291.744 232.681 291.31L233.252 291.918C232.693 292.526 231.564 292.911 230.67 292.911C228.957 292.911 227.418 291.508 227.418 289.535C227.418 287.623 228.858 286.196 230.583 286.196C232.519 286.196 233.624 287.661 233.624 289.907H228.374C228.511 291.161 229.392 292.079 230.658 292.079ZM230.621 287.028C229.479 287.028 228.56 287.834 228.387 289.076H232.706C232.582 287.921 231.899 287.028 230.621 287.028Z" fill="#666666"/>
<path d="M140.397 314.109C140.397 316.272 138.872 317.762 136.248 317.957V319.074H134.528V317.904C132.88 317.691 131.408 317.017 130.255 315.953L131.763 314.162C132.596 314.872 133.5 315.386 134.528 315.616V312.673C132.312 312.106 130.787 311.308 130.787 309.162C130.787 307.141 132.277 305.687 134.528 305.404V304.304H136.248V305.421C137.791 305.581 139.032 306.166 140.06 307.053L138.695 308.932C137.933 308.311 137.082 307.904 136.248 307.709V310.545C138.748 311.113 140.397 311.911 140.397 314.109ZM133.429 308.897C133.429 309.482 133.748 309.819 134.528 310.084V307.673C133.837 307.85 133.429 308.329 133.429 308.897ZM136.248 315.723C137.241 315.599 137.755 315.049 137.755 314.393C137.755 313.719 137.33 313.4 136.248 313.099V315.723ZM141.848 317.762V315.634L146.334 312.159C147.787 311.006 148.248 310.209 148.248 309.358C148.248 308.347 147.397 307.744 146.404 307.744C145.217 307.744 144.312 308.347 143.426 309.358L141.759 307.744C142.965 306.219 144.507 305.368 146.475 305.368C149.064 305.368 150.943 306.964 150.943 309.251C150.943 310.882 150.234 312.141 148.107 313.684L145.89 315.404H151.05V317.762H141.848ZM158.538 317.762V315.279H152.598L152.35 313.258L157.988 305.599H161.162V313.081H162.775V315.279H161.162V317.762H158.538ZM155.098 313.081H158.538V308.365L155.098 313.081ZM169.663 317.974C166.453 317.974 164.202 315.368 164.202 311.662C164.202 307.975 166.453 305.368 169.663 305.368C172.872 305.368 175.141 307.975 175.141 311.662C175.141 315.368 172.872 317.974 169.663 317.974ZM169.663 315.599C171.312 315.599 172.446 313.95 172.446 311.662C172.446 309.375 171.312 307.744 169.663 307.744C168.031 307.744 166.879 309.375 166.879 311.662C166.879 313.95 168.031 315.599 169.663 315.599Z" fill="#212121"/>
<path d="M177.747 317.911C177.101 317.911 176.593 317.389 176.593 316.756C176.593 316.173 177.101 315.652 177.747 315.652C178.355 315.652 178.851 316.173 178.851 316.756C178.851 317.389 178.355 317.911 177.747 317.911ZM183.27 317.923C181.731 317.923 180.565 317.315 179.845 316.483L180.925 315.267C181.52 315.912 182.327 316.272 183.183 316.272C184.127 316.272 184.673 315.838 184.673 315.23C184.673 314.572 184.164 314.237 183.01 314.249H182.029V312.686L183.01 312.698C183.941 312.698 184.499 312.35 184.499 311.742C184.499 311.122 183.916 310.725 183.072 310.725C182.265 310.725 181.632 311.122 181.061 311.717L180.006 310.6C180.714 309.744 181.731 309.086 183.245 309.086C185.169 309.086 186.373 310.067 186.373 311.42C186.373 312.4 185.703 313.107 184.772 313.381C185.703 313.592 186.559 314.249 186.559 315.379C186.559 316.856 185.256 317.923 183.27 317.923ZM191.43 317.911C189.184 317.911 187.607 316.086 187.607 313.492C187.607 310.911 189.184 309.086 191.43 309.086C193.676 309.086 195.265 310.911 195.265 313.492C195.265 316.086 193.676 317.911 191.43 317.911ZM191.43 316.248C192.584 316.248 193.379 315.093 193.379 313.492C193.379 311.891 192.584 310.749 191.43 310.749C190.288 310.749 189.481 311.891 189.481 313.492C189.481 315.093 190.288 316.248 191.43 316.248Z" fill="#666666"/>
<rect x="285.506" y="293.896" width="17.7304" height="17.7304" rx="3.54607" fill="#FFA36B"/>
<path d="M317.301 292.762V285.154H314.434V284.235H321.136V285.154H318.269V292.762H317.301ZM325.615 292.911C323.815 292.911 322.288 291.372 322.288 289.547C322.288 287.723 323.815 286.196 325.615 286.196C327.414 286.196 328.928 287.723 328.928 289.547C328.928 291.372 327.414 292.911 325.615 292.911ZM325.615 292.079C326.881 292.079 327.948 290.925 327.948 289.547C327.948 288.182 326.881 287.028 325.615 287.028C324.336 287.028 323.269 288.182 323.269 289.547C323.269 290.925 324.336 292.079 325.615 292.079ZM333.283 291.818L333.742 292.501C333.407 292.762 332.985 292.911 332.551 292.911C331.632 292.911 330.987 292.228 330.987 291.272V287.177H329.982V286.345H330.987V284.583H331.918V286.345H333.494V287.177H331.918V291.272C331.918 291.744 332.24 292.079 332.613 292.079C332.898 292.079 333.146 291.967 333.283 291.818ZM337.666 286.196C339.416 286.196 340.272 287.301 340.272 288.852V292.762H339.341V291.756C338.882 292.513 337.926 292.911 337.082 292.911C335.729 292.911 334.737 292.129 334.737 290.863C334.737 289.584 335.878 288.728 337.256 288.728C337.951 288.728 338.683 288.877 339.341 289.088V288.852C339.341 287.983 338.994 286.99 337.604 286.99C336.958 286.99 336.313 287.276 335.729 287.574L335.357 286.817C336.276 286.358 337.045 286.196 337.666 286.196ZM337.244 292.092C338.088 292.092 339.093 291.657 339.341 290.751V289.771C338.758 289.609 338.1 289.51 337.405 289.51C336.449 289.51 335.643 290.056 335.643 290.826C335.643 291.62 336.338 292.092 337.244 292.092ZM342.174 292.762V284.086H343.105V292.762H342.174ZM354.742 285.154H349.603V287.959H354.233V288.877H349.603V291.843H354.742V292.762H348.623V284.235H354.742V285.154ZM358.973 286.196C360.723 286.196 361.58 287.301 361.58 288.852V292.762H360.649V291.756C360.19 292.513 359.234 292.911 358.39 292.911C357.037 292.911 356.044 292.129 356.044 290.863C356.044 289.584 357.186 288.728 358.564 288.728C359.259 288.728 359.991 288.877 360.649 289.088V288.852C360.649 287.983 360.301 286.99 358.911 286.99C358.266 286.99 357.62 287.276 357.037 287.574L356.665 286.817C357.583 286.358 358.353 286.196 358.973 286.196ZM358.551 292.092C359.395 292.092 360.401 291.657 360.649 290.751V289.771C360.065 289.609 359.408 289.51 358.713 289.51C357.757 289.51 356.95 290.056 356.95 290.826C356.95 291.62 357.645 292.092 358.551 292.092ZM364.499 287.599C364.884 286.742 365.802 286.196 366.982 286.196V287.028C365.529 287.028 364.499 287.921 364.499 289.175V292.762H363.568V286.345H364.499V287.599ZM371.322 286.196C372.737 286.196 373.73 287.226 373.73 288.678V292.762H372.799V288.803C372.799 287.76 372.141 287.028 371.198 287.028C370.118 287.028 369.212 287.785 369.212 288.678V292.762H368.281V286.345H369.212V287.375C369.585 286.693 370.416 286.196 371.322 286.196ZM376.073 285.178C375.726 285.178 375.453 284.893 375.453 284.558C375.453 284.235 375.726 283.95 376.073 283.95C376.408 283.95 376.681 284.235 376.681 284.558C376.681 284.893 376.408 285.178 376.073 285.178ZM375.602 292.762V286.345H376.532V292.762H375.602ZM381.455 286.196C382.87 286.196 383.863 287.226 383.863 288.678V292.762H382.932V288.803C382.932 287.76 382.274 287.028 381.331 287.028C380.251 287.028 379.345 287.785 379.345 288.678V292.762H378.414V286.345H379.345V287.375C379.717 286.693 380.549 286.196 381.455 286.196ZM390.736 286.345H391.667V292.079C391.667 293.73 390.364 294.896 388.514 294.896C387.472 294.896 386.504 294.537 385.92 294.04L386.33 293.308C386.826 293.779 387.596 294.065 388.39 294.065C389.867 294.065 390.736 293.333 390.736 292.079V291.037C390.24 291.818 389.42 292.29 388.403 292.29C386.677 292.29 385.449 291.024 385.449 289.237C385.449 287.45 386.677 286.196 388.403 286.196C389.42 286.196 390.24 286.668 390.736 287.45V286.345ZM388.576 291.459C389.842 291.459 390.736 290.54 390.736 289.237C390.736 287.946 389.842 287.028 388.576 287.028C387.323 287.028 386.429 287.946 386.429 289.237C386.429 290.54 387.323 291.459 388.576 291.459ZM395.908 292.911C395.015 292.911 394.022 292.576 393.252 291.955L393.736 291.272C394.469 291.806 395.201 292.079 395.908 292.079C396.752 292.079 397.323 291.682 397.323 291.074C397.323 290.379 396.578 290.155 395.71 289.907C394.158 289.46 393.563 289.001 393.563 288.083C393.563 286.916 394.531 286.196 395.809 286.196C396.603 286.196 397.422 286.469 398.105 286.916L397.658 287.636C397.013 287.226 396.38 287.028 395.809 287.028C395.089 287.028 394.493 287.35 394.493 287.971C394.493 288.529 394.965 288.703 396.156 289.088C397.187 289.411 398.254 289.758 398.254 290.974C398.254 292.154 397.236 292.911 395.908 292.911Z" fill="#666666"/>
<path d="M324.425 314.109C324.425 316.272 322.9 317.762 320.276 317.957V319.074H318.556V317.904C316.907 317.691 315.435 317.017 314.283 315.953L315.79 314.162C316.623 314.872 317.527 315.386 318.556 315.616V312.673C316.34 312.106 314.815 311.308 314.815 309.162C314.815 307.141 316.304 305.687 318.556 305.404V304.304H320.276V305.421C321.818 305.581 323.059 306.166 324.088 307.053L322.722 308.932C321.96 308.311 321.109 307.904 320.276 307.709V310.545C322.776 311.113 324.425 311.911 324.425 314.109ZM317.457 308.897C317.457 309.482 317.776 309.819 318.556 310.084V307.673C317.864 307.85 317.457 308.329 317.457 308.897ZM320.276 315.723C321.269 315.599 321.783 315.049 321.783 314.393C321.783 313.719 321.357 313.4 320.276 313.099V315.723ZM325.875 317.762V315.634L330.361 312.159C331.815 311.006 332.276 310.209 332.276 309.358C332.276 308.347 331.425 307.744 330.432 307.744C329.244 307.744 328.34 308.347 327.453 309.358L325.786 307.744C326.992 306.219 328.535 305.368 330.503 305.368C333.091 305.368 334.971 306.964 334.971 309.251C334.971 310.882 334.262 312.141 332.134 313.684L329.918 315.404H335.077V317.762H325.875ZM342.565 317.762V315.279H336.626L336.377 313.258L342.016 305.599H345.189V313.081H346.803V315.279H345.189V317.762H342.565ZM339.126 313.081H342.565V308.365L339.126 313.081ZM353.69 317.974C350.481 317.974 348.229 315.368 348.229 311.662C348.229 307.975 350.481 305.368 353.69 305.368C356.899 305.368 359.169 307.975 359.169 311.662C359.169 315.368 356.899 317.974 353.69 317.974ZM353.69 315.599C355.339 315.599 356.474 313.95 356.474 311.662C356.474 309.375 355.339 307.744 353.69 307.744C352.059 307.744 350.906 309.375 350.906 311.662C350.906 313.95 352.059 315.599 353.69 315.599Z" fill="#212121"/>
<path d="M361.774 317.911C361.129 317.911 360.62 317.389 360.62 316.756C360.62 316.173 361.129 315.652 361.774 315.652C362.382 315.652 362.879 316.173 362.879 316.756C362.879 317.389 362.382 317.911 361.774 317.911ZM367.298 317.923C365.759 317.923 364.592 317.315 363.872 316.483L364.952 315.267C365.548 315.912 366.354 316.272 367.211 316.272C368.154 316.272 368.7 315.838 368.7 315.23C368.7 314.572 368.191 314.237 367.037 314.249H366.057V312.686L367.037 312.698C367.968 312.698 368.526 312.35 368.526 311.742C368.526 311.122 367.943 310.725 367.099 310.725C366.292 310.725 365.659 311.122 365.088 311.717L364.034 310.6C364.741 309.744 365.759 309.086 367.273 309.086C369.197 309.086 370.4 310.067 370.4 311.42C370.4 312.4 369.73 313.107 368.799 313.381C369.73 313.592 370.587 314.249 370.587 315.379C370.587 316.856 369.283 317.923 367.298 317.923ZM375.457 317.911C373.211 317.911 371.635 316.086 371.635 313.492C371.635 310.911 373.211 309.086 375.457 309.086C377.704 309.086 379.292 310.911 379.292 313.492C379.292 316.086 377.704 317.911 375.457 317.911ZM375.457 316.248C376.612 316.248 377.406 315.093 377.406 313.492C377.406 311.891 376.612 310.749 375.457 310.749C374.316 310.749 373.509 311.891 373.509 313.492C373.509 315.093 374.316 316.248 375.457 316.248Z" fill="#666666"/>
<rect x="101.479" y="357.896" width="17.7304" height="17.7304" rx="3.54607" fill="#FFE0BB"/>
<path d="M133.273 356.762V349.154H130.406V348.235H137.108V349.154H134.241V356.762H133.273ZM141.587 356.911C139.788 356.911 138.261 355.372 138.261 353.547C138.261 351.723 139.788 350.196 141.587 350.196C143.387 350.196 144.901 351.723 144.901 353.547C144.901 355.372 143.387 356.911 141.587 356.911ZM141.587 356.079C142.853 356.079 143.921 354.925 143.921 353.547C143.921 352.182 142.853 351.028 141.587 351.028C140.309 351.028 139.242 352.182 139.242 353.547C139.242 354.925 140.309 356.079 141.587 356.079ZM149.256 355.818L149.715 356.501C149.38 356.762 148.958 356.911 148.523 356.911C147.605 356.911 146.96 356.228 146.96 355.272V351.177H145.954V350.345H146.96V348.583H147.89V350.345H149.467V351.177H147.89V355.272C147.89 355.744 148.213 356.079 148.585 356.079C148.871 356.079 149.119 355.967 149.256 355.818ZM153.638 350.196C155.388 350.196 156.245 351.301 156.245 352.852V356.762H155.314V355.756C154.855 356.513 153.899 356.911 153.055 356.911C151.702 356.911 150.709 356.129 150.709 354.863C150.709 353.584 151.851 352.728 153.229 352.728C153.924 352.728 154.656 352.877 155.314 353.088V352.852C155.314 351.983 154.966 350.99 153.576 350.99C152.931 350.99 152.285 351.276 151.702 351.574L151.33 350.817C152.248 350.358 153.018 350.196 153.638 350.196ZM153.216 356.092C154.06 356.092 155.066 355.657 155.314 354.751V353.771C154.73 353.609 154.073 353.51 153.378 353.51C152.422 353.51 151.615 354.056 151.615 354.826C151.615 355.62 152.31 356.092 153.216 356.092ZM158.147 356.762V348.086H159.077V356.762H158.147ZM164.595 356.762V348.235H168.058C169.821 348.235 171.198 349.365 171.198 350.966C171.198 352.567 169.821 353.696 168.058 353.696H165.564V356.762H164.595ZM165.564 352.778H167.884C169.275 352.778 170.218 352.107 170.218 350.966C170.218 349.824 169.275 349.154 167.884 349.154H165.564V352.778ZM175.524 356.911C173.725 356.911 172.198 355.372 172.198 353.547C172.198 351.723 173.725 350.196 175.524 350.196C177.324 350.196 178.838 351.723 178.838 353.547C178.838 355.372 177.324 356.911 175.524 356.911ZM175.524 356.079C176.79 356.079 177.858 354.925 177.858 353.547C177.858 352.182 176.79 351.028 175.524 351.028C174.246 351.028 173.179 352.182 173.179 353.547C173.179 354.925 174.246 356.079 175.524 356.079ZM180.835 349.178C180.487 349.178 180.214 348.893 180.214 348.558C180.214 348.235 180.487 347.95 180.835 347.95C181.17 347.95 181.443 348.235 181.443 348.558C181.443 348.893 181.17 349.178 180.835 349.178ZM180.363 356.762V350.345H181.294V356.762H180.363ZM186.216 350.196C187.631 350.196 188.624 351.226 188.624 352.678V356.762H187.693V352.803C187.693 351.76 187.035 351.028 186.092 351.028C185.012 351.028 184.106 351.785 184.106 352.678V356.762H183.175V350.345H184.106V351.375C184.479 350.693 185.31 350.196 186.216 350.196ZM193.325 355.818L193.785 356.501C193.449 356.762 193.027 356.911 192.593 356.911C191.675 356.911 191.029 356.228 191.029 355.272V351.177H190.024V350.345H191.029V348.583H191.96V350.345H193.536V351.177H191.96V355.272C191.96 355.744 192.283 356.079 192.655 356.079C192.941 356.079 193.189 355.967 193.325 355.818ZM197.373 356.911C196.479 356.911 195.486 356.576 194.717 355.955L195.201 355.272C195.933 355.806 196.665 356.079 197.373 356.079C198.217 356.079 198.788 355.682 198.788 355.074C198.788 354.379 198.043 354.155 197.174 353.907C195.623 353.46 195.027 353.001 195.027 352.083C195.027 350.916 195.995 350.196 197.274 350.196C198.068 350.196 198.887 350.469 199.57 350.916L199.123 351.636C198.477 351.226 197.844 351.028 197.274 351.028C196.554 351.028 195.958 351.35 195.958 351.971C195.958 352.529 196.43 352.703 197.621 353.088C198.651 353.411 199.719 353.758 199.719 354.974C199.719 356.154 198.701 356.911 197.373 356.911Z" fill="#666666"/>
<path d="M133.216 381.762V372.577L131.142 373.872L130.096 372.028L133.748 369.581H135.841V381.762H133.216ZM137.987 381.762V379.634L142.472 376.159C143.926 375.006 144.387 374.209 144.387 373.358C144.387 372.347 143.536 371.744 142.543 371.744C141.355 371.744 140.451 372.347 139.565 373.358L137.898 371.744C139.104 370.219 140.646 369.368 142.614 369.368C145.203 369.368 147.082 370.964 147.082 373.251C147.082 374.882 146.373 376.141 144.245 377.684L142.029 379.404H147.189V381.762H137.987ZM150.067 381.762L154.907 371.939H148.879V369.581H157.939V371.549L153.028 381.762H150.067ZM165.005 381.974C161.796 381.974 159.544 379.368 159.544 375.662C159.544 371.975 161.796 369.368 165.005 369.368C168.214 369.368 170.484 371.975 170.484 375.662C170.484 379.368 168.214 381.974 165.005 381.974ZM165.005 379.599C166.654 379.599 167.789 377.95 167.789 375.662C167.789 373.375 166.654 371.744 165.005 371.744C163.374 371.744 162.221 373.375 162.221 375.662C162.221 377.95 163.374 379.599 165.005 379.599Z" fill="#212121"/>
<rect x="285.115" y="357.896" width="17.7304" height="17.7304" rx="3.54607" fill="#05A4A6"/>
<path d="M321.068 350.966C321.068 352.306 320.1 353.324 318.747 353.609L320.956 356.762H319.851L317.692 353.696H315.433V356.762H314.465V348.235H317.928C319.69 348.235 321.068 349.365 321.068 350.966ZM315.433 349.154V352.778H317.754C319.144 352.778 320.087 352.107 320.087 350.966C320.087 349.824 319.144 349.154 317.754 349.154H315.433ZM325.392 356.079C326.149 356.079 327.017 355.744 327.415 355.31L327.986 355.918C327.427 356.526 326.298 356.911 325.404 356.911C323.691 356.911 322.152 355.508 322.152 353.535C322.152 351.623 323.592 350.196 325.317 350.196C327.253 350.196 328.358 351.661 328.358 353.907H323.108C323.244 355.161 324.126 356.079 325.392 356.079ZM325.354 351.028C324.213 351.028 323.294 351.834 323.12 353.076H327.439C327.315 351.921 326.633 351.028 325.354 351.028ZM331.333 349.464V350.345H332.909V351.177H331.333V356.762H330.402V351.177H329.397V350.345H330.402V349.464C330.402 348.508 331.048 347.826 331.966 347.826C332.401 347.826 332.823 347.975 333.158 348.235L332.698 348.918C332.562 348.769 332.314 348.657 332.028 348.657C331.656 348.657 331.333 348.992 331.333 349.464ZM337.124 356.079C337.881 356.079 338.75 355.744 339.147 355.31L339.718 355.918C339.16 356.526 338.03 356.911 337.137 356.911C335.424 356.911 333.885 355.508 333.885 353.535C333.885 351.623 335.325 350.196 337.05 350.196C338.986 350.196 340.09 351.661 340.09 353.907H334.84C334.977 355.161 335.858 356.079 337.124 356.079ZM337.087 351.028C335.945 351.028 335.027 351.834 334.853 353.076H339.172C339.048 351.921 338.365 351.028 337.087 351.028ZM342.631 351.599C343.016 350.742 343.935 350.196 345.114 350.196V351.028C343.661 351.028 342.631 351.921 342.631 353.175V356.762H341.7V350.345H342.631V351.599ZM347.419 351.599C347.804 350.742 348.722 350.196 349.901 350.196V351.028C348.449 351.028 347.419 351.921 347.419 353.175V356.762H346.488V350.345H347.419V351.599ZM353.795 350.196C355.545 350.196 356.401 351.301 356.401 352.852V356.762H355.471V355.756C355.011 356.513 354.056 356.911 353.212 356.911C351.859 356.911 350.866 356.129 350.866 354.863C350.866 353.584 352.008 352.728 353.386 352.728C354.081 352.728 354.813 352.877 355.471 353.088V352.852C355.471 351.983 355.123 350.99 353.733 350.99C353.088 350.99 352.442 351.276 351.859 351.574L351.487 350.817C352.405 350.358 353.175 350.196 353.795 350.196ZM353.373 356.092C354.217 356.092 355.222 355.657 355.471 354.751V353.771C354.887 353.609 354.229 353.51 353.534 353.51C352.579 353.51 351.772 354.056 351.772 354.826C351.772 355.62 352.467 356.092 353.373 356.092ZM358.303 356.762V348.086H359.234V356.762H358.303ZM370.871 349.154H365.733V351.959H370.362V352.877H365.733V355.843H370.871V356.762H364.752V348.235H370.871V349.154ZM375.103 350.196C376.853 350.196 377.709 351.301 377.709 352.852V356.762H376.778V355.756C376.319 356.513 375.363 356.911 374.519 356.911C373.167 356.911 372.174 356.129 372.174 354.863C372.174 353.584 373.315 352.728 374.693 352.728C375.388 352.728 376.12 352.877 376.778 353.088V352.852C376.778 351.983 376.431 350.99 375.041 350.99C374.395 350.99 373.75 351.276 373.167 351.574L372.794 350.817C373.713 350.358 374.482 350.196 375.103 350.196ZM374.681 356.092C375.525 356.092 376.53 355.657 376.778 354.751V353.771C376.195 353.609 375.537 353.51 374.842 353.51C373.886 353.51 373.08 354.056 373.08 354.826C373.08 355.62 373.775 356.092 374.681 356.092ZM380.629 351.599C381.013 350.742 381.932 350.196 383.111 350.196V351.028C381.659 351.028 380.629 351.921 380.629 353.175V356.762H379.698V350.345H380.629V351.599ZM387.452 350.196C388.867 350.196 389.859 351.226 389.859 352.678V356.762H388.929V352.803C388.929 351.76 388.271 351.028 387.328 351.028C386.248 351.028 385.342 351.785 385.342 352.678V356.762H384.411V350.345H385.342V351.375C385.714 350.693 386.546 350.196 387.452 350.196ZM392.203 349.178C391.855 349.178 391.582 348.893 391.582 348.558C391.582 348.235 391.855 347.95 392.203 347.95C392.538 347.95 392.811 348.235 392.811 348.558C392.811 348.893 392.538 349.178 392.203 349.178ZM391.731 356.762V350.345H392.662V356.762H391.731ZM397.584 350.196C398.999 350.196 399.992 351.226 399.992 352.678V356.762H399.061V352.803C399.061 351.76 398.403 351.028 397.46 351.028C396.38 351.028 395.474 351.785 395.474 352.678V356.762H394.544V350.345H395.474V351.375C395.847 350.693 396.678 350.196 397.584 350.196ZM406.865 350.345H407.796V356.079C407.796 357.73 406.493 358.896 404.644 358.896C403.601 358.896 402.633 358.537 402.05 358.04L402.459 357.308C402.956 357.779 403.725 358.065 404.52 358.065C405.997 358.065 406.865 357.333 406.865 356.079V355.037C406.369 355.818 405.55 356.29 404.532 356.29C402.807 356.29 401.578 355.024 401.578 353.237C401.578 351.45 402.807 350.196 404.532 350.196C405.55 350.196 406.369 350.668 406.865 351.45V350.345ZM404.706 355.459C405.972 355.459 406.865 354.54 406.865 353.237C406.865 351.946 405.972 351.028 404.706 351.028C403.452 351.028 402.559 351.946 402.559 353.237C402.559 354.54 403.452 355.459 404.706 355.459Z" fill="#666666"/>
<path d="M324.034 378.109C324.034 380.272 322.509 381.762 319.885 381.957V383.074H318.165V381.904C316.516 381.691 315.045 381.017 313.892 379.953L315.399 378.162C316.233 378.872 317.137 379.386 318.165 379.616V376.673C315.949 376.106 314.424 375.308 314.424 373.162C314.424 371.141 315.913 369.687 318.165 369.404V368.304H319.885V369.421C321.428 369.581 322.669 370.166 323.697 371.053L322.332 372.932C321.569 372.311 320.718 371.904 319.885 371.709V374.545C322.385 375.113 324.034 375.911 324.034 378.109ZM317.066 372.897C317.066 373.482 317.385 373.819 318.165 374.084V371.673C317.474 371.85 317.066 372.329 317.066 372.897ZM319.885 379.723C320.878 379.599 321.392 379.049 321.392 378.393C321.392 377.719 320.967 377.4 319.885 377.099V379.723ZM325.485 381.762V379.634L329.97 376.159C331.424 375.006 331.885 374.209 331.885 373.358C331.885 372.347 331.034 371.744 330.041 371.744C328.853 371.744 327.949 372.347 327.063 373.358L325.396 371.744C326.602 370.219 328.144 369.368 330.112 369.368C332.701 369.368 334.58 370.964 334.58 373.251C334.58 374.882 333.871 376.141 331.743 377.684L329.527 379.404H334.687V381.762H325.485ZM342.175 381.762V379.279H336.235L335.987 377.258L341.625 369.599H344.799V377.081H346.412V379.279H344.799V381.762H342.175ZM338.735 377.081H342.175V372.365L338.735 377.081ZM353.299 381.974C350.09 381.974 347.838 379.368 347.838 375.662C347.838 371.975 350.09 369.368 353.299 369.368C356.508 369.368 358.778 371.975 358.778 375.662C358.778 379.368 356.508 381.974 353.299 381.974ZM353.299 379.599C354.948 379.599 356.083 377.95 356.083 375.662C356.083 373.375 354.948 371.744 353.299 371.744C351.668 371.744 350.516 373.375 350.516 375.662C350.516 377.95 351.668 379.599 353.299 379.599Z" fill="#212121"/>
<path d="M361.384 381.911C360.738 381.911 360.229 381.389 360.229 380.756C360.229 380.173 360.738 379.652 361.384 379.652C361.992 379.652 362.488 380.173 362.488 380.756C362.488 381.389 361.992 381.911 361.384 381.911ZM366.907 381.923C365.368 381.923 364.201 381.315 363.482 380.483L364.561 379.267C365.157 379.912 365.964 380.272 366.82 380.272C367.763 380.272 368.31 379.838 368.31 379.23C368.31 378.572 367.801 378.237 366.646 378.249H365.666V376.686L366.646 376.698C367.577 376.698 368.136 376.35 368.136 375.742C368.136 375.122 367.552 374.725 366.708 374.725C365.902 374.725 365.269 375.122 364.698 375.717L363.643 374.6C364.35 373.744 365.368 373.086 366.882 373.086C368.806 373.086 370.01 374.067 370.01 375.42C370.01 376.4 369.34 377.107 368.409 377.381C369.34 377.592 370.196 378.249 370.196 379.379C370.196 380.856 368.893 381.923 366.907 381.923ZM375.067 381.911C372.82 381.911 371.244 380.086 371.244 377.492C371.244 374.911 372.82 373.086 375.067 373.086C377.313 373.086 378.902 374.911 378.902 377.492C378.902 380.086 377.313 381.911 375.067 381.911ZM375.067 380.248C376.221 380.248 377.015 379.093 377.015 377.492C377.015 375.891 376.221 374.749 375.067 374.749C373.925 374.749 373.118 375.891 373.118 377.492C373.118 379.093 373.925 380.248 375.067 380.248Z" fill="#666666"/>
<path d="M58 45.195C58 35.7659 65.6438 28.1221 75.073 28.1221H450.678C460.107 28.1221 467.751 35.7659 467.751 45.195V65.6826H58V45.195Z" fill="#212121"/>
<ellipse cx="80.1958" cy="46.9024" rx="3.41459" ry="3.41459" fill="#FF0606"/>
<ellipse cx="92.147" cy="46.9024" rx="3.41459" ry="3.41459" fill="#30C1FF"/>
<ellipse cx="104.098" cy="46.9024" rx="3.41459" ry="3.41459" fill="#A3DC2F"/>
<rect x="397.889" y="373.062" width="139.998" height="73.4138" rx="8.53648" fill="#212121"/>
<path d="M425.834 432.183H422.761V418.456H425.834V432.183ZM434.377 432.183H423.621V429.417H434.377V432.183ZM434.07 426.651H423.621V423.906H434.07V426.651ZM434.377 421.222H423.621V418.456H434.377V421.222ZM446.132 432.183H443.264V429.745L443.1 429.704V426.119C443.1 425.45 442.929 424.999 442.588 424.767C442.26 424.534 441.686 424.418 440.867 424.418C440.088 424.418 439.528 424.534 439.187 424.767C438.845 424.999 438.675 425.409 438.675 425.996V426.078H435.581V426.016C435.581 425.17 435.806 424.425 436.257 423.783C436.708 423.128 437.343 422.622 438.163 422.267C438.996 421.898 439.972 421.714 441.092 421.714C442.24 421.714 443.182 421.898 443.92 422.267C444.671 422.636 445.224 423.155 445.579 423.824C445.948 424.48 446.132 425.258 446.132 426.16V432.183ZM438.921 432.388C437.814 432.388 436.947 432.142 436.319 431.65C435.69 431.159 435.376 430.489 435.376 429.643C435.376 429.124 435.499 428.68 435.745 428.311C435.991 427.942 436.36 427.649 436.851 427.43C437.343 427.198 437.958 427.041 438.695 426.959L443.305 426.488V428.249L439.535 428.68C439.166 428.707 438.893 428.782 438.716 428.905C438.552 429.014 438.47 429.192 438.47 429.438C438.47 429.711 438.579 429.909 438.798 430.032C439.016 430.155 439.351 430.216 439.802 430.216C440.539 430.216 441.147 430.148 441.625 430.011C442.103 429.875 442.465 429.656 442.711 429.356C442.97 429.042 443.1 428.625 443.1 428.106L443.387 428.086V429.827H443.1C442.868 430.619 442.397 431.248 441.686 431.712C440.99 432.163 440.068 432.388 438.921 432.388ZM450.763 432.183H447.69V421.919H450.538V424.849L450.763 424.951V432.183ZM450.763 426.242H450.148V424.644H450.722C450.818 424.084 451.002 423.585 451.275 423.148C451.562 422.697 451.944 422.349 452.423 422.103C452.901 421.844 453.481 421.714 454.164 421.714C454.942 421.714 455.564 421.878 456.028 422.206C456.506 422.52 456.855 422.95 457.073 423.496C457.292 424.029 457.401 424.63 457.401 425.299V427H454.328V425.934C454.328 425.361 454.198 424.951 453.939 424.705C453.693 424.446 453.256 424.316 452.627 424.316C451.944 424.316 451.46 424.473 451.173 424.787C450.9 425.101 450.763 425.586 450.763 426.242ZM469.864 432.183H466.791V426.815C466.791 425.982 466.6 425.388 466.217 425.033C465.835 424.664 465.172 424.48 464.23 424.48C463.247 424.48 462.557 424.685 462.161 425.094C461.778 425.491 461.587 426.126 461.587 427H461.198L460.972 425.074H461.546C461.642 424.5 461.847 423.961 462.161 423.455C462.475 422.936 462.919 422.52 463.492 422.206C464.08 421.878 464.824 421.714 465.726 421.714C466.654 421.714 467.426 421.898 468.041 422.267C468.655 422.622 469.113 423.107 469.413 423.722C469.714 424.336 469.864 425.026 469.864 425.791V432.183ZM461.587 432.183H458.514V421.919H461.362V425.115L461.587 425.217V432.183ZM474.492 432.183H471.419V421.919H474.492V432.183ZM474.492 420.874H471.419V418.456H474.492V420.874ZM487.45 432.183H484.377V426.815C484.377 425.982 484.186 425.388 483.804 425.033C483.421 424.664 482.759 424.48 481.816 424.48C480.833 424.48 480.143 424.685 479.747 425.094C479.365 425.491 479.174 426.126 479.174 427H478.784L478.559 425.074H479.133C479.228 424.5 479.433 423.961 479.747 423.455C480.061 422.936 480.505 422.52 481.079 422.206C481.666 421.878 482.411 421.714 483.312 421.714C484.241 421.714 485.012 421.898 485.627 422.267C486.242 422.622 486.699 423.107 487 423.722C487.3 424.336 487.45 425.026 487.45 425.791V432.183ZM479.174 432.183H476.1V421.919H478.948V425.115L479.174 425.217V432.183ZM494.742 435.871C493.635 435.871 492.672 435.707 491.853 435.379C491.047 435.065 490.426 434.607 489.989 434.006C489.551 433.406 489.333 432.675 489.333 431.814H492.406C492.406 432.183 492.468 432.477 492.59 432.695C492.727 432.927 492.98 433.085 493.348 433.167C493.717 433.262 494.25 433.31 494.947 433.31C495.602 433.31 496.114 433.248 496.483 433.126C496.866 433.003 497.132 432.764 497.282 432.408C497.432 432.067 497.507 431.562 497.507 430.892V424.746L497.712 424.685V421.919H500.581V430.688C500.581 431.889 500.348 432.866 499.884 433.617C499.42 434.382 498.75 434.949 497.876 435.318C497.016 435.686 495.971 435.871 494.742 435.871ZM493.512 431.138C492.488 431.138 491.621 430.947 490.91 430.565C490.2 430.182 489.654 429.636 489.271 428.926C488.889 428.215 488.698 427.382 488.698 426.426C488.698 425.47 488.896 424.644 489.292 423.947C489.688 423.237 490.255 422.691 490.992 422.308C491.73 421.912 492.611 421.714 493.635 421.714C494.687 421.714 495.561 421.939 496.258 422.39C496.954 422.841 497.385 423.51 497.548 424.398H498.122L497.897 426.303H497.507C497.507 425.839 497.398 425.47 497.18 425.197C496.961 424.91 496.64 424.705 496.217 424.582C495.793 424.446 495.261 424.377 494.619 424.377C493.963 424.377 493.424 424.446 493 424.582C492.59 424.705 492.283 424.917 492.078 425.217C491.887 425.504 491.791 425.907 491.791 426.426C491.791 426.931 491.887 427.334 492.078 427.635C492.283 427.935 492.59 428.154 493 428.29C493.41 428.427 493.936 428.495 494.578 428.495C495.561 428.495 496.292 428.345 496.77 428.045C497.262 427.744 497.507 427.239 497.507 426.529H497.897V428.577H497.344C497.18 429.342 496.784 429.964 496.155 430.442C495.527 430.906 494.646 431.138 493.512 431.138ZM507.393 432.388C505.672 432.388 504.348 432.067 503.419 431.425C502.49 430.769 502.026 429.848 502.026 428.659V428.598H505.099V428.782C505.099 429.247 505.263 429.561 505.59 429.725C505.932 429.875 506.54 429.95 507.414 429.95C508.233 429.95 508.773 429.882 509.032 429.745C509.306 429.595 509.442 429.369 509.442 429.069C509.442 428.782 509.34 428.584 509.135 428.475C508.93 428.352 508.527 428.249 507.926 428.168L505.037 427.819C504.013 427.71 503.221 427.423 502.661 426.959C502.114 426.494 501.841 425.825 501.841 424.951C501.841 424.35 502.019 423.811 502.374 423.332C502.729 422.841 503.275 422.452 504.013 422.165C504.764 421.864 505.727 421.714 506.902 421.714C508.022 421.714 508.971 421.857 509.749 422.144C510.542 422.417 511.143 422.834 511.552 423.394C511.962 423.954 512.167 424.651 512.167 425.484V425.545H509.094V425.422C509.094 425.135 509.032 424.903 508.909 424.726C508.8 424.534 508.575 424.391 508.233 424.295C507.906 424.2 507.428 424.152 506.799 424.152C506.034 424.152 505.522 424.227 505.263 424.377C505.003 424.514 504.873 424.746 504.873 425.074C504.873 425.333 504.976 425.531 505.181 425.668C505.399 425.791 505.843 425.9 506.512 425.996L508.705 426.262C510.07 426.412 511.04 426.727 511.614 427.205C512.187 427.683 512.474 428.345 512.474 429.192C512.474 429.834 512.269 430.394 511.86 430.872C511.45 431.35 510.869 431.726 510.118 431.999C509.367 432.258 508.459 432.388 507.393 432.388Z" fill="white"/>
<path d="M442.044 411.205V398.789H442.839V411.205H442.044ZM444.721 402.514C444.663 402.022 444.427 401.641 444.013 401.369C443.599 401.097 443.091 400.962 442.49 400.962C442.05 400.962 441.665 401.033 441.336 401.175C441.009 401.317 440.754 401.513 440.569 401.762C440.388 402.011 440.298 402.294 440.298 402.611C440.298 402.876 440.361 403.104 440.487 403.294C440.616 403.482 440.781 403.639 440.982 403.765C441.182 403.888 441.392 403.99 441.612 404.071C441.832 404.148 442.034 404.211 442.218 404.26L443.227 404.531C443.486 404.599 443.774 404.693 444.091 404.813C444.411 404.932 444.716 405.096 445.007 405.303C445.302 405.506 445.544 405.768 445.735 406.088C445.926 406.408 446.021 406.801 446.021 407.267C446.021 407.804 445.88 408.289 445.599 408.722C445.321 409.155 444.914 409.5 444.377 409.755C443.843 410.011 443.195 410.138 442.432 410.138C441.72 410.138 441.104 410.023 440.584 409.794C440.066 409.564 439.659 409.244 439.362 408.834C439.067 408.423 438.901 407.946 438.862 407.403H440.104C440.136 407.778 440.262 408.088 440.482 408.334C440.705 408.576 440.986 408.758 441.326 408.877C441.669 408.994 442.037 409.052 442.432 409.052C442.891 409.052 443.303 408.977 443.669 408.829C444.034 408.677 444.323 408.467 444.537 408.198C444.75 407.927 444.857 407.61 444.857 407.247C444.857 406.918 444.765 406.649 444.58 406.442C444.396 406.235 444.154 406.067 443.853 405.938C443.552 405.809 443.227 405.695 442.878 405.598L441.656 405.249C440.88 405.026 440.265 404.708 439.813 404.294C439.36 403.88 439.134 403.338 439.134 402.669C439.134 402.113 439.284 401.628 439.585 401.214C439.889 400.797 440.296 400.473 440.807 400.244C441.321 400.011 441.895 399.894 442.529 399.894C443.169 399.894 443.738 400.009 444.236 400.239C444.734 400.465 445.129 400.776 445.42 401.17C445.714 401.565 445.869 402.012 445.885 402.514H444.721ZM451.006 410.099C450.34 410.099 449.751 409.981 449.24 409.745C448.733 409.506 448.337 409.178 448.052 408.761C447.767 408.34 447.627 407.862 447.63 407.325C447.627 406.905 447.709 406.517 447.877 406.161C448.046 405.802 448.275 405.503 448.566 405.264C448.86 405.021 449.189 404.868 449.551 404.803V404.745C449.075 404.622 448.697 404.355 448.416 403.944C448.134 403.531 447.995 403.06 447.999 402.533C447.995 402.029 448.123 401.577 448.382 401.18C448.641 400.782 448.996 400.468 449.449 400.239C449.905 400.009 450.424 399.894 451.006 399.894C451.581 399.894 452.096 400.009 452.548 400.239C453.001 400.468 453.357 400.782 453.615 401.18C453.877 401.577 454.01 402.029 454.013 402.533C454.01 403.06 453.866 403.531 453.581 403.944C453.3 404.355 452.927 404.622 452.461 404.745V404.803C452.82 404.868 453.143 405.021 453.431 405.264C453.719 405.503 453.948 405.802 454.12 406.161C454.291 406.517 454.378 406.905 454.382 407.325C454.378 407.862 454.233 408.34 453.945 408.761C453.661 409.178 453.264 409.506 452.757 409.745C452.252 409.981 451.669 410.099 451.006 410.099ZM451.006 409.032C451.455 409.032 451.843 408.96 452.17 408.814C452.497 408.669 452.749 408.463 452.927 408.198C453.104 407.933 453.195 407.623 453.198 407.267C453.195 406.892 453.098 406.56 452.907 406.273C452.716 405.985 452.456 405.758 452.126 405.594C451.8 405.429 451.426 405.346 451.006 405.346C450.582 405.346 450.204 405.429 449.871 405.594C449.541 405.758 449.281 405.985 449.09 406.273C448.902 406.56 448.81 406.892 448.814 407.267C448.81 407.623 448.896 407.933 449.071 408.198C449.248 408.463 449.502 408.669 449.832 408.814C450.162 408.96 450.553 409.032 451.006 409.032ZM451.006 404.318C451.362 404.318 451.677 404.247 451.952 404.104C452.23 403.962 452.448 403.763 452.606 403.508C452.765 403.252 452.846 402.953 452.849 402.611C452.846 402.274 452.767 401.982 452.611 401.733C452.456 401.48 452.241 401.286 451.966 401.151C451.691 401.012 451.371 400.942 451.006 400.942C450.634 400.942 450.309 401.012 450.031 401.151C449.753 401.286 449.538 401.48 449.386 401.733C449.234 401.982 449.16 402.274 449.163 402.611C449.16 402.953 449.236 403.252 449.391 403.508C449.549 403.763 449.767 403.962 450.046 404.104C450.324 404.247 450.644 404.318 451.006 404.318ZM459.345 410.099C458.776 410.099 458.263 409.986 457.807 409.76C457.351 409.534 456.986 409.223 456.711 408.829C456.436 408.434 456.286 407.985 456.26 407.48H457.424C457.469 407.93 457.673 408.302 458.035 408.596C458.401 408.887 458.837 409.032 459.345 409.032C459.752 409.032 460.114 408.937 460.431 408.746C460.751 408.555 461.002 408.294 461.183 407.96C461.367 407.624 461.459 407.244 461.459 406.821C461.459 406.387 461.364 406.001 461.173 405.661C460.986 405.319 460.727 405.049 460.397 404.851C460.067 404.654 459.691 404.554 459.267 404.551C458.963 404.547 458.651 404.594 458.331 404.691C458.011 404.785 457.747 404.906 457.54 405.055L456.415 404.919L457.017 400.03H462.177V401.097H458.025L457.676 404.027H457.734C457.938 403.865 458.194 403.731 458.501 403.624C458.808 403.518 459.128 403.464 459.461 403.464C460.069 403.464 460.611 403.61 461.086 403.901C461.564 404.189 461.94 404.583 462.211 405.084C462.486 405.585 462.623 406.158 462.623 406.801C462.623 407.435 462.481 408.001 462.197 408.499C461.915 408.994 461.527 409.385 461.033 409.673C460.538 409.957 459.975 410.099 459.345 410.099ZM464.317 407.927V406.937L468.683 400.03H469.401V401.563H468.915L465.617 406.782V406.859H471.496V407.927H464.317ZM468.993 409.964V407.626V407.165V400.03H470.138V409.964H468.993ZM473.7 410.041C473.461 410.041 473.256 409.956 473.084 409.784C472.913 409.613 472.827 409.407 472.827 409.168C472.827 408.929 472.913 408.724 473.084 408.552C473.256 408.381 473.461 408.295 473.7 408.295C473.94 408.295 474.145 408.381 474.316 408.552C474.488 408.724 474.573 408.929 474.573 409.168C474.573 409.327 474.533 409.472 474.452 409.605C474.374 409.737 474.269 409.844 474.137 409.925C474.007 410.002 473.862 410.041 473.7 410.041ZM479.591 410.099C478.951 410.099 478.38 409.989 477.879 409.77C477.381 409.55 476.985 409.244 476.69 408.853C476.399 408.458 476.241 408.001 476.215 407.48H477.437C477.463 407.8 477.573 408.077 477.767 408.31C477.961 408.539 478.215 408.717 478.529 408.843C478.842 408.969 479.19 409.032 479.572 409.032C479.998 409.032 480.377 408.958 480.707 408.809C481.036 408.661 481.295 408.454 481.483 408.188C481.67 407.923 481.764 407.616 481.764 407.267C481.764 406.901 481.673 406.58 481.492 406.302C481.311 406.02 481.046 405.8 480.697 405.642C480.348 405.484 479.921 405.404 479.416 405.404H478.621V404.337H479.416C479.811 404.337 480.157 404.266 480.454 404.124C480.755 403.982 480.989 403.781 481.158 403.522C481.329 403.264 481.415 402.96 481.415 402.611C481.415 402.274 481.34 401.982 481.192 401.733C481.043 401.484 480.833 401.29 480.561 401.151C480.293 401.012 479.976 400.942 479.61 400.942C479.268 400.942 478.944 401.005 478.64 401.131C478.34 401.254 478.094 401.434 477.903 401.67C477.712 401.902 477.609 402.184 477.593 402.514H476.429C476.448 401.993 476.605 401.537 476.899 401.146C477.193 400.751 477.578 400.444 478.053 400.224C478.532 400.004 479.057 399.894 479.63 399.894C480.244 399.894 480.771 400.019 481.211 400.268C481.651 400.514 481.989 400.839 482.225 401.243C482.461 401.647 482.579 402.084 482.579 402.552C482.579 403.112 482.432 403.589 482.137 403.983C481.846 404.378 481.45 404.651 480.949 404.803V404.881C481.576 404.984 482.066 405.251 482.419 405.681C482.771 406.108 482.947 406.636 482.947 407.267C482.947 407.807 482.8 408.292 482.506 408.722C482.215 409.149 481.817 409.485 481.313 409.731C480.808 409.977 480.234 410.099 479.591 410.099ZM488.423 400.03V409.964H487.22V401.291H487.162L484.737 402.902V401.679L487.22 400.03H488.423ZM492.367 407.247L492.347 405.831H492.58L495.839 402.514H497.256L493.783 406.025H493.686L492.367 407.247ZM491.3 409.964V400.03H492.444V409.964H491.3ZM496.033 409.964L493.123 406.277L493.938 405.482L497.488 409.964H496.033Z" fill="white"/>
<path d="M483.253 373.062C483.253 381.077 476.755 387.574 468.741 387.574C460.726 387.574 454.229 381.077 454.229 373.062C454.229 365.047 460.726 358.55 468.741 358.55C476.755 358.55 483.253 365.047 483.253 373.062Z" fill="#212121" stroke="white" stroke-width="1.7073"/>
<path fill-rule="evenodd" clip-rule="evenodd" d="M466.739 370.287C466.739 370.106 466.886 369.96 467.066 369.96L471.384 369.96C471.471 369.96 471.554 369.994 471.616 370.055C471.677 370.117 471.711 370.2 471.711 370.287L471.711 374.605C471.711 374.785 471.565 374.932 471.384 374.932C471.204 374.932 471.057 374.785 471.057 374.605L471.057 371.076L466.064 376.07C465.936 376.198 465.729 376.198 465.601 376.07C465.473 375.942 465.473 375.735 465.601 375.607L470.595 370.614L467.066 370.614C466.886 370.614 466.739 370.467 466.739 370.287Z" fill="white"/>
<g clip-path="url(#clip1_2290_19140)">
<path d="M137.921 446.442C145.768 457.886 143.203 481.785 143.203 481.785L141.785 501.732L-29.2791 489.57L-19.2202 348.085C-19.2202 348.085 8.87556 340.704 20.9227 350.939C30.9051 359.42 32.8873 382.561 32.8873 382.561C32.8873 382.561 70.1788 373.142 86.7154 386.388C100.755 397.634 104.764 429.166 104.764 429.166C104.764 429.166 129.601 434.309 137.921 446.442Z" fill="white"/>
<path d="M137.921 446.442C145.768 457.886 143.203 481.785 143.203 481.785L141.785 501.732L-29.2791 489.57L-19.2202 348.085C-19.2202 348.085 8.87556 340.704 20.9227 350.939C30.9051 359.42 32.8873 382.561 32.8873 382.561C32.8873 382.561 70.1788 373.142 86.7154 386.388C100.755 397.634 104.764 429.166 104.764 429.166C104.764 429.166 129.601 434.309 137.921 446.442Z" stroke="#212121" stroke-width="2.38558" stroke-linecap="round"/>
<path d="M143.228 481.32C143.228 481.32 145.391 458.556 137.384 447.323C129.166 435.795 106.199 429.705 106.199 429.705" stroke="#212121" stroke-width="2.38558" stroke-linecap="round"/>
<path d="M107.916 443.624C107.916 443.624 104.239 400.25 84.8686 386.104C63.5885 370.562 17.7013 386.158 17.7013 386.158" stroke="#212121" stroke-width="2.38558" stroke-linecap="round"/>
<path d="M32.9453 381.722C32.9453 381.722 31.4624 361.772 23.4222 353.45C11.7547 341.373 -18.9568 348.367 -18.9568 348.367" stroke="#212121" stroke-width="2.38558" stroke-linecap="round"/>
</g>
</g>
<defs>
<clipPath id="clip0_2290_19140">
<rect width="565" height="475" fill="white"/>
</clipPath>
<clipPath id="clip1_2290_19140">
<rect width="168" height="142" fill="white" transform="translate(142.754 492.778) rotate(-175.933)"/>
</clipPath>
</defs>
</svg>
