<svg width="278" height="372" viewBox="0 0 278 372" fill="none" xmlns="http://www.w3.org/2000/svg">
<g filter="url(#filter0_d_316_7978)">
<rect x="20.5508" y="20" width="236.898" height="332.092" rx="10.7681" fill="white" shape-rendering="crispEdges"/>
<rect x="20.8873" y="20.3365" width="236.225" height="331.419" rx="10.4316" stroke="#ECECEC" stroke-width="0.673006" shape-rendering="crispEdges"/>
<path d="M32.5024 44.7681V33.7761H34.8544L38.2624 39.9841L41.6544 33.7761H44.0224V44.7681H41.6544V37.9201L38.2624 44.1281L34.8544 37.9201V44.7681H32.5024ZM48.1054 47.6481C47.4174 47.6481 46.5854 47.4401 46.0254 47.1361L46.5214 45.5361C46.9214 45.7601 47.3374 45.9041 47.6094 45.9041C48.0574 45.9041 48.4094 45.7601 48.5854 45.4561L48.8734 44.8481L45.4334 36.4961H47.8494L50.0254 42.3041L52.0894 36.4961H54.4734L51.0814 45.1841C50.4574 46.8001 49.4014 47.6481 48.1054 47.6481ZM68.8235 35.9041H62.7275V38.0961H68.2475V40.2241H62.7275V42.6401H68.8235V44.7681H60.3595V33.7761H68.8235V35.9041ZM74.2415 36.3041C76.4015 36.3041 77.8735 37.6641 77.8735 39.8241V44.7681H75.6175V43.9361C75.0255 44.6081 74.0815 44.9601 73.1855 44.9601C71.4255 44.9601 70.0655 43.9041 70.0655 42.3201C70.0655 40.6881 71.5855 39.5681 73.5055 39.5681C74.1775 39.5681 74.9135 39.7121 75.6175 39.9841V39.8241C75.6175 38.9441 75.0735 38.1761 73.7135 38.1761C72.9455 38.1761 72.2255 38.4321 71.5695 38.7681L70.7855 37.2161C71.9535 36.6241 73.0895 36.3041 74.2415 36.3041ZM73.7135 43.3441C74.6095 43.3441 75.4575 42.9281 75.6175 42.1601V41.3921C75.0895 41.2001 74.4815 41.0881 73.8415 41.0881C72.9935 41.0881 72.3215 41.5841 72.3215 42.2561C72.3215 42.9281 72.9135 43.3441 73.7135 43.3441ZM82.1784 38.0321C82.7224 36.9601 83.7464 36.3041 85.0104 36.3041V38.2721C83.2824 38.2721 82.1784 39.2641 82.1784 40.8161V44.7681H79.8424V36.4961H82.1784V38.0321ZM91.142 36.3041C92.934 36.3041 94.214 37.6321 94.214 39.5041V44.7681H91.958V40.0001C91.958 38.9761 91.318 38.2721 90.39 38.2721C89.414 38.2721 88.662 38.9761 88.662 39.8721L88.646 39.8241V44.7681H86.31V36.4961H88.646V37.5361C89.142 36.7841 90.07 36.3041 91.142 36.3041ZM97.3541 35.3601C96.6341 35.3601 96.0741 34.7841 96.0741 34.0801C96.0741 33.4241 96.6341 32.8321 97.3541 32.8321C98.0421 32.8321 98.6021 33.4241 98.6021 34.0801C98.6021 34.7841 98.0421 35.3601 97.3541 35.3601ZM96.1701 44.7681V36.4961H98.5061V44.7681H96.1701ZM105.329 36.3041C107.121 36.3041 108.401 37.6321 108.401 39.5041V44.7681H106.145V40.0001C106.145 38.9761 105.505 38.2721 104.577 38.2721C103.601 38.2721 102.849 38.9761 102.849 39.8721L102.833 39.8241V44.7681H100.497V36.4961H102.833V37.5361C103.329 36.7841 104.257 36.3041 105.329 36.3041ZM116.358 36.4961H118.71V43.8881C118.71 46.0161 116.87 47.5201 114.262 47.5201C112.806 47.5201 111.43 47.0561 110.614 46.4161L111.43 44.7681C111.974 45.2481 112.934 45.5521 113.894 45.5521C115.398 45.5521 116.358 44.8641 116.358 43.7921V42.8801C115.702 43.6801 114.71 44.1601 113.622 44.1601C111.542 44.1601 109.958 42.5281 109.958 40.2241C109.958 37.9201 111.542 36.3041 113.622 36.3041C114.742 36.3041 115.798 36.8321 116.358 37.6161V36.4961ZM114.358 42.1921C115.526 42.1921 116.358 41.3761 116.358 40.2241C116.358 39.0721 115.526 38.2721 114.358 38.2721C113.19 38.2721 112.358 39.0721 112.358 40.2241C112.358 41.3761 113.19 42.1921 114.358 42.1921ZM123.868 44.9601C122.54 44.9601 121.132 44.5121 120.14 43.7121L121.148 42.0961C121.884 42.6241 122.812 43.0241 123.916 43.0241C124.54 43.0241 124.988 42.7681 124.988 42.4001C124.988 41.8881 124.38 41.7281 123.532 41.5041C121.836 41.0881 120.524 40.6241 120.508 38.9921C120.492 37.4241 121.788 36.3041 123.74 36.3041C124.924 36.3041 126.092 36.7201 127.004 37.3281L126.06 38.9921C125.308 38.5281 124.444 38.2561 123.74 38.2561C123.164 38.2561 122.764 38.4641 122.764 38.7521C122.764 39.2001 123.1 39.3281 124.22 39.6321C125.644 40.0001 127.228 40.4801 127.228 42.2881C127.228 43.9201 125.9 44.9601 123.868 44.9601Z" fill="#212121"/>
<g clip-path="url(#clip0_316_7978)">
<path d="M132.183 74.8801C132.183 73.1029 130.74 71.6517 128.966 71.7619C120.565 72.2839 112.4 74.8446 105.186 79.2431C97.9719 83.6417 91.956 89.7274 87.6444 96.9564C86.734 98.4828 87.3635 100.43 88.9435 101.244L101.662 107.796C103.242 108.61 105.169 107.978 106.142 106.49C108.666 102.631 112.024 99.3687 115.985 96.954C119.945 94.5393 124.383 93.0478 128.97 92.5717C130.738 92.3882 132.183 90.9646 132.183 89.1874V74.8801Z" fill="#FFA36B"/>
<path d="M194.775 136.355C196.552 136.355 198.002 134.913 197.902 133.138C197.541 126.723 196.102 120.406 193.637 114.456C190.761 107.513 186.546 101.204 181.232 95.8905C175.918 90.5767 169.61 86.3615 162.667 83.4857C156.716 81.0209 150.4 79.5813 143.984 79.2202C142.21 79.1203 140.768 80.5705 140.768 82.3478L140.768 98.8016C140.768 100.579 142.212 102.004 143.981 102.17C147.388 102.491 150.735 103.319 153.907 104.633C158.073 106.359 161.858 108.888 165.046 112.076C168.235 115.264 170.764 119.05 172.489 123.215C173.803 126.388 174.632 129.734 174.952 133.141C175.119 134.911 176.544 136.355 178.321 136.355H194.775Z" fill="#FFE0BB"/>
<path d="M145.475 190.156C145.63 191.927 147.193 193.246 148.952 192.991C161.012 191.249 172.233 185.695 180.949 177.1C189.665 168.505 195.374 157.363 197.285 145.329C197.564 143.573 196.267 141.992 194.498 141.812L178.129 140.15C176.361 139.97 174.797 141.263 174.452 143.006C173.123 149.74 169.799 155.948 164.876 160.802C159.954 165.656 153.7 168.893 146.949 170.129C145.2 170.449 143.886 171.994 144.041 173.765L145.475 190.156Z" fill="#05A4A6"/>
<path d="M92.7151 112.68C91.1177 111.9 89.1821 112.561 88.4941 114.199C85.1887 122.071 83.6812 130.596 84.0996 139.15C84.5704 148.777 87.4655 158.13 92.5162 166.34C97.5668 174.549 104.609 181.35 112.99 186.111C120.437 190.342 128.726 192.84 137.242 193.439C139.015 193.563 140.477 192.133 140.502 190.356L140.732 173.904C140.757 172.127 139.333 170.682 137.566 170.491C132.908 169.987 128.39 168.534 124.297 166.209C119.268 163.352 115.043 159.272 112.012 154.346C108.982 149.42 107.245 143.808 106.962 138.032C106.732 133.33 107.472 128.642 109.123 124.257C109.749 122.594 109.101 120.672 107.504 119.893L92.7151 112.68Z" fill="#87E9FF"/>
</g>
<rect x="31.3184" y="219.021" width="13.4601" height="13.4601" rx="2.69202" fill="#87E9FF"/>
<path d="M58.8668 217.252L58.2166 215.782H54.608L53.9579 217.252H53.157L56.0119 210.779H56.8127L59.6676 217.252H58.8668ZM54.9095 215.084H57.9151L56.417 211.683L54.9095 215.084ZM62.2953 217.252L60.2224 212.38H61.0139L62.6345 216.422L64.2268 212.38H65.0183L62.9737 217.252H62.2953ZM67.5946 212.267C68.9231 212.267 69.5733 213.106 69.5733 214.284V217.252H68.8666V216.488C68.518 217.063 67.7925 217.365 67.1518 217.365C66.1248 217.365 65.371 216.771 65.371 215.81C65.371 214.84 66.2379 214.189 67.2837 214.189C67.8113 214.189 68.3672 214.302 68.8666 214.463V214.284C68.8666 213.624 68.6028 212.87 67.5475 212.87C67.0576 212.87 66.5676 213.087 66.1248 213.313L65.8421 212.738C66.5394 212.39 67.1235 212.267 67.5946 212.267ZM67.2743 216.743C67.915 216.743 68.6782 216.413 68.8666 215.725V214.981C68.4238 214.858 67.9244 214.783 67.3968 214.783C66.6713 214.783 66.0588 215.198 66.0588 215.782C66.0588 216.385 66.5865 216.743 67.2743 216.743ZM71.3657 211.495C71.1019 211.495 70.8946 211.278 70.8946 211.024C70.8946 210.779 71.1019 210.562 71.3657 210.562C71.6201 210.562 71.8274 210.779 71.8274 211.024C71.8274 211.278 71.6201 211.495 71.3657 211.495ZM71.0077 217.252V212.38H71.7144V217.252H71.0077ZM73.1334 217.252V210.666H73.8401V217.252H73.1334ZM77.2467 212.267C78.5753 212.267 79.2254 213.106 79.2254 214.284V217.252H78.5187V216.488C78.1701 217.063 77.4446 217.365 76.8039 217.365C75.7769 217.365 75.0231 216.771 75.0231 215.81C75.0231 214.84 75.89 214.189 76.9358 214.189C77.4635 214.189 78.0194 214.302 78.5187 214.463V214.284C78.5187 213.624 78.2549 212.87 77.1996 212.87C76.7097 212.87 76.2197 213.087 75.7769 213.313L75.4942 212.738C76.1915 212.39 76.7756 212.267 77.2467 212.267ZM76.9264 216.743C77.5671 216.743 78.3303 216.413 78.5187 215.725V214.981C78.0759 214.858 77.5765 214.783 77.0489 214.783C76.3234 214.783 75.7109 215.198 75.7109 215.782C75.7109 216.385 76.2386 216.743 76.9264 216.743ZM83.2132 212.267C84.4946 212.267 85.4557 213.323 85.4557 214.811C85.4557 216.309 84.4946 217.365 83.2132 217.365C82.4312 217.365 81.8093 216.978 81.4419 216.338V217.252H80.7352V210.666H81.4419V213.294C81.8093 212.654 82.4312 212.267 83.2132 212.267ZM83.0813 216.733C84.0329 216.733 84.7113 215.932 84.7113 214.811C84.7113 213.69 84.0329 212.899 83.0813 212.899C82.1202 212.899 81.4419 213.69 81.4419 214.811C81.4419 215.932 82.1202 216.733 83.0813 216.733ZM86.6777 217.252V210.666H87.3843V217.252H86.6777ZM91.0077 216.733C91.5825 216.733 92.242 216.479 92.5435 216.149L92.9769 216.611C92.5529 217.073 91.6955 217.365 91.0171 217.365C89.7169 217.365 88.5485 216.3 88.5485 214.802C88.5485 213.351 89.6415 212.267 90.9512 212.267C92.421 212.267 93.2596 213.379 93.2596 215.084H89.274C89.3777 216.036 90.0467 216.733 91.0077 216.733ZM90.9794 212.899C90.1126 212.899 89.4154 213.511 89.2835 214.453H92.5624C92.4681 213.577 91.9499 212.899 90.9794 212.899ZM97.3183 217.252V210.779H100.286C101.332 210.779 102.067 211.448 102.067 212.39C102.067 213.078 101.728 213.473 101.144 213.812C101.888 214.189 102.321 214.774 102.321 215.48C102.321 216.517 101.521 217.252 100.399 217.252H97.3183ZM98.0532 213.52H100.098C100.814 213.52 101.323 213.087 101.323 212.484C101.323 211.881 100.814 211.448 100.098 211.448H98.0532V213.52ZM98.0532 216.583H100.211C101.012 216.583 101.577 216.083 101.577 215.386C101.577 214.689 101.012 214.189 100.211 214.189H98.0532V216.583ZM105.55 212.267C106.878 212.267 107.528 213.106 107.528 214.284V217.252H106.822V216.488C106.473 217.063 105.748 217.365 105.107 217.365C104.08 217.365 103.326 216.771 103.326 215.81C103.326 214.84 104.193 214.189 105.239 214.189C105.767 214.189 106.322 214.302 106.822 214.463V214.284C106.822 213.624 106.558 212.87 105.503 212.87C105.013 212.87 104.523 213.087 104.08 213.313L103.797 212.738C104.495 212.39 105.079 212.267 105.55 212.267ZM105.229 216.743C105.87 216.743 106.633 216.413 106.822 215.725V214.981C106.379 214.858 105.88 214.783 105.352 214.783C104.626 214.783 104.014 215.198 104.014 215.782C104.014 216.385 104.542 216.743 105.229 216.743ZM108.972 217.252V210.666H109.679V217.252H108.972ZM113.086 212.267C114.414 212.267 115.064 213.106 115.064 214.284V217.252H114.358V216.488C114.009 217.063 113.284 217.365 112.643 217.365C111.616 217.365 110.862 216.771 110.862 215.81C110.862 214.84 111.729 214.189 112.775 214.189C113.302 214.189 113.858 214.302 114.358 214.463V214.284C114.358 213.624 114.094 212.87 113.039 212.87C112.549 212.87 112.059 213.087 111.616 213.313L111.333 212.738C112.03 212.39 112.615 212.267 113.086 212.267ZM112.765 216.743C113.406 216.743 114.169 216.413 114.358 215.725V214.981C113.915 214.858 113.415 214.783 112.888 214.783C112.162 214.783 111.55 215.198 111.55 215.782C111.55 216.385 112.077 216.743 112.765 216.743ZM118.826 212.267C119.9 212.267 120.654 213.049 120.654 214.152V217.252H119.947V214.246C119.947 213.454 119.448 212.899 118.732 212.899C117.912 212.899 117.224 213.473 117.224 214.152V217.252H116.518V212.38H117.224V213.162C117.507 212.644 118.138 212.267 118.826 212.267ZM124.345 217.365C122.979 217.365 121.82 216.196 121.82 214.811C121.82 213.426 122.979 212.267 124.345 212.267C125.005 212.267 125.617 212.541 126.079 212.983L125.589 213.464C125.269 213.115 124.826 212.899 124.345 212.899C123.375 212.899 122.565 213.775 122.565 214.811C122.565 215.857 123.375 216.733 124.345 216.733C124.835 216.733 125.288 216.507 125.617 216.14L126.107 216.62C125.646 217.082 125.024 217.365 124.345 217.365ZM129.386 216.733C129.961 216.733 130.62 216.479 130.922 216.149L131.355 216.611C130.931 217.073 130.074 217.365 129.396 217.365C128.095 217.365 126.927 216.3 126.927 214.802C126.927 213.351 128.02 212.267 129.33 212.267C130.799 212.267 131.638 213.379 131.638 215.084H127.652C127.756 216.036 128.425 216.733 129.386 216.733ZM129.358 212.899C128.491 212.899 127.794 213.511 127.662 214.453H130.941C130.847 213.577 130.328 212.899 129.358 212.899Z" fill="#666666"/>
<path d="M60.8642 234.479C60.8642 236.121 59.7067 237.252 57.7146 237.4V238.248H56.4089V237.359C55.1572 237.198 54.04 236.686 53.1651 235.879L54.3092 234.519C54.9418 235.058 55.6283 235.448 56.4089 235.623V233.389C54.7264 232.958 53.5689 232.352 53.5689 230.723C53.5689 229.189 54.6995 228.085 56.4089 227.87V227.035H57.7146V227.883C58.8856 228.004 59.8278 228.449 60.6085 229.122L59.5721 230.548C58.9933 230.077 58.3472 229.768 57.7146 229.62V231.773C59.6125 232.204 60.8642 232.81 60.8642 234.479ZM55.5744 230.521C55.5744 230.966 55.8167 231.221 56.4089 231.423V229.593C55.884 229.727 55.5744 230.091 55.5744 230.521ZM57.7146 235.704C58.4683 235.609 58.8587 235.192 58.8587 234.694C58.8587 234.183 58.5356 233.94 57.7146 233.712V235.704ZM61.9654 237.252V235.636L65.3709 232.998C66.4746 232.123 66.8246 231.518 66.8246 230.871C66.8246 230.104 66.1785 229.647 65.4247 229.647C64.5229 229.647 63.8364 230.104 63.1634 230.871L61.8981 229.647C62.8134 228.489 63.9845 227.843 65.4785 227.843C67.4437 227.843 68.8705 229.054 68.8705 230.791C68.8705 232.029 68.3321 232.985 66.7169 234.156L65.0344 235.461H68.9513V237.252H61.9654ZM74.6358 237.252V235.367H70.1267L69.9383 233.833L74.2186 228.018H76.6279V233.698H77.8528V235.367H76.6279V237.252H74.6358ZM72.0246 233.698H74.6358V230.118L72.0246 233.698ZM83.0812 237.413C80.6449 237.413 78.9355 235.434 78.9355 232.621C78.9355 229.822 80.6449 227.843 83.0812 227.843C85.5175 227.843 87.2404 229.822 87.2404 232.621C87.2404 235.434 85.5175 237.413 83.0812 237.413ZM83.0812 235.609C84.333 235.609 85.1945 234.358 85.1945 232.621C85.1945 230.885 84.333 229.647 83.0812 229.647C81.8429 229.647 80.968 230.885 80.968 232.621C80.968 234.358 81.8429 235.609 83.0812 235.609Z" fill="#212121"/>
<path d="M89.2184 237.365C88.7285 237.365 88.3422 236.969 88.3422 236.488C88.3422 236.046 88.7285 235.65 89.2184 235.65C89.6801 235.65 90.057 236.046 90.057 236.488C90.057 236.969 89.6801 237.365 89.2184 237.365ZM93.4116 237.374C92.2433 237.374 91.3576 236.912 90.8111 236.281L91.6309 235.358C92.0831 235.848 92.6956 236.121 93.3457 236.121C94.0618 236.121 94.4763 235.791 94.4763 235.329C94.4763 234.83 94.09 234.576 93.2138 234.585H92.4694V233.398L93.2138 233.407C93.9204 233.407 94.3444 233.144 94.3444 232.682C94.3444 232.211 93.9016 231.909 93.2609 231.909C92.6484 231.909 92.1679 232.211 91.7345 232.663L90.9336 231.815C91.4707 231.165 92.2433 230.666 93.3928 230.666C94.8532 230.666 95.7672 231.41 95.7672 232.437C95.7672 233.181 95.2584 233.718 94.5517 233.926C95.2584 234.086 95.9085 234.585 95.9085 235.443C95.9085 236.564 94.9192 237.374 93.4116 237.374ZM99.6061 237.365C97.9007 237.365 96.7041 235.98 96.7041 234.01C96.7041 232.051 97.9007 230.666 99.6061 230.666C101.312 230.666 102.518 232.051 102.518 234.01C102.518 235.98 101.312 237.365 99.6061 237.365ZM99.6061 236.102C100.482 236.102 101.085 235.226 101.085 234.01C101.085 232.795 100.482 231.928 99.6061 231.928C98.7393 231.928 98.1269 232.795 98.1269 234.01C98.1269 235.226 98.7393 236.102 99.6061 236.102Z" fill="#666666"/>
<rect x="146.314" y="219.021" width="13.4601" height="13.4601" rx="2.69202" fill="#FFA36B"/>
<path d="M170.452 217.252V211.476H168.276V210.779H173.363V211.476H171.187V217.252H170.452ZM176.764 217.365C175.398 217.365 174.239 216.196 174.239 214.811C174.239 213.426 175.398 212.267 176.764 212.267C178.13 212.267 179.279 213.426 179.279 214.811C179.279 216.196 178.13 217.365 176.764 217.365ZM176.764 216.733C177.725 216.733 178.535 215.857 178.535 214.811C178.535 213.775 177.725 212.899 176.764 212.899C175.793 212.899 174.983 213.775 174.983 214.811C174.983 215.857 175.793 216.733 176.764 216.733ZM182.585 216.535L182.934 217.054C182.679 217.252 182.359 217.365 182.029 217.365C181.332 217.365 180.842 216.846 180.842 216.121V213.012H180.079V212.38H180.842V211.042H181.549V212.38H182.745V213.012H181.549V216.121C181.549 216.479 181.794 216.733 182.076 216.733C182.293 216.733 182.482 216.649 182.585 216.535ZM185.912 212.267C187.241 212.267 187.891 213.106 187.891 214.284V217.252H187.184V216.488C186.836 217.063 186.11 217.365 185.47 217.365C184.443 217.365 183.689 216.771 183.689 215.81C183.689 214.84 184.556 214.189 185.601 214.189C186.129 214.189 186.685 214.302 187.184 214.463V214.284C187.184 213.624 186.921 212.87 185.865 212.87C185.375 212.87 184.885 213.087 184.443 213.313L184.16 212.738C184.857 212.39 185.441 212.267 185.912 212.267ZM185.592 216.743C186.233 216.743 186.996 216.413 187.184 215.725V214.981C186.742 214.858 186.242 214.783 185.715 214.783C184.989 214.783 184.377 215.198 184.377 215.782C184.377 216.385 184.904 216.743 185.592 216.743ZM189.335 217.252V210.666H190.042V217.252H189.335ZM198.876 211.476H194.975V213.605H198.489V214.302H194.975V216.554H198.876V217.252H194.231V210.779H198.876V211.476ZM202.088 212.267C203.417 212.267 204.067 213.106 204.067 214.284V217.252H203.36V216.488C203.012 217.063 202.286 217.365 201.645 217.365C200.618 217.365 199.865 216.771 199.865 215.81C199.865 214.84 200.731 214.189 201.777 214.189C202.305 214.189 202.861 214.302 203.36 214.463V214.284C203.36 213.624 203.096 212.87 202.041 212.87C201.551 212.87 201.061 213.087 200.618 213.313L200.336 212.738C201.033 212.39 201.617 212.267 202.088 212.267ZM201.768 216.743C202.409 216.743 203.172 216.413 203.36 215.725V214.981C202.917 214.858 202.418 214.783 201.89 214.783C201.165 214.783 200.552 215.198 200.552 215.782C200.552 216.385 201.08 216.743 201.768 216.743ZM206.283 213.332C206.575 212.682 207.273 212.267 208.168 212.267V212.899C207.065 212.899 206.283 213.577 206.283 214.529V217.252H205.577V212.38H206.283V213.332ZM211.463 212.267C212.537 212.267 213.291 213.049 213.291 214.152V217.252H212.584V214.246C212.584 213.454 212.085 212.899 211.369 212.899C210.549 212.899 209.861 213.473 209.861 214.152V217.252H209.155V212.38H209.861V213.162C210.144 212.644 210.775 212.267 211.463 212.267ZM215.07 211.495C214.806 211.495 214.599 211.278 214.599 211.024C214.599 210.779 214.806 210.562 215.07 210.562C215.324 210.562 215.531 210.779 215.531 211.024C215.531 211.278 215.324 211.495 215.07 211.495ZM214.712 217.252V212.38H215.418V217.252H214.712ZM219.155 212.267C220.229 212.267 220.983 213.049 220.983 214.152V217.252H220.276V214.246C220.276 213.454 219.777 212.899 219.061 212.899C218.241 212.899 217.554 213.473 217.554 214.152V217.252H216.847V212.38H217.554V213.162C217.836 212.644 218.467 212.267 219.155 212.267ZM226.201 212.38H226.908V216.733C226.908 217.986 225.918 218.872 224.515 218.872C223.723 218.872 222.988 218.599 222.545 218.222L222.856 217.666C223.233 218.024 223.817 218.241 224.42 218.241C225.542 218.241 226.201 217.685 226.201 216.733V215.942C225.824 216.535 225.202 216.894 224.43 216.894C223.12 216.894 222.187 215.932 222.187 214.576C222.187 213.219 223.12 212.267 224.43 212.267C225.202 212.267 225.824 212.625 226.201 213.219V212.38ZM224.562 216.262C225.523 216.262 226.201 215.565 226.201 214.576C226.201 213.596 225.523 212.899 224.562 212.899C223.61 212.899 222.932 213.596 222.932 214.576C222.932 215.565 223.61 216.262 224.562 216.262ZM230.128 217.365C229.449 217.365 228.695 217.11 228.111 216.639L228.479 216.121C229.035 216.526 229.591 216.733 230.128 216.733C230.768 216.733 231.202 216.432 231.202 215.97C231.202 215.443 230.636 215.273 229.977 215.084C228.799 214.745 228.347 214.397 228.347 213.699C228.347 212.814 229.082 212.267 230.052 212.267C230.655 212.267 231.277 212.475 231.795 212.814L231.456 213.36C230.966 213.049 230.486 212.899 230.052 212.899C229.506 212.899 229.054 213.144 229.054 213.615C229.054 214.039 229.412 214.171 230.316 214.463C231.098 214.708 231.908 214.971 231.908 215.895C231.908 216.79 231.136 217.365 230.128 217.365Z" fill="#666666"/>
<path d="M175.86 234.479C175.86 236.121 174.703 237.252 172.711 237.4V238.248H171.405V237.359C170.153 237.198 169.036 236.686 168.161 235.879L169.305 234.519C169.938 235.058 170.624 235.448 171.405 235.623V233.389C169.723 232.958 168.565 232.352 168.565 230.723C168.565 229.189 169.696 228.085 171.405 227.87V227.035H172.711V227.883C173.882 228.004 174.824 228.449 175.605 229.122L174.568 230.548C173.989 230.077 173.343 229.768 172.711 229.62V231.773C174.609 232.204 175.86 232.81 175.86 234.479ZM170.571 230.521C170.571 230.966 170.813 231.221 171.405 231.423V229.593C170.88 229.727 170.571 230.091 170.571 230.521ZM172.711 235.704C173.464 235.609 173.855 235.192 173.855 234.694C173.855 234.183 173.532 233.94 172.711 233.712V235.704ZM176.962 237.252V235.636L180.367 232.998C181.471 232.123 181.821 231.518 181.821 230.871C181.821 230.104 181.175 229.647 180.421 229.647C179.519 229.647 178.832 230.104 178.159 230.871L176.894 229.647C177.81 228.489 178.981 227.843 180.475 227.843C182.44 227.843 183.867 229.054 183.867 230.791C183.867 232.029 183.328 232.985 181.713 234.156L180.03 235.461H183.947V237.252H176.962ZM189.632 237.252V235.367H185.123L184.934 233.833L189.215 228.018H191.624V233.698H192.849V235.367H191.624V237.252H189.632ZM187.021 233.698H189.632V230.118L187.021 233.698ZM198.077 237.413C195.641 237.413 193.932 235.434 193.932 232.621C193.932 229.822 195.641 227.843 198.077 227.843C200.514 227.843 202.237 229.822 202.237 232.621C202.237 235.434 200.514 237.413 198.077 237.413ZM198.077 235.609C199.329 235.609 200.191 234.358 200.191 232.621C200.191 230.885 199.329 229.647 198.077 229.647C196.839 229.647 195.964 230.885 195.964 232.621C195.964 234.358 196.839 235.609 198.077 235.609Z" fill="#212121"/>
<path d="M204.215 237.365C203.725 237.365 203.338 236.969 203.338 236.488C203.338 236.046 203.725 235.65 204.215 235.65C204.676 235.65 205.053 236.046 205.053 236.488C205.053 236.969 204.676 237.365 204.215 237.365ZM208.408 237.374C207.239 237.374 206.354 236.912 205.807 236.281L206.627 235.358C207.079 235.848 207.692 236.121 208.342 236.121C209.058 236.121 209.472 235.791 209.472 235.329C209.472 234.83 209.086 234.576 208.21 234.585H207.466V233.398L208.21 233.407C208.917 233.407 209.341 233.144 209.341 232.682C209.341 232.211 208.898 231.909 208.257 231.909C207.645 231.909 207.164 232.211 206.731 232.663L205.93 231.815C206.467 231.165 207.239 230.666 208.389 230.666C209.849 230.666 210.763 231.41 210.763 232.437C210.763 233.181 210.254 233.718 209.548 233.926C210.254 234.086 210.905 234.585 210.905 235.443C210.905 236.564 209.915 237.374 208.408 237.374ZM214.602 237.365C212.897 237.365 211.7 235.98 211.7 234.01C211.7 232.051 212.897 230.666 214.602 230.666C216.308 230.666 217.514 232.051 217.514 234.01C217.514 235.98 216.308 237.365 214.602 237.365ZM214.602 236.102C215.478 236.102 216.082 235.226 216.082 234.01C216.082 232.795 215.478 231.928 214.602 231.928C213.735 231.928 213.123 232.795 213.123 234.01C213.123 235.226 213.735 236.102 214.602 236.102Z" fill="#666666"/>
<rect x="31.3184" y="269.482" width="13.4601" height="13.4601" rx="2.69202" fill="#FFE0BB"/>
<path d="M55.456 267.712V261.936H53.2795V261.239H58.3674V261.936H56.1909V267.712H55.456ZM61.7677 267.825C60.4015 267.825 59.2425 266.656 59.2425 265.271C59.2425 263.886 60.4015 262.727 61.7677 262.727C63.1339 262.727 64.2834 263.886 64.2834 265.271C64.2834 266.656 63.1339 267.825 61.7677 267.825ZM61.7677 267.193C62.7287 267.193 63.539 266.317 63.539 265.271C63.539 264.235 62.7287 263.359 61.7677 263.359C60.7972 263.359 59.9869 264.235 59.9869 265.271C59.9869 266.317 60.7972 267.193 61.7677 267.193ZM67.5892 266.996L67.9378 267.514C67.6834 267.712 67.3631 267.825 67.0333 267.825C66.336 267.825 65.8461 267.307 65.8461 266.581V263.472H65.0829V262.84H65.8461V261.503H66.5528V262.84H67.7494V263.472H66.5528V266.581C66.5528 266.939 66.7977 267.193 67.0804 267.193C67.2971 267.193 67.4855 267.109 67.5892 266.996ZM70.9163 262.727C72.2448 262.727 72.8949 263.566 72.8949 264.744V267.712H72.1883V266.948C71.8396 267.523 71.1141 267.825 70.4734 267.825C69.4464 267.825 68.6927 267.231 68.6927 266.27C68.6927 265.3 69.5595 264.649 70.6054 264.649C71.133 264.649 71.6889 264.763 72.1883 264.923V264.744C72.1883 264.084 71.9244 263.33 70.8692 263.33C70.3792 263.33 69.8893 263.547 69.4464 263.773L69.1638 263.198C69.861 262.85 70.4452 262.727 70.9163 262.727ZM70.5959 267.203C71.2366 267.203 71.9998 266.873 72.1883 266.185V265.441C71.7454 265.318 71.2461 265.243 70.7184 265.243C69.9929 265.243 69.3805 265.658 69.3805 266.242C69.3805 266.845 69.9081 267.203 70.5959 267.203ZM74.3388 267.712V261.126H75.0454V267.712H74.3388ZM79.2345 267.712V261.239H81.8633C83.2012 261.239 84.2471 262.096 84.2471 263.312C84.2471 264.527 83.2012 265.384 81.8633 265.384H79.9694V267.712H79.2345ZM79.9694 264.687H81.7314C82.7866 264.687 83.5027 264.178 83.5027 263.312C83.5027 262.445 82.7866 261.936 81.7314 261.936H79.9694V264.687ZM87.5312 267.825C86.165 267.825 85.0061 266.656 85.0061 265.271C85.0061 263.886 86.165 262.727 87.5312 262.727C88.8974 262.727 90.0469 263.886 90.0469 265.271C90.0469 266.656 88.8974 267.825 87.5312 267.825ZM87.5312 267.193C88.4922 267.193 89.3025 266.317 89.3025 265.271C89.3025 264.235 88.4922 263.359 87.5312 263.359C86.5607 263.359 85.7504 264.235 85.7504 265.271C85.7504 266.317 86.5607 267.193 87.5312 267.193ZM91.5625 261.955C91.2987 261.955 91.0914 261.738 91.0914 261.484C91.0914 261.239 91.2987 261.022 91.5625 261.022C91.8169 261.022 92.0242 261.239 92.0242 261.484C92.0242 261.738 91.8169 261.955 91.5625 261.955ZM91.2045 267.712V262.84H91.9111V267.712H91.2045ZM95.648 262.727C96.7221 262.727 97.4759 263.509 97.4759 264.612V267.712H96.7692V264.706C96.7692 263.915 96.2699 263.359 95.5538 263.359C94.7341 263.359 94.0463 263.933 94.0463 264.612V267.712H93.3396V262.84H94.0463V263.622C94.3289 263.104 94.9602 262.727 95.648 262.727ZM101.045 266.996L101.394 267.514C101.139 267.712 100.819 267.825 100.489 267.825C99.7918 267.825 99.3019 267.307 99.3019 266.581V263.472H98.5387V262.84H99.3019V261.503H100.009V262.84H101.205V263.472H100.009V266.581C100.009 266.939 100.253 267.193 100.536 267.193C100.753 267.193 100.941 267.109 101.045 266.996ZM104.118 267.825C103.439 267.825 102.686 267.57 102.101 267.099L102.469 266.581C103.025 266.986 103.581 267.193 104.118 267.193C104.758 267.193 105.192 266.892 105.192 266.43C105.192 265.903 104.626 265.733 103.967 265.545C102.789 265.205 102.337 264.857 102.337 264.16C102.337 263.274 103.072 262.727 104.042 262.727C104.645 262.727 105.267 262.935 105.785 263.274L105.446 263.82C104.956 263.509 104.476 263.359 104.042 263.359C103.496 263.359 103.044 263.604 103.044 264.075C103.044 264.499 103.402 264.631 104.306 264.923C105.088 265.168 105.898 265.432 105.898 266.355C105.898 267.25 105.126 267.825 104.118 267.825Z" fill="#666666"/>
<path d="M55.4129 287.712V280.739L53.8381 281.722L53.0439 280.322L55.8167 278.465H57.405V287.712H55.4129ZM59.0342 287.712V286.096L62.4396 283.458C63.5433 282.583 63.8933 281.978 63.8933 281.332C63.8933 280.564 63.2472 280.107 62.4934 280.107C61.5916 280.107 60.9051 280.564 60.2321 281.332L58.9669 280.107C59.8822 278.949 61.0532 278.303 62.5473 278.303C64.5125 278.303 65.9392 279.514 65.9392 281.251C65.9392 282.489 65.4008 283.445 63.7856 284.616L62.1031 285.921H66.02V287.712H59.0342ZM68.205 287.712L71.8796 280.255H67.3031V278.465H74.1812V279.959L70.4528 287.712H68.205ZM79.5453 287.873C77.109 287.873 75.3996 285.895 75.3996 283.081C75.3996 280.282 77.109 278.303 79.5453 278.303C81.9816 278.303 83.7045 280.282 83.7045 283.081C83.7045 285.895 81.9816 287.873 79.5453 287.873ZM79.5453 286.07C80.7971 286.07 81.6586 284.818 81.6586 283.081C81.6586 281.345 80.7971 280.107 79.5453 280.107C78.307 280.107 77.4321 281.345 77.4321 283.081C77.4321 284.818 78.307 286.07 79.5453 286.07Z" fill="#212121"/>
<rect x="145.729" y="269.482" width="13.4601" height="13.4601" rx="2.69202" fill="#05A4A6"/>
<path d="M173.023 263.312C173.023 264.329 172.288 265.102 171.261 265.318L172.938 267.712H172.099L170.46 265.384H168.745V267.712H168.01V261.239H170.639C171.977 261.239 173.023 262.096 173.023 263.312ZM168.745 261.936V264.687H170.507C171.562 264.687 172.278 264.178 172.278 263.312C172.278 262.445 171.562 261.936 170.507 261.936H168.745ZM176.305 267.193C176.88 267.193 177.539 266.939 177.841 266.609L178.274 267.071C177.85 267.533 176.993 267.825 176.315 267.825C175.014 267.825 173.846 266.76 173.846 265.262C173.846 263.811 174.939 262.727 176.249 262.727C177.718 262.727 178.557 263.839 178.557 265.545H174.571C174.675 266.496 175.344 267.193 176.305 267.193ZM176.277 263.359C175.41 263.359 174.713 263.971 174.581 264.913H177.86C177.766 264.037 177.247 263.359 176.277 263.359ZM180.816 262.171V262.84H182.012V263.472H180.816V267.712H180.109V263.472H179.346V262.84H180.109V262.171C180.109 261.446 180.599 260.928 181.296 260.928C181.626 260.928 181.946 261.041 182.201 261.239L181.852 261.757C181.748 261.644 181.56 261.559 181.343 261.559C181.061 261.559 180.816 261.813 180.816 262.171ZM185.212 267.193C185.787 267.193 186.446 266.939 186.748 266.609L187.181 267.071C186.757 267.533 185.9 267.825 185.221 267.825C183.921 267.825 182.753 266.76 182.753 265.262C182.753 263.811 183.846 262.727 185.155 262.727C186.625 262.727 187.464 263.839 187.464 265.545H183.478C183.582 266.496 184.251 267.193 185.212 267.193ZM185.184 263.359C184.317 263.359 183.62 263.971 183.488 264.913H186.767C186.672 264.037 186.154 263.359 185.184 263.359ZM189.393 263.792C189.685 263.142 190.382 262.727 191.277 262.727V263.359C190.175 263.359 189.393 264.037 189.393 264.989V267.712H188.686V262.84H189.393V263.792ZM193.027 263.792C193.319 263.142 194.017 262.727 194.912 262.727V263.359C193.809 263.359 193.027 264.037 193.027 264.989V267.712H192.321V262.84H193.027V263.792ZM197.868 262.727C199.196 262.727 199.846 263.566 199.846 264.744V267.712H199.14V266.948C198.791 267.523 198.066 267.825 197.425 267.825C196.398 267.825 195.644 267.231 195.644 266.27C195.644 265.3 196.511 264.649 197.557 264.649C198.084 264.649 198.64 264.763 199.14 264.923V264.744C199.14 264.084 198.876 263.33 197.821 263.33C197.331 263.33 196.841 263.547 196.398 263.773L196.115 263.198C196.812 262.85 197.397 262.727 197.868 262.727ZM197.547 267.203C198.188 267.203 198.951 266.873 199.14 266.185V265.441C198.697 265.318 198.198 265.243 197.67 265.243C196.944 265.243 196.332 265.658 196.332 266.242C196.332 266.845 196.86 267.203 197.547 267.203ZM201.29 267.712V261.126H201.997V267.712H201.29ZM210.831 261.936H206.93V264.065H210.445V264.763H206.93V267.014H210.831V267.712H206.186V261.239H210.831V261.936ZM214.044 262.727C215.372 262.727 216.022 263.566 216.022 264.744V267.712H215.316V266.948C214.967 267.523 214.241 267.825 213.601 267.825C212.574 267.825 211.82 267.231 211.82 266.27C211.82 265.3 212.687 264.649 213.733 264.649C214.26 264.649 214.816 264.763 215.316 264.923V264.744C215.316 264.084 215.052 263.33 213.996 263.33C213.507 263.33 213.017 263.547 212.574 263.773L212.291 263.198C212.988 262.85 213.572 262.727 214.044 262.727ZM213.723 267.203C214.364 267.203 215.127 266.873 215.316 266.185V265.441C214.873 265.318 214.373 265.243 213.846 265.243C213.12 265.243 212.508 265.658 212.508 266.242C212.508 266.845 213.035 267.203 213.723 267.203ZM218.239 263.792C218.531 263.142 219.228 262.727 220.123 262.727V263.359C219.021 263.359 218.239 264.037 218.239 264.989V267.712H217.532V262.84H218.239V263.792ZM223.418 262.727C224.493 262.727 225.246 263.509 225.246 264.612V267.712H224.54V264.706C224.54 263.915 224.04 263.359 223.324 263.359C222.504 263.359 221.817 263.933 221.817 264.612V267.712H221.11V262.84H221.817V263.622C222.099 263.104 222.731 262.727 223.418 262.727ZM227.025 261.955C226.761 261.955 226.554 261.738 226.554 261.484C226.554 261.239 226.761 261.022 227.025 261.022C227.28 261.022 227.487 261.239 227.487 261.484C227.487 261.738 227.28 261.955 227.025 261.955ZM226.667 267.712V262.84H227.374V267.712H226.667ZM231.111 262.727C232.185 262.727 232.939 263.509 232.939 264.612V267.712H232.232V264.706C232.232 263.915 231.732 263.359 231.016 263.359C230.197 263.359 229.509 263.933 229.509 264.612V267.712H228.802V262.84H229.509V263.622C229.792 263.104 230.423 262.727 231.111 262.727ZM238.156 262.84H238.863V267.193C238.863 268.447 237.874 269.332 236.47 269.332C235.678 269.332 234.944 269.059 234.501 268.682L234.812 268.126C235.188 268.484 235.773 268.701 236.376 268.701C237.497 268.701 238.156 268.145 238.156 267.193V266.402C237.78 266.996 237.158 267.354 236.385 267.354C235.075 267.354 234.143 266.393 234.143 265.036C234.143 263.679 235.075 262.727 236.385 262.727C237.158 262.727 237.78 263.085 238.156 263.679V262.84ZM236.517 266.722C237.478 266.722 238.156 266.025 238.156 265.036C238.156 264.056 237.478 263.359 236.517 263.359C235.565 263.359 234.887 264.056 234.887 265.036C234.887 266.025 235.565 266.722 236.517 266.722Z" fill="#666666"/>
<path d="M175.274 284.939C175.274 286.581 174.117 287.712 172.125 287.86V288.708H170.819V287.819C169.567 287.658 168.45 287.146 167.575 286.339L168.719 284.979C169.352 285.518 170.038 285.908 170.819 286.083V283.849C169.137 283.418 167.979 282.812 167.979 281.184C167.979 279.649 169.11 278.545 170.819 278.33V277.495H172.125V278.343C173.296 278.465 174.238 278.909 175.019 279.582L173.982 281.009C173.403 280.537 172.757 280.228 172.125 280.08V282.233C174.023 282.664 175.274 283.27 175.274 284.939ZM169.985 280.982C169.985 281.426 170.227 281.682 170.819 281.883V280.053C170.294 280.187 169.985 280.551 169.985 280.982ZM172.125 286.164C172.878 286.07 173.269 285.652 173.269 285.154C173.269 284.643 172.946 284.4 172.125 284.172V286.164ZM176.376 287.712V286.096L179.781 283.458C180.885 282.583 181.235 281.978 181.235 281.332C181.235 280.564 180.589 280.107 179.835 280.107C178.933 280.107 178.247 280.564 177.574 281.332L176.308 280.107C177.224 278.949 178.395 278.303 179.889 278.303C181.854 278.303 183.281 279.514 183.281 281.251C183.281 282.489 182.742 283.445 181.127 284.616L179.445 285.921H183.361V287.712H176.376ZM189.046 287.712V285.827H184.537L184.348 284.293L188.629 278.478H191.038V284.158H192.263V285.827H191.038V287.712H189.046ZM186.435 284.158H189.046V280.578L186.435 284.158ZM197.491 287.873C195.055 287.873 193.346 285.895 193.346 283.081C193.346 280.282 195.055 278.303 197.491 278.303C199.928 278.303 201.651 280.282 201.651 283.081C201.651 285.895 199.928 287.873 197.491 287.873ZM197.491 286.07C198.743 286.07 199.605 284.818 199.605 283.081C199.605 281.345 198.743 280.107 197.491 280.107C196.253 280.107 195.378 281.345 195.378 283.081C195.378 284.818 196.253 286.07 197.491 286.07Z" fill="#212121"/>
<path d="M203.629 287.825C203.139 287.825 202.752 287.429 202.752 286.948C202.752 286.506 203.139 286.11 203.629 286.11C204.09 286.11 204.467 286.506 204.467 286.948C204.467 287.429 204.09 287.825 203.629 287.825ZM207.822 287.834C206.653 287.834 205.768 287.372 205.221 286.741L206.041 285.818C206.493 286.308 207.106 286.581 207.756 286.581C208.472 286.581 208.886 286.251 208.886 285.79C208.886 285.29 208.5 285.036 207.624 285.045H206.88V283.858L207.624 283.867C208.331 283.867 208.755 283.604 208.755 283.142C208.755 282.671 208.312 282.369 207.671 282.369C207.059 282.369 206.578 282.671 206.145 283.123L205.344 282.275C205.881 281.625 206.653 281.126 207.803 281.126C209.263 281.126 210.177 281.87 210.177 282.897C210.177 283.641 209.669 284.178 208.962 284.386C209.669 284.546 210.319 285.045 210.319 285.903C210.319 287.024 209.329 287.834 207.822 287.834ZM214.016 287.825C212.311 287.825 211.114 286.44 211.114 284.47C211.114 282.511 212.311 281.126 214.016 281.126C215.722 281.126 216.928 282.511 216.928 284.47C216.928 286.44 215.722 287.825 214.016 287.825ZM214.016 286.562C214.893 286.562 215.496 285.686 215.496 284.47C215.496 283.255 214.893 282.388 214.016 282.388C213.149 282.388 212.537 283.255 212.537 284.47C212.537 285.686 213.149 286.562 214.016 286.562Z" fill="#666666"/>
<rect x="31.3184" y="310.864" width="215.362" height="30.4601" rx="15.2301" fill="#212121"/>
<path d="M104.998 329.594L102.564 322.196H103.77L105.59 327.839L107.442 322.196H108.648L110.5 327.839L112.32 322.196H113.526L111.093 329.594H110.005L108.056 323.704L106.085 329.594H104.998ZM115.164 323.101C114.798 323.101 114.518 322.799 114.518 322.455C114.518 322.121 114.798 321.819 115.164 321.819C115.508 321.819 115.799 322.121 115.799 322.455C115.799 322.799 115.508 323.101 115.164 323.101ZM114.625 329.594V324.027H115.691V329.594H114.625ZM119.839 328.592L120.227 329.325C119.926 329.572 119.516 329.723 119.118 329.723C118.257 329.723 117.653 329.099 117.653 328.205V324.931H116.814V324.027H117.653V322.498H118.698V324.027H120.012V324.931H118.698V328.129C118.698 328.517 118.956 328.797 119.269 328.797C119.506 328.797 119.721 328.711 119.839 328.592ZM124.146 323.898C125.373 323.898 126.235 324.791 126.235 326.051V329.594H125.19V326.234C125.19 325.405 124.663 324.824 123.909 324.824C123.069 324.824 122.369 325.416 122.369 326.137V329.594H121.314V322.067H122.369V324.856C122.703 324.296 123.381 323.898 124.146 323.898ZM132.045 322.067H133.101V329.594H132.045V328.625C131.615 329.314 130.926 329.723 130.064 329.723C128.6 329.723 127.501 328.517 127.501 326.805C127.501 325.104 128.6 323.898 130.064 323.898C130.926 323.898 131.615 324.307 132.045 324.985V322.067ZM130.323 328.797C131.324 328.797 132.045 327.968 132.045 326.805C132.045 325.642 131.324 324.824 130.323 324.824C129.3 324.824 128.578 325.642 128.578 326.805C128.578 327.968 129.3 328.797 130.323 328.797ZM135.82 325.093C136.175 324.361 136.929 323.898 137.888 323.898V324.824C136.735 324.824 135.917 325.459 135.82 326.428V329.594H134.754V324.027H135.82V325.093ZM141.264 323.898C142.761 323.898 143.59 324.845 143.59 326.223V329.594H142.546V328.829C142.136 329.411 141.372 329.723 140.693 329.723C139.509 329.723 138.637 329.034 138.637 327.946C138.637 326.837 139.638 326.094 140.866 326.094C141.415 326.094 142.007 326.213 142.546 326.396V326.223C142.546 325.524 142.223 324.781 141.113 324.781C140.564 324.781 140.026 324.996 139.541 325.244L139.154 324.457C139.95 324.059 140.65 323.898 141.264 323.898ZM140.898 328.883C141.587 328.883 142.363 328.539 142.546 327.849V327.106C142.093 326.966 141.576 326.891 141.027 326.891C140.284 326.891 139.66 327.311 139.66 327.914C139.66 328.517 140.198 328.883 140.898 328.883ZM146.542 329.594L144.669 324.027H145.756L147.038 328.172L148.416 324.027H149.321L150.699 328.172L151.969 324.027H153.057L151.183 329.594H150.204L148.868 325.459L147.522 329.594H146.542Z" fill="white"/>
<path d="M172.906 325.909H162.811" stroke="white" stroke-width="1.34601" stroke-linecap="round" stroke-linejoin="round"/>
<path d="M168.832 321.855L172.904 325.909L168.832 329.964" stroke="white" stroke-width="1.34601" stroke-linecap="round" stroke-linejoin="round"/>
</g>
<defs>
<filter id="filter0_d_316_7978" x="0.793369" y="0.242588" width="276.413" height="371.607" filterUnits="userSpaceOnUse" color-interpolation-filters="sRGB">
<feFlood flood-opacity="0" result="BackgroundImageFix"/>
<feColorMatrix in="SourceAlpha" type="matrix" values="0 0 0 0 0 0 0 0 0 0 0 0 0 0 0 0 0 0 127 0" result="hardAlpha"/>
<feOffset/>
<feGaussianBlur stdDeviation="9.87871"/>
<feComposite in2="hardAlpha" operator="out"/>
<feColorMatrix type="matrix" values="0 0 0 0 0 0 0 0 0 0 0 0 0 0 0 0 0 0 0.15 0"/>
<feBlend mode="normal" in2="BackgroundImageFix" result="effect1_dropShadow_316_7978"/>
<feBlend mode="normal" in="SourceGraphic" in2="effect1_dropShadow_316_7978" result="shape"/>
</filter>
<clipPath id="clip0_316_7978">
<rect width="127.871" height="127.871" fill="white" transform="translate(75.0645 65.9203)"/>
</clipPath>
</defs>
</svg>
