<svg xmlns="http://www.w3.org/2000/svg" width="16" height="16" viewBox="0 0 16 16" fill="none">
    <g clip-path="url(#clip0_70_30623)">
      <path d="M2 14H4.66667L13.3333 5.33333C13.687 4.97971 13.8856 4.50009 13.8856 4C13.8856 3.4999 13.687 3.02029 13.3333 2.66666C12.9797 2.31304 12.5001 2.11438 12 2.11438C11.4999 2.11438 11.0203 2.31304 10.6667 2.66666L2 11.3333V14Z" stroke="white" stroke-linecap="round" stroke-linejoin="round"/>
      <path d="M9.66699 3.66663L12.3337 6.33329" stroke="white" stroke-linecap="round" stroke-linejoin="round"/>
      <path d="M8 5.33333L4.66667 2L2 4.66667L5.33333 8" stroke="white" stroke-linecap="round" stroke-linejoin="round"/>
      <path d="M4.66699 5.33337L3.66699 6.33337" stroke="white" stroke-linecap="round" stroke-linejoin="round"/>
      <path d="M10.6667 8L14 11.3333L11.3333 14L8 10.6667" stroke="white" stroke-linecap="round" stroke-linejoin="round"/>
      <path d="M10.667 11.3334L9.66699 12.3334" stroke="white" stroke-linecap="round" stroke-linejoin="round"/>
    </g>
    <defs>
      <clipPath id="clip0_70_30623">
        <rect width="16" height="16" fill="white"/>
      </clipPath>
    </defs>
  </svg>