<svg width="57" height="56" viewBox="0 0 57 56" fill="none" xmlns="http://www.w3.org/2000/svg">
<rect x="0.109375" width="56" height="56" rx="12" fill="url(#paint0_linear_316_8807)"/>
<path d="M28 28.0001L14.572 22.6361L15.4 42.4001H11.8L12.664 21.8621L10 20.8001L28 13.6001L46 20.8001L28 28.0001ZM28 19.0001C27.01 19.0001 26.2 19.3961 26.2 19.9001C26.2 20.4041 27.01 20.8001 28 20.8001C28.99 20.8001 29.8 20.4041 29.8 19.9001C29.8 19.3961 28.99 19.0001 28 19.0001ZM28 29.8001L38.026 25.7861C39.304 27.4781 40.186 29.5121 40.474 31.7261C39.934 31.6541 39.376 31.6001 38.8 31.6001C34.21 31.6001 30.196 34.0661 28 37.7381C26.8853 35.8675 25.304 34.3183 23.4109 33.2424C21.5177 32.1664 19.3776 31.6005 17.2 31.6001C16.624 31.6001 16.066 31.6541 15.526 31.7261C15.814 29.5121 16.696 27.4781 17.974 25.7861L28 29.8001Z" fill="white"/>
<defs>
<linearGradient id="paint0_linear_316_8807" x1="4.48304" y1="1.36719" x2="25.9401" y2="68.2279" gradientUnits="userSpaceOnUse">
<stop offset="0.0108786" stop-color="#212121"/>
<stop offset="1" stop-color="#2D2D2D"/>
</linearGradient>
</defs>
</svg>
