<svg width="49" height="48" viewBox="0 0 49 48" fill="none" xmlns="http://www.w3.org/2000/svg">
<rect x="0.5" width="48" height="48" rx="8" fill="#212121"/>
<path d="M29.5 15.5001C29.5 15.3674 29.4473 15.2403 29.3536 15.1465C29.2598 15.0527 29.1326 15.0001 29 15.0001H26.5C25.2411 14.9373 24.0086 15.3754 23.0717 16.2186C22.1348 17.0618 21.5698 18.2415 21.5 19.5001V22.2001H19C18.8674 22.2001 18.7402 22.2527 18.6464 22.3465C18.5527 22.4403 18.5 22.5674 18.5 22.7001V25.3001C18.5 25.4327 18.5527 25.5598 18.6464 25.6536C18.7402 25.7474 18.8674 25.8001 19 25.8001H21.5V32.5001C21.5 32.6327 21.5527 32.7598 21.6464 32.8536C21.7402 32.9474 21.8674 33.0001 22 33.0001H25C25.1326 33.0001 25.2598 32.9474 25.3536 32.8536C25.4473 32.7598 25.5 32.6327 25.5 32.5001V25.8001H28.12C28.2312 25.8017 28.3397 25.7661 28.4285 25.6991C28.5172 25.6321 28.5811 25.5374 28.61 25.4301L29.33 22.8301C29.3499 22.7562 29.3526 22.6787 29.3378 22.6036C29.3231 22.5286 29.2913 22.4579 29.2449 22.397C29.1985 22.3362 29.1388 22.2868 29.0704 22.2526C29.0019 22.2185 28.9265 22.2005 28.85 22.2001H25.5V19.5001C25.5249 19.2525 25.6411 19.0232 25.826 18.8567C26.0109 18.6903 26.2512 18.5988 26.5 18.6001H29C29.1326 18.6001 29.2598 18.5474 29.3536 18.4536C29.4473 18.3598 29.5 18.2327 29.5 18.1001V15.5001Z" fill="white"/>
</svg>
