<svg xmlns="http://www.w3.org/2000/svg" width="24" height="25" viewBox="0 0 24 25" fill="none">
    <path d="M17 3.83343C17 3.70082 16.9473 3.57364 16.8536 3.47987C16.7598 3.38611 16.6326 3.33343 16.5 3.33343H14C12.7411 3.27072 11.5086 3.70882 10.5717 4.55201C9.63485 5.3952 9.06978 6.57492 9 7.83343V10.5334H6.5C6.36739 10.5334 6.24021 10.5861 6.14645 10.6799C6.05268 10.7736 6 10.9008 6 11.0334V13.6334C6 13.766 6.05268 13.8932 6.14645 13.987C6.24021 14.0807 6.36739 14.1334 6.5 14.1334H9V20.8334C9 20.966 9.05268 21.0932 9.14645 21.187C9.24021 21.2808 9.36739 21.3334 9.5 21.3334H12.5C12.6326 21.3334 12.7598 21.2808 12.8536 21.187C12.9473 21.0932 13 20.966 13 20.8334V14.1334H15.62C15.7312 14.135 15.8397 14.0995 15.9285 14.0325C16.0172 13.9655 16.0811 13.8708 16.11 13.7634L16.83 11.1634C16.8499 11.0895 16.8526 11.0121 16.8378 10.937C16.8231 10.8619 16.7913 10.7913 16.7449 10.7304C16.6985 10.6695 16.6388 10.6201 16.5704 10.586C16.5019 10.5518 16.4265 10.5339 16.35 10.5334H13V7.83343C13.0249 7.5859 13.1411 7.35654 13.326 7.19012C13.5109 7.0237 13.7512 6.93218 14 6.93343H16.5C16.6326 6.93343 16.7598 6.88075 16.8536 6.78698C16.9473 6.69321 17 6.56604 17 6.43343V3.83343Z" fill="white"/>
  </svg>