<svg xmlns="http://www.w3.org/2000/svg" width="80" height="80" viewBox="0 0 80 80" fill="none">
    <g clip-path="url(#clip0_90_51652)">
      <path d="M61.25 0H18.75C8.39466 0 0 8.39466 0 18.75V61.25C0 71.6053 8.39466 80 18.75 80H61.25C71.6053 80 80 71.6053 80 61.25V18.75C80 8.39466 71.6053 0 61.25 0Z" fill="#212121"/>
      <mask id="mask0_90_51652" style="mask-type:luminance" maskUnits="userSpaceOnUse" x="23" y="14" width="34" height="52">
        <path d="M23.0554 14.7368H56.7464V65.2631H23.0554V14.7368Z" fill="white"/>
      </mask>
      <g mask="url(#mask0_90_51652)">
        <path d="M31.4783 65.2632C36.1268 65.2632 39.8993 61.4907 39.8993 56.8422V48.421H31.4783C26.8299 48.421 23.0571 52.1938 23.0571 56.8422C23.0571 61.4907 26.8299 65.2632 31.4783 65.2632Z" fill="#0ACF83"/>
        <path d="M23.0571 40.0002C23.0571 35.3518 26.8299 31.5792 31.4783 31.5792H39.8993V48.4212H31.4783C26.8299 48.4212 23.0571 44.6486 23.0571 40.0002Z" fill="#A259FF"/>
        <path d="M23.0571 23.1578C23.0571 18.5094 26.8299 14.7368 31.4783 14.7368H39.8993V31.579H31.4783C26.8299 31.579 23.0571 27.8062 23.0571 23.1578Z" fill="#F24E1E"/>
        <path d="M39.908 14.7368H48.3289C52.9773 14.7368 56.7501 18.5094 56.7501 23.1578C56.7501 27.8062 52.9773 31.579 48.3289 31.579H39.908V14.7368Z" fill="#FF7262"/>
        <path d="M56.7501 39.9998C56.7501 44.6482 52.9773 48.4208 48.3289 48.4208C43.6805 48.4208 39.908 44.6482 39.908 39.9998C39.908 35.3514 43.6805 31.5789 48.3289 31.5789C52.9773 31.5789 56.7501 35.3514 56.7501 39.9998Z" fill="#1ABCFE"/>
      </g>
    </g>
    <defs>
      <clipPath id="clip0_90_51652">
        <rect width="80" height="80" fill="white"/>
      </clipPath>
    </defs>
  </svg>