<svg width="24" height="24" viewBox="0 0 24 24" fill="none" xmlns="http://www.w3.org/2000/svg">
<path d="M8.00098 5H6.00098C5.47054 5 4.96184 5.21071 4.58676 5.58579C4.21169 5.96086 4.00098 6.46957 4.00098 7V19C4.00098 19.5304 4.21169 20.0391 4.58676 20.4142C4.96184 20.7893 5.47054 21 6.00098 21H11.698M8.00098 5C8.00098 4.46957 8.21169 3.96086 8.58676 3.58579C8.96184 3.21071 9.47054 3 10.001 3H12.001C12.5314 3 13.0401 3.21071 13.4152 3.58579C13.7903 3.96086 14.001 4.46957 14.001 5M8.00098 5C8.00098 5.53043 8.21169 6.03914 8.58676 6.41421C8.96184 6.78929 9.47054 7 10.001 7H12.001C12.5314 7 13.0401 6.78929 13.4152 6.41421C13.7903 6.03914 14.001 5.53043 14.001 5M18.001 12V7C18.001 6.46957 17.7903 5.96086 17.4152 5.58579C17.0401 5.21071 16.5314 5 16.001 5H14.001M8.00098 11H12.001M8.00098 15H11.001M18.501 19.5L21.001 22M14.001 17.5C14.001 18.163 14.2644 18.7989 14.7332 19.2678C15.2021 19.7366 15.8379 20 16.501 20C17.164 20 17.7999 19.7366 18.2687 19.2678C18.7376 18.7989 19.001 18.163 19.001 17.5C19.001 16.837 18.7376 16.2011 18.2687 15.7322C17.7999 15.2634 17.164 15 16.501 15C15.8379 15 15.2021 15.2634 14.7332 15.7322C14.2644 16.2011 14.001 16.837 14.001 17.5Z" stroke="#6F49FE" stroke-width="1.8" stroke-linecap="round" stroke-linejoin="round"/>
</svg>
