<svg width="21" height="20" viewBox="0 0 21 20" fill="none" xmlns="http://www.w3.org/2000/svg">
<path d="M19.3271 10.1495C19.3271 9.4425 19.2686 8.9266 19.1419 8.3916H10.9043V11.5825H15.7396C15.6421 12.3755 15.1157 13.5697 13.9458 14.3721L13.9294 14.479L16.534 16.4563L16.7145 16.474C18.3717 14.9741 19.3271 12.7671 19.3271 10.1495Z" fill="#4285F4"/>
<path d="M10.9043 18.557C13.2732 18.557 15.2619 17.7927 16.7145 16.4743L13.9458 14.3724C13.205 14.8788 12.2106 15.2322 10.9043 15.2322C8.58415 15.2322 6.61495 13.7323 5.91298 11.6592L5.81009 11.6677L3.10182 13.7218L3.06641 13.8183C4.50918 16.6271 7.47276 18.557 10.9043 18.557Z" fill="#34A853"/>
<path d="M5.91524 11.6587C5.73002 11.1237 5.62283 10.5505 5.62283 9.95818C5.62283 9.36582 5.73002 8.79262 5.9055 8.25762L5.90059 8.14368L3.15838 6.05664L3.06866 6.09846C2.47402 7.26402 2.13281 8.5729 2.13281 9.95818C2.13281 11.3435 2.47402 12.6523 3.06866 13.8178L5.91524 11.6587Z" fill="#FBBC05"/>
<path d="M10.9043 4.685C12.5518 4.685 13.6632 5.38242 14.2969 5.96523L16.773 3.59591C15.2523 2.21063 13.2732 1.36035 10.9043 1.36035C7.47279 1.36035 4.50919 3.29018 3.06641 6.09893L5.90325 8.25809C6.61497 6.18495 8.58418 4.685 10.9043 4.685Z" fill="#EB4335"/>
</svg>
