<svg width="48" height="36" viewBox="0 0 48 36" fill="none" xmlns="http://www.w3.org/2000/svg">
<path d="M29.9763 22.484C29.9763 15.9929 31.5151 10.911 34.5929 7.23843C37.7128 3.56584 42.0764 1.15302 47.6838 0V6.66192C43.4255 7.98576 40.5586 10.3772 39.083 13.8363C38.2398 15.6726 37.9025 17.4448 38.0711 19.153H48V36H29.9763V22.484ZM0 22.484C0 16.0783 1.49671 11.0178 4.49012 7.30249C7.52569 3.58719 11.9315 1.15302 17.7075 0V6.66192C13.4071 8.02847 10.5191 10.3772 9.04348 13.7082C8.28458 15.4591 7.96838 17.274 8.09486 19.153H18.0237V36H0V22.484Z" fill="#212121"/>
</svg>
