<svg xmlns="http://www.w3.org/2000/svg" width="24" height="25" viewBox="0 0 24 25" fill="none">
    <path d="M21.959 14.0524V21.4314H17.681V14.5464C17.681 12.8164 17.062 11.6364 15.514 11.6364C14.332 11.6364 13.628 12.4324 13.319 13.2014C13.206 13.4764 13.177 13.8594 13.177 14.2444V21.4314H8.897C8.897 21.4314 8.955 9.77138 8.897 8.56238H13.177V10.3864L13.149 10.4284H13.177V10.3864C13.745 9.51138 14.76 8.26038 17.033 8.26038C19.848 8.26038 21.959 10.1004 21.959 14.0524ZM4.421 2.35938C2.958 2.35938 2 3.31938 2 4.58238C2 5.81738 2.93 6.80638 4.365 6.80638H4.393C5.886 6.80638 6.813 5.81738 6.813 4.58238C6.787 3.31938 5.886 2.35938 4.421 2.35938ZM2.254 21.4314H6.532V8.56238H2.254V21.4314Z" fill="white"/>
  </svg>