<svg width="49" height="48" viewBox="0 0 49 48" fill="none" xmlns="http://www.w3.org/2000/svg">
<rect x="0.5" width="48" height="48" rx="8" fill="#212121"/>
<path d="M34.459 25.7189V33.0979H30.181V26.2129C30.181 24.4829 29.562 23.3029 28.014 23.3029C26.832 23.3029 26.128 24.0989 25.819 24.8679C25.706 25.1429 25.677 25.5259 25.677 25.9109V33.0979H21.397C21.397 33.0979 21.455 21.4379 21.397 20.2289H25.677V22.0529L25.649 22.0949H25.677V22.0529C26.245 21.1779 27.26 19.9269 29.533 19.9269C32.348 19.9269 34.459 21.7669 34.459 25.7189ZM16.921 14.0259C15.458 14.0259 14.5 14.9859 14.5 16.2489C14.5 17.4839 15.43 18.4729 16.865 18.4729H16.893C18.386 18.4729 19.313 17.4839 19.313 16.2489C19.287 14.9859 18.386 14.0259 16.921 14.0259ZM14.754 33.0979H19.032V20.2289H14.754V33.0979Z" fill="white"/>
</svg>
