<svg width="49" height="36" viewBox="0 0 49 36" fill="none" xmlns="http://www.w3.org/2000/svg">
<path fill-rule="evenodd" clip-rule="evenodd" d="M42.5266 36C44.1378 36 45.683 35.3679 46.8222 34.2426C47.9615 33.1174 48.6016 31.5913 48.6016 30L48.6016 21C48.6016 19.4087 47.9615 17.8826 46.8222 16.7574C45.683 15.6321 44.1378 15 42.5266 15L33.4141 15C33.4141 12.6131 34.3741 10.3239 36.0831 8.63604C37.792 6.94821 40.1098 6 42.5266 6L45.5641 6C46.3697 6 47.1423 5.68393 47.7119 5.12132C48.2815 4.55871 48.6016 3.79565 48.6016 3C48.6016 2.20435 48.2815 1.44129 47.7119 0.878677C47.1423 0.316067 46.3697 1.95119e-07 45.5641 2.65547e-07L42.5266 5.31093e-07C38.4986 8.8323e-07 34.6356 1.58035 31.7874 4.3934C28.9392 7.20645 27.3391 11.0218 27.3391 15L27.3391 30C27.3391 31.5913 27.9791 33.1174 29.1184 34.2426C30.2577 35.3679 31.8029 36 33.4141 36L42.5266 36ZM15.1891 36C16.8003 36 18.3455 35.3679 19.4847 34.2426C20.624 33.1174 21.2641 31.5913 21.2641 30L21.2641 21C21.2641 19.4087 20.624 17.8826 19.4847 16.7574C18.3455 15.6321 16.8003 15 15.1891 15L6.07657 15C6.07657 12.6131 7.03663 10.3239 8.74556 8.63604C10.4545 6.94821 12.7723 6 15.1891 6L18.2266 6C19.0322 6 19.8048 5.68393 20.3744 5.12133C20.944 4.55872 21.2641 3.79565 21.2641 3C21.2641 2.20435 20.944 1.44129 20.3744 0.87868C19.8048 0.316069 19.0322 2.58504e-06 18.2266 2.65547e-06L15.1891 2.92101e-06C11.1611 3.27315e-06 7.29809 1.58036 4.44988 4.3934C1.60167 7.20645 0.00156947 11.0218 0.00156982 15L0.00157113 30C0.00157127 31.5913 0.641617 33.1174 1.7809 34.2426C2.92018 35.3679 4.46538 36 6.07657 36L15.1891 36Z" fill="#6F49FE"/>
</svg>
