<svg width="18" height="18" viewBox="0 0 18 18" fill="none" xmlns="http://www.w3.org/2000/svg">
<path id="Vector" d="M11.6665 13.9999C11.6007 15.6461 10.2292 17.0434 8.39187 16.999C7.96432 16.9883 7.43544 16.839 6.37857 16.5412C3.8355 15.8239 1.62754 14.6177 1.09778 11.9164C1 11.4213 1 10.8622 1 9.74399V8.25601C1 7.1387 1 6.5796 1.09778 6.08272C1.62754 3.38232 3.8355 2.17612 6.37857 1.4588C7.43633 1.16103 7.96432 1.0117 8.39187 1.00103C10.2292 0.956588 11.6007 2.3539 11.6665 4.00009M16.9997 9H7.22211M16.9997 9C16.9997 8.37779 15.2273 7.21514 14.7775 6.77782M16.9997 9C16.9997 9.62221 15.2273 10.7849 14.7775 11.2222" stroke="#666666" stroke-width="1.2" stroke-linecap="round" stroke-linejoin="round"/>
</svg>
