<svg width="16" height="16" viewBox="0 0 16 16" fill="none" xmlns="http://www.w3.org/2000/svg">
<path fill-rule="evenodd" clip-rule="evenodd" d="M0.878831 14.8495C1.26936 15.2401 1.90252 15.2401 2.29304 14.8495L15.021 2.12161C15.4115 1.73109 15.4115 1.09792 15.021 0.707399C14.6304 0.316874 13.9973 0.316875 13.6068 0.707399L0.878831 13.4353C0.488307 13.8258 0.488306 14.459 0.878831 14.8495Z" fill="#212121"/>
<path fill-rule="evenodd" clip-rule="evenodd" d="M15.293 14.8495C14.9025 15.2401 14.2694 15.2401 13.8788 14.8495L1.15091 2.12161C0.760385 1.73109 0.760385 1.09792 1.15091 0.707398C1.54143 0.316874 2.1746 0.316875 2.56512 0.707398L15.293 13.4353C15.6836 13.8258 15.6836 14.459 15.293 14.8495Z" fill="#212121"/>
</svg>
