<svg width="63" height="62" viewBox="0 0 63 62" fill="none" xmlns="http://www.w3.org/2000/svg">
<g filter="url(#filter0_ddd_316_8790)">
<rect x="3.90625" y="2" width="56" height="56" rx="12" fill="url(#paint0_linear_316_8790)"/>
<g clip-path="url(#clip0_316_8790)">
<path d="M49.9375 31.3867C50.4323 31.8555 50.8164 32.4023 51.0898 33.0273C51.3633 33.6523 51.5 34.3099 51.5 35C51.5 35.6901 51.3698 36.3346 51.1094 36.9336C50.849 37.5326 50.4909 38.0664 50.0352 38.5352C49.5794 39.0039 49.0521 39.362 48.4531 39.6094C47.8542 39.8568 47.2031 39.987 46.5 40C46.2266 40 45.9531 39.9805 45.6797 39.9414L36.4805 44.5312C36.4935 44.6094 36.5 44.6875 36.5 44.7656C36.5 44.8438 36.5 44.9219 36.5 45C36.5 45.6901 36.3698 46.3346 36.1094 46.9336C35.849 47.5326 35.4909 48.0664 35.0352 48.5352C34.5794 49.0039 34.0521 49.362 33.4531 49.6094C32.8542 49.8568 32.2031 49.987 31.5 50C30.8229 50 30.1849 49.8698 29.5859 49.6094C28.987 49.349 28.4531 48.9974 27.9844 48.5547C27.5156 48.112 27.151 47.5846 26.8906 46.9727C26.6302 46.3607 26.4935 45.7227 26.4805 45.0586V44.8047C26.4805 44.7266 26.4935 44.6354 26.5195 44.5312L17.3203 39.9414C17.0469 39.9805 16.7734 40 16.5 40C15.8099 40 15.1654 39.8698 14.5664 39.6094C13.9674 39.349 13.4336 38.9909 12.9648 38.5352C12.4961 38.0794 12.138 37.5521 11.8906 36.9531C11.6432 36.3542 11.513 35.7031 11.5 35C11.5 34.0755 11.7344 33.2227 12.2031 32.4414C12.6719 31.6602 13.3164 31.0482 14.1367 30.6055L17.5547 18.0664C16.8516 17.168 16.5 16.1458 16.5 15C16.5 14.3099 16.6302 13.6654 16.8906 13.0664C17.151 12.4674 17.5091 11.9336 17.9648 11.4648C18.4206 10.9961 18.9479 10.638 19.5469 10.3906C20.1458 10.1432 20.7969 10.013 21.5 10C22.3984 10 23.2318 10.2214 24 10.6641C24.7682 11.1068 25.3802 11.7188 25.8359 12.5H37.1641C37.6198 11.7188 38.2318 11.1068 39 10.6641C39.7682 10.2214 40.6016 10 41.5 10C42.1901 10 42.8346 10.1302 43.4336 10.3906C44.0326 10.651 44.5664 11.0091 45.0352 11.4648C45.5039 11.9206 45.862 12.4479 46.1094 13.0469C46.3568 13.6458 46.487 14.2969 46.5 15C46.5 15.5469 46.4154 16.0742 46.2461 16.582C46.0768 17.0898 45.8229 17.5651 45.4844 18.0078L49.9375 31.3867ZM41.5 35C41.5 34.2839 41.6432 33.6003 41.9297 32.9492C42.2161 32.2982 42.6328 31.7383 43.1797 31.2695L34.4102 24.6875L21.4609 34.3945L21.5 35H41.5ZM21.5 20C20.888 20 20.2891 19.8893 19.7031 19.668L16.8906 30.0195C17.6068 30.0846 18.2773 30.2865 18.9023 30.625C19.5273 30.9635 20.0612 31.4193 20.5039 31.9922L32.3398 23.125L25.5039 18.0078C25.0221 18.6328 24.4362 19.1211 23.7461 19.4727C23.056 19.8242 22.3073 20 21.5 20ZM45.7383 30.0586C45.8424 30.0326 45.9596 30.0195 46.0898 30.0195C46.2201 30.0195 46.3438 30.013 46.4609 30H46.6562C46.7214 30 46.7865 30.0065 46.8516 30.0195L43.3945 19.6289C42.7565 19.8763 42.125 20 41.5 20C41.2396 20 40.9857 19.9805 40.7383 19.9414L36.5 23.125L45.7383 30.0586ZM41.5 12.5C41.1484 12.5 40.8229 12.5651 40.5234 12.6953C40.224 12.8255 39.9635 13.0013 39.7422 13.2227C39.5208 13.444 39.3385 13.7109 39.1953 14.0234C39.0521 14.3359 38.987 14.6615 39 15C39 15.3516 39.0651 15.6771 39.1953 15.9766C39.3255 16.276 39.5013 16.5365 39.7227 16.7578C39.944 16.9792 40.2109 17.1615 40.5234 17.3047C40.8359 17.4479 41.1615 17.513 41.5 17.5C41.8516 17.5 42.1771 17.4349 42.4766 17.3047C42.776 17.1745 43.0365 16.9987 43.2578 16.7773C43.4792 16.556 43.6615 16.2891 43.8047 15.9766C43.9479 15.6641 44.013 15.3385 44 15C44 14.6484 43.9349 14.3229 43.8047 14.0234C43.6745 13.724 43.4987 13.4635 43.2773 13.2422C43.056 13.0208 42.7891 12.8385 42.4766 12.6953C42.1641 12.5521 41.8385 12.487 41.5 12.5ZM36.5 15H26.5L26.4609 15.6055L34.4102 21.5625L38.1797 18.7305C37.6328 18.2617 37.2161 17.7018 36.9297 17.0508C36.6432 16.3997 36.5 15.7161 36.5 15ZM21.5 12.5C21.1484 12.5 20.8229 12.5651 20.5234 12.6953C20.224 12.8255 19.9635 13.0013 19.7422 13.2227C19.5208 13.444 19.3385 13.7109 19.1953 14.0234C19.0521 14.3359 18.987 14.6615 19 15C19 15.3516 19.0651 15.6771 19.1953 15.9766C19.3255 16.276 19.5013 16.5365 19.7227 16.7578C19.944 16.9792 20.2109 17.1615 20.5234 17.3047C20.8359 17.4479 21.1615 17.513 21.5 17.5C21.8516 17.5 22.1771 17.4349 22.4766 17.3047C22.776 17.1745 23.0365 16.9987 23.2578 16.7773C23.4792 16.556 23.6615 16.2891 23.8047 15.9766C23.9479 15.6641 24.013 15.3385 24 15C24 14.6484 23.9349 14.3229 23.8047 14.0234C23.6745 13.724 23.4987 13.4635 23.2773 13.2422C23.056 13.0208 22.7891 12.8385 22.4766 12.6953C22.1641 12.5521 21.8385 12.487 21.5 12.5ZM14 35C14 35.3516 14.0651 35.6771 14.1953 35.9766C14.3255 36.276 14.5013 36.5365 14.7227 36.7578C14.944 36.9792 15.2109 37.1615 15.5234 37.3047C15.8359 37.4479 16.1615 37.513 16.5 37.5C16.8516 37.5 17.1771 37.4349 17.4766 37.3047C17.776 37.1745 18.0365 36.9987 18.2578 36.7773C18.4792 36.556 18.6615 36.2891 18.8047 35.9766C18.9479 35.6641 19.013 35.3385 19 35C19 34.6484 18.9349 34.3229 18.8047 34.0234C18.6745 33.724 18.4987 33.4635 18.2773 33.2422C18.056 33.0208 17.7891 32.8385 17.4766 32.6953C17.1641 32.5521 16.8385 32.487 16.5 32.5C16.1484 32.5 15.8229 32.5651 15.5234 32.6953C15.224 32.8255 14.9635 33.0013 14.7422 33.2227C14.5208 33.444 14.3385 33.7109 14.1953 34.0234C14.0521 34.3359 13.987 34.6615 14 35ZM31.5 47.5C31.8516 47.5 32.1771 47.4349 32.4766 47.3047C32.776 47.1745 33.0365 46.9987 33.2578 46.7773C33.4792 46.556 33.6615 46.2891 33.8047 45.9766C33.9479 45.6641 34.013 45.3385 34 45C34 44.6484 33.9349 44.3229 33.8047 44.0234C33.6745 43.724 33.4987 43.4635 33.2773 43.2422C33.056 43.0208 32.7891 42.8385 32.4766 42.6953C32.1641 42.5521 31.8385 42.487 31.5 42.5C31.1484 42.5 30.8229 42.5651 30.5234 42.6953C30.224 42.8255 29.9635 43.0013 29.7422 43.2227C29.5208 43.444 29.3385 43.7109 29.1953 44.0234C29.0521 44.3359 28.987 44.6615 29 45C29 45.3516 29.0651 45.6771 29.1953 45.9766C29.3255 46.276 29.5013 46.5365 29.7227 46.7578C29.944 46.9792 30.2109 47.1615 30.5234 47.3047C30.8359 47.4479 31.1615 47.513 31.5 47.5ZM31.5 40C32.3203 40 33.0951 40.1888 33.8242 40.5664C34.5534 40.944 35.1523 41.4779 35.6211 42.168L42.9453 38.5156C42.8021 38.3594 42.6654 38.1966 42.5352 38.0273C42.4049 37.8581 42.2812 37.6823 42.1641 37.5H20.8359C20.7318 37.6823 20.6146 37.8581 20.4844 38.0273C20.3542 38.1966 20.2109 38.3594 20.0547 38.5156L27.3789 42.168C27.8346 41.4909 28.4271 40.9635 29.1562 40.5859C29.8854 40.2083 30.6667 40.013 31.5 40ZM46.5 37.5C46.8516 37.5 47.1771 37.4349 47.4766 37.3047C47.776 37.1745 48.0365 36.9987 48.2578 36.7773C48.4792 36.556 48.6615 36.2891 48.8047 35.9766C48.9479 35.6641 49.013 35.3385 49 35C49 34.5703 48.8958 34.1667 48.6875 33.7891C48.4792 33.4115 48.1927 33.112 47.8281 32.8906L47.8086 32.9102L47.7891 32.8906L47.8086 32.8711C47.3919 32.6237 46.9557 32.5 46.5 32.5C46.1484 32.5 45.8229 32.5651 45.5234 32.6953C45.224 32.8255 44.9635 33.0013 44.7422 33.2227C44.5208 33.444 44.3385 33.7109 44.1953 34.0234C44.0521 34.3359 43.987 34.6615 44 35C44 35.3516 44.0651 35.6771 44.1953 35.9766C44.3255 36.276 44.5013 36.5365 44.7227 36.7578C44.944 36.9792 45.2109 37.1615 45.5234 37.3047C45.8359 37.4479 46.1615 37.513 46.5 37.5Z" fill="#212121"/>
</g>
</g>
<defs>
<filter id="filter0_ddd_316_8790" x="0.90625" y="0" width="62" height="62" filterUnits="userSpaceOnUse" color-interpolation-filters="sRGB">
<feFlood flood-opacity="0" result="BackgroundImageFix"/>
<feColorMatrix in="SourceAlpha" type="matrix" values="0 0 0 0 0 0 0 0 0 0 0 0 0 0 0 0 0 0 127 0" result="hardAlpha"/>
<feMorphology radius="1" operator="erode" in="SourceAlpha" result="effect1_dropShadow_316_8790"/>
<feOffset dy="1"/>
<feGaussianBlur stdDeviation="1"/>
<feComposite in2="hardAlpha" operator="out"/>
<feColorMatrix type="matrix" values="0 0 0 0 0 0 0 0 0 0 0 0 0 0 0 0 0 0 0.1 0"/>
<feBlend mode="normal" in2="BackgroundImageFix" result="effect1_dropShadow_316_8790"/>
<feColorMatrix in="SourceAlpha" type="matrix" values="0 0 0 0 0 0 0 0 0 0 0 0 0 0 0 0 0 0 127 0" result="hardAlpha"/>
<feOffset dy="1"/>
<feGaussianBlur stdDeviation="1.5"/>
<feComposite in2="hardAlpha" operator="out"/>
<feColorMatrix type="matrix" values="0 0 0 0 0 0 0 0 0 0 0 0 0 0 0 0 0 0 0.1 0"/>
<feBlend mode="normal" in2="effect1_dropShadow_316_8790" result="effect2_dropShadow_316_8790"/>
<feColorMatrix in="SourceAlpha" type="matrix" values="0 0 0 0 0 0 0 0 0 0 0 0 0 0 0 0 0 0 127 0" result="hardAlpha"/>
<feMorphology radius="1" operator="dilate" in="SourceAlpha" result="effect3_dropShadow_316_8790"/>
<feOffset/>
<feComposite in2="hardAlpha" operator="out"/>
<feColorMatrix type="matrix" values="0 0 0 0 0 0 0 0 0 0 0 0 0 0 0 0 0 0 0.04 0"/>
<feBlend mode="normal" in2="effect2_dropShadow_316_8790" result="effect3_dropShadow_316_8790"/>
<feBlend mode="normal" in="SourceGraphic" in2="effect3_dropShadow_316_8790" result="shape"/>
</filter>
<linearGradient id="paint0_linear_316_8790" x1="31.9062" y1="2" x2="31.9063" y2="58" gradientUnits="userSpaceOnUse">
<stop offset="0.25" stop-color="white"/>
<stop offset="1" stop-color="#F9FAFB"/>
</linearGradient>
<clipPath id="clip0_316_8790">
<rect width="40" height="40" fill="white" transform="translate(11.5 10)"/>
</clipPath>
</defs>
</svg>
