<svg width="48" height="47" viewBox="0 0 48 47" fill="none" xmlns="http://www.w3.org/2000/svg">
<rect x="0.355469" width="46.913" height="46.913" rx="23.4565" fill="#212121"/>
<path fill-rule="evenodd" clip-rule="evenodd" d="M24.6989 18.138C24.9058 17.9312 25.2411 17.9312 25.448 18.138L30.3915 23.0815C30.4909 23.1808 30.5466 23.3156 30.5466 23.456C30.5466 23.5965 30.4909 23.7312 30.3915 23.8306L25.448 28.7741C25.2411 28.981 24.9058 28.981 24.6989 28.7741C24.4921 28.5673 24.4921 28.2319 24.6989 28.0251L28.7382 23.9857H17.3051C17.0125 23.9857 16.7754 23.7485 16.7754 23.456C16.7754 23.1635 17.0125 22.9264 17.3051 22.9264H28.7382L24.6989 18.8871C24.4921 18.6803 24.4921 18.3449 24.6989 18.138Z" fill="white"/>
</svg>
