<svg width="250" height="200" viewBox="0 0 250 200" fill="none" xmlns="http://www.w3.org/2000/svg">
<path fill-rule="evenodd" clip-rule="evenodd" d="M207 65C210.866 65 214 68.134 214 72C214 75.866 210.866 79 207 79H167C170.866 79 174 82.134 174 86C174 89.866 170.866 93 167 93H189C192.866 93 196 96.134 196 100C196 103.866 192.866 107 189 107H178.826C173.952 107 170 110.134 170 114C170 116.577 172 118.911 176 121C179.866 121 183 124.134 183 128C183 131.866 179.866 135 176 135H93C89.134 135 86 131.866 86 128C86 124.134 89.134 121 93 121H54C50.134 121 47 117.866 47 114C47 110.134 50.134 107 54 107H94C97.866 107 101 103.866 101 100C101 96.134 97.866 93 94 93H69C65.134 93 62 89.866 62 86C62 82.134 65.134 79 69 79H109C105.134 79 102 75.866 102 72C102 68.134 105.134 65 109 65H207ZM207 93C210.866 93 214 96.134 214 100C214 103.866 210.866 107 207 107C203.134 107 200 103.866 200 100C200 96.134 203.134 93 207 93Z" fill="#F6F6F6"/>
<path d="M154.912 63.8302C154.818 63.1462 154.187 62.6678 153.503 62.7615C152.82 62.8553 152.341 63.4858 152.435 64.1697L154.912 63.8302ZM162.975 131.843L164.216 131.69C164.215 131.685 164.214 131.679 164.214 131.673L162.975 131.843ZM163.811 138.649L165.052 138.497L163.811 138.649ZM160.328 143.107L160.481 144.347L160.328 143.107ZM101.768 150.297L101.92 151.538L101.768 150.297ZM97.3103 146.814L98.551 146.662L97.3103 146.814ZM88.2945 73.3867L87.0538 73.539L88.2945 73.3867ZM90.0567 71.1554L90.196 72.3976L90.0567 71.1554ZM95.0544 71.8527C95.7404 71.7757 96.2342 71.1572 96.1572 70.4711C96.0803 69.7851 95.4617 69.2913 94.7757 69.3682L95.0544 71.8527ZM98.7038 68.9276C98.0178 69.0046 97.524 69.6231 97.6009 70.3092C97.6779 70.9952 98.2964 71.489 98.9825 71.412L98.7038 68.9276ZM103.57 70.8975C104.256 70.8205 104.749 70.202 104.672 69.5159C104.595 68.8299 103.977 68.3361 103.291 68.4131L103.57 70.8975ZM152.435 64.1697L161.737 132.012L164.214 131.673L154.912 63.8302L152.435 64.1697ZM161.734 131.995L162.57 138.801L165.052 138.497L164.216 131.69L161.734 131.995ZM162.57 138.801C162.755 140.309 161.683 141.681 160.176 141.866L160.481 144.347C163.358 143.994 165.405 141.375 165.052 138.497L162.57 138.801ZM160.176 141.866L101.616 149.056L101.92 151.538L160.481 144.347L160.176 141.866ZM101.616 149.056C100.108 149.241 98.7361 148.169 98.551 146.662L96.0696 146.967C96.423 149.844 99.0424 151.891 101.92 151.538L101.616 149.056ZM98.551 146.662L89.5352 73.2344L87.0538 73.539L96.0696 146.967L98.551 146.662ZM89.5352 73.2344C89.4847 72.8232 89.7771 72.449 90.1882 72.3986L89.8835 69.9172C88.102 70.1359 86.8351 71.7575 87.0538 73.539L89.5352 73.2344ZM90.1882 72.3986C90.1908 72.3982 90.1934 72.3979 90.196 72.3976L89.9173 69.9132C89.9061 69.9145 89.8948 69.9158 89.8835 69.9172L90.1882 72.3986ZM90.196 72.3976L95.0544 71.8527L94.7757 69.3682L89.9173 69.9132L90.196 72.3976ZM98.9825 71.412L103.57 70.8975L103.291 68.4131L98.7038 68.9276L98.9825 71.412Z" fill="#6F49FE"/>
<path fill-rule="evenodd" clip-rule="evenodd" d="M151.141 68.2692L159.56 129.753L160.318 135.921C160.562 137.908 159.168 139.715 157.204 139.956L104.762 146.395C102.798 146.636 101.009 145.22 100.765 143.233L92.6148 76.8568C92.4802 75.7605 93.2598 74.7626 94.3562 74.628L100.844 73.8314" fill="#F6F6F6"/>
<path d="M107.922 54C107.922 52.4812 109.153 51.25 110.672 51.25H156.229C156.958 51.25 157.657 51.5395 158.173 52.0549L171.616 65.4898C172.132 66.0056 172.422 66.7053 172.422 67.4349V130C172.422 131.519 171.191 132.75 169.672 132.75H110.672C109.153 132.75 107.922 131.519 107.922 130V54Z" stroke="#6F49FE" stroke-width="2.5"/>
<path d="M156.672 52.4028V64C156.672 65.6569 158.015 67 159.672 67H167.605" stroke="#6F49FE" stroke-width="2.5" stroke-linecap="round" stroke-linejoin="round"/>
<path d="M118 118H144M118 67H144H118ZM118 79H161H118ZM118 92H161H118ZM118 105H161H118Z" stroke="#6F49FE" stroke-width="2.5" stroke-linecap="round" stroke-linejoin="round"/>
</svg>
