<svg width="40" height="40" viewBox="0 0 40 40" fill="none" xmlns="http://www.w3.org/2000/svg">
<path fill-rule="evenodd" clip-rule="evenodd" d="M15.9854 25.3447C22.1337 25.3447 27.3887 26.2764 27.3887 29.9981C27.3887 33.7197 22.1687 34.6781 15.9854 34.6781C9.83536 34.6781 4.58203 33.7547 4.58203 30.0314C4.58203 26.3081 9.80036 25.3447 15.9854 25.3447Z" stroke="#FDBA09" stroke-width="2.5" stroke-linecap="round" stroke-linejoin="round"/>
<path fill-rule="evenodd" clip-rule="evenodd" d="M15.9858 20.033C11.9491 20.033 8.67578 16.7614 8.67578 12.7247C8.67578 8.68805 11.9491 5.41638 15.9858 5.41638C20.0208 5.41638 23.2941 8.68805 23.2941 12.7247C23.3091 16.7464 20.0591 20.018 16.0374 20.033H15.9858Z" stroke="#FDBA09" stroke-width="2.5" stroke-linecap="round" stroke-linejoin="round"/>
<path d="M27.4727 18.1361C30.141 17.7611 32.196 15.4711 32.201 12.6994C32.201 9.96777 30.2093 7.7011 27.5977 7.27277" stroke="#FDBA09" stroke-width="2.5" stroke-linecap="round" stroke-linejoin="round"/>
<path d="M30.9922 24.5537C33.5772 24.9387 35.3822 25.8454 35.3822 27.712C35.3822 28.997 34.5322 29.8304 33.1589 30.352" stroke="#FDBA09" stroke-width="2.5" stroke-linecap="round" stroke-linejoin="round"/>
</svg>
