<svg width="25" height="24" viewBox="0 0 25 24" fill="none" xmlns="http://www.w3.org/2000/svg">
<path d="M22.666 11.1V6.9C22.666 3.4 21.266 2 17.766 2H13.566C10.066 2 8.66602 3.4 8.66602 6.9V8H11.766C15.266 8 16.666 9.4 16.666 12.9V16H17.766C21.266 16 22.666 14.6 22.666 11.1Z" stroke="#212121" stroke-width="1.5" stroke-linecap="round" stroke-linejoin="round"/>
<path d="M16.666 17.1V12.9C16.666 9.4 15.266 8 11.766 8H7.56602C4.06602 8 2.66602 9.4 2.66602 12.9V17.1C2.66602 20.6 4.06602 22 7.56602 22H11.766C15.266 22 16.666 20.6 16.666 17.1Z" stroke="#212121" stroke-width="1.5" stroke-linecap="round" stroke-linejoin="round"/>
<path d="M6.74414 14.9998L8.69414 16.9498L12.5841 13.0498" stroke="#212121" stroke-width="1.5" stroke-linecap="round" stroke-linejoin="round"/>
</svg>
