<svg width="57" height="56" viewBox="0 0 57 56" fill="none" xmlns="http://www.w3.org/2000/svg">
<rect x="0.203125" width="56" height="56" rx="12" fill="url(#paint0_linear_316_8817)"/>
<g clip-path="url(#clip0_316_8817)">
<path d="M30.3408 39.3401L27.1208 36.2801L24.1208 33.4401L28.1208 32.8601L32.6208 32.2201L33.2008 31.0801H33.1608C32.7017 31.0803 32.2566 30.9226 31.9001 30.6334C31.5435 30.3442 31.2973 29.9413 31.2028 29.4921C31.2008 28.2581 32.8008 28.6581 34.0608 26.5781C34.2208 26.5381 39.7008 11.998 28.5008 11.998C17.3008 11.998 22.7808 26.5381 22.7808 26.5381C24.0408 28.5381 25.6608 28.2381 25.6408 29.4381C25.6208 30.6381 24.1608 31.0381 22.7808 31.1781C20.5008 31.4381 18.5008 30.9181 16.5008 34.6981C15.3008 36.8781 14.8008 43.9981 14.8008 43.9981H29.5208V43.6581L30.3408 39.3401ZM35.9408 44.0001H37.0608L36.5008 43.7201L35.9408 44.0001Z" fill="white"/>
<path d="M36.5 41.4601L41.44 44.0001L40.5 38.6201L44.5 34.8201L38.98 34.0401L36.5 29.1401L34.02 34.0401L28.5 34.8201L32.5 38.6201L31.56 44.0001L36.5 41.4601Z" fill="white"/>
</g>
<defs>
<linearGradient id="paint0_linear_316_8817" x1="4.57679" y1="1.36719" x2="26.0338" y2="68.2279" gradientUnits="userSpaceOnUse">
<stop offset="0.0108786" stop-color="#212121"/>
<stop offset="1" stop-color="#2D2D2D"/>
</linearGradient>
<clipPath id="clip0_316_8817">
<rect width="32" height="32" fill="white" transform="translate(12.5 12)"/>
</clipPath>
</defs>
</svg>
