<svg width="57" height="56" viewBox="0 0 57 56" fill="none" xmlns="http://www.w3.org/2000/svg">
<rect x="0.632812" width="56" height="56" rx="12" fill="url(#paint0_linear_316_8802)"/>
<g clip-path="url(#clip0_316_8802)">
<path fill-rule="evenodd" clip-rule="evenodd" d="M45.6191 34.9221C45.6191 42.5644 38.6943 45.9998 29 45.9998C19.3057 45.9998 12.3809 42.5644 12.3809 34.9761C12.3809 26.6678 16.5363 22.4584 24.8446 18.249L21.9029 12.7693C21.7273 12.4948 21.6296 12.1778 21.6201 11.8522C21.6105 11.5266 21.6896 11.2044 21.8487 10.9202C22.0079 10.6359 22.2412 10.4002 22.5238 10.2381C22.8064 10.076 23.1277 9.99366 23.4534 9.99984H35.1971C35.5025 10.0076 35.8008 10.093 36.064 10.2479C36.3272 10.4028 36.5467 10.6221 36.7018 10.8852C36.8568 11.1483 36.9424 11.4466 36.9505 11.7519C36.9585 12.0572 36.8887 12.3595 36.7477 12.6304L33.1554 18.249C41.4611 22.4018 45.6191 26.6113 45.6191 34.9221ZM30.6071 22.5664C30.6071 22.1402 30.4378 21.7314 30.1364 21.43C29.835 21.1286 29.4262 20.9593 29 20.9593C28.5738 20.9593 28.165 21.1286 27.8636 21.43C27.5622 21.7314 27.3929 22.1402 27.3929 22.5664V24.1787C26.3036 24.2207 25.267 24.6589 24.478 25.411C23.6889 26.1631 23.2016 27.1775 23.1075 28.2635C23.0134 29.3496 23.3191 30.4326 23.967 31.3092C24.615 32.1858 25.5607 32.7958 26.6266 33.0244L30.4143 33.8524C30.8025 33.936 31.146 34.1603 31.3786 34.4822C31.6112 34.8041 31.7165 35.2007 31.674 35.5955C31.6315 35.9903 31.4443 36.3555 31.1486 36.6205C30.8528 36.8855 30.4694 37.0316 30.0723 37.0307H27.9277C27.5952 37.0312 27.2708 36.9286 26.9991 36.737C26.7274 36.5455 26.5217 36.2743 26.4106 35.961C26.3456 35.7554 26.24 35.565 26.1 35.4011C25.9599 35.2371 25.7884 35.1031 25.5954 35.0068C25.4025 34.9106 25.1922 34.8542 24.977 34.8409C24.7618 34.8276 24.5462 34.8578 24.3429 34.9296C24.1396 35.0013 23.9528 35.1133 23.7937 35.2588C23.6346 35.4042 23.5063 35.5802 23.4166 35.7763C23.3269 35.9723 23.2776 36.1844 23.2715 36.3999C23.2655 36.6154 23.3029 36.8299 23.3814 37.0307C23.6837 37.8847 24.2202 38.6364 24.9296 39.1998C25.639 39.7632 26.4926 40.1156 27.3929 40.2167V41.8521C27.3929 42.2784 27.5622 42.6872 27.8636 42.9886C28.165 43.29 28.5738 43.4593 29 43.4593C29.4262 43.4593 29.835 43.29 30.1364 42.9886C30.4378 42.6872 30.6071 42.2784 30.6071 41.8521V40.2167C31.7418 40.0877 32.7939 39.5604 33.5763 38.7285C34.3586 37.8967 34.8205 36.8143 34.8798 35.6738C34.939 34.5334 34.5918 33.4089 33.8998 32.5005C33.2078 31.5921 32.216 30.9586 31.1009 30.7127L27.3131 29.8847C27.0058 29.8218 26.733 29.6465 26.5481 29.3932C26.3632 29.1398 26.2794 28.8266 26.3131 28.5147C26.3469 28.2028 26.4958 27.9148 26.7306 27.7069C26.9655 27.4989 27.2695 27.3861 27.5831 27.3904H30.0723C30.405 27.3888 30.73 27.4909 31.0019 27.6826C31.2739 27.8744 31.4792 28.1462 31.5894 28.4601C31.739 28.852 32.0358 29.1699 32.4166 29.3459C32.7973 29.5219 33.2318 29.5421 33.6272 29.4021C34.0227 29.2621 34.3477 28.9731 34.5329 28.5968C34.7181 28.2204 34.7489 27.7866 34.6186 27.3878C34.3167 26.5338 33.7802 25.7822 33.0707 25.2191C32.3612 24.6561 31.5074 24.3044 30.6071 24.2044V22.5664Z" fill="white"/>
</g>
<defs>
<linearGradient id="paint0_linear_316_8802" x1="5.00647" y1="1.36719" x2="26.4635" y2="68.2279" gradientUnits="userSpaceOnUse">
<stop offset="0.0108786" stop-color="#212121"/>
<stop offset="1" stop-color="#2D2D2D"/>
</linearGradient>
<clipPath id="clip0_316_8802">
<rect width="36" height="36" fill="white" transform="translate(11 10)"/>
</clipPath>
</defs>
</svg>
