<svg width="38" height="37" viewBox="0 0 38 37" fill="none" xmlns="http://www.w3.org/2000/svg">
<rect width="36.6805" height="36.6805" rx="18.3402" transform="matrix(-1 0 0 1 37.4102 0)" fill="#F6F6F6"/>
<path fill-rule="evenodd" clip-rule="evenodd" d="M18.377 14.1814C18.2152 14.0196 17.9531 14.0196 17.7913 14.1814L13.9261 18.0466C13.8484 18.1242 13.8048 18.2296 13.8048 18.3394C13.8048 18.4492 13.8484 18.5546 13.9261 18.6323L17.7913 22.4975C17.9531 22.6593 18.2152 22.6593 18.377 22.4975C18.5387 22.3358 18.5387 22.0736 18.377 21.9118L15.2187 18.7535H24.1581C24.3868 18.7535 24.5723 18.5681 24.5723 18.3394C24.5723 18.1107 24.3868 17.9253 24.1581 17.9253H15.2187L18.377 14.767C18.5387 14.6053 18.5387 14.3431 18.377 14.1814Z" fill="#212121"/>
</svg>
