<svg xmlns="http://www.w3.org/2000/svg" width="32" height="24" viewBox="0 0 32 24" fill="none">
    <path d="M19.9842 14.9893C19.9842 10.6619 21.0101 7.27402 23.0619 4.82562C25.1419 2.37722 28.0509 0.768683 31.7892 0V4.44128C28.9504 5.32384 27.0391 6.91815 26.0553 9.2242C25.4932 10.4484 25.2683 11.6299 25.3808 12.7687H32V24H19.9842V14.9893ZM0 14.9893C0 10.7189 0.997804 7.3452 2.99341 4.86833C5.01713 2.39146 7.95433 0.768683 11.805 0V4.44128C8.93808 5.35231 7.01274 6.91815 6.02899 9.13879C5.52306 10.3061 5.31225 11.516 5.39657 12.7687H12.0158V24H0V14.9893Z" fill="#212121"/>
  </svg>