<svg width="278" height="226" viewBox="0 0 278 226" fill="none" xmlns="http://www.w3.org/2000/svg">
<path opacity="0.3" fill-rule="evenodd" clip-rule="evenodd" d="M139 0C137.215 0 135.767 1.44551 135.767 3.22857V222.771C135.767 224.555 137.215 226 139 226C140.785 226 142.233 224.555 142.233 222.771V3.22857C142.233 1.44551 140.785 0 139 0ZM116.372 32.2857C114.587 32.2857 113.14 33.7311 113.14 35.5143V222.771C113.14 224.555 114.587 226 116.372 226C118.157 226 119.605 224.555 119.605 222.771V35.5143C119.605 33.7311 118.157 32.2857 116.372 32.2857ZM93.7442 64.5714C91.959 64.5714 90.5116 66.0168 90.5116 67.8V222.771C90.5116 224.555 91.959 226 93.7442 226C95.5294 226 96.9767 224.555 96.9767 222.771V67.8C96.9767 66.0168 95.5294 64.5714 93.7442 64.5714ZM71.1163 96.8571C69.3311 96.8571 67.8837 98.3026 67.8837 100.086V222.771C67.8837 224.555 69.3311 226 71.1163 226C72.9014 226 74.3488 224.555 74.3488 222.771V100.086C74.3488 98.3026 72.9014 96.8571 71.1163 96.8571ZM48.4884 129.143C46.7032 129.143 45.2558 130.588 45.2558 132.371V222.771C45.2558 224.555 46.7032 226 48.4884 226C50.2735 226 51.7209 224.555 51.7209 222.771V132.371C51.7209 130.588 50.2735 129.143 48.4884 129.143ZM25.8605 161.429C24.0753 161.429 22.6279 162.874 22.6279 164.657V222.771C22.6279 224.555 24.0753 226 25.8605 226C27.6456 226 29.093 224.555 29.093 222.771V164.657C29.093 162.874 27.6456 161.429 25.8605 161.429ZM0 196.943C0 195.16 1.44739 193.714 3.23256 193.714C5.01773 193.714 6.46512 195.16 6.46512 196.943V222.771C6.46512 224.555 5.01773 226 3.23256 226C1.44739 226 0 224.555 0 222.771V196.943ZM278 196.943C278 195.16 276.553 193.714 274.767 193.714C272.982 193.714 271.535 195.16 271.535 196.943V222.771C271.535 224.555 272.982 226 274.767 226C276.553 226 278 224.555 278 222.771V196.943ZM255.372 164.657C255.372 162.874 253.925 161.429 252.14 161.429C250.354 161.429 248.907 162.874 248.907 164.657V222.771C248.907 224.555 250.354 226 252.14 226C253.925 226 255.372 224.555 255.372 222.771V164.657ZM232.744 132.371C232.744 130.588 231.297 129.143 229.512 129.143C227.726 129.143 226.279 130.588 226.279 132.371V222.771C226.279 224.555 227.726 226 229.512 226C231.297 226 232.744 224.555 232.744 222.771V132.371ZM210.116 100.086C210.116 98.3026 208.669 96.8571 206.884 96.8571C205.099 96.8571 203.651 98.3026 203.651 100.086V222.771C203.651 224.555 205.099 226 206.884 226C208.669 226 210.116 224.555 210.116 222.771V100.086ZM187.488 67.8C187.488 66.0168 186.041 64.5714 184.256 64.5714C182.471 64.5714 181.023 66.0168 181.023 67.8V222.771C181.023 224.555 182.471 226 184.256 226C186.041 226 187.488 224.555 187.488 222.771V67.8ZM164.86 35.5143C164.86 33.7311 163.413 32.2857 161.628 32.2857C159.843 32.2857 158.395 33.7311 158.395 35.5143V222.771C158.395 224.555 159.843 226 161.628 226C163.413 226 164.86 224.555 164.86 222.771V35.5143Z" fill="white"/>
</svg>
