<svg width="29" height="26" viewBox="0 0 29 26" fill="none" xmlns="http://www.w3.org/2000/svg">
<path id="Vector" d="M18.6673 22.504C19.8047 22.8338 20.9831 23.0008 22.1673 23C24.0721 23.0045 25.9522 22.5701 27.662 21.7306C27.6655 21.6542 27.6673 21.5773 27.6673 21.5C27.6674 20.3238 27.2905 19.1786 26.5918 18.2325C25.8932 17.2863 24.9097 16.589 23.7856 16.2429C22.6615 15.8969 21.4561 15.9203 20.3463 16.3097C19.2365 16.6991 18.2807 17.4341 17.6193 18.4066M18.6673 22.504V22.5C18.6673 21.016 18.2873 19.62 17.6193 18.4066M18.6673 22.504V22.6453C16.1018 24.1919 13.1616 25.0062 10.166 25C7.05801 25 4.15001 24.14 1.66735 22.6453L1.66602 22.5C1.66499 20.6126 2.29217 18.7785 3.44866 17.287C4.60515 15.7954 6.22517 14.7312 8.05333 14.2621C9.88148 13.793 11.8138 13.9457 13.5456 14.6961C15.2773 15.4465 16.7114 16.752 17.6193 18.4066M14.6673 5.49999C14.6673 6.69347 14.1932 7.83806 13.3493 8.68197C12.5054 9.52588 11.3608 9.99999 10.1673 9.99999C8.97387 9.99999 7.82927 9.52588 6.98536 8.68197C6.14145 7.83806 5.66734 6.69347 5.66734 5.49999C5.66734 4.30652 6.14145 3.16193 6.98536 2.31802C7.82927 1.47411 8.97387 1 10.1673 1C11.3608 1 12.5054 1.47411 13.3493 2.31802C14.1932 3.16193 14.6673 4.30652 14.6673 5.49999ZM25.6673 8.49999C25.6673 9.42825 25.2986 10.3185 24.6422 10.9749C23.9858 11.6312 23.0956 12 22.1673 12C21.2391 12 20.3488 11.6312 19.6924 10.9749C19.0361 10.3185 18.6673 9.42825 18.6673 8.49999C18.6673 7.57173 19.0361 6.68149 19.6924 6.02512C20.3488 5.36874 21.2391 4.99999 22.1673 4.99999C23.0956 4.99999 23.9858 5.36874 24.6422 6.02512C25.2986 6.68149 25.6673 7.57173 25.6673 8.49999Z" stroke="#212121" stroke-width="2" stroke-linecap="round" stroke-linejoin="round"/>
</svg>
