<svg width="395" height="417" viewBox="0 0 395 417" fill="none" xmlns="http://www.w3.org/2000/svg">
<path d="M168.702 406.823C169.045 406.823 169.389 406.732 169.697 406.554L336.423 308.476C336.896 308.2 337.229 307.737 337.344 307.201C337.46 306.665 337.348 306.108 337.033 305.66L202.748 114.831C202.124 113.945 200.902 113.732 200.016 114.355C199.13 114.979 198.916 116.201 199.539 117.087L332.596 306.176L170.487 401.537L165.223 304.114C165.163 303.032 164.253 302.212 163.16 302.261C162.078 302.321 161.251 303.245 161.307 304.324L166.746 404.966C166.785 405.649 167.174 406.265 167.78 406.588C168.067 406.745 168.386 406.822 168.704 406.822L168.702 406.823ZM161.672 276.807C161.707 276.807 161.742 276.807 161.781 276.803C162.863 276.744 163.69 275.819 163.634 274.74L151.417 48.7174L182.607 93.0396C183.231 93.9258 184.453 94.1395 185.339 93.516C186.226 92.8925 186.439 91.6701 185.816 90.7839L150.692 40.8754C150.187 40.1609 149.273 39.8632 148.446 40.1504C147.62 40.4376 147.084 41.2362 147.129 42.1084L159.718 274.955C159.774 275.999 160.639 276.808 161.672 276.808L161.672 276.807Z" fill="white"/>
<path d="M11.7861 308.745H121.744C122.827 308.745 123.706 307.866 123.706 306.784C123.706 305.702 122.827 304.822 121.744 304.822H14.8795L91.2505 142.535L309.768 225.421C310.784 225.806 311.915 225.295 312.297 224.282C312.682 223.27 312.171 222.135 311.159 221.754L90.9373 138.224C89.9811 137.863 88.9058 138.294 88.468 139.222L10.0096 305.948C9.72244 306.554 9.76797 307.269 10.1287 307.836C10.486 308.404 11.1095 308.747 11.782 308.747L11.7861 308.745ZM151.164 308.745H335.429C336.084 308.745 336.697 308.416 337.061 307.873L376.29 249.029C376.623 248.532 376.707 247.912 376.525 247.341C376.343 246.774 375.912 246.318 375.352 246.105L338.665 232.188C337.65 231.803 336.518 232.315 336.137 233.327C335.751 234.339 336.263 235.474 337.275 235.856L371.66 248.896L334.379 304.822H151.163C150.08 304.822 149.201 305.701 149.201 306.783C149.205 307.866 150.084 308.745 151.166 308.745L151.164 308.745Z" fill="white"/>
<path d="M374.658 249.907C375.12 249.907 375.579 249.742 375.943 249.427C376.49 248.957 376.731 248.222 376.574 247.518L337.345 70.9821C337.229 70.4567 336.9 70.0013 336.437 69.7247C335.975 69.448 335.418 69.3744 334.903 69.518L245.972 94.4184C244.928 94.7092 244.319 95.7914 244.613 96.8352C244.904 97.879 245.989 98.4885 247.03 98.1942L333.968 73.8515L371.96 244.81L269.346 205.889C268.334 205.504 267.199 206.015 266.817 207.028C266.432 208.04 266.943 209.175 267.955 209.556L373.959 249.774C374.187 249.858 374.422 249.9 374.656 249.9L374.658 249.907ZM241.135 199.263C241.927 199.263 242.673 198.779 242.971 197.998C243.356 196.986 242.844 195.851 241.832 195.469L96.5184 140.349L218.689 106.139C219.733 105.848 220.342 104.766 220.048 103.722C219.757 102.678 218.675 102.069 217.631 102.363L89.713 138.181C88.8969 138.408 88.3189 139.133 88.2803 139.981C88.2418 140.829 88.7532 141.603 89.5448 141.904L240.436 199.14C240.671 199.22 240.909 199.262 241.136 199.262L241.135 199.263Z" fill="white"/>
<path d="M21.5943 416.633C33.4931 416.633 43.1699 406.955 43.1699 395.057C43.1699 383.159 33.4922 373.481 21.5943 373.481C9.69645 373.481 0.0187683 383.159 0.0187683 395.057C0.0187683 406.955 9.69645 416.633 21.5943 416.633ZM21.5943 377.403C31.3276 377.403 39.2479 385.323 39.2479 395.057C39.2479 404.791 31.3285 412.711 21.5943 412.711C11.8601 412.711 3.94075 404.791 3.94075 395.057C3.94075 385.323 11.8601 377.403 21.5943 377.403Z" fill="white"/>
<path d="M256.969 43.951C268.868 43.951 278.545 34.2733 278.545 22.3754C278.545 10.4775 268.867 0.799805 256.969 0.799805C245.071 0.799805 235.394 10.4775 235.394 22.3754C235.394 34.2733 245.071 43.951 256.969 43.951ZM256.969 4.72183C266.703 4.72183 274.623 12.6412 274.623 22.3754C274.623 32.1096 266.704 40.029 256.969 40.029C247.235 40.029 239.316 32.1096 239.316 22.3754C239.316 12.6412 247.235 4.72183 256.969 4.72183Z" fill="white"/>
<path d="M70.6342 279.326C71.1526 279.326 71.6535 279.109 72.0283 278.748C72.3926 278.384 72.5957 277.876 72.5957 277.365C72.5957 276.843 72.389 276.335 72.0283 275.971C71.2927 275.245 69.9792 275.245 69.2542 275.971C68.8829 276.342 68.6763 276.843 68.6763 277.365C68.6763 277.876 68.8829 278.384 69.2542 278.748C69.615 279.109 70.1158 279.326 70.6342 279.326Z" fill="white"/>
<path d="M100.054 279.326C100.573 279.326 101.073 279.109 101.438 278.748C101.809 278.384 102.016 277.876 102.016 277.365C102.016 276.843 101.809 276.335 101.438 275.971C100.723 275.245 99.3992 275.245 98.6707 275.971C98.2994 276.342 98.0927 276.843 98.0927 277.365C98.0927 277.876 98.2994 278.384 98.6602 278.748C99.0349 279.109 99.5358 279.326 100.054 279.326H100.054Z" fill="white"/>
<path d="M129.472 279.326C129.991 279.326 130.491 279.109 130.866 278.748C131.23 278.384 131.434 277.876 131.434 277.365C131.434 276.843 131.227 276.345 130.866 275.971C130.131 275.245 128.817 275.245 128.092 275.971C127.721 276.342 127.514 276.843 127.514 277.365C127.514 277.876 127.721 278.384 128.082 278.748C128.453 279.109 128.954 279.326 129.472 279.326H129.472Z" fill="white"/>
<path d="M129.472 249.906C129.984 249.906 130.491 249.689 130.866 249.328C131.23 248.964 131.434 248.456 131.434 247.945C131.434 247.423 131.227 246.925 130.866 246.551C130.131 245.826 128.817 245.826 128.092 246.551C127.721 246.922 127.514 247.423 127.514 247.945C127.514 248.456 127.721 248.964 128.092 249.328C128.453 249.689 128.961 249.906 129.472 249.906Z" fill="white"/>
<path d="M129.472 220.486C129.99 220.486 130.491 220.269 130.856 219.908C131.227 219.544 131.434 219.036 131.434 218.525C131.434 218.003 131.227 217.505 130.866 217.131C130.131 216.406 128.817 216.406 128.092 217.131C127.721 217.502 127.514 218.003 127.514 218.525C127.514 219.036 127.721 219.544 128.082 219.908C128.453 220.269 128.954 220.486 129.472 220.486Z" fill="white"/>
<path d="M394.268 385.249H374.653V404.864H394.268V385.249Z" fill="white"/>
<path d="M364.848 385.249H345.233V404.864H364.848V385.249Z" fill="white"/>
<path d="M335.428 385.249H315.813V404.864H335.428V385.249Z" fill="white"/>
<path d="M306.008 385.249H286.393V404.864H306.008V385.249Z" fill="white"/>
</svg>
