<svg width="56" height="57" viewBox="0 0 56 57" fill="none" xmlns="http://www.w3.org/2000/svg">
<path id="Vector" d="M52.465 21.8612C51.5225 20.8762 50.5475 19.8612 50.18 18.9687C49.84 18.1512 49.82 16.7962 49.8 15.4837C49.7625 13.0437 49.7225 10.2787 47.8 8.35619C45.8775 6.43369 43.1125 6.39369 40.6725 6.35619C39.36 6.33619 38.005 6.31619 37.1875 5.97619C36.2975 5.60869 35.28 4.63369 34.295 3.69119C32.57 2.03369 30.61 0.156189 28 0.156189C25.39 0.156189 23.4325 2.03369 21.705 3.69119C20.72 4.63369 19.705 5.60869 18.8125 5.97619C18 6.31619 16.64 6.33619 15.3275 6.35619C12.8875 6.39369 10.1225 6.43369 8.2 8.35619C6.2775 10.2787 6.25 13.0437 6.2 15.4837C6.18 16.7962 6.16 18.1512 5.82 18.9687C5.4525 19.8587 4.4775 20.8762 3.535 21.8612C1.8775 23.5862 0 25.5462 0 28.1562C0 30.7662 1.8775 32.7237 3.535 34.4512C4.4775 35.4362 5.4525 36.4512 5.82 37.3437C6.16 38.1612 6.18 39.5162 6.2 40.8287C6.2375 43.2687 6.2775 46.0337 8.2 47.9562C10.1225 49.8787 12.8875 49.9187 15.3275 49.9562C16.64 49.9762 17.995 49.9962 18.8125 50.3362C19.7025 50.7037 20.72 51.6787 21.705 52.6212C23.43 54.2787 25.39 56.1562 28 56.1562C30.61 56.1562 32.5675 54.2787 34.295 52.6212C35.28 51.6787 36.295 50.7037 37.1875 50.3362C38.005 49.9962 39.36 49.9762 40.6725 49.9562C43.1125 49.9187 45.8775 49.8787 47.8 47.9562C49.7225 46.0337 49.7625 43.2687 49.8 40.8287C49.82 39.5162 49.84 38.1612 50.18 37.3437C50.5475 36.4537 51.5225 35.4362 52.465 34.4512C54.1225 32.7262 56 30.7662 56 28.1562C56 25.5462 54.1225 23.5887 52.465 21.8612ZM39.415 23.5712L25.415 37.5712C25.2293 37.7571 25.0087 37.9047 24.7659 38.0053C24.5231 38.106 24.2628 38.1578 24 38.1578C23.7372 38.1578 23.4769 38.106 23.2341 38.0053C22.9913 37.9047 22.7707 37.7571 22.585 37.5712L16.585 31.5712C16.2097 31.1959 15.9989 30.6869 15.9989 30.1562C15.9989 29.6255 16.2097 29.1165 16.585 28.7412C16.9603 28.3659 17.4693 28.1551 18 28.1551C18.5307 28.1551 19.0397 28.3659 19.415 28.7412L24 33.3287L36.585 20.7412C36.7708 20.5554 36.9914 20.408 37.2342 20.3074C37.477 20.2068 37.7372 20.1551 38 20.1551C38.2628 20.1551 38.523 20.2068 38.7658 20.3074C39.0086 20.408 39.2292 20.5554 39.415 20.7412C39.6008 20.927 39.7482 21.1476 39.8488 21.3904C39.9494 21.6332 40.0011 21.8934 40.0011 22.1562C40.0011 22.419 39.9494 22.6792 39.8488 22.922C39.7482 23.1648 39.6008 23.3854 39.415 23.5712Z" fill="#56CDAD"/>
</svg>
