<svg width="20" height="20" viewBox="0 0 20 20" fill="none" xmlns="http://www.w3.org/2000/svg">
<g id="Icon" clip-path="url(#clip0_38_6148)">
<path id="Vector (Stroke)" fill-rule="evenodd" clip-rule="evenodd" d="M10.0003 3.33329C6.31843 3.33329 3.33366 6.31806 3.33366 9.99996C3.33366 13.6819 6.31843 16.6666 10.0003 16.6666C13.6822 16.6666 16.667 13.6819 16.667 9.99996C16.667 6.31806 13.6822 3.33329 10.0003 3.33329ZM1.66699 9.99996C1.66699 5.39759 5.39795 1.66663 10.0003 1.66663C14.6027 1.66663 18.3337 5.39759 18.3337 9.99996C18.3337 14.6023 14.6027 18.3333 10.0003 18.3333C5.39795 18.3333 1.66699 14.6023 1.66699 9.99996Z" fill="#56CDAD"/>
<path id="Vector (Stroke)_2" fill-rule="evenodd" clip-rule="evenodd" d="M13.0896 7.74408C13.415 8.06951 13.415 8.59715 13.0896 8.92259L9.75625 12.2559C9.43081 12.5814 8.90317 12.5814 8.57774 12.2559L6.91107 10.5893C6.58563 10.2638 6.58563 9.73618 6.91107 9.41074C7.23651 9.08531 7.76414 9.08531 8.08958 9.41074L9.16699 10.4882L11.9111 7.74408C12.2365 7.41864 12.7641 7.41864 13.0896 7.74408Z" fill="#56CDAD"/>
</g>
<defs>
<clipPath id="clip0_38_6148">
<rect width="20" height="20" fill="white"/>
</clipPath>
</defs>
</svg>
