<svg width="16" height="16" viewBox="0 0 16 16" fill="none" xmlns="http://www.w3.org/2000/svg">
<path id="Vector" fill-rule="evenodd" clip-rule="evenodd" d="M7.44186 0.55814C7.44186 0.410112 7.50066 0.268147 7.60534 0.163475C7.71001 0.0588038 7.85197 0 8 0C12.4182 0 16 3.58177 16 8C16 12.4182 12.4182 16 8 16C3.58177 16 0 12.4182 0 8C0 7.85197 0.0588038 7.71001 0.163475 7.60534C0.268147 7.50066 0.410112 7.44186 0.55814 7.44186C0.706167 7.44186 0.848132 7.50066 0.952804 7.60534C1.05748 7.71001 1.11628 7.85197 1.11628 8C1.11628 9.36147 1.52 10.6924 2.2764 11.8244C3.03279 12.9564 4.10788 13.8387 5.36571 14.3597C6.62355 14.8807 8.00764 15.0171 9.34295 14.7515C10.6783 14.4858 11.9048 13.8302 12.8675 12.8675C13.8302 11.9048 14.4858 10.6783 14.7515 9.34295C15.0171 8.00764 14.8807 6.62355 14.3597 5.36571C13.8387 4.10788 12.9564 3.03279 11.8244 2.2764C10.6924 1.52 9.36147 1.11628 8 1.11628C7.85197 1.11628 7.71001 1.05748 7.60534 0.952804C7.50066 0.848132 7.44186 0.706167 7.44186 0.55814ZM8 5.2093C8.14803 5.2093 8.28999 5.26811 8.39466 5.37278C8.49934 5.47745 8.55814 5.61941 8.55814 5.76744V8.18605H10.9767C11.1248 8.18605 11.2667 8.24485 11.3714 8.34952C11.4761 8.45419 11.5349 8.59616 11.5349 8.74419C11.5349 8.89221 11.4761 9.03418 11.3714 9.13885C11.2667 9.24352 11.1248 9.30233 10.9767 9.30233H8C7.85197 9.30233 7.71001 9.24352 7.60534 9.13885C7.50066 9.03418 7.44186 8.89221 7.44186 8.74419V5.76744C7.44186 5.61941 7.50066 5.47745 7.60534 5.37278C7.71001 5.26811 7.85197 5.2093 8 5.2093ZM5.84186 0.854326C5.86827 0.922733 5.88095 0.995674 5.87916 1.06898C5.87737 1.14229 5.86116 1.21453 5.83144 1.28156C5.80172 1.3486 5.75908 1.40913 5.70596 1.45968C5.65285 1.51023 5.59029 1.54982 5.52186 1.57619C5.41663 1.61652 5.31241 1.65945 5.2093 1.70493C5.14187 1.73807 5.06845 1.75725 4.99343 1.76133C4.9184 1.7654 4.84333 1.75429 4.77271 1.72866C4.70208 1.70303 4.63736 1.6634 4.58242 1.61215C4.52748 1.5609 4.48345 1.49909 4.45298 1.43042C4.4225 1.36174 4.4062 1.28762 4.40506 1.2125C4.40392 1.13738 4.41795 1.0628 4.44633 0.993227C4.4747 0.923659 4.51683 0.860535 4.57018 0.80764C4.62354 0.754744 4.68703 0.713165 4.75684 0.685395C4.87591 0.631814 4.99721 0.581209 5.12 0.534326C5.18841 0.507912 5.26135 0.495237 5.33466 0.497026C5.40796 0.498814 5.4802 0.51503 5.54724 0.544748C5.61428 0.574466 5.6748 0.617102 5.72535 0.670221C5.77591 0.72334 5.8155 0.7859 5.84186 0.854326ZM3.27293 2.22512C3.37493 2.33231 3.43018 2.47562 3.42655 2.62354C3.42293 2.77146 3.36071 2.91189 3.25358 3.01395C3.17201 3.09187 3.09236 3.17177 3.0147 3.25358C2.91256 3.36085 2.77199 3.42315 2.62391 3.42678C2.47584 3.43041 2.33239 3.37507 2.22512 3.27293C2.11785 3.17079 2.05554 3.03022 2.05191 2.88215C2.04829 2.73407 2.10363 2.59062 2.20577 2.48335C2.29656 2.38884 2.38884 2.29656 2.48335 2.20577C2.59054 2.10377 2.73385 2.04851 2.88177 2.05214C3.02969 2.05577 3.17087 2.11799 3.27293 2.22512ZM1.4214 4.4733C1.48839 4.50305 1.54887 4.54571 1.59938 4.59884C1.64989 4.65197 1.68944 4.71453 1.71577 4.78294C1.7421 4.85136 1.7547 4.92429 1.75284 4.99757C1.75098 5.07086 1.7347 5.14306 1.70493 5.21005C1.65953 5.31274 1.61563 5.41693 1.57544 5.52186C1.51982 5.65663 1.41366 5.76428 1.27969 5.82179C1.14572 5.8793 0.994555 5.88211 0.858539 5.82961C0.722524 5.77711 0.61245 5.67347 0.551862 5.54086C0.491273 5.40825 0.484979 5.25719 0.534326 5.12C0.581209 4.99721 0.63107 4.87665 0.684651 4.75684C0.714403 4.68984 0.757061 4.62936 0.810189 4.57885C0.863318 4.52834 0.925876 4.48879 0.994292 4.46246C1.06271 4.43613 1.13564 4.42354 1.20892 4.4254C1.28221 4.42726 1.3544 4.44354 1.4214 4.4733Z" fill="#666666"/>
</svg>
