<svg width="18" height="19" viewBox="0 0 18 19" fill="none" xmlns="http://www.w3.org/2000/svg">
<path d="M15.7507 5.54687C15.7357 5.54687 15.7132 5.54687 15.6907 5.54687C11.7232 5.14937 7.76323 4.99937 3.84073 5.39687L2.31073 5.54687C1.99573 5.57687 1.71823 5.35187 1.68823 5.03687C1.65823 4.72187 1.88323 4.45187 2.19073 4.42187L3.72073 4.27187C7.71073 3.86687 11.7532 4.02437 15.8032 4.42187C16.1107 4.45187 16.3357 4.72937 16.3057 5.03687C16.2832 5.32937 16.0357 5.54687 15.7507 5.54687Z" fill="#212121"/>
<path d="M6.37556 4.79C6.34556 4.79 6.31556 4.79 6.27806 4.7825C5.97806 4.73 5.76806 4.4375 5.82056 4.1375L5.98556 3.155C6.10556 2.435 6.27056 1.4375 8.01806 1.4375H9.98306C11.7381 1.4375 11.9031 2.4725 12.0156 3.1625L12.1806 4.1375C12.2331 4.445 12.0231 4.7375 11.7231 4.7825C11.4156 4.835 11.1231 4.625 11.0781 4.325L10.9131 3.35C10.8081 2.6975 10.7856 2.57 9.99056 2.57H8.02556C7.23056 2.57 7.21556 2.675 7.10306 3.3425L6.93056 4.3175C6.88556 4.595 6.64556 4.79 6.37556 4.79Z" fill="#212121"/>
<path d="M11.4088 17.5617H6.59377C3.97627 17.5617 3.87127 16.1142 3.78877 14.9442L3.30127 7.3917C3.27877 7.0842 3.51877 6.8142 3.82627 6.7917C4.14127 6.7767 4.40377 7.0092 4.42627 7.3167L4.91377 14.8692C4.99627 16.0092 5.02627 16.4367 6.59377 16.4367H11.4088C12.9838 16.4367 13.0138 16.0092 13.0888 14.8692L13.5763 7.3167C13.5988 7.0092 13.8688 6.7767 14.1763 6.7917C14.4838 6.8142 14.7238 7.0767 14.7013 7.3917L14.2138 14.9442C14.1313 16.1142 14.0263 17.5617 11.4088 17.5617Z" fill="#212121"/>
<path d="M10.2455 13.4375H7.74805C7.44055 13.4375 7.18555 13.1825 7.18555 12.875C7.18555 12.5675 7.44055 12.3125 7.74805 12.3125H10.2455C10.553 12.3125 10.808 12.5675 10.808 12.875C10.808 13.1825 10.553 13.4375 10.2455 13.4375Z" fill="#212121"/>
<path d="M10.876 10.4375H7.12598C6.81848 10.4375 6.56348 10.1825 6.56348 9.875C6.56348 9.5675 6.81848 9.3125 7.12598 9.3125H10.876C11.1835 9.3125 11.4385 9.5675 11.4385 9.875C11.4385 10.1825 11.1835 10.4375 10.876 10.4375Z" fill="#212121"/>
</svg>
