<svg xmlns="http://www.w3.org/2000/svg" width="140" height="141" viewBox="0 0 140 141" fill="none">
    <path fill-rule="evenodd" clip-rule="evenodd" d="M70 0.5C31.339 0.5 0 31.839 0 70.5C0 109.161 31.339 140.5 70 140.5C108.661 140.5 140 109.161 140 70.5C140 31.839 108.661 0.5 70 0.5ZM45.5 53C45.5 49.7826 46.1337 46.5967 47.3649 43.6243C48.5962 40.6518 50.4008 37.9509 52.6759 35.6759C54.9509 33.4008 57.6518 31.5962 60.6243 30.365C63.5967 29.1337 66.7826 28.5 70 28.5C73.2174 28.5 76.4033 29.1337 79.3757 30.365C82.3482 31.5962 85.0491 33.4008 87.3241 35.6759C89.5992 37.9509 91.4038 40.6518 92.635 43.6243C93.8663 46.5967 94.5 49.7826 94.5 53C94.5 59.4978 91.9188 65.7295 87.3241 70.3241C82.7295 74.9188 76.4978 77.5 70 77.5C63.5022 77.5 57.2705 74.9188 52.6759 70.3241C48.0812 65.7295 45.5 59.4978 45.5 53ZM113.806 105.388C108.566 111.979 101.905 117.302 94.3192 120.957C86.7338 124.613 78.4204 126.508 70 126.5C61.5796 126.508 53.2662 124.613 45.6808 120.957C38.0954 117.302 31.4339 111.979 26.194 105.388C37.541 97.247 53.025 91.5 70 91.5C86.975 91.5 102.459 97.247 113.806 105.388Z" fill="#212121"/>
  </svg>