<svg width="63" height="62" viewBox="0 0 63 62" fill="none" xmlns="http://www.w3.org/2000/svg">
<g filter="url(#filter0_ddd_316_8780)">
<rect x="3.79492" y="2" width="56" height="56" rx="12" fill="url(#paint0_linear_316_8780)"/>
<g clip-path="url(#clip0_316_8780)">
<path d="M42.0137 10H20.7637C15.586 10 11.3887 14.1973 11.3887 19.375V40.625C11.3887 45.8027 15.586 50 20.7637 50H42.0137C47.1913 50 51.3887 45.8027 51.3887 40.625V19.375C51.3887 14.1973 47.1913 10 42.0137 10Z" fill="#212121"/>
<g clip-path="url(#clip1_316_8780)">
<path d="M31.3887 20.6455C33.9614 20.6455 36.2736 21.5336 37.8308 23.1309C39.1117 23.2992 40.3201 23.8222 41.3193 24.641C39.5723 20.9697 35.9536 18.9165 31.3887 18.9165C26.886 18.9165 23.2424 20.9669 21.4746 24.6272C22.3907 23.8812 23.4824 23.3818 24.6458 23.1767C26.1739 21.51 28.5818 20.6455 31.3887 20.6455Z" fill="white"/>
<path d="M36.93 35.5413C35.4888 35.5413 34.1043 34.9797 33.0702 33.9758L33.0675 33.973C32.9481 33.8832 32.82 33.8057 32.6851 33.7417C32.2785 33.5548 31.8358 33.4597 31.3883 33.4632C30.8148 33.4632 30.3784 33.6059 30.093 33.7417C29.9576 33.8056 29.829 33.8832 29.7092 33.973L29.7065 33.9758C29.055 34.6082 28.2583 35.0709 27.3861 35.3231C26.514 35.5754 25.5933 35.6095 24.7049 35.4225C23.8164 35.2355 22.9876 34.8331 22.2912 34.2506C21.5947 33.6682 21.0521 32.9236 20.7109 32.0823C20.3697 31.2409 20.2405 30.3287 20.3345 29.4257C20.4285 28.5227 20.743 27.6566 21.2502 26.9037C21.7574 26.1507 22.4418 25.5338 23.2433 25.1074C24.0448 24.681 24.9388 24.458 25.8467 24.458H36.93C38.3998 24.458 39.8093 25.0419 40.8486 26.0811C41.8878 27.1204 42.4717 28.5299 42.4717 29.9997C42.4717 31.4694 41.8878 32.879 40.8486 33.9182C39.8093 34.9575 38.3998 35.5413 36.93 35.5413Z" fill="white"/>
</g>
</g>
</g>
<defs>
<filter id="filter0_ddd_316_8780" x="0.794922" y="0" width="62" height="62" filterUnits="userSpaceOnUse" color-interpolation-filters="sRGB">
<feFlood flood-opacity="0" result="BackgroundImageFix"/>
<feColorMatrix in="SourceAlpha" type="matrix" values="0 0 0 0 0 0 0 0 0 0 0 0 0 0 0 0 0 0 127 0" result="hardAlpha"/>
<feMorphology radius="1" operator="erode" in="SourceAlpha" result="effect1_dropShadow_316_8780"/>
<feOffset dy="1"/>
<feGaussianBlur stdDeviation="1"/>
<feComposite in2="hardAlpha" operator="out"/>
<feColorMatrix type="matrix" values="0 0 0 0 0 0 0 0 0 0 0 0 0 0 0 0 0 0 0.1 0"/>
<feBlend mode="normal" in2="BackgroundImageFix" result="effect1_dropShadow_316_8780"/>
<feColorMatrix in="SourceAlpha" type="matrix" values="0 0 0 0 0 0 0 0 0 0 0 0 0 0 0 0 0 0 127 0" result="hardAlpha"/>
<feOffset dy="1"/>
<feGaussianBlur stdDeviation="1.5"/>
<feComposite in2="hardAlpha" operator="out"/>
<feColorMatrix type="matrix" values="0 0 0 0 0 0 0 0 0 0 0 0 0 0 0 0 0 0 0.1 0"/>
<feBlend mode="normal" in2="effect1_dropShadow_316_8780" result="effect2_dropShadow_316_8780"/>
<feColorMatrix in="SourceAlpha" type="matrix" values="0 0 0 0 0 0 0 0 0 0 0 0 0 0 0 0 0 0 127 0" result="hardAlpha"/>
<feMorphology radius="1" operator="dilate" in="SourceAlpha" result="effect3_dropShadow_316_8780"/>
<feOffset/>
<feComposite in2="hardAlpha" operator="out"/>
<feColorMatrix type="matrix" values="0 0 0 0 0 0 0 0 0 0 0 0 0 0 0 0 0 0 0.04 0"/>
<feBlend mode="normal" in2="effect2_dropShadow_316_8780" result="effect3_dropShadow_316_8780"/>
<feBlend mode="normal" in="SourceGraphic" in2="effect3_dropShadow_316_8780" result="shape"/>
</filter>
<linearGradient id="paint0_linear_316_8780" x1="31.7949" y1="2" x2="31.7949" y2="58" gradientUnits="userSpaceOnUse">
<stop offset="0.25" stop-color="white"/>
<stop offset="1" stop-color="#F9FAFB"/>
</linearGradient>
<clipPath id="clip0_316_8780">
<rect width="40" height="40" fill="white" transform="translate(11.3887 10)"/>
</clipPath>
<clipPath id="clip1_316_8780">
<rect width="22.1667" height="22.1667" fill="white" transform="translate(20.3047 18.9165)"/>
</clipPath>
</defs>
</svg>
