<svg width="29" height="24" viewBox="0 0 29 24" fill="none" xmlns="http://www.w3.org/2000/svg">
<path id="Vector" fill-rule="evenodd" clip-rule="evenodd" d="M0.387695 6.18811C0.387695 2.80216 3.05234 0 6.40586 0H22.2601C25.6136 0 28.2783 2.80216 28.2783 6.18811C28.2783 8.81903 26.6748 11.0919 24.3864 11.9805V17.9053C24.3864 18.3075 24.3864 18.6876 24.3825 19.0443C24.3889 19.1147 24.3876 19.1857 24.3786 19.2558C24.3761 19.7765 24.3441 20.2967 24.2826 20.8138C24.1736 21.6285 23.9323 22.3641 23.3408 22.9544C22.7505 23.5459 22.0149 23.7872 21.2002 23.8962C20.4296 24 19.4567 24 18.2917 24H10.3743C9.20932 24 8.23634 24 7.46575 23.8962C6.65105 23.7872 5.91548 23.5459 5.32521 22.9544C4.73364 22.3641 4.49234 21.6285 4.38337 20.8138C4.3221 20.2967 4.29005 19.7765 4.28737 19.2558C4.27848 19.1856 4.27717 19.1147 4.28348 19.0443C4.27959 18.6876 4.27959 18.3075 4.27959 17.9053V11.9805C1.99115 11.0919 0.387695 8.81903 0.387695 6.18811ZM4.27959 9.80757C4.27959 8.72043 4.28478 7.80973 4.38337 7.07805C4.49234 6.26335 4.73364 5.52778 5.32391 4.93751C5.91548 4.34595 6.65105 4.10465 7.46445 3.99568C8.23634 3.89189 9.20932 3.89189 10.3743 3.89189H18.293C19.4593 3.89189 20.4309 3.89189 21.2015 3.99568C22.0162 4.10465 22.7518 4.34595 23.3421 4.93622C23.9336 5.52778 24.1749 6.26335 24.2839 7.07676C24.3825 7.80843 24.3877 8.72043 24.3877 9.80757C25.5475 9.06551 26.3336 7.73189 26.3336 6.18811C26.3336 3.81405 24.4798 1.94595 22.2614 1.94595H6.40716C4.18878 1.94595 2.33494 3.81405 2.33494 6.18811C2.33494 7.73189 3.1198 9.06551 4.27959 9.80757ZM13.362 5.83784H10.4418C9.19116 5.83784 8.35051 5.84043 7.72391 5.92476C7.12586 6.00519 6.86899 6.144 6.70035 6.31395C6.5317 6.48259 6.39289 6.73816 6.31116 7.33622C6.22813 7.96281 6.22553 8.80346 6.22553 10.0541V18.1622H22.4418V10.0541C22.4418 8.80346 22.4392 7.96281 22.3548 7.33622C22.2744 6.73816 22.1356 6.4813 21.9656 6.31265C21.797 6.144 21.5414 6.00519 20.9434 5.92346C20.3168 5.84043 19.4761 5.83784 18.2255 5.83784H15.3066V11.3163L16.1888 10.2863C16.2719 10.1892 16.3734 10.1094 16.4873 10.0515C16.6013 9.99358 16.7256 9.9587 16.853 9.94882C16.9805 9.93894 17.1086 9.95426 17.2301 9.99391C17.3517 10.0336 17.4642 10.0968 17.5613 10.1799C17.6584 10.263 17.7382 10.3645 17.7961 10.4784C17.854 10.5924 17.8889 10.7167 17.8988 10.8441C17.9086 10.9716 17.8933 11.0997 17.8537 11.2213C17.814 11.3428 17.7508 11.4553 17.6677 11.5524L15.0731 14.579C14.9818 14.6858 14.8684 14.7716 14.7407 14.8304C14.6131 14.8892 14.4742 14.9196 14.3336 14.9196C14.1931 14.9196 14.0542 14.8892 13.9266 14.8304C13.7989 14.7716 13.6855 14.6858 13.5942 14.579L10.9996 11.5524C10.8317 11.3563 10.7486 11.1015 10.7685 10.8441C10.7885 10.5867 10.9099 10.3478 11.106 10.1799C11.3021 10.012 11.5569 9.92887 11.8143 9.94882C12.0717 9.96877 12.3106 10.0902 12.4785 10.2863L13.3607 11.3163L13.362 5.83784ZM22.4015 20.1081H6.26705C6.27872 20.269 6.29299 20.4169 6.31245 20.5557C6.39289 21.1537 6.5317 21.4106 6.70164 21.5792C6.87029 21.7479 7.12586 21.8867 7.72391 21.9684C8.35051 22.0515 9.19116 22.0541 10.4418 22.0541H18.2255C19.4761 22.0541 20.3168 22.0515 20.9434 21.9671C21.5414 21.8867 21.7983 21.7479 21.9669 21.5779C22.1356 21.4093 22.2744 21.1537 22.3561 20.5557C22.3743 20.4169 22.3899 20.269 22.4015 20.1081Z" fill="#212121"/>
</svg>
