<?xml version="1.0" encoding="UTF-8"?>
<svg id="Layer_1" data-name="Layer 1" xmlns="http://www.w3.org/2000/svg" viewBox="0 0 1024 1024">
  <path d="M387.34,647.68v49.99c0,2.03,.63,3.64,1.82,4.85s2.8,1.83,4.81,1.83h12.48v22.23l-17.89,.03c-8.59,0-15.52-2.63-20.8-7.91-5.3-5.26-7.94-12.27-7.94-21.03v-49.99h-12.67v-22.26h59.29v22.26h-19.11Z" fill="#111"/>
  <path d="M496.22,634.54c-6.12-6.07-14.1-9.11-23.94-9.11h-43.15v21.8h37.84c3.39,0,6.14,1.1,8.27,3.18,2.1,2.11,3.13,4.92,3.13,8.36v5.15h-24.43c-10.08,0-18.29,3.06-24.6,9.11-6.29,6.1-9.45,14.02-9.45,23.82,0,8.85,2.61,16.05,7.87,21.54,5.25,5.46,12.14,8.24,20.7,8.24,7.21,0,13.46-2.17,18.72-6.48,5.25-4.28,8.99-10.15,11.2-17.55v23.99h27.02v-67.82c0-10.06-3.07-18.13-9.16-24.23Zm-17.86,54.76c-.37,4.65-2.15,8.36-5.31,11.22-3.13,2.83-7.15,4.25-12,4.25-4.22,0-7.61-1.1-10.13-3.35-2.58-2.26-3.88-5.15-3.88-8.73s1.15-6.19,3.45-8.24,5.37-3.06,9.16-3.06h18.72v7.92Z" fill="#111"/>
  <path d="M595.76,676.02c-5.02-4.28-13.33-7.46-24.93-9.54l-7.34-1.17c-5.93-1.04-10.08-2.27-12.46-3.7-2.38-1.43-3.57-3.31-3.57-5.64,0-2.6,1.19-4.61,3.57-6.03,2.38-1.43,5.64-2.14,9.76-2.14,10.05,0,15.46,3.89,16.23,11.68h23.58c-1.03-10.77-5.12-19.14-12.27-25.1-7.15-5.97-16.78-8.95-28.89-8.95s-20.93,2.82-27.63,8.47c-6.7,5.64-10.05,13.46-10.05,23.45,0,8.17,2.54,14.47,7.63,18.88,5.09,4.41,13.56,7.59,25.41,9.54l7.54,1.36c5.67,.91,9.66,2.04,11.98,3.4,2.32,1.36,3.48,3.15,3.48,5.35,0,5.58-5.02,8.37-15.07,8.37-11.59,0-17.78-3.89-18.55-11.68h-23.58c1.03,10.77,5.28,19.14,12.75,25.1,7.47,5.97,17.52,8.95,30.14,8.95s22.25-2.89,29.28-8.66c7.02-5.77,10.53-13.65,10.53-23.64,0-7.91-2.51-14.01-7.53-18.29Z" fill="#111"/>
  <path d="M781.36,683.78v-14.95c0-12.98-3.88-23.48-11.6-31.43-7.72-7.98-17.83-11.97-30.35-11.97s-22.74,3.96-30.43,11.85c-7.64,7.92-11.48,18.36-11.48,31.34v14.77c0,12.98,3.85,23.42,11.48,31.31,7.69,7.92,17.89,11.91,30.66,11.91,11.17,0,20.47-3.15,27.82-9.37,7.32-6.24,11.91-14.66,13.69-25.27h-23.94c-1.03,3.73-3.01,6.65-5.91,8.73-2.9,2.08-6.46,3.12-10.71,3.12-5.28,0-9.53-1.53-12.75-4.57-3.24-3.06-4.85-7.11-4.85-12.17v-3.32h58.37Zm-58.37-18.85c0-5.06,1.58-9.11,4.77-12.17,3.13-3.04,7.38-4.54,12.63-4.54s9.27,1.5,12.37,4.54c3.07,3.06,4.62,7.11,4.62,12.17v1.76h-34.39v-1.76Z" fill="#111"/>
  <path d="M855.61,625.42c-7.16,0-13.37,2.27-18.61,6.81-5.24,4.54-8.99,10.82-11.24,18.84v-25.65h-27.26v101.19h27.26v-59.51c0-4.81,1.43-8.68,4.28-11.62,2.85-2.94,6.6-4.41,11.24-4.41h20.69v-25.65h-6.37Z" fill="#111"/>
  <path d="M387.19,593.97v25.65h-15.57c-3.5,0-6.3,1.47-8.46,4.39-2.14,2.95-3.22,6.82-3.22,11.62v-8.74c0-7.2,1.4-14.4,4.51-20.27,1.16-2.19,2.48-4.15,3.96-5.86,3.95-4.54,8.62-6.79,13.99-6.79h4.79Z" fill="#111"/>
  <polygon points="701.19 726.62 670.5 726.62 650.66 686.35 643.08 697.85 643.08 726.59 616.58 726.59 616.58 625.42 643.08 625.42 643.08 663.5 653.99 645.46 665.82 625.92 696.8 625.92 660.56 671.6 701.19 726.62" fill="#111"/>
  <g>
    <polygon points="524.51 470.96 537.97 370.08 485.61 400.32 465.13 364.85 547.05 317.55 512.11 297.37 395.9 364.47 395.9 498.66 512.11 565.76 628.32 498.66 628.33 458.32 544.99 506.43 524.51 470.96" fill="#6f52fa"/>
    <polygon points="628.33 364.47 589.78 342.21 576.89 440.72 628.33 411.02 628.33 364.47" fill="#6f52fa"/>
  </g>
  <g>
    <polygon points="255.76 632.31 320.06 632.31 255.76 719.74 255.76 726.63 329.31 726.63 329.31 719.74 264.8 719.74 329.31 632.31 329.31 625.44 255.76 625.44 255.76 632.31"/>
    <path d="M162.16,672.6h-.13v6.88h.13c1.76,26.33,23.67,47.15,50.46,47.15h25.34v-6.87h-25.34c-22.95,0-41.81-17.78-43.57-40.28h54.07v-6.88h-54.07c1.76-22.51,20.62-40.29,43.57-40.29h25.34v-6.88h-25.34c-26.79,0-48.7,20.83-50.46,47.16Z"/>
  </g>
</svg>