<?xml version="1.0" encoding="UTF-8"?>
<svg id="Layer_1" data-name="Layer 1" xmlns="http://www.w3.org/2000/svg" viewBox="0 0 1024 1024">
  <rect width="1024" height="1024" fill="#111"/>
  <g>
    <path d="M422.94,608.94v35.72c0,1.45,.45,2.6,1.3,3.46s2,1.31,3.44,1.31h8.92v15.88l-12.78,.02c-6.14,0-11.09-1.88-14.86-5.65-3.79-3.76-5.67-8.76-5.67-15.02v-35.72h-9.05v-15.9h42.36v15.9h-13.65Z" fill="#fff"/>
    <path d="M500.72,599.55c-4.37-4.34-10.07-6.51-17.11-6.51h-30.83v15.57h27.03c2.42,0,4.39,.78,5.91,2.27,1.5,1.51,2.24,3.51,2.24,5.97v3.68h-17.45c-7.2,0-13.07,2.19-17.58,6.51-4.49,4.36-6.75,10.02-6.75,17.02,0,6.32,1.87,11.46,5.62,15.39,3.75,3.9,8.68,5.89,14.79,5.89,5.15,0,9.62-1.55,13.37-4.63,3.75-3.06,6.42-7.25,8-12.54v17.14h19.3v-48.45c0-7.19-2.19-12.95-6.54-17.31Zm-12.76,39.12c-.27,3.33-1.54,5.97-3.79,8.01-2.24,2.02-5.11,3.04-8.57,3.04-3.02,0-5.44-.78-7.24-2.4-1.85-1.61-2.77-3.68-2.77-6.24s.82-4.42,2.46-5.89,3.84-2.19,6.54-2.19h13.37v5.66Z" fill="#fff"/>
    <path d="M571.84,629.18c-3.59-3.06-9.53-5.33-17.81-6.81l-5.25-.84c-4.23-.74-7.2-1.62-8.9-2.64-1.7-1.02-2.55-2.36-2.55-4.03,0-1.85,.85-3.29,2.55-4.31,1.7-1.02,4.03-1.53,6.97-1.53,7.18,0,11.04,2.78,11.6,8.34h16.84c-.74-7.69-3.66-13.67-8.77-17.93-5.11-4.26-11.99-6.4-20.64-6.4s-14.96,2.02-19.74,6.05c-4.79,4.03-7.18,9.62-7.18,16.75,0,5.84,1.82,10.33,5.45,13.49,3.64,3.15,9.69,5.42,18.15,6.81l5.38,.97c4.05,.65,6.9,1.46,8.56,2.43,1.66,.97,2.48,2.25,2.48,3.82,0,3.98-3.59,5.98-10.77,5.98-8.28,0-12.7-2.78-13.25-8.34h-16.84c.74,7.69,3.77,13.67,9.11,17.94,5.34,4.26,12.52,6.4,21.54,6.4s15.9-2.06,20.92-6.19c5.02-4.12,7.52-9.75,7.52-16.89,0-5.65-1.79-10.01-5.38-13.07Z" fill="#fff"/>
    <path d="M704.44,634.72v-10.68c0-9.27-2.77-16.77-8.29-22.45-5.52-5.7-12.74-8.55-21.68-8.55s-16.24,2.83-21.74,8.47c-5.46,5.66-8.2,13.12-8.2,22.39v10.56c0,9.27,2.75,16.73,8.2,22.37,5.5,5.66,12.78,8.51,21.91,8.51,7.98,0,14.62-2.25,19.88-6.69,5.23-4.46,8.51-10.47,9.78-18.05h-17.11c-.74,2.66-2.15,4.75-4.23,6.24-2.07,1.49-4.61,2.23-7.65,2.23-3.77,0-6.81-1.09-9.11-3.26-2.32-2.19-3.47-5.08-3.47-8.7v-2.38h41.7Zm-41.7-13.47c0-3.61,1.13-6.51,3.4-8.7,2.24-2.17,5.27-3.24,9.02-3.24s6.62,1.07,8.84,3.24c2.19,2.19,3.3,5.08,3.3,8.7v1.26h-24.57v-1.26Z" fill="#fff"/>
    <path d="M757.49,593.03c-5.12,0-9.55,1.62-13.29,4.87-3.74,3.25-6.42,7.73-8.03,13.46v-18.32h-19.47v72.3h19.47v-42.52c0-3.43,1.02-6.2,3.06-8.3,2.04-2.1,4.71-3.15,8.03-3.15h14.78v-18.32h-4.55Z" fill="#fff"/>
    <path d="M422.83,570.56v18.32h-11.12c-2.5,0-4.5,1.05-6.05,3.14-1.53,2.11-2.3,4.87-2.3,8.3v-6.25c0-5.14,1-10.28,3.22-14.48,.83-1.57,1.77-2.96,2.83-4.19,2.82-3.24,6.16-4.85,10-4.85h3.42Z" fill="#fff"/>
    <polygon points="647.16 665.33 625.24 665.33 611.06 636.56 605.65 644.78 605.65 665.31 586.72 665.31 586.72 593.03 605.65 593.03 605.65 620.24 613.44 607.35 621.89 593.39 644.03 593.39 618.14 626.02 647.16 665.33" fill="#fff"/>
    <g>
      <polygon points="520.94 482.68 530.55 410.61 493.14 432.21 478.51 406.87 537.04 373.08 512.08 358.66 429.05 406.6 429.05 502.47 512.08 550.41 595.11 502.47 595.11 473.65 535.57 508.02 520.94 482.68" fill="#fff"/>
      <polygon points="595.11 406.6 567.57 390.7 558.36 461.07 595.11 439.86 595.11 406.6" fill="#fff"/>
    </g>
    <g>
      <polygon points="328.93 597.96 374.87 597.96 328.93 660.42 328.93 665.34 381.48 665.34 381.48 660.42 335.39 660.42 381.48 597.96 381.48 593.04 328.93 593.04 328.93 597.96" fill="#fff"/>
      <path d="M262.06,626.74h-.09v4.91h.09c1.26,18.81,16.91,33.68,36.05,33.68h18.1v-4.91h-18.1c-16.4,0-29.87-12.7-31.13-28.78h38.63v-4.91h-38.63c1.26-16.08,14.73-28.78,31.13-28.78h18.1v-4.91h-18.1c-19.14,0-34.79,14.88-36.05,33.7Z" fill="#fff"/>
    </g>
  </g>
</svg>