<svg width="180" height="49" viewBox="0 0 180 49" fill="none" xmlns="http://www.w3.org/2000/svg">
<path d="M23.0015 31.8957L25.4075 13.8546L16.0441 19.2601L12.3829 12.9163L27.0355 4.45912L20.7839 0.850098L0 12.8481V36.8481L20.7839 48.8501L41.5679 36.8521V29.6341L26.6666 38.2396L23.0015 31.8957Z" fill="#6F49FE"/>
<path d="M41.5681 12.8481L34.6749 8.87012L32.3691 26.4862L41.5681 21.1769V12.8481Z" fill="#6F49FE"/>
<path d="M83.8463 12.6427H73.2559V17.992H82.5431C83.3732 17.992 84.0509 18.2607 84.5722 18.774C85.0855 19.2913 85.3421 19.981 85.3421 20.8231V22.0863H79.3471C76.8729 22.0863 74.8599 22.8402 73.308 24.3199C71.7642 25.8156 70.9902 27.7605 70.9902 30.1665C70.9902 32.3399 71.6318 34.1043 72.923 35.4517C74.2143 36.791 75.9025 37.4727 78.0038 37.4727C79.7722 37.4727 81.308 36.9394 82.5992 35.8848C83.8905 34.8342 84.8047 33.3946 85.3461 31.578V37.4647H91.9787V20.8191C91.9787 18.3489 91.2248 16.368 89.7291 14.8722C88.2293 13.3805 86.2684 12.6387 83.8504 12.6387L83.8463 12.6427ZM85.3421 28.3179C85.2499 29.4607 84.8128 30.367 84.0389 31.0728C83.2689 31.7665 82.2824 32.1154 81.0915 32.1154C80.0569 32.1154 79.2228 31.8467 78.6053 31.2933C77.9717 30.7399 77.6549 30.0301 77.6549 29.1519C77.6549 28.2737 77.9356 27.6322 78.501 27.1309C79.0664 26.6256 79.8203 26.377 80.7506 26.377H85.3461V28.3219L85.3421 28.3179Z" fill="#131313"/>
<path d="M114.153 25.0616C112.918 24.011 110.881 23.229 108.034 22.7198L106.234 22.4311C104.778 22.1784 103.759 21.8737 103.174 21.5248C102.588 21.1759 102.296 20.7148 102.296 20.1413C102.296 19.5037 102.588 19.0105 103.174 18.6616C103.759 18.3128 104.557 18.1363 105.568 18.1363C108.034 18.1363 109.361 19.0907 109.55 21.0035H115.336C115.084 18.3609 114.081 16.3077 112.325 14.8401C110.568 13.3764 108.206 12.6426 105.235 12.6426C102.264 12.6426 100.098 13.3363 98.4541 14.7198C96.81 16.1032 95.9879 18.024 95.9879 20.4742C95.9879 22.4792 96.6135 24.023 97.8606 25.1057C99.1118 26.1885 101.189 26.9704 104.096 27.4476L105.945 27.7844C107.336 28.009 108.315 28.2857 108.884 28.6185C109.454 28.9514 109.738 29.3925 109.738 29.9338C109.738 31.3012 108.503 31.9869 106.037 31.9869C103.19 31.9869 101.674 31.0326 101.486 29.1198H95.6992C95.9519 31.7624 96.9944 33.8155 98.831 35.2832C100.664 36.7469 103.13 37.4807 106.23 37.4807C109.329 37.4807 111.691 36.7709 113.415 35.3554C115.14 33.9398 116.002 32.003 116.002 29.5529C116.002 27.612 115.384 26.1123 114.153 25.0616Z" fill="#131313"/>
<path d="M149.415 12.6428C146.323 12.6428 143.833 13.6132 141.944 15.5541C140.071 17.4989 139.125 20.0613 139.125 23.2453V26.8703C139.125 30.0583 140.067 32.6167 141.944 34.5576C143.833 36.5024 146.335 37.4809 149.471 37.4809C152.214 37.4809 154.495 36.707 156.3 35.1831C158.096 33.6513 159.223 31.5861 159.66 28.9796H153.782C153.529 29.8939 153.04 30.6117 152.33 31.121C151.62 31.6303 150.746 31.8869 149.703 31.8869C148.408 31.8869 147.366 31.51 146.576 30.7641C145.778 30.0102 145.385 29.0197 145.385 27.7766V26.9586H159.712V23.2894C159.712 20.1014 158.762 17.527 156.865 15.5741C154.969 13.6172 152.49 12.6348 149.419 12.6348L149.415 12.6428ZM153.826 22.7681H145.385V22.335C145.385 21.0919 145.774 20.1014 146.556 19.3475C147.325 18.6017 148.368 18.2328 149.655 18.2328C150.942 18.2328 151.933 18.6017 152.691 19.3475C153.445 20.1014 153.826 21.0919 153.826 22.335V22.7681Z" fill="#131313"/>
<path d="M177.933 12.6426C176.173 12.6426 174.653 13.2 173.366 14.3148C172.078 15.4296 171.16 16.9694 170.607 18.9383V12.6426H163.918V37.4807H170.607V22.8722C170.607 21.6932 170.956 20.7428 171.657 20.021C172.359 19.2992 173.277 18.9383 174.416 18.9383H179.497V12.6426H177.933Z" fill="#131313"/>
<path d="M57.0625 12.2939C57.5919 11.5761 58.2816 11.2152 59.1397 11.2152H62.9613V4.91943H61.7863C60.467 4.91943 59.3202 5.47281 58.3538 6.58759C57.9929 7.00865 57.668 7.48585 57.3833 8.0272C56.6735 9.37056 56.3287 10.9946 56.2846 12.6427H53.1367V18.1044H56.2445V30.3751C56.2445 32.5245 56.8901 34.2448 58.1934 35.536C59.4886 36.8312 61.1888 37.4768 63.2981 37.4768L67.6891 37.4688V32.0112H64.6254C64.1322 32.0112 63.7392 31.8548 63.4425 31.562C63.1497 31.2653 62.9973 30.8683 62.9973 30.3711V18.1004H67.6891V12.6387H56.842C56.9101 12.5184 56.9823 12.4021 57.0625 12.2899V12.2939Z" fill="#131313"/>
<path d="M138.957 12.7629H131.35L128.447 17.5589L125.772 21.9859V12.6426H119.268V37.4727H125.772V30.419L127.632 27.596L132.501 37.4807H140.031L130.063 23.9749L138.957 12.7629Z" fill="#131313"/>
</svg>
