<svg width="40" height="40" viewBox="0 0 40 40" fill="none" xmlns="http://www.w3.org/2000/svg">
<g id="Logo">
<path id="Vector" d="M22.4834 7.44831C25.3491 7.93735 28.2149 9.30666 30.484 11.2726L31.2958 11.9866L30.2199 13.0625L29.1343 14.1481L28.567 13.6591C27.2368 12.505 25.5154 11.4878 24.0483 10.9889C23.3049 10.7346 21.9845 10.4217 21.4955 10.3728L21.1532 10.3434L21.1238 18.3832L21.1043 26.4328H19.5883H18.0722V18.3636V10.2945L17.8571 10.3336C17.7299 10.363 17.2702 10.4608 16.8203 10.539C14.7076 10.9498 12.3701 12.1333 10.7073 13.6298L10.1303 14.1384L9.06415 13.0723L7.99805 12.0159L8.32081 11.6834C9.2402 10.7151 11.4604 9.23819 12.9667 8.59266C16.0476 7.27226 19.2166 6.89081 22.4834 7.44831ZM16.9964 13.5124V15.0773L16.4682 15.312C14.8837 16.0358 13.4264 17.5225 12.6928 19.1363C12.2038 20.2024 12.0668 20.8871 12.0668 22.227C12.0668 23.9387 12.4287 25.1319 13.3579 26.5012C13.8372 27.2152 15.0206 28.3205 15.764 28.7704C16.967 29.4942 18.8547 29.9343 20.1751 29.8071C24.2341 29.4061 27.1683 26.2372 27.1683 22.2564C27.1683 21.0436 26.9727 20.0948 26.5228 19.1168C25.7404 17.4051 24.4395 16.1043 22.6888 15.2925L22.1802 15.0577V13.5026C22.1802 12.6517 22.2193 11.9572 22.2584 11.9572C22.4931 11.9572 23.8429 12.4854 24.596 12.8766C27.1586 14.197 29.0658 16.6031 29.8776 19.5471C30.1221 20.4372 30.1515 20.6621 30.1515 22.227C30.1515 23.792 30.1221 24.0169 29.8776 24.907C29.3788 26.7066 28.4985 28.2813 27.2466 29.592L26.5815 30.2962L27.8334 31.5481L29.0756 32.8L23.4028 32.7609L17.7299 32.7316L16.8105 32.4675C12.5168 31.2253 9.54341 27.6847 9.07393 23.2638C8.60446 18.9603 11.0203 14.6078 14.9228 12.7201C15.627 12.3778 16.6834 11.9768 16.9279 11.967C16.967 11.9572 16.9964 12.6615 16.9964 13.5124Z" fill="#212121"/>
</g>
</svg>
