<svg width="501" height="307" viewBox="0 0 501 307" fill="none" xmlns="http://www.w3.org/2000/svg">
<path d="M161.379 250.27V285.99C161.379 287.44 161.83 288.59 162.68 289.45C163.53 290.31 164.68 290.76 166.12 290.76H175.04V306.64L162.259 306.66C156.119 306.66 151.169 304.78 147.399 301.01C143.609 297.25 141.729 292.25 141.729 285.99V250.27H132.68V234.37H175.04V250.27H161.39H161.379Z" fill="white"/>
<path d="M239.169 240.88C234.799 236.54 229.099 234.37 222.059 234.37H191.229V249.94H218.259C220.679 249.94 222.649 250.72 224.169 252.21C225.669 253.72 226.409 255.72 226.409 258.18V261.86H208.959C201.759 261.86 195.889 264.05 191.379 268.37C186.889 272.73 184.629 278.39 184.629 285.39C184.629 291.71 186.499 296.85 190.249 300.78C193.999 304.68 198.929 306.67 205.039 306.67C210.189 306.67 214.659 305.12 218.409 302.04C222.159 298.98 224.829 294.79 226.409 289.5V306.64H245.709V258.19C245.709 251 243.519 245.24 239.169 240.88ZM226.409 280C226.139 283.33 224.869 285.97 222.619 288.01C220.379 290.03 217.509 291.05 214.049 291.05C211.029 291.05 208.609 290.27 206.809 288.65C204.959 287.04 204.039 284.97 204.039 282.41C204.039 279.85 204.859 277.99 206.499 276.52C208.139 275.05 210.339 274.33 213.039 274.33H226.409V279.99V280Z" fill="white"/>
<path d="M310.291 270.52C306.701 267.46 300.76 265.19 292.48 263.71L287.23 262.87C283 262.13 280.031 261.25 278.331 260.23C276.631 259.21 275.78 257.87 275.78 256.2C275.78 254.35 276.631 252.91 278.331 251.89C280.031 250.87 282.36 250.36 285.3 250.36C292.48 250.36 296.34 253.14 296.9 258.7H313.741C313.001 251.01 310.081 245.03 304.971 240.77C299.861 236.51 292.981 234.37 284.331 234.37C275.681 234.37 269.37 236.39 264.59 240.42C259.8 244.45 257.411 250.04 257.411 257.17C257.411 263.01 259.23 267.5 262.86 270.66C266.5 273.81 272.55 276.08 281.01 277.47L286.391 278.44C290.441 279.09 293.291 279.9 294.951 280.87C296.611 281.84 297.431 283.12 297.431 284.69C297.431 288.67 293.841 290.67 286.661 290.67C278.381 290.67 273.961 287.89 273.411 282.33H256.57C257.31 290.02 260.341 296 265.681 300.27C271.021 304.53 278.201 306.67 287.221 306.67C296.241 306.67 303.121 304.61 308.141 300.48C313.161 296.36 315.661 290.73 315.661 283.59C315.661 277.94 313.87 273.58 310.28 270.52H310.291Z" fill="white"/>
<path d="M442.88 276.06V265.38C442.88 256.11 440.11 248.61 434.59 242.93C429.07 237.23 421.851 234.38 412.911 234.38C403.971 234.38 396.67 237.21 391.17 242.85C385.71 248.51 382.971 255.97 382.971 265.24V275.8C382.971 285.07 385.72 292.53 391.17 298.17C396.67 303.83 403.951 306.68 413.081 306.68C421.061 306.68 427.7 304.43 432.96 299.99C438.19 295.53 441.471 289.52 442.741 281.94H425.63C424.89 284.6 423.48 286.69 421.4 288.18C419.33 289.67 416.79 290.41 413.75 290.41C409.98 290.41 406.941 289.32 404.641 287.15C402.321 284.96 401.17 282.07 401.17 278.45V276.07H442.871L442.88 276.06ZM401.181 262.59C401.181 258.98 402.311 256.08 404.581 253.89C406.821 251.72 409.851 250.65 413.601 250.65C417.351 250.65 420.22 251.72 422.44 253.89C424.63 256.08 425.741 258.97 425.741 262.59V263.85H401.17V262.59H401.181Z" fill="white"/>
<path d="M495.931 234.37C490.811 234.37 486.381 235.99 482.641 239.24C478.901 242.49 476.22 246.97 474.61 252.7V234.38H455.141V306.68H474.61V264.16C474.61 260.73 475.63 257.96 477.67 255.86C479.71 253.76 482.381 252.71 485.701 252.71H500.48V234.39H495.931V234.37Z" fill="white"/>
<path d="M161.28 211.9V230.22H150.161C147.661 230.22 145.66 231.27 144.11 233.36C142.58 235.47 141.811 238.23 141.811 241.66V235.41C141.811 230.27 142.81 225.13 145.03 220.93C145.86 219.36 146.8 217.97 147.86 216.74C150.68 213.5 154.02 211.89 157.86 211.89H161.28V211.9Z" fill="white"/>
<path d="M385.61 306.67H363.68L349.51 277.9L344.09 286.12V306.65H325.16V234.37H344.09V261.57L351.89 248.68L360.34 234.72H382.47L356.58 267.36L385.61 306.67Z" fill="white"/>
<path d="M259.38 124.01L269 51.95L231.59 73.55L216.96 48.21L275.49 14.41L250.52 0L167.49 47.94L167.5 143.81L250.52 191.74L333.55 143.81V114.99L274.02 149.36L259.38 124.01Z" fill="white"/>
<path d="M333.551 47.93L306.011 32.03L296.801 102.41L333.551 81.19V47.93Z" fill="white"/>
<path d="M67.3711 239.29H113.321L67.3711 301.76V306.67H119.921V301.76H73.8311L119.921 239.29V234.38H67.3711V239.29Z" fill="white"/>
<path d="M0.5 268.07H0.410156V272.98H0.5C1.76 291.79 17.4098 306.66 36.5498 306.66H54.6499V301.75H36.5498C20.1498 301.75 6.67992 289.05 5.41992 272.97H44.0498V268.06H5.41992C6.67992 251.98 20.1498 239.28 36.5498 239.28H54.6499V234.37H36.5498C17.4098 234.37 1.76 249.25 0.5 268.07Z" fill="white"/>
</svg>
