<svg width="72" height="72" viewBox="0 0 72 72" fill="none" xmlns="http://www.w3.org/2000/svg">
<g id="skill-icons:figma-light" clip-path="url(#clip0_117_80834)">
<g id="Group">
<path id="Vector" d="M55.125 0H16.875C7.55519 0 0 7.55519 0 16.875V55.125C0 64.4448 7.55519 72 16.875 72H55.125C64.4448 72 72 64.4448 72 55.125V16.875C72 7.55519 64.4448 0 55.125 0Z" fill="black"/>
<g id="Clip path group">
<mask id="mask0_117_80834" style="mask-type:luminance" maskUnits="userSpaceOnUse" x="17" y="7" width="38" height="58">
<g id="skillIconsFigmaLight0">
<path id="Vector_2" d="M17.1562 7.875H54.6637V64.125H17.1562V7.875Z" fill="white"/>
</g>
</mask>
<g mask="url(#mask0_117_80834)">
<g id="Group_2">
<path id="Vector_3" d="M26.5353 64.125C31.7103 64.125 35.9102 59.9251 35.9102 54.7501V45.3749H26.5353C21.3603 45.3749 17.1602 49.5751 17.1602 54.7501C17.1602 59.9251 21.3603 64.125 26.5353 64.125Z" fill="#0ACF83"/>
<path id="Vector_4" d="M17.1602 36C17.1602 30.825 21.3603 26.6251 26.5353 26.6251H35.9102V45.3749H26.5353C21.3603 45.3749 17.1602 41.175 17.1602 36Z" fill="#A259FF"/>
<path id="Vector_5" d="M17.1602 17.2499C17.1602 12.0749 21.3603 7.875 26.5353 7.875H35.9102V26.6251H26.5353C21.3603 26.6251 17.1602 22.4249 17.1602 17.2499Z" fill="#F24E1E"/>
<path id="Vector_6" d="M35.9102 7.875H45.2851C50.4601 7.875 54.6602 12.0749 54.6602 17.2499C54.6602 22.4249 50.4601 26.6251 45.2851 26.6251H35.9102V7.875Z" fill="#FF7262"/>
<path id="Vector_7" d="M54.6602 36C54.6602 41.175 50.4601 45.3749 45.2851 45.3749C40.1101 45.3749 35.9102 41.175 35.9102 36C35.9102 30.825 40.1101 26.6251 45.2851 26.6251C50.4601 26.6251 54.6602 30.825 54.6602 36Z" fill="#1ABCFE"/>
</g>
</g>
</g>
</g>
</g>
<defs>
<clipPath id="clip0_117_80834">
<rect width="72" height="72" fill="white"/>
</clipPath>
</defs>
</svg>
