<svg width="72" height="72" viewBox="0 0 72 72" fill="none" xmlns="http://www.w3.org/2000/svg">
<g id="skill-icons:flutter-dark" clip-path="url(#clip0_117_80944)">
<g id="Group">
<path id="Vector" d="M55.125 0H16.875C7.55519 0 0 7.55519 0 16.875V55.125C0 64.4448 7.55519 72 16.875 72H55.125C64.4448 72 72 64.4448 72 55.125V16.875C72 7.55519 64.4448 0 55.125 0Z" fill="#242938"/>
<path id="Vector_2" d="M40.7627 10.7049L56.4494 10.6875L30.1314 36.9917L23.2726 43.8123L15.4688 35.9989L40.7627 10.7049ZM40.6167 34.1913C40.8203 33.9224 41.195 34.0552 41.4793 34.0206L56.4359 34.0242L42.8046 47.6423L34.9602 39.8461L40.6167 34.1913Z" fill="#44D1FD"/>
<path id="Vector_3" d="M27.1406 47.6555L34.9599 39.8461L42.8043 47.6423L42.8369 47.6769L34.9619 55.4788L27.1406 47.6555Z" fill="#1FBCFD"/>
<path id="Vector_4" d="M34.9629 55.4789L42.8379 47.677L56.4422 61.2948C51.3179 61.3064 46.1952 61.2909 41.0728 61.3024C40.7808 61.3677 40.6003 61.1008 40.4138 60.9357L34.9629 55.4789Z" fill="#08589C"/>
</g>
</g>
<defs>
<clipPath id="clip0_117_80944">
<rect width="72" height="72" fill="white"/>
</clipPath>
</defs>
</svg>
