<svg width="72" height="72" viewBox="0 0 72 72" fill="none" xmlns="http://www.w3.org/2000/svg">
<path d="M8.5 4.5C6.29086 4.5 4.5 6.29086 4.5 8.5V63.5C4.5 65.7091 6.29086 67.5 8.5 67.5H63.5C65.7091 67.5 67.5 65.7091 67.5 63.5V8.5C67.5 6.29086 65.7091 4.5 63.5 4.5H8.5ZM38.7855 53.6333C38.7855 59.7645 35.1855 62.5635 29.9408 62.5635C26.459 62.5635 24.0548 61.2431 22.4665 59.3653C21.5002 58.2229 22.0283 56.5615 23.3094 55.7883C24.7155 54.9397 26.3567 55.6256 27.6599 56.6252C28.189 57.031 28.8338 57.276 29.6887 57.276C31.6283 57.276 32.8658 56.5155 32.8658 53.55V36.3859C32.8658 34.7512 34.1909 33.426 35.8256 33.426C37.4603 33.426 38.7855 34.7512 38.7855 36.3859V53.6333ZM52.7906 62.5624C52.7899 62.5631 52.7889 62.5635 52.7879 62.5635C48.5857 62.5631 45.5176 61.0358 43.5323 58.7831C42.5146 57.6284 43.0454 55.9141 44.3786 55.1449C45.7411 54.3588 47.4145 54.8885 48.6106 55.9102C49.638 56.7879 50.9281 57.3323 52.6635 57.3323C55.1092 57.3323 56.6865 56.1082 56.6865 54.4072C56.6865 52.3822 55.0822 51.6645 52.3687 50.4697L50.8927 49.8375C46.6177 48.024 43.7917 45.7313 43.7917 40.9072C43.7917 36.4635 47.1802 33.0885 52.4543 33.0885C55.3321 33.0885 57.5868 33.8508 59.3565 35.739C60.3466 36.7953 59.9104 38.4383 58.6912 39.2191C57.3687 40.0662 55.7144 39.4076 54.3276 38.6706C53.7815 38.3805 53.1659 38.25 52.4408 38.25C50.7127 38.25 49.6147 39.348 49.6147 40.7812C49.6147 42.5542 50.7127 43.2698 53.2575 44.3813L54.7335 45.0135C59.769 47.1645 62.595 49.374 62.595 54.3218C62.595 59.638 58.404 62.5607 52.7934 62.5612C52.7923 62.5613 52.7913 62.5617 52.7906 62.5624Z" fill="black"/>
</svg>
