<svg width="12" height="12" viewBox="0 0 12 12" fill="none" xmlns="http://www.w3.org/2000/svg">
<path id="Union" fill-rule="evenodd" clip-rule="evenodd" d="M5.49872 2.18631C5.80617 1.9573 6 1.6227 6 1.25C6 0.559644 5.33496 0 4.51459 0C3.69423 0 3.02919 0.559644 3.02919 1.25C3.02919 1.62073 3.22097 1.95377 3.52561 2.18268C3.95535 2.55339 3.85567 3.32888 3.06243 3.33331H1C0.447715 3.33331 0 3.78103 0 4.33331V6.02872C0.00455242 6.69391 0.774901 6.77937 1.14699 6.42185C1.376 6.16311 1.71061 6 2.08331 6C2.77367 6 3.33331 6.55964 3.33331 7.25C3.33331 7.94036 2.77367 8.5 2.08331 8.5C1.71178 8.5 1.3781 8.33791 1.14914 8.08058C0.745981 7.733 0.00447773 7.76594 0 8.45143V11C0 11.5523 0.447715 12 1 12H7.66669C8.21897 12 8.66669 11.5523 8.66669 11V9.42754C8.66669 8.61224 9.40933 8.57082 9.81411 8.98055C10.0431 9.28569 10.3775 9.47803 10.75 9.47803C11.4404 9.47803 12 8.81728 12 8.00221C12 7.18714 11.4404 6.52639 10.75 6.52639C10.3787 6.52639 10.0453 6.7175 9.81631 7.02095C9.44413 7.44777 8.66669 7.34639 8.66669 6.55277V4.33331C8.66669 3.78103 8.21897 3.33331 7.66669 3.33331H5.94184C5.12847 3.32899 5.08797 2.58999 5.49872 2.18631ZM6 9.91666C6 10.2882 5.8379 10.6219 5.58058 10.8508C5.23195 11.2552 5.26614 12 5.95768 12H3.52279C4.1934 12 4.28043 11.2262 3.92185 10.853C3.66311 10.624 3.5 10.2894 3.5 9.91666C3.5 9.2263 4.05964 8.66666 4.75 8.66666C5.44036 8.66666 6 9.2263 6 9.91666Z" fill="white"/>
</svg>
