<svg width="48" height="48" viewBox="0 0 48 48" fill="none" xmlns="http://www.w3.org/2000/svg">
<path d="M12.0002 9.6C12.0002 8.32696 12.5059 7.10606 13.4061 6.20589C14.3063 5.30571 15.5272 4.8 16.8002 4.8H31.2002C32.4732 4.8 33.6941 5.30571 34.5943 6.20589C35.4945 7.10606 36.0002 8.32696 36.0002 9.6V17.004C35.2235 16.7306 34.3768 16.7306 33.6002 17.004V9.6C33.6002 8.96348 33.3473 8.35303 32.8972 7.90294C32.4472 7.45286 31.8367 7.2 31.2002 7.2H16.8002C16.1637 7.2 15.5532 7.45286 15.1031 7.90294C14.6531 8.35303 14.4002 8.96348 14.4002 9.6V17.004C13.6235 16.7306 12.7768 16.7306 12.0002 17.004V9.6ZM12.0002 33.396C12.7754 33.6696 13.625 33.6696 14.4002 33.396V38.4C14.4002 39.0365 14.6531 39.647 15.1031 40.0971C15.5532 40.5471 16.1637 40.8 16.8002 40.8H31.2002C31.8367 40.8 32.4472 40.5471 32.8972 40.0971C33.3473 39.647 33.6002 39.0365 33.6002 38.4V33.396C34.3754 33.6696 35.225 33.6696 36.0002 33.396V38.4C36.0002 39.673 35.4945 40.8939 34.5943 41.7941C33.6941 42.6943 32.4732 43.2 31.2002 43.2H16.8002C15.5272 43.2 14.3063 42.6943 13.4061 41.7941C12.5059 40.8939 12.0002 39.673 12.0002 38.4V33.396ZM7.553 24.3504L12.353 19.5504C12.4646 19.439 12.597 19.3506 12.7427 19.2904C12.8884 19.2302 13.0446 19.1992 13.2022 19.1993C13.3599 19.1994 13.516 19.2306 13.6617 19.2911C13.8073 19.3515 13.9396 19.44 14.051 19.5516C14.1624 19.6632 14.2508 19.7956 14.311 19.9413C14.3712 20.087 14.4022 20.2432 14.4021 20.4008C14.402 20.5585 14.3708 20.7146 14.3103 20.8603C14.2499 21.0059 14.1614 21.1382 14.0498 21.2496L11.297 24H18.0002C18.3185 24 18.6237 24.1264 18.8487 24.3515C19.0738 24.5765 19.2002 24.8817 19.2002 25.2C19.2002 25.5183 19.0738 25.8235 18.8487 26.0485C18.6237 26.2736 18.3185 26.4 18.0002 26.4H11.297L14.0498 29.1504C14.2751 29.3757 14.4017 29.6813 14.4017 30C14.4017 30.3187 14.2751 30.6243 14.0498 30.8496C13.8245 31.0749 13.5189 31.2015 13.2002 31.2015C12.8815 31.2015 12.5759 31.0749 12.3506 30.8496L7.5506 26.0496C7.32722 25.826 7.20127 25.5232 7.2002 25.2072V25.1928C7.20162 24.8799 7.32571 24.58 7.5458 24.3576L7.553 24.3504ZM35.6498 30.8496L40.4498 26.0496L40.4546 26.0424C40.6745 25.8198 40.7985 25.5201 40.8002 25.2072V25.1928C40.7982 24.8776 40.6724 24.5759 40.4498 24.3528L35.6498 19.5528C35.4248 19.3275 35.1195 19.2008 34.801 19.2005C34.4826 19.2003 34.1771 19.3266 33.9518 19.5516C33.7265 19.7766 33.5998 20.0819 33.5995 20.4004C33.5993 20.7188 33.7256 21.0243 33.9506 21.2496L36.7034 24H30.0002C29.6819 24 29.3767 24.1264 29.1517 24.3515C28.9266 24.5765 28.8002 24.8817 28.8002 25.2C28.8002 25.5183 28.9266 25.8235 29.1517 26.0485C29.3767 26.2736 29.6819 26.4 30.0002 26.4H36.7034L33.9506 29.1504C33.7253 29.3757 33.5987 29.6813 33.5987 30C33.5987 30.3187 33.7253 30.6243 33.9506 30.8496C34.1759 31.0749 34.4815 31.2015 34.8002 31.2015C35.1189 31.2015 35.4245 31.0749 35.6498 30.8496Z" fill="#212121"/>
</svg>
